<?xml version="1.0" standalone="no"?>
<!DOCTYPE svg PUBLIC "-//W3C//DTD SVG 1.1//EN" "http://www.w3.org/Graphics/SVG/1.1/DTD/svg11.dtd" >
<svg xmlns="http://www.w3.org/2000/svg">
<metadata>Generated by IcoMoon</metadata>
<defs>
<font id="lynnfont" horiz-adv-x="1024">
<font-face units-per-em="1024" ascent="960" descent="-64" />
<missing-glyph horiz-adv-x="1024" />
<glyph unicode="&#x20;" horiz-adv-x="512" d="" />
<glyph unicode="&#xe900;" glyph-name="active" d="M720 120.96h-416c-168 0-304 136-304 304v38.72c0 168 136 304 304 304h416c168 0 304-136 304-304v-38.72c0-168-136-304-304-304zM699.84 715.2c-149.44 0-270.72-121.28-270.72-270.72s121.28-270.72 270.72-270.72 270.72 121.28 270.72 270.72-121.28 270.72-270.72 270.72z" />
<glyph unicode="&#xe901;" glyph-name="add" d="M71.68 376c-39.68 0-71.68 32.32-71.68 72s32.32 72 72 72h880c39.68 0 72-32 72-72s-32.32-72-72-72h-880.32zM496.96-64h-0.64c-39.68 0-71.68 32.64-71.36 72.64l6.72 880c0.32 39.36 32.64 71.36 72 71.36h0.64c39.68 0 71.68-32.64 71.36-72.64l-6.72-880c-0.32-39.68-32.32-71.36-72-71.36z" />
<glyph unicode="&#xe902;" glyph-name="add-circle" d="M512-67.52c-282.24 0-512 229.76-512 512s229.76 512 512 512 512-229.76 512-512-229.76-512-512-512zM512 857.28c-227.52 0-412.8-185.28-412.8-412.8s185.28-412.8 412.8-412.8 412.8 185.28 412.8 412.8-185.28 412.8-412.8 412.8zM216.32 396.16c-27.2 0-49.6 22.080-49.6 49.6s22.080 49.6 49.6 49.6h606.080c27.2 0 49.6-22.080 49.6-49.6s-22.080-49.6-49.6-49.6h-606.080zM509.12 93.44h-0.32c-27.2 0-49.28 22.72-49.28 49.92l4.8 606.080c0 27.2 22.4 49.28 49.6 49.28h0.32c27.2 0 49.28-22.72 49.28-49.92l-4.8-606.080c0-27.2-22.4-49.28-49.6-49.28z" />
<glyph unicode="&#xe903;" glyph-name="alert" d="M509.44-64c-80 0.64-158.4 7.68-235.52 31.68-188.8 58.56-238.4 160-145.6 338.88 69.44 134.080 127.36 264.32 129.92 421.12 1.92 130.88 121.28 226.56 249.28 232.32 133.12 5.76 264.96-86.4 272-224.32 8-160.32 62.4-296 134.4-434.56 92.48-178.56 40.32-275.84-153.6-334.4-82.24-24.96-165.76-30.72-250.56-30.4zM521.6 245.76c-89.6 1.28-178.24-4.48-261.44-41.28-26.56-11.84-58.24-22.72-61.12-57.28-3.2-36.48 27.2-49.92 54.4-60.8 177.92-70.72 356.48-69.12 534.72-1.28 27.84 10.56 57.28 24.64 55.040 60.48-1.92 34.88-33.6 47.36-59.84 58.88-83.2 36.48-171.84 42.56-261.44 41.28zM599.36 123.84c0-28.807-35.244-52.16-78.72-52.16s-78.72 23.353-78.72 52.16c0 28.807 35.244 52.16 78.72 52.16s78.72-23.353 78.72-52.16z" />
<glyph unicode="&#xe904;" glyph-name="alert-solid" d="M1024.64 446.080c0-282.88-229.12-512-512-512s-512 229.44-512 512 229.44 512 512 512 512-229.12 512-512zM465.92 178.24c13.12-10.24 28.8-15.36 47.36-15.36s33.6 5.12 46.72 15.36c13.12 10.24 19.52 26.56 19.52 49.28s-6.4 40.64-19.52 50.24c-13.12 9.6-28.48 14.4-46.72 14.4s-34.24-4.8-47.36-14.4c-13.12-9.6-19.52-26.24-19.52-50.24s6.4-39.36 19.52-49.28zM579.52 729.28h-131.52l19.52-371.52h92.8l19.52 371.52z" />
<glyph unicode="&#xe905;" glyph-name="api" d="M688.96 813.12c-1.28-5.44-2.56-10.88-4.16-16.32-70.72-243.84-141.12-487.68-211.84-731.52-7.36-25.28-11.84-28.16-37.44-20.8-27.52 8-55.040 16.32-82.56 24.64-18.24 5.44-20.16 9.6-14.72 29.12 26.24 90.56 52.48 181.44 78.72 272 45.12 155.52 90.24 311.040 135.36 466.56 6.4 22.4 10.88 24.64 33.6 18.24 29.44-8.64 58.88-16.64 87.68-26.24 6.4-1.92 11.52-8.32 17.28-12.48-0.64-1.28-1.28-2.24-1.92-3.52zM187.52 449.28c44.16-39.040 87.040-76.8 130.24-114.24 29.12-25.6 29.44-25.28 2.56-53.44-17.92-18.88-35.52-38.080-53.44-56.96-12.8-13.76-18.56-14.080-32-1.92-75.2 70.4-150.4 140.8-225.6 211.52-12.8 11.84-12.8 18.56 0 30.72 75.2 70.72 150.4 141.12 225.6 211.52 13.12 12.16 18.88 11.84 31.040-0.96 21.76-23.040 43.52-46.080 64.96-69.44 12.48-13.44 12.16-19.52-1.92-31.68-43.2-38.080-86.72-76.16-129.92-114.24-3.52-3.2-7.040-6.4-11.84-10.56zM836.48 449.6c-32.96 28.8-64.32 56.64-95.68 84.48-15.68 13.76-31.36 27.52-46.72 41.28-12.48 11.2-13.12 17.6-2.24 29.44 22.080 24 44.16 48 66.88 71.68 11.2 11.84 17.92 11.84 30.080 0.64 74.88-70.080 149.76-140.16 224.64-210.24 14.080-13.44 14.4-19.84 0.64-32.64-75.2-70.72-150.4-141.12-225.6-211.52-11.84-11.2-18.88-10.88-30.080 0.96-22.080 23.36-43.84 47.040-65.6 70.4-11.84 12.8-11.52 18.88 1.6 30.72 46.72 41.28 93.76 82.56 142.4 125.44z" />
<glyph unicode="&#xe906;" glyph-name="arroba" d="M1024 346.24c-3.52-13.44-5.44-27.52-10.56-40.32-25.92-64.96-73.92-104-143.68-110.72-67.52-6.4-121.28 21.12-159.68 77.12-1.6 2.24-2.88 4.48-6.4 9.92-2.24-3.52-3.2-7.040-5.44-9.28-72.32-71.040-158.4-96.64-255.68-68.48-98.56 28.48-160 96.32-180.8 196.48-24 116.16 38.4 270.72 208.32 296.64 92.48 14.080 173.12-11.2 236.8-81.6 36.16-40 55.040-88.96 59.2-142.080 2.88-37.44 1.28-75.2 2.56-112.96 0.96-32.96 16.32-58.24 45.44-73.6 28.8-15.040 57.92-13.76 85.44 3.52 24.32 15.36 38.4 38.080 39.040 67.2 0.96 61.76 1.6 123.52-11.52 184.96-35.52 165.12-162.56 290.56-328.64 320.64-113.6 20.8-220.8 3.52-319.36-57.92-91.2-56.96-148.16-140.16-176-243.2-23.040-86.080-24.96-171.84 6.080-256.32 44.48-120.64 128.32-204.48 246.4-252.16 126.72-51.2 251.2-44.16 370.56 24.64 10.88 6.4 21.12 13.76 31.68 20.8 20.8 13.76 46.4 9.28 60.16-10.24 13.76-19.84 8.96-45.12-11.52-59.84-98.24-70.080-207.36-103.040-327.68-90.88-189.76 18.88-333.12 111.68-424.64 280-44.8 82.24-59.2 171.84-52.48 264.64 7.68 107.52 45.12 203.52 113.28 287.040 80.32 98.24 183.68 159.36 309.12 181.76 18.56 3.52 37.44 5.44 56 8 21.44 0 42.56 0 64 0 16.96-2.24 34.24-3.84 51.2-6.72 97.28-16.32 183.040-56.96 256.64-122.88 88.32-79.040 143.36-177.28 164.16-294.080 3.2-18.56 5.44-37.44 8-56v-134.080zM682.56 448c0 94.4-75.52 170.24-169.92 170.56-94.72 0.32-170.88-75.52-170.88-170.24 0-94.4 75.52-170.24 169.92-170.56 94.72-0.32 170.88 75.84 170.88 170.24z" />
<glyph unicode="&#xe907;" glyph-name="back" d="M223.040 528.96h20.16c233.6 0 467.2 0 700.8 0 44.48 0 73.28-23.68 79.36-64.32 5.44-38.4-23.68-76.48-62.080-80.64-8-0.96-16-0.64-24-0.64-231.36 0-462.72 0-694.080 0h-19.84c1.28-7.68 6.72-10.88 10.88-15.040 73.6-73.6 147.2-147.2 220.8-220.48 16.64-16.64 27.2-35.2 26.24-59.2-1.28-30.72-16.32-53.12-44.8-65.28s-55.040-6.72-77.76 13.76c-16.32 15.040-31.68 31.36-47.36 47.040-87.040 87.36-174.4 175.040-261.44 262.4-66.88 67.2-66.56 152.32 0.32 219.84 100.48 100.8 200.96 201.6 301.12 302.72 19.84 20.16 42.56 30.72 70.72 24.96 27.84-5.76 47.36-22.72 55.68-50.24 8-26.56 2.56-50.88-16.32-71.68-3.52-3.84-7.040-7.36-10.88-10.88-72.32-72.32-144.64-144.96-216.96-217.28-3.84-3.84-8.96-6.72-11.52-15.040z" />
<glyph unicode="&#xe908;" glyph-name="back-circle" d="M513.28-64c-282.24 0-512 229.76-512 512s229.76 512 512 512 512-229.76 512-512-229.76-512-512-512zM513.28 860.8c-227.52 0-412.8-185.28-412.8-412.8s185.28-412.8 412.8-412.8 412.8 185.28 412.8 412.8-184.96 413.12-412.8 413.12zM316.48 503.68h13.12c152.64 0 305.28 0 457.92 0 29.12 0 48-15.68 51.84-41.92 3.52-24.96-15.36-49.92-40.64-52.8-5.12-0.64-10.56-0.64-15.68-0.64-151.040 0-302.4 0-453.44 0h-13.12c0.96-5.12 4.48-7.040 7.040-9.6 48-48 96-96.32 144.32-144 10.88-10.88 17.92-23.040 16.96-38.72-0.96-20.16-10.56-34.88-29.12-42.56-18.56-8-35.84-4.48-50.88 8.96-10.88 9.92-20.8 20.48-31.040 30.72-56.96 57.28-113.92 114.24-170.88 171.52-43.84 43.84-43.52 99.52 0 143.68 65.6 65.92 131.2 131.84 196.8 197.76 13.12 13.12 27.84 20.16 46.4 16.32 18.24-3.84 30.72-14.72 36.16-32.64 5.12-17.28 1.6-33.28-10.56-46.72-2.24-2.56-4.8-4.8-7.040-7.040-47.36-47.36-94.4-94.72-141.76-142.080-2.56-2.56-6.080-4.48-7.36-9.92z" />
<glyph unicode="&#xe909;" glyph-name="block" d="M546.88 960c34.56-6.72 70.080-11.52 104-20.8 223.68-61.76 379.52-274.24 372.48-506.88-7.68-251.84-197.76-460.48-448-492.48-279.040-35.2-533.12 161.92-570.24 442.24-37.76 283.2 169.6 545.6 453.44 573.76 5.76 0.64 11.2 2.56 16.96 4.16 23.68 0 47.36 0 71.040 0zM200.96 631.36c-73.6-104.32-82.88-310.72 60.16-447.36 143.040-136.32 344.96-113.6 434.24-47.040-164.8 164.8-329.92 329.6-494.72 494.4zM822.080 261.44c82.88 126.080 74.88 332.16-72 460.16-142.080 123.84-336.32 100.8-423.36 34.56 164.8-164.48 329.6-329.28 495.36-495.040z" />
<glyph unicode="&#xe90a;" glyph-name="boolean" d="M234.88 884.8l11.84-25.28c-43.2-46.080-75.2-87.68-95.68-124.8s-36.16-79.36-47.040-126.4c-10.88-47.040-16.32-101.76-16.32-163.52s5.76-112.64 16.96-159.36c11.2-46.72 27.52-89.6 48.96-128 21.44-38.72 52.48-79.36 93.44-122.24l-11.84-23.68c-48.96 43.2-86.080 80.32-111.040 110.72-40.96 49.28-71.68 101.12-92.8 155.52-21.44 53.76-32 110.72-32 169.92s9.92 113.6 29.44 166.080c19.52 52.48 48.64 102.4 87.040 150.080 26.56 32.96 66.24 73.28 119.040 121.28zM414.4 812.16v-318.72c17.92 25.28 38.080 44.48 59.84 56.96s45.76 18.88 71.68 18.88c50.24 0 92.8-19.52 127.68-58.88s52.16-91.2 52.16-155.52c0-69.76-18.56-126.080-56-168.96s-83.52-64.32-138.88-64.32c-26.24 0-49.92 5.12-71.36 15.68-21.44 10.24-43.2 27.84-65.92 52.48-17.28-27.84-34.24-50.56-50.24-68.16l-18.24 6.4c8.64 35.2 12.8 71.68 12.8 109.76v484.16c0 15.040-5.12 26.56-15.68 35.2s-25.28 12.8-44.48 12.8h-19.2v34.24l155.84 7.68zM529.6 528.64c-34.56 0-62.4-15.040-84.16-45.12s-32.32-79.68-32.32-148.8 10.56-112.96 32-141.12c21.44-28.48 49.28-42.56 83.84-42.56 31.040 0 56 14.080 74.88 41.92 23.68 35.2 35.52 85.76 35.52 151.040s-10.56 111.36-31.36 140.48-47.040 43.52-78.4 43.52zM787.84 884.8c53.44-48.32 92.48-87.68 117.12-118.080 38.4-47.36 67.84-97.6 88-151.040s30.4-109.44 30.4-168.32-9.92-112.64-29.12-164.16c-19.52-51.52-48.64-102.080-87.68-151.36-27.84-35.2-67.2-75.2-118.4-120.64l-11.84 23.68c40.64 42.56 71.68 83.52 93.12 122.24s37.76 81.28 49.28 128 16.96 99.84 16.96 159.040-5.44 116.8-16.32 163.84-26.88 89.28-47.36 126.72c-20.48 37.44-52.48 79.040-95.36 124.48l11.84 25.28z" />
<glyph unicode="&#xe90b;" glyph-name="bot" d="M72.96 153.92c-21.44 0-71.68 0-71.68 228.8s50.24 228.8 71.68 228.8 71.68 0 71.68-228.8-50.24-228.8-71.68-228.8zM953.92 153.92c-21.44 0-71.68 0-71.68 228.8s50.24 228.8 71.68 228.8 71.68 0 71.68-228.8-50.24-228.8-71.68-228.8zM931.2-21.12h-835.2v835.52h388.8v-80.32h-308.8v-674.88h675.2v674.88h-308.8v80.32h388.8v-835.52zM585.28 734.080h-143.68l3.2 43.2c6.72 89.28 20.8 148.8 68.8 148.8s62.080-59.52 68.48-149.12l3.2-43.2zM387.84 477.12c0-34.816-28.224-63.040-63.040-63.040s-63.040 28.224-63.040 63.040c0 34.816 28.224 63.040 63.040 63.040s63.040-28.224 63.040-63.040zM765.44 477.12c0-34.816-28.224-63.040-63.040-63.040s-63.040 28.224-63.040 63.040c0 34.816 28.224 63.040 63.040 63.040s63.040-28.224 63.040-63.040zM765.44 225.28c0-34.816-28.224-63.040-63.040-63.040s-63.040 28.224-63.040 63.040c0 34.816 28.224 63.040 63.040 63.040s63.040-28.224 63.040-63.040zM576.64 225.28c0-34.816-28.224-63.040-63.040-63.040s-63.040 28.224-63.040 63.040c0 34.816 28.224 63.040 63.040 63.040s63.040-28.224 63.040-63.040zM387.84 225.28c0-34.816-28.224-63.040-63.040-63.040s-63.040 28.224-63.040 63.040c0 34.816 28.224 63.040 63.040 63.040s63.040-28.224 63.040-63.040z" />
<glyph unicode="&#xe90c;" glyph-name="brush" d="M1024.32 533.44c-3.52 0-7.36-0.32-10.88-0.32-334.080 0-668.16 0-1002.24 0-3.52 0-7.36 0-10.88 0.32 0 78.080 0 155.84 0 233.92 0.64 1.6 1.6 2.88 1.6 4.48 15.36 110.72 103.68 187.52 215.36 187.84 65.92 0 131.84 0 198.080 0 3.52 0 7.040 0 11.52 0 0-4.8 0-8.32 0-11.84 0-37.12 0-73.92 0-111.040 0-6.4 0.64-13.44 2.88-19.52 6.72-19.84 26.56-31.040 47.68-27.52 19.52 3.2 34.56 20.8 34.56 41.92 0 39.040 0 78.080 0 117.12 0 3.52 0 7.040 0 10.24h85.44c0-10.56 0-20.8 0-30.72 0-60.48 0-120.64 0-181.12 0-30.72 28.16-50.88 56-41.28 17.92 6.080 28.8 21.76 28.8 43.52 0 65.92 0 131.84 0 198.080 0 3.84 0 7.68 0 11.52h85.44v-11.52c0-60.8 0-121.28 0-182.080 0-34.56 0-69.44 0-104 0-29.12 26.24-48.96 54.080-41.6 19.52 5.12 31.36 22.4 31.36 45.76 0 92.48 0 184.64 0 277.12v11.84c2.56 0 3.84 0 5.12-0.64 1.92-0.32 3.84-0.64 5.76-1.28 77.76-22.72 128.64-72.64 151.68-150.4 3.52-12.16 5.44-24.64 8-36.8v-232zM496.32-64.32c-16.96 6.4-35.52 10.56-50.56 19.52-39.68 23.68-60.48 60.48-61.12 106.88-0.96 53.44 0 106.56 0 160 0 3.52 0 7.36 0 12.16-4.48 0-8.64 0-12.48 0-39.040 1.28-78.72-1.92-116.8 4.16-119.68 19.84-199.68 89.28-240.64 203.84-0.32 1.28-0.32 2.56-0.64 4.48h996.8c-1.28-4.16-2.24-8.32-3.84-12.16-42.88-121.28-154.56-200-284.48-200.64-26.88 0-54.080 0-82.24 0 0-4.16 0-7.68 0-11.2 0-51.52 0-103.36 0-154.88 0-67.84-41.92-118.4-108.48-130.88-1.28 0-2.24-0.96-3.52-1.6h-32z" />
<glyph unicode="&#xe90d;" glyph-name="bubble" d="M0 48.64l63.36 231.68c-33.92 55.040-51.84 116.16-51.84 177.28 0 221.76 227.2 402.24 506.24 402.24s506.24-180.48 506.24-402.24-227.2-402.24-506.24-402.24c-75.2 0-147.84 13.12-216 38.72l-301.76-45.44zM308.8 158.4l7.68-3.2c63.36-24.96 130.88-37.44 201.28-37.44 244.8 0 443.84 152.32 443.84 339.84s-199.040 339.84-443.84 339.84-443.84-152.64-443.84-339.84c0-54.080 16.64-106.24 48.96-154.56l8-11.84-45.44-166.4 223.36 33.6z" />
<glyph unicode="&#xe90e;" glyph-name="bubble-solid" d="M58.56 262.4c-37.12 55.68-58.56 118.72-58.56 185.6 0 220.8 229.12 400 512 400s512-178.88 512-400c0-220.8-229.12-400-512-400-82.56 0-160 15.68-229.12 42.56l-282.88-42.56 58.56 214.4z" />
<glyph unicode="&#xe90f;" glyph-name="call-end" d="M768.32-64c-75.52 4.48-148.48 25.28-215.68 63.36-169.92 96-315.52 219.84-425.92 382.4-55.040 80.64-100.48 166.72-119.36 263.68-20.48 105.6 1.6 200 83.84 274.56 38.4 34.56 83.2 47.36 135.040 35.84 26.56-5.76 44.8-19.52 53.76-43.84 24.32-67.2 48.32-134.72 70.4-202.56 8.96-27.2 3.84-52.48-20.16-72.96-19.84-16.96-37.76-36.48-56-55.68s-19.84-33.6-8.32-56.96c70.72-144 183.68-245.76 321.92-322.24 20.8-11.52 39.68-5.44 55.68 9.92 18.24 17.28 36.16 34.56 52.8 53.12 21.76 23.68 47.36 32.32 78.080 21.76 66.56-22.4 133.12-45.12 199.36-68.16 26.56-9.28 39.68-29.12 45.76-56.64 16.96-77.12-21.12-128.96-77.44-171.84-50.56-38.4-109.76-51.2-174.080-53.76zM1008.64 482.56c10.24-13.76 15.040-30.080 15.040-45.12 0-22.4-9.92-43.84-28.8-57.6-13.76-9.92-28.8-15.040-43.84-15.040-22.72 0-43.84 9.92-58.88 30.080l-103.68 138.88-107.52-144c-15.040-18.88-36.16-28.8-58.88-28.8-15.040 0-30.080 5.12-43.84 15.040-18.88 13.76-28.8 34.88-28.8 57.6 0 15.040 5.12 30.080 15.040 43.84l132.48 177.6-132.48 177.6c-10.24 12.48-15.040 27.52-15.040 42.56 0 22.4 10.24 45.12 28.8 58.88 13.76 9.92 28.8 15.040 43.84 15.040 22.4 0 45.12-9.92 58.88-28.8l107.52-144 103.68 138.88c13.76 18.88 36.16 28.8 58.88 28.8 15.040 0 30.080-3.84 43.84-13.76 18.88-13.76 28.8-35.2 28.8-57.6 0-15.040-5.12-31.36-15.040-45.12l-128.96-172.8 128.96-172.8z" />
<glyph unicode="&#xe910;" glyph-name="call-take" d="M769.92-64c-75.52 4.48-148.48 25.28-215.68 63.36-169.92 96-315.52 219.84-425.92 382.4-55.040 80.64-100.48 166.72-119.040 263.68-20.8 105.6 1.28 200 83.52 274.56 38.4 34.56 83.2 47.36 135.040 35.84 26.56-5.76 44.8-19.52 53.76-43.84 24.32-67.2 48.32-134.72 70.4-202.56 8.96-27.2 3.84-52.48-20.16-72.96-19.84-16.96-37.76-36.48-56-55.68s-19.84-33.6-8.32-56.96c70.72-144 183.68-245.76 321.92-322.24 20.8-11.52 39.68-5.44 55.68 9.92 18.24 17.28 36.16 34.56 52.8 53.12 21.76 23.68 47.36 32.32 78.080 21.76 66.56-22.4 133.12-45.12 199.36-68.16 26.56-9.28 39.68-29.12 45.76-56.64 16.96-77.12-21.12-128.96-77.44-171.84-50.56-38.4-109.76-51.2-174.080-53.76zM616.96 604.16c4.8 4.8 8.32 8 11.84 11.52 103.36 103.36 207.040 206.72 310.080 310.4 12.8 12.8 27.52 20.16 45.44 16 33.28-7.36 46.080-46.4 24-72.96-2.24-2.88-5.12-5.44-7.68-8-114.24-114.24-228.48-228.48-342.72-342.72-26.88-26.88-50.88-27.2-77.76-0.32-56.32 56.32-112.64 112.32-168.64 168.64-26.56 26.88-16.32 68.16 19.2 76.8 18.24 4.48 32.96-2.24 45.76-15.040 40-40.96 80.32-81.6 120.32-122.56 6.72-6.72 12.8-13.76 19.84-21.76z" />
<glyph unicode="&#xe911;" glyph-name="call-transfer" d="M768.32-64c-75.52 4.48-148.48 25.28-215.68 63.36-169.92 96-315.52 219.84-425.92 382.4-55.040 80.64-100.48 166.72-119.36 263.68-20.48 105.6 1.6 200 83.84 274.56 38.4 34.56 83.2 47.36 135.040 35.84 26.56-5.76 44.8-19.52 53.76-43.84 24.32-67.2 48.32-134.72 70.4-202.56 8.96-27.2 3.84-52.48-20.16-72.96-19.84-16.96-37.76-36.48-56-55.68s-19.84-33.6-8.32-56.96c70.72-144 183.68-245.76 321.92-322.24 20.8-11.52 39.68-5.44 55.68 9.92 18.24 17.28 36.16 34.56 52.8 53.12 21.76 23.68 47.36 32.32 78.080 21.76 66.56-22.4 133.12-45.12 199.36-68.16 26.56-9.28 39.68-29.12 45.76-56.64 16.96-77.12-21.12-128.96-77.44-171.84-50.56-38.4-109.76-51.2-174.080-53.76zM760.32 592c0 28.48 0 56.32 0 83.84 0 12.8 9.28 22.4 21.12 20.8 4.48-0.64 9.6-2.88 12.8-6.080 48-45.44 95.68-90.88 143.36-136.64 9.6-8.96 9.28-20.48 0-29.76-47.36-45.44-95.040-90.88-142.72-136.32-6.4-6.080-14.080-8.64-22.4-4.8-8.64 3.84-12.16 10.88-12.16 20.48 0 24.32 0 48.64 0 73.28 0 2.88 0 5.76 0 9.92h-9.6c-50.56 0-100.8 0-151.36 0-100.48 0-181.44 64.64-203.52 162.56-6.080 27.2-4.16 55.040-3.84 82.56 0 10.24 9.92 17.92 20.16 17.6 10.88-0.32 18.88-8.96 19.2-20.8 0.32-26.56 7.36-51.52 22.080-73.6 27.52-40.96 65.92-62.72 115.2-63.36 61.44-0.64 122.88 0 184 0 2.24 0 4.16 0 7.36 0.32zM655.040 749.44c0-28.48 0-56 0-83.2 0-5.44-2.24-11.52-5.44-15.68-7.040-8.96-19.2-8.64-28.16 0-14.72 13.76-29.44 27.84-44.16 41.92-32 30.72-64.32 61.44-96.32 92.16-13.12 12.8-13.12 22.72 0 35.52 44.8 42.88 89.6 85.44 134.4 128.32 2.24 2.24 4.48 4.16 6.72 6.080 6.4 5.76 13.44 7.36 21.12 3.84 8-3.52 12.16-9.92 12.16-18.88 0-24.96 0-49.92 0-74.88 0-2.88 0-6.080 0-9.92 3.84 0 7.040 0 10.24 0 50.24 0 100.16 0 150.4 0 100.8 0 181.12-64.32 203.52-162.56 6.080-27.2 4.16-55.040 4.16-82.56 0-10.24-9.92-18.24-20.16-17.92-10.56 0-17.92 8.64-19.2 19.84-2.56 16.64-3.84 33.92-9.6 49.6-19.84 53.76-70.72 88.32-128.32 88.64-61.12 0-122.24 0-183.36 0-2.24 0-4.16 0-7.68 0z" />
<glyph unicode="&#xe912;" glyph-name="caret-down" d="M512 754.88c132.48 0 265.28 0 397.76 0 52.48 0 90.56-22.080 106.56-64.32 17.28-45.76 3.84-84.8-30.080-118.72-130.88-130.24-261.12-261.12-392-391.68-52.48-52.16-112-52.16-164.48 0-130.56 130.56-261.12 261.12-391.68 391.68-33.92 33.6-48.32 72.32-30.72 118.4 16 41.92 54.4 64.64 106.88 64.64 132.48 0 265.28 0 397.76 0z" />
<glyph unicode="&#xe913;" glyph-name="caret-up" d="M513.6 141.44c-132.48 0-264.96 0.32-397.44 0-48.96 0-86.72 17.6-107.52 63.36-18.56 40.64-7.36 82.56 30.72 120.64 130.56 130.24 260.8 260.8 391.36 391.040 50.88 50.88 111.040 51.2 162.24 0 131.2-130.88 262.4-262.080 393.28-393.28 36.16-36.16 47.040-78.72 29.12-118.72-20.16-44.48-56.32-63.36-104.32-63.36-132.48 0-264.96 0-397.44 0z" />
<glyph unicode="&#xe914;" glyph-name="case" d="M1024 446.4c0.64-23.040-8.64-42.88-25.6-60.16-123.52-126.72-247.040-253.12-370.56-379.84-13.12-13.44-26.24-27.2-39.68-40.64-40.96-41.28-110.4-41.6-151.36 0-131.52 134.4-263.36 269.12-393.92 404.48-16 16.64-30.72 36.48-38.72 56.96-11.52 29.44 0 57.28 22.72 80.96 136.64 139.52 272.96 279.040 409.28 418.56 41.6 42.56 111.36 42.56 152.64 0 136-139.2 271.68-278.4 407.68-417.6 17.92-18.24 28.48-38.72 27.52-63.040zM512.64 34.24c135.68 138.88 269.12 275.52 403.2 412.48-135.040 138.24-268.48 274.56-402.56 411.84-4.16-3.2-6.72-5.12-8.64-7.36-128-130.88-255.68-261.76-384.32-392.64-10.24-10.24-7.36-16.32 1.28-25.28 94.4-96 188.16-192.64 282.56-288.64 35.52-36.48 71.36-72.64 108.48-110.72z" />
<glyph unicode="&#xe915;" glyph-name="change" d="M351.040 256c6.4 0 12.8 0 19.2 0 105.6 0 210.88 1.6 316.48-0.32 104.64-2.24 187.2 65.28 215.040 149.12 9.28 28.16 32 43.84 58.56 43.2 29.76-0.96 55.040-18.24 60.8-45.12 2.88-13.12 2.24-29.12-2.24-41.6-48.96-133.44-144.64-209.28-285.12-228.8-20.48-2.88-41.28-3.2-62.080-3.2-100.8-0.32-201.6 0-302.080 0-6.4 0-12.48 0-18.56 0 26.24-27.2 51.2-53.76 76.8-80 18.56-18.88 25.28-41.28 18.24-66.88-12.8-45.44-69.44-62.080-104.32-28.48-66.24 63.68-130.56 128.96-194.88 194.56-24 24.64-23.68 64.32 0.64 88.64 64 64.96 128.32 129.6 193.6 193.6 25.28 24.64 65.92 23.040 89.92-0.96s23.36-65.6-1.28-91.84c-25.6-27.2-51.52-53.76-78.080-81.92zM673.6 768c-26.24 27.84-52.16 54.72-77.44 81.92-19.52 20.8-24.32 48.64-13.12 73.92 10.88 23.68 34.88 39.68 61.76 35.52 14.72-2.24 31.68-8.96 42.24-19.2 64.32-62.080 127.36-125.76 190.080-189.44 26.24-26.56 25.6-66.24-0.64-92.8-62.4-63.040-125.44-126.080-188.48-188.48-27.2-26.88-67.52-27.2-92.8-2.56-25.28 24.96-24 66.56 2.56 94.4 25.28 26.24 50.24 53.12 75.52 80-4.8 0-11.2 0-17.28 0-107.2 0-214.4 0-321.6 0-97.6 0-176-54.4-209.6-145.92-7.36-20.16-18.56-35.52-39.36-42.24-25.6-8.32-48.32-1.6-66.88 16.64-18.88 17.92-20.48 41.28-12.16 65.28 40.64 117.12 122.56 190.4 241.28 221.76 29.44 7.68 60.8 10.56 91.2 10.88 105.6 1.28 210.88 0.64 316.48 0.64 6.4 0 12.8 0 18.56 0z" />
<glyph unicode="&#xe916;" glyph-name="chat" d="M1.6 40.32l64.96 237.76c-32.64 54.4-49.6 114.24-49.6 174.4 0 222.4 226.24 403.2 504.32 403.2s504.32-180.8 504.32-402.88-226.24-402.88-504.32-402.88c-73.6 0-144.64 12.48-211.52 37.44l-308.16-47.040zM319.040 172.8l10.56-4.16c60.48-23.68 124.8-35.52 191.68-35.52 232 0 420.8 143.36 420.8 319.36s-188.8 319.36-420.8 319.36-420.8-143.040-420.8-319.36c0-50.56 15.36-98.88 45.76-144.32l10.56-16-40.96-150.080 203.2 30.72zM372.48 452.48c0-31.812-25.788-57.6-57.6-57.6s-57.6 25.788-57.6 57.6c0 31.812 25.788 57.6 57.6 57.6s57.6-25.788 57.6-57.6zM578.88 452.48c0-31.812-25.788-57.6-57.6-57.6s-57.6 25.788-57.6 57.6c0 31.812 25.788 57.6 57.6 57.6s57.6-25.788 57.6-57.6zM785.28 452.48c0-31.812-25.788-57.6-57.6-57.6s-57.6 25.788-57.6 57.6c0 31.812 25.788 57.6 57.6 57.6s57.6-25.788 57.6-57.6z" />
<glyph unicode="&#xe917;" glyph-name="chat-info" d="M478.080 961.6c22.72 0 45.44 0 67.84 0 21.76-3.2 43.52-5.76 64.96-9.92 198.4-37.76 360.96-198.72 400.96-396.48 3.84-19.84 6.72-39.68 10.24-59.84v-363.84c-0.64-2.88-1.6-5.76-1.92-8.64-12.8-80.32-56.32-137.28-130.88-168.96-19.2-8.32-40.64-11.2-61.12-16.32h-347.84c-12.8 1.6-25.6 2.88-38.4 4.8-114.24 16.64-212.48 64.96-293.76 146.88-80.64 80.64-128.64 177.92-144 290.88-2.56 19.2-3.84 38.4-5.76 57.6 0 8 0 16 0 24 0.64 3.84 1.28 8 1.6 11.84 3.52 78.4 23.36 152.64 62.080 221.12 80 142.080 200.96 229.12 361.92 259.2 17.92 3.2 36.16 5.12 54.080 7.68zM510.080 321.6c-56 0-112 0-168 0-25.92 0-44.8-17.6-45.44-41.92s18.88-43.52 45.12-43.52c112.32 0 224.64 0 336.96 0 9.28 0 19.84 3.84 27.84 8.96 15.36 9.92 20.48 29.76 14.72 47.040-5.76 17.6-21.76 29.12-41.28 29.12-56.64 0-113.28 0-169.92 0zM510.080 492.16c-33.92 0-67.84 0-102.080 0-23.68 0-47.36 0.32-71.040 0-26.24-0.96-44.48-24.64-39.36-50.56 4.16-21.44 20.8-34.24 44.8-34.24 111.68 0 223.36 0 334.72 0 2.24 0 4.8 0 7.040 0 17.92 1.28 33.6 14.72 37.44 32.32 6.4 27.52-13.12 52.16-42.24 52.48-56.64 0.32-113.28 0-169.92 0zM425.28 577.6c27.2 0 54.72 0 81.92 0 26.56 0 45.44 17.92 45.44 42.56 0 24.32-18.24 42.56-44.16 42.88-55.68 0-111.36 0-166.72 0-25.6 0-44.8-18.56-44.8-42.56 0-24.32 19.2-42.56 45.44-42.88 27.52 0 55.36 0 82.88 0z" />
<glyph unicode="&#xe918;" glyph-name="check" d="M1024 742.080c-5.12-19.84-18.24-33.92-32.32-48-193.28-192.96-386.56-386.24-579.84-579.52-37.44-37.44-86.080-46.72-130.56-24-11.2 5.76-22.080 14.080-31.040 23.040-76.48 75.84-152.32 152-228.48 227.84-10.88 10.88-17.6 24-21.76 38.4 0 7.36 0 14.72 0 22.080 1.28 2.88 2.56 6.080 3.52 8.96 15.040 42.88 67.2 57.92 102.080 28.8 8.32-7.040 16-15.040 23.68-23.040 64.32-64.32 128.64-128.64 192.96-192.96 2.56-2.56 4.8-5.76 8.96-10.88 3.52 4.8 5.44 8.64 8 11.2 189.76 190.080 379.84 379.84 569.6 569.92 10.24 10.24 21.76 18.88 36.16 21.76 34.56 7.040 66.88-12.48 76.48-46.4 0.64-1.92 1.28-3.52 2.24-5.44v-22.080z" />
<glyph unicode="&#xe919;" glyph-name="check-circle" d="M512.64-62.72c-268.48-9.92-512.64 224-512.64 510.72 0 283.52 242.88 515.84 520.96 511.36 263.040-4.16 504-229.44 503.040-514.24-0.96-280-240.96-516.8-511.36-507.52zM512 34.88c217.92-7.040 415.36 181.12 413.76 411.84-1.6 228.8-182.080 409.28-409.28 413.76-221.44 4.48-418.88-180.8-418.56-413.76 0-232.96 197.12-418.56 414.080-411.84zM428.8 343.68c52.48 53.76 101.44 104.96 151.36 155.2 45.12 45.44 90.88 90.56 136.32 135.68 15.68 15.68 24.32 15.68 40.32 0.64 14.4-14.080 28.8-28.16 42.56-42.88 13.76-14.4 13.44-22.4 0-35.84-116.8-116.48-233.6-232.64-350.72-348.8-17.28-17.28-23.68-16.96-40.96 0.32-59.2 59.2-118.4 118.4-177.28 177.6-21.12 21.12-21.12 26.88 0 48 11.52 11.52 23.36 23.36 34.88 34.88 18.56 17.92 27.52 17.92 45.76-0.96 33.6-34.56 67.2-69.12 100.48-104 4.48-4.8 8.64-10.24 16.96-19.84z" />
<glyph unicode="&#xe91a;" glyph-name="chevron-down" d="M503.68 163.84c-58.56 0.64-115.2 23.36-161.6 69.12-104.32 103.36-208.32 207.040-312 311.040-41.92 42.24-42.24 105.6-1.6 145.92 40.96 40.64 103.36 40.64 146.24-1.6 101.76-100.8 202.88-202.24 304.32-303.040 6.72-6.72 15.68-13.12 24.64-16 15.68-4.8 26.88 4.8 37.76 15.36 100.16 100.16 200.32 200 300.48 300.16 25.92 25.92 56.32 39.68 93.76 33.28 40.32-6.72 67.84-30.080 80.96-68.48 13.12-38.72 4.16-73.6-23.68-103.040-21.76-23.36-45.12-45.44-67.52-67.84-81.6-81.6-163.52-163.2-245.44-244.48-46.72-46.4-105.28-70.4-176.32-70.4z" />
<glyph unicode="&#xe91b;" glyph-name="chevron-up" d="M518.72 743.040c58.56-0.64 115.2-23.36 161.6-69.12 104.32-103.36 208.32-207.040 312-311.040 41.92-42.24 42.24-105.6 1.6-145.92-40.96-40.64-103.36-40.64-146.24 1.6-101.76 100.8-202.88 202.24-304.32 303.040-6.72 6.72-15.68 13.12-24.64 16-15.68 4.8-26.88-4.8-37.76-15.36-100.16-100.16-200.32-200-300.48-300.16-25.92-25.92-56.32-39.68-93.76-33.28-40.32 6.72-67.84 30.080-80.96 68.48-13.12 38.72-4.16 73.6 23.68 103.040 21.76 23.36 45.12 45.44 67.52 67.84 81.6 81.6 163.52 163.2 245.44 244.48 46.72 46.4 105.28 70.4 176.32 70.4z" />
<glyph unicode="&#xe91c;" glyph-name="clear" d="M421.76 658.88c0 69.76 0 134.72 0 199.68 0.32 61.44 37.12 102.080 91.2 101.44 52.48-0.64 88.64-40.96 88.96-100.16 0.32-64.96 0-130.24 0-200.96 46.080 0 90.56 0 135.040 0 104.64 0 160.32-61.44 167.36-165.76 8.32-124.8 26.24-248.96 40.32-373.44 5.12-46.080 11.52-91.84 17.6-137.92 4.16-32-9.6-46.080-42.24-46.080-272 0.32-544 0-816 0.32-37.44 0-47.36 11.52-42.88 48.32 18.24 146.56 37.44 293.12 55.36 440 3.2 25.92 2.88 52.48 3.52 78.72 1.6 92.16 64.32 154.56 157.12 155.52 46.4 0.32 92.48 0 144 0zM288-1.6h353.28c-1.6 14.4-2.56 26.88-4.48 39.040-10.88 70.72-21.44 141.12-32.64 211.84-3.52 22.080-1.28 42.56 24.64 46.4 23.36 3.52 32.64-13.44 34.88-34.88 1.6-15.040 4.48-29.76 6.72-44.48 11.2-72.64 22.4-145.28 33.6-217.28h93.76c-4.8 27.2-12.8 51.84-12.16 76.48 0 13.76 14.4 27.2 22.080 40.64 11.84-9.92 30.080-17.6 34.56-30.080 9.6-27.84 12.16-57.92 17.6-87.36h39.040c-17.6 141.12-34.88 279.36-52.16 417.92h-669.44c-17.6-139.52-34.88-277.76-52.48-418.56h101.12c4.8 46.72 9.92 92.8 13.76 138.56 1.92 22.4 7.68 41.92 33.92 39.36s28.48-23.68 26.56-45.76c-4.16-43.2-8.32-86.72-12.48-132.16z" />
<glyph unicode="&#xe91d;" glyph-name="client-identification" d="M511.040 561.6c2.24 2.24 3.84 3.84 5.44 5.76 13.76 17.28 27.52 34.56 41.28 51.52 2.24 2.88 6.4 6.080 9.6 6.080 15.36 0 31.36 0.64 46.4-2.24 41.92-7.68 69.44-49.28 63.040-91.2-5.76-38.72-10.24-77.76-15.68-116.8-2.24-17.28-3.84-34.24-7.040-51.2-4.16-22.72-16.96-39.68-37.76-50.24-3.84-1.92-5.44-4.48-6.080-8.64-9.92-68.48-20.16-136.64-30.080-205.12-1.92-11.84-3.52-24-5.44-35.84-2.88-16.96-16.64-29.44-34.24-29.44-19.84 0-40 0-59.84 0-16.96 0-31.040 12.48-33.6 29.44-6.4 42.56-12.8 85.12-18.88 128-5.44 37.76-11.2 75.52-16.64 113.28-0.64 4.8-2.88 7.68-7.36 9.92-22.4 12.16-33.6 31.36-36.8 56.32-7.040 54.4-13.76 108.48-21.44 162.88-6.4 47.36 30.4 90.24 80 91.84 8.64 0 16.96 0 25.6 0 5.44 0 9.28-1.92 12.48-6.4 13.44-17.28 27.52-34.56 41.28-51.52 1.6-1.92 3.2-3.52 5.44-6.080zM416.96 745.28c0 52.48 42.24 95.68 94.4 95.68 52.48 0 95.36-42.56 95.36-95.040 0-52.8-41.92-95.040-94.72-95.040-52.48 0-94.72 41.92-95.040 94.4zM834.24 704.32c5.12-4.16 8.64-7.36 12.16-10.56 5.44-5.44 7.36-11.52 5.12-19.2-2.56-7.36-8-11.2-15.36-12.48-21.76-3.52-43.52-7.040-64.96-10.88-11.52-1.92-23.040-3.84-34.56-5.44-15.36-2.24-24.64 6.72-22.4 22.4 4.48 28.48 9.28 56.96 14.080 85.76 0.64 4.8 1.6 9.28 2.24 14.080 1.28 7.36 5.12 12.8 12.48 15.36s13.76 0.32 18.88-5.12c3.52-3.52 6.4-7.36 9.92-11.84 3.2 2.88 4.8 4.48 6.72 6.080 26.56 26.56 53.12 53.12 79.68 79.68 12.48 12.48 24 12.48 36.8 0 9.28-9.28 18.56-18.24 27.52-27.52 10.56-10.88 10.56-23.040 0-33.92-26.88-26.88-53.76-53.76-80.64-80.64-1.6-1.6-3.84-3.2-7.36-6.080zM877.12 521.92c3.52 0 5.76 0 8.32 0 37.76 0 75.52 0 113.28 0 17.28 0 25.6-8.32 25.6-25.6 0-13.12 0-26.56 0-39.68 0-15.040-8.64-23.68-24-24-38.080 0-76.48 0-114.56 0-7.040 0-9.28-2.24-8.32-8.64 0-2.24 0-4.48 0-6.72 0-7.68-2.88-13.44-9.92-16.96-7.040-3.84-13.44-2.24-19.52 1.92-14.72 10.56-29.44 21.12-44.16 31.68-12.8 9.28-25.6 18.24-38.4 27.52-12.16 8.96-12.16 22.72 0 31.36 27.2 19.52 54.4 39.040 81.6 58.56 6.72 4.8 13.44 6.080 20.8 2.24 7.040-3.52 9.92-10.24 9.6-17.92 0-4.16 0-8.64 0-13.76zM250.24 189.12c-2.56-3.52-3.84-6.080-5.44-7.68-26.24-26.56-52.8-52.8-79.040-79.040-12.48-12.48-24.32-12.48-36.8 0-9.28 9.28-18.88 18.56-28.16 28.16-10.24 10.56-10.24 23.040 0 33.28 26.56 26.88 53.44 53.44 80 80 1.92 1.92 4.16 3.2 8.32 6.4-5.12 4.16-9.28 7.36-12.8 10.56-5.44 5.12-7.36 11.84-4.8 19.2 2.24 7.040 7.68 10.88 14.72 12.16 34.24 5.76 68.48 11.52 103.040 17.28 12.8 1.92 22.080-8.96 19.84-22.72s-4.48-27.52-6.72-41.28c-3.2-18.88-6.080-37.76-9.28-56.32-2.24-13.44-11.2-20.8-22.72-17.6-3.2 0.96-6.4 2.88-8.96 5.44-3.52 3.2-6.4 7.040-11.2 12.48zM146.24 432.64c-3.2 0-5.76 0-8.64 0-37.44 0-74.56 0-112 0-17.92 0-25.92 8-25.92 25.92 0 12.8 0 25.6 0 38.4 0 16.32 8.64 24.96 24.96 24.96 37.44 0 74.88 0 112.64 0q8.96 0 8.96 9.28c0 1.92 0 4.16 0 6.080 0 7.36 2.88 13.12 9.28 16.64 7.040 3.52 13.76 2.56 20.16-1.92 22.72-16.32 45.76-32.64 68.48-48.96 4.8-3.52 9.6-6.72 14.080-10.24 11.2-8.64 11.52-22.080 0-30.080-27.84-20.16-55.68-40-83.84-60.16-6.080-4.16-12.48-5.12-19.2-1.6s-9.92 9.28-9.6 16.96c0 4.8 0 9.28 0 14.72zM188.8 705.92c-2.56 1.92-5.12 3.2-6.72 4.8-26.56 26.56-53.12 53.12-79.68 79.68-11.52 11.52-11.52 23.68 0 35.2 9.28 9.28 18.56 18.88 28.16 28.16 11.2 10.88 23.36 10.88 34.24 0 26.88-26.88 53.76-53.76 80.64-80.64 1.6-1.6 3.52-3.52 6.72-6.4 3.2 3.84 5.76 7.36 8.96 10.56 5.12 5.76 11.52 8.32 19.52 5.76s11.52-8.64 12.8-16.64c3.52-23.040 7.36-46.080 10.88-69.12 1.6-9.6 3.2-19.2 4.8-28.48 2.88-16-6.72-25.92-22.4-23.36-32.64 5.44-65.6 10.88-98.24 16-7.68 1.28-13.44 5.12-16 12.48-2.56 7.68 0 14.080 5.44 19.52 3.2 3.52 6.4 6.72 11.2 11.84zM772.8 188.16c-3.84-4.48-6.72-7.68-9.6-10.88-5.44-5.76-12.16-8.64-20.16-6.080s-11.52 8.64-12.8 16.64c-5.12 30.72-8.96 61.76-15.36 92.16-4.48 22.080 7.36 32.32 28.48 27.84 30.4-6.4 61.44-10.56 92.16-15.36 7.36-1.28 13.12-4.8 15.68-12.16 2.88-7.68 0.32-14.080-4.8-19.84-3.52-3.52-6.72-7.040-10.24-11.2 2.24-2.24 3.84-4.16 5.76-6.080 26.24-26.24 52.8-52.8 79.040-79.040 12.16-12.16 12.16-24 0-36.16-8.96-8.96-17.92-18.24-27.2-27.2-11.2-11.2-23.68-11.2-34.88 0-26.56 26.56-53.44 53.44-80 80-1.6 1.6-3.2 3.84-5.76 7.040z" />
<glyph unicode="&#xe91e;" glyph-name="cog" d="M494.080 960.64c11.2 0 22.72 0 33.92 0 0.64-0.64 1.28-1.6 1.92-1.6 36.16-4.48 64-22.4 85.44-51.52 18.88-25.28 25.92-54.4 24.32-85.76-0.32-8 1.6-12.16 9.6-15.040 32.96-11.84 64.32-27.84 90.88-50.56 15.36-13.12 26.24-13.76 43.84-3.2 46.4 27.52 105.92 18.56 145.92-18.24 39.68-36.48 51.84-93.76 31.36-143.68-13.12-31.36-36.16-52.8-65.6-68.16-4.8-2.56-7.68-4.8-6.4-11.2 6.4-34.88 8.96-70.72 2.56-105.28-4.16-22.080 2.56-32 20.8-42.88 48-28.48 69.12-88.96 53.76-142.72-15.68-53.44-64.96-91.2-120.64-92.16-28.8-0.64-54.080 8.64-77.76 24-5.12 3.52-8.64 3.2-13.76-0.96-28.8-24.32-60.8-44.48-96.32-57.6-15.040-5.44-19.52-12.8-19.2-29.12 0.96-61.12-40-111.68-99.52-125.76-3.84-0.96-8.64 0.64-11.84-2.88h-35.84c-2.24 3.52-6.4 2.56-9.92 3.52-25.28 6.4-46.72 18.88-64.32 38.080-25.28 27.52-35.52 60.48-33.6 97.28 0.64 8.96-2.56 12.48-10.56 15.36-32.96 12.16-64.32 28.16-90.88 50.88-15.040 12.8-25.28 12.8-42.24 2.88-46.72-27.52-106.56-19.2-146.24 16.96-40.64 37.12-53.12 94.72-31.68 145.28 13.12 31.040 35.84 52.16 65.28 67.2 4.8 2.56 7.36 5.12 6.4 11.52-6.4 35.2-8.64 71.040-2.56 106.56 3.52 20.48-1.28 30.080-19.2 40.96-46.4 28.16-66.24 72.64-58.56 126.080 7.68 54.080 40.32 89.6 92.48 104.96 38.72 11.2 74.88 2.88 108.16-18.88 5.76-3.84 9.6-3.52 15.36 0.96 28.8 24 60.48 43.84 95.36 56.64 15.36 5.76 19.52 12.8 19.2 29.12-0.96 54.080 31.68 101.12 81.28 120 8.96 3.52 18.56 5.76 27.84 8.64zM512 619.2c-94.4 0-170.24-76.16-170.24-170.56 0-94.080 75.52-169.92 169.6-170.24 94.4-0.32 170.56 75.52 170.88 170.24 0 94.72-75.52 170.88-169.92 170.88z" />
<glyph unicode="&#xe91f;" glyph-name="cognitive" d="M1024 272v-32c-0.64-2.24-1.6-4.16-1.92-6.4-13.44-75.52-90.56-122.88-163.52-99.52-50.24 16-79.36 51.2-88.96 103.040-0.96 4.48-2.24 10.56-5.44 12.48-12.48 7.36-25.92 13.44-37.44 19.2-107.2-108.48-227.2-127.68-362.56-57.6-1.92-1.92-5.12-4.48-7.68-7.36-32.96-31.68-65.6-63.36-98.88-94.72-5.44-5.12-6.4-9.28-4.8-16.32 15.040-63.040-19.84-127.36-80.64-149.12-8.96-3.2-18.24-5.44-27.52-8h-32c-2.24 0.64-4.16 1.6-6.4 1.92-50.88 10.88-84.8 40.96-100.48 90.88-2.88 6.72-4.16 13.12-5.76 19.52 0 10.56 0 21.44 0 32 0.64 1.28 1.28 2.24 1.6 3.52 14.4 73.28 72.96 115.52 146.88 106.88 4.16-0.64 9.92 1.6 12.8 4.48 35.52 33.6 70.72 67.84 106.24 101.44 5.76 5.44 7.040 8.96 2.56 16.64-62.72 110.72-40.32 251.2 52.8 337.6 2.56 2.56 5.44 4.8 8.32 7.68-7.040 12.8-14.080 24.96-20.48 37.12-2.88 5.76-6.4 8.64-13.44 9.6-57.28 7.36-101.76 48.64-111.36 102.080-10.24 56.64 14.72 111.040 64.96 137.28 14.4 7.68 31.36 10.56 47.040 16 9.28 0 18.56 0 27.84 0 2.24-0.64 4.16-1.6 6.4-1.92 77.12-12.48 125.12-92.16 100.48-166.4-3.52-10.56-11.52-21.76-10.56-31.68 1.28-10.88 10.56-21.12 16.32-31.68 0.96-1.6 1.92-2.88 2.56-4.48 2.24-5.76 5.76-6.72 11.52-5.44 68.16 14.72 133.76 6.4 193.92-28.8 98.56-57.92 145.92-145.28 141.44-259.84-0.64-15.040-3.52-30.4-5.44-45.76 10.88-5.44 22.4-10.88 33.6-16.96 6.4-3.52 10.88-3.2 17.28 0.32 70.080 39.040 157.12 5.76 183.040-69.76 2.88-8.32 4.8-17.28 7.040-25.6zM661.44 447.040c0.32 82.24-66.88 150.4-148.48 150.4-82.56 0-149.76-66.24-150.4-148.8-0.64-81.92 65.92-149.12 149.12-150.080 80.96-0.96 149.44 66.88 149.76 148.48z" />
<glyph unicode="&#xe920;" glyph-name="cognitive-error" d="M638.4 541.76c-16.32 47.36-71.040 68.16-115.2 43.84-3.84-2.24-7.040-2.56-10.88 0-7.040 3.84-14.080 7.040-21.12 10.56 1.28 9.92 2.88 19.2 3.52 28.8 2.88 72-26.88 127.040-88.64 163.2-37.76 22.080-79.040 27.52-121.92 18.24-3.84-0.64-6.080 0-7.36 3.52-0.32 0.96-0.96 1.92-1.6 2.88-3.52 6.72-9.6 12.8-10.24 19.84-0.64 6.4 4.16 13.12 6.4 19.84 15.68 46.4-14.72 96.64-63.040 104.32-1.28 0-2.88 0.64-4.16 1.28h-17.6c-9.92-3.2-20.48-5.12-29.44-9.92-31.68-16.32-47.36-50.56-40.96-86.080 6.080-33.6 34.24-59.52 70.080-64 4.48-0.64 6.4-2.24 8.32-6.080 4.16-7.68 8.32-15.36 12.8-23.36-1.92-1.6-3.52-3.2-5.12-4.8-58.56-54.4-72.64-142.4-33.28-212.16 2.56-4.8 1.92-7.040-1.6-10.56-22.4-21.12-44.48-42.56-66.88-63.68-1.92-1.92-5.44-3.2-8-2.88-46.4 5.44-83.2-21.12-92.16-67.2 0-0.64-0.64-1.6-0.96-2.24v-20.16c0.96-4.16 1.92-8 3.2-11.84 9.92-31.36 31.040-50.24 63.040-56.96 1.28 0 2.56-0.96 4.16-1.28h20.16c5.76 1.6 11.52 2.88 17.28 5.12 38.4 13.76 60.16 54.080 50.56 93.76-0.96 4.48-0.32 7.040 2.88 10.24 20.8 19.52 41.28 39.68 62.080 59.52 1.92 1.6 3.52 3.52 4.8 4.48 85.12-43.84 160.32-32 227.52 36.16 7.36-3.84 15.68-7.36 23.68-12.16 1.92-1.28 2.88-5.12 3.52-8 6.080-32.64 24.32-54.72 55.68-64.96 46.080-14.72 94.4 15.040 102.72 62.4 0 1.28 0.96 2.56 1.28 4.16v20.16c-1.6 5.44-2.56 10.88-4.48 16zM321.28 542.4c-52.16 0.64-94.080 42.88-93.76 94.080 0.32 51.84 42.56 93.44 94.4 93.44 51.52 0 93.44-42.88 93.44-94.4 0-51.2-43.2-93.76-94.080-93.12zM1024.32 256c0-177.6-143.68-321.92-320.96-322.24-177.28 0-322.24 144.64-321.92 321.6 0 177.28 144.64 322.24 322.24 321.28 180.16-0.64 320.96-146.24 320.96-320.96zM964.8 255.36c0 144.32-116.48 261.76-260.8 262.080-144.96 0-262.4-116.16-263.040-261.12-0.64-143.68 116.8-262.080 260.48-262.4 146.24 0 263.040 116.16 263.36 261.44zM698.88 215.36c-18.24-19.84-36.16-39.36-54.4-58.24-12.48-12.8-23.68-14.4-35.84-7.040-18.56 10.88-21.12 32-4.8 48 19.2 18.88 39.040 36.48 60.48 56.32-15.36 15.040-27.52 26.56-39.68 38.4-7.040 7.040-14.4 14.080-21.44 21.44-13.12 13.76-13.76 30.4-1.6 42.88 11.52 11.84 29.44 11.2 42.56-1.92 18.88-18.88 37.76-37.76 57.28-57.6 19.84 19.52 39.040 38.080 58.24 56.64 9.92 9.6 21.12 14.4 34.24 8.64 20.48-8.64 24.64-31.040 8.96-47.68-16.32-16.96-32.64-33.6-49.28-50.24-2.56-2.56-5.12-5.44-8-8.64 19.52-20.48 39.040-40.64 57.92-61.12 14.72-16 10.88-36.16-8.32-46.72-10.88-6.080-22.080-3.84-34.24 7.68-16.64 15.36-32.64 31.36-49.28 47.040-3.2 3.2-6.4 6.080-12.8 11.52z" />
<glyph unicode="&#xe921;" glyph-name="cognitive-head" d="M352.96-44.48h-12.16v33.6c-5.44 97.92-47.68 138.88-72.64 154.56-30.080 18.88-37.76 20.48-61.12 25.6-6.4 1.28-14.4 3.2-24.32 5.44-4.48 0.96-8.96 2.24-13.44 3.2-18.88 4.48-38.4 8.96-56.32 17.6-25.92 12.48-44.16 32.64-49.6 54.72-5.76 23.36 3.84 47.36 12.48 68.48 1.28 3.2 2.56 6.080 3.52 9.28 2.88 7.36 1.92 15.68-2.24 22.4-1.28 1.6-2.56 3.52-3.84 5.12-2.24 2.56-4.16 5.12-6.080 8.32-4.48 8.32-4.48 18.24-0.32 26.56 2.24 4.16 5.76 8 10.24 10.88-2.88 2.24-5.44 5.12-7.040 8.32-5.12 9.92-4.48 19.84 2.24 25.28 10.56 8.96 19.84 17.28 22.4 28.16 0.96 3.84 0.96 6.72 0 10.56-10.24 7.040-21.76 14.72-29.76 25.6-9.92 13.44-13.12 29.76-8.32 42.56s16.64 21.12 25.92 27.52c7.68 5.44 15.68 10.56 23.36 15.36 21.44 13.76 41.6 26.56 56.96 45.76 12.16 15.36 18.56 33.6 25.6 52.8 2.88 8 5.76 16 8.96 24 16.64 39.040 43.2 72.32 69.12 104.64 28.8 36.16 83.2 70.4 98.88 80 81.6 49.28 147.84 50.88 219.84 48 82.88-3.2 162.56-29.76 224.32-74.56 43.52-31.36 80.32-73.92 106.56-122.56s41.6-102.72 43.84-156.48c2.24-53.44-8-108.8-29.76-159.68s-54.72-96.32-95.36-131.52c-34.56-30.080-55.68-50.88-86.080-85.76-53.44-61.12-65.6-154.56-29.44-227.2l-9.92-4.8c-38.080 76.48-25.28 175.040 31.040 239.36 30.72 35.2 52.16 56.32 87.040 86.72 39.36 34.24 71.040 78.4 92.48 127.68 21.12 49.28 31.040 103.040 28.8 154.88s-16.96 104.32-42.56 151.68c-25.6 47.36-61.12 88.32-103.36 118.72-60.16 43.52-137.92 69.44-218.56 72.64-85.12 3.52-141.44-2.88-213.76-46.4-15.68-9.28-68.48-42.56-96-77.44-25.28-31.68-51.52-64.32-67.52-102.080-3.2-7.68-6.080-15.68-8.96-23.36-7.040-19.52-14.080-39.36-27.52-56-16.32-20.48-38.4-34.56-59.84-48.32-7.68-4.8-15.36-9.92-23.040-15.040-9.92-7.040-18.56-13.44-21.76-22.4-4.48-11.2 0.64-24 6.72-32 7.36-9.92 18.24-17.28 28.8-24.32 0.96-0.64 1.92-1.92 2.24-2.88 1.92-6.72 2.24-11.84 0.64-18.24-3.84-15.040-16.64-25.92-26.24-33.92-2.56-2.24-1.6-7.68 0.64-11.84 2.24-4.48 7.040-7.68 12.16-8 2.88 0 4.8-2.56 4.8-5.44s-1.92-5.12-4.8-5.44c-5.76-0.64-12.8-5.76-15.040-10.56-2.56-5.12-2.56-11.52 0-16.32 1.28-2.24 2.88-4.16 4.8-6.4 1.6-1.92 3.2-3.84 4.8-6.080 6.080-9.28 7.36-21.76 3.52-32.32-1.28-3.2-2.56-6.080-3.84-9.28-8.32-20.48-16.96-41.92-12.16-61.76 4.8-19.2 20.48-36.48 43.84-47.68 16.96-8 35.84-12.48 54.080-16.64 4.48-0.96 8.96-2.24 13.44-3.2 9.92-2.24 17.6-4.16 24.32-5.44 24-5.12 32.96-7.040 64.64-27.2 28.8-18.24 49.92-47.040 63.040-85.76 8-23.040 12.8-49.92 14.080-77.76 0 0 0 0 1.6 0v-33.92zM372.48-64h-51.2v53.12c-4.8 88.32-41.92 124.48-63.68 138.24-27.2 16.96-32.32 18.24-54.72 23.040-6.4 1.28-14.72 3.2-24.96 5.76l-13.12 3.2c-19.84 4.48-40.64 9.28-60.48 18.88-31.36 15.040-53.12 39.68-60.16 67.84-7.040 29.12 4.16 57.6 13.44 80.32l3.52 8.96-3.2 8c-2.88 3.52-5.76 7.040-8.32 11.52-7.36 13.44-7.68 30.72-0.64 44.8 0.64 1.28 1.28 2.56 2.24 3.84-8.32 17.6-5.12 36.16 7.68 47.040 5.76 4.8 11.52 9.92 14.4 14.4-8.96 6.4-17.6 13.76-24.64 23.36-14.080 18.56-18.24 41.92-10.88 61.12 7.040 18.56 22.72 29.44 32.96 36.48 8 5.44 16 10.88 24 16 20.8 13.44 39.040 24.96 52.16 41.6 10.24 12.8 16 28.8 22.72 47.36 2.88 8.32 6.080 16.64 9.6 24.96 17.6 41.6 45.12 75.84 71.36 109.12 30.080 37.76 82.88 71.68 104.32 84.48 87.040 50.88 156.16 52.48 231.36 49.6 86.4-3.52 169.92-31.36 234.88-78.4 45.76-33.28 84.8-77.76 112.32-128.96s43.52-108.16 46.080-164.8c2.56-56.64-8.32-114.56-31.36-168.32-23.040-53.44-57.6-101.44-100.48-138.56-33.92-29.44-54.4-49.92-84.16-83.84-48.64-55.36-59.52-139.84-26.88-205.76l8.64-17.28-44.48-22.4-8.64 17.6c-41.6 83.52-27.52 190.72 33.92 260.8 31.68 36.16 53.12 57.6 88.96 88.64 37.12 32.32 67.2 73.92 87.36 120.64s29.44 97.28 27.2 146.24c-2.24 48.96-16 98.56-40.32 143.36-24 44.8-57.92 83.52-97.6 112.32-57.28 41.28-130.88 65.92-207.68 68.8-82.88 3.52-134.72-2.24-202.88-43.52-14.72-8.96-65.28-40.64-90.88-72.64-24.64-31.040-49.92-62.4-64.64-97.6-2.88-7.040-5.76-14.72-8.32-21.76-7.36-20.16-15.36-42.88-30.72-62.080-18.56-23.040-42.88-38.72-64.32-52.48-8.32-5.12-15.36-9.92-22.4-14.72-4.8-3.52-13.12-9.28-14.72-13.44-1.28-2.88 0.64-8.96 4.16-13.44 5.44-7.36 14.4-13.12 24-19.52l5.76-3.84 4.48-9.6c2.88-10.56 3.2-19.2 0.96-28.8-3.52-14.080-11.84-24.64-20.16-32.96 6.72-3.2 12.16-11.52 12.16-20.8 0-12.8-9.28-23.68-21.76-25.28 4.48-4.16 6.4-6.72 8.32-9.6 9.6-14.72 11.52-33.92 5.44-50.24l-3.84-9.6c-7.040-17.6-14.4-36.16-11.2-49.92 3.2-13.44 15.36-26.24 33.28-34.88 14.72-7.040 32.32-11.2 49.6-15.040l14.080-3.2c9.6-2.24 16.96-3.84 23.36-5.44 27.2-6.080 38.080-8.96 71.040-29.76 32.64-20.48 56.64-52.8 71.040-96 6.72-20.16 11.52-42.56 13.76-65.92h1.92s0.96-71.36 0.96-71.36zM611.84 851.52h4.48s0.64 0 0.64 0c0 0 0.32-0.32 0.64-0.64 0 0 0.32 0 0.64-0.32zM821.44 341.12l-187.52 324.8-85.44 23.68-54.080-162.24-238.4 152 153.92 64.32 128.96-35.84 32.32 96.96 72.64-125.76 168.32-46.72v-5.76c-4.16-82.24-9.28-216.96-6.080-228.8l15.36-56zM654.4 660.16l136-235.2c0 54.4 4.8 160 6.4 195.84l-142.4 39.36zM288 676.48l198.4-126.4 47.68 143.68-123.2 34.24-122.88-51.2zM553.28 703.68l70.080-19.52-48.64 84.16-21.44-64.64zM835.52 365.76c0-17.32-14.040-31.36-31.36-31.36s-31.36 14.040-31.36 31.36c0 17.32 14.040 31.36 31.36 31.36s31.36-14.040 31.36-31.36zM828.48 637.44c0-17.32-14.040-31.36-31.36-31.36s-31.36 14.040-31.36 31.36c0 17.32 14.040 31.36 31.36 31.36s31.36-14.040 31.36-31.36zM601.92 808.32c0-17.32-14.040-31.36-31.36-31.36s-31.36 14.040-31.36 31.36c0 17.32 14.040 31.36 31.36 31.36s31.36-14.040 31.36-31.36zM514.88 553.92c0-17.32-14.040-31.36-31.36-31.36s-31.36 14.040-31.36 31.36c0 17.32 14.040 31.36 31.36 31.36s31.36-14.040 31.36-31.36zM302.4 679.36c0-17.32-14.040-31.36-31.36-31.36s-31.36 14.040-31.36 31.36c0 17.32 14.040 31.36 31.36 31.36s31.36-14.040 31.36-31.36z" />
<glyph unicode="&#xe922;" glyph-name="cogs" d="M320.32 822.4c8.32 0 16.32 0 24.64 0 0.64-0.32 0.96-1.28 1.6-1.28 26.24-3.2 46.4-16.32 62.080-37.44 13.44-18.56 18.88-39.36 17.6-62.080-0.32-5.76 1.28-8.96 7.040-10.88 24-8.64 46.72-20.16 65.92-36.48 11.2-9.28 18.88-9.92 32-2.24 33.92 19.84 76.8 13.44 105.92-13.12 28.8-26.24 37.76-68.16 22.72-104.32-9.6-22.72-26.24-38.4-47.68-49.6-3.52-1.92-5.44-3.52-4.8-8.32 4.8-25.28 6.72-51.2 1.92-76.48-3.2-16 1.92-23.040 15.040-31.040 34.88-20.8 50.24-64.32 39.040-103.68-11.2-38.72-47.36-66.24-87.68-66.88-20.8-0.32-39.36 6.4-56.32 17.6-3.84 2.56-6.4 2.24-9.92-0.64-21.12-17.6-44.16-32.32-69.76-41.6-10.88-4.16-14.080-9.28-14.080-21.12 0.64-44.16-29.12-80.96-72-91.2-2.88-0.64-6.4 0.64-8.64-2.24h-25.92c-1.6 2.56-4.8 1.92-7.040 2.56-18.24 4.48-33.92 13.76-46.72 27.52-18.24 19.84-25.92 43.84-24.32 70.4 0.32 6.4-1.92 8.96-7.68 11.2-24 8.64-46.72 20.48-65.92 36.8-10.88 9.28-18.56 9.28-30.72 2.24-33.92-19.84-77.44-14.080-106.24 12.16-29.44 26.88-38.4 68.48-23.040 105.28 9.6 22.4 25.92 37.76 47.36 48.96 3.52 1.92 5.44 3.52 4.48 8.32-4.8 25.6-6.4 51.52-1.92 77.12 2.56 15.040-0.96 21.76-14.080 29.76-33.28 21.12-47.68 53.12-41.92 91.84 5.44 39.040 29.12 64.96 67.2 76.16 28.16 8.32 54.4 2.24 78.72-13.76 4.16-2.88 7.040-2.56 11.2 0.64 20.8 17.6 43.84 31.68 69.12 41.28 11.2 4.16 14.080 9.28 14.080 21.12-0.64 39.040 23.040 73.28 58.88 87.040 6.72 2.56 13.44 4.16 20.16 6.080zM333.44 574.72c-68.48 0-123.52-55.040-123.52-123.84 0-68.16 54.72-123.2 122.88-123.52 68.48 0 123.84 54.72 123.84 123.52 0 68.48-54.72 123.84-123.2 123.84zM732.16 322.24c2.88 2.56 5.44 5.12 8.32 8 0 0 0.64 0 0.96 0 9.92 7.36 20.8 9.28 32.96 7.040 10.56-1.92 18.88-7.36 25.6-15.36 1.6-1.92 3.2-2.56 5.76-1.6 10.88 4.8 22.080 8 33.92 8.64 6.72 0.32 9.6 2.56 11.52 9.28 5.12 17.6 21.76 29.12 40 29.44 18.24 0 34.56-10.88 40.96-27.84 4.16-10.88 3.52-21.44 0-32-0.64-1.6-0.64-2.88 0.96-4.16 9.6-7.040 18.56-15.36 24.96-25.28 4.16-6.4 8-7.36 15.040-5.76 18.56 4.16 37.44-5.76 46.080-22.72 8.64-16.64 5.12-37.44-8.32-50.56-7.040-6.72-15.36-10.24-24.64-12.16-2.24-0.32-2.88-1.28-3.2-3.52-1.6-12.8-4.48-24.96-10.24-36.48-2.56-4.8-1.92-7.68 1.92-11.52 14.4-14.72 16-36.48 4.8-53.76-0.64-1.28-2.24-1.92-2.24-3.52l-8.96-8.32s-2.24-0.96-3.2-1.28c-7.68-4.16-15.68-6.080-24.64-5.44-12.48 0.96-22.72 6.4-30.72 16-1.92 2.24-3.52 2.56-6.080 1.28-10.88-4.8-22.080-8-33.92-8.64-6.72-0.32-9.28-2.56-11.2-8.96-5.12-17.6-21.76-29.44-39.68-29.76-18.56 0-34.88 10.88-41.28 28.16-3.84 10.56-3.2 21.12 0.32 31.68 0.64 1.92 0.64 2.88-0.96 4.16-9.92 7.040-18.56 15.36-25.28 25.6-3.84 5.76-7.36 7.040-14.080 5.44-17.92-3.84-32.96 2.56-43.52 17.28-10.56 15.040-10.88 31.36-1.6 47.36 6.72 11.84 17.6 18.24 31.040 20.48 2.24 0.32 3.2 1.28 3.52 3.84 1.6 12.48 4.8 24.64 10.24 36.16 2.56 4.8 1.92 7.68-1.92 11.52-12.8 13.12-15.68 32-8 48.32 1.28 2.88 3.2 5.76 4.8 8.64zM815.68 242.56c-23.040-21.76-24.32-57.92-2.24-81.28 21.76-23.040 57.92-24.32 80.96-2.56 23.36 21.76 24.32 57.92 2.56 81.28s-57.92 24.32-81.28 2.56zM784.64 837.12c3.52 1.28 7.040 2.56 10.88 3.84 0 0 0.64-0.32 0.96 0 11.84 2.88 23.040 0.32 32.96-6.4 8.96-5.76 14.72-14.080 17.6-24.32 0.64-2.56 1.92-3.52 4.8-3.52 11.84 0 23.68-1.28 34.56-5.44 6.4-2.24 9.92-1.28 14.4 4.16 11.52 14.080 31.36 18.24 48.32 11.2 16.64-6.72 27.52-23.68 26.56-41.92-0.32-11.52-5.12-20.8-12.8-29.12-1.28-1.28-1.92-2.56-0.64-4.48 6.080-10.24 11.2-21.12 13.12-32.96 1.28-7.68 4.48-9.92 11.52-11.2 18.56-3.52 32.32-19.84 33.6-39.040 1.28-18.88-9.92-36.48-27.52-43.2-8.96-3.52-18.24-3.52-27.52-1.6-1.92 0.32-3.2 0-4.16-1.92-6.4-11.2-14.080-21.12-23.68-29.44-4.16-3.52-4.8-6.4-2.88-11.52 7.36-19.2 0.32-40-16.64-51.52-1.28-0.64-2.88-0.64-3.52-2.24l-11.52-4.16s-2.24 0-3.52 0c-8.64-0.96-16.96 0.64-24.64 4.48-11.2 5.76-18.24 15.040-22.080 26.88-0.96 2.88-2.24 3.52-5.12 3.52-11.84 0-23.68 1.28-34.56 5.44-6.4 2.24-9.6 0.96-13.76-3.84-11.52-14.080-31.36-18.56-48.32-11.84-17.28 7.040-27.84 23.68-26.88 42.24 0.64 11.2 5.12 20.8 12.8 28.8 1.28 1.28 1.92 2.56 0.64 4.48-6.080 10.56-11.2 21.44-13.12 33.28-1.28 7.040-3.84 9.28-10.88 10.56-17.92 3.52-29.44 15.36-33.28 32.96-3.84 17.92 2.24 32.96 16.96 44.16 10.88 8 23.36 9.6 36.48 6.72 2.24-0.64 3.52 0 4.8 2.24 6.4 10.88 14.080 20.8 23.68 29.12 4.16 3.52 4.8 6.4 2.56 11.52-6.72 16.96-1.92 35.52 11.84 47.36 2.56 2.24 5.12 3.84 8 6.080zM830.4 731.2c-29.76-10.88-45.12-43.84-33.92-73.92 10.88-29.76 43.84-44.8 73.6-33.92s45.12 43.84 34.24 73.92c-10.88 30.080-43.84 45.12-73.6 34.24z" />
<glyph unicode="&#xe923;" glyph-name="cog-two" d="M372.16 960c8.64 0 16.96 0 25.28 0 0.64-0.32 0.96-1.28 1.6-1.28 26.88-3.52 48-16.96 64-38.4 14.080-18.88 19.52-40.64 18.24-64-0.32-6.080 1.28-8.96 7.36-11.2 24.64-8.96 48-20.8 68.16-37.76 11.52-9.6 19.52-10.24 32.96-2.24 34.88 20.48 79.36 13.76 109.12-13.44s39.040-70.4 23.36-107.52c-9.6-23.36-26.88-39.68-48.96-51.2-3.52-1.92-5.76-3.52-4.8-8.64 4.8-26.24 6.72-52.8 1.92-78.72-3.2-16.64 1.92-23.68 15.68-32 35.84-21.44 51.84-66.56 40-106.88-11.52-40-48.64-68.16-90.24-69.12-21.44-0.32-40.64 6.4-58.24 17.92-3.84 2.56-6.4 2.56-10.24-0.64-21.76-18.24-45.44-33.28-72-42.88-11.2-4.16-14.72-9.6-14.4-21.76 0.64-45.76-30.080-83.52-74.24-94.080-2.88-0.64-6.4 0.64-8.96-2.24h-26.88c-1.92 2.56-4.8 1.92-7.36 2.56-18.88 4.8-34.88 14.080-48 28.48-18.88 20.48-26.56 45.12-24.96 72.64 0.32 6.72-1.92 9.28-8 11.52-24.64 8.96-48 21.12-67.84 38.080-11.2 9.6-18.88 9.6-31.68 2.24-34.88-20.48-79.68-14.4-109.44 12.8-30.4 27.84-39.68 70.72-23.68 108.8 9.6 23.040 26.88 39.040 48.64 50.24 3.84 1.92 5.44 3.84 4.8 8.64-4.8 26.56-6.4 53.12-1.92 79.68 2.56 15.36-0.96 22.4-14.4 30.72-34.88 21.12-49.6 54.4-43.84 94.4 5.76 40.32 30.080 67.2 69.44 78.72 28.8 8.64 56 2.24 80.96-14.080 4.48-2.88 7.36-2.56 11.52 0.96 21.44 17.92 45.12 32.96 71.36 42.56 11.52 4.16 14.72 9.6 14.4 21.76-0.64 40.32 23.68 75.52 60.8 89.92 6.4 1.6 13.44 3.2 20.48 5.44zM385.6 704.32c-70.72 0-127.36-56.96-127.36-127.68 0-70.4 56.32-127.040 126.72-127.36 70.4 0 127.68 56.64 127.68 127.36s-56.64 127.68-127.36 127.68zM790.080 376.96c4.8 0 9.6 0 14.72 0 0 0 0.64-0.64 0.96-0.64 15.68-1.92 27.52-9.6 36.8-22.080 8-10.88 11.2-23.36 10.56-36.8 0-3.52 0.64-5.12 4.16-6.4 14.080-5.12 27.52-11.84 39.040-21.76 6.72-5.44 11.2-5.76 18.88-1.28 20.16 11.84 45.76 8 62.72-7.68s22.4-40.32 13.44-61.76c-5.76-13.44-15.36-22.72-28.16-29.44-1.92-0.96-3.2-1.92-2.88-4.8 2.88-15.040 3.84-30.4 0.96-45.44-1.92-9.6 0.96-13.76 8.96-18.56 20.8-12.16 29.76-38.4 23.040-61.44s-28.16-39.36-51.84-39.68c-12.48 0-23.36 3.84-33.6 10.24-2.24 1.6-3.84 1.28-5.76-0.32-12.48-10.56-26.24-19.2-41.28-24.64-6.4-2.56-8.32-5.44-8.32-12.48 0.32-26.24-17.28-48-42.88-54.080-1.6-0.32-3.84 0.32-5.12-1.28h-15.36s-2.88 1.28-4.16 1.6c-10.88 2.56-20.16 8-27.52 16.32-10.88 11.84-15.36 25.92-14.4 41.92 0 3.84-0.96 5.44-4.48 6.72-14.080 5.12-27.52 12.16-39.040 21.76-6.4 5.44-10.88 5.44-18.24 1.28-20.16-11.84-45.76-8.32-63.040 7.36-17.6 16-22.72 40.64-13.76 62.72 5.76 13.44 15.36 22.4 28.16 29.12 2.24 0.96 3.2 2.24 2.56 4.8-2.88 15.36-3.84 30.72-0.96 45.76 1.6 8.96-0.64 12.8-8.32 17.6-20.16 12.16-28.48 31.36-25.28 54.4 3.2 23.36 17.28 38.72 40 45.12 16.64 4.8 32.32 1.28 46.72-8.32 2.56-1.6 4.16-1.6 6.72 0.32 12.48 10.24 25.92 18.88 40.96 24.32 6.72 2.56 8.32 5.44 8.32 12.48-0.32 23.36 13.76 43.52 34.88 51.84 3.84 1.6 8 2.56 12.16 3.84zM797.76 230.080c-40.64 0-73.28-32.64-73.28-73.6 0-40.64 32.64-73.28 72.96-73.28 40.64 0 73.28 32.64 73.6 73.28 0 40.64-32.64 73.6-73.28 73.6z" />
<glyph unicode="&#xe924;" glyph-name="conditional" d="M430.080 625.28h-66.56c1.28 43.84 2.88 47.68 41.28 44.48 30.080-2.56 41.6 8.32 48.32 36.8 16 69.76 50.88 129.6 100.16 181.44 63.040 66.24 156.16 89.6 232.96 58.24 23.36-9.6 42.56-23.68 45.12-51.52 2.24-24.96-9.92-43.52-30.080-56.64-29.44-19.2-62.080-6.4-69.12 27.84-4.48 21.12-7.040 42.88-31.68 48.64-26.88 6.4-46.080-8.64-62.72-27.84-4.8-5.76-9.28-11.84-13.44-17.92-36.8-60.48-53.76-128.32-72-198.4h86.080c5.44-39.040 0-45.44-34.24-45.44q-61.76 0-76.48-59.2c-27.2-108.8-51.52-218.56-83.2-326.080-23.68-80-59.84-155.52-114.24-220.16-54.4-64.96-122.88-95.36-208.32-78.72-40.32 8-63.36 33.92-62.080 66.56 1.28 30.72 22.4 54.72 49.28 56.96 29.12 2.24 52.16-15.68 59.84-45.76 9.6-39.040 37.76-48.96 63.36-16.64 25.6 32.64 48.64 70.72 60.8 110.080 33.92 111.36 62.080 224.32 92.16 336.64 15.36 57.6 29.44 115.84 44.8 177.28zM159.040 309.76c34.56 9.92 54.4 39.68 78.4 63.68 28.16-15.36 28.48-17.28 10.24-41.28-41.6-55.040-93.44-94.4-163.84-104-10.56-1.6-21.76-2.56-32.32-1.6-22.080 2.24-33.6 16-29.12 37.76 4.8 24.32 12.16 48.32 20.48 71.68 26.24 72.64 53.76 144.96 80.32 217.6 4.16 11.2 6.080 23.36 10.56 41.6-38.4-14.72-56.96-43.52-83.84-65.6-6.4 5.76-12.8 11.84-21.12 19.52 47.68 59.84 95.36 117.12 174.4 133.76 50.88 10.88 76.16-14.72 59.2-63.68-26.24-76.16-56.64-150.72-84.8-226.24-9.6-25.92-17.6-52.16-26.24-78.4 2.56-1.6 5.44-3.2 8-4.48zM270.72 901.44c35.84-1.28 59.52-24.32 59.2-57.6-0.64-37.44-34.88-71.040-71.040-69.12-33.28 1.6-54.4 26.88-53.44 62.72 0.96 37.12 29.76 65.28 65.28 64zM671.36 504.64l7.36-15.68c-27.2-28.8-47.36-55.040-60.16-78.4s-22.72-49.92-29.44-79.36-10.24-63.68-10.24-102.72 3.52-70.72 10.56-100.16 17.28-56 30.72-80.32 32.96-49.92 58.56-76.8l-7.36-15.040c-30.72 27.2-54.080 50.24-69.76 69.44-25.6 31.040-45.12 63.68-58.24 97.6s-19.84 69.76-19.84 106.88 6.080 71.36 18.56 104.32 30.72 64.32 54.72 94.080c16.64 20.8 41.6 46.080 74.56 76.16zM854.4 504.64c33.6-30.4 57.92-55.040 73.6-73.92 24-29.76 42.56-61.12 55.36-94.72s19.2-68.8 19.2-105.6-6.080-70.72-18.24-103.040-30.72-64-55.040-95.040c-17.28-22.080-42.24-47.36-74.24-75.84l-7.36 15.040c25.6 26.88 44.8 52.48 58.56 76.48s23.68 51.2 30.72 80.32 10.56 62.72 10.56 99.84-3.52 73.28-10.24 103.040-16.64 56-29.76 79.36-32.96 49.6-59.84 78.080l7.36 15.68z" />
<glyph unicode="&#xe925;" glyph-name="config-channel" d="M924.16 351.040c-54.080 0-97.92 43.84-97.92 97.92s43.84 97.92 97.92 97.92c54.080 0 97.92-43.84 97.92-97.92v0c0-54.080-43.84-97.92-97.92-97.92zM924.16 500.48c-28.48 0-51.52-23.040-51.52-51.52s23.040-51.52 51.52-51.52c28.48 0 51.52 23.040 51.52 51.52v0c0 28.48-23.040 51.2-51.52 51.52v0zM756.48 472.32h93.12v-46.4h-93.12v46.4zM96.32 351.040c-54.4 0-98.24 43.84-98.24 97.92s43.84 97.92 97.92 97.92 97.92-43.84 97.92-97.92c0 0 0 0 0 0 0-54.080-43.84-97.92-97.92-97.92zM96.32 500.48c-28.48 0-51.52-23.040-51.52-51.52s23.040-51.52 51.52-51.52 51.52 23.040 51.52 51.52c0 28.48-23.040 51.2-51.52 51.2v0zM170.88 472.32h93.12v-46.4h-93.12v46.4zM300.48-5.76c-54.080 0-97.92 44.16-97.6 98.24 0 54.080 44.16 97.92 98.24 97.6 54.080 0 97.92-44.16 97.6-98.24 0-17.28-4.8-34.56-13.44-49.6-17.6-30.080-49.92-48.64-84.48-48.32zM300.48 143.68c-28.48 0-51.52-23.040-51.52-51.2 0-28.48 23.040-51.52 51.2-51.52 28.48 0 51.52 23.040 51.52 51.2 0 18.24-9.6 35.2-25.28 44.48v0c-7.68 4.48-16.64 7.040-25.6 7.040h-0.32zM318.346 168.356l47.15 80.301 40.012-23.494-47.15-80.301-40.012 23.494zM719.68 708.16c-17.28 0-34.24 4.48-49.28 13.12v0c-46.72 27.2-62.72 87.36-35.52 134.080s87.36 62.72 134.080 35.52c46.72-27.2 62.72-87.36 35.52-134.080-17.6-30.080-49.92-48.96-84.8-48.96zM693.76 761.6c24.32-14.4 56-6.4 70.4 17.92s6.4 56-17.92 70.4c-24.32 14.4-56 6.4-70.4-17.92 0 0 0 0 0 0-14.4-24.32-6.080-56 18.24-70.4v0zM614.698 673.162l47.15 80.301 40.012-23.494-47.15-80.301-40.012 23.494zM719.68-6.4c-54.080 0-97.92 43.84-97.92 97.92 0 34.88 18.56 66.88 48.32 84.48v0c46.72 27.2 106.56 11.52 133.76-35.2s11.52-106.56-35.2-133.76c-14.72-8.64-31.68-13.12-48.96-13.44zM719.68 143.040c-8.96 0-17.92-2.56-25.92-7.040v0c-24.32-14.4-32.64-45.76-18.24-70.4 14.4-24.32 45.76-32.64 70.4-18.24 24.32 14.4 32.64 45.76 18.24 70.4-7.040 11.84-18.24 20.16-31.36 23.68-4.48 1.28-8.96 1.6-13.44 1.6h0.32zM614.488 224.672l40.045 23.438 47.038-80.367-40.045-23.438-47.038 80.367zM301.12 708.48c-8.32 0-16.96 0.96-24.96 3.2-52.16 13.76-83.52 67.2-70.080 119.36 13.76 52.16 67.2 83.52 119.36 70.080 52.16-13.76 83.52-67.2 70.080-119.36-6.72-24.96-22.72-46.72-45.12-59.84v0c-15.040-8.64-32-13.44-49.28-13.44zM301.12 857.92c-28.48 0-51.52-22.72-51.52-51.2s22.72-51.52 51.2-51.52c9.28 0 18.24 2.56 26.24 7.040v0c24.64 14.4 32.64 45.76 18.24 70.4-9.28 15.68-26.24 25.28-44.8 25.28h0.32zM318.949 730.549l40.045 23.438 47.038-80.367-40.045-23.438-47.038 80.367zM504.64 221.44c-8.96 0-17.6 0-26.56 0-28.8 0-44.8 19.2-39.68 47.68 1.6 9.92 2.56 19.52-3.84 28.48-10.88 15.040-31.36 18.88-46.4 7.68-4.16-3.2-8-6.4-12.48-9.28-17.28-11.84-40.64-7.68-51.52 10.24-11.52 18.24-22.4 37.12-32.64 56-10.24 19.2-2.56 41.28 17.28 50.56 5.12 2.56 10.56 4.16 15.36 6.72 11.84 5.76 18.88 15.040 18.56 28.16 0 13.44-6.080 23.68-18.88 29.44-4.48 1.92-8.96 3.84-13.76 5.76-20.16 8.32-29.44 31.68-19.2 50.88 10.56 19.52 21.76 38.4 33.28 57.28 10.24 16.32 32.64 20.8 49.6 10.56 5.12-3.2 9.6-7.36 14.72-10.88 11.2-8.32 23.68-8.32 35.84-0.64 11.84 7.36 16.64 18.56 15.36 32-0.96 8.64-1.92 17.6-0.32 25.92 3.2 16.32 17.92 27.52 34.56 27.84 21.12 0 41.92 0.32 63.040 0 22.080-0.32 38.4-19.84 36.16-41.92-0.32-4.48-1.28-8.96-1.92-13.44-1.92-12.16 2.24-21.76 12.16-28.8 10.56-7.68 22.080-10.24 34.24-3.84 4.8 2.56 9.28 6.4 13.76 9.92 19.84 15.36 44.16 11.52 56.96-9.6 10.56-16.96 20.48-34.56 30.080-51.84 11.52-21.12 2.88-44.48-19.2-53.76-6.080-2.56-12.8-4.8-18.24-8.32-19.84-13.12-17.28-43.84 4.48-54.080 5.12-2.56 10.88-4.48 16.32-6.72 18.88-8.32 28.16-30.4 18.56-48.64-10.56-20.48-22.4-40.64-34.88-60.16-10.24-16-32.32-19.2-48.96-9.28-4.16 2.56-8 5.76-11.84 8.96-12.48 9.6-25.28 10.56-38.080 2.88s-17.92-19.52-15.36-34.56c2.24-12.48 2.88-24.64-5.12-35.52-7.36-10.24-16.96-16-29.76-16-10.56 0-21.12 0-31.68 0zM505.28 648c-8.32 0-16.64 0-24.96 0-12.48 0-14.080-1.92-12.8-14.080 0-1.92 0-4.16 0.64-6.080 4.16-25.6-6.72-48.32-29.76-62.4-21.44-13.12-47.68-12.16-67.84 2.88-3.52 2.56-7.040 5.44-10.56 8.32-5.12 4.16-8.96 3.52-12.16-1.92-9.92-16.96-19.84-33.92-29.44-50.88-3.2-5.44-1.6-9.28 4.16-12.16 5.44-2.56 10.88-4.48 16-7.040 38.72-19.2 45.76-73.28 12.8-100.8-8-6.72-18.56-10.56-28.16-15.36-6.4-3.2-8.32-6.4-4.8-12.16 9.6-16.96 19.52-33.92 29.44-50.88 2.88-5.12 7.040-5.76 11.84-2.24 3.84 2.88 7.68 6.080 11.84 8.96 34.88 24.96 87.040 5.44 96-36.48 2.24-9.92 0.64-20.48 0-30.72-0.32-10.24 1.6-13.12 11.84-13.12 15.68 0 31.040 0 46.72 0 18.24 0 19.2 1.28 16.32 18.88-3.84 24.96 4.48 45.12 24.64 59.52 20.8 14.72 43.2 16.96 66.24 4.8 6.4-3.2 11.52-8.64 17.28-12.8 5.12-3.84 8.96-3.2 11.84 1.92 10.24 16.96 20.16 34.24 29.76 51.52 3.2 5.44 1.6 9.6-4.16 12.16-4.16 1.92-8.32 3.52-12.48 5.12-23.36 9.92-36.16 28.16-37.44 53.12-1.28 26.24 9.92 46.080 33.6 58.24 5.44 2.88 11.2 4.8 16.64 7.36 4.8 2.24 6.72 6.080 3.84 11.2-9.92 17.28-19.84 34.88-30.080 52.16-2.88 4.8-6.72 5.44-11.52 1.92-3.2-2.56-6.4-5.12-9.6-7.36-34.88-26.88-88-8.96-97.92 33.92-2.24 9.92-0.64 21.12 0 31.36 0.64 10.56-1.28 13.12-11.84 13.12-8.96 0-17.6 0-26.56 0zM504.96 351.68c-53.76 0-97.28 44.16-96.96 98.24 0 52.8 44.48 96.96 97.6 96.32 51.84-0.64 96.64-40.64 96.96-98.24 0-53.12-44.48-96.64-97.6-96.32zM504.32 381.44c36.16-0.96 67.52 29.76 68.48 66.24s-29.44 67.84-66.56 68.8c-35.84 0.64-67.2-29.12-68.16-64.96-0.96-37.76 28.8-69.12 66.56-70.080z" />
<glyph unicode="&#xe926;" glyph-name="config-queue" d="M756.48 132.48c-25.28-0.32-46.080-15.68-55.040-40-15.040-40.64-30.080-81.28-43.84-122.56-4.48-13.76-11.2-19.52-25.6-22.4-81.6-16.96-162.88-14.72-244.16 2.88-5.12 0.96-10.88 7.36-12.8 12.8-14.72 40.64-28.48 81.92-42.88 122.88-10.88 31.36-35.84 46.080-68.8 40.64-44.16-7.36-88.64-13.76-132.8-21.12-9.92-1.6-16.32 1.6-22.72 8.32-44.16 45.12-69.44 100.8-92.48 158.72-9.28 23.040-3.2 36.48 12.48 52.48 25.28 25.92 48.64 53.76 72.64 80.64 23.68 26.56 24 52.8 1.28 80.32-27.52 33.6-55.040 66.88-83.2 100.16-6.080 7.040-6.72 12.8-3.52 22.080 20.48 59.52 50.88 112.96 90.24 162.24 13.12 16.32 25.92 23.040 47.68 18.24 37.12-8.32 74.88-13.12 112.64-18.88 32.32-5.12 59.52 10.56 71.36 40.96 15.68 40.32 30.72 81.28 45.12 121.92 3.2 8.96 8 12.48 17.28 14.72 82.56 19.2 164.8 16 246.72-1.6 4.8-0.96 10.24-7.040 11.84-11.84 14.4-39.36 28.48-78.72 42.24-118.4 12.16-35.2 36.48-50.56 73.28-45.76 43.2 5.44 86.080 10.88 128.96 16.96 9.28 1.28 15.36-0.96 21.76-7.36 35.2-35.2 56.64-78.72 76.16-123.52 6.4-14.72 11.52-29.76 18.24-44.16 3.84-8.32 2.24-14.080-3.52-20.8-27.52-32.96-55.040-65.92-82.24-99.2-24.96-30.4-24.64-57.28 0.64-87.040 27.2-32 54.72-63.68 81.6-96 3.2-4.16 6.080-11.84 4.48-16.32-21.12-57.6-46.080-113.28-86.080-161.28-13.76-16.64-26.88-24.64-50.24-19.2-39.040 8.96-78.72 13.44-118.4 19.84-3.2 0.64-6.72 0.64-8.32 0.96zM161.28 715.52c-2.24-1.92-7.68-4.8-10.24-8.96-15.36-26.24-30.4-52.48-44.48-79.36-1.92-3.84 0.32-12.16 3.52-16 18.56-23.040 37.76-45.12 56.96-67.52 44.8-53.44 44.8-127.040-0.64-180.48-18.56-22.080-37.76-43.84-56-66.24-3.2-4.16-6.4-12.16-4.48-16 14.080-27.2 29.44-54.080 44.8-80.64 4.48-7.68 11.2-8.64 19.84-7.040 32 5.44 63.68 10.56 96 14.080 65.92 7.36 125.12-29.44 147.84-91.84 9.92-27.52 18.88-55.68 27.84-83.52 2.56-8.32 6.080-13.76 15.36-13.76 41.92 0 83.84 0 125.44 0 8.96 0 13.12 4.8 16 13.44 10.88 32 22.4 63.68 34.56 95.040 21.12 54.4 83.2 90.24 140.8 81.6 31.36-4.8 62.72-10.24 94.4-14.4 4.8-0.64 12.48 2.24 15.040 6.080 14.4 23.36 27.2 47.68 40.96 71.36 7.040 12.16 3.52 20.8-5.12 30.72-19.52 22.080-38.72 44.16-56.64 67.84-39.36 51.84-37.12 121.28 4.16 171.2 18.88 22.72 38.080 44.8 56.64 67.52 2.88 3.52 4.8 11.2 2.88 14.72-14.72 27.2-29.76 54.080-46.080 80-2.88 4.48-11.84 8-17.6 7.68-27.84-2.24-55.68-6.080-83.52-9.6-74.24-9.6-134.4 27.2-159.040 97.92-8.64 24.64-17.28 48.96-25.6 73.92-2.88 8.32-7.36 12.48-16.32 13.44-40 5.12-80 5.12-120 0-9.28-1.28-14.080-5.76-17.28-14.72-9.28-26.24-19.52-52.48-29.44-78.4-26.88-71.040-88.64-105.6-163.2-91.52-27.84 5.12-56 8.96-87.68 14.080zM386.88 454.080c0 66.24 54.080 120 120.32 120s120-54.080 120-120.32c0-66.24-54.080-120-120.32-120s-120 54.080-120 120.32zM487.040 481.6c0-10.56 0-20.8 0-31.36 0-7.040 2.56-12.8 8-17.6 12.8-11.2 25.28-22.4 38.080-33.28 9.28-8 21.12-7.68 29.12 0.96 7.68 8.64 6.4 20.48-2.56 28.8-9.6 8.64-19.2 17.28-28.48 26.24-1.92 1.92-3.52 5.44-3.84 8.32-0.32 16.32 0 32.64 0 48.64 0 12.16-8.64 21.12-19.84 21.12-11.52 0-19.84-8.96-19.84-21.12 0-10.56 0-20.8 0-31.36zM391.36 278.72c22.72-14.72 45.12-24.64 69.44-29.76 107.2-23.040 210.88 35.52 246.080 139.52 13.76 40.64 14.080 81.92 2.56 123.2-2.88 9.92-1.28 16.32 5.44 20.48 8.64 5.44 19.52 1.28 22.4-8.64 8-26.88 11.52-54.080 9.92-82.24-3.2-52.16-20.8-98.88-54.4-139.2-42.88-51.52-97.6-80.96-164.48-87.040-56-5.12-107.52 8.64-154.24 39.36-0.96 0.64-1.92 0.96-2.24 1.28-12.48-12.16-24.96-24.32-37.44-36.48-5.76-5.44-11.2-7.040-17.6-4.16-5.44 2.56-8.96 7.040-8.96 13.12-0.32 30.080-0.96 60.16-0.96 90.24 0 9.28 6.080 15.36 15.36 15.36 29.76 0 59.52 0 89.6 0 6.4 0 11.2-2.88 14.080-8.96s1.6-12.16-2.88-16.64c-9.92-9.92-20.16-19.2-31.040-29.76zM622.080 629.76c-17.6 11.84-35.52 20.16-54.72 25.6-110.4 32.32-223.68-26.88-260.16-136-13.44-40.32-14.080-81.28-2.56-122.56 0.96-3.2 1.92-6.4 1.6-9.6-0.64-7.36-6.4-12.8-13.44-13.44-7.36-0.64-14.080 3.84-15.68 11.52-3.2 14.080-7.040 27.84-8.64 42.24-6.4 57.28 6.080 110.4 38.080 158.4 41.6 61.76 99.52 97.92 173.76 106.88 57.28 6.72 110.080-6.4 158.4-37.76 1.6-0.96 3.2-1.92 5.76-3.52 5.76 6.080 11.52 12.48 17.6 18.56 6.72 6.72 13.44 13.76 20.48 20.16 4.48 4.48 10.24 5.76 16 2.88 5.76-2.56 8.96-7.040 8.96-13.12 0-30.4 0-60.8 0-91.52 0-8-6.4-14.4-14.4-14.4-30.4 0-60.48 0-90.88 0-6.4 0-11.2 3.2-13.44 9.28-2.56 6.080-1.28 11.52 3.2 16 9.92 9.92 19.84 19.52 30.72 30.080z" />
<glyph unicode="&#xe927;" glyph-name="contact" d="M893.76 766.080c14.72 0 27.2 0 39.36 0 15.68 0 24.64-7.040 24.64-23.36 0-26.56 0-53.44 0-80 0-16.32-8.32-23.68-24.32-23.68-12.48 0-24.64 0-38.4 0v-128.64c13.12 0 25.92 0 38.72 0 16 0 24-8 24-24 0-26.56 0-53.44 0-80 0-15.36-8-22.72-23.040-23.040-12.8 0-25.92 0-39.68 0v-128.96c13.76 0 26.56 0 39.68 0 15.040 0 23.040-7.68 23.36-23.040 0-27.2 0-54.4 0-81.6 0-15.36-8.64-22.4-23.68-22.4-12.48 0-24.96 0-40.32 0 0-17.28 0-33.6 0-49.92 0-15.36 0-30.72 0-46.080-0.64-55.36-41.6-96-96.96-96-211.52 0-423.040 0-634.56 0-57.92 0-98.24 40-99.2 97.92-0.64 36.16 0 72.32 0 108.48 0 236.48 0.96 472.64-0.64 709.12-0.96 67.52 48 108.48 107.52 107.84 207.36-1.92 414.72-0.64 622.080-0.64 61.76 0 101.12-39.040 101.44-100.48 0-29.44 0-59.2 0-91.52zM797.44 30.72v830.72h-638.4v-830.72h638.72zM477.76 190.72c-57.92 0-116.16 0-174.080 0-33.28 0-48.64 15.36-48.64 48.64 0 76.48 28.48 118.72 92.48 136.96 22.72 6.4 44.8 7.36 67.84 0 42.24-13.76 84.8-12.8 127.36-0.32 81.28 23.68 159.36-34.56 159.36-118.4 0-4.8 0-9.6 0-14.080 0-39.68-13.12-52.48-53.44-52.48-56.96 0-113.6 0-170.56 0zM605.76 573.44c0-69.76-58.24-127.040-128.32-126.72-68.16 0-126.4 59.2-126.4 127.36 0 69.76 59.52 128.32 129.92 127.68 67.84-0.64 125.44-59.52 125.12-128.32z" />
<glyph unicode="&#xe928;" glyph-name="copilot" d="M156.16 503.36c-4.48 5.44-8 12.48-13.76 16-33.92 21.12-69.44 39.36-102.080 62.4-45.12 32-50.24 58.88-26.24 109.12 19.2 40 48.64 70.4 87.68 91.84 67.84 37.44 141.12 60.16 216.32 75.84 51.52 10.88 104 18.56 156.16 24.64 64.64 7.36 128.32-3.84 191.68-16 76.48-14.72 151.36-34.88 222.4-67.2 47.36-21.44 89.6-49.28 114.88-96.64 6.4-12.16 11.84-24.96 16.32-37.76 9.28-27.2 4.16-51.84-18.88-69.44-25.92-19.84-53.44-37.76-80.64-56.32-29.44-20.16-61.44-26.24-97.6-25.92-218.24 1.28-436.8 0.64-655.040 0.64-6.4 0-18.56 3.84-11.84-11.2h0.32zM548.48 664c0 1.6 0 3.52 0 5.12 4.16 0 8 0.64 12.16 0.64 30.080 0 60.48 0 90.56 0 8.96 0 16.64 1.92 17.6 14.72-5.44 0-10.24 0-15.040 0-32 0-64-0.64-96 0-11.2 0-22.080 4.16-33.28 5.44-7.68 0.96-17.28 3.2-23.36 0-14.080-7.040-28.48-5.76-42.88-6.080-29.76 0-59.52 0-89.28 0-4.48 0-9.28-0.32-14.72-0.64 2.56-11.84 9.92-14.080 19.2-14.080 30.080 0 60.48 0 90.56 0 3.84 0 8 0 11.84 0 0-1.92 0-3.84 0-5.76h-96.64c2.24-13.76 9.6-16.32 18.88-16.32 21.44 0 42.56 0 64 0 4.16 0 8.64-0.64 12.8-1.28v-4.16h-69.44c-0.32-1.92-0.96-3.84-1.28-5.76 5.76-2.24 11.52-6.080 17.28-6.4 14.080-0.96 28.48-0.32 42.56 0 11.2 0 21.12-1.6 31.68-6.4 8.64-4.16 22.080-4.8 30.080-0.64 12.8 6.4 24.96 7.040 38.4 7.040 12.8 0 25.6 0 38.72 0 7.68 0 13.44 2.56 15.040 13.44h-69.12s0 2.56 0 3.84c4.8 0 9.28 0.64 14.080 0.64 20.8 0 41.6 0 62.72 0 9.92 0 16.64 3.52 18.88 16.64h-96zM139.52 142.4h26.88c0.64 8 0.96 16.32 2.24 24.32 7.68 56 46.72 91.84 103.68 93.12 22.72 0.64 45.12-2.24 67.84-2.24 124.16 0 248.64 0 372.8 0 12.48 0 24.64 2.24 37.12 2.24 58.56 0.64 98.24-35.2 104.96-93.44 0.96-8 1.28-15.68 2.24-24.64 9.28 0.64 17.28 1.28 26.88 2.24 0.96-3.52 1.92-7.040 3.84-13.44-30.080 6.72-32.96-12.48-38.080-33.6-16.32-64.64-64-95.36-134.080-84.48-30.080 4.48-59.52 14.080-88.32 23.68-29.44 9.92-49.6 30.72-59.84 60.16-7.36 20.8-12.8 42.24-19.52 63.36-1.28 4.16-4.16 8.96-8 10.88-18.56 9.6-37.76 8.96-56.32 0.64-3.52-1.6-5.76-7.040-7.040-10.88-7.040-22.4-12.48-45.12-20.48-67.2-7.36-20.48-21.76-36.8-41.28-47.36-41.6-22.4-86.72-34.88-133.76-35.52-57.92-0.64-98.88 37.12-109.44 97.92-2.56 15.040-6.72 23.36-23.36 21.44-8.96-0.96-11.84 3.84-8 12.48zM614.4 243.84h-199.36c26.88-13.44 44.48-34.56 53.12-63.36 29.44 13.12 57.28 14.080 86.080-0.96 7.68 33.92 28.8 53.76 60.16 64.64zM155.84 503.040c32 0 64-0.64 95.68-0.64 200.96 0 402.24 0 603.2 0 4.8 0 9.6 0 15.36 0v-23.68h-713.6c-4.16-10.56-2.24-15.040 8-15.040 31.36 0 63.040-0.64 94.4-0.64 95.68 0 191.68 0 287.36 0 103.040 0 205.76 0 308.8 0 4.8 0 9.6 0 14.4 0 0.96-1.28 2.24-2.24 3.2-3.52-7.68-11.2-14.080-23.36-23.040-33.6-52.48-60.48-121.6-92.48-198.4-108.16-115.84-24-231.040-22.72-343.68 19.2-55.040 20.48-101.76 52.8-141.12 96.96-19.2 21.76-16 44.8-11.2 69.44 0 0-0.32 0-0.32 0zM535.68 656c0.32-13.12-9.92-23.68-23.040-24-13.12 0-24 9.92-24.32 22.72 0 12.8 10.24 23.68 23.040 24 13.12 0 23.68-9.92 24-23.040z" />
<glyph unicode="&#xe929;" glyph-name="copy" d="M325.12 767.68c0 31.68 0 60.8 0 89.92 0.32 62.4 40 102.4 102.4 102.4 110.72 0 221.76 0 332.48 0 30.080 0 55.36-9.92 76.48-31.36 32.64-32.96 65.28-65.6 98.24-98.24 20.48-20.16 30.4-44.16 30.4-73.28 0-176.64 0-353.28 0-529.92 0-59.2-40.32-99.2-99.2-99.2-51.52 0-103.040 0-156.8 0 0-32.64 0-64 0-95.040-0.32-49.28-30.4-85.76-78.4-95.68-6.72-1.28-14.080-1.28-21.12-1.28-145.92 0-291.52 0-437.44 0-62.080 0-102.080 39.68-102.080 102.4 0 155.2 0 310.72 0 465.92 0 53.44 0 106.56 0 160 0 64 39.36 103.36 103.040 103.36 50.24 0 100.48 0 153.28 0zM869.44 640.32c-57.92 0-113.6 0-169.28 0-36.16 0-54.72 18.24-54.72 54.72 0 49.92 0 99.52 0 149.44 0 6.4-0.64 12.48-0.96 20.16-6.080 0-10.88 0-15.36 0-62.080 0-124.48-0.64-186.56 0.32-17.6 0-22.4-6.080-22.4-22.72 0.32-198.4 0-397.12 0-595.52 0-21.76 1.28-23.040 23.040-23.040 134.4 0 269.12 0 403.52 0 22.080 0 22.4 0.64 22.72 23.36 0 113.28 0 226.24 0 339.52 0 17.28 0 34.24 0 54.080zM325.12 672.32c-46.4 0-90.56 0-135.040 0-26.24 0-26.24 0-26.24-25.6 0-196.8 0-393.6 0-590.4 0-24.64 0.32-25.28 24.64-25.28 133.44 0 266.88 0 400.32 0 4.16 0 8.96-1.28 12.16 0.32 4.48 2.24 11.2 6.72 11.2 10.56 0.96 28.16 0.64 56.32 0.64 85.76-61.44 0-120.96 2.24-179.84-0.64-61.12-2.88-109.44 40.96-108.48 107.84 1.92 138.24 0.64 276.16 0.64 414.4 0 7.040 0 13.76 0 22.72zM741.12 736.64h126.4c4.8 15.36 0.32 26.24-10.56 36.8-26.88 25.6-53.44 52.16-79.040 79.040-10.56 11.2-21.76 14.4-36.8 10.24v-126.080z" />
<glyph unicode="&#xe92a;" glyph-name="cors" d="M1018.56 219.2c-2.56-17.6-13.44-29.44-25.28-41.28-43.84-43.2-87.040-86.72-130.56-130.24-2.56-2.56-4.16-5.76-6.080-8.96-0.96 0.64-2.24 1.28-3.2 1.92v116.8c-133.76 8.64-246.4 60.16-339.84 155.84 27.52 31.36 54.72 62.4 82.56 94.4 33.6-36.48 72-65.92 116.16-87.36s90.24-33.92 140.16-37.12v121.28c3.52-2.88 5.44-4.16 7.040-5.76 47.36-47.36 94.72-94.72 142.080-142.080 8.96-8.96 13.44-19.52 16.64-31.36v-5.76zM435.52 567.68c-115.2 133.76-253.12 220.8-435.52 217.6v-124.48c2.88 0 4.8 0 6.72 0 68.8-0.64 133.76-16.32 193.6-51.84 59.2-35.2 106.88-83.52 151.68-135.040 0.32-0.32 0-1.28 0-1.92 0.64-0.64 1.28-1.28 1.92-1.92l82.88 98.56s-0.64-0.64-0.96-1.28zM1007.36 709.12c-47.68 47.36-95.36 95.040-143.040 142.72-1.6 1.6-3.52 2.88-6.72 5.44v-121.28c-5.44-0.64-10.24-0.96-15.040-1.28-71.68-5.12-139.2-25.28-201.6-61.12-62.72-36.16-115.2-84.48-163.84-137.28-4.8-5.44-9.92-10.56-15.36-16.96l-82.88-98.56c-32-30.72-63.040-63.040-96.32-92.16-54.4-47.36-117.76-77.12-189.44-87.36-22.4-3.2-45.12-4.48-68.16-6.72v-123.52c2.88 0 5.12 0 7.040 0 108.8 0.64 208 31.68 296.64 95.36 57.6 41.6 105.92 92.8 153.28 145.6 45.76 51.2 91.2 102.72 139.52 151.36 47.040 47.36 103.040 81.28 168.64 96.64 21.76 5.12 44.48 8 68.16 12.16v-120s1.92-0.96 2.56-1.6c1.92 2.56 3.52 5.44 5.76 7.68 43.52 43.84 87.040 87.68 131.2 131.2 12.16 12.16 23.36 24.32 25.92 42.24v3.84c-2.56 12.48-7.040 24-16.64 33.28z" />
<glyph unicode="&#xe92b;" glyph-name="cross" d="M898.56 147.52c17.6-24 26.24-52.48 26.24-78.4 0-39.36-17.28-76.16-50.24-100.16-24-17.28-49.92-25.92-76.16-25.92-39.36 0-76.16 17.28-102.4 52.16l-180.8 241.92-187.2-250.56c-26.24-32.64-63.040-50.24-102.4-50.24-26.24 0-52.48 8.64-76.16 26.24-32.64 24-50.24 60.8-50.24 100.16 0 25.92 8.64 52.16 26.24 76.16l230.72 309.44-230.72 309.12c-17.6 21.76-26.24 48-26.24 73.92 0 39.36 17.6 78.4 50.24 102.4 24 17.28 49.92 25.92 76.16 25.92 39.36 0 78.4-17.28 102.4-50.24l187.2-250.56 180.8 242.24c24 32.64 63.040 50.24 102.4 50.24 25.92 0 52.16-6.72 76.16-24 32.96-24 50.24-61.12 50.24-100.16 0-26.24-8.64-54.4-26.24-78.4l-224.32-300.8 224.32-300.48z" />
<glyph unicode="&#xe92c;" glyph-name="cross_1" d="M479.68-64.32v135.040c-17.28-8-36.48-12.16-56-12.16-18.24 0-35.84 3.52-52.48 10.88-16 6.72-30.4 16.64-42.88 29.12-25.28 25.6-39.040 59.84-38.4 96 0.64 34.88 14.4 67.84 39.36 92.8s57.92 38.72 92.8 39.36c0.64 0 1.28 0 1.6 0 19.52 0 38.4-4.16 56-12.16v133.76s-160 0-160 0c3.84 6.72 9.6 15.36 16.32 24.96 12.8 18.56 22.080 40 21.76 64.32-0.64 55.040-45.44 99.84-100.48 100.48-0.32 0-0.96 0-1.6 0-56.32 0-101.76-45.44-101.76-101.76 0-23.68 9.28-44.8 21.76-63.040 6.080-8.96 12.48-18.24 16.32-24.96h-149.12c-23.68 0-42.88-19.2-42.88-42.88v-426.56c0-23.68 19.2-42.88 42.88-42.88h437.12zM889.6 416.32c8-17.28 12.16-36.48 12.16-56 0-35.84-14.080-69.44-39.36-94.72s-58.88-39.36-94.72-39.36c-0.64 0-1.28 0-1.92 0-34.88 0.64-67.84 14.4-92.8 39.36s-38.72 57.92-39.36 92.8c0 20.16 3.84 39.68 12.16 57.6h-134.4v-160.64c-5.76 3.2-16 10.24-25.92 16.96-17.92 12.48-38.72 21.12-62.080 21.12-0.32 0-0.96 0-1.28 0-55.040-0.64-99.84-45.44-100.48-100.48 0-18.88 4.48-36.48 13.12-51.84 17.6-30.72 50.56-51.52 88.64-51.52 23.36 0 43.84 9.6 62.080 21.12 11.2 7.040 20.16 13.76 25.92 16.96v-192.32h469.12c23.68 0 42.88 19.2 42.88 42.88v437.44h-134.080zM981.12 960.32h-469.12v-196.48s17.28 15.040 22.72 18.88c17.6 14.72 40.32 23.36 64.96 23.36 56.64 0 102.72-46.4 101.76-103.36-0.64-55.040-45.76-99.84-100.48-100.48-0.32 0-0.96 0-1.28 0-24.64 0-47.36 8.96-64.96 23.36-5.44 3.84-22.72 18.88-22.72 18.88v-196.48h192.32c-1.6-2.88-9.92-16-16.96-25.92-12.8-17.92-21.44-39.36-21.12-63.36 0.64-55.040 45.44-99.84 100.48-100.48 0.32 0 0.96 0 1.6 0 26.24 0 50.24 9.92 68.48 26.24 20.48 18.56 33.28 45.44 33.28 75.52 0 23.36-8.64 44.16-21.12 62.080-7.68 11.52-13.76 20.16-16.96 25.6 0 0 0 0 0 0h192.32v470.080c0 23.68-19.2 42.88-42.88 42.88z" />
<glyph unicode="&#xe92d;" glyph-name="cross-solid" d="M1024 448c0-282.88-229.12-512-512-512s-512 229.12-512 512 229.12 512 512 512 512-229.12 512-512zM603.52 448l126.4 169.6c9.92 13.44 14.72 29.44 14.72 44.16 0 22.080-9.92 42.88-28.16 56.64-13.44 9.92-28.16 13.44-42.88 13.44-22.080 0-44.16-9.92-57.92-28.16l-101.76-136.32-105.6 141.12c-13.44 18.56-35.52 28.16-57.6 28.16-14.72 0-29.44-4.8-42.88-14.72-18.56-13.44-28.16-35.52-28.16-57.6 0-14.72 4.8-29.44 14.72-41.6l130.24-174.4-130.24-174.4c-9.92-13.44-14.72-28.16-14.72-42.88 0-22.080 9.92-42.88 28.16-56.64 13.44-9.92 28.16-14.72 42.88-14.72 22.080 0 42.88 9.92 57.6 28.16l105.6 141.12 101.76-136.32c14.72-19.52 35.52-29.44 57.92-29.44 14.72 0 29.44 4.8 42.88 14.72 18.56 13.44 28.16 34.56 28.16 56.64 0 14.72-4.8 30.72-14.72 44.16l-126.4 169.6z" />
<glyph unicode="&#xe92e;" glyph-name="dashboard" d="M1024 244.8c-8.64 137.92-65.6 266.24-160.64 360.96-95.36 95.36-220.16 147.84-351.040 147.84s-255.68-52.48-351.040-147.84c-95.36-94.72-152.64-223.040-161.28-360.96-0.96-16 4.16-31.040 14.4-42.56 10.56-11.84 25.28-18.56 40.64-18.56h245.76c20.8 0 38.4 17.6 40.32 39.68 7.36 93.76 82.24 167.36 170.88 167.36 13.76 0 26.88-1.92 39.68-5.12 5.76 6.72 11.84 13.76 17.6 20.48-18.24 6.080-37.44 9.28-57.6 9.28-102.080 0-185.92-83.52-193.92-189.76-0.64-9.6-8-17.28-17.28-17.28h-245.44c-18.24 0-32.96 15.68-32 35.2 16.96 271.040 229.44 485.76 488.96 485.76s472-214.4 488.96-485.76c1.28-19.2-13.76-35.2-32-35.2h-245.76c-8.96 0-16.32 7.68-17.28 17.28-3.52 43.84-19.84 83.84-45.12 115.84-3.2-8.96-6.72-17.92-9.92-26.88 17.6-25.92 29.12-57.28 32-90.88 1.6-22.4 19.52-39.68 40.32-39.68h245.76c15.36 0 30.080 6.72 40.64 18.56 10.24 11.52 15.36 26.88 14.4 42.56zM359.36 650.88c21.44 10.88 43.52 18.56 65.92 21.76 4.48 0.64 8.64-1.92 9.6-5.44l46.4-190.72-40.32-11.52-85.76 176.96c-1.6 3.2 0 7.36 3.84 9.28zM180.48 505.92c14.080 19.84 30.080 36.48 48.32 49.6 3.84 2.56 8.64 2.24 11.2-0.32l129.28-147.52-30.4-29.12-157.76 117.12c-2.88 2.24-3.2 6.72-0.64 10.24zM94.080 337.6c6.080 23.36 14.72 44.8 27.2 63.68 2.56 3.84 7.36 5.44 10.56 3.52l174.080-90.88-17.92-38.080-189.76 52.16c-3.52 0.96-5.44 5.12-4.48 9.28zM635.2 672.32c24.32-4.16 46.72-10.88 65.92-21.44 3.84-2.24 5.44-6.72 3.52-9.92l-102.080-176.32-39.36 14.4 62.080 188.48c1.28 3.52 5.44 5.76 9.92 5.12zM833.92 556.48c19.84-14.72 36.48-31.040 48.96-49.6 2.56-3.84 1.6-8.32-1.6-10.56l-171.52-109.12-28.16 31.040 141.76 138.24c2.56 2.56 7.36 2.56 11.2 0zM918.080 391.36c13.12-21.12 22.72-42.24 27.52-64 0.96-4.48-1.28-8.32-5.12-9.28l-199.040-40-15.36 39.040 181.76 77.76c3.52 1.6 8 0 10.24-4.16zM702.72 476.48c1.28 4.48-3.2 8.32-7.040 5.76-33.92-22.080-223.36-209.28-234.24-224.64-21.76-31.040-16.32-74.56 12.16-97.6s69.12-16.64 90.88 14.4c10.88 15.36 127.68 261.12 138.56 302.080z" />
<glyph unicode="&#xe92f;" glyph-name="debug" d="M847.68 479.36v-54.080c-2.24 0-4.8 0-7.040 0-32 0-64 0-96 0-4.8 0-5.76-1.6-4.48-5.76 1.6-5.44 2.88-10.88 3.84-16.32 3.52-27.84 1.6-55.68-5.44-82.56-1.28-5.12 0-5.76 4.48-5.44 17.6 0 35.52 0.64 53.12 0 23.040-0.96 38.72-13.44 48-34.56 1.6-3.52 1.28-7.36 3.84-10.56 0-47.36 0-94.72 0-142.080 0-3.84-0.64-4.8-4.48-4.48-16.96 0-33.92 0-50.56 0 0 0.64 0 1.28 0 1.92 0 43.52 0 87.040 0 130.56 0 4.8-1.92 5.12-5.76 5.12-22.4 0-44.8 0-67.2 0-5.12 0-7.68-1.6-10.56-5.76-51.2-74.88-122.24-110.4-212.48-102.72-72.32 6.4-128.64 42.88-168.64 103.68-2.24 3.52-4.48 4.8-8.64 4.8-22.72 0-45.76 0-68.48 0-4.48 0-5.76-1.28-5.76-5.76 0-21.44 0-42.88 0-64.32 0-22.4 0-45.12 0-67.52h-55.040c0 44.8 0 89.6 0 134.4 0 34.24 23.040 57.28 56.96 57.6 16 0 32 0 48 0 4.8 0 5.44 0.96 4.16 5.76-8 32.32-10.56 64.96-2.24 97.92 1.6 6.080 0 6.72-5.44 6.72-32 0-64.32 0-96.32 0-4.48 0-5.76 0.96-5.76 5.44 0 14.4 0.32 28.8 0 43.2 0 5.12 1.28 6.4 6.4 6.080 36.8 0 73.6 0 110.4 0 4.16 0 6.4 0.96 7.36 5.44 8 32.96 16.32 65.92 24.96 98.88 1.28 4.8 0.32 6.080-4.48 5.76-28.48 0-56.96 0.64-85.44 0-34.56-1.28-59.84 25.92-59.2 59.2 0.96 44.48 0 88.64 0 133.12 18.24 0 36.8 0 55.040 0 0-0.64 0-1.28 0-1.92 0-43.52 0-87.040 0-130.56 0-4.8 2.24-4.8 5.76-4.8 32.64 0 65.6 0 98.24 0 4.8 0 7.36 1.28 9.6 6.080 31.36 70.080 106.24 112.96 181.12 102.72 65.28-8.96 112-44.16 140.48-103.68 1.6-3.52 3.52-5.12 7.36-5.12 33.28 0 66.24 0 99.52 0 4.48 0 5.76 0.96 5.76 5.76 0 21.76 0 43.2 0 64.96 0 22.4 0 44.48 0 66.88 16.96 0 33.92 0 50.56 0 3.84 0 4.48-0.64 4.48-4.48 0-47.68 0-95.68 0-143.36-0.96 0-1.28-0.96-1.6-1.92-10.24-29.76-27.52-42.24-58.88-42.24-28.16 0-56.32 0-84.8 0-4.16 0-5.44-0.32-4.16-5.12 8.64-33.28 16.96-66.56 25.28-100.16 0.96-4.16 2.88-4.8 6.4-4.8 11.2 0 22.4 0 33.28 0 28.16 0 56 0 84.16 0zM763.52-64h-499.84c-144.32 0-262.080 117.76-262.080 262.4v499.52c0 144.64 117.76 262.080 262.080 262.080h499.84c144.64 0 262.080-117.44 262.080-262.080v-499.84c0-144.64-117.44-262.080-262.080-262.080zM263.68 866.88c-93.12 0-168.96-75.84-168.96-168.96v-499.84c0-93.12 75.84-168.96 168.96-168.96h499.84c93.12 0 168.96 75.84 168.96 168.96v499.84c0 93.12-75.84 168.96-168.96 168.96h-499.84z" />
<glyph unicode="&#xe930;" glyph-name="deflection" d="M917.12 804.16c-17.28 0-31.040 0-44.8 0-20.48 0.32-34.88 13.12-35.2 31.040 0 16.96 13.44 30.4 33.28 31.040 40.64 0.96 81.6 0.64 122.24 0 17.6 0 29.76-11.52 30.4-29.76 0.96-41.92 0.96-83.84 0-125.76-0.32-18.56-14.72-31.040-31.36-30.72-17.6 0.32-29.44 13.44-29.76 33.92 0 13.76 0 27.52 0 44.48-6.4-5.76-10.56-8.96-14.080-12.48-90.56-90.56-181.12-181.12-271.68-271.36-20.16-20.16-20.16-34.24 0.64-54.72 109.12-109.12 217.92-218.24 327.040-327.36 21.76-21.76 24.96-40.96 9.6-55.36-15.040-14.080-31.36-10.56-53.44 11.84-109.12 109.12-217.92 218.24-327.040 327.36-45.12 45.12-45.12 97.28 0 142.4 89.6 89.6 179.52 179.52 269.12 269.12 4.48 4.48 8.32 8.96 15.36 16.32zM61.76 759.68c0-18.88 0-32.64 0-46.72-0.64-18.88-12.48-31.68-29.76-32.32-16.96-0.64-31.040 11.52-31.36 30.4-0.96 41.92-0.96 83.84 0 125.76 0.32 18.88 12.8 29.44 32 29.76 39.68 0.32 79.040 0.64 118.72 0 21.12 0 35.2-13.44 35.2-31.040 0-17.92-15.040-30.72-37.12-31.040-12.8 0-25.6 0-42.56 0 6.080-6.72 9.92-10.88 14.080-15.040 89.6-89.6 179.52-179.2 269.12-269.12 45.76-46.080 46.080-97.92 0.64-143.68-110.080-110.4-220.48-220.8-330.56-330.88-3.2-3.2-6.4-6.72-10.24-9.6-12.8-9.92-28.16-9.28-39.68 1.92-11.2 11.2-13.44 24.32-5.12 38.080 3.84 6.4 9.28 11.84 14.72 17.28 108.16 108.16 216.32 216.64 324.48 324.8 24.64 24.64 24.64 36.16 0 61.12-88.64 88.32-176.96 176.96-265.6 265.28-4.48 4.48-8.96 8.64-16.64 15.68zM476.16 850.88c-11.2-11.84-22.080-24-33.6-35.52-14.72-14.4-32-15.040-44.8-2.56-12.48 12.16-13.12 31.36 0.64 45.12 30.080 30.72 60.48 61.44 91.52 91.2 14.080 13.76 31.040 13.44 45.12 0 30.72-30.080 61.44-60.48 91.2-91.2 13.44-13.76 12.8-33.28 0-45.12-12.48-11.84-29.76-11.52-43.52 1.92-12.16 11.52-23.36 24-39.040 34.88v-19.84c0-282.24 0-564.48 0-846.72 0-6.4 0.32-12.8-0.64-19.2-2.24-16.32-15.68-27.52-31.040-27.52-15.68 0-28.48 11.52-30.72 27.84-0.96 6.4-0.32 12.8-0.32 19.2 0 282.24 0 564.48 0 846.72v18.88s-2.88 1.6-4.48 2.24z" />
<glyph unicode="&#xe931;" glyph-name="delete-all" d="M570.24 960c16.32-4.16 33.28-6.4 48.96-12.16 71.040-25.92 116.48-76.16 136.32-149.12 1.92-7.36 5.12-9.28 12.16-9.28 40 0 80 0.32 120 0 32 0 52.8-28.16 42.56-56.96-6.080-16.96-21.44-28.16-39.68-28.48-13.76 0-27.84 0-42.88 0v-13.44c0-178.88 0.64-358.080-0.32-536.96-0.64-93.44-45.12-160.96-130.24-200.32-26.88-12.48-56-17.28-85.44-16.96-83.2 0-166.72 0-249.92 0-122.56 0-216.64 93.76-216.96 216.32 0 171.84 0 344 0 515.84 0 11.2 0 22.72 0 35.52-14.4 0-28.16 0-41.92 0-26.88 0.32-45.44 21.44-42.56 48 2.24 21.44 20.48 37.12 44.48 37.44 39.68 0 79.36 0 119.040 0 8 0 11.2 1.6 13.44 10.24 21.76 85.12 92.48 147.2 179.52 158.4 1.92 0.32 3.52 1.28 5.44 1.92 42.56 0 85.44 0 128 0zM250.24 703.68v-10.56c0-180.48 0-360.64 0-541.12 0-74.56 55.36-130.56 129.92-130.56 83.84-0.32 168 0 251.84 0 74.88 0 130.24 56 130.24 131.52 0 179.84 0 360 0 539.84 0 3.52 0 7.040 0 10.88h-512zM667.84 789.76s0.32 2.24 0 2.88c0 0.96-0.64 1.92-0.96 2.88-21.44 47.040-57.6 74.56-109.12 78.080-32.96 2.24-65.92 1.6-98.88 0-51.52-2.24-88.32-27.84-111.36-73.6-1.6-3.2-2.56-6.4-4.16-10.56h324.48zM505.92 202.56c-66.88 0-134.080 0-200.96 0-22.4 0-39.040 12.8-41.6 34.88-0.96 8.64 1.28 18.88 5.44 26.56 66.24 113.92 132.8 227.84 199.36 341.44 17.6 30.080 55.68 30.080 73.28 0 66.88-113.92 133.44-227.84 200-342.080 16.96-29.12-1.6-60.8-35.2-60.8-66.88 0-134.080 0-200.96 0zM504.64 578.24c-64.32-110.4-128-219.84-192-329.6h385.6c-64.64 110.080-128.64 219.2-193.92 329.6zM483.2 438.080c0 14.4 0 28.8 0 43.2 0 15.040 8.32 24.64 21.76 25.28 12.8 0.64 23.040-9.6 23.36-24.64 0.32-29.12 0.32-57.92 0-87.040 0-15.36-9.92-25.28-23.040-24.64-13.44 0.32-21.76 10.24-21.76 25.92 0 14.080 0 28.16 0 42.24zM505.92 337.6c16.32 0 28.8-12.8 28.8-29.44 0-16.32-13.12-29.44-29.12-29.44-16.32 0-29.12 12.8-29.12 29.44 0 17.28 12.16 29.76 29.44 29.76z" />
<glyph unicode="&#xe932;" glyph-name="delete-connect" d="M576.32 960c16.32-4.16 33.28-6.4 48.96-12.16 71.040-25.92 116.48-76.16 136.32-149.12 1.92-7.36 5.12-9.28 12.16-9.28 40 0 80 0.32 120 0 32 0 52.8-28.16 42.56-56.96-6.080-16.96-21.44-28.16-39.68-28.48-13.76 0-27.84 0-42.88 0v-13.44c0-178.88 0.64-358.080-0.32-536.96-0.64-93.44-45.12-160.96-130.24-200.32-26.88-12.48-56-17.28-85.44-16.96-83.2 0-166.72 0-249.92 0-122.56 0-216.64 93.76-216.96 216.32 0 171.84 0 344 0 515.84 0 11.2 0 22.72 0 35.52-14.4 0-28.16 0-41.92 0-26.88 0.32-45.44 21.44-42.56 48 2.24 21.44 20.48 37.12 44.48 37.44 39.68 0 79.36 0 119.040 0 8 0 11.2 1.6 13.44 10.24 21.44 85.12 92.48 147.2 179.52 158.4 1.92 0 3.52 1.28 5.44 1.92 42.56 0 85.44 0 128 0zM256.32 703.68v-10.56c0-180.48 0-360.64 0-541.12 0-74.56 55.36-130.56 129.92-130.56 83.84-0.32 168 0 251.84 0 74.88 0 130.24 56 130.24 131.52 0 179.84 0 360 0 539.84 0 3.52 0 7.040 0 10.88h-512zM673.92 789.76s0.32 2.24 0 2.88c0 0.96-0.64 1.92-0.96 2.88-21.44 47.040-57.6 74.56-109.12 78.080-32.96 2.24-65.92 1.6-98.88 0-51.52-2.24-88.32-27.84-111.36-73.6-1.6-3.2-2.56-6.4-4.16-10.56h324.48zM606.080 236.48c-19.2 0-37.44 3.84-55.040 10.88-12.48 4.8-17.28 14.72-12.8 25.6 4.16 10.56 12.8 13.44 25.6 8.64 77.44-28.8 159.36 27.52 160.32 110.080 0.96 68.16-59.2 124.48-126.4 118.72-73.28-6.4-120.96-70.4-106.88-143.68 2.56-13.12-2.56-22.080-13.44-24.32-10.56-2.24-19.2 4.48-22.080 17.28-18.24 79.68 33.28 163.2 112.96 183.040 87.68 21.76 173.12-32.64 190.72-121.6 16.64-83.2-44.48-169.28-128.64-181.44-8-0.96-15.68-1.6-23.68-2.56zM417.92 541.12c18.88-0.64 36.8-3.84 54.4-10.88 12.16-4.8 16.64-14.080 12.48-24.96-3.84-10.24-13.12-14.080-25.28-9.28-70.080 27.2-144-17.92-158.72-88.32-13.12-62.080 30.72-127.36 94.4-138.56 76.8-13.44 144.64 45.76 140.8 122.88-0.32 7.040-2.24 14.080-2.88 21.12-1.92 15.68 9.6 26.56 23.36 22.080 7.040-2.24 10.56-7.68 12.16-14.4 20.16-89.28-39.040-172.16-122.24-187.84-84.8-16.32-166.080 40.64-181.44 123.84-16 87.36 45.12 169.6 129.28 181.12 8 0.96 16 1.6 23.68 2.24z" />
<glyph unicode="&#xe933;" glyph-name="delete-queue" d="M576 960c16.32-4.16 33.28-6.4 48.96-12.16 71.040-25.92 116.48-76.16 136.32-149.12 1.92-7.36 5.12-9.28 12.16-9.28 40 0 80 0.32 120 0 32 0 52.8-28.16 42.56-56.96-6.080-16.96-21.44-28.16-39.68-28.48-13.76 0-27.84 0-42.88 0v-13.44c0-178.88 0.64-358.080-0.32-536.96-0.64-93.44-45.12-160.96-130.24-200.32-26.88-12.48-56-17.28-85.44-16.96-83.2 0-166.72 0-249.92 0-122.56 0-216.64 93.76-216.96 216.32 0 171.84 0 344 0 515.84 0 11.2 0 22.72 0 35.52-14.4 0-28.16 0-41.92 0-26.88 0.32-45.44 21.44-42.56 48 2.24 21.44 20.48 37.12 44.48 37.44 39.68 0 79.36 0 119.040 0 8 0 11.2 1.6 13.44 10.24 21.44 85.12 92.16 147.2 179.2 158.4 1.92 0 3.52 1.28 5.44 1.92 42.56 0 85.44 0 128 0zM256 703.68v-10.56c0-180.48 0-360.64 0-541.12 0-74.56 55.36-130.56 129.92-130.56 83.84-0.32 168 0 251.84 0 74.88 0 130.24 56 130.24 131.52 0 179.84 0 360 0 539.84 0 3.52 0 7.040 0 10.88h-512zM673.6 789.76s0.32 2.24 0 2.88c0 0.96-0.64 1.92-0.96 2.88-21.44 47.040-57.6 74.56-109.12 78.080-32.96 2.24-65.92 1.6-98.88 0-51.52-2.24-88.32-27.84-111.36-73.6-1.6-3.2-2.56-6.4-4.16-10.56h324.48zM391.68 373.44c0 65.6 53.44 118.72 119.040 118.72s118.72-53.44 118.72-119.040c0-65.6-53.44-118.72-119.040-118.72s-118.72 53.44-118.72 119.040zM490.88 400.96c0-10.24 0-20.48 0-31.040 0-7.040 2.56-12.8 8-17.28 12.48-10.88 25.28-22.080 37.76-32.96 9.28-8 21.12-7.68 28.8 0.96 7.36 8.32 6.4 20.48-2.56 28.48-9.6 8.64-19.2 16.96-28.16 25.92-1.92 1.92-3.52 5.44-3.52 8.32-0.32 16 0 32.32 0 48.32 0 12.16-8.64 20.8-19.84 20.8s-19.84-8.64-19.84-20.8c0-10.24 0-20.48 0-31.040zM395.84 199.68c22.4-14.72 44.8-24.32 68.8-29.44 106.24-22.72 208.64 35.2 243.52 137.92 13.76 40.32 14.080 80.96 2.56 121.92-2.88 9.92-1.28 16.32 5.44 20.16 8.64 5.44 19.2 1.28 22.4-8.64 8-26.56 11.52-53.76 9.6-81.28-3.2-51.52-20.8-97.92-53.76-137.6-42.24-50.88-96.64-80-162.88-86.080-55.36-5.12-106.24 8.64-152.64 39.040-0.96 0.64-1.6 0.96-2.24 1.28-12.48-12.16-24.64-24-36.8-36.16-5.76-5.44-11.2-7.040-17.28-4.16-5.44 2.56-8.64 6.72-8.96 13.12-0.32 29.76-0.96 59.52-0.96 89.28 0 8.96 6.080 15.36 15.040 15.36 29.44 0 58.88 0 88.64 0 6.4 0 11.2-2.88 13.76-8.64 2.88-6.080 1.6-11.84-2.88-16.64-9.92-9.6-19.84-19.2-30.72-29.44zM624.32 547.2c-17.6 11.52-35.2 19.84-54.080 25.28-109.12 32-221.44-26.56-257.6-134.4-13.44-40-13.76-80.64-2.56-121.28 0.96-3.2 1.92-6.4 1.6-9.6-0.64-7.36-6.4-12.48-13.44-13.12-7.36-0.64-13.76 3.52-15.68 11.2-3.2 13.76-7.040 27.84-8.32 41.6-6.080 56.64 6.080 109.44 37.76 156.8 40.96 61.12 98.56 96.96 171.84 105.92 56.64 6.72 108.8-6.4 156.8-37.44 1.6-0.96 3.2-1.92 5.76-3.52 5.76 6.080 11.52 12.16 17.28 18.24 6.72 6.72 13.44 13.44 20.16 20.16 4.48 4.48 9.92 5.44 16 2.88 5.44-2.56 8.96-6.72 8.96-13.12 0-30.080 0-60.16 0-90.56 0-8-6.4-14.080-14.4-14.080-30.080 0-59.84 0-89.92 0-6.4 0-10.88 3.2-13.44 9.28s-1.28 11.52 3.2 16c9.92 9.92 19.84 19.52 30.4 29.76z" />
<glyph unicode="&#xe934;" glyph-name="dialog" d="M850.88 959.36c16-4.8 32.96-8.32 48.32-14.72 76.48-33.28 114.88-93.76 116.16-175.68 1.92-133.44 0.96-267.2 0.32-400.64-0.32-107.2-80.96-188.16-188.48-188.8-96.64-0.64-193.28 0.64-289.92-0.96-14.4 0-31.040-7.040-42.24-16.32-84.16-70.72-166.4-143.36-250.88-213.76-11.2-9.28-31.36-15.36-44.48-12.16-21.76 5.76-20.8 27.2-18.88 47.36 5.44 64 9.28 127.68 14.080 193.6-61.12 3.84-112.96 25.28-146.88 75.2-17.6 25.92-26.56 57.6-39.36 86.4 0 153.6 0 307.2 0 460.8 9.28 23.36 16.64 47.68 28.48 69.44 28.48 51.84 77.12 75.2 130.88 90.24 227.52 0 455.040 0 682.88 0zM251.84 40.32c75.52 64.64 143.68 124.48 213.44 182.4 13.12 10.88 32.96 19.2 49.92 19.52 102.4 1.92 204.8 0 307.2 0.96 76.16 0.64 125.76 51.2 126.080 127.040 0.32 133.76 0.64 267.52 0 400.96-0.32 70.72-49.28 120-119.68 120.32-211.52 0.64-422.72 0.64-634.24 0-67.52 0-117.44-48.96-118.080-115.84-0.96-138.56-0.96-276.8 0-415.36 0.32-56.96 37.44-100.8 93.12-112.96 15.68-3.52 32-4.16 48-4.48 38.080-0.96 48-12.48 44.8-50.56-4.16-48-6.72-96.32-10.56-152.32zM608.96 528.32c0-34.24-29.44-62.72-63.36-62.72-34.24 0-63.68 28.8-64 62.72-0.32 35.84 28.48 63.68 65.28 63.36 35.84-0.32 62.72-27.52 62.4-63.040zM273.92 528c0 36.48 25.28 63.040 61.12 63.36 36.48 0.32 65.6-27.84 65.28-63.36-0.32-33.92-29.44-62.4-63.68-62.72-34.88 0-62.4 27.52-62.72 62.4zM816.64 528.96c0-35.2-26.88-63.040-61.76-63.36-35.52-0.32-64.96 29.12-64.32 64.64 0.64 34.56 28.8 61.44 64 61.44 35.84 0 62.080-26.24 62.080-62.4z" />
<glyph unicode="&#xe935;" glyph-name="division" d="M403.2 499.52c-28.48 0-57.28 0-85.76 0-24.96 0-35.84 10.88-35.84 35.84 0 13.76 0 27.52 0 41.6 2.88 0.32 4.8 0.96 7.040 0.96 16 0 31.68 0 48.64 0v-22.4c11.84 0 22.72 0 33.6 0s21.44 0 32.96 0v66.56h-347.52v-348.16h180.48v-55.36c-3.2 0-6.4-0.32-9.28-0.32-64.32 0-128.96 0-193.28 0-23.040 0-34.24 11.2-34.24 34.56 0 130.24 0 260.8 0 391.040 0 23.36 11.2 34.56 34.24 34.56 130.24 0 260.8 0 391.040 0 23.68 0 34.88-11.52 34.88-34.88 0-28.8 0-57.6 0-87.040h103.36c0 9.6 0 18.56 0 27.84 0 20.48 0 40.96 0 61.76 0 20.48 12.16 32.32 32.64 32.64 14.72 0 29.44 0 44.8 0v-55.36h-21.12v-67.2c20.8 0 41.28 0 61.76 0 1.6 0 3.84 3.2 4.16 5.44 0.64 3.52 0 7.36 0 10.88 0 106.56 0 212.8 0 319.36 0 3.84 0 7.68 0 12.16h-348.48v-180.48h-55.36c0 3.2-0.64 5.76-0.64 8.64 0 64.32 0 128.96 0 193.28 0 24.32 11.2 35.2 35.52 35.2 129.6 0 259.52 0 389.12 0 24.32 0 35.52-10.88 35.52-35.2 0-129.92 0-260.16 0-390.080 0-23.68-11.52-34.88-34.88-34.88-28.8 0-57.6 0-88 0 0-16.64 0-32.32 0-48.32s0.32-32 0-47.68c0-5.44 1.28-7.68 7.36-7.36 26.56 0.32 53.44 0 80 0 24 0 35.52-11.2 35.52-35.2 0-13.76 0-27.52 0-42.24h-55.040c0 1.6-0.64 3.2-0.64 4.8q-0.64 16.96-17.92 16.96c-13.44 0-26.88 0-40.64 0-6.080 0-8.64-1.6-8.64-8 0.32-18.24 0-36.8 0-55.36 0-0.96 0.64-1.6 0.96-3.2h346.88v347.84h-180.48v55.68c2.88 0 5.44 0.64 8 0.64 64.96 0 129.92 0 195.2 0 21.76 0 33.6-11.52 33.6-33.28 0-131.2 0-262.72 0-393.92 0-21.12-11.84-32.96-33.28-32.96-131.2 0-262.72 0-393.92 0-21.44 0-33.28 12.16-33.28 33.6 0 29.12 0 58.24 0 88h-103.36c0-3.84 0-7.36 0-10.88 0-25.92 0-52.16 0-78.080 0-20.48-12.16-32.64-32.64-32.64-13.76 0-27.52 0-41.28 0-0.96 0-1.92 0-3.52 0.64v55.040h20.8v66.24h-65.6v-347.2h347.52v180.16h55.68c0-2.88 0.32-5.76 0.32-8.64 0-64.64 0-129.28 0-194.24 0-22.4-11.52-33.92-33.92-33.92-130.56 0-261.44 0-392 0-22.72 0-34.24 11.2-34.24 33.6 0 131.2 0 262.72 0 393.92 0 20.48 12.16 32.64 32.64 32.64 27.2 0 54.4 0 81.92 0 4.8 0 8.32 0 8.32 6.4 0 30.72 0 61.44 0 91.84 0 1.6-0.64 2.88-0.96 5.12zM563.2 498.56h-102.72v-101.76h102.72v101.76z" />
<glyph unicode="&#xe936;" glyph-name="doc" d="M712.64-63.68h-391.36c-2.24 3.84-6.4 2.56-9.6 3.2-104.32 20.16-176 106.24-176 212.48 0 168.96 0 337.92 0 506.88 0 67.84 26.56 123.84 79.040 167.36 4.48 3.84 6.4 7.36 6.4 13.44-0.32 25.92-0.32 51.84 0 78.080 0 19.2 10.56 33.6 28.48 40.32 1.28 0.64 3.52 0 3.84 2.24h17.92c28.48-12.16 34.56-21.44 34.56-53.76 0-9.92 0-19.84 0-30.080 0-4.16 0.64-5.76 5.76-4.8 23.68 4.48 47.68 3.2 71.68 2.88 6.4 0 8.96 1.6 8.32 8.32s0.32 13.44 0 19.84c-2.56 26.88 6.080 46.72 32 57.28h17.92c28.48-11.2 35.52-21.76 35.52-53.76 0-8.32 0-16.64 0-24.96 0-5.12 1.6-6.72 6.72-6.72 24 0 47.68 0 71.68 0 5.44 0 6.72 1.92 6.72 7.040 0 11.52-0.32 23.36 0 34.88 0.64 18.88 9.28 32.96 26.88 40.64 1.6 0.64 4.16 0.64 4.8 3.2h19.84c25.6-8.64 36.16-26.88 33.92-53.44-0.64-8 0.32-16 0-24-0.64-6.72 1.92-8.32 8.32-8.32 24 0 48 1.6 71.68-2.88 6.4-1.28 5.44 2.24 5.44 6.080 0 14.080 0 27.84 0 41.92 0.64 17.6 9.92 29.76 25.6 37.44 2.24 0.96 5.44 0 6.72 3.2h17.92c28.48-12.16 34.56-21.44 34.56-53.76 0-22.080 0-43.84 0-65.92 0-6.72 2.24-10.88 7.36-15.040 50.56-42.24 77.76-96.64 78.080-162.88 0.64-171.84 0.64-343.68 0-515.84 0-95.040-64.96-177.92-156.48-203.2-10.88-2.88-22.080-5.12-32.96-8zM221.12 405.12c0-83.2 0-166.72 0-249.92 0-8.64 0-17.28 1.6-25.92 11.52-64.64 62.4-107.52 128-107.52 112.32 0 224.96 0 337.28 0 7.36 0 14.72 0 21.76 1.6 64.32 11.84 107.2 62.72 107.2 128.32 0 169.28 0 338.56 0 507.84 0 7.36 0 14.72-1.28 21.76-11.52 64.64-63.040 108.16-128.64 108.16-112 0-224 0-336.32 0-8.64 0-17.28-0.64-25.92-2.24-61.76-12.48-103.36-63.040-103.68-126.080-0.32-85.44 0-170.56 0-256zM517.76 576.32c-56.32 0-112.32 0-168.64 0-19.2 0-34.24 10.88-40.64 28.16-6.080 16.96-1.28 35.52 12.48 47.040 8.32 7.36 18.56 10.24 29.44 10.24 112.32 0 224.64 0 336.96 0 25.6 0 44.48-18.88 44.48-42.88 0-24.32-19.2-42.56-45.76-42.56-56.32 0-112.32 0-168.64 0zM519.040 490.88c56.64 0 112.96 0 169.6 0 17.6 0 30.72-8 38.72-23.68 7.68-15.36 6.080-30.4-3.84-44.16-8-11.2-19.52-16.96-33.28-16.96-17.6 0-35.2 0-52.8 0-95.040 0-190.4 0-285.44 0-24 0-40.64 13.12-44.8 34.24-4.8 25.6 13.12 49.6 39.36 50.24 25.6 0.64 51.2 0 76.8 0 32 0 64 0 95.68 0zM433.92 320.32c27.52 0 55.040 0 82.88 0 25.92 0 44.48-17.92 44.8-42.24 0-24.64-17.92-43.2-43.84-43.2-56-0.32-111.68-0.32-167.68 0-25.28 0-44.48 19.52-44.16 43.2 0.32 24.32 19.52 41.92 45.12 42.24 27.52 0 55.040 0 82.88 0z" />
<glyph unicode="&#xe937;" glyph-name="doc-check" d="M863.040 192c0-136.32-110.4-246.72-246.72-246.72s-246.72 110.4-246.72 246.72 110.4 246.72 246.72 246.72 246.72-110.4 246.72-246.72zM793.92 294.080c-0.64 1.92-1.28 3.84-2.24 5.76-8.32 21.12-34.24 25.92-50.88 9.28-55.36-55.36-110.72-111.040-166.080-166.4-1.28-1.28-2.24-2.88-3.84-5.44-2.24 2.56-3.2 4.16-4.48 5.44-24.96 24.96-49.92 50.24-74.88 75.2-12.8 12.8-31.68 12.8-43.84 0.64-11.84-12.16-11.84-31.040 0.64-43.52 33.28-33.6 66.88-67.2 100.8-100.8 3.52-3.52 8.32-6.4 13.12-8 12.48-3.84 23.040 0 32.32 9.6 61.44 61.76 123.2 123.52 184.96 185.28 6.4 6.4 12.48 13.12 14.72 22.4v10.56zM703.36-66.24h-391.040c-2.24 3.84-6.4 2.56-9.6 3.2-104.32 20.16-176 106.24-176 212.48 0 168.96 0 337.92 0 506.88 0 67.84 26.56 123.84 79.040 167.36 4.48 3.84 6.4 7.36 6.4 13.44-0.32 25.92-0.32 51.84 0 78.080 0 19.2 10.56 33.6 28.48 40.32 1.28 0.64 3.52 0 3.84 2.24h17.92c28.48-12.16 34.56-21.44 34.56-53.76 0-9.92 0-19.84 0-30.080 0-4.16 0.64-5.76 5.76-4.8 23.68 4.48 47.68 3.2 71.68 2.88 6.4 0 8.96 1.6 8.32 8.32s0.32 13.44 0 19.84c-2.56 26.88 6.080 46.72 32 57.28h17.92c28.48-11.2 35.52-21.76 35.52-53.76 0-8.32 0-16.64 0-24.96 0-5.12 1.6-6.72 6.72-6.72 24 0 47.68 0 71.68 0 5.44 0 6.72 1.92 6.72 7.040 0 11.52-0.32 23.36 0 34.88 0.64 18.88 9.28 32.96 26.88 40.64 1.6 0.64 4.16 0.64 4.8 3.2h19.84c25.6-8.64 36.16-26.88 33.92-53.44-0.64-8 0.32-16 0-24-0.64-6.72 1.92-8.32 8.32-8.32 24 0 48 1.6 71.68-2.88 6.4-1.28 5.44 2.24 5.44 6.080 0 14.080 0 27.84 0 41.92 0.64 17.6 9.92 29.76 25.6 37.44 2.24 0.96 5.44 0 6.72 3.2h17.92c28.48-12.16 34.56-21.44 34.56-53.76 0-22.080 0-43.84 0-65.92 0-6.72 2.24-10.88 7.36-15.040 50.56-42.24 77.76-96.64 78.080-162.88 0.64-171.84 0.64-343.68 0-515.84 0-95.040-64.96-177.92-156.48-203.2-10.88-2.88-22.080-5.12-32.96-8zM211.84 402.56c0-83.2 0-166.72 0-249.92 0-8.64 0-17.28 1.6-25.92 11.52-64.64 62.4-107.52 128-107.52 112.32 0 224.96 0 337.28 0 7.36 0 14.72 0 21.76 1.6 64.32 11.84 107.2 62.72 107.2 128.32 0 169.28 0 338.56 0 507.84 0 7.36 0 14.72-1.28 21.76-11.52 64.64-63.040 108.16-128.64 108.16-112 0-224 0-336.32 0-8.64 0-17.28-0.64-25.92-2.24-61.76-12.48-103.36-63.040-103.68-126.080-0.32-85.44 0-170.56 0-256z" />
<glyph unicode="&#xe938;" glyph-name="doc-excel" d="M120.96 448.64c0 135.68 0 271.36 0 407.36 0.32 64.96 38.72 104 103.68 104 131.52 0 263.36-0.32 394.88 0 30.080 0 55.040-9.92 76.16-31.36 54.080-54.72 108.8-109.12 163.52-163.52 20.16-19.84 29.44-43.84 29.44-72 0-219.2 0-438.72 0-657.92 0-58.88-40.96-99.2-99.84-99.2-189.76 0-379.2 0-568.96 0-57.92 0-98.56 40.32-98.56 98.24 0 138.24 0 276.16 0 414.4zM217.6 864v-831.36h574.72v575.68c-67.52 0-134.080 0-200.32 0-36.16 0-54.4 18.24-54.4 54.72 0 60.48 0 120.96 0 181.44 0 6.4 0 12.48 0 19.52h-320zM633.28 705.28h142.72c-46.72 46.72-95.36 95.36-142.72 142.72v-142.72zM504.96 387.52c18.24 35.52 36.48 70.080 54.080 104.96 7.040 13.76 16.32 20.48 32.32 19.2 15.36-0.96 30.72 0 46.080 0 23.040-0.64 32.96-17.28 21.44-37.12-26.24-45.76-52.48-91.52-80-136.32-8.64-14.080-8.32-24 0-37.76 26.88-43.2 52.16-87.36 78.080-131.2 14.72-24.96 5.44-40.64-24-40.96-14.080 0-28.48 0.64-42.56 0-15.36-0.96-24.32 5.44-30.72 18.56-14.4 29.76-29.44 59.52-44.16 88.96-2.88 5.76-6.080 10.88-10.56 19.2-15.040-29.76-28.16-56.96-42.24-83.84-26.88-51.2-16.96-42.24-69.44-42.56-15.68 0-34.56-6.72-44.8 12.16-9.92 18.24 5.76 30.080 13.12 43.2 23.36 41.28 47.68 81.92 72.32 122.56 6.080 9.92 6.4 16.96 0 27.2-27.84 45.44-54.4 91.52-81.6 137.6-14.4 24.32-5.12 40.64 22.72 40.64 14.72 0 29.76-0.64 44.48 0 16.64 0.96 26.24-6.4 33.28-20.8 16.32-34.24 33.28-68.16 49.92-102.080 0-0.32 0.96-0.64 2.56-1.28z" />
<glyph unicode="&#xe939;" glyph-name="down" d="M457.6 157.44v20.16c0 233.6 0 467.2 0 700.8 0 44.48 23.68 73.28 64.32 79.36 38.4 5.44 76.48-23.68 80.64-62.080 0.96-8 0.64-16 0.64-24 0-231.36 0-462.72 0-694.080v-19.84c7.68 1.28 10.88 6.72 15.040 10.88 73.6 73.6 147.2 147.2 220.48 220.8 16.64 16.64 35.2 27.2 59.2 26.24 30.72-1.28 53.12-16.32 65.28-44.8s6.72-55.040-13.76-77.76c-15.040-16.32-31.36-31.68-47.040-47.36-87.36-87.040-175.040-174.4-262.4-261.44-67.2-66.88-152.32-66.56-219.84 0.32-100.8 100.48-201.6 200.96-302.72 301.12-20.16 19.84-30.72 42.56-24.96 70.72 5.76 27.84 22.72 47.36 50.24 55.68 26.56 8 50.88 2.56 71.68-16.32 3.84-3.52 7.36-7.040 10.88-10.88 72.32-72.32 144.96-144.64 217.28-216.96 3.84-3.84 6.72-8.96 15.040-11.52z" />
<glyph unicode="&#xe93a;" glyph-name="download" d="M1024 608.32c-0.64-1.92-1.6-3.52-1.92-5.44-8.64-31.040-38.080-51.52-68.48-47.36-33.6 4.48-56.96 30.080-57.28 63.68 0 62.72 0 125.12 0 187.84 0 20.16-5.12 25.28-25.28 25.28-238.72 0-477.76 0-716.48 0-20.8 0-25.6-4.8-25.6-25.92 0-62.4 0-124.48 0-186.88 0-32.96-22.72-58.56-55.040-63.68-37.12-5.76-72.64 22.080-72.96 59.52-0.96 69.12-1.6 138.56 0 207.68 1.6 66.24 54.4 123.52 120 134.72 3.2 0.64 6.4 1.28 9.6 2.24 254.4 0 509.12 0 763.52 0 2.56-0.64 5.12-1.28 7.68-1.92 60.48-11.84 99.2-47.36 117.44-105.92 1.92-6.72 3.2-13.44 5.12-20.16 0-74.56 0-149.12 0-224zM577.6 104c4.48 4.16 7.36 6.72 9.6 9.28 45.12 45.12 89.92 89.92 135.040 135.040 18.24 18.24 40.64 24 65.28 16.32 24.32-7.68 39.040-24.96 43.52-49.92 3.84-20.16-1.28-39.040-15.68-53.44-58.24-58.88-115.84-118.72-176.32-175.36-71.040-66.56-185.6-64.96-256.32 2.56-58.24 55.68-114.56 113.28-171.2 170.88-24.32 24.64-22.72 64.96 1.92 89.28s64.32 24.64 89.28 0c46.080-45.44 91.52-91.2 137.28-136.96 2.56-2.56 4.48-5.76 6.72-8.64 0.96 0.64 2.24 0.96 3.2 1.6 0 4.16 0 8.32 0 12.48-0.32 187.84-0.64 375.68-0.96 563.52 0 31.36 17.6 56.32 45.44 64.64 40.96 12.16 81.92-17.6 82.56-60.8 0.64-57.92 0-115.84 0.32-173.76 0.32-131.52 0.64-263.040 0.96-394.56 0-2.56 0-5.12 0-10.56z" />
<glyph unicode="&#xe93b;" glyph-name="edit" d="M0-62.72c1.6 41.28 1.28 80.96 5.44 120.32 3.84 34.88 22.080 64 46.72 88.96 188.16 188.16 376.32 376.32 564.8 564.48 1.6 1.6 3.52 3.2 4.48 4.16 52.8-52.8 104.96-104.96 158.080-158.080-1.28-1.6-3.52-3.84-5.76-6.080-186.56-186.56-373.12-373.12-559.68-559.68-36.16-36.16-79.040-54.4-130.24-53.76-27.2 0-54.080-0.32-83.84-0.32zM842.24 619.52c-52.8 52.8-104.96 104.96-158.080 158.080 0.64 0.64 1.92 2.56 3.52 4.16 47.68 47.68 95.040 95.68 143.040 143.040 55.040 54.4 141.12 43.52 178.88-22.080 23.36-40.64 18.56-92.8-12.48-128-11.84-13.44-24.96-25.92-37.76-38.72-36.8-36.8-73.6-73.6-110.4-110.4-2.24-2.24-4.8-4.48-6.72-6.080z" />
<glyph unicode="&#xe93c;" glyph-name="edit-doc" d="M710.72-22.080h-488c-122.88 0-222.72 99.84-222.72 222.72v488c0 122.56 99.84 222.4 222.72 222.4h488.32v-90.56h-488.32c-72.64 0-131.84-59.2-131.84-131.84v-488.32c0-72.64 59.2-132.16 131.84-132.16h488.32c72.64 0 131.84 59.2 131.84 132.16v318.4h90.56v-318.4c0-122.88-99.84-222.72-222.72-222.72zM290.88 270.080c3.84 26.88 6.080 53.12 11.52 78.72 4.8 22.72 18.56 40.64 36.48 55.36 136 111.68 272 223.36 408 334.72 1.28 0.96 2.56 1.92 3.2 2.24 31.36-38.080 62.4-75.84 93.76-114.24-0.96-0.96-2.56-2.24-4.16-3.84-134.72-110.72-269.76-221.12-404.48-331.84-26.24-21.44-55.68-30.72-89.28-26.88-17.6 1.92-35.52 3.52-55.040 5.44zM889.28 664.32c-31.36 38.080-62.4 75.84-93.76 114.24 0.32 0.32 1.28 1.6 2.56 2.56 34.56 28.16 68.8 56.64 103.36 84.8 39.68 32.32 95.68 19.52 116.16-25.92 12.8-28.16 6.080-62.080-16.32-83.52-8.64-8-18.24-15.36-27.2-23.040-26.56-21.76-53.12-43.52-80-65.6-1.6-1.28-3.52-2.56-4.8-3.52z" />
<glyph unicode="&#xe93d;" glyph-name="edit-new" d="M608 960c2.56-1.28 5.44-2.56 8-3.52 16.96-7.68 27.52-25.6 25.6-43.52-2.24-19.2-16-33.92-34.88-37.44-5.12-0.96-10.56-0.96-16-0.96-124.8 0-249.28 0-374.080 0-65.92 0-116.8-42.56-128.32-107.2-1.28-7.36-1.6-15.36-1.6-22.72 0-197.44 0-395.2 0-592.64 0-65.92 42.88-116.8 107.2-128.64 7.040-1.28 14.4-1.6 21.76-1.6 138.56 0 277.44 0 416 0 2.24 0 4.48 0 8.32 0.32 0 3.52 0 7.040 0 10.56 0 52.16 0 104.64 0 156.8 0 74.24 56 130.24 129.92 130.56 51.84 0 103.68 0 155.52 0 3.52 0 7.36 0 12.16 0 0 4.48 0 8.32 0 12.16 0 66.24 0 132.48 0 199.040 0 29.12 20.8 48.64 48.64 45.12 15.36-1.92 26.24-10.56 32.96-24.32 1.28-2.56 2.56-5.12 3.84-7.68v-302.080c-0.64-1.92-1.6-3.84-1.6-5.76-6.080-49.92-27.84-91.84-63.36-127.040-36.8-36.8-73.28-73.6-110.080-110.4-22.4-22.4-48.32-40-78.4-49.92-16.96-5.76-34.56-8.64-51.84-12.8h-522.88c-2.56 0.64-5.12 1.6-7.68 1.92-103.040 11.84-185.28 101.76-185.92 205.76-0.64 202.24-0.64 404.8 0 607.040 0.32 88.96 59.84 169.6 144.32 197.12 15.36 5.12 31.36 8 47.040 11.84 138.24 0 276.8 0 415.040 0zM725.12 25.92c17.28 1.28 41.28 12.48 57.28 28.48 40.96 40.32 81.6 80.96 121.92 122.24 15.36 15.68 24.96 34.88 29.76 57.28-3.52 0-6.72 0.64-9.6 0.64-51.2 0-102.4 0-153.6 0-28.8 0-45.76-16.96-45.76-45.76 0-37.76 0-75.2 0-112.96 0-16.32 0-32.64 0-49.6zM1023.040 817.92c-1.6-8-2.88-16.32-4.8-24.32-6.4-25.92-20.16-47.36-39.040-66.24-159.68-160-319.36-320-479.040-480-12.8-12.8-25.28-25.6-38.080-38.080-40.32-38.4-88-58.88-143.68-59.84-19.84-0.32-40-0.32-59.84 0-26.56 0-44.16 17.28-43.84 43.84 0.32 31.68-0.64 63.68 3.52 94.72 6.4 46.080 29.76 83.84 62.72 116.8 122.88 122.88 245.44 245.76 368.32 368.96 48 48 95.68 96.32 144 144 50.88 50.56 129.28 54.4 184 8.64 25.6-21.44 39.68-49.6 44.48-82.56 0.32-3.2 1.28-6.4 1.92-9.6v-16zM299.52 234.88c43.2-2.24 78.72 11.2 108.48 40.96 169.92 170.88 340.48 341.12 510.72 511.68 2.88 2.88 5.76 5.76 8.32 8.64 22.4 27.84 7.68 68.8-26.88 76.16-19.52 4.16-34.88-3.2-48.32-16.64-170.56-171.2-341.44-342.080-512-513.28-3.2-3.2-6.72-6.72-9.6-10.24-23.36-27.84-32.32-60.16-30.4-97.28z" />
</font>
</defs>
</svg>
