<?xml version="1.0" encoding="UTF-8"?>
<svg id="Layer_1" data-name="Layer 1" xmlns="http://www.w3.org/2000/svg" viewBox="0 0 32 32">
  <defs>
    <style>
      .cls-1 {
        fill: #231f20;
      }
    </style>
  </defs>
  <path class="cls-1" d="m16,32.11C7.18,32.11,0,24.93,0,16.11S7.18.11,16,.11s16,7.18,16,16-7.18,16-16,16Zm0-28.9c-7.11,0-12.9,5.79-12.9,12.9s5.79,12.9,12.9,12.9,12.9-5.79,12.9-12.9S23.11,3.21,16,3.21Z"/>
  <path class="cls-1" d="m6.76,17.62c-.85,0-1.55-.69-1.55-1.55s.69-1.55,1.55-1.55h18.94c.85,0,1.55.69,1.55,1.55s-.69,1.55-1.55,1.55H6.76Z"/>
  <path class="cls-1" d="m15.91,27.08h-.01c-.85,0-1.54-.71-1.54-1.56l.15-18.94c0-.85.7-1.54,1.55-1.54h.01c.85,0,1.54.71,1.54,1.56l-.15,18.94c0,.85-.7,1.54-1.55,1.54Z"/>
</svg>