<?xml version="1.0" encoding="UTF-8"?>
<svg id="Layer_1" data-name="Layer 1" xmlns="http://www.w3.org/2000/svg" viewBox="0 0 32 32">
  <path d="M15.92,32c-2.5-.02-4.95-.24-7.36-.99-5.9-1.83-7.45-5-4.55-10.59,2.17-4.19,3.98-8.26,4.06-13.16C8.13,3.17,11.86,.18,15.86,0c4.16-.18,8.28,2.7,8.5,7.01,.25,5.01,1.95,9.25,4.2,13.58,2.89,5.58,1.26,8.62-4.8,10.45-2.57,.78-5.18,.96-7.83,.95Zm.38-9.68c-2.8-.04-5.57,.14-8.17,1.29-.83,.37-1.82,.71-1.91,1.79-.1,1.14,.85,1.56,1.7,1.9,5.56,2.21,11.14,2.16,16.71,.04,.87-.33,1.79-.77,1.72-1.89-.06-1.09-1.05-1.48-1.87-1.84-2.6-1.14-5.37-1.33-8.17-1.29Z"/>
  <ellipse cx="16.27" cy="26.13" rx="2.46" ry="1.63"/>
</svg>