<?xml version="1.0" encoding="UTF-8"?>
<svg id="Layer_1" data-name="Layer 1" xmlns="http://www.w3.org/2000/svg" viewBox="0 0 32 32">
  <path d="M21.53,4.59c-.04,.17-.08,.34-.13,.51-2.21,7.62-4.41,15.24-6.62,22.86-.23,.79-.37,.88-1.17,.65-.86-.25-1.72-.51-2.58-.77-.57-.17-.63-.3-.46-.91,.82-2.83,1.64-5.67,2.46-8.5,1.41-4.86,2.82-9.72,4.23-14.58,.2-.7,.34-.77,1.05-.57,.92,.27,1.84,.52,2.74,.82,.2,.06,.36,.26,.54,.39-.02,.04-.04,.07-.06,.11Z"/>
  <path d="M5.86,15.96c1.38,1.22,2.72,2.4,4.07,3.57,.91,.8,.92,.79,.08,1.67-.56,.59-1.11,1.19-1.67,1.78-.4,.43-.58,.44-1,.06-2.35-2.2-4.7-4.4-7.05-6.61-.4-.37-.4-.58,0-.96,2.35-2.21,4.7-4.41,7.05-6.61,.41-.38,.59-.37,.97,.03,.68,.72,1.36,1.44,2.03,2.17,.39,.42,.38,.61-.06,.99-1.35,1.19-2.71,2.38-4.06,3.57-.11,.1-.22,.2-.37,.33Z"/>
  <path d="M26.14,15.95c-1.03-.9-2.01-1.77-2.99-2.64-.49-.43-.98-.86-1.46-1.29-.39-.35-.41-.55-.07-.92,.69-.75,1.38-1.5,2.09-2.24,.35-.37,.56-.37,.94-.02,2.34,2.19,4.68,4.38,7.02,6.57,.44,.42,.45,.62,.02,1.02-2.35,2.21-4.7,4.41-7.05,6.61-.37,.35-.59,.34-.94-.03-.69-.73-1.37-1.47-2.05-2.2-.37-.4-.36-.59,.05-.96,1.46-1.29,2.93-2.58,4.45-3.92Z"/>
</svg>