<?xml version="1.0" encoding="UTF-8"?>
<svg id="Layer_1" data-name="Layer 1" xmlns="http://www.w3.org/2000/svg" viewBox="0 0 32 32">
  <path d="m16.04,32C7.22,32,.04,24.82.04,16S7.22,0,16.04,0s16,7.18,16,16-7.18,16-16,16Zm0-28.9c-7.11,0-12.9,5.79-12.9,12.9s5.79,12.9,12.9,12.9,12.9-5.79,12.9-12.9S23.16,3.09,16.04,3.09Z"/>
  <path d="m9.89,14.26h.41c4.77,0,9.54,0,14.31,0,.91,0,1.5.49,1.62,1.31.11.78-.48,1.56-1.27,1.65-.16.02-.33.02-.49.02-4.72,0-9.45,0-14.17,0h-.41c.03.16.14.22.22.3,1.5,1.5,3,3.01,4.51,4.5.34.34.56.72.53,1.21-.03.63-.33,1.09-.91,1.33-.58.25-1.12.14-1.59-.28-.34-.31-.65-.64-.97-.96-1.78-1.79-3.56-3.57-5.34-5.36-1.37-1.37-1.36-3.11,0-4.49,2.05-2.06,4.1-4.12,6.15-6.18.41-.41.87-.63,1.45-.51.57.12.96.46,1.13,1.02.16.54.05,1.04-.33,1.46-.07.08-.15.15-.22.22-1.48,1.48-2.95,2.96-4.43,4.44-.08.08-.19.14-.23.31Z"/>
</svg>