<?xml version="1.0" encoding="UTF-8"?>
<svg id="Layer_1" data-name="Layer 1" xmlns="http://www.w3.org/2000/svg" viewBox="0 0 32 32">
  <path d="m6.97,13.47h.63c7.3,0,14.6,0,21.9,0,1.39,0,2.29.74,2.48,2.01.17,1.2-.74,2.39-1.94,2.52-.25.03-.5.02-.75.02-7.23,0-14.46,0-21.69,0h-.62c.04.24.21.34.34.47,2.3,2.3,4.6,4.6,6.9,6.89.52.52.85,1.1.82,1.85-.04.96-.51,1.66-1.4,2.04-.89.38-1.72.21-2.43-.43-.51-.47-.99-.98-1.48-1.47-2.72-2.73-5.45-5.47-8.17-8.2-2.09-2.1-2.08-4.76.01-6.87,3.14-3.15,6.28-6.3,9.41-9.46.62-.63,1.33-.96,2.21-.78.87.18,1.48.71,1.74,1.57.25.83.08,1.59-.51,2.24-.11.12-.22.23-.34.34-2.26,2.26-4.52,4.53-6.78,6.79-.12.12-.28.21-.36.47Z"/>
</svg>