<?xml version="1.0" encoding="UTF-8"?>
<svg id="Layer_1" data-name="Layer 1" xmlns="http://www.w3.org/2000/svg" viewBox="0 0 32 32">
  <path d="m17.09,0c1.08.21,2.19.36,3.25.65,6.99,1.93,11.86,8.57,11.64,15.84-.24,7.87-6.18,14.39-14,15.39C9.26,32.98,1.32,26.82.16,18.06-1.02,9.21,5.46,1.01,14.33.13c.18-.02.35-.08.53-.13.74,0,1.48,0,2.22,0ZM6.28,10.27c-2.3,3.26-2.59,9.71,1.88,13.98,4.47,4.26,10.78,3.55,13.57,1.47-5.15-5.15-10.31-10.3-15.46-15.45Zm19.41,11.56c2.59-3.94,2.34-10.38-2.25-14.38-4.44-3.87-10.51-3.15-13.23-1.08,5.15,5.14,10.3,10.29,15.48,15.47Z"/>
</svg>