<?xml version="1.0" encoding="UTF-8"?>
<svg id="Layer_1" data-name="Layer 1" xmlns="http://www.w3.org/2000/svg" viewBox="0 0 32 32">
  <path d="M7.34,2.35l.37,.79c-1.35,1.44-2.35,2.74-2.99,3.9-.64,1.16-1.13,2.48-1.47,3.95-.34,1.47-.51,3.18-.51,5.11s.18,3.52,.53,4.98c.35,1.46,.86,2.8,1.53,4,.67,1.21,1.64,2.48,2.92,3.82l-.37,.74c-1.53-1.35-2.69-2.51-3.47-3.46-1.28-1.54-2.24-3.16-2.9-4.86C.31,19.64-.02,17.86-.02,16.01s.31-3.55,.92-5.19c.61-1.64,1.52-3.2,2.72-4.69,.83-1.03,2.07-2.29,3.72-3.79Z"/>
  <path d="M12.95,4.62V14.58c.56-.79,1.19-1.39,1.87-1.78s1.43-.59,2.24-.59c1.57,0,2.9,.61,3.99,1.84,1.09,1.23,1.63,2.85,1.63,4.86,0,2.18-.58,3.94-1.75,5.28-1.17,1.34-2.61,2.01-4.34,2.01-.82,0-1.56-.16-2.23-.49-.67-.32-1.35-.87-2.06-1.64-.54,.87-1.07,1.58-1.57,2.13l-.57-.2c.27-1.1,.4-2.24,.4-3.43V7.44c0-.47-.16-.83-.49-1.1-.33-.27-.79-.4-1.39-.4h-.6v-1.07l4.87-.24Zm3.6,8.86c-1.08,0-1.95,.47-2.63,1.41-.68,.94-1.01,2.49-1.01,4.65s.33,3.53,1,4.41c.67,.89,1.54,1.33,2.62,1.33,.97,0,1.75-.44,2.34-1.31,.74-1.1,1.11-2.68,1.11-4.72s-.33-3.48-.98-4.39-1.47-1.36-2.45-1.36Z"/>
  <path d="M24.62,2.35c1.67,1.51,2.89,2.74,3.66,3.69,1.2,1.48,2.12,3.05,2.75,4.72,.63,1.67,.95,3.42,.95,5.26s-.31,3.52-.91,5.13c-.61,1.61-1.52,3.19-2.74,4.73-.87,1.1-2.1,2.35-3.7,3.77l-.37-.74c1.27-1.33,2.24-2.61,2.91-3.82,.67-1.21,1.18-2.54,1.54-4s.53-3.12,.53-4.97-.17-3.65-.51-5.12-.84-2.79-1.48-3.96c-.64-1.17-1.64-2.47-2.98-3.89l.37-.79Z"/>
</svg>