<?xml version="1.0" encoding="UTF-8"?>
<svg id="Layer_1" data-name="Layer 1" xmlns="http://www.w3.org/2000/svg" viewBox="0 0 32 32">
  <path d="M2.28,25.19c-.67,0-2.24,0-2.24-7.15s1.57-7.15,2.24-7.15,2.24,0,2.24,7.15-1.57,7.15-2.24,7.15Z"/>
  <path d="M29.81,25.19c-.67,0-2.24,0-2.24-7.15s1.57-7.15,2.24-7.15,2.24,0,2.24,7.15-1.57,7.15-2.24,7.15Z"/>
  <polygon points="29.1 30.66 3 30.66 3 30.66 3 4.55 15.15 4.55 15.15 7.06 5.5 7.06 5.5 28.15 26.6 28.15 26.6 7.06 16.95 7.06 16.95 4.55 29.1 4.55 29.1 30.66"/>
  <path d="M18.29,7.06h-4.49l.1-1.35c.21-2.79,.65-4.65,2.15-4.65s1.94,1.86,2.14,4.66l.1,1.35Z"/>
  <circle cx="10.15" cy="15.09" r="1.97"/>
  <circle cx="21.95" cy="15.09" r="1.97"/>
  <circle cx="21.95" cy="22.96" r="1.97"/>
  <circle cx="16.05" cy="22.96" r="1.97"/>
  <circle cx="10.15" cy="22.96" r="1.97"/>
</svg>