<?xml version="1.0" encoding="UTF-8"?>
<svg id="Layer_1" data-name="Layer 1" xmlns="http://www.w3.org/2000/svg" viewBox="0 0 32 32">
  <path d="M32.01,13.33c-.11,0-.23,.01-.34,.01-10.44,0-20.88,0-31.32,0-.11,0-.23,0-.34-.01,0-2.44,0-4.87,0-7.31,.02-.05,.05-.09,.05-.14C.54,2.42,3.3,.02,6.79,.01c2.06,0,4.12,0,6.19,0,.11,0,.22,0,.36,0,0,.15,0,.26,0,.37,0,1.16,0,2.31,0,3.47,0,.2,.02,.42,.09,.61,.21,.62,.83,.97,1.49,.86,.61-.1,1.08-.65,1.08-1.31,0-1.22,0-2.44,0-3.66,0-.11,0-.22,0-.32h2.67c0,.33,0,.65,0,.96,0,1.89,0,3.77,0,5.66,0,.96,.88,1.59,1.75,1.29,.56-.19,.9-.68,.9-1.36,0-2.06,0-4.12,0-6.19,0-.12,0-.24,0-.36h2.67V.39c0,1.9,0,3.79,0,5.69,0,1.08,0,2.17,0,3.25,0,.91,.82,1.53,1.69,1.3,.61-.16,.98-.7,.98-1.43,0-2.89,0-5.77,0-8.66V.17c.08,0,.12,0,.16,.02,.06,.01,.12,.02,.18,.04,2.43,.71,4.02,2.27,4.74,4.7,.11,.38,.17,.77,.25,1.15v7.25Z"/>
  <path d="M15.51,32.01c-.53-.2-1.11-.33-1.58-.61-1.24-.74-1.89-1.89-1.91-3.34-.03-1.67,0-3.33,0-5,0-.11,0-.23,0-.38-.14,0-.27,0-.39,0-1.22-.04-2.46,.06-3.65-.13-3.74-.62-6.24-2.79-7.52-6.37-.01-.04-.01-.08-.02-.14H31.59c-.04,.13-.07,.26-.12,.38-1.34,3.79-4.83,6.25-8.89,6.27-.84,0-1.69,0-2.57,0,0,.13,0,.24,0,.35,0,1.61,0,3.23,0,4.84,0,2.12-1.31,3.7-3.39,4.09-.04,0-.07,.03-.11,.05h-1Z"/>
</svg>