<?xml version="1.0" encoding="UTF-8"?>
<svg id="Layer_1" data-name="Layer 1" xmlns="http://www.w3.org/2000/svg" viewBox="0 0 32 32">
  <path d="M24.01,32c-2.36-.14-4.64-.79-6.74-1.98-5.31-3-9.86-6.87-13.31-11.95C2.24,15.55,.82,12.86,.23,9.83-.41,6.53,.28,3.58,2.85,1.25,4.05,.17,5.45-.23,7.07,.13c.83,.18,1.4,.61,1.68,1.37,.76,2.1,1.51,4.21,2.2,6.33,.28,.85,.12,1.64-.63,2.28-.62,.53-1.18,1.14-1.75,1.74-.57,.6-.62,1.05-.26,1.78,2.21,4.5,5.74,7.68,10.06,10.07,.65,.36,1.24,.17,1.74-.31,.57-.54,1.13-1.08,1.65-1.66,.68-.74,1.48-1.01,2.44-.68,2.08,.7,4.16,1.41,6.23,2.13,.83,.29,1.24,.91,1.43,1.77,.53,2.41-.66,4.03-2.42,5.37-1.58,1.2-3.43,1.6-5.44,1.68Z"/>
  <path d="M23.76,11.5c0-.89,0-1.76,0-2.62,0-.4,.29-.7,.66-.65,.14,.02,.3,.09,.4,.19,1.5,1.42,2.99,2.84,4.48,4.27,.3,.28,.29,.64,0,.93-1.48,1.42-2.97,2.84-4.46,4.26-.2,.19-.44,.27-.7,.15-.27-.12-.38-.34-.38-.64,0-.76,0-1.52,0-2.29,0-.09,0-.18,0-.31h-.3c-1.58,0-3.15,0-4.73,0-3.14,0-5.67-2.02-6.36-5.08-.19-.85-.13-1.72-.12-2.58,0-.32,.31-.56,.63-.55,.34,.01,.59,.28,.6,.65,.01,.83,.23,1.61,.69,2.3,.86,1.28,2.06,1.96,3.6,1.98,1.92,.02,3.84,0,5.75,0,.07,0,.13,0,.23-.01Z"/>
  <path d="M20.47,6.58c0,.89,0,1.75,0,2.6,0,.17-.07,.36-.17,.49-.22,.28-.6,.27-.88,0-.46-.43-.92-.87-1.38-1.31-1-.96-2.01-1.92-3.01-2.88-.41-.4-.41-.71,0-1.11,1.4-1.34,2.8-2.67,4.2-4.01,.07-.07,.14-.13,.21-.19,.2-.18,.42-.23,.66-.12,.25,.11,.38,.31,.38,.59,0,.78,0,1.56,0,2.34,0,.09,0,.19,0,.31,.12,0,.22,0,.32,0,1.57,0,3.13,0,4.7,0,3.15,0,5.66,2.01,6.36,5.08,.19,.85,.13,1.72,.13,2.58,0,.32-.31,.57-.63,.56-.33,0-.56-.27-.6-.62-.08-.52-.12-1.06-.3-1.55-.62-1.68-2.21-2.76-4.01-2.77-1.91,0-3.82,0-5.73,0-.07,0-.13,0-.24,0Z"/>
</svg>