<?xml version="1.0" encoding="UTF-8"?>
<svg id="Layer_1" data-name="Layer 1" xmlns="http://www.w3.org/2000/svg" viewBox="0 0 32 32">
  <path d="M24.01,32c-2.36-.14-4.64-.79-6.74-1.98-5.31-3-9.86-6.87-13.31-11.95C2.24,15.55,.82,12.86,.23,9.83-.41,6.53,.28,3.58,2.85,1.25,4.05,.17,5.45-.23,7.07,.13c.83,.18,1.4,.61,1.68,1.37,.76,2.1,1.51,4.21,2.2,6.33,.28,.85,.12,1.64-.63,2.28-.62,.53-1.18,1.14-1.75,1.74-.57,.6-.62,1.05-.26,1.78,2.21,4.5,5.74,7.68,10.06,10.07,.65,.36,1.24,.17,1.74-.31,.57-.54,1.13-1.08,1.65-1.66,.68-.74,1.48-1.01,2.44-.68,2.08,.7,4.16,1.41,6.23,2.13,.83,.29,1.24,.91,1.43,1.77,.53,2.41-.66,4.03-2.42,5.37-1.58,1.2-3.43,1.6-5.44,1.68Z"/>
  <path d="M31.52,14.92c.32,.43,.47,.94,.47,1.41,0,.7-.31,1.37-.9,1.8-.43,.31-.9,.47-1.37,.47-.71,0-1.37-.31-1.84-.94l-3.24-4.34-3.36,4.5c-.47,.59-1.13,.9-1.84,.9-.47,0-.94-.16-1.37-.47-.59-.43-.9-1.09-.9-1.8,0-.47,.16-.94,.47-1.37l4.14-5.55-4.14-5.55c-.32-.39-.47-.86-.47-1.33,0-.7,.32-1.41,.9-1.84,.43-.31,.9-.47,1.37-.47,.7,0,1.41,.31,1.84,.9l3.36,4.5,3.24-4.34c.43-.59,1.13-.9,1.84-.9,.47,0,.94,.12,1.37,.43,.59,.43,.9,1.1,.9,1.8,0,.47-.16,.98-.47,1.41l-4.03,5.4,4.03,5.4Z"/>
</svg>