<?xml version="1.0" encoding="UTF-8"?>
<svg id="Layer_1" data-name="Layer 1" xmlns="http://www.w3.org/2000/svg" viewBox="0 0 32 32">
  <path d="M24.06,32c-2.36-.14-4.64-.79-6.74-1.98-5.31-3-9.86-6.87-13.31-11.95C2.29,15.55,.87,12.86,.29,9.83-.36,6.53,.33,3.58,2.9,1.25,4.1,.17,5.5-.23,7.12,.13c.83,.18,1.4,.61,1.68,1.37,.76,2.1,1.51,4.21,2.2,6.33,.28,.85,.12,1.64-.63,2.28-.62,.53-1.18,1.14-1.75,1.74-.57,.6-.62,1.05-.26,1.78,2.21,4.5,5.74,7.68,10.06,10.07,.65,.36,1.24,.17,1.74-.31,.57-.54,1.13-1.08,1.65-1.66,.68-.74,1.48-1.01,2.44-.68,2.08,.7,4.16,1.41,6.23,2.13,.83,.29,1.24,.91,1.43,1.77,.53,2.41-.66,4.03-2.42,5.37-1.58,1.2-3.43,1.6-5.44,1.68Z"/>
  <path d="M19.28,11.12c.15-.15,.26-.25,.37-.36,3.23-3.23,6.47-6.46,9.69-9.7,.4-.4,.86-.63,1.42-.5,1.04,.23,1.44,1.45,.75,2.28-.07,.09-.16,.17-.24,.25-3.57,3.57-7.14,7.14-10.71,10.71-.84,.84-1.59,.85-2.43,.01-1.76-1.76-3.52-3.51-5.27-5.27-.83-.84-.51-2.13,.6-2.4,.57-.14,1.03,.07,1.43,.47,1.25,1.28,2.51,2.55,3.76,3.83,.21,.21,.4,.43,.62,.68Z"/>
</svg>