<?xml version="1.0" encoding="UTF-8"?>
<svg id="Layer_1" data-name="Layer 1" xmlns="http://www.w3.org/2000/svg" viewBox="0 0 32 32">
  <path d="M32,16.05c.02,.72-.27,1.34-.8,1.88-3.86,3.96-7.72,7.91-11.58,11.87-.41,.42-.82,.85-1.24,1.27-1.28,1.29-3.45,1.3-4.73,0-4.11-4.2-8.23-8.41-12.31-12.64-.5-.52-.96-1.14-1.21-1.78-.36-.92,0-1.79,.71-2.53C5.11,9.76,9.37,5.4,13.63,1.04c1.3-1.33,3.48-1.33,4.77,0,4.25,4.35,8.49,8.7,12.74,13.05,.56,.57,.89,1.21,.86,1.97Zm-15.98,12.88c4.24-4.34,8.41-8.61,12.6-12.89-4.22-4.32-8.39-8.58-12.58-12.87-.13,.1-.21,.16-.27,.23C11.77,7.49,7.78,11.58,3.76,15.67c-.32,.32-.23,.51,.04,.79,2.95,3,5.88,6.02,8.83,9.02,1.11,1.14,2.23,2.27,3.39,3.46Z"/>
</svg>