<?xml version="1.0" encoding="UTF-8"?>
<svg id="Layer_1" data-name="Layer 1" xmlns="http://www.w3.org/2000/svg" viewBox="0 0 32 32">
  <path d="M10.97,22c.2,0,.4,0,.6,0,3.3,0,6.59-.05,9.89,.01,3.27,.07,5.85-2.04,6.72-4.66,.29-.88,1-1.37,1.83-1.35,.93,.03,1.72,.57,1.9,1.41,.09,.41,.07,.91-.07,1.3-1.53,4.17-4.52,6.54-8.91,7.15-.64,.09-1.29,.1-1.94,.1-3.15,.01-6.3,0-9.44,0-.2,0-.39,0-.58,0,.82,.85,1.6,1.68,2.4,2.5,.58,.59,.79,1.29,.57,2.09-.4,1.42-2.17,1.94-3.26,.89-2.07-1.99-4.08-4.03-6.09-6.08-.75-.77-.74-2.01,.02-2.77,2-2.03,4.01-4.05,6.05-6.05,.79-.77,2.06-.72,2.81,.03,.75,.75,.73,2.05-.04,2.87-.8,.85-1.61,1.68-2.44,2.56Z"/>
  <path d="M21.05,6c-.82-.87-1.63-1.71-2.42-2.56-.61-.65-.76-1.52-.41-2.31,.34-.74,1.09-1.24,1.93-1.11,.46,.07,.99,.28,1.32,.6,2.01,1.94,3.98,3.93,5.94,5.92,.82,.83,.8,2.07-.02,2.9-1.95,1.97-3.92,3.94-5.89,5.89-.85,.84-2.11,.85-2.9,.08-.79-.78-.75-2.08,.08-2.95,.79-.82,1.57-1.66,2.36-2.5-.15,0-.35,0-.54,0-3.35,0-6.7,0-10.05,0-3.05,0-5.5,1.7-6.55,4.56-.23,.63-.58,1.11-1.23,1.32-.8,.26-1.51,.05-2.09-.52C-.01,14.76-.06,14.03,.2,13.28c1.27-3.66,3.83-5.95,7.54-6.93,.92-.24,1.9-.33,2.85-.34,3.3-.04,6.59-.02,9.89-.02,.2,0,.4,0,.58,0Z"/>
</svg>