<?xml version="1.0" encoding="UTF-8"?>
<svg id="Layer_1" data-name="Layer 1" xmlns="http://www.w3.org/2000/svg" viewBox="0 0 32 32">
  <path d="M14.94-.05c.71,0,1.42,0,2.12,0,.68,.1,1.36,.18,2.03,.31,6.2,1.18,11.28,6.21,12.53,12.39,.12,.62,.21,1.24,.32,1.87v11.37c-.02,.09-.05,.18-.06,.27-.4,2.51-1.76,4.29-4.09,5.28-.6,.26-1.27,.35-1.91,.51H15.01c-.4-.05-.8-.09-1.2-.15-3.57-.52-6.64-2.03-9.18-4.59C2.11,24.69,.61,21.65,.13,18.12c-.08-.6-.12-1.2-.18-1.8,0-.25,0-.5,0-.75,.02-.12,.04-.25,.05-.37,.11-2.45,.73-4.77,1.94-6.91C4.44,3.85,8.22,1.13,13.25,.19c.56-.1,1.13-.16,1.69-.24Zm1,20c-1.75,0-3.5,0-5.25,0-.81,0-1.4,.55-1.42,1.31-.02,.76,.59,1.36,1.41,1.36,3.51,0,7.02,0,10.53,0,.29,0,.62-.12,.87-.28,.48-.31,.64-.93,.46-1.47-.18-.55-.68-.91-1.29-.91-1.77,0-3.54,0-5.31,0Zm0-5.33c-1.06,0-2.12,0-3.19,0-.74,0-1.48-.01-2.22,0-.82,.03-1.39,.77-1.23,1.58,.13,.67,.65,1.07,1.4,1.07,3.49,0,6.98,0,10.46,0,.07,0,.15,0,.22,0,.56-.04,1.05-.46,1.17-1.01,.2-.86-.41-1.63-1.32-1.64-1.77-.01-3.54,0-5.31,0Zm-2.65-2.67c.85,0,1.71,0,2.56,0,.83,0,1.42-.56,1.42-1.33,0-.76-.57-1.33-1.38-1.34-1.74,0-3.48,0-5.21,0-.8,0-1.4,.58-1.4,1.33,0,.76,.6,1.33,1.42,1.34,.86,0,1.73,0,2.59,0Z"/>
</svg>