<?xml version="1.0" encoding="UTF-8"?>
<svg id="Layer_1" data-name="Layer 1" xmlns="http://www.w3.org/2000/svg" viewBox="0 0 32 32">
  <path d="M.05,28.74l2.03-7.43c-1.02-1.7-1.55-3.57-1.55-5.45C.53,8.91,7.6,3.26,16.29,3.26s15.76,5.65,15.76,12.59-7.07,12.59-15.76,12.59c-2.3,0-4.52-.39-6.61-1.17L.05,28.74Zm9.92-4.14l.33,.13c1.89,.74,3.9,1.11,5.99,1.11,7.25,0,13.15-4.48,13.15-9.98s-5.9-9.98-13.15-9.98S3.14,10.35,3.14,15.86c0,1.58,.48,3.09,1.43,4.51l.33,.5-1.28,4.69,6.35-.96Z"/>
  <g>
    <circle cx="9.84" cy="15.86" r="1.8"/>
    <circle cx="16.29" cy="15.86" r="1.8"/>
    <circle cx="22.74" cy="15.86" r="1.8"/>
  </g>
</svg>