<?xml version="1.0" encoding="UTF-8"?>
<svg id="Layer_1" data-name="Layer 1" xmlns="http://www.w3.org/2000/svg" viewBox="0 0 32 32">
  <path d="M32,6.81c-.16,.62-.57,1.06-1.01,1.5-6.04,6.03-12.08,12.07-18.12,18.11-1.17,1.17-2.69,1.46-4.08,.75-.35-.18-.69-.44-.97-.72-2.39-2.37-4.76-4.75-7.14-7.12-.34-.34-.55-.75-.68-1.2,0-.23,0-.46,0-.69,.04-.09,.08-.19,.11-.28,.47-1.34,2.1-1.81,3.19-.9,.26,.22,.5,.47,.74,.72,2.01,2.01,4.02,4.02,6.03,6.03,.08,.08,.15,.18,.28,.34,.11-.15,.17-.27,.25-.35,5.93-5.94,11.87-11.87,17.8-17.81,.32-.32,.68-.59,1.13-.68,1.08-.22,2.09,.39,2.39,1.45,.02,.06,.04,.11,.07,.17v.69Z"/>
</svg>