<?xml version="1.0" encoding="UTF-8"?>
<svg id="Layer_1" data-name="Layer 1" xmlns="http://www.w3.org/2000/svg" viewBox="0 0 32 32">
  <path d="M15.74,24.88c-1.83-.02-3.6-.73-5.05-2.16-3.26-3.23-6.51-6.47-9.75-9.72-1.31-1.32-1.32-3.3-.05-4.56,1.28-1.27,3.23-1.27,4.57,.05,3.18,3.15,6.34,6.32,9.51,9.47,.21,.21,.49,.41,.77,.5,.49,.15,.84-.15,1.18-.48,3.13-3.13,6.26-6.25,9.39-9.38,.81-.81,1.76-1.24,2.93-1.04,1.26,.21,2.12,.94,2.53,2.14,.41,1.21,.13,2.3-.74,3.22-.68,.73-1.41,1.42-2.11,2.12-2.55,2.55-5.11,5.1-7.67,7.64-1.46,1.45-3.29,2.2-5.51,2.2Z"/>
</svg>