<?xml version="1.0" encoding="UTF-8"?>
<svg id="Layer_1" data-name="Layer 1" xmlns="http://www.w3.org/2000/svg" viewBox="0 0 32 32">
  <path d="M15.97,12.45c.07-.07,.12-.12,.17-.18,.43-.54,.86-1.08,1.29-1.61,.07-.09,.2-.19,.3-.19,.48,0,.98-.02,1.45,.07,1.31,.24,2.17,1.54,1.97,2.85-.18,1.21-.32,2.43-.49,3.65-.07,.54-.12,1.07-.22,1.6-.13,.71-.53,1.24-1.18,1.57-.12,.06-.17,.14-.19,.27-.31,2.14-.63,4.27-.94,6.41-.06,.37-.11,.75-.17,1.12-.09,.53-.52,.92-1.07,.92-.62,0-1.25,0-1.87,0-.53,0-.97-.39-1.05-.92-.2-1.33-.4-2.66-.59-4-.17-1.18-.35-2.36-.52-3.54-.02-.15-.09-.24-.23-.31-.7-.38-1.05-.98-1.15-1.76-.22-1.7-.43-3.39-.67-5.09-.2-1.48,.95-2.82,2.5-2.87,.27,0,.53,0,.8,0,.17,0,.29,.06,.39,.2,.42,.54,.86,1.08,1.29,1.61,.05,.06,.1,.11,.17,.19Z"/>
  <path d="M13.03,6.71c0-1.64,1.32-2.99,2.95-2.99,1.64,0,2.98,1.33,2.98,2.97,0,1.65-1.31,2.97-2.96,2.97-1.64,0-2.96-1.31-2.97-2.95Z"/>
  <path d="M26.07,7.99c.16,.13,.27,.23,.38,.33,.17,.17,.23,.36,.16,.6-.08,.23-.25,.35-.48,.39-.68,.11-1.36,.22-2.03,.34-.36,.06-.72,.12-1.08,.17-.48,.07-.77-.21-.7-.7,.14-.89,.29-1.78,.44-2.68,.02-.15,.05-.29,.07-.44,.04-.23,.16-.4,.39-.48,.23-.08,.43-.01,.59,.16,.11,.11,.2,.23,.31,.37,.1-.09,.15-.14,.21-.19,.83-.83,1.66-1.66,2.49-2.49,.39-.39,.75-.39,1.15,0,.29,.29,.58,.57,.86,.86,.33,.34,.33,.72,0,1.06-.84,.84-1.68,1.68-2.52,2.52-.05,.05-.12,.1-.23,.19Z"/>
  <path d="M27.41,13.69c.11,0,.18,0,.26,0,1.18,0,2.36,0,3.54,0,.54,0,.8,.26,.8,.8,0,.41,0,.83,0,1.24,0,.47-.27,.74-.75,.75-1.19,0-2.39,0-3.58,0-.22,0-.29,.07-.26,.27,0,.07,0,.14,0,.21,0,.24-.09,.42-.31,.53-.22,.12-.42,.07-.61-.06-.46-.33-.92-.66-1.38-.99-.4-.29-.8-.57-1.2-.86-.38-.28-.38-.71,0-.98,.85-.61,1.7-1.22,2.55-1.83,.21-.15,.42-.19,.65-.07,.22,.11,.31,.32,.3,.56,0,.13,0,.27,0,.43Z"/>
  <path d="M7.82,24.09c-.08,.11-.12,.19-.17,.24-.82,.83-1.65,1.65-2.47,2.47-.39,.39-.76,.39-1.15,0-.29-.29-.59-.58-.88-.88-.32-.33-.32-.72,0-1.04,.83-.84,1.67-1.67,2.5-2.5,.06-.06,.13-.1,.26-.2-.16-.13-.29-.23-.4-.33-.17-.16-.23-.37-.15-.6,.07-.22,.24-.34,.46-.38,1.07-.18,2.14-.36,3.22-.54,.4-.06,.69,.28,.62,.71-.07,.43-.14,.86-.21,1.29-.1,.59-.19,1.18-.29,1.76-.07,.42-.35,.65-.71,.55-.1-.03-.2-.09-.28-.17-.11-.1-.2-.22-.35-.39Z"/>
  <path d="M4.57,16.48c-.1,0-.18,0-.27,0-1.17,0-2.33,0-3.5,0-.56,0-.81-.25-.81-.81,0-.4,0-.8,0-1.2,0-.51,.27-.78,.78-.78,1.17,0,2.34,0,3.52,0q.28,0,.28-.29c0-.06,0-.13,0-.19,0-.23,.09-.41,.29-.52,.22-.11,.43-.08,.63,.06,.71,.51,1.43,1.02,2.14,1.53,.15,.11,.3,.21,.44,.32,.35,.27,.36,.69,0,.94-.87,.63-1.74,1.25-2.62,1.88-.19,.13-.39,.16-.6,.05-.21-.11-.31-.29-.3-.53,0-.15,0-.29,0-.46Z"/>
  <path d="M5.9,7.94c-.08-.06-.16-.1-.21-.15-.83-.83-1.66-1.66-2.49-2.49-.36-.36-.36-.74,0-1.1,.29-.29,.58-.59,.88-.88,.35-.34,.73-.34,1.07,0,.84,.84,1.68,1.68,2.52,2.52,.05,.05,.11,.11,.21,.2,.1-.12,.18-.23,.28-.33,.16-.18,.36-.26,.61-.18,.25,.08,.36,.27,.4,.52,.11,.72,.23,1.44,.34,2.16,.05,.3,.1,.6,.15,.89,.09,.5-.21,.81-.7,.73-1.02-.17-2.05-.34-3.07-.5-.24-.04-.42-.16-.5-.39-.08-.24,0-.44,.17-.61,.1-.11,.2-.21,.35-.37Z"/>
  <path d="M24.15,24.12c-.12,.14-.21,.24-.3,.34-.17,.18-.38,.27-.63,.19-.25-.08-.36-.27-.4-.52-.16-.96-.28-1.93-.48-2.88-.14-.69,.23-1.01,.89-.87,.95,.2,1.92,.33,2.88,.48,.23,.04,.41,.15,.49,.38,.09,.24,.01,.44-.15,.62-.11,.11-.21,.22-.32,.35,.07,.07,.12,.13,.18,.19,.82,.82,1.65,1.65,2.47,2.47,.38,.38,.38,.75,0,1.13-.28,.28-.56,.57-.85,.85-.35,.35-.74,.35-1.09,0-.83-.83-1.67-1.67-2.5-2.5-.05-.05-.1-.12-.18-.22Z"/>
</svg>