<?xml version="1.0" encoding="UTF-8"?>
<svg id="Layer_1" data-name="Layer 1" xmlns="http://www.w3.org/2000/svg" viewBox="0 0 32 32">
  <path d="M11.63,0C11.9,0,12.16,0,12.42,0c.02,.01,.03,.04,.05,.04,.84,.11,1.5,.53,2,1.2,.44,.59,.61,1.27,.57,2-.01,.19,.04,.28,.23,.35,.77,.28,1.5,.65,2.13,1.18,.36,.3,.61,.32,1.03,.07,1.09-.64,2.48-.43,3.41,.42,.93,.85,1.22,2.2,.73,3.36-.3,.73-.84,1.24-1.53,1.6-.11,.06-.18,.11-.15,.27,.15,.82,.21,1.65,.06,2.46-.1,.52,.06,.74,.49,1,1.12,.67,1.62,2.08,1.25,3.34-.36,1.25-1.52,2.13-2.82,2.16-.67,.01-1.27-.2-1.82-.56-.12-.08-.2-.08-.32,.02-.68,.57-1.42,1.04-2.25,1.34-.35,.13-.46,.3-.45,.68,.02,1.43-.94,2.61-2.32,2.94-.09,.02-.2-.02-.28,.07h-.84c-.06-.08-.15-.06-.23-.08-.59-.15-1.09-.44-1.5-.89-.59-.64-.83-1.41-.78-2.27,.01-.21-.06-.29-.25-.36-.77-.28-1.5-.66-2.12-1.19-.35-.3-.59-.3-.99-.07-1.09,.64-2.49,.45-3.42-.4-.95-.87-1.24-2.21-.74-3.4,.3-.72,.84-1.22,1.52-1.57,.12-.06,.17-.12,.15-.27-.15-.83-.2-1.66-.06-2.49,.08-.48-.03-.7-.45-.96-1.09-.66-1.55-1.7-1.37-2.95,.18-1.26,.94-2.1,2.17-2.46,.9-.27,1.75-.07,2.53,.44,.14,.09,.23,.08,.36-.03,.67-.56,1.41-1.03,2.23-1.33,.36-.13,.46-.3,.45-.68-.02-1.26,.74-2.36,1.9-2.81C11.19,.12,11.41,.07,11.63,0Zm.42,7.99c-2.21,0-3.98,1.78-3.98,3.99,0,2.2,1.76,3.97,3.96,3.98,2.2,0,3.99-1.77,3.99-3.98,0-2.21-1.77-3.99-3.98-3.99Z"/>
  <path d="M24.69,18.22c.15,0,.3,0,.46,0,0,0,.02,.02,.03,.02,.49,.06,.86,.3,1.15,.69,.25,.34,.35,.73,.33,1.15,0,.11,.02,.16,.13,.2,.44,.16,.86,.37,1.22,.68,.21,.17,.35,.18,.59,.04,.63-.37,1.43-.25,1.96,.24,.53,.49,.7,1.26,.42,1.93-.18,.42-.48,.71-.88,.92-.06,.03-.1,.06-.09,.15,.09,.47,.12,.95,.03,1.42-.06,.3,.03,.43,.28,.58,.65,.38,.93,1.2,.72,1.92-.21,.72-.88,1.23-1.62,1.24-.39,0-.73-.12-1.05-.32-.07-.05-.12-.04-.18,.01-.39,.33-.82,.6-1.29,.77-.2,.08-.26,.17-.26,.39,.01,.82-.54,1.5-1.34,1.69-.05,.01-.12-.01-.16,.04h-.48s-.09-.04-.13-.05c-.34-.08-.63-.25-.86-.51-.34-.37-.48-.81-.45-1.31,0-.12-.03-.17-.14-.21-.44-.16-.86-.38-1.22-.68-.2-.17-.34-.17-.57-.04-.63,.37-1.43,.26-1.97-.23-.55-.5-.71-1.27-.43-1.96,.18-.42,.48-.7,.88-.91,.07-.03,.1-.07,.08-.15-.09-.48-.12-.96-.03-1.43,.05-.28-.02-.4-.26-.55-.63-.38-.89-.98-.79-1.7,.1-.73,.54-1.21,1.25-1.41,.52-.15,1.01-.04,1.46,.26,.08,.05,.13,.05,.21-.01,.39-.32,.81-.59,1.28-.76,.21-.08,.26-.17,.26-.39-.01-.73,.43-1.36,1.09-1.62,.12-.05,.25-.08,.38-.12Zm.24,4.59c-1.27,0-2.29,1.02-2.29,2.3,0,1.27,1.02,2.29,2.28,2.29,1.27,0,2.29-1.02,2.3-2.29,0-1.27-1.02-2.3-2.29-2.3Z"/>
</svg>