<?xml version="1.0" encoding="UTF-8"?>
<svg id="Layer_1" data-name="Layer 1" xmlns="http://www.w3.org/2000/svg" viewBox="0 0 32 32">
  <path d="M15.44-.02c.35,0,.71,0,1.06,0,.02,.02,.04,.05,.06,.05,1.13,.14,2,.7,2.67,1.61,.59,.79,.81,1.7,.76,2.68-.01,.25,.05,.38,.3,.47,1.03,.37,2.01,.87,2.84,1.58,.48,.41,.82,.43,1.37,.1,1.45-.86,3.31-.58,4.56,.57,1.24,1.14,1.62,2.93,.98,4.49-.41,.98-1.13,1.65-2.05,2.13-.15,.08-.24,.15-.2,.35,.2,1.09,.28,2.21,.08,3.29-.13,.69,.08,1,.65,1.34,1.5,.89,2.16,2.78,1.68,4.46-.49,1.67-2.03,2.85-3.77,2.88-.9,.02-1.69-.27-2.43-.75-.16-.11-.27-.1-.43,.03-.9,.76-1.9,1.39-3.01,1.8-.47,.17-.61,.4-.6,.91,.03,1.91-1.25,3.49-3.11,3.93-.12,.03-.27-.02-.37,.09h-1.12c-.07-.11-.2-.08-.31-.11-.79-.2-1.46-.59-2.01-1.19-.79-.86-1.11-1.89-1.05-3.04,.02-.28-.08-.39-.33-.48-1.03-.38-2.01-.88-2.84-1.59-.47-.4-.79-.4-1.32-.09-1.46,.86-3.33,.6-4.57-.53-1.27-1.16-1.66-2.96-.99-4.54,.41-.97,1.12-1.63,2.04-2.1,.15-.08,.23-.16,.2-.36-.2-1.1-.27-2.22-.08-3.33,.11-.64-.04-.94-.6-1.28-1.45-.88-2.07-2.27-1.83-3.94,.24-1.69,1.26-2.8,2.89-3.28,1.21-.35,2.34-.09,3.38,.59,.18,.12,.3,.11,.48-.03,.9-.75,1.89-1.37,2.98-1.77,.48-.18,.61-.4,.6-.91-.03-1.69,.99-3.16,2.54-3.75,.28-.11,.58-.18,.87-.27Zm.56,10.67c-2.95,0-5.32,2.38-5.32,5.33,0,2.94,2.36,5.31,5.3,5.32,2.95,.01,5.33-2.36,5.34-5.32,0-2.96-2.36-5.34-5.31-5.34Z"/>
</svg>