<?xml version="1.0" encoding="UTF-8"?>
<svg id="Layer_1" data-name="Layer 1" xmlns="http://www.w3.org/2000/svg" viewBox="0 0 32 32">
  <g>
    <path d="M11.03,31.39h-.38v-1.05c-.17-3.06-1.49-4.34-2.27-4.83-.94-.59-1.18-.64-1.91-.8-.2-.04-.45-.1-.76-.17-.14-.03-.28-.07-.42-.1-.59-.14-1.2-.28-1.76-.55-.81-.39-1.38-1.02-1.55-1.71-.18-.73,.12-1.48,.39-2.14,.04-.1,.08-.19,.11-.29,.09-.23,.06-.49-.07-.7-.04-.05-.08-.11-.12-.16-.07-.08-.13-.16-.19-.26-.14-.26-.14-.57-.01-.83,.07-.13,.18-.25,.32-.34-.09-.07-.17-.16-.22-.26-.16-.31-.14-.62,.07-.79,.33-.28,.62-.54,.7-.88,.03-.12,.03-.21,0-.33-.32-.22-.68-.46-.93-.8-.31-.42-.41-.93-.26-1.33,.15-.4,.52-.66,.81-.86,.24-.17,.49-.33,.73-.48,.67-.43,1.3-.83,1.78-1.43,.38-.48,.58-1.05,.8-1.65,.09-.25,.18-.5,.28-.75,.52-1.22,1.35-2.26,2.16-3.27,.9-1.13,2.6-2.2,3.09-2.5,2.55-1.54,4.62-1.59,6.87-1.5,2.59,.1,5.08,.93,7.01,2.33,1.36,.98,2.51,2.31,3.33,3.83,.82,1.52,1.3,3.21,1.37,4.89,.07,1.67-.25,3.4-.93,4.99-.68,1.59-1.71,3.01-2.98,4.11-1.08,.94-1.74,1.59-2.69,2.68-1.67,1.91-2.05,4.83-.92,7.1l-.31,.15c-1.19-2.39-.79-5.47,.97-7.48,.96-1.1,1.63-1.76,2.72-2.71,1.23-1.07,2.22-2.45,2.89-3.99,.66-1.54,.97-3.22,.9-4.84-.07-1.62-.53-3.26-1.33-4.74-.8-1.48-1.91-2.76-3.23-3.71-1.88-1.36-4.31-2.17-6.83-2.27-2.66-.11-4.42,.09-6.68,1.45-.49,.29-2.14,1.33-3,2.42-.79,.99-1.61,2.01-2.11,3.19-.1,.24-.19,.49-.28,.73-.22,.61-.44,1.23-.86,1.75-.51,.64-1.2,1.08-1.87,1.51-.24,.15-.48,.31-.72,.47-.31,.22-.58,.42-.68,.7-.14,.35,.02,.75,.21,1,.23,.31,.57,.54,.9,.76,.03,.02,.06,.06,.07,.09,.06,.21,.07,.37,.02,.57-.12,.47-.52,.81-.82,1.06-.08,.07-.05,.24,.02,.37,.07,.14,.22,.24,.38,.25,.09,0,.15,.08,.15,.17,0,.09-.06,.16-.15,.17-.18,.02-.4,.18-.47,.33-.08,.16-.08,.36,0,.51,.04,.07,.09,.13,.15,.2,.05,.06,.1,.12,.15,.19,.19,.29,.23,.68,.11,1.01-.04,.1-.08,.19-.12,.29-.26,.64-.53,1.31-.38,1.93,.15,.6,.64,1.14,1.37,1.49,.53,.25,1.12,.39,1.69,.52,.14,.03,.28,.07,.42,.1,.31,.07,.55,.13,.76,.17,.75,.16,1.03,.22,2.02,.85,.9,.57,1.56,1.47,1.97,2.68,.25,.72,.4,1.56,.44,2.43,0,0,0,0,.05,0v1.06Z"/>
    <path d="M11.64,32h-1.6v-1.66c-.15-2.76-1.31-3.89-1.99-4.32-.85-.53-1.01-.57-1.71-.72-.2-.04-.46-.1-.78-.18l-.41-.1c-.62-.14-1.27-.29-1.89-.59-.98-.47-1.66-1.24-1.88-2.12-.22-.91,.13-1.8,.42-2.51l.11-.28-.1-.25c-.09-.11-.18-.22-.26-.36-.23-.42-.24-.96-.02-1.4,.02-.04,.04-.08,.07-.12-.26-.55-.16-1.13,.24-1.47,.18-.15,.36-.31,.45-.45-.28-.2-.55-.43-.77-.73-.44-.58-.57-1.31-.34-1.91,.22-.58,.71-.92,1.03-1.14,.25-.17,.5-.34,.75-.5,.65-.42,1.22-.78,1.63-1.3,.32-.4,.5-.9,.71-1.48,.09-.26,.19-.52,.3-.78,.55-1.3,1.41-2.37,2.23-3.41,.94-1.18,2.59-2.24,3.26-2.64C13.81-.01,15.97-.06,18.32,.03c2.7,.11,5.31,.98,7.34,2.45,1.43,1.04,2.65,2.43,3.51,4.03,.86,1.6,1.36,3.38,1.44,5.15,.08,1.77-.26,3.58-.98,5.26-.72,1.67-1.8,3.17-3.14,4.33-1.06,.92-1.7,1.56-2.63,2.62-1.52,1.73-1.86,4.37-.84,6.43l.27,.54-1.39,.7-.27-.55c-1.3-2.61-.86-5.96,1.06-8.15,.99-1.13,1.66-1.8,2.78-2.77,1.16-1.01,2.1-2.31,2.73-3.77,.63-1.46,.92-3.04,.85-4.57-.07-1.53-.5-3.08-1.26-4.48-.75-1.4-1.81-2.61-3.05-3.51-1.79-1.29-4.09-2.06-6.49-2.15-2.59-.11-4.21,.07-6.34,1.36-.46,.28-2.04,1.27-2.84,2.27-.77,.97-1.56,1.95-2.02,3.05-.09,.22-.18,.46-.26,.68-.23,.63-.48,1.34-.96,1.94-.58,.72-1.34,1.21-2.01,1.64-.26,.16-.48,.31-.7,.46-.15,.11-.41,.29-.46,.42-.04,.09,.02,.28,.13,.42,.17,.23,.45,.41,.75,.61l.18,.12,.14,.3c.09,.33,.1,.6,.03,.9-.11,.44-.37,.77-.63,1.03,.21,.1,.38,.36,.38,.65,0,.4-.29,.74-.68,.79,.14,.13,.2,.21,.26,.3,.3,.46,.36,1.06,.17,1.57l-.12,.3c-.22,.55-.45,1.13-.35,1.56,.1,.42,.48,.82,1.04,1.09,.46,.22,1.01,.35,1.55,.47l.44,.1c.3,.07,.53,.12,.73,.17,.85,.19,1.19,.28,2.22,.93,1.02,.64,1.77,1.65,2.22,3,.21,.63,.36,1.33,.43,2.06h.06s.03,2.23,.03,2.23Z"/>
  </g>
  <g>
    <path d="M19.12,3.39h.14s.02,0,.02,0c0,0,.01,.01,.02,.02,0,0,.01,0,.02,.01"/>
    <path d="M25.67,19.34l-5.86-10.15-2.67-.74-1.69,5.07-7.45-4.75,4.81-2.01,4.03,1.12,1.01-3.03,2.27,3.93,5.26,1.46v.18c-.13,2.57-.29,6.78-.19,7.15l.48,1.75Zm-5.22-9.97l4.25,7.35c0-1.7,.15-5,.2-6.12l-4.45-1.23Zm-11.45-.51l6.2,3.95,1.49-4.49-3.85-1.07-3.84,1.6Zm8.29-.85l2.19,.61-1.52-2.63-.67,2.02Z"/>
    <circle cx="25.13" cy="18.57" r=".98"/>
    <circle cx="24.91" cy="10.08" r=".98"/>
    <circle cx="17.83" cy="4.74" r=".98"/>
    <circle cx="15.11" cy="12.69" r=".98"/>
    <circle cx="8.47" cy="8.77" r=".98"/>
  </g>
</svg>