<?xml version="1.0" encoding="UTF-8"?>
<svg id="Layer_1" data-name="Layer 1" xmlns="http://www.w3.org/2000/svg" viewBox="0 0 32 32">
  <path d="M19.95,13.07c-.51-1.48-2.22-2.13-3.6-1.37-.12,.07-.22,.08-.34,0-.22-.12-.44-.22-.66-.33,.04-.31,.09-.6,.11-.9,.09-2.25-.84-3.97-2.77-5.1-1.18-.69-2.47-.86-3.81-.57-.12,.02-.19,0-.23-.11-.01-.03-.03-.06-.05-.09-.11-.21-.3-.4-.32-.62-.02-.2,.13-.41,.2-.62,.49-1.45-.46-3.02-1.97-3.26-.04,0-.09-.02-.13-.04h-.55c-.31,.1-.64,.16-.92,.31-.99,.51-1.48,1.58-1.28,2.69,.19,1.05,1.07,1.86,2.19,2,.14,.02,.2,.07,.26,.19,.13,.24,.26,.48,.4,.73-.06,.05-.11,.1-.16,.15-1.83,1.7-2.27,4.45-1.04,6.63,.08,.15,.06,.22-.05,.33-.7,.66-1.39,1.33-2.09,1.99-.06,.06-.17,.1-.25,.09-1.45-.17-2.6,.66-2.88,2.1,0,.02-.02,.05-.03,.07v.63c.03,.13,.06,.25,.1,.37,.31,.98,.97,1.57,1.97,1.78,.04,0,.08,.03,.13,.04h.63c.18-.05,.36-.09,.54-.16,1.2-.43,1.88-1.69,1.58-2.93-.03-.14-.01-.22,.09-.32,.65-.61,1.29-1.24,1.94-1.86,.06-.05,.11-.11,.15-.14,2.66,1.37,5.01,1,7.11-1.13,.23,.12,.49,.23,.74,.38,.06,.04,.09,.16,.11,.25,.19,1.02,.76,1.71,1.74,2.03,1.44,.46,2.95-.47,3.21-1.95,0-.04,.03-.08,.04-.13v-.63c-.05-.17-.08-.34-.14-.5Zm-9.91-.02c-1.63-.02-2.94-1.34-2.93-2.94,.01-1.62,1.33-2.92,2.95-2.92,1.61,0,2.92,1.34,2.92,2.95,0,1.6-1.35,2.93-2.94,2.91Z"/>
  <path d="M32.01,22c0,5.55-4.49,10.06-10.03,10.07-5.54,0-10.07-4.52-10.06-10.05,0-5.54,4.52-10.07,10.07-10.04,5.63,.02,10.03,4.57,10.03,10.03Zm-1.86,.02c0-4.51-3.64-8.18-8.15-8.19-4.53,0-8.2,3.63-8.22,8.16-.02,4.49,3.65,8.19,8.14,8.2,4.57,0,8.22-3.63,8.23-8.17Z"/>
  <path d="M21.84,23.27c-.57,.62-1.13,1.23-1.7,1.82-.39,.4-.74,.45-1.12,.22-.58-.34-.66-1-.15-1.5,.6-.59,1.22-1.14,1.89-1.76-.48-.47-.86-.83-1.24-1.2-.22-.22-.45-.44-.67-.67-.41-.43-.43-.95-.05-1.34,.36-.37,.92-.35,1.33,.06,.59,.59,1.18,1.18,1.79,1.8,.62-.61,1.22-1.19,1.82-1.77,.31-.3,.66-.45,1.07-.27,.64,.27,.77,.97,.28,1.49-.51,.53-1.02,1.05-1.54,1.57-.08,.08-.16,.17-.25,.27,.61,.64,1.22,1.27,1.81,1.91,.46,.5,.34,1.13-.26,1.46-.34,.19-.69,.12-1.07-.24-.52-.48-1.02-.98-1.54-1.47-.1-.1-.2-.19-.4-.36Z"/>
</svg>