<?xml version="1.0" encoding="UTF-8"?>
<svg id="Layer_1" data-name="Layer 1" xmlns="http://www.w3.org/2000/svg" viewBox="0 0 32 32">
  <path d="M32,21.5v1c-.02,.07-.05,.13-.06,.2-.42,2.36-2.83,3.84-5.11,3.11-1.57-.5-2.48-1.6-2.78-3.22-.03-.14-.07-.33-.17-.39-.39-.23-.81-.42-1.17-.6-3.35,3.39-7.1,3.99-11.33,1.8-.06,.06-.16,.14-.24,.23-1.03,.99-2.05,1.98-3.09,2.96-.17,.16-.2,.29-.15,.51,.47,1.97-.62,3.98-2.52,4.66-.28,.1-.57,.17-.86,.25h-1c-.07-.02-.13-.05-.2-.06-1.59-.34-2.65-1.28-3.14-2.84C.09,28.9,.05,28.7,0,28.5c0-.33,0-.67,0-1,.02-.04,.04-.07,.05-.11,.45-2.29,2.28-3.61,4.59-3.34,.13,.02,.31-.05,.4-.14,1.11-1.05,2.21-2.12,3.32-3.17,.18-.17,.22-.28,.08-.52-1.96-3.46-1.26-7.85,1.65-10.55,.08-.08,.17-.15,.26-.24-.22-.4-.44-.78-.64-1.16-.09-.18-.2-.27-.42-.3-1.79-.23-3.18-1.52-3.48-3.19-.32-1.77,.46-3.47,2.03-4.29,.45-.24,.98-.33,1.47-.5,.29,0,.58,0,.87,0,.07,.02,.13,.05,.2,.06,2.41,.39,3.91,2.88,3.14,5.2-.11,.33-.36,.68-.33,.99,.04,.34,.33,.66,.51,.99,.03,.05,.06,.09,.08,.14,.07,.18,.18,.21,.36,.17,2.13-.46,4.18-.2,6.06,.9,3.08,1.81,4.56,4.54,4.42,8.12-.02,.47-.11,.95-.17,1.43,.34,.17,.7,.34,1.05,.53,.2,.11,.34,.1,.54-.01,2.19-1.22,4.91-.18,5.72,2.18,.09,.26,.15,.54,.22,.8Zm-11.33-5.47c.01-2.57-2.09-4.7-4.64-4.7-2.58,0-4.68,2.07-4.7,4.65-.02,2.56,2.06,4.66,4.66,4.69,2.53,.03,4.67-2.09,4.68-4.64Z"/>
</svg>