<?xml version="1.0" encoding="UTF-8"?>
<svg id="Layer_1" data-name="Layer 1" xmlns="http://www.w3.org/2000/svg" viewBox="0 0 32 32">
  <path d="M10.01,4.3c.26,0,.51,0,.77,0,.02,.01,.03,.04,.05,.04,.82,.1,1.45,.51,1.94,1.17,.42,.58,.59,1.23,.55,1.94-.01,.18,.04,.28,.22,.34,.75,.27,1.46,.63,2.06,1.14,.35,.29,.59,.31,1,.07,1.06-.62,2.4-.42,3.31,.41,.9,.82,1.18,2.13,.71,3.26-.3,.71-.82,1.2-1.49,1.55-.11,.06-.17,.11-.15,.26,.15,.79,.21,1.6,.06,2.39-.1,.5,.06,.72,.47,.97,1.09,.65,1.57,2.01,1.22,3.24-.35,1.21-1.48,2.07-2.74,2.09-.65,.01-1.23-.2-1.76-.55-.12-.08-.2-.07-.31,.02-.66,.55-1.38,1.01-2.18,1.3-.34,.13-.44,.29-.44,.66,.02,1.38-.91,2.53-2.25,2.85-.09,.02-.2-.02-.27,.07h-.81c-.05-.08-.15-.06-.22-.08-.57-.14-1.06-.43-1.46-.86-.57-.62-.81-1.37-.76-2.2,.01-.2-.06-.28-.24-.35-.75-.27-1.46-.64-2.06-1.15-.34-.29-.58-.29-.96-.07-1.06,.62-2.42,.44-3.32-.38-.92-.84-1.2-2.14-.72-3.29,.3-.7,.81-1.18,1.48-1.53,.11-.06,.17-.11,.14-.26-.15-.8-.2-1.61-.06-2.41,.08-.47-.03-.68-.44-.93C.31,13.35-.14,12.35,.04,11.14c.17-1.22,.91-2.03,2.1-2.38,.88-.26,1.7-.07,2.46,.43,.13,.09,.22,.08,.35-.02,.65-.55,1.37-.99,2.16-1.29,.35-.13,.44-.29,.44-.66-.02-1.22,.72-2.29,1.84-2.72,.21-.08,.42-.13,.63-.19Zm.41,7.74c-2.14,0-3.86,1.72-3.86,3.87,0,2.13,1.71,3.85,3.84,3.86,2.14,0,3.87-1.71,3.87-3.86,0-2.14-1.71-3.87-3.85-3.87Z"/>
  <path d="M22.88,19.93c.09-.08,.17-.16,.26-.25,0,0,.02,0,.03,0,.31-.23,.65-.29,1.03-.22,.33,.06,.59,.23,.8,.48,.05,.06,.1,.08,.18,.05,.34-.15,.69-.25,1.06-.27,.21-.01,.3-.08,.36-.29,.16-.55,.68-.91,1.25-.92,.57,0,1.08,.34,1.28,.87,.13,.34,.11,.67,0,1-.02,.05-.02,.09,.03,.13,.3,.22,.58,.48,.78,.79,.13,.2,.25,.23,.47,.18,.58-.13,1.17,.18,1.44,.71,.27,.52,.16,1.17-.26,1.58-.22,.21-.48,.32-.77,.38-.07,.01-.09,.04-.1,.11-.05,.4-.14,.78-.32,1.14-.08,.15-.06,.24,.06,.36,.45,.46,.5,1.14,.15,1.68-.02,.04-.07,.06-.07,.11l-.28,.26s-.07,.03-.1,.04c-.24,.13-.49,.19-.77,.17-.39-.03-.71-.2-.96-.5-.06-.07-.11-.08-.19-.04-.34,.15-.69,.25-1.06,.27-.21,.01-.29,.08-.35,.28-.16,.55-.68,.92-1.24,.93-.58,0-1.09-.34-1.29-.88-.12-.33-.1-.66,.01-.99,.02-.06,.02-.09-.03-.13-.31-.22-.58-.48-.79-.8-.12-.18-.23-.22-.44-.17-.56,.12-1.03-.08-1.36-.54-.33-.47-.34-.98-.05-1.48,.21-.37,.55-.57,.97-.64,.07-.01,.1-.04,.11-.12,.05-.39,.15-.77,.32-1.13,.08-.15,.06-.24-.06-.36-.4-.41-.49-1-.25-1.51,.04-.09,.1-.18,.15-.27Zm2.61,2.49c-.72,.68-.76,1.81-.07,2.54,.68,.72,1.81,.76,2.53,.08,.73-.68,.76-1.81,.08-2.54-.68-.73-1.81-.76-2.54-.08Z"/>
  <path d="M24.52,3.84c.11-.04,.22-.08,.34-.12,0,0,.02,.01,.03,0,.37-.09,.72-.01,1.03,.2,.28,.18,.46,.44,.55,.76,.02,.08,.06,.11,.15,.11,.37,0,.74,.04,1.08,.17,.2,.07,.31,.04,.45-.13,.36-.44,.98-.57,1.51-.35,.52,.21,.86,.74,.83,1.31-.01,.36-.16,.65-.4,.91-.04,.04-.06,.08-.02,.14,.19,.32,.35,.66,.41,1.03,.04,.24,.14,.31,.36,.35,.58,.11,1.01,.62,1.05,1.22,.04,.59-.31,1.14-.86,1.35-.28,.11-.57,.11-.86,.05-.06-.01-.1,0-.13,.06-.2,.35-.44,.66-.74,.92-.13,.11-.15,.2-.09,.36,.23,.6,.01,1.25-.52,1.61-.04,.02-.09,.02-.11,.07l-.36,.13s-.07,0-.11,0c-.27,.03-.53-.02-.77-.14-.35-.18-.57-.47-.69-.84-.03-.09-.07-.11-.16-.11-.37,0-.74-.04-1.08-.17-.2-.07-.3-.03-.43,.12-.36,.44-.98,.58-1.51,.37-.54-.22-.87-.74-.84-1.32,.02-.35,.16-.65,.4-.9,.04-.04,.06-.08,.02-.14-.19-.33-.35-.67-.41-1.04-.04-.22-.12-.29-.34-.33-.56-.11-.92-.48-1.04-1.03-.12-.56,.07-1.03,.53-1.38,.34-.25,.73-.3,1.14-.21,.07,.02,.11,0,.15-.07,.2-.34,.44-.65,.74-.91,.13-.11,.15-.2,.08-.36-.21-.53-.06-1.11,.37-1.48,.08-.07,.16-.12,.25-.19Zm1.43,3.31c-.93,.34-1.41,1.37-1.06,2.31,.34,.93,1.37,1.4,2.3,1.06,.93-.34,1.41-1.37,1.07-2.31-.34-.94-1.37-1.41-2.3-1.07Z"/>
</svg>