<?xml version="1.0" encoding="UTF-8"?>
<svg id="Layer_1" data-name="Layer 1" xmlns="http://www.w3.org/2000/svg" viewBox="0 0 32 32">
  <path d="M13.44,10.46h-2.08c.04-1.37,.09-1.49,1.29-1.39,.94,.08,1.3-.26,1.51-1.15,.5-2.18,1.59-4.05,3.13-5.67C19.26,.18,22.17-.55,24.57,.43c.73,.3,1.33,.74,1.41,1.61,.07,.78-.31,1.36-.94,1.77-.92,.6-1.94,.2-2.16-.87-.14-.66-.22-1.34-.99-1.52-.84-.2-1.44,.27-1.96,.87-.15,.18-.29,.37-.42,.56-1.15,1.89-1.68,4.01-2.25,6.2h2.69c.17,1.22,0,1.42-1.07,1.42q-1.93,0-2.39,1.85c-.85,3.4-1.61,6.83-2.6,10.19-.74,2.5-1.87,4.86-3.57,6.88-1.7,2.03-3.84,2.98-6.51,2.46-1.26-.25-1.98-1.06-1.94-2.08,.04-.96,.7-1.71,1.54-1.78,.91-.07,1.63,.49,1.87,1.43,.3,1.22,1.18,1.53,1.98,.52,.8-1.02,1.52-2.21,1.9-3.44,1.06-3.48,1.94-7.01,2.88-10.52,.48-1.8,.92-3.62,1.4-5.54Z"/>
  <path d="M4.97,20.32c1.08-.31,1.7-1.24,2.45-1.99,.88,.48,.89,.54,.32,1.29-1.3,1.72-2.92,2.95-5.12,3.25-.33,.05-.68,.08-1.01,.05-.69-.07-1.05-.5-.91-1.18,.15-.76,.38-1.51,.64-2.24,.82-2.27,1.68-4.53,2.51-6.8,.13-.35,.19-.73,.33-1.3-1.2,.46-1.78,1.36-2.62,2.05-.2-.18-.4-.37-.66-.61,1.49-1.87,2.98-3.66,5.45-4.18,1.59-.34,2.38,.46,1.85,1.99-.82,2.38-1.77,4.71-2.65,7.07-.3,.81-.55,1.63-.82,2.45,.08,.05,.17,.1,.25,.14Z"/>
  <path d="M8.46,1.83c1.12,.04,1.86,.76,1.85,1.8-.02,1.17-1.09,2.22-2.22,2.16-1.04-.05-1.7-.84-1.67-1.96,.03-1.16,.93-2.04,2.04-2Z"/>
  <path d="M20.98,14.23l.23,.49c-.85,.9-1.48,1.72-1.88,2.45s-.71,1.56-.92,2.48-.32,1.99-.32,3.21,.11,2.21,.33,3.13,.54,1.75,.96,2.51,1.03,1.56,1.83,2.4l-.23,.47c-.96-.85-1.69-1.57-2.18-2.17-.8-.97-1.41-1.99-1.82-3.05s-.62-2.18-.62-3.34,.19-2.23,.58-3.26,.96-2.01,1.71-2.94c.52-.65,1.3-1.44,2.33-2.38Z"/>
  <path d="M26.7,14.23c1.05,.95,1.81,1.72,2.3,2.31,.75,.93,1.33,1.91,1.73,2.96s.6,2.15,.6,3.3-.19,2.21-.57,3.22-.96,2-1.72,2.97c-.54,.69-1.32,1.48-2.32,2.37l-.23-.47c.8-.84,1.4-1.64,1.83-2.39s.74-1.6,.96-2.51,.33-1.96,.33-3.12-.11-2.29-.32-3.22-.52-1.75-.93-2.48-1.03-1.55-1.87-2.44l.23-.49Z"/>
</svg>