<?xml version="1.0" encoding="UTF-8"?>
<svg id="Layer_1" data-name="Layer 1" xmlns="http://www.w3.org/2000/svg" viewBox="0 0 32 32">
  <path d="M23.64,25.86c-.79,.01-1.44,.49-1.72,1.25-.47,1.27-.94,2.54-1.37,3.83-.14,.43-.35,.61-.8,.7-2.55,.53-5.09,.46-7.63-.09-.16-.03-.34-.23-.4-.4-.46-1.27-.89-2.56-1.34-3.84-.34-.98-1.12-1.44-2.15-1.27-1.38,.23-2.77,.43-4.15,.66-.31,.05-.51-.05-.71-.26-1.38-1.41-2.17-3.15-2.89-4.96-.29-.72-.1-1.14,.39-1.64,.79-.81,1.52-1.68,2.27-2.52,.74-.83,.75-1.65,.04-2.51-.86-1.05-1.72-2.09-2.6-3.13-.19-.22-.21-.4-.11-.69,.64-1.86,1.59-3.53,2.82-5.07,.41-.51,.81-.72,1.49-.57,1.16,.26,2.34,.41,3.52,.59,1.01,.16,1.86-.33,2.23-1.28,.49-1.26,.96-2.54,1.41-3.81,.1-.28,.25-.39,.54-.46,2.58-.6,5.15-.5,7.71,.05,.15,.03,.32,.22,.37,.37,.45,1.23,.89,2.46,1.32,3.7,.38,1.1,1.14,1.58,2.29,1.43,1.35-.17,2.69-.34,4.03-.53,.29-.04,.48,.03,.68,.23,1.1,1.1,1.77,2.46,2.38,3.86,.2,.46,.36,.93,.57,1.38,.12,.26,.07,.44-.11,.65-.86,1.03-1.72,2.06-2.57,3.1-.78,.95-.77,1.79,.02,2.72,.85,1,1.71,1.99,2.55,3,.1,.13,.19,.37,.14,.51-.66,1.8-1.44,3.54-2.69,5.04-.43,.52-.84,.77-1.57,.6-1.22-.28-2.46-.42-3.7-.62-.1-.02-.21-.02-.26-.03ZM5.04,7.64c-.07,.06-.24,.15-.32,.28-.48,.82-.95,1.64-1.39,2.48-.06,.12,.01,.38,.11,.5,.58,.72,1.18,1.41,1.78,2.11,1.4,1.67,1.4,3.97-.02,5.64-.58,.69-1.18,1.37-1.75,2.07-.1,.13-.2,.38-.14,.5,.44,.85,.92,1.69,1.4,2.52,.14,.24,.35,.27,.62,.22,1-.17,1.99-.33,3-.44,2.06-.23,3.91,.92,4.62,2.87,.31,.86,.59,1.74,.87,2.61,.08,.26,.19,.43,.48,.43,1.31,0,2.62,0,3.92,0,.28,0,.41-.15,.5-.42,.34-1,.7-1.99,1.08-2.97,.66-1.7,2.6-2.82,4.4-2.55,.98,.15,1.96,.32,2.95,.45,.15,.02,.39-.07,.47-.19,.45-.73,.85-1.49,1.28-2.23,.22-.38,.11-.65-.16-.96-.61-.69-1.21-1.38-1.77-2.12-1.23-1.62-1.16-3.79,.13-5.35,.59-.71,1.19-1.4,1.77-2.11,.09-.11,.15-.35,.09-.46-.46-.85-.93-1.69-1.44-2.5-.09-.14-.37-.25-.55-.24-.87,.07-1.74,.19-2.61,.3-2.32,.3-4.2-.85-4.97-3.06-.27-.77-.54-1.53-.8-2.31-.09-.26-.23-.39-.51-.42-1.25-.16-2.5-.16-3.75,0-.29,.04-.44,.18-.54,.46-.29,.82-.61,1.64-.92,2.45-.84,2.22-2.77,3.3-5.1,2.86-.87-.16-1.75-.28-2.74-.44Z"/>
  <g>
    <path d="M12.09,15.81c0-2.07,1.69-3.75,3.76-3.75,2.07,0,3.75,1.69,3.75,3.76,0,2.07-1.69,3.75-3.76,3.75-2.07,0-3.75-1.69-3.75-3.76Zm3.13-.86c0,.33,0,.65,0,.98,0,.22,.08,.4,.25,.55,.4,.35,.79,.7,1.19,1.04,.29,.25,.66,.24,.91-.03,.24-.27,.2-.64-.08-.9-.3-.27-.6-.54-.89-.82-.06-.06-.11-.17-.12-.26-.01-.51,0-1.02,0-1.52,0-.38-.27-.66-.62-.66-.36,0-.62,.28-.62,.66,0,.33,0,.65,0,.98Z"/>
    <path d="M12.23,21.29c.71,.46,1.41,.77,2.17,.93,3.35,.72,6.59-1.11,7.69-4.36,.43-1.27,.44-2.56,.08-3.85-.09-.31-.04-.51,.17-.64,.27-.17,.61-.04,.7,.27,.25,.84,.36,1.69,.31,2.57-.1,1.63-.65,3.09-1.7,4.35-1.34,1.61-3.05,2.53-5.14,2.72-1.75,.16-3.36-.27-4.82-1.23-.03-.02-.06-.03-.07-.04-.39,.38-.78,.76-1.17,1.14-.18,.17-.35,.22-.55,.13-.17-.08-.28-.22-.28-.41-.01-.94-.03-1.88-.03-2.82,0-.29,.19-.48,.48-.48,.93,0,1.86,0,2.8,0,.2,0,.35,.09,.44,.28,.09,.19,.05,.38-.09,.52-.31,.31-.63,.6-.97,.93Z"/>
    <path d="M19.44,10.32c-.55-.37-1.11-.63-1.71-.8-3.45-1.01-6.99,.84-8.13,4.25-.42,1.26-.44,2.54-.08,3.83,.03,.1,.06,.2,.05,.3-.02,.23-.2,.4-.42,.42-.23,.02-.44-.12-.49-.36-.1-.44-.22-.87-.27-1.32-.2-1.79,.19-3.45,1.19-4.95,1.3-1.93,3.11-3.06,5.43-3.34,1.79-.21,3.44,.2,4.95,1.18,.05,.03,.1,.06,.18,.11,.18-.19,.36-.39,.55-.58,.21-.21,.42-.43,.64-.63,.14-.14,.32-.18,.5-.09,.18,.08,.28,.22,.28,.41,0,.95,0,1.9,0,2.86,0,.25-.2,.45-.45,.45-.95,0-1.89,0-2.84,0-.2,0-.35-.1-.42-.29-.08-.19-.04-.36,.1-.5,.31-.31,.62-.61,.96-.94Z"/>
  </g>
</svg>