<?xml version="1.0" encoding="UTF-8"?>
<svg id="Layer_1" data-name="Layer 1" xmlns="http://www.w3.org/2000/svg" viewBox="0 0 32 32">
  <path d="M28.88,19.03c-1.69,0-3.06-1.37-3.06-3.06s1.37-3.06,3.06-3.06c1.69,0,3.06,1.37,3.06,3.06h0c0,1.69-1.37,3.06-3.06,3.06Zm0-4.67c-.89,0-1.61,.72-1.61,1.61s.72,1.61,1.61,1.61c.89,0,1.61-.72,1.61-1.61h0c0-.89-.72-1.6-1.61-1.61h0Z"/>
  <rect x="23.64" y="15.24" width="2.91" height="1.45"/>
  <path d="M3.01,19.03C1.31,19.03-.06,17.66-.06,15.97c0-1.69,1.37-3.06,3.06-3.06s3.06,1.37,3.06,3.06c0,0,0,0,0,0,0,1.69-1.37,3.06-3.06,3.06Zm0-4.67c-.89,0-1.61,.72-1.61,1.61s.72,1.61,1.61,1.61,1.61-.72,1.61-1.61c0-.89-.72-1.6-1.61-1.6h0Z"/>
  <rect x="5.34" y="15.24" width="2.91" height="1.45"/>
  <path d="M9.39,30.18c-1.69,0-3.06-1.38-3.05-3.07,0-1.69,1.38-3.06,3.07-3.05,1.69,0,3.06,1.38,3.05,3.07,0,.54-.15,1.08-.42,1.55-.55,.94-1.56,1.52-2.64,1.51Zm0-4.67c-.89,0-1.61,.72-1.61,1.6,0,.89,.72,1.61,1.6,1.61,.89,0,1.61-.72,1.61-1.6,0-.57-.3-1.1-.79-1.39h0c-.24-.14-.52-.22-.8-.22h-.01Z"/>
  <rect x="9.86" y="23.13" width="2.91" height="1.45" transform="translate(-14.99 21.53) rotate(-59.58)"/>
  <path d="M22.49,7.87c-.54,0-1.07-.14-1.54-.41h0c-1.46-.85-1.96-2.73-1.11-4.19,.85-1.46,2.73-1.96,4.19-1.11,1.46,.85,1.96,2.73,1.11,4.19-.55,.94-1.56,1.53-2.65,1.53Zm-.81-1.67c.76,.45,1.75,.2,2.2-.56,.45-.76,.2-1.75-.56-2.2-.76-.45-1.75-.2-2.2,.56,0,0,0,0,0,0-.45,.76-.19,1.75,.57,2.2h0Z"/>
  <rect x="19.12" y="7.35" width="2.91" height="1.45" transform="translate(3.19 21.73) rotate(-59.58)"/>
  <path d="M22.49,30.2c-1.69,0-3.06-1.37-3.06-3.06,0-1.09,.58-2.09,1.51-2.64h0c1.46-.85,3.33-.36,4.18,1.1,.85,1.46,.36,3.33-1.1,4.18-.46,.27-.99,.41-1.53,.42Zm0-4.67c-.28,0-.56,.08-.81,.22h0c-.76,.45-1.02,1.43-.57,2.2,.45,.76,1.43,1.02,2.2,.57,.76-.45,1.02-1.43,.57-2.2-.22-.37-.57-.63-.98-.74-.14-.04-.28-.05-.42-.05h.01Z"/>
  <rect x="19.84" y="22.41" width="1.45" height="2.91" transform="translate(-9.24 13.66) rotate(-30.34)"/>
  <path d="M9.41,7.86c-.26,0-.53-.03-.78-.1-1.63-.43-2.61-2.1-2.19-3.73,.43-1.63,2.1-2.61,3.73-2.19,1.63,.43,2.61,2.1,2.19,3.73-.21,.78-.71,1.46-1.41,1.87h0c-.47,.27-1,.42-1.54,.42Zm0-4.67c-.89,0-1.61,.71-1.61,1.6,0,.89,.71,1.61,1.6,1.61,.29,0,.57-.08,.82-.22h0c.77-.45,1.02-1.43,.57-2.2-.29-.49-.82-.79-1.4-.79h.01Z"/>
  <rect x="10.6" y="6.61" width="1.45" height="2.91" transform="translate(-2.52 6.82) rotate(-30.34)"/>
  <path d="M15.77,23.08c-.28,0-.55,0-.83,0-.9,0-1.4-.6-1.24-1.49,.05-.31,.08-.61-.12-.89-.34-.47-.98-.59-1.45-.24-.13,.1-.25,.2-.39,.29-.54,.37-1.27,.24-1.61-.32-.36-.57-.7-1.16-1.02-1.75-.32-.6-.08-1.29,.54-1.58,.16-.08,.33-.13,.48-.21,.37-.18,.59-.47,.58-.88,0-.42-.19-.74-.59-.92-.14-.06-.28-.12-.43-.18-.63-.26-.92-.99-.6-1.59,.33-.61,.68-1.2,1.04-1.79,.32-.51,1.02-.65,1.55-.33,.16,.1,.3,.23,.46,.34,.35,.26,.74,.26,1.12,.02,.37-.23,.52-.58,.48-1-.03-.27-.06-.55-.01-.81,.1-.51,.56-.86,1.08-.87,.66,0,1.31-.01,1.97,0,.69,.01,1.2,.62,1.13,1.31-.01,.14-.04,.28-.06,.42-.06,.38,.07,.68,.38,.9,.33,.24,.69,.32,1.07,.12,.15-.08,.29-.2,.43-.31,.62-.48,1.38-.36,1.78,.3,.33,.53,.64,1.08,.94,1.62,.36,.66,.09,1.39-.6,1.68-.19,.08-.4,.15-.57,.26-.62,.41-.54,1.37,.14,1.69,.16,.08,.34,.14,.51,.21,.59,.26,.88,.95,.58,1.52-.33,.64-.7,1.27-1.09,1.88-.32,.5-1.01,.6-1.53,.29-.13-.08-.25-.18-.37-.28-.39-.3-.79-.33-1.19-.09-.4,.24-.56,.61-.48,1.08,.07,.39,.09,.77-.16,1.11-.23,.32-.53,.5-.93,.5-.33,0-.66,0-.99,0Zm.02-13.33c-.26,0-.52,0-.78,0-.39,0-.44,.06-.4,.44,0,.06,0,.13,.02,.19,.13,.8-.21,1.51-.93,1.95-.67,.41-1.49,.38-2.12-.09-.11-.08-.22-.17-.33-.26-.16-.13-.28-.11-.38,.06-.31,.53-.62,1.06-.92,1.59-.1,.17-.05,.29,.13,.38,.17,.08,.34,.14,.5,.22,1.21,.6,1.43,2.29,.4,3.15-.25,.21-.58,.33-.88,.48-.2,.1-.26,.2-.15,.38,.3,.53,.61,1.06,.92,1.59,.09,.16,.22,.18,.37,.07,.12-.09,.24-.19,.37-.28,1.09-.78,2.72-.17,3,1.14,.07,.31,.02,.64,0,.96-.01,.32,.05,.41,.37,.41,.49,0,.97,0,1.46,0,.57,0,.6-.04,.51-.59-.12-.78,.14-1.41,.77-1.86,.65-.46,1.35-.53,2.07-.15,.2,.1,.36,.27,.54,.4,.16,.12,.28,.1,.37-.06,.32-.53,.63-1.07,.93-1.61,.1-.17,.05-.3-.13-.38-.13-.06-.26-.11-.39-.16-.73-.31-1.13-.88-1.17-1.66-.04-.82,.31-1.44,1.05-1.82,.17-.09,.35-.15,.52-.23,.15-.07,.21-.19,.12-.35-.31-.54-.62-1.09-.94-1.63-.09-.15-.21-.17-.36-.06-.1,.08-.2,.16-.3,.23-1.09,.84-2.75,.28-3.06-1.06-.07-.31-.02-.66,0-.98,.02-.33-.04-.41-.37-.41-.28,0-.55,0-.83,0Z"/>
  <path d="M15.78,19.01c-1.68,0-3.04-1.38-3.03-3.07,0-1.65,1.39-3.03,3.05-3.01,1.62,.02,3.02,1.27,3.03,3.07,0,1.66-1.39,3.02-3.05,3.01Zm-.02-.93c1.13,.03,2.11-.93,2.14-2.07,.03-1.14-.92-2.12-2.08-2.15-1.12-.02-2.1,.91-2.13,2.03-.03,1.18,.9,2.16,2.08,2.19Z"/>
</svg>