<?xml version="1.0" encoding="UTF-8"?>
<svg id="Layer_1" data-name="Layer 1" xmlns="http://www.w3.org/2000/svg" viewBox="0 0 32 32">
  <path d="M27.93,6.06c.46,0,.85,0,1.23,0,.49,0,.77,.22,.77,.73,0,.83,0,1.67,0,2.5,0,.51-.26,.74-.76,.74-.39,0-.77,0-1.2,0v4.02c.41,0,.81,0,1.21,0,.5,0,.75,.25,.75,.75,0,.83,0,1.67,0,2.5,0,.48-.25,.71-.72,.72-.4,0-.81,0-1.24,0v4.03c.43,0,.83,0,1.24,0,.47,0,.72,.24,.73,.72,0,.85,0,1.7,0,2.55,0,.48-.27,.7-.74,.7-.39,0-.78,0-1.26,0,0,.54,0,1.05,0,1.56,0,.48,0,.96,0,1.44-.02,1.73-1.3,3-3.03,3-6.61,0-13.22,0-19.83,0-1.81,0-3.07-1.25-3.1-3.06-.02-1.13,0-2.26,0-3.39,0-7.39,.03-14.77-.02-22.16C1.93,1.3,3.46,.02,5.32,.04c6.48,.06,12.96,.02,19.44,.02,1.93,0,3.16,1.22,3.17,3.14,0,.92,0,1.85,0,2.86Zm-3.01,22.98V3.08H4.97V29.04H24.93Z"/>
  <path d="M14.93,24.04c-1.81,0-3.63,0-5.44,0-1.04,0-1.52-.48-1.52-1.52,0-2.39,.89-3.71,2.89-4.28,.71-.2,1.4-.23,2.12,0,1.32,.43,2.65,.4,3.98,.01,2.54-.74,4.98,1.08,4.98,3.7,0,.15,0,.3,0,.44,0,1.24-.41,1.64-1.67,1.64-1.78,0-3.55,0-5.33,0Z"/>
  <path d="M18.93,12.08c0,2.18-1.82,3.97-4.01,3.96-2.13,0-3.95-1.85-3.95-3.98,0-2.18,1.86-4.01,4.06-3.99,2.12,.02,3.92,1.86,3.91,4.01Z"/>
</svg>