<?xml version="1.0" encoding="UTF-8"?>
<svg id="Layer_1" data-name="Layer 1" xmlns="http://www.w3.org/2000/svg" viewBox="0 0 32 32">
  <path d="M10.16,6.01c0-.99,0-1.9,0-2.81C10.17,1.25,11.41,0,13.36,0c3.46,0,6.93,0,10.39,0,.94,0,1.73,.31,2.39,.98,1.02,1.03,2.04,2.05,3.07,3.07,.64,.63,.95,1.38,.95,2.29,0,5.52,0,11.04,0,16.56,0,1.85-1.26,3.1-3.1,3.1-1.61,0-3.22,0-4.9,0,0,1.02,0,2,0,2.97-.01,1.54-.95,2.68-2.45,2.99-.21,.04-.44,.04-.66,.04-4.56,0-9.11,0-13.67,0-1.94,0-3.19-1.24-3.19-3.2,0-4.85,0-9.71,0-14.56,0-1.67,0-3.33,0-5,0-2,1.23-3.23,3.22-3.23,1.57,0,3.14,0,4.79,0Zm17.01,3.98c-1.81,0-3.55,0-5.29,0-1.13,0-1.71-.57-1.71-1.71,0-1.56,0-3.11,0-4.67,0-.2-.02-.39-.03-.63-.19,0-.34,0-.48,0-1.94,0-3.89,.02-5.83-.01-.55,0-.7,.19-.7,.71,.01,6.2,0,12.41,0,18.61,0,.68,.04,.72,.72,.72,4.2,0,8.41,0,12.61,0,.69,0,.7-.02,.71-.73,0-3.54,0-7.07,0-10.61,0-.54,0-1.07,0-1.69Zm-17.01-1c-1.45,0-2.83,0-4.22,0-.82,0-.82,0-.82,.8,0,6.15,0,12.3,0,18.45,0,.77,.01,.79,.77,.79,4.17,0,8.34,0,12.51,0,.13,0,.28,.04,.38-.01,.14-.07,.35-.21,.35-.33,.03-.88,.02-1.76,.02-2.68-1.92,0-3.78-.07-5.62,.02-1.91,.09-3.42-1.28-3.39-3.37,.06-4.32,.02-8.63,.02-12.95,0-.22,0-.43,0-.71Zm13-2.01h3.95c.15-.48,.01-.82-.33-1.15-.84-.8-1.67-1.63-2.47-2.47-.33-.35-.68-.45-1.15-.32v3.94Z"/>
</svg>