<?xml version="1.0" encoding="UTF-8"?>
<svg id="Layer_1" data-name="Layer 1" xmlns="http://www.w3.org/2000/svg" viewBox="0 0 32 32">
  <path d="M32,16c0,8.84-7.16,16-16,16S0,24.84,0,16,7.16,0,16,0s16,7.16,16,16Zm-13.14,0l3.95-5.3c.31-.42,.46-.92,.46-1.38,0-.69-.31-1.34-.88-1.77-.42-.31-.88-.42-1.34-.42-.69,0-1.38,.31-1.81,.88l-3.18,4.26-3.3-4.41c-.42-.58-1.11-.88-1.8-.88-.46,0-.92,.15-1.34,.46-.58,.42-.88,1.11-.88,1.8,0,.46,.15,.92,.46,1.3l4.07,5.45-4.07,5.45c-.31,.42-.46,.88-.46,1.34,0,.69,.31,1.34,.88,1.77,.42,.31,.88,.46,1.34,.46,.69,0,1.34-.31,1.8-.88l3.3-4.41,3.18,4.26c.46,.61,1.11,.92,1.81,.92,.46,0,.92-.15,1.34-.46,.58-.42,.88-1.08,.88-1.77,0-.46-.15-.96-.46-1.38l-3.95-5.3Z"/>
</svg>