<?xml version="1.0" encoding="UTF-8"?>
<svg id="Layer_1" data-name="Layer 1" xmlns="http://www.w3.org/2000/svg" viewBox="0 0 32 32">
  <path d="M28.08,25.39c.55,.75,.82,1.64,.82,2.45,0,1.23-.54,2.38-1.57,3.13-.75,.54-1.56,.81-2.38,.81-1.23,0-2.38-.54-3.2-1.63l-5.65-7.56-5.85,7.83c-.82,1.02-1.97,1.57-3.2,1.57-.82,0-1.64-.27-2.38-.82-1.02-.75-1.57-1.9-1.57-3.13,0-.81,.27-1.63,.82-2.38l7.21-9.67L3.92,6.33c-.55-.68-.82-1.5-.82-2.31,0-1.23,.55-2.45,1.57-3.2,.75-.54,1.56-.81,2.38-.81,1.23,0,2.45,.54,3.2,1.57l5.85,7.83L21.75,1.84c.75-1.02,1.97-1.57,3.2-1.57,.81,0,1.63,.21,2.38,.75,1.03,.75,1.57,1.91,1.57,3.13,0,.82-.27,1.7-.82,2.45l-7.01,9.4,7.01,9.39Z"/>
</svg>