<?xml version="1.0" encoding="UTF-8"?>
<svg id="Layer_1" data-name="Layer 1" xmlns="http://www.w3.org/2000/svg" viewBox="0 0 32 32">
  <path d="M32,22.35c-.27-4.31-2.05-8.32-5.02-11.28-2.98-2.98-6.88-4.62-10.97-4.62s-7.99,1.64-10.97,4.62C2.06,14.03,.27,18.04,0,22.35c-.03,.5,.13,.97,.45,1.33,.33,.37,.79,.58,1.27,.58h7.68c.65,0,1.2-.55,1.26-1.24,.23-2.93,2.57-5.23,5.34-5.23,.43,0,.84,.06,1.24,.16,.18-.21,.37-.43,.55-.64-.57-.19-1.17-.29-1.8-.29-3.19,0-5.81,2.61-6.06,5.93-.02,.3-.25,.54-.54,.54H1.72c-.57,0-1.03-.49-1-1.1C1.25,13.92,7.89,7.21,16,7.21s14.75,6.7,15.28,15.18c.04,.6-.43,1.1-1,1.1h-7.68c-.28,0-.51-.24-.54-.54-.11-1.37-.62-2.62-1.41-3.62-.1,.28-.21,.56-.31,.84,.55,.81,.91,1.79,1,2.84,.05,.7,.61,1.24,1.26,1.24h7.68c.48,0,.94-.21,1.27-.58,.32-.36,.48-.84,.45-1.33Z"/>
  <path d="M11.23,9.66c.67-.34,1.36-.58,2.06-.68,.14-.02,.27,.06,.3,.17l1.45,5.96-1.26,.36-2.68-5.53c-.05-.1,0-.23,.12-.29Z"/>
  <path d="M5.64,14.19c.44-.62,.94-1.14,1.51-1.55,.12-.08,.27-.07,.35,.01l4.04,4.61-.95,.91-4.93-3.66c-.09-.07-.1-.21-.02-.32Z"/>
  <path d="M2.94,19.45c.19-.73,.46-1.4,.85-1.99,.08-.12,.23-.17,.33-.11l5.44,2.84-.56,1.19-5.93-1.63c-.11-.03-.17-.16-.14-.29Z"/>
  <path d="M19.85,8.99c.76,.13,1.46,.34,2.06,.67,.12,.07,.17,.21,.11,.31l-3.19,5.51-1.23-.45,1.94-5.89c.04-.11,.17-.18,.31-.16Z"/>
  <path d="M26.06,12.61c.62,.46,1.14,.97,1.53,1.55,.08,.12,.05,.26-.05,.33l-5.36,3.41-.88-.97,4.43-4.32c.08-.08,.23-.08,.35,0Z"/>
  <path d="M28.69,17.77c.41,.66,.71,1.32,.86,2,.03,.14-.04,.26-.16,.29l-6.22,1.25-.48-1.22,5.68-2.43c.11-.05,.25,0,.32,.13Z"/>
  <path d="M21.96,15.11c.04-.14-.1-.26-.22-.18-1.06,.69-6.98,6.54-7.32,7.02-.68,.97-.51,2.33,.38,3.05,.89,.72,2.16,.52,2.84-.45,.34-.48,3.99-8.16,4.33-9.44Z"/>
</svg>