<?xml version="1.0" encoding="UTF-8"?>
<svg id="Layer_1" data-name="Layer 1" xmlns="http://www.w3.org/2000/svg" viewBox="0 0 32 32">
  <path d="M26.49,15.02v1.69c-.07,0-.15,0-.22,0-1,0-2,0-3,0-.15,0-.18,.05-.14,.18,.05,.17,.09,.34,.12,.51,.11,.87,.05,1.74-.17,2.58-.04,.16,0,.18,.14,.17,.55,0,1.11-.02,1.66,0,.72,.03,1.21,.42,1.5,1.08,.05,.11,.04,.23,.12,.33,0,1.48,0,2.96,0,4.44,0,.12-.02,.15-.14,.14-.53,0-1.06,0-1.58,0,0-.02,0-.04,0-.06,0-1.36,0-2.72,0-4.08,0-.15-.06-.16-.18-.16-.7,0-1.4,0-2.1,0-.16,0-.24,.05-.33,.18-1.6,2.34-3.82,3.45-6.64,3.21-2.26-.2-4.02-1.34-5.27-3.24-.07-.11-.14-.15-.27-.15-.71,0-1.43,0-2.14,0-.14,0-.18,.04-.18,.18,0,.67,0,1.34,0,2.01,0,.7,0,1.41,0,2.11h-1.72c0-1.4,0-2.8,0-4.2,0-1.07,.72-1.79,1.78-1.8,.5,0,1,0,1.5,0,.15,0,.17-.03,.13-.18-.25-1.01-.33-2.03-.07-3.06,.05-.19,0-.21-.17-.21-1,0-2.01,0-3.01,0-.14,0-.18-.03-.18-.17,0-.45,.01-.9,0-1.35,0-.16,.04-.2,.2-.19,1.15,0,2.3,0,3.45,0,.13,0,.2-.03,.23-.17,.25-1.03,.51-2.06,.78-3.09,.04-.15,.01-.19-.14-.18-.89,0-1.78-.02-2.67,0-1.08,.04-1.87-.81-1.85-1.85,.03-1.39,0-2.77,0-4.16,.57,0,1.15,0,1.72,0,0,.02,0,.04,0,.06,0,1.36,0,2.72,0,4.08,0,.15,.07,.15,.18,.15,1.02,0,2.05,0,3.07,0,.15,0,.23-.04,.3-.19,.98-2.19,3.32-3.53,5.66-3.21,2.04,.28,3.5,1.38,4.39,3.24,.05,.11,.11,.16,.23,.16,1.04,0,2.07,0,3.11,0,.14,0,.18-.03,.18-.18,0-.68,0-1.35,0-2.03,0-.7,0-1.39,0-2.09,.53,0,1.06,0,1.58,0,.12,0,.14,.02,.14,.14,0,1.49,0,2.99,0,4.48-.03,0-.04,.03-.05,.06-.32,.93-.86,1.32-1.84,1.32-.88,0-1.76,0-2.65,0-.13,0-.17,.01-.13,.16,.27,1.04,.53,2.08,.79,3.13,.03,.13,.09,.15,.2,.15,.35,0,.7,0,1.04,0,.88,0,1.75,0,2.63,0Z"/>
  <path d="M23.86,32H8.24C3.73,32,.05,28.32,.05,23.8V8.19C.05,3.67,3.73,0,8.24,0h15.62C28.38,0,32.05,3.67,32.05,8.19v15.62c0,4.52-3.67,8.19-8.19,8.19ZM8.24,2.91c-2.91,0-5.28,2.37-5.28,5.28v15.62c0,2.91,2.37,5.28,5.28,5.28h15.62c2.91,0,5.28-2.37,5.28-5.28V8.19c0-2.91-2.37-5.28-5.28-5.28H8.24Z"/>
</svg>