<?xml version="1.0" encoding="UTF-8"?>
<svg id="Layer_1" data-name="Layer 1" xmlns="http://www.w3.org/2000/svg" viewBox="0 0 32 32">
  <path d="M28.66,4.87c-.54,0-.97,0-1.4,0-.64-.01-1.09-.41-1.1-.97,0-.53,.42-.95,1.04-.97,1.27-.03,2.55-.02,3.82,0,.55,0,.93,.36,.95,.93,.03,1.31,.03,2.62,0,3.93-.01,.58-.46,.97-.98,.96-.55-.01-.92-.42-.93-1.06,0-.43,0-.86,0-1.39-.2,.18-.33,.28-.44,.39-2.83,2.83-5.66,5.66-8.49,8.48-.63,.63-.63,1.07,.02,1.71,3.41,3.41,6.81,6.82,10.22,10.23,.68,.68,.78,1.28,.3,1.73-.47,.44-.98,.33-1.67-.37-3.41-3.41-6.81-6.82-10.22-10.23-1.41-1.41-1.41-3.04,0-4.45,2.8-2.8,5.61-5.61,8.41-8.41,.14-.14,.26-.28,.48-.51Z"/>
  <path d="M1.93,6.26c0,.59,0,1.02,0,1.46-.02,.59-.39,.99-.93,1.01-.53,.02-.97-.36-.98-.95-.03-1.31-.03-2.62,0-3.93,.01-.59,.4-.92,1-.93,1.24-.01,2.47-.02,3.71,0,.66,0,1.1,.42,1.1,.97,0,.56-.47,.96-1.16,.97-.4,0-.8,0-1.33,0,.19,.21,.31,.34,.44,.47,2.8,2.8,5.61,5.6,8.41,8.41,1.43,1.44,1.44,3.06,.02,4.49-3.44,3.45-6.89,6.9-10.33,10.34-.1,.1-.2,.21-.32,.3-.4,.31-.88,.29-1.24-.06-.35-.35-.42-.76-.16-1.19,.12-.2,.29-.37,.46-.54,3.38-3.38,6.76-6.77,10.14-10.15,.77-.77,.77-1.13,0-1.91-2.77-2.76-5.53-5.53-8.3-8.29-.14-.14-.28-.27-.52-.49Z"/>
  <path d="M14.88,3.41c-.35,.37-.69,.75-1.05,1.11-.46,.45-1,.47-1.4,.08-.39-.38-.41-.98,.02-1.41,.94-.96,1.89-1.92,2.86-2.85,.44-.43,.97-.42,1.41,0,.96,.94,1.92,1.89,2.85,2.85,.42,.43,.4,1.04,0,1.41-.39,.37-.93,.36-1.36-.06-.38-.36-.73-.75-1.22-1.09v.62c0,8.82,0,17.64,0,26.46,0,.2,.01,.4-.02,.6-.07,.51-.49,.86-.97,.86-.49,0-.89-.36-.96-.87-.03-.2-.01-.4-.01-.6,0-8.82,0-17.64,0-26.46v-.59s-.09-.05-.14-.07Z"/>
</svg>