<?xml version="1.0" encoding="UTF-8"?>
<svg id="Layer_1" data-name="Layer 1" xmlns="http://www.w3.org/2000/svg" viewBox="0 0 32 32">
  <path d="M17.82,0c.51,.13,1.04,.2,1.53,.38,2.22,.81,3.64,2.38,4.26,4.66,.06,.23,.16,.29,.38,.29,1.25,0,2.5-.01,3.75,0,1,0,1.65,.88,1.33,1.78-.19,.53-.67,.88-1.24,.89-.43,0-.87,0-1.34,0v.42c0,5.59,.02,11.19-.01,16.78-.02,2.92-1.41,5.03-4.07,6.26-.84,.39-1.75,.54-2.67,.53-2.6,0-5.21,0-7.81,0-3.83,0-6.77-2.93-6.78-6.76,0-5.37,0-10.75,0-16.12,0-.35,0-.71,0-1.11-.45,0-.88,0-1.31,0-.84-.01-1.42-.67-1.33-1.5,.07-.67,.64-1.16,1.39-1.17,1.24,0,2.48,0,3.72,0,.25,0,.35-.05,.42-.32C8.72,2.35,10.93,.41,13.65,.06,13.71,.05,13.76,.02,13.82,0c1.33,0,2.67,0,4,0ZM7.82,8.01v.33c0,5.64,0,11.27,0,16.91,0,2.33,1.73,4.08,4.06,4.08,2.62,.01,5.25,0,7.87,0,2.34,0,4.07-1.75,4.07-4.11,0-5.62,0-11.25,0-16.87,0-.11,0-.22,0-.34H7.82Zm13.05-2.69s.01-.07,0-.09c0-.03-.02-.06-.03-.09-.67-1.47-1.8-2.33-3.41-2.44-1.03-.07-2.06-.05-3.09,0-1.61,.07-2.76,.87-3.48,2.3-.05,.1-.08,.2-.13,.33h10.14Z"/>
  <path d="M15.81,23.67c-2.09,0-4.19,0-6.28,0-.7,0-1.22-.4-1.3-1.09-.03-.27,.04-.59,.17-.83,2.07-3.56,4.15-7.12,6.23-10.67,.55-.94,1.74-.94,2.29,0,2.09,3.56,4.17,7.12,6.25,10.69,.53,.91-.05,1.9-1.1,1.9-2.09,0-4.19,0-6.28,0Zm-.04-11.74c-2.01,3.45-4,6.87-6,10.3h12.05c-2.02-3.44-4.02-6.85-6.06-10.3Z"/>
  <path d="M15.1,16.31c0-.45,0-.9,0-1.35,0-.47,.26-.77,.68-.79,.4-.02,.72,.3,.73,.77,.01,.91,.01,1.81,0,2.72,0,.48-.31,.79-.72,.77-.42-.01-.68-.32-.68-.81,0-.44,0-.88,0-1.32Z"/>
  <path d="M15.81,19.45c.51,0,.9,.4,.9,.92,0,.51-.41,.92-.91,.92-.51,0-.91-.4-.91-.92,0-.54,.38-.93,.92-.93Z"/>
</svg>