<?xml version="1.0" encoding="UTF-8"?>
<svg id="Layer_1" data-name="Layer 1" xmlns="http://www.w3.org/2000/svg" viewBox="0 0 32 32">
  <path d="M18.01,0c.51,.13,1.04,.2,1.53,.38,2.22,.81,3.64,2.38,4.26,4.66,.06,.23,.16,.29,.38,.29,1.25,0,2.5-.01,3.75,0,1,0,1.65,.88,1.33,1.78-.19,.53-.67,.88-1.24,.89-.43,0-.87,0-1.34,0v.42c0,5.59,.02,11.19-.01,16.78-.02,2.92-1.41,5.03-4.07,6.26-.84,.39-1.75,.54-2.67,.53-2.6,0-5.21,0-7.81,0-3.83,0-6.77-2.93-6.78-6.76,0-5.37,0-10.75,0-16.12,0-.35,0-.71,0-1.11-.45,0-.88,0-1.31,0-.84-.01-1.42-.67-1.33-1.5,.07-.67,.64-1.16,1.39-1.17,1.24,0,2.48,0,3.72,0,.25,0,.35-.05,.42-.32C8.9,2.35,11.12,.41,13.84,.06c.06,0,.11-.04,.17-.06,1.33,0,2.67,0,4,0ZM8.01,8.01v.33c0,5.64,0,11.27,0,16.91,0,2.33,1.73,4.08,4.06,4.08,2.62,.01,5.25,0,7.87,0,2.34,0,4.07-1.75,4.07-4.11,0-5.62,0-11.25,0-16.87,0-.11,0-.22,0-.34H8.01Zm13.05-2.69s.01-.07,0-.09c0-.03-.02-.06-.03-.09-.67-1.47-1.8-2.33-3.41-2.44-1.03-.07-2.06-.05-3.09,0-1.61,.07-2.76,.87-3.48,2.3-.05,.1-.08,.2-.13,.33h10.14Z"/>
  <path d="M18.94,22.61c-.6,0-1.17-.12-1.72-.34-.39-.15-.54-.46-.4-.8,.13-.33,.4-.42,.8-.27,2.42,.9,4.98-.86,5.01-3.44,.03-2.13-1.85-3.89-3.95-3.71-2.29,.2-3.78,2.2-3.34,4.49,.08,.41-.08,.69-.42,.76-.33,.07-.6-.14-.69-.54-.57-2.49,1.04-5.1,3.53-5.72,2.74-.68,5.41,1.02,5.96,3.8,.52,2.6-1.39,5.29-4.02,5.67-.25,.03-.49,.05-.74,.08Z"/>
  <path d="M13.06,13.09c.59,.02,1.15,.12,1.7,.34,.38,.15,.52,.44,.39,.78-.12,.32-.41,.44-.79,.29-2.19-.85-4.5,.56-4.96,2.76-.41,1.94,.96,3.98,2.95,4.33,2.4,.42,4.52-1.43,4.4-3.84-.01-.22-.07-.44-.09-.66-.06-.49,.3-.83,.73-.69,.22,.07,.33,.24,.38,.45,.63,2.79-1.22,5.38-3.82,5.87-2.65,.51-5.19-1.27-5.67-3.87-.5-2.73,1.41-5.3,4.04-5.66,.25-.03,.5-.05,.74-.07Z"/>
</svg>