<?xml version="1.0" encoding="UTF-8"?>
<svg id="Layer_1" data-name="Layer 1" xmlns="http://www.w3.org/2000/svg" viewBox="0 0 32 32">
  <path d="M18,0c.51,.13,1.04,.2,1.53,.38,2.22,.81,3.64,2.38,4.26,4.66,.06,.23,.16,.29,.38,.29,1.25,0,2.5-.01,3.75,0,1,0,1.65,.88,1.33,1.78-.19,.53-.67,.88-1.24,.89-.43,0-.87,0-1.34,0v.42c0,5.59,.02,11.19-.01,16.78-.02,2.92-1.41,5.03-4.07,6.26-.84,.39-1.75,.54-2.67,.53-2.6,0-5.21,0-7.81,0-3.83,0-6.77-2.93-6.78-6.76,0-5.37,0-10.75,0-16.12,0-.35,0-.71,0-1.11-.45,0-.88,0-1.31,0-.84-.01-1.42-.67-1.33-1.5,.07-.67,.64-1.16,1.39-1.17,1.24,0,2.48,0,3.72,0,.25,0,.35-.05,.42-.32C8.89,2.35,11.1,.41,13.82,.06c.06,0,.11-.04,.17-.06,1.33,0,2.67,0,4,0ZM8,8.01v.33c0,5.64,0,11.27,0,16.91,0,2.33,1.73,4.08,4.06,4.08,2.62,.01,5.25,0,7.87,0,2.34,0,4.07-1.75,4.07-4.11,0-5.62,0-11.25,0-16.87,0-.11,0-.22,0-.34H8Zm13.05-2.69s.01-.07,0-.09c0-.03-.02-.06-.03-.09-.67-1.47-1.8-2.33-3.41-2.44-1.03-.07-2.06-.05-3.09,0-1.61,.07-2.76,.87-3.48,2.3-.05,.1-.08,.2-.13,.33h10.14Z"/>
  <g>
    <path d="M12.24,18.33c0-2.05,1.67-3.71,3.72-3.71,2.05,0,3.71,1.67,3.71,3.72,0,2.05-1.67,3.71-3.72,3.71-2.05,0-3.71-1.67-3.71-3.72Zm3.1-.86c0,.32,0,.64,0,.97,0,.22,.08,.4,.25,.54,.39,.34,.79,.69,1.18,1.03,.29,.25,.66,.24,.9-.03,.23-.26,.2-.64-.08-.89-.3-.27-.6-.53-.88-.81-.06-.06-.11-.17-.11-.26-.01-.5,0-1.01,0-1.51,0-.38-.27-.65-.62-.65-.35,0-.62,.27-.62,.65,0,.32,0,.64,0,.97Z"/>
    <path d="M12.37,23.76c.7,.46,1.4,.76,2.15,.92,3.32,.71,6.52-1.1,7.61-4.31,.43-1.26,.44-2.53,.08-3.81-.09-.31-.04-.51,.17-.63,.27-.17,.6-.04,.7,.27,.25,.83,.36,1.68,.3,2.54-.1,1.61-.65,3.06-1.68,4.3-1.32,1.59-3.02,2.5-5.09,2.69-1.73,.16-3.32-.27-4.77-1.22-.03-.02-.05-.03-.07-.04-.39,.38-.77,.75-1.15,1.13-.18,.17-.35,.22-.54,.13-.17-.08-.27-.21-.28-.41-.01-.93-.03-1.86-.03-2.79,0-.28,.19-.48,.47-.48,.92,0,1.84,0,2.77,0,.2,0,.35,.09,.43,.27,.09,.19,.05,.37-.09,.52-.31,.3-.62,.6-.96,.92Z"/>
    <path d="M19.51,12.9c-.55-.36-1.1-.62-1.69-.79-3.41-1-6.92,.83-8.05,4.2-.42,1.25-.43,2.52-.08,3.79,.03,.1,.06,.2,.05,.3-.02,.23-.2,.39-.42,.41-.23,.02-.43-.11-.49-.35-.1-.43-.22-.87-.26-1.3-.19-1.77,.19-3.42,1.18-4.9,1.28-1.91,3.08-3.03,5.37-3.31,1.77-.21,3.4,.2,4.9,1.17,.05,.03,.1,.06,.18,.11,.18-.19,.36-.38,.54-.57,.21-.21,.42-.42,.63-.63,.14-.14,.31-.17,.5-.09,.17,.08,.28,.21,.28,.41,0,.94,0,1.88,0,2.83,0,.25-.2,.44-.45,.44-.94,0-1.87,0-2.81,0-.2,0-.34-.1-.42-.29-.08-.19-.04-.36,.1-.5,.31-.31,.62-.61,.95-.93Z"/>
  </g>
</svg>