<?xml version="1.0" encoding="UTF-8"?>
<svg id="Layer_1" data-name="Layer 1" xmlns="http://www.w3.org/2000/svg" viewBox="0 0 32 32">
  <path d="M26.59,.02c.5,.15,1.03,.26,1.51,.46,2.39,1.04,3.59,2.93,3.63,5.49,.06,4.17,.03,8.35,.01,12.52-.01,3.35-2.53,5.88-5.89,5.9-3.02,.02-6.04-.02-9.06,.03-.45,0-.97,.22-1.32,.51-2.63,2.21-5.2,4.48-7.84,6.68-.35,.29-.98,.48-1.39,.38-.68-.18-.65-.85-.59-1.48,.17-2,.29-3.99,.44-6.05-1.91-.12-3.53-.79-4.59-2.35-.55-.81-.83-1.8-1.23-2.7,0-4.8,0-9.6,0-14.4,.29-.73,.52-1.49,.89-2.17C2.05,1.22,3.57,.49,5.25,.02c7.11,0,14.22,0,21.34,0ZM7.87,28.74c2.36-2.02,4.49-3.89,6.67-5.7,.41-.34,1.03-.6,1.56-.61,3.2-.06,6.4,0,9.6-.03,2.38-.02,3.93-1.6,3.94-3.97,.01-4.18,.02-8.36,0-12.53-.01-2.21-1.54-3.75-3.74-3.76-6.61-.02-13.21-.02-19.82,0-2.11,0-3.67,1.53-3.69,3.62-.03,4.33-.03,8.65,0,12.98,.01,1.78,1.17,3.15,2.91,3.53,.49,.11,1,.13,1.5,.14,1.19,.03,1.5,.39,1.4,1.58-.13,1.5-.21,3.01-.33,4.76Z"/>
  <path d="M19.03,13.49c0,1.07-.92,1.96-1.98,1.96-1.07,0-1.99-.9-2-1.96-.01-1.12,.89-1.99,2.04-1.98,1.12,.01,1.96,.86,1.95,1.97Z"/>
  <path d="M8.56,13.5c0-1.14,.79-1.97,1.91-1.98,1.14-.01,2.05,.87,2.04,1.98-.01,1.06-.92,1.95-1.99,1.96-1.09,0-1.95-.86-1.96-1.95Z"/>
  <path d="M25.52,13.47c0,1.1-.84,1.97-1.93,1.98-1.11,.01-2.03-.91-2.01-2.02,.02-1.08,.9-1.92,2-1.92,1.12,0,1.94,.82,1.94,1.95Z"/>
</svg>