<?xml version="1.0" encoding="UTF-8"?>
<svg id="Layer_1" data-name="Layer 1" xmlns="http://www.w3.org/2000/svg" viewBox="0 0 32 32">
  <path d="m12.6,14.39c-.89,0-1.79,0-2.68,0-.78,0-1.12-.34-1.12-1.12,0-.43,0-.86,0-1.3.09-.01.15-.03.22-.03.5,0,.99,0,1.52,0v.7c.37,0,.71,0,1.05,0s.67,0,1.03,0v-2.08H1.76v10.88h5.64v1.73c-.1,0-.2.01-.29.01-2.01,0-4.03,0-6.04,0-.72,0-1.07-.35-1.07-1.08,0-4.07,0-8.15,0-12.22,0-.73.35-1.08,1.07-1.08,4.07,0,8.15,0,12.22,0,.74,0,1.09.36,1.09,1.09,0,.9,0,1.8,0,2.72h3.23c0-.3,0-.58,0-.87,0-.64,0-1.28,0-1.93,0-.64.38-1.01,1.02-1.02.46,0,.92,0,1.4,0v1.73h-.66v2.1c.65,0,1.29,0,1.93,0,.05,0,.12-.1.13-.17.02-.11,0-.23,0-.34,0-3.33,0-6.65,0-9.98,0-.12,0-.24,0-.38h-10.89v5.64h-1.73c0-.1-.02-.18-.02-.27,0-2.01,0-4.03,0-6.04,0-.76.35-1.1,1.11-1.1,4.05,0,8.11,0,12.16,0,.76,0,1.11.34,1.11,1.1,0,4.06,0,8.13,0,12.19,0,.74-.36,1.09-1.09,1.09-.9,0-1.8,0-2.75,0,0,.52,0,1.01,0,1.51,0,.5.01,1,0,1.49,0,.17.04.24.23.23.83-.01,1.67,0,2.5,0,.75,0,1.11.35,1.11,1.1,0,.43,0,.86,0,1.32h-1.72c0-.05-.02-.1-.02-.15q-.02-.53-.56-.53c-.42,0-.84,0-1.27,0-.19,0-.27.05-.27.25.01.57,0,1.15,0,1.73,0,.03.02.05.03.1h10.84v-10.87h-5.64v-1.74c.09,0,.17-.02.25-.02,2.03,0,4.06,0,6.1,0,.68,0,1.05.36,1.05,1.04,0,4.1,0,8.21,0,12.31,0,.66-.37,1.03-1.04,1.03-4.1,0-8.21,0-12.31,0-.67,0-1.04-.38-1.04-1.05,0-.91,0-1.82,0-2.75h-3.23c0,.12,0,.23,0,.34,0,.81,0,1.63,0,2.44,0,.64-.38,1.02-1.02,1.02-.43,0-.86,0-1.29,0-.03,0-.06,0-.11-.02v-1.72h.65v-2.07h-2.05v10.85h10.86v-5.63h1.74c0,.09.01.18.01.27,0,2.02,0,4.04,0,6.07,0,.7-.36,1.06-1.06,1.06-4.08,0-8.17,0-12.25,0-.71,0-1.07-.35-1.07-1.05,0-4.1,0-8.21,0-12.31,0-.64.38-1.02,1.02-1.02.85,0,1.7,0,2.56,0,.15,0,.26,0,.26-.2,0-.96,0-1.92,0-2.87,0-.05-.02-.09-.03-.16Zm5,.03h-3.21v3.18h3.21v-3.18Z"/>
</svg>