<?xml version="1.0" encoding="UTF-8"?>
<svg id="Layer_1" data-name="Layer 1" xmlns="http://www.w3.org/2000/svg" viewBox="0 0 32 32">
  <path d="M26.97,24c0,4.26-3.45,7.71-7.71,7.71s-7.71-3.45-7.71-7.71,3.45-7.71,7.71-7.71,7.71,3.45,7.71,7.71Zm-2.16-3.19c-.02-.06-.04-.12-.07-.18-.26-.66-1.07-.81-1.59-.29-1.73,1.73-3.46,3.47-5.19,5.2-.04,.04-.07,.09-.12,.17-.07-.08-.1-.13-.14-.17-.78-.78-1.56-1.57-2.34-2.35-.4-.4-.99-.4-1.37-.02-.37,.38-.37,.97,.02,1.36,1.04,1.05,2.09,2.1,3.15,3.15,.11,.11,.26,.2,.41,.25,.39,.12,.72,0,1.01-.3,1.92-1.93,3.85-3.86,5.78-5.79,.2-.2,.39-.41,.46-.7v-.33Z"/>
  <path d="M21.98,32.07H9.76c-.07-.12-.2-.08-.3-.1-3.26-.63-5.5-3.32-5.5-6.64,0-5.28,0-10.56,0-15.84,0-2.12,.83-3.87,2.47-5.23,.14-.12,.2-.23,.2-.42-.01-.81-.01-1.62,0-2.44,0-.6,.33-1.05,.89-1.26,.04-.02,.11,0,.12-.07h.56c.89,.38,1.08,.67,1.08,1.68,0,.31,0,.62,0,.94,0,.13,.02,.18,.18,.15,.74-.14,1.49-.1,2.24-.09,.2,0,.28-.05,.26-.26-.02-.21,.01-.42,0-.62-.08-.84,.19-1.46,1-1.79h.56c.89,.35,1.11,.68,1.11,1.68,0,.26,0,.52,0,.78,0,.16,.05,.21,.21,.21,.75,0,1.49,0,2.24,0,.17,0,.21-.06,.21-.22,0-.36-.01-.73,0-1.09,.02-.59,.29-1.03,.84-1.27,.05-.02,.13-.02,.15-.1h.62c.8,.27,1.13,.84,1.06,1.67-.02,.25,.01,.5,0,.75-.02,.21,.06,.26,.26,.26,.75,0,1.5-.05,2.24,.09,.2,.04,.17-.07,.17-.19,0-.44,0-.87,0-1.31,.02-.55,.31-.93,.8-1.17,.07-.03,.17,0,.21-.1h.56c.89,.38,1.08,.67,1.08,1.68,0,.69,0,1.37,0,2.06,0,.21,.07,.34,.23,.47,1.58,1.32,2.43,3.02,2.44,5.09,.02,5.37,.02,10.74,0,16.12,0,2.97-2.03,5.56-4.89,6.35-.34,.09-.69,.16-1.03,.25ZM6.62,17.42c0,2.6,0,5.21,0,7.81,0,.27,0,.54,.05,.81,.36,2.02,1.95,3.36,4,3.36,3.51,0,7.03,0,10.54,0,.23,0,.46,0,.68-.05,2.01-.37,3.35-1.96,3.35-4.01,0-5.29,0-10.58,0-15.87,0-.23,0-.46-.04-.68-.36-2.02-1.97-3.38-4.02-3.38-3.5,0-7,0-10.51,0-.27,0-.54,.02-.81,.07-1.93,.39-3.23,1.97-3.24,3.94-.01,2.67,0,5.33,0,8Z"/>
</svg>