<?xml version="1.0" encoding="UTF-8"?>
<svg id="Layer_1" data-name="Layer 1" xmlns="http://www.w3.org/2000/svg" viewBox="0 0 32 32">
  <path d="M3.78,15.98c0-4.24,0-8.48,0-12.73C3.79,1.22,4.99,0,7.02,0,11.13,0,15.25,.01,19.36,0c.94,0,1.72,.31,2.38,.98,1.69,1.71,3.4,3.41,5.11,5.11,.63,.62,.92,1.37,.92,2.25,0,6.85,0,13.71,0,20.56,0,1.84-1.28,3.1-3.12,3.1-5.93,0-11.85,0-17.78,0-1.81,0-3.08-1.26-3.08-3.07,0-4.32,0-8.63,0-12.95ZM6.8,3V28.98H24.76V10.99c-2.11,0-4.19,0-6.26,0-1.13,0-1.7-.57-1.7-1.71,0-1.89,0-3.78,0-5.67,0-.2,0-.39,0-.61H6.8Zm12.99,4.96h4.46c-1.46-1.46-2.98-2.98-4.46-4.46V7.96Z"/>
  <path d="M15.78,17.89c.57-1.11,1.14-2.19,1.69-3.28,.22-.43,.51-.64,1.01-.6,.48,.03,.96,0,1.44,0,.72,.02,1.03,.54,.67,1.16-.82,1.43-1.64,2.86-2.5,4.26-.27,.44-.26,.75,0,1.18,.84,1.35,1.63,2.73,2.44,4.1,.46,.78,.17,1.27-.75,1.28-.44,0-.89-.02-1.33,0-.48,.03-.76-.17-.96-.58-.45-.93-.92-1.86-1.38-2.78-.09-.18-.19-.34-.33-.6-.47,.93-.88,1.78-1.32,2.62-.84,1.6-.53,1.32-2.17,1.33-.49,0-1.08,.21-1.4-.38-.31-.57,.18-.94,.41-1.35,.73-1.29,1.49-2.56,2.26-3.83,.19-.31,.2-.53,0-.85-.87-1.42-1.7-2.86-2.55-4.3-.45-.76-.16-1.27,.71-1.27,.46,0,.93,.02,1.39,0,.52-.03,.82,.2,1.04,.65,.51,1.07,1.04,2.13,1.56,3.19,0,.01,.03,.02,.08,.04Z"/>
</svg>