<?xml version="1.0" encoding="UTF-8"?>
<svg id="Layer_1" data-name="Layer 1" xmlns="http://www.w3.org/2000/svg" viewBox="0 0 32 32">
  <path d="M14.3,25.08v-.63c0-7.3,0-14.6,0-21.9,0-1.39,.74-2.29,2.01-2.48,1.2-.17,2.39,.74,2.52,1.94,.03,.25,.02,.5,.02,.75,0,7.23,0,14.46,0,21.69v.62c.24-.04,.34-.21,.47-.34,2.3-2.3,4.6-4.6,6.89-6.9,.52-.52,1.1-.85,1.85-.82,.96,.04,1.66,.51,2.04,1.4,.38,.89,.21,1.72-.43,2.43-.47,.51-.98,.99-1.47,1.48-2.73,2.72-5.47,5.45-8.2,8.17-2.1,2.09-4.76,2.08-6.87-.01-3.15-3.14-6.3-6.28-9.46-9.41-.63-.62-.96-1.33-.78-2.21,.18-.87,.71-1.48,1.57-1.74,.83-.25,1.59-.08,2.24,.51,.12,.11,.23,.22,.34,.34,2.26,2.26,4.53,4.52,6.79,6.78,.12,.12,.21,.28,.47,.36Z"/>
</svg>