<?xml version="1.0" encoding="UTF-8"?>
<svg id="Layer_1" data-name="Layer 1" xmlns="http://www.w3.org/2000/svg" viewBox="0 0 32 32">
  <path d="M32,10.99c-.02,.06-.05,.11-.06,.17-.27,.97-1.19,1.61-2.14,1.48-1.05-.14-1.78-.94-1.79-1.99,0-1.96,0-3.91,0-5.87,0-.63-.16-.79-.79-.79-7.46,0-14.93,0-22.39,0-.65,0-.8,.15-.8,.81,0,1.95,0,3.89,0,5.84,0,1.03-.71,1.83-1.72,1.99C1.15,12.81,.04,11.94,.03,10.77,0,8.61-.02,6.44,.03,4.28,.08,2.21,1.73,.42,3.78,.07c.1-.02,.2-.04,.3-.07,7.95,0,15.91,0,23.86,0,.08,.02,.16,.04,.24,.06,1.89,.37,3.1,1.48,3.67,3.31,.06,.21,.1,.42,.16,.63,0,2.33,0,4.66,0,7Z"/>
  <path d="M18.05,26.75c.14-.13,.23-.21,.3-.29,1.41-1.41,2.81-2.81,4.22-4.22,.57-.57,1.27-.75,2.04-.51,.76,.24,1.22,.78,1.36,1.56,.12,.63-.04,1.22-.49,1.67-1.82,1.84-3.62,3.71-5.51,5.48-2.22,2.08-5.8,2.03-8.01-.08-1.82-1.74-3.58-3.54-5.35-5.34-.76-.77-.71-2.03,.06-2.79,.77-.76,2.01-.77,2.79,0,1.44,1.42,2.86,2.85,4.29,4.28,.08,.08,.14,.18,.21,.27,.03-.02,.07-.03,.1-.05,0-.13,0-.26,0-.39-.01-5.87-.02-11.74-.03-17.61,0-.98,.55-1.76,1.42-2.02,1.28-.38,2.56,.55,2.58,1.9,.02,1.81,0,3.62,.01,5.43,.01,4.11,.02,8.22,.03,12.33,0,.08,0,.16,0,.33Z"/>
</svg>