<?xml version="1.0" encoding="UTF-8"?>
<svg id="Layer_1" data-name="Layer 1" xmlns="http://www.w3.org/2000/svg" viewBox="0 0 32 32">
  <path d="M0,31.96c.05-1.29,.04-2.53,.17-3.76,.12-1.09,.69-2,1.46-2.78C7.51,19.54,13.39,13.66,19.28,7.78c.05-.05,.11-.1,.14-.13,1.65,1.65,3.28,3.28,4.94,4.94-.04,.05-.11,.12-.18,.19-5.83,5.83-11.66,11.66-17.49,17.49-1.13,1.13-2.47,1.7-4.07,1.68C1.77,31.95,.93,31.96,0,31.96Z"/>
  <path d="M26.32,10.64c-1.65-1.65-3.28-3.28-4.94-4.94,.02-.02,.06-.08,.11-.13,1.49-1.49,2.97-2.99,4.47-4.47,1.72-1.7,4.41-1.36,5.59,.69,.73,1.27,.58,2.9-.39,4-.37,.42-.78,.81-1.18,1.21-1.15,1.15-2.3,2.3-3.45,3.45-.07,.07-.15,.14-.21,.19Z"/>
</svg>