<?xml version="1.0" encoding="UTF-8"?>
<svg id="Layer_1" data-name="Layer 1" xmlns="http://www.w3.org/2000/svg" viewBox="0 0 32 32">
  <path d="M19,0c.08,.04,.17,.08,.25,.11,.53,.24,.86,.8,.8,1.36-.07,.6-.5,1.06-1.09,1.17-.16,.03-.33,.03-.5,.03-3.9,0-7.79,0-11.69,0-2.06,0-3.65,1.33-4.01,3.35-.04,.23-.05,.48-.05,.71,0,6.17,0,12.35,0,18.52,0,2.06,1.34,3.65,3.35,4.02,.22,.04,.45,.05,.68,.05,4.33,0,8.67,0,13,0,.07,0,.14,0,.26-.01,0-.11,0-.22,0-.33,0-1.63,0-3.27,0-4.9,0-2.32,1.75-4.07,4.06-4.08,1.62,0,3.24,0,4.86,0,.11,0,.23,0,.38,0,0-.14,0-.26,0-.38,0-2.07,0-4.14,0-6.22,0-.91,.65-1.52,1.52-1.41,.48,.06,.82,.33,1.03,.76,.04,.08,.08,.16,.12,.24v9.44c-.02,.06-.05,.12-.05,.18-.19,1.56-.87,2.87-1.98,3.97-1.15,1.15-2.29,2.3-3.44,3.45-.7,.7-1.51,1.25-2.45,1.56-.53,.18-1.08,.27-1.62,.4H6.09c-.08-.02-.16-.05-.24-.06C2.63,31.56,.06,28.75,.04,25.5c-.02-6.32-.02-12.65,0-18.97C.05,3.75,1.91,1.23,4.55,.37,5.03,.21,5.53,.12,6.02,0c4.32,0,8.65,0,12.97,0Zm3.66,29.19c.54-.04,1.29-.39,1.79-.89,1.28-1.26,2.55-2.53,3.81-3.82,.48-.49,.78-1.09,.93-1.79-.11,0-.21-.02-.3-.02-1.6,0-3.2,0-4.8,0-.9,0-1.43,.53-1.43,1.43,0,1.18,0,2.35,0,3.53,0,.51,0,1.02,0,1.55Z"/>
  <path d="M31.97,4.44c-.05,.25-.09,.51-.15,.76-.2,.81-.63,1.48-1.22,2.07-4.99,5-9.98,10-14.97,15-.4,.4-.79,.8-1.19,1.19-1.26,1.2-2.75,1.84-4.49,1.87-.62,.01-1.25,.01-1.87,0-.83,0-1.38-.54-1.37-1.37,.01-.99-.02-1.99,.11-2.96,.2-1.44,.93-2.62,1.96-3.65,3.84-3.84,7.67-7.68,11.51-11.53,1.5-1.5,2.99-3.01,4.5-4.5,1.59-1.58,4.04-1.7,5.75-.27,.8,.67,1.24,1.55,1.39,2.58,.01,.1,.04,.2,.06,.3v.5ZM9.36,22.66c1.35,.07,2.46-.35,3.39-1.28,5.31-5.34,10.64-10.66,15.96-15.99,.09-.09,.18-.18,.26-.27,.7-.87,.24-2.15-.84-2.38-.61-.13-1.09,.1-1.51,.52-5.33,5.35-10.67,10.69-16,16.04-.1,.1-.21,.21-.3,.32-.73,.87-1.01,1.88-.95,3.04Z"/>
</svg>