<?xml version="1.0" encoding="UTF-8"?>
<svg id="Layer_1" data-name="Layer 1" xmlns="http://www.w3.org/2000/svg" viewBox="0 0 32 32">
  <path d="M22.21,30.69H6.96c-3.84,0-6.96-3.12-6.96-6.96V8.48C0,4.65,3.12,1.53,6.96,1.53h15.26v2.83H6.96c-2.27,0-4.12,1.85-4.12,4.12v15.26c0,2.27,1.85,4.13,4.12,4.13h15.26c2.27,0,4.12-1.85,4.12-4.13V13.79h2.83v9.95c0,3.84-3.12,6.96-6.96,6.96Z"/>
  <g>
    <path d="M9.09,21.56c.12-.84,.19-1.66,.36-2.46,.15-.71,.58-1.27,1.14-1.73,4.25-3.49,8.5-6.98,12.75-10.46,.04-.03,.08-.06,.1-.07,.98,1.19,1.95,2.37,2.93,3.57-.03,.03-.08,.07-.13,.12-4.21,3.46-8.43,6.91-12.64,10.37-.82,.67-1.74,.96-2.79,.84-.55-.06-1.11-.11-1.72-.17Z"/>
    <path d="M27.79,9.24c-.98-1.19-1.95-2.37-2.93-3.57,.01-.01,.04-.05,.08-.08,1.08-.88,2.15-1.77,3.23-2.65,1.24-1.01,2.99-.61,3.63,.81,.4,.88,.19,1.94-.51,2.61-.27,.25-.57,.48-.85,.72-.83,.68-1.66,1.36-2.5,2.05-.05,.04-.11,.08-.15,.11Z"/>
  </g>
</svg>