<?xml version="1.0" encoding="UTF-8"?>
<svg id="Layer_1" data-name="Layer 1" xmlns="http://www.w3.org/2000/svg" viewBox="0 0 32 32">
  <path d="M11.44,0c.37,0,.75,0,1.12,0,.05,.02,.09,.04,.14,.05,3.02,.47,4.97,3.07,4.57,6.1-.08,.61-.17,1.21-.27,1.85,.96,0,1.91,0,2.87,0,.33,0,.67,.03,.99,.1,1.86,.42,3.12,2.01,3.13,3.92,0,.77,0,1.54,0,2.29,.77-.1,1.5-.23,2.25-.29,4.04-.34,6.96,3.83,5.27,7.52-1.01,2.21-3.27,3.4-5.78,3.05-.57-.08-1.14-.18-1.75-.27v7.65H13.93c.02-.09,.03-.16,.05-.23,.22-1.17,.49-2.34,.65-3.52,.2-1.45-.9-2.71-2.4-2.88-1.38-.15-2.73,.89-2.85,2.3-.05,.65,.05,1.33,.16,1.98,.13,.79,.34,1.56,.53,2.38H0C0,25.17,0,18.33,0,11.5c.02-.05,.05-.09,.05-.14,.32-1.78,1.61-3.08,3.4-3.3,.86-.11,1.74-.05,2.62-.06,.31,0,.62,0,.93,0-.1-.65-.19-1.27-.28-1.88-.33-2.46,.97-4.78,3.25-5.71,.47-.19,.97-.27,1.46-.41Zm9.89,20.78c.17,.05,.29,.08,.42,.12,1.51,.47,3.02,.93,4.61,1.08,1.54,.15,2.91-.99,2.96-2.53,.06-1.6-1.19-2.86-2.78-2.77-1.17,.06-2.31,.31-3.42,.66-.58,.18-1.17,.35-1.79,.54v-.38c0-1.78,0-3.56,0-5.34,0-.99-.51-1.5-1.5-1.5-2,0-4,0-6,0-.11,0-.22,0-.33,0-.01-.05-.02-.07-.02-.09,.02-.09,.05-.18,.07-.27,.42-1.39,.89-2.77,1.05-4.23,.06-.59,.11-1.18-.13-1.75-.51-1.23-1.82-1.89-3.12-1.58-1.27,.31-2.11,1.51-2,2.83,.1,1.21,.36,2.38,.73,3.54,.16,.5,.31,1.01,.47,1.56h-.38c-2,0-4,0-6,0-.99,0-1.5,.51-1.5,1.5,0,5.6,0,11.2,0,16.81v.33H6.78c-.27-1.67-.06-3.22,1.01-4.57,1.06-1.35,2.46-2.05,4.19-2.07,1.39-.02,2.62,.46,3.64,1.4,1.53,1.42,1.95,3.21,1.62,5.23h4.11v-8.52Z"/>
</svg>