<?xml version="1.0" encoding="UTF-8"?>
<svg id="Layer_1" data-name="Layer 1" xmlns="http://www.w3.org/2000/svg" viewBox="0 0 32 32">
  <path d="M15.98,27.51c-4.38,0-8.76-.01-13.14,0-1.15,0-1.91-.53-2.43-1.49C.13,25.53,0,24.97,0,24.4,0,18.79,0,13.18,0,7.57c0-1.18,.48-2.15,1.5-2.8,.32-.2,.68-.29,1.05-.29,8.92,0,17.83,0,26.75,0,.89,0,1.52,.5,2,1.19,.46,.65,.68,1.39,.68,2.18,0,5.5,0,11.01,0,16.51,0,1.06-.39,1.97-1.22,2.66-.4,.33-.87,.49-1.4,.49-4.47,0-8.93,0-13.4,0Zm.02-21.44c-4.09,0-8.18,0-12.26,0-1.19,0-2.01,.87-2.01,2,.02,5.28,.02,10.57,0,15.85,0,1.17,.86,2.02,2.01,2.01,2.21-.02,4.42,0,6.63,0,5.98,0,11.96,0,17.94,0,1.13,0,1.96-.78,1.96-1.89,0-5.33,0-10.66,0-16,0-.29-.06-.6-.18-.87-.35-.77-.99-1.09-1.82-1.09-4.09,0-8.18,0-12.26,0Z"/>
  <path d="M7.21,16.64c-2.67-2.12-2.07-5.33-.61-6.82,1.79-1.83,4.64-1.87,6.49-.16,1.84,1.7,2.08,5.04-.41,6.98,.29,.17,.59,.33,.87,.52,1.69,1.18,2.68,2.79,2.87,4.86,.01,.13,0,.27,.01,.4,.04,.56-.32,.78-.76,.84-.06,0-.13,0-.19,0-3.7,0-7.41,0-11.11,0-.09,0-.18,0-.28-.02-.4-.05-.69-.35-.67-.74,.12-2.59,1.26-4.55,3.6-5.76,.06-.03,.12-.06,.19-.1Zm7.7,5.19c-.3-2.46-2.63-4.74-5.8-4.26-2.42,.37-4.04,2.49-4.13,4.26H14.91ZM6.83,12.92c-.03,1.61,1.27,3.15,3.21,3.1,1.59-.04,2.91-1.4,2.99-2.87,.11-1.82-1.37-3.33-3.2-3.29-1.6,.04-3,1.34-3,3.06Z"/>
  <path d="M23.13,17.5c-1.49,0-2.98,0-4.48,0-.17,0-.36-.05-.5-.13-.26-.15-.37-.46-.3-.71,.08-.29,.36-.54,.65-.56,.02,0,.04,0,.06,0,3.05,0,6.1,0,9.15,0,.41,0,.76,.42,.71,.82-.04,.32-.35,.58-.71,.59-.36,0-.71,0-1.07,0-1.17,0-2.35,0-3.52,0Z"/>
  <path d="M23.13,19.75c1.51,0,3.01,0,4.52,0,.18,0,.37,.09,.52,.19,.25,.18,.33,.46,.22,.7-.12,.28-.32,.48-.64,.52-.04,0-.09,0-.13,0-3,0-6,0-9,0-.16,0-.34-.06-.47-.14-.27-.17-.37-.5-.29-.76,.1-.31,.38-.51,.71-.51,1.52,0,3.04,0,4.56,0Z"/>
  <path d="M23.13,13.61c-1.49,0-2.99,0-4.48,0-.14,0-.3-.03-.43-.1-.29-.14-.44-.47-.38-.74,.07-.29,.37-.55,.67-.58,.05,0,.1,0,.15,0,2.98,0,5.96,0,8.94,0,.14,0,.29,.02,.41,.09,.32,.17,.48,.5,.41,.79-.08,.3-.41,.55-.76,.55-1.13,0-2.26,0-3.39,0-.38,0-.75,0-1.13,0Z"/>
</svg>