<?xml version="1.0" encoding="UTF-8"?>
<svg id="Layer_1" data-name="Layer 1" xmlns="http://www.w3.org/2000/svg" viewBox="0 0 32 32">
  <path d="M10.99-.03c.06,.02,.11,.05,.17,.06,.97,.27,1.61,1.19,1.48,2.14-.14,1.05-.94,1.78-1.99,1.79-1.96,0-3.91,0-5.87,0-.63,0-.79,.16-.79,.79,0,7.46,0,14.93,0,22.39,0,.65,.15,.8,.81,.8,1.95,0,3.89,0,5.84,0,1.03,0,1.83,.71,1.99,1.72,.17,1.15-.7,2.25-1.86,2.27-2.16,.03-4.33,.05-6.49,0-2.07-.05-3.86-1.69-4.21-3.74-.02-.1-.04-.2-.07-.3,0-7.95,0-15.91,0-23.86,.02-.08,.04-.16,.06-.24C.43,1.91,1.54,.69,3.37,.12c.21-.06,.42-.1,.63-.16,2.33,0,4.66,0,7,0Z"/>
  <path d="M26.75,13.92c-.13-.14-.21-.23-.29-.3-1.41-1.41-2.81-2.81-4.22-4.22-.57-.57-.75-1.27-.51-2.04,.24-.76,.78-1.22,1.56-1.36,.63-.12,1.22,.04,1.67,.49,1.84,1.82,3.71,3.62,5.48,5.51,2.08,2.22,2.03,5.8-.08,8.01-1.74,1.82-3.54,3.58-5.34,5.35-.77,.76-2.03,.71-2.79-.06-.76-.77-.77-2.01,0-2.79,1.42-1.44,2.85-2.86,4.28-4.29,.08-.08,.18-.14,.27-.21-.02-.03-.03-.07-.05-.1-.13,0-.26,0-.39,0-5.87,.01-11.74,.02-17.61,.03-.98,0-1.76-.55-2.02-1.42-.38-1.28,.55-2.56,1.9-2.58,1.81-.02,3.62,0,5.43-.01,4.11-.01,8.22-.02,12.33-.03,.08,0,.16,0,.33,0Z"/>
</svg>