<?xml version="1.0" encoding="UTF-8"?>
<svg id="Layer_1" data-name="Layer 1" xmlns="http://www.w3.org/2000/svg" viewBox="0 0 32 32">
  <path d="M4.02,7.99V27.99H23.99c0-.18,.02-.38,.02-.57,0-2.06,0-4.11,0-6.17,0-.91,.32-1.23,1.24-1.23,.57,0,1.15-.01,1.72,0,.6,.02,1,.37,1,.96,.01,2.74,.05,5.48-.01,8.22-.04,1.62-1.38,2.79-3.01,2.79-7.3,0-14.59,0-21.89,0-1.76,0-3.04-1.28-3.04-3.05,0-7.3,0-14.59,0-21.89,0-1.77,1.29-3.04,3.06-3.04,3.22,0,6.44,0,9.67,0,.91,0,1.24,.33,1.25,1.23,0,.48,0,.96,0,1.44,0,.99-.31,1.3-1.28,1.3-2.68,0-5.37,0-8.05,0h-.63Z"/>
  <path d="M24.01,4.59c-1.37,0-2.57-.08-3.75,.02-1.28,.11-2.26-.67-2.27-2.05-.01-1.87,.57-2.62,2.61-2.56,2.98,.08,5.96,.02,8.94,.02,1.45,0,2.45,.98,2.45,2.43,0,3.22,0,6.44,0,9.67,0,1.2-.7,1.88-1.91,1.88-.28,0-.56,0-.83,0-1.18,0-1.89-.81-1.86-2,.03-1.27,0-2.55,0-3.89-.14,.14-.3,.29-.46,.44-4.88,4.92-9.75,9.83-14.63,14.75-.94,.94-1.66,.94-2.6,0-.37-.37-.74-.73-1.1-1.1-.8-.81-.8-1.61,.02-2.41,4.92-4.88,9.83-9.76,14.75-14.63,.17-.17,.36-.32,.65-.57Z"/>
</svg>