<?xml version="1.0" encoding="UTF-8"?>
<svg id="Layer_1" data-name="Layer 1" xmlns="http://www.w3.org/2000/svg" viewBox="0 0 32 32">
  <path d="M4.17,16.03c0-4.36,0-8.73,0-13.09,0-1.49,.84-2.57,2.22-2.87,.23-.05,.47-.05,.71-.05,4.28,0,8.55,0,12.83,0,.35,0,.61,.1,.87,.35,2.21,2.22,4.42,4.44,6.64,6.64,.26,.26,.38,.53,.38,.9,0,7.05,0,14.1,0,21.15,0,1.8-1.15,2.95-2.94,2.95-5.92,0-11.85,0-17.77,0-1.77,0-2.92-1.15-2.92-2.93,0-4.35,0-8.7,0-13.05Zm22.27-7.67c-.22,0-.39,0-.56,0-1.81,0-3.62,0-5.43,0-.76,0-.97-.21-.97-.98,0-1.84-.01-3.68,0-5.52,0-.37-.1-.48-.47-.48-3.93,.01-7.87,0-11.8,0-1.12,0-1.67,.55-1.67,1.66,0,8.64,0,17.28,0,25.92,0,1.12,.55,1.66,1.67,1.66,5.85,0,11.7,0,17.55,0,1.15,0,1.69-.54,1.69-1.69,0-6.68,0-13.36,0-20.04v-.54Zm-1.14-1.41c-1.48-1.47-2.95-2.95-4.41-4.41V6.95h4.41Z"/>
  <path d="M16,25.05c2.03,0,4.06-.01,6.09,.02,.25,0,.58,.16,.74,.36,.29,.36,.03,.88-.44,1-.16,.04-.32,.03-.49,.03-3.94,0-7.89,0-11.83,0-.07,0-.15,0-.22,0-.51-.02-.85-.32-.83-.73,.02-.4,.34-.67,.84-.67,2.05,0,4.09,0,6.14,0Z"/>
  <path d="M16.01,13.92c1.99,0,3.97,0,5.96,0,.13,0,.27-.02,.4,.01,.36,.08,.58,.33,.57,.69,0,.34-.2,.59-.55,.66-.16,.03-.32,.03-.49,.03-3.94,0-7.89,0-11.83,0-.69,0-1.04-.23-1.05-.69,0-.47,.35-.71,1.07-.71,1.97,0,3.94,0,5.91,0Z"/>
  <path d="M16,20.87c-1.99,0-3.97,0-5.96,0-.13,0-.27,0-.4,0-.38-.05-.59-.29-.61-.65-.02-.36,.17-.63,.55-.69,.16-.03,.32-.02,.49-.02,3.94,0,7.89,0,11.83,0,.7,0,1.04,.22,1.04,.69,0,.47-.33,.69-1.03,.69-1.97,0-3.94,0-5.91,0Z"/>
</svg>