<?xml version="1.0" encoding="UTF-8"?>
<svg id="Layer_1" data-name="Layer 1" xmlns="http://www.w3.org/2000/svg" viewBox="0 0 32 32">
  <path d="m28.8,6.04c-.02.53-.18.95-.49,1.32-.52.63-1.04,1.26-1.55,1.89-.72.89-1.43,1.78-2.15,2.66-.62.77-1.25,1.53-1.87,2.3-.74.91-1.48,1.82-2.23,2.73-.06.07-.12.14-.18.22.07.06.15.11.22.17,1.15.91,2.31,1.82,3.46,2.73,1.5,1.18,3,2.36,4.5,3.54.96.76,1.93,1.52,2.89,2.28.35.27.61.58.6,1.07-.01.62-.37.96-.8,1.15-.34.15-.65.06-.93-.12-.37-.24-.72-.51-1.07-.78-1.2-.93-2.39-1.86-3.59-2.8-1.16-.91-2.3-1.83-3.46-2.74-1.23-.97-2.46-1.93-3.69-2.9-1.49-1.17-2.97-2.33-4.46-3.49-1.98-1.56-3.96-3.11-5.94-4.67-1.98-1.55-3.96-3.11-5.94-4.66-.53-.42-1.06-.85-1.59-1.28C.22,4.37-.02,4.03,0,3.58c.04-.68.77-1.32,1.48-1.05.35.13.66.39.97.62.5.37.98.76,1.46,1.15.1.08.2.09.31.04.49-.25,1-.3,1.54-.3,6.92,0,13.85,0,20.77,0,.53,0,1.05.09,1.5.43.4.3.62.7.72,1.18.03.14.04.29.05.38Z"/>
  <path d="m12.84,18.47v-.95s.11.04.16.09c.82.64,1.63,1.28,2.44,1.92,1.14.9,2.26,1.81,3.41,2.69.24.18.33.35.32.65-.02.67,0,1.34,0,2.02,0,.85-.57,1.51-1.4,1.67-.4.08-.75-.09-1.06-.31-1.05-.76-2.08-1.54-3.11-2.33-.21-.16-.42-.36-.55-.59-.13-.22-.21-.49-.22-.74-.02-1.35,0-2.7,0-4.06,0-.02,0-.03,0-.05Z"/>
  <path d="m12.84,18.47s0,.03,0,.05c0-.01,0-.02,0-.03,0,0,0-.01,0-.02Z"/>
</svg>