<?xml version="1.0" encoding="UTF-8"?>
<svg id="Layer_1" data-name="Layer 1" xmlns="http://www.w3.org/2000/svg" viewBox="0 0 32 32">
  <path d="M26.1,0c.35,.08,.71,.15,1.06,.26,3.48,1.11,4.78,5.45,2.41,8.23-1.89,2.23-3.87,4.39-5.82,6.58-1.17,1.32-2.34,2.63-3.5,3.95-.1,.11-.15,.29-.15,.45,0,3.7,0,7.39,0,11.09,0,.75-.39,1.27-1.06,1.42-.45,.1-.83-.06-1.19-.33-1.7-1.28-3.4-2.55-5.1-3.83-.02-.01-.03-.02-.05-.04-.41-.3-.6-.7-.6-1.2,0-2.36,0-4.73,0-7.09,0-.22-.06-.39-.21-.55-3.03-3.4-6.06-6.79-9.07-10.2C.35,5.94,1.31,1.75,4.72,.38,5.16,.2,5.64,.12,6.1,0,12.77,0,19.43,0,26.1,0Z"/>
</svg>