<?xml version="1.0" encoding="UTF-8"?>
<svg id="Layer_1" data-name="Layer 1" xmlns="http://www.w3.org/2000/svg" viewBox="0 0 32 32">
  <path d="M14.6,29.52c-.98-.25-1.9-.39-2.76-.71-5.04-1.87-8.13-5.42-9.1-10.75-.08-.43-.22-.6-.67-.57-.46,.03-.92-.02-1.38-.04-.42-.02-.59-.27-.6-.65-.01-.54-.01-1.07,0-1.61,0-.38,.19-.63,.61-.65,.48-.02,.96-.07,1.44-.04,.41,.02,.54-.14,.6-.52,.44-3.06,1.85-5.63,4.08-7.76,2.04-1.94,4.44-3.16,7.24-3.57,.16-.02,.32-.08,.55-.13,0-.55,0-1.1,0-1.65,.01-.68,.19-.86,.86-.87,.46,0,.93,0,1.39,0,.44,0,.69,.23,.69,.69,0,.59,0,1.18,0,1.83,.56,.12,1.1,.22,1.63,.35,5.42,1.32,9.41,5.66,10.25,11.15,.06,.37,.2,.5,.57,.49,.48-.02,.96,.03,1.44,.04,.45,.01,.62,.29,.64,.68,.02,.52,.02,1.04,0,1.56-.02,.4-.2,.67-.64,.68-.5,.01-1,.05-1.5,.04-.33,0-.45,.12-.5,.44-.54,3.73-2.41,6.67-5.38,8.93-1.75,1.33-3.73,2.15-5.91,2.47-.18,.03-.36,.08-.59,.14,0,.58,0,1.15,0,1.72-.01,.6-.21,.79-.81,.79-.46,0-.93,0-1.39,0-.48,0-.73-.24-.74-.71-.01-.59,0-1.18,0-1.77Zm0-23.84c-4.34,.27-8.57,4.58-8.84,8.81,.61,0,1.21,0,1.82,0,1.44,0,1.49,.04,1.49,1.5,0,1.48-.03,1.51-1.53,1.51-.6,0-1.2,0-1.81,0,.46,4.77,5.06,8.69,8.87,8.79,0-.79,0-1.59,0-2.38,0-.72,.19-.89,.89-.89,.35,0,.7,0,1.06,0,.86,0,1,.14,1,1,0,.77,0,1.54,0,2.31,4.4-.3,8.58-4.61,8.85-8.82-.55,0-1.1,0-1.65,0q-1.64,0-1.64-1.61c0-1.35,.05-1.4,1.4-1.4,.64,0,1.28,0,1.92,0-.5-4.94-5.2-8.69-8.88-8.79,0,.81,0,1.62,0,2.43,0,.67-.19,.84-.87,.85-.39,0-.78,0-1.17,0-.71,0-.9-.17-.91-.88-.01-.79,0-1.59,0-2.43Z"/>
  <path d="M16.07,14.02c1.06,0,1.98,.92,1.99,1.97,0,1.07-.94,2.02-2.02,2-1.06-.01-1.96-.93-1.95-2,0-1.07,.92-1.97,1.98-1.97Z"/>
</svg>