<?xml version="1.0" encoding="UTF-8"?>
<svg id="Layer_1" data-name="Layer 1" xmlns="http://www.w3.org/2000/svg" viewBox="0 0 32 32">
  <path d="m14.18,32.04c-4.26-1.82-8.52-3.66-12.78-5.47-.6-.26-.87-.64-.86-1.3,0-4.57,0-9.14-.02-13.71,0-.71.41-1.16,1.02-1.11.17.01.34.07.49.14,4.17,1.78,8.34,3.57,12.51,5.35.53.23.78.59.78,1.17,0,4.61.01,9.22.03,13.83,0,.55-.26.89-.74,1.1h-.42Z"/>
  <path d="m17.52,32.04c-.59-.2-.8-.61-.8-1.23,0-4.53-.01-9.06-.04-13.59,0-.67.25-1.06.87-1.33,4.13-1.77,8.25-3.57,12.37-5.35.2-.09.42-.14.64-.15.42,0,.78.31.86.72.03.16.04.32.04.48,0,4.56.01,9.12.03,13.68,0,.61-.25.98-.8,1.21-4.15,1.79-8.29,3.59-12.43,5.38-.13.06-.25.12-.38.17h-.36Zm12.5-19.96c-.13.05-.22.08-.3.12-3.77,1.64-7.54,3.27-11.32,4.9-.21.09-.27.21-.27.43.02,4.15.03,8.31.04,12.47,0,.09,0,.18.01.31.13-.05.23-.09.33-.13,3.73-1.62,7.47-3.24,11.2-4.86.24-.1.32-.22.32-.49-.02-4.11-.02-8.23-.03-12.34,0-.12,0-.24,0-.4Z"/>
  <path d="m14.98,8.12c0-.05,0-.1,0-.15,0-2.34,0-4.68,0-7.02,0-.51.38-.97.91-.99.55-.03,1,.4,1,.97,0,1.06,0,2.12,0,3.18,0,1.29,0,2.58,0,3.87v.15s.03.02.05.04c.03-.05.06-.1.09-.14.68-.68,1.35-1.36,2.04-2.04.27-.26.59-.35.95-.24.36.1.59.35.66.72.06.3,0,.58-.21.81-.04.04-.08.08-.12.12-1.23,1.23-2.45,2.45-3.68,3.68-.46.46-1.01.46-1.47,0-1.25-1.25-2.5-2.5-3.75-3.75-.46-.46-.39-1.18.15-1.51.37-.23.86-.17,1.17.14.68.68,1.36,1.36,2.05,2.05.04.04.08.09.12.14.01,0,.03-.01.04-.02Z"/>
  <path d="m29.73,6.91c-1.19-.53-2.38-1.06-3.58-1.58-1.28-.57-2.57-1.14-3.85-1.7v1.6c1.87.83,3.75,1.65,5.62,2.48.09.04.18.08.31.15-1.25.56-2.46,1.1-3.67,1.64-2.78,1.25-5.57,2.5-8.36,3.73-.14.06-.34.09-.47.03-3.99-1.75-7.97-3.51-11.95-5.27-.04-.02-.07-.04-.15-.07.1-.05.17-.1.24-.13,1.84-.82,3.67-1.64,5.51-2.46v-1.6c-2.39,1.07-4.79,2.14-7.18,3.22-.25.11-.51.32-.65.55-.31.53-.04,1.08.63,1.37,4.4,1.94,8.8,3.89,13.2,5.84.39.17.75.16,1.14-.01,1.53-.69,3.06-1.37,4.59-2.06,2.85-1.28,5.7-2.55,8.55-3.83.24-.11.48-.29.62-.5.32-.51.08-1.11-.54-1.38Z"/>
</svg>