<?xml version="1.0" encoding="UTF-8"?>
<svg id="Layer_1" data-name="Layer 1" xmlns="http://www.w3.org/2000/svg" viewBox="0 0 32 32">
  <path d="M1.56,15.99c0-4.09,0-8.18,0-12.27C1.57,1.35,2.91,.01,5.3,0,12.4,0,19.49,0,26.59,0c2.48,0,3.84,1.38,3.84,3.89,0,8.1,.01,16.2,0,24.29,0,2.45-1.36,3.8-3.79,3.8-7.1,0-14.19,0-21.29,0-2.55,0-3.79-1.28-3.8-3.86,0-4.05,0-8.1,0-12.15Zm1.21,0c0,4.09,0,8.18,0,12.28,0,1.73,.78,2.51,2.49,2.52,7.14,0,14.28,0,21.42,0,1.68,0,2.5-.82,2.51-2.52,.01-8.14,.01-16.29,0-24.43,0-1.77-.83-2.59-2.58-2.6-7.1-.01-14.2-.01-21.3,0-1.76,0-2.54,.82-2.54,2.6,0,4.05,0,8.1,0,12.16Z"/>
  <path d="M22.63,20.83c1.3,1.24,2.35,2.27,3.44,3.27,.67,.61,.77,1.13,.03,1.78-.78,.69-1.5,1.45-2.22,2.2-.5,.52-.93,.51-1.42,0-1.08-1.13-2.17-2.24-3.35-3.44-.49,.47-.89,.84-1.28,1.22-.6,.59-1.03,.36-1.23-.34-.78-2.81-1.53-5.63-2.26-8.45-.19-.73,.18-1.08,.94-.88,2.74,.73,5.48,1.46,8.21,2.22,.99,.28,1.07,.66,.35,1.42-.3,.32-.68,.56-1.24,1.01Zm2.55,4.06c-.96-.93-1.88-1.82-2.79-2.72q-1.25-1.23-.14-2.52s.02-.15,.04-.31c-2.12-.56-4.24-1.13-6.53-1.73,.63,2.34,1.2,4.46,1.79,6.63,1.61-1.22,1.61-1.23,3,.18,.85,.87,1.67,1.78,2.51,2.68,.8-.83,1.4-1.46,2.12-2.2Z"/>
  <path d="M11.95,24.81q0,2.99-2.99,2.98t-3.04-3.06,3.06-3.05,2.98,3.12Zm-1.3,1.64v-3.45h-3.46v3.45h3.46Z"/>
  <path d="M11.95,7.35q0,2.97-2.98,2.97t-3.06-3.01,3.04-3.02,3,3.06Zm-4.8,1.68h3.49v-3.43h-3.49v3.43Z"/>
  <path d="M8.88,19.03q-2.96,0-2.96-2.98t3.01-3.06,3.02,3.05-3.07,2.99Zm-1.7-1.31h3.46v-3.46h-3.46v3.46Z"/>
  <path d="M20.4,9.75c-1.32,0-2.64,.04-3.96-.03-.36-.02-.71-.35-1.06-.54,.35-.23,.7-.66,1.05-.67,2.72-.06,5.44-.06,8.16,0,.36,0,.7,.43,1.05,.66-.35,.19-.69,.53-1.04,.55-1.4,.06-2.8,.03-4.2,.03Z"/>
  <path d="M20.49,13.97c-1.4,0-2.8,.03-4.2-.03-.31-.01-.61-.34-.92-.53,.32-.22,.63-.63,.96-.63,2.8-.05,5.61-.05,8.41,0,.3,0,.6,.36,.9,.55-.32,.21-.62,.59-.95,.61-1.4,.07-2.8,.03-4.2,.03Z"/>
  <path d="M20.5,5.5c-1.36,0-2.73,.05-4.08-.03-.36-.02-.69-.44-1.04-.67,.36-.17,.71-.48,1.07-.49,2.72-.04,5.45-.04,8.17,0,.35,0,.69,.34,1.03,.52-.35,.22-.7,.61-1.06,.63-1.36,.08-2.72,.03-4.08,.03Z"/>
</svg>