<?xml version="1.0" encoding="UTF-8"?>
<svg id="Layer_1" data-name="Layer 1" xmlns="http://www.w3.org/2000/svg" viewBox="0 0 32 32">
  <path d="M2.42,0c.3,.14,.63,.24,.89,.42,.52,.36,.77,.89,.79,1.52,.01,.31,0,.62,0,.94,0,7.22,0,14.44,0,21.66,0,1.67,1,2.99,2.57,3.36,.32,.08,.66,.09,.99,.09,7.45,0,14.89,0,22.34,0,1.22,0,2.11,.88,2.1,2.04-.02,1.03-.84,1.89-1.87,1.95-.09,0-.19,0-.28,0-7.48,0-14.95,0-22.43,0-3.55,0-6.49-2.37-7.25-5.83-.06-.28-.11-.57-.16-.85,0-7.9,0-15.79,0-23.69,.12-.26,.22-.53,.37-.77C.77,.39,1.24,.17,1.73,0,1.96,0,2.19,0,2.42,0Z"/>
  <path d="M30.79,0c.16,.09,.33,.17,.48,.27,.53,.37,.82,.85,.85,1.54,.03,.79-.27,1.34-.86,1.83-1.59,1.32-3.15,2.66-4.72,3.99-3.01,2.53-6.99,2.43-9.87-.24-1.32-1.22-2.97-1.29-4.39-.17-.98,.78-1.94,1.57-2.93,2.34-1.23,.95-2.93,.31-3.21-1.22-.13-.71,.07-1.35,.62-1.8,1.15-.96,2.3-1.93,3.51-2.8,2.79-2,6.59-1.69,9.07,.67,1.43,1.37,3.14,1.42,4.65,.15,1.58-1.34,3.16-2.68,4.75-4.01C28.99,.33,29.31,.18,29.6,0c.4,0,.79,0,1.19,0Z"/>
  <path d="M26.77,18c0-1.77,0-3.54,0-5.31,0-1.24,.97-2.1,2.2-2.01,1.01,.08,1.78,.95,1.79,2.05,.01,1.28,0,2.56,0,3.84,0,2.21,0,4.42,0,6.62,0,1.01-.55,1.79-1.42,2.05-1.29,.38-2.55-.54-2.57-1.9-.02-1.78,0-3.56,0-5.34Z"/>
  <path d="M10.78,18.65c0-1.58-.01-3.16,0-4.75,0-.81,.54-1.5,1.29-1.78,.76-.28,1.59-.08,2.15,.51,.41,.44,.55,.96,.55,1.55,0,2.99,0,5.98,0,8.96,0,.17-.01,.33-.04,.5-.15,1.03-1.04,1.73-2.1,1.68-1-.05-1.83-.87-1.85-1.89-.02-1.59,0-3.19,0-4.78Z"/>
  <path d="M18.78,20.67c0-.92-.02-1.83,0-2.75,.02-.99,.78-1.8,1.76-1.91,.96-.11,1.87,.5,2.14,1.44,.05,.17,.08,.35,.08,.52,0,1.79,.02,3.58,0,5.37,0,.9-.57,1.63-1.38,1.89-.78,.25-1.64,0-2.17-.64-.31-.38-.45-.81-.45-1.3,0-.02,0-.04,0-.06,0-.85,0-1.71,0-2.56,0,0,0,0,0,0Z"/>
</svg>