<?xml version="1.0" encoding="UTF-8"?>
<svg id="Layer_1" data-name="Layer 1" xmlns="http://www.w3.org/2000/svg" viewBox="0 0 32 32">
  <g>
    <g>
      <path d="M6.58,24.14c0-4.24,0-8.47,0-12.71,.02-.05,.04-.09,.04-.14,.31-2.02,1.4-3.44,3.29-4.22,.45-.19,.94-.26,1.42-.39,5.28,0,10.55,0,15.83,0,.05,.02,.09,.04,.14,.04,2.12,.27,3.86,1.78,4.42,3.84,.08,.3,.13,.61,.19,.91v15.73c-.03,.18-.07,.35-.1,.53-.14,.67-.38,1.3-.8,1.92-.09-.11-.15-.2-.23-.27-3.59-3.6-7.19-7.19-10.78-10.78-.22-.22-.44-.43-.68-.61-2.13-1.65-5.07-1.45-7.02,.48-1.83,1.83-3.66,3.66-5.49,5.49-.07,.07-.15,.12-.22,.18Zm14.78-11.13c-.01,2.33,1.86,4.2,4.2,4.22,2.31,.02,4.21-1.85,4.23-4.17,.02-2.34-1.85-4.25-4.16-4.26-2.37-.01-4.25,1.85-4.26,4.21Z"/>
      <path d="M27.11,32H11.38c-.12-.02-.24-.05-.36-.07-2.35-.43-4-2.14-4.37-4.53-.03-.2,.02-.33,.16-.48,2.31-2.3,4.62-4.61,6.92-6.92,1.39-1.38,3.3-1.39,4.68,0,3.64,3.64,7.28,7.28,10.92,10.92,.06,.06,.12,.13,.22,.23-.43,.19-.81,.4-1.21,.54-.4,.14-.83,.2-1.24,.3Z"/>
    </g>
    <path d="M27.68,13c0,1.15-.94,2.11-2.1,2.12-1.15,.01-2.11-.93-2.12-2.09-.02-1.16,.95-2.13,2.11-2.13,1.16,0,2.11,.95,2.11,2.11Z"/>
  </g>
  <rect x="0" y="0" width="3.05" height="30.48" rx=".15" ry=".15"/>
  <rect x="15.24" y="-13.71" width="3.05" height="30.48" rx=".15" ry=".15" transform="translate(18.29 -15.24) rotate(90)"/>
</svg>