<?xml version="1.0" encoding="UTF-8"?>
<svg id="Layer_1" data-name="Layer 1" xmlns="http://www.w3.org/2000/svg" viewBox="0 0 32 32">
  <path d="M9.21,10.01s3.07,2.19,2.19,10.08c-.88,7.89-3.95,9.21-3.95,9.21,0,0,6.14-5.26,13.15-4.38,7.01,.88,11.4,4.38,11.4,4.38,0,0-2.19-3.07-3.07-9.21-.88-6.14,3.07-9.21,3.07-9.21,0,0-5.7,2.19-10.96,2.19s-11.84-3.07-11.84-3.07Z"/>
  <path d="M1.75,2.56s3.07,2.19,2.19,10.08c-.88,7.89-3.95,9.21-3.95,9.21,0,0,6.14-5.26,13.15-4.38s11.4,4.38,11.4,4.38c0,0-2.19-3.07-3.07-9.21-.88-6.14,3.07-9.21,3.07-9.21,0,0-5.7,2.19-10.96,2.19S1.75,2.56,1.75,2.56Z"/>
</svg>