<?xml version="1.0" encoding="UTF-8"?>
<svg id="Layer_1" data-name="Layer 1" xmlns="http://www.w3.org/2000/svg" viewBox="0 0 32 32">
  <path d="M31.31,15.73v4.42c0,2.37-1.36,4.3-3.01,4.3h-.9v1.52c0,2.59-2.11,4.7-4.7,4.7h-1.37c-.19,.76-.87,1.32-1.69,1.32h-3.21c-.96,0-1.74-.78-1.74-1.74v-.73c0-.96,.78-1.74,1.74-1.74h3.21c.81,0,1.49,.56,1.68,1.31h1.37c1.72,0,3.13-1.4,3.13-3.13v-1.52h-1.45c-.49,0-.89-.57-.89-1.27V12.7c0-.7,.4-1.27,.89-1.27h.22v-.57c0-4.06-3.3-7.36-7.35-7.36h-2.3c-4.06,0-7.36,3.3-7.36,7.36v.57h.07c.49,0,.89,.57,.89,1.27v10.49c0,.7-.4,1.27-.89,1.27H3.7c-1.66,0-3.01-1.94-3.01-4.3v-4.42c0-2.37,1.36-4.3,3.01-4.3h.36v-.57C4.06,4.87,8.93,0,14.92,0h2.3C23.21,0,28.08,4.87,28.08,10.86v.57h.22c1.66,0,3.01,1.94,3.01,4.3Z"/>
</svg>