<?xml version="1.0" encoding="UTF-8"?>
<svg id="Layer_1" data-name="Layer 1" xmlns="http://www.w3.org/2000/svg" viewBox="0 0 32 32">
  <path d="M22.7,31.98c0-2.55,0-4.98,0-7.41,0-1.39-.2-2.71-.92-3.94-1.5-2.55-4.6-3.91-7.37-3.2-2.89,.73-4.97,3.22-5.06,6.21-.07,2.37-.03,4.74-.04,7.11,0,.36,0,.72,0,1.32-2.24-.11-4.41-.07-6.52-.36-1.6-.22-2.72-1.87-2.74-3.75-.05-4.04-.06-8.08,.03-12.11,.01-.69,.42-1.51,.9-2.03C4.62,9.79,8.31,5.79,12.05,1.84c2.31-2.44,5.67-2.4,7.96,.05,3.63,3.87,7.22,7.78,10.83,11.66,.79,.85,1.18,1.79,1.16,2.97-.05,3.6-.01,7.21-.02,10.81,0,3.06-1.57,4.64-4.61,4.65-1.5,0-3,0-4.68,0Z"/>
  <path d="M19.96,31.93h-7.87c-.02-.29-.06-.58-.06-.86,0-2.33,0-4.67,0-7,0-2.31,1.69-4.02,3.94-4.02,2.27,0,3.98,1.68,3.99,3.97,.01,2.6,0,5.2,0,7.92Z"/>
</svg>