<?xml version="1.0" encoding="UTF-8"?>
<svg id="Layer_1" data-name="Layer 1" xmlns="http://www.w3.org/2000/svg" viewBox="0 0 32 32">
  <path d="M16.14,32c-1.43-.02-2.81-.57-3.94-1.69-2.55-2.52-5.08-5.06-7.61-7.59-1.02-1.03-1.03-2.58-.04-3.56,1-.99,2.53-.99,3.57,.04,2.48,2.46,4.95,4.93,7.43,7.39,.17,.17,.38,.32,.6,.39,.38,.12,.66-.12,.92-.38,2.44-2.44,4.89-4.88,7.33-7.32,.64-.64,1.38-.97,2.28-.82,.98,.17,1.65,.73,1.97,1.67,.32,.94,.1,1.8-.58,2.52-.53,.57-1.1,1.11-1.65,1.66-2,1.99-3.99,3.98-5.99,5.97-1.14,1.13-2.57,1.72-4.3,1.72Z"/>
  <path d="M16.14,13.58c-1.43-.02-2.81-.57-3.94-1.69-2.55-2.52-5.08-5.06-7.61-7.59-1.02-1.03-1.03-2.58-.04-3.56,1-.99,2.53-.99,3.57,.04,2.48,2.46,4.95,4.93,7.43,7.39,.17,.17,.38,.32,.6,.39,.38,.12,.66-.12,.92-.38,2.44-2.44,4.89-4.88,7.33-7.32,.64-.64,1.38-.97,2.28-.82,.98,.17,1.65,.73,1.97,1.67,.32,.94,.1,1.8-.58,2.52-.53,.57-1.1,1.11-1.65,1.66-2,1.99-3.99,3.98-5.99,5.97-1.14,1.13-2.57,1.72-4.3,1.72Z"/>
</svg>