<?xml version="1.0" encoding="UTF-8"?>
<svg id="Layer_1" data-name="Layer 1" xmlns="http://www.w3.org/2000/svg" viewBox="0 0 32 32">
  <path d="M15.99,0C12.82,0,9.73,.94,7.1,2.7c-2.63,1.76-4.68,4.26-5.89,7.18C0,12.8-.32,16.02,.29,19.12c.62,3.1,2.14,5.95,4.38,8.19,2.24,2.24,5.09,3.76,8.19,4.38,3.1,.62,6.32,.3,9.24-.91,2.92-1.21,5.42-3.26,7.18-5.89,1.76-2.63,2.7-5.72,2.7-8.89,0-4.24-1.69-8.31-4.69-11.31C24.3,1.69,20.23,0,15.99,0Zm0,29.3c-2.63,0-5.2-.78-7.39-2.24-2.19-1.46-3.89-3.54-4.9-5.97-1.01-2.43-1.27-5.1-.76-7.68,.51-2.58,1.78-4.95,3.64-6.81,1.86-1.86,4.23-3.13,6.81-3.64,2.58-.51,5.25-.25,7.68,.76,2.43,1.01,4.51,2.71,5.97,4.9,1.46,2.19,2.24,4.76,2.24,7.39,0,3.53-1.4,6.91-3.89,9.4-2.49,2.49-5.88,3.89-9.4,3.89Z"/>
  <path d="M15.98,16h-1.32c-.35,0-.68-.13-.93-.37-.25-.24-.4-.56-.42-.91,0-.34,.12-.68,.35-.93,.23-.25,.56-.4,.9-.42,.53-.04,1.06-.04,1.59,0,.67,.03,1.31,.32,1.77,.81,.46,.49,.72,1.14,.71,1.81,.03,2.65,0,5.3,0,7.95,0,.18-.02,.36-.09,.53-.07,.17-.16,.32-.29,.45-.13,.13-.28,.23-.45,.29-.17,.07-.35,.1-.53,.09-.18,0-.35-.04-.51-.11-.16-.07-.31-.18-.43-.31-.12-.13-.21-.28-.27-.45-.06-.17-.09-.34-.08-.52v-7.91Z"/>
  <path d="M15.98,6.72c.39,0,.78,.12,1.1,.34,.33,.22,.58,.53,.73,.89,.15,.36,.19,.76,.11,1.15-.08,.39-.27,.74-.54,1.02-.28,.28-.63,.47-1.02,.54-.39,.08-.78,.04-1.15-.11-.36-.15-.67-.4-.89-.73-.22-.33-.34-.71-.34-1.1,0-.26,.05-.52,.15-.76,.1-.24,.25-.46,.43-.65,.19-.19,.4-.33,.65-.43,.24-.1,.5-.15,.76-.15Z"/>
</svg>