<?xml version="1.0" encoding="UTF-8"?>
<svg id="Layer_1" data-name="Layer 1" xmlns="http://www.w3.org/2000/svg" viewBox="0 0 32 32">
  <path d="M15.98,32C7.26,31.96,.07,24.74,.06,16.01,.06,7.23,7.32-.03,16.07,0c8.79,.03,16,7.28,15.97,16.05-.03,8.77-7.29,15.99-16.06,15.95Zm.03-15.97c0,2.71,0,5.25,0,7.79,0,.93,.55,1.56,1.31,1.6,.75,.04,1.42-.56,1.42-1.48,.03-2.77,.03-5.55-.05-8.32-.03-1.19-.99-2.12-2.17-2.26-.63-.08-1.27-.07-1.9-.03-.77,.05-1.25,.46-1.26,1.27,0,.83,.44,1.31,1.25,1.41,.42,.05,.85,0,1.39,0Zm.02-5.37c1.15,0,2.06-.88,2.05-1.99-.01-1.1-.95-2.08-2.02-2.09-1.06-.01-2.02,.95-2.05,2.06-.03,1.12,.87,2.02,2.02,2.03Z"/>
</svg>