<?xml version="1.0" encoding="UTF-8"?>
<svg id="Layer_1" data-name="Layer 1" xmlns="http://www.w3.org/2000/svg" viewBox="0 0 32 32">
  <path d="M17.06,15.21l-4.05-4.05c-.49-.49-1.29-.49-1.78,0-.49,.49-.49,1.29,0,1.78l1.89,1.89H2.26c-.7,0-1.26,.56-1.26,1.26s.56,1.26,1.26,1.26H13.13l-1.89,1.89c-.49,.49-.49,1.29,0,1.78,.25,.25,.57,.37,.89,.37s.65-.12,.89-.37l4.05-4.05c.49-.49,.49-1.29,0-1.78Z"/>
  <path d="M16.33,.13C9.4-.27,3.36,3.74,.75,9.61c-.4,.89,.24,1.89,1.21,1.89h0c.52,0,1-.31,1.21-.79C5.38,5.74,10.54,2.36,16.43,2.81c6.54,.51,11.81,5.83,12.24,12.38,.52,7.78-5.64,14.24-13.3,14.24-5.44,0-10.12-3.26-12.2-7.94-.21-.48-.69-.79-1.22-.79h0c-.97,0-1.61,1-1.21,1.89,2.49,5.6,8.1,9.5,14.62,9.5,9.21,0,16.61-7.79,15.96-17.14C30.78,7.01,24.29,.6,16.33,.13Z"/>
</svg>