<?xml version="1.0" encoding="UTF-8"?>
<svg id="Layer_1" data-name="Layer 1" xmlns="http://www.w3.org/2000/svg" viewBox="0 0 32 32">
  <g>
    <path d="M3.26,10.63c2.09-4.63,7.35-7.85,12.76-7.85s10.12,3.26,12.2,7.94c.21,.48,.69,.79,1.22,.79,.97,0,1.61-1,1.21-1.89C28.15,4.01,22.55,.11,16.02,.11,9.11,.11,3.75,4.49,1.51,10.63h1.75Z"/>
    <path d="M2.32,11.5h0c.52,0,1-.31,1.21-.79C5.73,5.74,10.9,2.36,16.79,2.81c4.93,.38,9.94,3.5,11.9,7.81h1.75C28.3,4.79,23.13,.51,16.69,.13,9.76-.27,3.72,3.74,1.11,9.61c-.4,.89,.24,1.89,1.21,1.89Z"/>
  </g>
  <g>
    <path d="M28.49,21.58c-2.09,4.63-7.35,7.85-12.76,7.85s-10.12-3.26-12.2-7.94c-.21-.48-.69-.79-1.22-.79-.97,0-1.61,1-1.21,1.89,2.49,5.6,8.1,9.5,14.62,9.5,6.91,0,12.27-4.38,14.51-10.52h-1.75Z"/>
    <path d="M29.43,20.71h0c-.52,0-1,.31-1.21,.79-2.2,4.98-7.37,8.36-13.26,7.9-4.93-.38-9.94-3.5-11.9-7.81H1.31c2.15,5.84,7.31,10.12,13.75,10.49,6.93,.4,12.97-3.6,15.58-9.47,.4-.89-.24-1.89-1.21-1.89Z"/>
  </g>
  <g>
    <path d="M14.61,15.11l-3.78-3.78c-.46-.46-1.21-.46-1.67,0-.46,.46-.46,1.21,0,1.67l1.77,1.77H4.05c-.65,0-1.18,.53-1.18,1.18s.53,1.18,1.18,1.18h6.88l-1.77,1.77c-.46,.46-.46,1.21,0,1.67,.23,.23,.53,.35,.83,.35s.6-.12,.83-.35l3.78-3.78c.46-.46,.46-1.21,0-1.67Z"/>
    <path d="M28.54,15.11l-3.78-3.78c-.46-.46-1.21-.46-1.67,0-.46,.46-.46,1.21,0,1.67l1.77,1.77h-6.88c-.65,0-1.18,.53-1.18,1.18s.53,1.18,1.18,1.18h6.88l-1.77,1.77c-.46,.46-.46,1.21,0,1.67,.23,.23,.53,.35,.83,.35s.6-.12,.83-.35l3.78-3.78c.46-.46,.46-1.21,0-1.67Z"/>
  </g>
</svg>