<?xml version="1.0" encoding="UTF-8"?>
<svg id="Layer_1" data-name="Layer 1" xmlns="http://www.w3.org/2000/svg" viewBox="0 0 32 32">
  <path d="M32.01,15.27c0,2.28-.02,4.56,0,6.84,.02,1.32-.56,2.21-1.72,2.79-4.32,2.15-8.63,4.31-12.94,6.47-.89,.45-1.78,.46-2.66,.02-4.37-2.18-8.73-4.36-13.1-6.54-1.05-.52-1.56-1.41-1.56-2.56-.01-4.72-.02-9.45,0-14.17,0-1.31,.68-2.25,1.92-2.72C6.31,3.75,10.67,2.12,15.02,.48c.66-.25,1.34-.25,2.01,0,4.35,1.63,8.7,3.26,13.05,4.9,1.24,.47,1.93,1.5,1.93,2.83,0,2.35,0,4.7,0,7.06Zm-2.92-7.1c-.18-.1-.26-.15-.35-.18-4.13-1.55-8.25-3.1-12.38-4.64-.23-.08-.54-.04-.78,.05-4.01,1.48-8.01,2.99-12.01,4.48-.18,.07-.36,.16-.59,.26,.15,.08,.24,.14,.35,.18,4.12,1.67,8.24,3.33,12.37,4.98,.21,.08,.51,.06,.72-.03,2.39-.94,4.76-1.9,7.14-2.87,1.81-.73,3.62-1.47,5.53-2.25ZM3.02,11.42c-.01,.17-.02,.27-.02,.36,0,3.35,0,6.71-.01,10.06,0,.37,.17,.51,.46,.65,3.52,1.75,7.04,3.52,10.56,5.28,.16,.08,.32,.14,.49,.21,.03-.1,.04-.14,.04-.17,0-3.8,0-7.59,.02-11.39,0-.34-.18-.44-.43-.54-1.83-.73-3.66-1.48-5.5-2.21-1.85-.74-3.7-1.48-5.61-2.25Zm14.5,16.57c.19-.08,.28-.1,.36-.14,3.6-1.8,7.2-3.6,10.81-5.39,.35-.17,.36-.4,.36-.71,0-3.26,0-6.52,0-9.78,0-.16-.02-.32-.03-.52-.25,.09-.46,.16-.66,.24-3.44,1.38-6.87,2.78-10.32,4.14-.39,.15-.53,.33-.52,.75,.02,3.61,.01,7.22,.01,10.83v.57Z"/>
</svg>