<?xml version="1.0" encoding="UTF-8"?>
<svg id="Layer_1" data-name="Layer 1" xmlns="http://www.w3.org/2000/svg" viewBox="0 0 32 32">
  <path d="M10.01,0l.44,.92c-1.59,1.69-2.76,3.21-3.51,4.57-.75,1.36-1.33,2.91-1.73,4.63-.4,1.73-.59,3.72-.59,5.99s.21,4.12,.62,5.84,1.01,3.28,1.79,4.69c.78,1.41,1.92,2.91,3.42,4.48l-.44,.87c-1.8-1.59-3.16-2.94-4.07-4.05-1.5-1.81-2.63-3.71-3.4-5.7s-1.16-4.07-1.16-6.23,.36-4.16,1.08-6.08c.72-1.92,1.78-3.75,3.19-5.5C6.63,3.23,8.08,1.75,10.01,0Z"/>
  <path d="M11.42,12.72l6.25-.18v13.5c0,.37,.09,.63,.27,.79,.26,.22,.58,.34,.97,.34h1.78v1.26H11.75v-1.26h1.66c.49,0,.85-.12,1.08-.36,.23-.24,.34-.59,.34-1.05V15.87c0-.63-.18-1.1-.54-1.42-.36-.32-.89-.48-1.59-.48h-1.29v-1.26ZM15.77,3.35c.5,0,.94,.19,1.32,.57,.38,.38,.57,.83,.57,1.34s-.18,.94-.55,1.31c-.37,.37-.81,.55-1.32,.55s-.96-.19-1.33-.56c-.37-.37-.56-.81-.56-1.32s.19-.94,.57-1.32c.38-.38,.82-.57,1.31-.57Z"/>
  <path d="M21.99,0c1.95,1.78,3.38,3.22,4.29,4.32,1.41,1.73,2.48,3.57,3.23,5.53,.74,1.95,1.11,4.01,1.11,6.17s-.36,4.13-1.07,6.01c-.71,1.89-1.79,3.74-3.22,5.55-1.02,1.28-2.46,2.76-4.34,4.42l-.44-.87c1.49-1.56,2.62-3.06,3.41-4.47,.79-1.42,1.39-2.98,1.8-4.69s.62-3.65,.62-5.83-.2-4.28-.6-6.01c-.4-1.73-.98-3.27-1.73-4.64s-1.92-2.89-3.49-4.57L21.99,0Z"/>
</svg>