<?xml version="1.0" encoding="UTF-8"?>
<svg id="Layer_1" data-name="Layer 1" xmlns="http://www.w3.org/2000/svg" viewBox="0 0 32 32">
  <defs>
    <style>
      .cls-1 {
        fill: #231f20;
      }
    </style>
  </defs>
  <path class="cls-1" d="M14.67,32c-.66-.26-1.29-.43-1.83-.74-2.82-1.6-5.64-3.19-8.41-4.86-2.05-1.24-3.13-3.15-3.17-5.55-.05-3.21-.01-6.42-.01-9.63,0-.67,.14-1.32,.37-1.99,.67,.39,1.3,.76,1.94,1.13,2.87,1.68,5.73,3.37,8.62,5.02,.67,.38,1.43,.62,2.17,.87,.27,.09,.33,.18,.33,.44,0,2.59,0,5.19,0,7.78,0,2.34,0,4.69,0,7.03v.51Z"/>
  <path class="cls-1" d="M17.34,32c0-.24,0-.34,0-.44,0-4.96,0-9.92,0-14.88,0-.26,.05-.38,.33-.43,.81-.16,1.55-.49,2.26-.9,3.37-1.95,6.74-3.88,10.11-5.83,.12-.07,.24-.13,.38-.21,.26,.72,.36,1.44,.36,2.18,0,3.03,.02,6.07-.01,9.1,0,.7-.11,1.42-.3,2.1-.45,1.58-1.4,2.84-2.81,3.68-2.8,1.66-5.63,3.28-8.47,4.89-.54,.31-1.17,.48-1.83,.74Z"/>
  <path class="cls-1" d="M29.06,6.97c-.1,.06-.17,.11-.25,.16-3.44,1.98-6.88,3.97-10.32,5.94-1.67,.96-3.34,.95-5-.02-3.38-1.97-6.77-3.95-10.15-5.93-.11-.06-.21-.13-.39-.24,.38-.32,.69-.67,1.08-.92,1.1-.69,2.22-1.34,3.34-1.98,1.83-1.06,3.65-2.16,5.52-3.16,2.05-1.09,4.18-1.11,6.22,0,2.63,1.44,5.2,2.98,7.8,4.47,.7,.4,1.38,.83,1.94,1.43,.07,.07,.13,.15,.21,.24Z"/>
</svg>