<?xml version="1.0" encoding="UTF-8"?>
<svg id="Layer_1" data-name="Layer 1" xmlns="http://www.w3.org/2000/svg" viewBox="0 0 32 32">
  <path d="M15.89,32c-1.4-.34-2.48-1.29-3.71-1.94-.42-.22-.82-.48-1.22-.73-.14-.09-.26-.2-.43-.34,.75-.35,1.43-.68,2.12-.97,.1-.04,.29,.05,.41,.12,.86,.5,1.72,1,2.56,1.53,.31,.19,.57,.19,.88,0,3.73-2.17,7.46-4.32,11.2-6.47,.3-.17,.42-.37,.42-.73-.01-4.32-.01-8.64,0-12.96,0-.38-.13-.59-.45-.77-3.7-2.12-7.4-4.25-11.09-6.39-.37-.22-.65-.24-1.04-.01-3.7,2.16-7.41,4.29-11.12,6.42-.3,.17-.43,.37-.43,.73,.01,4.34,.01,8.67,0,13.01,0,.34,.12,.53,.4,.69,.92,.51,1.82,1.08,2.75,1.57,.4,.21,.84,.38,1.29,.44,1.02,.14,1.74-.54,1.74-1.58,0-4.26,0-8.52,0-12.78,0-.75,.05-.8,.81-.8,.2,0,.4,0,.6,0,.76,0,.79,.03,.79,.81,0,.87,0,1.75,0,2.62,0,3.31,0,6.62,0,9.93,0,.47-.03,.95-.13,1.41-.36,1.64-1.52,2.53-3.22,2.57-1.11,.03-2.1-.35-3.04-.87-.89-.48-1.74-1.02-2.63-1.51-.99-.55-1.46-1.37-1.46-2.51,.01-4.37,0-8.73,0-13.1,0-1.08,.46-1.86,1.4-2.4C7.08,4.83,10.85,2.65,14.63,.48,14.99,.27,15.41,.16,15.8,0c.18,0,.37,0,.55,0,.38,.15,.78,.26,1.13,.46,3.79,2.17,7.57,4.37,11.36,6.55,.95,.55,1.41,1.34,1.41,2.44-.01,4.33-.01,8.67,0,13,0,1.17-.46,2-1.49,2.58-2.9,1.65-5.76,3.35-8.66,4.99-1.25,.71-2.41,1.62-3.84,1.98h-.37Z"/>
  <path d="M20.28,8.96c1.03,0,2.43,.14,3.74,.78,1.61,.78,2.32,2.15,2.49,3.86,.04,.36-.14,.52-.5,.52-.52,0-1.05,.03-1.56-.02-.17-.01-.44-.19-.47-.34-.37-1.78-1.66-2.3-3.24-2.4-1.12-.06-2.25-.09-3.33,.3-.79,.28-1.15,.81-1.17,1.59,0,.53,.22,.9,.71,1.04,.79,.22,1.58,.4,2.39,.56,1.7,.33,3.42,.57,5.09,.98,1.29,.32,2.26,1.14,2.54,2.53,.44,2.24-.52,4.15-2.67,4.95-2.89,1.07-5.83,1.03-8.68-.17-1.71-.72-2.49-2.15-2.57-3.98-.02-.35,.15-.55,.49-.56,.52-.02,1.04-.02,1.57,0,.29,0,.47,.16,.52,.45,.03,.17,.07,.34,.11,.51,.3,1.25,1.24,1.76,2.38,1.92,1.49,.22,2.99,.26,4.47-.08,.38-.09,.75-.25,1.08-.46,.63-.41,.74-1.07,.66-1.76-.07-.58-.52-.85-.99-.96-1.18-.27-2.38-.46-3.57-.69-1.31-.26-2.65-.43-3.92-.81-1.41-.43-2.21-1.49-2.31-2.98-.11-1.55,.42-2.83,1.75-3.7,1.39-.9,2.97-1.09,4.99-1.07Z"/>
</svg>