<?xml version="1.0" encoding="UTF-8"?>
<svg id="Layer_1" data-name="Layer 1" xmlns="http://www.w3.org/2000/svg" viewBox="0 0 32 32">
  <path d="m30.55,9.77c-.2-.46-.41-.9-.64-1.33L31.66.05l-8.88,1.51c-.21-.1-.41-.2-.63-.29-1.92-.84-3.98-1.26-6.16-1.26s-4.23.42-6.13,1.26c-1.91.84-3.58,1.98-5.02,3.42-1.44,1.44-2.57,3.13-3.4,5.08-.83,1.95-1.25,4.03-1.25,6.23s.42,4.29,1.25,6.23c.83,1.95,1.97,3.64,3.4,5.08,1.43,1.44,3.11,2.58,5.02,3.42,1.91.84,3.95,1.26,6.13,1.26s4.23-.42,6.16-1.26c1.92-.84,3.59-1.98,5.01-3.42,1.42-1.44,2.55-3.13,3.38-5.08.83-1.95,1.25-4.02,1.25-6.23s-.42-4.29-1.25-6.23Zm-6.46,9.68c-.46,1.08-1.09,2.02-1.9,2.83-.81.81-1.74,1.45-2.8,1.92-1.06.47-2.2.7-3.41.7s-2.35-.23-3.41-.7c-1.06-.46-1.99-1.1-2.78-1.92-.79-.81-1.42-1.76-1.88-2.83-.46-1.08-.69-2.22-.69-3.44s.23-2.37.69-3.44c.46-1.08,1.09-2.02,1.88-2.83.79-.81,1.72-1.45,2.78-1.92,1.06-.46,2.2-.7,3.41-.7s2.34.23,3.41.7c1.06.47,2,1.11,2.8,1.92.81.81,1.44,1.76,1.9,2.83.46,1.08.69,2.22.69,3.44s-.23,2.37-.69,3.44Z"/>
  <path d="m12.97,18.3c-.99,0-1.79-.8-1.79-1.79s.8-1.79,1.79-1.79,1.79.8,1.79,1.79-.8,1.79-1.79,1.79Z"/>
  <path d="m19.36,18.3c-.99,0-1.79-.8-1.79-1.79s.8-1.79,1.79-1.79,1.79.8,1.79,1.79-.8,1.79-1.79,1.79Z"/>
</svg>