<?xml version="1.0" encoding="UTF-8"?>
<svg id="Layer_1" data-name="Layer 1" xmlns="http://www.w3.org/2000/svg" viewBox="0 0 32 32">
  <path d="M14.06,23.99c-.99,0-1.89,.01-2.79-.01-.11,0-.28-.16-.32-.28-.81-2.22-2.11-4.13-3.57-5.97C2.31,11.34,5.87,2,13.52,.29c6.99-1.56,12.51,3.39,13.34,8.89,.47,3.13-.15,6.02-2.16,8.51-1.55,1.91-2.88,3.94-3.71,6.29h-2.98c.08-.36,.12-.7,.22-1.02,.79-2.47,2.04-4.68,3.75-6.61,4.12-4.66,1.75-11.92-4.32-13.2-3.35-.71-6.88,.87-8.63,3.87-1.7,2.91-1.31,6.67,.96,9.25,1.68,1.91,2.94,4.07,3.75,6.49,.13,.38,.2,.78,.31,1.24Z"/>
  <path d="M11.04,26.04h9.95c0,.94,.02,1.86-.01,2.77,0,.22-.18,.44-.3,.64-.42,.67-.86,1.33-1.29,2-.24,.37-.57,.55-1.02,.54-1.57,0-3.14,.03-4.71-.03-.33-.01-.75-.24-.96-.51-.54-.7-.99-1.47-1.46-2.22-.09-.14-.17-.3-.17-.46-.02-.9,0-1.8,0-2.74Z"/>
  <path d="M9.93,10.81c.17-3.15,2.87-5.81,5.94-5.79,.68,0,1.11,.37,1.13,.95,.02,.61-.41,1.01-1.11,1.02-2.08,.05-3.79,1.76-3.88,3.87-.02,.46-.12,.9-.6,1.01-.32,.07-.76,.04-1.01-.14-.25-.18-.32-.61-.47-.92Z"/>
</svg>