<?xml version="1.0" encoding="UTF-8"?>
<svg id="Layer_1" data-name="Layer 1" xmlns="http://www.w3.org/2000/svg" viewBox="0 0 32 32">
  <path d="M31.44,14.93c-1.17-1.21-2.35-2.41-3.55-3.61-.66-.66-1.5-.7-2.07-.15-.6,.57-.6,1.25,.02,2,.38,.46,.8,.88,1.28,1.41-1.76,0-3.37-.01-4.97,0-.42,0-.64-.13-.76-.53-.4-1.24-1.18-2.22-2.22-2.97-.47-.34-.49-.68-.31-1.16,.47-1.25,.9-2.51,1.36-3.77,.08-.21,.07-.49,.4-.59,.22,.43,.43,.85,.65,1.28,.49,.96,1.14,1.28,1.91,.93,.81-.37,1.01-1.02,.6-2.03-.65-1.58-1.37-3.13-2.17-4.65-.46-.88-.99-1.1-1.91-.68-1.61,.72-3.2,1.47-4.79,2.25-.76,.37-1,1.12-.66,1.82,.33,.69,1.07,.96,1.83,.65,.54-.22,1.06-.45,1.75-.75-.65,1.83-1.24,3.5-1.83,5.18-.11,.32-.36,.34-.64,.37-2.69,.28-4.48,1.73-5.41,4.25-.07,.2-.09,.5-.31,.52-.77,.05-1.55,.06-2.32,.03-.47-.02-.48-.53-.68-.81-.89-1.27-2.47-1.85-3.96-1.41C1.15,12.95,.1,14.3,.03,15.89c-.06,1.45,.97,2.96,2.4,3.47,1.41,.51,3.17,.13,3.96-1.12,.56-.87,1.21-1.07,2.11-.96,.24,.03,.48,.02,.72,0,.42-.04,.58,.15,.73,.54,.94,2.46,2.67,3.95,5.37,4.16,.29,.02,.53,.07,.64,.37,.6,1.67,1.21,3.34,1.88,5.2-.74-.31-1.29-.56-1.85-.78-.74-.28-1.49,.05-1.79,.75-.28,.67-.03,1.44,.66,1.77,1.62,.77,3.24,1.53,4.88,2.25,.88,.39,1.41,.2,1.85-.67,.81-1.59,1.61-3.2,2.23-4.88,.32-.86,.09-1.49-.63-1.81-.75-.34-1.4-.06-1.86,.75-.28,.49-.39,1.08-.87,1.57-.58-1.62-1.12-3.15-1.67-4.68-.12-.35-.07-.6,.26-.82,1.14-.78,1.91-1.85,2.35-3.16,.09-.26,.19-.49,.54-.49,1.7,0,3.4,0,5.31,0-.58,.63-1.04,1.1-1.46,1.6-.56,.65-.54,1.32,.02,1.85,.55,.52,1.31,.56,1.87,.02,1.28-1.25,2.55-2.52,3.79-3.81,.75-.79,.73-1.27-.04-2.07Zm-15.74,4.54c-1.98,0-3.52-1.51-3.53-3.47,0-1.96,1.54-3.51,3.5-3.52,1.96,0,3.53,1.54,3.55,3.49,.02,1.91-1.57,3.5-3.52,3.5Z"/>
</svg>