<?xml version="1.0" encoding="UTF-8"?>
<svg id="Layer_1" data-name="Layer 1" xmlns="http://www.w3.org/2000/svg" viewBox="0 0 32 32">
  <path d="M16.86,29.69c0,.21,0,.43,0,.65-.04,.94-.52,1.55-1.47,1.6-1.48,.07-2.97,.09-4.45,0-1.08-.06-1.44-.69-1.51-2.27-.19-.04-.4-.09-.6-.14-.8-.21-1.31-.75-1.38-1.59-.07-.88-.12-1.77-.04-2.63,.14-1.47-.22-2.8-.99-4.02-.53-.85-1.12-1.67-1.76-2.44C.29,13.52,1.18,5.93,6.65,2.09c4.55-3.19,10.68-2.69,14.59,1.2,3.93,3.9,4.45,9.93,1.24,14.56-.6,.87-1.32,1.65-1.92,2.51-1.05,1.51-1.82,3.12-1.49,5.06,.09,.51,.02,1.05,.01,1.58-.03,1.85-.39,2.3-2.21,2.68Zm.56-5.95c.36-2.41,1.68-4.29,3.2-6.05,.2-.23,.37-.48,.54-.73,2.39-3.48,2.46-7.65,.18-11.04C19.08,2.58,15.05,.96,11.13,1.82,4.15,3.35,1.17,11.5,5.52,17.28c1.5,1.99,3.13,3.88,3.49,6.47h8.41Zm0,1.1c-.3,0-.54,0-.79,0-2.26,0-4.52,0-6.78,0-.92,0-.97,.07-.75,1h8.32v-1Zm-8.36,2.16c-.21,.79,.07,1.03,.78,1.02,2.26-.03,4.52,0,6.77-.01,.88,0,.9-.03,.77-1.01H9.05Zm6.7,2.64h-5.12c-.22,1.04-.04,1.28,.94,1.29,1.03,0,2.06,0,3.08,0,1.1,0,1.21-.13,1.09-1.29Z"/>
  <path d="M22.64,25.42c.23-.22,.5-.48,.97-.95,.62,.78,1.23,1.55,1.84,2.33,.09-.07,.17-.13,.26-.2v-7.03h1.3v7.23c.78-.87,1.43-1.6,2.1-2.34,.49,.47,.78,.74,1.01,.96-1.3,1.29-2.55,2.54-3.75,3.73-1.15-1.15-2.41-2.41-3.72-3.72Z"/>
  <path d="M16.46,22.69h-6.56c.17-2-1.24-3.15-2.47-4.57,.69,.09,1.22,.13,1.74,.23,2.41,.48,4.52-.14,6.38-1.71,.71-.6,1.43-1.19,2.16-1.76,.58-.45,1.25-.63,1.99-.43,.51,.14,.72,.41,.48,.94-.61,1.38-1.2,2.76-2.25,3.89-.86,.93-1.56,1.98-1.47,3.42Z"/>
</svg>