<?xml version="1.0" encoding="UTF-8"?>
<svg id="Layer_1" data-name="Layer 1" xmlns="http://www.w3.org/2000/svg" viewBox="0 0 32 32">
  <path d="M0,8.88c.28,.06,.56,.13,.84,.22,.42,.15,.86,.28,1.29,.4,.03,2.14,0,4.29,.01,6.43-.02,.89,.68,1.72,1.52,1.95,.9,.13,1.8,.04,2.71,.08,0,.68,0,1.36,0,2.05-.98,0-1.96,.07-2.93-.04C1.57,19.63,0,17.86,0,15.94,0,13.59,0,11.23,0,8.88Z"/>
  <path d="M14.43,12.63c.11-2.13,2.09-3.77,4.15-3.86,1.34,.08,2.7,.64,3.47,1.78,.69,.84,.79,1.96,.83,2.99,0,2.14,0,4.27,0,6.41-.72-.13-1.41-.37-2.09-.62-.02-2.1,.02-4.19-.01-6.28,0-1.07-.88-2.06-1.96-2.15-1.21-.15-2.37,.95-2.31,2.17,0,2.08,0,4.16,0,6.24-.7,.26-1.41,.48-2.11,.7,0-2.46-.03-4.92,.01-7.38Z"/>
  <path d="M6.04,9.26c.43-.15,.87-.27,1.31-.38,.03,.79-.07,1.59,.05,2.38,.46,.87,1.31,1.42,2.07,1.99,.82-.53,1.56-1.19,2.13-1.99,0-.59,0-1.18,.02-1.76,.71-.16,1.37-.5,2.1-.61,0,.86,0,1.72-.02,2.59-.42,1.68-1.9,2.72-3.22,3.68,.03,1.62,.01,3.24,0,4.86-.68-.23-1.36-.46-2.04-.7,0-1.38,.03-2.76-.01-4.14-.73-.75-1.75-1.23-2.37-2.11-.87-.97-.89-2.33-.82-3.56,.26-.08,.53-.16,.79-.24Z"/>
  <path d="M25.58,9.42c1.01-.66,2.31-.63,3.46-.42,1.62,.52,2.96,2.09,2.96,3.84,0,2.4,0,4.79,0,7.19-.71-.24-1.43-.49-2.14-.75,0-2.06,0-4.13,0-6.2,.07-.93-.57-1.99-1.56-2.06-.64-.04-1.43-.14-1.9,.4-.62,.51-.76,1.37-.76,2.13,0,1.92,0,3.85,0,5.77-.68,.23-1.36,.46-2.03,.7,0-2.4,0-4.79,0-7.19-.04-1.4,.84-2.68,2-3.41Z"/>
</svg>