<?xml version="1.0" encoding="UTF-8"?>
<svg id="Layer_1" data-name="Layer 1" xmlns="http://www.w3.org/2000/svg" viewBox="0 0 32 32">
  <path d="M15.98,30.39c-4.23,0-8.46,0-12.7,0-2.12,0-3.26-1.11-3.26-3.21,0-7.4,0-14.8,0-22.2,0-2.09,1.14-3.24,3.25-3.24,8.49-.01,16.98-.01,25.47,0,2.15,0,3.26,1.15,3.26,3.31,0,7.37,0,14.74,0,22.12,0,2.11-1.12,3.22-3.25,3.22-4.26,0-8.52,0-12.78,0Zm-.01-21.69c-4.42,0-8.85,.02-13.27-.02-.77,0-1.02,.19-1.01,.99,.03,5.76,.02,11.52,.02,17.29,0,1.38,.37,1.75,1.74,1.75,8.38,0,16.77,0,25.15,0,1.38,0,1.74-.36,1.74-1.75,0-5.76-.01-11.52,.02-17.29,0-.81-.27-1-1.03-.99-4.45,.03-8.9,.02-13.35,.02Zm13.73-3.52c0-.72-.66-1.35-1.38-1.34-.74,0-1.35,.62-1.34,1.36,0,.72,.64,1.36,1.36,1.35,.7,0,1.37-.68,1.36-1.37Zm-8.97-1.34c-.74,0-1.34,.6-1.35,1.34,0,.72,.63,1.37,1.33,1.37,.71,0,1.36-.65,1.37-1.36,0-.72-.62-1.35-1.35-1.36Zm5.13,1.32c-.01-.75-.62-1.34-1.37-1.32-.74,.02-1.34,.65-1.32,1.38,.02,.71,.68,1.35,1.38,1.34,.73-.02,1.32-.65,1.31-1.39Z"/>
  <path d="M19.42,27.15c-.37,.46-.45,1.32-1.33,1.03-.28-.09-.61-.27-.73-.51-.3-.55-.6-.83-1.07-.23-.34,.43-.67,.3-1.06,.13-.41-.17-.67-.37-.59-.89,.1-.66-.27-.87-.83-.6-.48,.23-.74,.06-1.03-.28-.28-.33-.5-.61-.19-1.06,.37-.55,.14-.8-.47-.95-.32-.08-.71-.36-.81-.64-.1-.28,.03-.78,.25-1.01,.44-.46,.49-.81-.11-1.05-.56-.22-.59-.62-.44-1.04,.11-.29,.35-.64,.62-.74,.65-.24,.75-.49,.34-1.07-.16-.23-.17-.72-.02-.95,.17-.27,.58-.54,.89-.54,.87,0,1-.19,.59-1.08-.35,.03-.7,.07-1.11,.11-.15,.52-.31,1.14-1.12,.6-.04-.03-.19,0-.22,.06-.51,.68-.9,.4-1.26-.21-.72,.51-1.16,.36-1.27-.52-.67,0-1.34,0-.92-1.01-.67-.27-1.23-.61-.44-1.36-.59-.53-.89-1.05,.15-1.4-.39-.78-.25-1.24,.67-1.23,.02-.77,.24-1.28,1.11-.78,.35-.57,.69-1.22,1.36-.3,.61-.51,1.15-.69,1.41,.29,.55-.08,1.2-.38,1.14,.59,0,.1,.15,.29,.24,.3,.93,.08,.64,.66,.46,1.21,.8,.37,.82,.84,.11,1.36,.28,.51,.67,1.04-.26,1.25-.09,.02-.12,.26-.18,.4,.15,.04,.37,.16,.43,.11,.55-.5,1.07-.57,1.66-.06,.03,.03,.58-.35,.61-.57,.07-.53,.36-.64,.8-.72,.44-.08,.76-.1,1,.38,.29,.57,.7,.62,1.01,.03,.27-.52,.68-.52,1.08-.32,.27,.14,.58,.42,.65,.7,.15,.61,.45,.84,.96,.47,.46-.34,.75-.21,1.14,.08,.4,.3,.54,.56,.33,1.08-.23,.57,.15,.84,.68,.69,.57-.15,.76,.17,1,.56,.24,.4,.26,.71-.12,1.05-.46,.43-.27,.82,.26,.94,.54,.12,.65,.41,.71,.9,.06,.53-.12,.79-.59,.98-.52,.22-.53,.61-.09,.92,.44,.31,.48,.64,.31,1.11-.16,.42-.33,.68-.86,.64-.66-.05-.85,.36-.53,.89,.28,.46,.1,.72-.19,1.05-.33,.36-.63,.56-1.11,.25-.43-.27-.81-.07-.8,.38,.01,.6-.13,.91-.72,1.17-.67,.29-.86-.24-1.22-.5-.04-.03-.11-.03-.27-.08Zm-1.21-2.96c1.77,0,3.27-1.47,3.29-3.23,.02-1.78-1.44-3.25-3.22-3.27-1.86-.02-3.32,1.42-3.32,3.25,0,1.79,1.47,3.25,3.25,3.25Zm-6.04-11.25c-.02-.94-.86-1.74-1.81-1.73-.95,.02-1.75,.85-1.74,1.79,.02,.95,.85,1.74,1.8,1.72,.97-.02,1.76-.84,1.75-1.79Z"/>
</svg>