<?xml version="1.0" encoding="UTF-8"?>
<svg id="Layer_1" data-name="Layer 1" xmlns="http://www.w3.org/2000/svg" viewBox="0 0 32 32">
  <path d="M10.94,32h-.56c-.09-.04-.18-.09-.28-.12-3.27-.93-6.53-1.87-9.8-2.8C.08,29.02,0,28.95,0,28.71c0-4.24,0-8.48,0-12.71,0-2.45,2.12-4.28,4.55-3.95,.29,.04,.58,.12,.91,.19-.23-1.56-.13-3.07,.3-4.56,.43-1.49,1.16-2.82,2.18-3.99,1.02-1.17,2.23-2.08,3.65-2.73C13,.31,14.49-.01,16.04,0c2.89,.03,5.41,1.03,7.45,3.08,2.81,2.83,3.69,6.25,2.9,10.13,.97,.33,1.93,.64,2.88,.97,1.23,.42,2.06,1.26,2.51,2.48,.1,.27,.15,.56,.23,.84v14.44c-.09-.01-.19-.02-.27-.04-3.35-.82-6.7-1.64-10.06-2.44-.19-.05-.41-.05-.61,0-2.53,.62-5.06,1.26-7.59,1.89-.84,.21-1.69,.44-2.53,.66Zm5.02-6.36c-.11-.14-.19-.25-.28-.35-2.31-2.26-4.61-4.52-6.92-6.77-.87-.84-1.6-1.77-2.18-2.84-.06-.11-.18-.2-.29-.25-.57-.22-1.15-.42-1.73-.63-1.03-.37-1.88,.22-1.89,1.32,0,3.53,0,7.06,0,10.59,0,.23,.08,.31,.3,.38,2.47,.7,4.94,1.41,7.41,2.11,.2,.06,.43,.07,.63,.02,3.35-.83,6.7-1.67,10.05-2.51,.18-.05,.39-.04,.58,0,1.66,.4,3.31,.81,4.97,1.21,.9,.22,1.79,.44,2.71,.66,0-.09,.02-.15,.02-.21,0-3.45,0-6.9,0-10.34,0-.66-.33-1.1-.95-1.31-.9-.31-1.82-.6-2.72-.91-.19-.07-.27-.03-.37,.14-.53,.94-1.2,1.77-1.97,2.52-1.62,1.58-3.23,3.16-4.85,4.74-.81,.79-1.62,1.58-2.5,2.44Zm-.03-3.72c.13-.11,.17-.14,.2-.17,1.84-1.8,3.7-3.58,5.51-5.41,1.82-1.84,2.56-4.08,2.25-6.65-.58-4.76-5.28-7.96-9.91-6.71-2.95,.79-4.91,2.7-5.69,5.66-.78,2.96-.02,5.59,2.14,7.77,1.59,1.6,3.23,3.16,4.84,4.75,.24,.23,.44,.5,.66,.76Z"/>
  <path d="M21.33,10.65c.02,2.93-2.36,5.33-5.31,5.34-2.92,.02-5.32-2.35-5.34-5.28-.02-2.97,2.36-5.39,5.29-5.39,2.97,0,5.34,2.36,5.36,5.33Zm-5.33,2.67c1.48,0,2.66-1.18,2.67-2.65,0-1.46-1.19-2.67-2.65-2.68-1.48,0-2.68,1.19-2.69,2.67,0,1.46,1.2,2.66,2.67,2.65Z"/>
</svg>