<?xml version="1.0" encoding="UTF-8"?>
<svg id="Layer_1" data-name="Layer 1" xmlns="http://www.w3.org/2000/svg" viewBox="0 0 32 32">
  <path d="M16.05,4.98c-2.97,0-5.38,2.41-5.38,5.38s2.41,5.38,5.38,5.38,5.38-2.41,5.38-5.38-2.41-5.38-5.38-5.38Zm2.09,5.69c-.15,.17-.33,.33-.46,.52,.05,.69,.18,1.36,.24,2.05-.47-.21-.93-.44-1.39-.65-.15-.07-.3-.16-.46-.21-.15,.01-.27,.11-.41,.16-.49,.22-.97,.47-1.47,.68,.05-.68,.16-1.35,.24-2.02-.25-.3-.52-.57-.79-.85-.19-.23-.42-.43-.61-.66,.66-.16,1.33-.25,1.99-.4,.08-.07,.11-.16,.16-.25,.28-.52,.56-1.04,.85-1.55,.05,.07,.1,.15,.15,.22,.27,.49,.54,.98,.81,1.47,.03,.04,.05,.11,.11,.11,.65,.14,1.32,.24,1.97,.4-.32,.32-.61,.67-.93,.99Z"/>
  <path d="M25.97,9.97l-1.01-.39c-.14-.05-.28-.08-.4-.07-.02-.19-.04-.37-.07-.55,.12-.02,.25-.08,.37-.16l.86-.6c.52-.36,.43-.71-.2-.77l-1.07-.12c-.14-.02-.27,0-.38,.03-.07-.18-.13-.35-.21-.53,.1-.05,.2-.13,.29-.24l.68-.81c.4-.48,.23-.8-.39-.7l-1.07,.17c-.13,.02-.24,.06-.34,.12-.11-.16-.22-.31-.34-.46,.08-.08,.15-.17,.21-.29l.44-.95c.27-.57,.02-.83-.56-.57l-.99,.44c-.11,.05-.2,.12-.28,.19-.15-.12-.31-.24-.46-.35,.05-.09,.1-.2,.12-.33l.18-1.04c.11-.62-.2-.8-.69-.41l-.84,.68c-.09,.08-.16,.16-.22,.25-.18-.08-.36-.15-.54-.22,.03-.1,.04-.21,.03-.33l-.09-1.05c-.05-.63-.4-.72-.77-.22l-.64,.87c-.07,.1-.12,.2-.15,.3-.19-.03-.38-.06-.58-.08,0-.1-.02-.21-.06-.33l-.36-.99c-.21-.59-.57-.6-.8,0l-.39,1.01c-.04,.11-.06,.22-.07,.32-.19,.02-.39,.06-.58,.09-.03-.1-.07-.21-.15-.31l-.6-.86c-.36-.52-.71-.43-.77,.2l-.11,1.07c-.01,.13,0,.24,.02,.35-.18,.07-.36,.14-.53,.23-.06-.1-.13-.19-.23-.27l-.81-.68c-.48-.4-.79-.23-.7,.39l.17,1.07c.02,.13,.06,.25,.12,.34-.15,.11-.31,.23-.45,.35-.08-.08-.18-.16-.3-.21l-.96-.45c-.57-.27-.83-.02-.57,.56l.44,.99c.06,.13,.13,.23,.22,.31-.12,.15-.23,.3-.34,.45-.1-.07-.22-.12-.37-.14l-1.04-.18c-.62-.11-.8,.2-.41,.69l.68,.84c.09,.12,.2,.2,.31,.26-.07,.17-.14,.34-.2,.52-.12-.04-.26-.06-.42-.05l-1.05,.09c-.63,.06-.72,.4-.22,.77l.87,.64c.13,.1,.27,.15,.4,.18-.03,.18-.05,.37-.07,.55-.13-.02-.28,0-.44,.06l-.99,.36c-.59,.22-.59,.57,0,.8l1.01,.39c.16,.06,.31,.08,.45,.06,.02,.19,.05,.37,.08,.55-.14,.02-.29,.07-.44,.17l-.86,.6c-.51,.36-.43,.71,.2,.77l1.07,.12c.18,.02,.34,0,.48-.07,.07,.18,.14,.35,.22,.52-.14,.05-.28,.14-.4,.29l-.68,.81c-.4,.48-.23,.79,.39,.7l1.07-.17c.19-.03,.34-.1,.46-.2,.11,.15,.22,.3,.34,.45-.13,.08-.24,.21-.33,.39l-.45,.96c-.26,.57-.02,.82,.56,.57l.99-.44c.18-.08,.31-.2,.4-.33l-2.73,13.71v.02c-.02,.07-.04,.13-.04,.19h0s0,0,0,0c-.05,.46,.25,.63,.74,.37l1.98-1.06c.55-.3,1.38-.2,1.85,.23l1.57,1.41c.47,.42,.86,.25,.89-.37l.46-11.75,.23,.63c.21,.59,.57,.59,.8,0l.39-1.01s0-.01,0-.02l.48,12.14c.02,.63,.42,.8,.89,.37l1.57-1.41c.47-.42,1.29-.52,1.85-.23l1.98,1.06c.55,.3,.87,.05,.71-.56l-3.04-13.6h0c.06-.04,.12-.09,.17-.14,.08,.13,.21,.24,.38,.32l.95,.45c.57,.27,.83,.01,.57-.56l-.44-.99c-.07-.17-.18-.29-.29-.38,.12-.14,.23-.3,.34-.45,.11,.09,.26,.16,.44,.2l1.04,.18c.62,.11,.8-.2,.41-.69l-.68-.84c-.11-.14-.23-.23-.36-.28,.08-.17,.15-.34,.22-.51,.13,.05,.28,.08,.45,.06l1.05-.09c.63-.06,.72-.4,.21-.77l-.87-.64c-.13-.1-.27-.15-.39-.18,.03-.18,.06-.36,.08-.55,.13,.01,.27,0,.42-.06l.99-.36c.59-.22,.6-.57,0-.8Zm-9.92,7.03c-3.66,0-6.64-2.97-6.64-6.64s2.97-6.64,6.64-6.64,6.64,2.97,6.64,6.64-2.97,6.64-6.64,6.64Z"/>
</svg>