<?xml version="1.0" encoding="UTF-8"?>
<svg id="Layer_1" data-name="Layer 1" xmlns="http://www.w3.org/2000/svg" viewBox="0 0 32 32">
  <path d="M.09,23.51c0-5.01,0-10.03,0-15.04,.03-.14,.06-.28,.1-.42C.82,5.15,3.5,3.21,6.89,3.21c6.13,0,12.27,0,18.4,0,.35,0,.71,.01,1.06,.06,3.39,.47,5.73,2.85,5.73,5.85,0,4.58,0,9.17,0,13.75,0,.33-.02,.67-.08,1-.56,2.86-3.25,4.89-6.58,4.9-6.22,.02-12.43,.02-18.65,0-3.2,0-5.82-1.88-6.52-4.57-.06-.23-.1-.46-.15-.69ZM2.86,10.81s-.06,.02-.08,.03c0,.07-.01,.14-.01,.21,0,3.97,0,7.94,0,11.9,0,1.98,1.76,3.5,4.03,3.5,6.2,0,12.39,0,18.59,0,.3,0,.61-.03,.9-.08,1.88-.37,3.13-1.75,3.13-3.47,0-3.94,0-7.88,0-11.82,0-.08-.01-.15-.02-.27-.13,.1-.22,.17-.3,.25-2.73,2.37-5.45,4.75-8.18,7.12-2.77,2.41-6.9,2.4-9.66,0-2.72-2.37-5.44-4.74-8.15-7.11-.09-.08-.16-.17-.24-.25Zm13.26-5.28c-3.1,0-6.21-.01-9.31,0-1.62,0-2.82,.66-3.61,1.89-.13,.21-.12,.34,.08,.51,3.31,2.87,6.6,5.75,9.9,8.62,1.67,1.45,4.13,1.46,5.81,0,3.31-2.88,6.61-5.77,9.92-8.64,.19-.16,.19-.28,.07-.47-.78-1.25-1.99-1.91-3.62-1.92-3.08-.02-6.16,0-9.25,0Z"/>
</svg>