<?xml version="1.0" encoding="UTF-8"?>
<svg id="Layer_1" data-name="Layer 1" xmlns="http://www.w3.org/2000/svg" viewBox="0 0 32 32">
  <path d="M14.59,32.04v-3.84c-1.69-.04-3.21-.2-4.54-.49-1.33-.29-2.55-.67-3.64-1.16v-5.05c1.08,.52,2.38,1,3.88,1.43,1.5,.43,2.94,.69,4.3,.77v-5.93c-2.01-.79-3.62-1.56-4.83-2.31-1.2-.75-2.07-1.57-2.6-2.49-.53-.91-.79-2-.79-3.28s.35-2.43,1.04-3.38c.69-.95,1.66-1.71,2.9-2.29,1.24-.57,2.66-.93,4.28-1.07V.04h2.62V2.89c1.48,.05,2.86,.22,4.14,.51,1.28,.29,2.54,.7,3.78,1.25l-1.8,4.48c-1.05-.43-2.1-.77-3.15-1.01s-2.04-.4-2.97-.48v5.64c1.42,.52,2.76,1.09,4.04,1.7s2.32,1.39,3.12,2.33c.8,.94,1.21,2.18,1.21,3.71,0,1.9-.69,3.49-2.08,4.78-1.38,1.29-3.48,2.06-6.28,2.31v3.92h-2.62Zm0-19.84V7.71c-.52,.08-.97,.2-1.34,.37-.37,.17-.65,.39-.84,.66-.19,.27-.29,.59-.29,.96s.09,.69,.26,.97c.17,.28,.44,.54,.8,.78s.83,.49,1.41,.75Zm2.62,11.36c.89-.15,1.55-.42,1.97-.79,.42-.38,.63-.86,.63-1.46,0-.36-.09-.68-.29-.96s-.48-.55-.87-.79-.87-.5-1.44-.75v4.76Z"/>
</svg>