<?xml version="1.0" encoding="UTF-8"?>
<svg id="Layer_1" data-name="Layer 1" xmlns="http://www.w3.org/2000/svg" viewBox="0 0 32 32">
  <path d="M14.55,24.74c-.16,0-.26,0-.37,0-3.26,0-6.52,0-9.77,0-2.16,0-3.91-1.46-4.32-3.57-.06-.31-.08-.64-.08-.95C0,15.46,0,10.71,0,5.97,0,3.92,1.16,2.26,3.03,1.67c.47-.15,.97-.21,1.46-.21,7.67-.01,15.34,0,23.01-.02,2.22,0,4.03,1.51,4.41,3.57,.06,.3,.08,.62,.08,.93,0,4.77,0,9.53,0,14.3,0,2-1.13,3.65-2.94,4.25-.5,.16-1.04,.24-1.56,.25-3.22,.02-6.44,.01-9.67,.01h-.35c0,.1-.02,.18-.02,.27,0,.79,0,1.58,0,2.37,0,.22,.06,.29,.29,.29,1.38,0,2.75-.02,4.13,0,1.03,.01,1.7,1.07,1.28,2.01-.26,.59-.74,.88-1.39,.88-1.58,0-3.16,0-4.74,0-2.25,0-4.51,0-6.76,0-.78,0-1.35-.46-1.49-1.18-.17-.9,.48-1.7,1.4-1.71,1.34-.01,2.68,0,4.02,0q.37,0,.37-.36c0-.75,0-1.49,0-2.24v-.32Zm1.44-2.92c1.06,0,2.11,0,3.17,0,2.8,0,5.59-.01,8.39,0,.95,0,1.54-.75,1.54-1.46,0-4.86,0-9.71-.02-14.57,0-.29-.13-.61-.29-.86-.3-.46-.78-.6-1.32-.6-7.64,0-15.29,0-22.93,0-.06,0-.12,0-.19,0-.83,.05-1.43,.65-1.43,1.46,0,4.86,0,9.71,0,14.57,0,.23,.07,.48,.17,.68,.29,.56,.79,.76,1.41,.76,3.83,0,7.65,0,11.48,0Z"/>
  <path d="M9.41,7.64v9.17c0,1.41,1.45,2.37,2.75,1.8l9.3-4.02c1.47-.64,1.53-2.7,.1-3.42L11.73,6.21c-1.07-.54-2.33,.24-2.33,1.43Z"/>
</svg>