<?xml version="1.0" encoding="UTF-8"?>
<svg id="Layer_1" data-name="Layer 1" xmlns="http://www.w3.org/2000/svg" viewBox="0 0 32 32">
  <path d="M15.98,32.06c-3.94,0-7.87,0-11.81,0C1.75,32.06,0,30.31,0,27.91,0,20.03,0,12.16,0,4.28,0,3.15,.35,2.15,1.15,1.33,1.98,.48,3,.09,4.18,.09c7.84,0,15.67,0,23.51,.01,.6,0,1.24,.1,1.8,.31,1.57,.6,2.51,2.08,2.51,3.84,0,7.89,0,15.77,0,23.66,0,.23-.02,.46-.05,.69-.22,1.83-1.84,3.37-3.69,3.44-1.04,.04-2.08,.02-3.12,.02-3.06,0-6.11,0-9.17,0Zm0-1.64h0c3.95,0,7.9,0,11.85,0,1.51,0,2.52-1.03,2.52-2.53,0-7.88,0-15.75,0-23.63,0-1.46-1.03-2.5-2.48-2.5-7.91,0-15.82,0-23.74,0-1.45,0-2.48,1.04-2.48,2.5,0,7.9,0,15.8,.01,23.7,0,.41,.11,.85,.3,1.21,.48,.91,1.29,1.27,2.31,1.26,3.9-.01,7.8,0,11.7,0Z"/>
  <path d="M20.08,9.87h-2.19v3.51h-3.78v-3.53h-2.24c1.41-1.5,2.75-2.92,4.11-4.37,1.35,1.45,2.69,2.88,4.1,4.39Z"/>
  <path d="M16.03,26.69c-1.36-1.45-2.69-2.86-4.08-4.33h2.16v-3.57h3.79v3.53h2.2c-1.4,1.49-2.73,2.92-4.08,4.37Z"/>
  <path d="M9.76,14.15h3.53v3.79h-3.54v2.21c-1.49-1.4-2.9-2.73-4.36-4.09,1.44-1.35,2.87-2.69,4.36-4.08v2.17Z"/>
  <path d="M22.23,20.09v-2.09h-3.54v-3.77h3.53v-2.21c1.49,1.39,2.92,2.72,4.38,4.09-1.44,1.35-2.86,2.69-4.29,4.03-.03-.02-.06-.03-.08-.05Z"/>
</svg>