<?xml version="1.0" encoding="UTF-8"?>
<svg id="Layer_1" data-name="Layer 1" xmlns="http://www.w3.org/2000/svg" viewBox="0 0 32 32">
  <path d="M20.02,13.01c-.51-1.48-2.22-2.13-3.6-1.37-.12,.07-.22,.08-.34,0-.22-.12-.44-.22-.66-.33,.04-.31,.09-.6,.11-.9,.09-2.25-.84-3.97-2.78-5.1-1.18-.69-2.47-.86-3.81-.57-.12,.02-.19,0-.23-.11-.01-.03-.03-.06-.05-.09-.11-.21-.3-.4-.32-.62-.02-.2,.13-.41,.2-.62,.49-1.45-.46-3.02-1.97-3.27-.04,0-.09-.02-.13-.04h-.55c-.31,.1-.64,.16-.92,.31-.99,.52-1.48,1.58-1.28,2.69,.19,1.05,1.07,1.86,2.19,2.01,.14,.02,.2,.07,.26,.19,.13,.24,.26,.48,.4,.73-.06,.05-.11,.1-.16,.15-1.83,1.7-2.27,4.45-1.04,6.63,.08,.15,.06,.22-.05,.33-.7,.66-1.39,1.33-2.09,1.99-.06,.06-.17,.1-.25,.09-1.45-.17-2.6,.66-2.88,2.1,0,.02-.02,.05-.03,.07v.63c.03,.13,.06,.25,.1,.38,.31,.98,.97,1.57,1.98,1.78,.04,0,.08,.03,.13,.04h.63c.18-.05,.36-.09,.54-.16,1.2-.43,1.88-1.69,1.59-2.93-.03-.14-.01-.22,.09-.32,.65-.62,1.3-1.24,1.94-1.86,.06-.05,.11-.11,.15-.14,2.66,1.37,5.01,1,7.12-1.13,.23,.12,.49,.23,.74,.38,.06,.04,.09,.16,.11,.25,.19,1.02,.76,1.71,1.75,2.03,1.44,.46,2.95-.47,3.21-1.95,0-.04,.03-.08,.04-.13v-.63c-.05-.17-.08-.34-.14-.51Zm-9.92-.02c-1.63-.02-2.94-1.34-2.93-2.95,.01-1.62,1.33-2.93,2.95-2.92,1.61,0,2.93,1.34,2.92,2.96,0,1.6-1.35,2.93-2.94,2.91Z"/>
  <path d="M11.94,21.93c.02-5.57,4.54-10.08,10.12-10.04,5.63,.04,10.01,4.6,9.99,10.08-.02,5.58-4.54,10.07-10.15,10.02-5.43-.05-9.91-4.4-9.96-10.06Zm18.24,.02c0-4.52-3.65-8.18-8.15-8.19-4.53,0-8.2,3.63-8.22,8.16-.02,4.5,3.65,8.2,8.14,8.21,4.57,0,8.23-3.63,8.23-8.18Z"/>
  <path d="M22.41,16.88c.48,.04,1.07,.03,1.63,.16,1.07,.26,1.73,.97,1.94,2.06,.21,1.1-.13,2.04-1.02,2.72-.55,.42-1.18,.75-1.75,1.14-.13,.09-.25,.24-.29,.39-.15,.55-.49,.81-1.04,.76-.47-.04-.78-.4-.8-.94,0-.16,0-.33,0-.49-.03-.45,.17-.75,.54-.98,.7-.42,1.39-.85,2.08-1.28,.45-.28,.59-.54,.49-.93-.11-.43-.44-.69-.93-.7-.64-.01-1.28,0-1.92,0-.52,0-.82,.26-.9,.78-.06,.35-.13,.69-.47,.89-.64,.36-1.37-.06-1.4-.79-.05-1.26,.91-2.48,2.15-2.67,.53-.08,1.06-.08,1.7-.12Z"/>
  <path d="M23.24,26.35c0,.68-.57,1.26-1.23,1.25-.74,0-1.27-.55-1.26-1.29,0-.67,.54-1.21,1.23-1.21,.7,0,1.27,.55,1.27,1.25Z"/>
</svg>