<?xml version="1.0" encoding="UTF-8"?>
<svg id="Layer_1" data-name="Layer 1" xmlns="http://www.w3.org/2000/svg" viewBox="0 0 32 32">
  <path d="M.16,15.96c0-4.13,0-8.25,0-12.38C.16,1.47,1.59,.03,3.7,.03c6.31,0,12.62,0,18.93,0,1.03,0,1.89,.35,2.62,1.07,1.93,1.94,3.86,3.87,5.79,5.79,.76,.76,1.13,1.65,1.13,2.72-.01,6.26,0,12.53,0,18.79,0,2.14-1.42,3.59-3.58,3.59-8.28,0-16.56,0-24.83,0-2.15,0-3.58-1.45-3.58-3.59,0-4.15,0-8.3,0-12.44Zm28.55,12.61V12.56c-.26,0-.49,0-.72,0-2.16,0-4.32,0-6.48,0-1.25,0-1.91-.68-1.92-1.93,0-2.16,0-4.32,0-6.48,0-.23,0-.45,0-.7H3.6V28.58H28.71Zm-.58-19.43c-1.7-1.7-3.44-3.44-5.09-5.08v5.08h5.09Z"/>
</svg>