<?xml version="1.0" encoding="UTF-8"?>
<svg id="Layer_1" data-name="Layer 1" xmlns="http://www.w3.org/2000/svg" viewBox="0 0 32 32">
  <path d="M9.37,23.71v-.52c0-5.97,0-11.93,0-17.9,0-1.13,.61-1.88,1.64-2.02,.98-.14,1.95,.61,2.06,1.59,.02,.2,.02,.41,.02,.61,0,5.91,0,11.82,0,17.72v.51c.2-.03,.28-.18,.38-.28,1.88-1.88,3.76-3.76,5.63-5.64,.42-.42,.9-.69,1.51-.67,.79,.04,1.36,.42,1.67,1.14,.31,.73,.17,1.41-.36,1.99-.38,.42-.8,.81-1.2,1.21-2.23,2.23-4.47,4.45-6.7,6.68-1.72,1.71-3.89,1.7-5.61-.01-2.58-2.57-5.15-5.13-7.73-7.69-.51-.51-.79-1.09-.64-1.81,.14-.71,.58-1.21,1.28-1.42,.68-.21,1.3-.06,1.83,.41,.1,.09,.19,.18,.28,.28,1.85,1.85,3.7,3.69,5.55,5.54,.1,.1,.17,.23,.38,.29Z"/>
  <path d="M28.28,11.79V5.45c-1.18,.91-1.97,1.36-2.38,1.36-.2,0-.37-.08-.52-.23s-.23-.34-.23-.54c0-.24,.07-.41,.22-.52s.41-.26,.79-.43c.56-.26,1.01-.54,1.35-.84s.63-.62,.89-.98,.43-.59,.51-.67,.23-.13,.45-.13c.25,0,.44,.1,.59,.29s.22,.45,.22,.79v7.97c0,.93-.32,1.4-.95,1.4-.28,0-.51-.1-.68-.29s-.26-.47-.26-.84Z"/>
  <path d="M30.06,23.94c-.31,.36-.65,.63-1.03,.82s-.8,.28-1.26,.28-.84-.08-1.22-.25-.71-.41-.98-.71-.49-.66-.64-1.07-.22-.83-.22-1.28c0-.48,.08-.93,.25-1.36s.41-.8,.72-1.12,.68-.56,1.11-.74,.9-.26,1.42-.26c.6,0,1.13,.11,1.6,.33s.86,.54,1.18,.95,.57,.94,.74,1.57,.26,1.35,.26,2.15c0,.89-.09,1.68-.27,2.36s-.44,1.25-.79,1.71-.76,.81-1.24,1.03-1.03,.34-1.64,.34-1.13-.11-1.57-.34-.78-.52-1.02-.86-.35-.67-.35-.99c0-.2,.07-.37,.22-.52s.33-.23,.55-.23c.2,0,.39,.06,.55,.17s.29,.28,.37,.51c.1,.28,.27,.5,.51,.67s.5,.25,.8,.25c.26,0,.52-.07,.75-.2s.44-.33,.61-.57c.33-.5,.53-1.37,.6-2.63Zm-.16-2.13c0-.32-.04-.61-.13-.87s-.21-.5-.36-.69-.34-.35-.56-.46-.45-.17-.71-.17c-.44,0-.81,.19-1.12,.57s-.46,.88-.46,1.5,.15,1.11,.46,1.48,.69,.55,1.16,.55c.29,0,.56-.08,.83-.23s.48-.37,.64-.66,.25-.63,.25-1.02Z"/>
</svg>