<?xml version="1.0" encoding="UTF-8"?>
<svg id="Layer_1" data-name="Layer 1" xmlns="http://www.w3.org/2000/svg" viewBox="0 0 32 32">
  <path d="M9.51,31.94c-.07-.11-.2-.08-.3-.11-1.03-.28-1.83-.87-2.28-1.84-1.16-2.5-2.27-5.03-3.4-7.56,2.41,.34,4.82,.12,7.23,.18,.14,0,.2,.05,.26,.17,.7,1.55,1.45,3.08,2.11,4.65,.83,1.96-.43,4.14-2.54,4.46-.02,0-.04,.03-.06,.05h-1Z"/>
  <path d="M32,6.96c-.21,.55-.64,.85-1.16,1.08-.73,.33-1.43,.71-2.14,1.06-.76,.38-1.54,.14-1.89-.56-.34-.69-.06-1.45,.69-1.82,.82-.42,1.65-.83,2.48-1.24,.87-.43,1.66-.11,1.98,.82,0,.01,.03,.02,.05,.03v.62Z"/>
  <path d="M32,20.32s-.04,.01-.05,.03c-.53,.97-1.13,1.16-2.13,.66-.81-.4-1.62-.8-2.42-1.21-.52-.27-.77-.72-.72-1.31,.05-.55,.35-.92,.86-1.12,.36-.14,.71-.11,1.06,.06,.89,.44,1.78,.89,2.67,1.33,.38,.19,.55,.53,.73,.88v.69Z"/>
  <path d="M32,13.64c-.07,.01-.07,.07-.09,.12-.25,.58-.7,.86-1.32,.87-.84,0-1.69,0-2.53,0-.82,0-1.4-.58-1.39-1.36,.01-.76,.6-1.31,1.41-1.31,.75,0,1.5,.03,2.25,0,.83-.04,1.4,.27,1.67,1.07v.62Z"/>
  <path d="M24,13.3c0,3.97,0,7.93,0,11.9,0,.95-.76,1.58-1.64,1.38-.59-.13-1-.65-1.02-1.33-.02-.56-.07-1.12-.25-1.66-.51-1.57-1.64-2.51-3.12-3.08-1.09-.42-2.23-.56-3.39-.56-3.05,0-6.1,0-9.15,0-2.65,0-4.78-1.75-5.31-4.34-.04-.18-.08-.37-.08-.56,0-1.29-.1-2.58,.05-3.87,.27-2.41,2.47-4.48,4.89-4.53,2.8-.06,5.6-.02,8.4-.02,1.06,0,2.12,.03,3.17-.17,1.23-.23,2.38-.67,3.32-1.54,.92-.86,1.37-1.94,1.45-3.18,.02-.29,0-.58,.09-.87,.2-.6,.81-.99,1.44-.9,.63,.09,1.12,.61,1.16,1.24,0,.11,0,.23,0,.34,0,3.91,0,7.83,0,11.74Z"/>
</svg>