<?xml version="1.0" encoding="UTF-8"?>
<svg id="Layer_1" data-name="Layer 1" xmlns="http://www.w3.org/2000/svg" viewBox="0 0 32 32">
  <path d="M24.66,20.99c-.78,0-1.56,0-2.34,0-1.83,0-3,1.83-2.19,3.48,.94,1.91,.81,3.71-.36,5.46-1.02,1.52-2.55,2.02-4.26,2.06-3.91,.09-7.21-1.42-10.07-3.98C2.3,25.19,.4,21.67,.07,17.43-.42,11.28,1.9,6.36,6.94,2.78,9.8,.75,13.05-.15,16.52,.02c7.7,.37,13.98,5.63,15.25,13.41,.19,1.14,.25,2.35,.08,3.48-.35,2.36-2.51,4.06-4.91,4.08-.76,0-1.52,0-2.28,0Zm-.24-3.06s0,.05,0,.08c.82,0,1.63,0,2.45,0,1.22-.01,2.15-.89,2.11-2.1-.03-.99-.11-2.01-.34-2.97C27.04,6.2,20.46,1.94,13.64,3.18,7.43,4.32,3.04,9.47,2.93,15.75c-.09,5.11,3.15,10.19,7.85,12.27,1.57,.7,3.21,1.09,4.95,1.01,.89-.04,1.51-.42,1.87-1.24,.31-.7,.18-1.35-.13-2.03-1.44-3.09,.22-6.81,3.45-7.56,1.14-.26,2.35-.19,3.53-.27Z"/>
  <path d="M17.94,8.01c0,1.08-.89,1.97-1.97,1.97-1.07,0-1.97-.91-1.97-1.98,0-1.1,.92-2.01,2.01-2,1.07,.02,1.94,.92,1.93,2.01Z"/>
  <path d="M11.93,10c0,1.09-.88,1.98-1.95,1.99-1.09,0-2.01-.93-1.99-2.02,.02-1.07,.93-1.97,1.99-1.96,1.07,0,1.95,.9,1.95,1.99Z"/>
  <path d="M23.95,9.99c0,1.09-.88,1.98-1.95,1.99-1.09,0-2.01-.92-1.99-2.02,.02-1.07,.93-1.97,1.99-1.96,1.07,0,1.95,.9,1.95,1.99Z"/>
  <path d="M9.93,15.99c0,1.09-.87,1.99-1.94,2-1.09,.01-2.01-.92-2-2.01,.01-1.07,.92-1.97,1.99-1.97,1.08,0,1.95,.9,1.96,1.98Z"/>
</svg>