<?xml version="1.0" encoding="UTF-8"?>
<svg id="Layer_1" data-name="Layer 1" xmlns="http://www.w3.org/2000/svg" viewBox="0 0 32 32">
  <path d="M0,21.31c.1-.46,.18-.94,.31-1.39,.35-1.23,.98-2.3,1.92-3.16,.53-.5,.7-1.03,.59-1.75-.8-4.9,1.84-9.61,6.41-11.52,5.06-2.12,11.1,.08,13.58,4.99,.33,.64,.77,.98,1.47,1.15,4.09,.96,7.08,4.3,7.64,8.47,.7,5.25-3.03,10.28-8.26,11.1-.57,.09-1.16,.14-1.74,.14-4.83,.01-9.66,0-14.49,0-3.72,0-6.72-2.55-7.34-6.21-.02-.14-.05-.28-.08-.42,0-.46,0-.92,0-1.37Zm14.72,5.36c2.37,0,4.75,.01,7.12,0,.57,0,1.15-.06,1.7-.17,3.33-.68,5.74-3.67,5.77-7.1,.03-3.41-2.34-6.46-5.63-7.18-1.52-.33-2.56-1.15-3.26-2.54-1.59-3.17-5.09-4.86-8.57-4.21-4.35,.82-7.2,4.99-6.39,9.34,.06,.34,.09,.71,.06,1.05-.08,1.1-.6,1.98-1.39,2.75-1.26,1.22-1.72,2.71-1.35,4.42,.48,2.18,2.35,3.63,4.62,3.64,2.44,0,4.87,0,7.31,0Z"/>
  <path d="M16,16.09c0,.11,0,.22,0,.33,0,2.07,0,4.14,0,6.22,0,.59-.28,1.02-.82,1.25-.5,.22-1.06,.11-1.44-.27-.31-.3-.41-.69-.41-1.11,0-2.02,0-4.04,0-6.06,0-.11,0-.23,0-.42-.12,.12-.2,.19-.28,.26-.66,.66-1.32,1.33-1.99,1.99-.45,.44-1.06,.52-1.58,.23-.51-.28-.8-.84-.66-1.42,.06-.25,.2-.51,.38-.7,1.18-1.21,2.37-2.4,3.57-3.58,1.11-1.08,2.71-1.07,3.81,.01,1.19,1.17,2.36,2.35,3.53,3.53,.57,.58,.58,1.39,.05,1.93-.54,.54-1.35,.53-1.92-.04-.73-.72-1.44-1.44-2.16-2.17-.03,0-.05,.02-.08,.03Z"/>
</svg>