<?xml version="1.0" encoding="UTF-8"?>
<svg id="Layer_1" data-name="Layer 1" xmlns="http://www.w3.org/2000/svg" viewBox="0 0 32 32">
  <path d="M10.02,26c-1.69,0-3.32,0-4.94,0-.9,0-1.65-.32-2.27-.98-.55-.59-.78-1.29-.78-2.08,0-5.96-.01-11.92,0-17.88,0-1.81,1.3-3.04,3.12-3.04,1.09,0,2.18,.02,3.28-.02,.21,0,.48-.16,.6-.34,1.46-2.23,4.54-2.24,5.96,0,.18,.28,.36,.36,.67,.36,1.11-.02,2.22,0,3.33,0,1.7,0,2.98,1.27,3,2.97,.01,.98,0,1.96,0,3.03,.54,0,1.05,.02,1.56,0,.99-.04,1.79,.32,2.48,1.02,1,1.02,2.01,2.02,3.02,3.02,.64,.63,.94,1.38,.94,2.29-.01,4.85,0,9.7,0,14.55,0,1.85-1.26,3.09-3.11,3.09-4.57,0-9.14,0-13.72,0-1.87,0-3.12-1.25-3.14-3.14,0-.92,0-1.85,0-2.86Zm10-15c-2.14,0-4.2,0-6.25,0-.76,0-.78,.02-.78,.77,0,5.5,0,10.99,0,16.49,0,.73,.03,.76,.74,.76,4.18,0,8.36,0,12.55,0,.73,0,.74-.01,.74-.75,0-3.22,0-6.44,0-9.66,0-.19-.02-.39-.03-.61-1.84,0-3.61,0-5.39,0-.93,0-1.53-.58-1.58-1.5-.02-.28,0-.56,0-.83,0-1.53,0-3.06,0-4.66Zm-1-2.98c0-.87-.01-1.67,0-2.46,.01-.44-.18-.58-.6-.57-.94,.02-1.89-.01-2.83,.02-.21,0-.48,.17-.59,.35-1.46,2.23-4.52,2.22-5.98-.01-.11-.17-.39-.33-.6-.33-.89-.04-1.78-.02-2.67-.02-.76,0-.77,.01-.77,.79,0,5.48,0,10.96,0,16.44,0,.15-.04,.32,.02,.44,.07,.14,.23,.33,.36,.33,1.53,.02,3.06,.01,4.65,.01,0-.27,0-.49,0-.71,0-3.61,.06-7.22-.02-10.83-.05-2.2,1.48-3.58,3.45-3.48,1.82,.09,3.66,.02,5.57,.02Zm4.01,3.02v3.94h3.94c.14-.49,0-.83-.35-1.16-.83-.79-1.64-1.6-2.43-2.43-.33-.35-.67-.49-1.16-.35ZM13.15,3.54c.01-.58-.52-1.15-1.1-1.17-.59-.02-1.18,.56-1.18,1.16,0,.58,.56,1.14,1.13,1.15,.57,0,1.13-.55,1.15-1.13Z"/>
</svg>