<?xml version="1.0" encoding="UTF-8"?>
<svg id="Layer_1" data-name="Layer 1" xmlns="http://www.w3.org/2000/svg" viewBox="0 0 32 32">
  <defs>
    <style>
      .cls-1 {
        stroke-width: 0px;
      }
    </style>
  </defs>
  <path class="cls-1" d="m0,30.47c.08-.33.29-.57.53-.8,1.83-1.83,3.66-3.66,5.49-5.49.03-.03.06-.05.1-.08-.29-.44-.54-.89-.73-1.36-.43-1.06-.6-2.17-.5-3.31.16-1.75.88-3.23,2.15-4.44.62-.59,1.22-1.2,1.83-1.8.01-.01.03-.03.04-.05-.32-.32-.63-.63-.94-.94-.12-.12-.24-.23-.35-.36-.6-.72-.24-1.77.67-2,.47-.12.86,0,1.2.35,4.08,4.08,8.16,8.16,12.24,12.24.25.25.4.54.41.9.02.5-.28.97-.74,1.17-.48.21-1.02.12-1.39-.25-.37-.37-.74-.74-1.11-1.11-.03-.03-.05-.06-.07-.08-.03,0-.04.01-.04.02-.6.6-1.22,1.17-1.79,1.79-1.12,1.21-2.5,1.92-4.1,2.19-1.48.25-2.89.03-4.23-.65-.29-.15-.56-.33-.88-.52,0,.02-.02.06-.05.09-1.87,1.87-3.73,3.73-5.6,5.6-.42.42-.99.52-1.49.26-.32-.17-.53-.43-.64-.78,0-.02-.02-.04-.02-.05C0,30.84,0,30.66,0,30.47Z"/>
  <path class="cls-1" d="m23.05,18.83s.06.06.08.09c.37.37.73.73,1.1,1.1.35.35.46.78.32,1.25-.14.46-.46.76-.93.86-.43.1-.81-.03-1.13-.32-.02-.02-.04-.04-.06-.06-4.09-4.09-8.17-8.17-12.26-12.26-.42-.42-.5-1.05-.2-1.53.42-.68,1.38-.8,1.96-.25.38.37.76.75,1.13,1.13.03.03.05.05.08.08.24-.23.48-.46.71-.7.38-.38.78-.75,1.14-1.16.35-.4.75-.72,1.18-1.01.88-.6,1.86-.99,2.91-1.15,1.81-.28,3.47.09,4.98,1.13.02.01.03.02.08.06.02-.03.04-.07.07-.1,1.86-1.87,3.73-3.73,5.59-5.6.4-.41,1.04-.49,1.48-.3.79.35.98,1.38.36,2-1.38,1.38-2.77,2.77-4.15,4.15-.52.52-1.03,1.03-1.55,1.55-.03.03-.06.04-.09.07.09.14.17.27.24.4.52.88.85,1.82.96,2.83.21,1.95-.27,3.71-1.51,5.23-.35.43-.77.81-1.16,1.2-.43.44-.88.86-1.32,1.3Z"/>
</svg>