<?xml version="1.0" encoding="UTF-8"?>
<svg id="Layer_1" data-name="Layer 1" xmlns="http://www.w3.org/2000/svg" viewBox="0 0 32 32">
  <path d="m26.87,1.54c.83.27,1.73.42,2.47.84,1.76.98,2.6,2.6,2.63,4.59.04,3.67.04,7.35,0,11.02-.04,3.19-2.36,5.37-5.71,5.39-3.59.03-7.18.02-10.77,0-.68,0-1.18.18-1.68.62-2.23,1.95-4.48,3.88-6.72,5.81-.17.15-.32.37-.52.43-.35.12-.84.32-1.07.17-.28-.18-.5-.69-.49-1.04.08-1.85.25-3.69.38-5.54,0-.11,0-.22,0-.4-.47-.08-.92-.11-1.35-.23-2.06-.58-3.38-1.9-3.9-3.99C.12,19.07.05,18.95,0,18.82,0,14.6,0,10.38,0,6.16c.42-1.6,1.14-3.03,2.68-3.81.76-.39,1.64-.55,2.46-.81,7.24,0,14.49,0,21.73,0ZM6.91,27.6c.32-.26.51-.41.7-.57,1.9-1.64,3.78-3.3,5.71-4.9.38-.31.96-.52,1.45-.53,3.82-.04,7.64-.02,11.46-.03,2.5,0,3.92-1.41,3.93-3.91.01-3.45.01-6.9,0-10.35,0-2.51-1.41-3.9-3.93-3.9-6.84,0-13.69,0-20.53,0-2.46,0-3.9,1.41-3.91,3.85-.02,3.48-.02,6.96,0,10.44,0,.56.07,1.16.29,1.67.61,1.45,1.75,2.19,3.34,2.22,1.84.04,1.85.05,1.77,1.9-.06,1.31-.18,2.61-.28,4.11Z"/>
  <path d="m7.7,13.24h-1.64v2.5c0,.36-.08.63-.25.81s-.38.28-.64.28-.49-.09-.65-.27c-.16-.18-.25-.45-.25-.8v-6.8c0-.39.09-.67.27-.84s.47-.25.86-.25h2.29c.68,0,1.2.05,1.56.16.36.1.67.27.94.5.26.23.46.52.6.85.14.34.2.72.2,1.14,0,.9-.28,1.58-.83,2.04s-1.38.69-2.47.69Zm-.43-4.04h-1.2v2.7h1.2c.42,0,.77-.04,1.06-.13.28-.09.5-.23.65-.43.15-.2.22-.46.22-.79,0-.39-.11-.71-.34-.95-.26-.26-.78-.39-1.58-.39Z"/>
  <path d="m14.89,12.91h-.63v2.83c0,.37-.08.65-.25.82-.16.18-.38.26-.64.26-.28,0-.51-.09-.66-.28s-.23-.46-.23-.81v-6.79c0-.39.09-.66.26-.84s.45-.26.84-.26h2.91c.4,0,.74.02,1.03.05.28.03.54.1.77.21.28.12.52.28.73.5.21.22.37.47.48.76.11.29.17.59.17.91,0,.66-.19,1.18-.56,1.58-.37.39-.93.67-1.69.84.32.17.62.42.91.75.29.33.55.68.77,1.05.23.37.4.71.53,1,.13.3.19.5.19.62s-.04.23-.11.35c-.07.11-.18.2-.3.27-.13.07-.28.1-.45.1-.2,0-.37-.05-.51-.14-.14-.09-.25-.21-.35-.36-.1-.14-.23-.36-.4-.64l-.72-1.19c-.26-.44-.49-.77-.69-1-.2-.23-.41-.39-.62-.47-.21-.08-.47-.13-.79-.13Zm1.02-3.71h-1.65v2.42h1.6c.43,0,.79-.04,1.08-.11.29-.07.52-.2.67-.38.15-.18.23-.42.23-.74,0-.24-.06-.46-.19-.65-.12-.19-.3-.33-.52-.42-.21-.09-.62-.13-1.23-.13Z"/>
  <path d="m27.16,9.24h-4.02v2.17h3.71c.27,0,.48.06.61.18.13.12.2.28.2.48s-.07.36-.2.49-.34.19-.61.19h-3.71v2.51h4.16c.28,0,.49.07.63.2.14.13.21.3.21.52s-.07.38-.21.51c-.14.13-.35.2-.63.2h-4.86c-.39,0-.67-.09-.84-.26-.17-.17-.26-.45-.26-.84v-6.63c0-.26.04-.47.11-.63s.2-.28.36-.35c.16-.07.37-.11.62-.11h4.72c.28,0,.5.06.63.19s.21.29.21.5-.07.38-.21.5-.35.19-.63.19Z"/>
</svg>