<?xml version="1.0" encoding="UTF-8"?>
<svg id="Layer_1" data-name="Layer 1" xmlns="http://www.w3.org/2000/svg" viewBox="0 0 32 32">
  <defs>
    <style>
      .cls-1 {
        fill: #010101;
        stroke-width: 0px;
      }
    </style>
  </defs>
  <path class="cls-1" d="M14.99,32.01v-4.22c-.54.25-1.14.38-1.75.38-.57,0-1.12-.11-1.64-.34-.5-.21-.95-.52-1.34-.91-.79-.8-1.22-1.87-1.2-3,.02-1.09.45-2.12,1.23-2.9.78-.78,1.81-1.21,2.9-1.23.02,0,.04,0,.05,0,.61,0,1.2.13,1.75.38v-4.18s-5,0-5,0c.12-.21.3-.48.51-.78.4-.58.69-1.25.68-2.01-.02-1.72-1.42-3.12-3.14-3.14-.01,0-.03,0-.05,0-1.76,0-3.18,1.42-3.18,3.18,0,.74.29,1.4.68,1.97.19.28.39.57.51.78H1.34c-.74,0-1.34.6-1.34,1.34v13.33c0,.74.6,1.34,1.34,1.34h13.66Z"/>
  <path class="cls-1" d="M27.8,16.99c.25.54.38,1.14.38,1.75,0,1.12-.44,2.17-1.23,2.96-.79.79-1.84,1.23-2.96,1.23-.02,0-.04,0-.06,0-1.09-.02-2.12-.45-2.9-1.23-.78-.78-1.21-1.81-1.23-2.9,0-.63.12-1.24.38-1.8h-4.2v5.02c-.18-.1-.5-.32-.81-.53-.56-.39-1.21-.66-1.94-.66-.01,0-.03,0-.04,0-1.72.02-3.12,1.42-3.14,3.14,0,.59.14,1.14.41,1.62.55.96,1.58,1.61,2.77,1.61.73,0,1.37-.3,1.94-.66.35-.22.63-.43.81-.53v6.01h14.66c.74,0,1.34-.6,1.34-1.34v-13.67h-4.19Z"/>
  <path class="cls-1" d="M30.66-.01h-14.66v6.14s.54-.47.71-.59c.55-.46,1.26-.73,2.03-.73,1.77,0,3.21,1.45,3.18,3.23-.02,1.72-1.43,3.12-3.14,3.14-.01,0-.03,0-.04,0-.77,0-1.48-.28-2.03-.73-.17-.12-.71-.59-.71-.59v6.14h6.01c-.05.09-.31.5-.53.81-.4.56-.67,1.23-.66,1.98.02,1.72,1.42,3.12,3.14,3.14.01,0,.03,0,.05,0,.82,0,1.57-.31,2.14-.82.64-.58,1.04-1.42,1.04-2.36,0-.73-.27-1.38-.66-1.94-.24-.36-.43-.63-.53-.8,0,0,0,0,0,0h6.01V1.32c0-.74-.6-1.34-1.34-1.34Z"/>
</svg>