<?xml version="1.0" encoding="UTF-8"?>
<svg id="Layer_1" data-name="Layer 1" xmlns="http://www.w3.org/2000/svg" viewBox="0 0 32 32">
  <path d="M0,13.05c.16-.26,.13-.55,.17-.83C.92,7.84,4.59,4.24,8.97,3.59c.53-.08,1.05-.13,1.59-.13,1.18-.01,2.08,.82,2.11,1.96,.03,1.09-.83,1.99-1.98,2.04-.7,.03-1.39,.11-2.06,.32-2.61,.83-4.49,3.26-4.63,6-.01,.27,.03,.37,.33,.36,2.07-.02,4.14-.01,6.22,0,1.39,0,2.45,.84,2.72,2.15,.05,.22,.05,.46,.05,.68,0,1.69,0,3.38,0,5.07,0,2.75-1.76,4.87-4.45,5.38-.34,.06-.68,.08-1.03,.08-1.65,0-3.29,0-4.94,0-1.54,0-2.47-.71-2.87-2.2,0-.01-.03-.02-.05-.03V13.05Z"/>
  <path d="M18.68,19.17c0-1.79-.03-3.59,0-5.38,.09-5.04,3.98-9.45,8.96-10.2,.52-.08,1.03-.12,1.55-.13,1.18-.02,2.08,.79,2.12,1.91,.04,1.15-.79,2.04-1.98,2.09-.65,.03-1.28,.1-1.91,.28-2.69,.78-4.69,3.35-4.77,6.12,0,.24,.06,.29,.29,.29,2.08,0,4.17,0,6.25,0,1.32,0,2.35,.76,2.69,1.96,.07,.26,.1,.53,.1,.8,0,1.74,0,3.48,0,5.23,0,2.95-2.27,5.3-5.22,5.37-1.81,.04-3.62,.03-5.44,0-1.56-.02-2.66-1.17-2.67-2.75,0-1.86,0-3.71,0-5.57h0Z"/>
</svg>