<?xml version="1.0" encoding="UTF-8"?>
<svg id="Layer_1" data-name="Layer 1" xmlns="http://www.w3.org/2000/svg" viewBox="0 0 32 32">
  <path d="M4.24,25.54c0,1.04,0,2.09,0,3.13,0,1.34-.83,2.22-2.07,2.24-1.28,.02-2.15-.87-2.16-2.22-.01-2.81-.01-5.61,0-8.42,0-1.2,.96-2.14,2.15-2.14,2.83,0,5.65,0,8.48,0,1.27,0,2.13,.86,2.14,2.11,0,1.25-.85,2.12-2.11,2.13-1.07,0-2.13,0-3.2,0-.04,.05-.07,.1-.11,.15,.83,.73,1.61,1.53,2.51,2.17,5.66,4.04,13.55,1.65,16.11-4.85,.31-.79,.72-1.43,1.62-1.64,1.52-.35,2.91,.98,2.52,2.5-.45,1.75-1.38,3.27-2.53,4.65-2.24,2.68-5,4.56-8.48,5.24-5.1,.99-9.57-.25-13.37-3.82-.46-.43-.9-.86-1.36-1.3-.05,.03-.09,.05-.14,.08Z"/>
  <path d="M24.69,9.59c-1.86-2.05-3.87-3.54-6.49-4.07-5.21-1.05-10.26,1.71-12.2,6.69-.27,.69-.65,1.27-1.39,1.51-.85,.27-1.6,.05-2.22-.57-.63-.64-.68-1.41-.41-2.2,.82-2.42,2.27-4.41,4.15-6.1,3.04-2.74,6.64-3.97,10.7-3.76,3.51,.18,6.58,1.48,9.17,3.88,.55,.51,1.08,1.02,1.72,1.61,.02-.32,.03-.53,.04-.73,.01-.99-.04-1.98,.05-2.96,.12-1.2,1.08-1.91,2.28-1.82,1.1,.09,1.9,.94,1.9,2.1,.01,2.87,.01,5.73,0,8.6,0,1.23-.87,2.07-2.1,2.08-2.85,0-5.69,0-8.54,0-1.25,0-2.14-.91-2.13-2.13,.01-1.23,.9-2.1,2.16-2.11,1.06,0,2.12,0,3.31,0Z"/>
</svg>