<?xml version="1.0" encoding="UTF-8"?>
<svg id="Layer_1" data-name="Layer 1" xmlns="http://www.w3.org/2000/svg" viewBox="0 0 32 32">
  <path d="M27.62,6.3c0-1.28-.02-2.38,0-3.48,.03-1.65,1.38-2.63,2.93-2.14,.82,.26,1.43,.98,1.43,1.86,.02,3.09,.03,6.18,0,9.27-.01,1.1-.92,1.96-2.03,1.97-3.03,.02-6.06,.02-9.08,0-1.21,0-2.09-.98-2.09-2.2,0-1.22,.89-2.16,2.1-2.18,1.14-.02,2.28,0,3.54,0-1.83-2.08-3.88-3.61-6.51-4.18-6.23-1.35-12.17,2.62-13.37,8.89-1.09,5.71,2.9,11.6,8.61,12.73,3.83,.75,7.14-.26,10-2.88,1.2-1.1,2.79-.94,3.57,.35,.52,.85,.42,1.82-.29,2.53-3.27,3.31-7.25,4.87-11.89,4.62C7.15,31.03,.99,25.22,.11,17.92-.82,10.16,4.16,2.82,11.74,1.02c5.31-1.26,10.07-.05,14.13,3.65,.54,.49,1.07,1,1.74,1.63Z"/>
</svg>