<?xml version="1.0" encoding="UTF-8"?>
<svg id="Layer_1" data-name="Layer 1" xmlns="http://www.w3.org/2000/svg" viewBox="0 0 32 32">
  <path d="M32,16.02h-2.28V5.68c-.17,.11-.29,.18-.41,.26-4.14,2.86-8.27,5.73-12.41,8.59-.77,.53-1.04,.53-1.81,0C10.95,11.66,6.8,8.79,2.66,5.92c-.1-.07-.2-.13-.34-.23V22.9H13.68v2.26c-.13,0-.25,.02-.37,.02-3.63,0-7.27-.01-10.9,0-1.19,0-2.08-.72-2.31-1.65-.07-.28-.09-.58-.09-.87C0,16.71,0,10.75,0,4.79c0-1.51,.94-2.46,2.45-2.46,9.03,0,18.07,0,27.1,0,1.52,0,2.44,.95,2.45,2.51,0,2.62,0,5.24,0,7.86,0,1.09,0,2.19,0,3.32Zm-4.85-11.37H4.87c.15,.11,.24,.18,.33,.25,3.5,2.42,7,4.84,10.5,7.27,.23,.16,.37,.15,.59,0,3.12-2.17,6.25-4.33,9.38-6.49,.47-.32,.93-.65,1.47-1.02Z"/>
  <path d="M31.88,24.06c-1.85,1.85-3.73,3.73-5.61,5.61-.47-.49-.99-1.03-1.52-1.59,1.29-1.28,2.66-2.63,4.07-4.02-1.41-1.39-2.78-2.73-4.14-4.06,.57-.58,1.09-1.09,1.57-1.58,1.87,1.87,3.77,3.77,5.63,5.63Z"/>
  <path d="M16.74,28.11c1.32-1.31,2.67-2.66,4.06-4.04-1.41-1.39-2.77-2.74-4.11-4.07,.57-.57,1.09-1.09,1.58-1.58,1.86,1.86,3.74,3.75,5.58,5.59-1.85,1.85-3.74,3.74-5.63,5.63-.44-.46-.95-.99-1.47-1.53Z"/>
</svg>