<?xml version="1.0" encoding="UTF-8"?>
<svg id="Layer_1" data-name="Layer 1" xmlns="http://www.w3.org/2000/svg" viewBox="0 0 32 32">
  <path d="M0,10.32c.1-.05,.08-.16,.11-.24,.3-.92,.91-1.54,1.83-1.81C11.22,5.53,20.49,2.8,29.77,.07c.08-.02,.17-.09,.25-.06C21.83,8.18,13.65,16.36,5.45,24.55v-.31c0-2.15,0-4.3,0-6.45,0-.23-.07-.38-.23-.54-1.19-1.17-2.36-2.36-3.55-3.53-.67-.67-1.41-1.3-1.68-2.27v-1.13Z"/>
  <path d="M7.4,26.51C15.63,18.29,23.81,10.13,32,1.94c-.2,.68-.39,1.36-.59,2.03-2.54,8.65-5.09,17.29-7.63,25.94-.63,2.16-3.08,2.79-4.68,1.2-1.48-1.47-2.96-2.94-4.43-4.42-.14-.14-.27-.19-.46-.19-2.15,0-4.3,0-6.45,0h-.36Z"/>
</svg>