<?xml version="1.0" encoding="UTF-8"?>
<svg id="Layer_1" data-name="Layer 1" xmlns="http://www.w3.org/2000/svg" viewBox="0 0 32 32">
  <path d="m16.74,16.52c.26.27.45.48.66.7-.24.24-.48.46-.71.69-.63-.64-1.26-1.28-1.87-1.89.61-.62,1.24-1.25,1.89-1.91.2.21.42.45.7.75-.21.15-.44.32-.68.49.02.03.04.07.07.1.09,0,.18.02.28.02,2.8,0,5.61.01,8.41,0,2.66-.01,5.04-2.13,5.41-4.77.44-3.24-1.77-6.15-5-6.43-1.33-.12-2.69-.02-4.03-.02-.01,0-.02,0-.03.01-.83,2.07-2.1,2.92-3.84,2.57-1.47-.3-2.56-1.69-2.52-3.19.05-1.6,1.2-2.85,2.86-3.09,1.54-.22,2.86.77,3.49,2.65.12,0,.25,0,.38,0,1.28.02,2.56-.04,3.83.07,2.78.23,5.13,2.32,5.76,5.03.9,3.82-1.59,7.53-5.47,8.14-.38.06-.78.08-1.16.08-2.67,0-5.34,0-8.01,0h-.43Z"/>
  <path d="m7.13,27.06c.24-.23.47-.44.68-.63.62.62,1.27,1.26,1.89,1.87-.6.6-1.23,1.24-1.87,1.89-.21-.21-.44-.45-.68-.69.2-.21.39-.41.66-.69-.44,0-.78,0-1.13,0-1.49-.02-2.86-.44-4.03-1.37C.42,25.64-.46,23.3.23,20.52c.68-2.7,2.5-4.33,5.23-4.91.43-.09.88-.1,1.32-.12.41-.02.82,0,1.26,0,.24-1.07.81-1.89,1.82-2.36.66-.31,1.36-.39,2.08-.21,1.48.37,2.51,1.72,2.44,3.21-.07,1.5-1.19,2.79-2.61,3.01-1.78.28-2.98-.55-3.74-2.57-2.54-.23-4.75.28-6.24,2.78-2.03,3.39.13,7.84,4.04,8.36.61.08,1.24.07,1.86.09.01-.03.03-.05.04-.08-.2-.21-.39-.42-.6-.65Z"/>
  <path d="m13.12,3.18c-.24-.25-.43-.46-.64-.68.25-.23.49-.45.74-.69.03.02.08.07.13.11.59.59,1.18,1.17,1.81,1.8-.34.33-.67.65-.99.96-.32.31-.62.63-.95.96-.24-.26-.46-.5-.72-.79.18-.14.41-.32.63-.49l-.07-.1h-6.18c-.05.15-.09.31-.14.46-.46,1.37-1.82,2.28-3.21,2.16-1.52-.13-2.7-1.21-2.93-2.69C.34,2.55,1.41.97,3.04.61c1.66-.36,3.29.62,3.74,2.26.07.24.15.34.42.33,1.85-.01,3.69,0,5.54,0,.11,0,.21-.01.38-.02Z"/>
  <path d="m16.49,27.74h6.24c-.24-.25-.43-.45-.63-.66.25-.23.49-.45.72-.65.59.59,1.23,1.23,1.83,1.84-.61.61-1.24,1.24-1.89,1.89-.17-.19-.39-.44-.65-.73.17-.13.4-.3.63-.48-.02-.04-.05-.07-.07-.11h-6.17c-.84,2.08-2.1,2.92-3.83,2.56-1.48-.3-2.58-1.7-2.52-3.22.06-1.59,1.21-2.83,2.85-3.06,1.55-.22,2.88.77,3.49,2.63Z"/>
  <path d="m31.48,28.27c.01,1.74-1.43,3.19-3.17,3.2-1.74.01-3.19-1.43-3.2-3.17,0-1.74,1.43-3.19,3.17-3.2,1.74-.01,3.19,1.43,3.2,3.17Z"/>
</svg>