<?xml version="1.0" encoding="UTF-8"?>
<svg id="Layer_1" data-name="Layer 1" xmlns="http://www.w3.org/2000/svg" viewBox="0 0 32 32">
  <path d="M32.06,16.06c0,8.84-7.16,16-16,16S.06,24.89,.06,16.06,7.22,.06,16.06,.06s16,7.16,16,16Zm-6.88-5.24c-.04-.1-.07-.2-.11-.29-.42-1.08-1.76-1.33-2.61-.48-2.85,2.85-5.69,5.7-8.53,8.55-.07,.07-.11,.16-.2,.27-.11-.13-.17-.21-.23-.28-1.28-1.29-2.56-2.58-3.85-3.86-.66-.65-1.63-.66-2.25-.03-.62,.62-.61,1.59,.03,2.24,1.72,1.73,3.44,3.45,5.17,5.17,.18,.18,.43,.33,.68,.41,.64,.2,1.19-.02,1.66-.49,3.16-3.18,6.33-6.35,9.5-9.52,.33-.33,.63-.67,.75-1.14v-.54Z"/>
</svg>