<?xml version="1.0" encoding="UTF-8"?>
<svg id="Layer_1" data-name="Layer 1" xmlns="http://www.w3.org/2000/svg" xmlns:xlink="http://www.w3.org/1999/xlink" viewBox="0 0 32 32">
  <defs>
    <style>
      .cls-1 {
        filter: url(#drop-shadow-1);
      }
    </style>
    <filter id="drop-shadow-1" filterUnits="userSpaceOnUse">
      <feOffset dx="0" dy="0"/>
      <feGaussianBlur result="blur" stdDeviation="0"/>
      <feFlood flood-color="#010101" flood-opacity="0"/>
      <feComposite in2="blur" operator="in"/>
      <feComposite in="SourceGraphic"/>
    </filter>
  </defs>
  <g class="cls-1">
    <path d="m32,16c0,8.84-7.16,16-16,16S0,24.84,0,16,7.17,0,16,0s16,7.16,16,16Zm-21.31,8.04c1.59-1.17,3.18-2.32,4.75-3.52.43-.33.7-.37,1.15-.02,1.63,1.25,3.29,2.45,4.94,3.67.14.1.28.19.54.35-.74-2.29-1.41-4.45-2.14-6.6-.15-.44-.05-.66.3-.91,1.7-1.22,3.39-2.46,5.08-3.69.12-.09.23-.2.44-.38-.34,0-.53,0-.73,0-2.05,0-4.11,0-6.16,0-.39,0-.57-.11-.69-.5-.33-1.14-.71-2.27-1.08-3.4-.34-1.04-.68-2.08-1.06-3.26-.12.35-.19.54-.25.73-.64,1.97-1.28,3.93-1.89,5.91-.13.41-.31.53-.73.53-2.05-.02-4.11,0-6.16,0-.19,0-.39,0-.74,0,.28.22.41.33.55.44,1.67,1.22,3.34,2.45,5.03,3.66.34.24.42.45.28.86-.55,1.61-1.06,3.23-1.58,4.85-.18.56-.35,1.12-.57,1.81.32-.23.52-.36.71-.5Z"/>
  </g>
</svg>