<?xml version="1.0" encoding="UTF-8"?>
<svg id="Layer_1" data-name="Layer 1" xmlns="http://www.w3.org/2000/svg" viewBox="0 0 32 32">
  <defs>
    <style>
      .cls-1 {
        fill: #010101;
      }
    </style>
  </defs>
  <path class="cls-1" d="m19.86,31.76c-.31.08-.63.15-.96.21-.33.06-.69-.02-.98-.21-.27-.19-.46-.5-.52-.83-.13-.71.33-1.38,1.02-1.52.27-.04.54-.1.79-.17.69-.17,1.4.25,1.56.94.19.71-.23,1.42-.92,1.58Zm10.52-19.07c-.4.13-.83.06-1.15-.17-.21-.15-.4-.38-.48-.65s-.19-.52-.27-.77c-.27-.67.06-1.42.71-1.69.67-.27,1.42.06,1.67.73.13.31.23.6.33.92.21.67-.15,1.4-.81,1.63Zm-5.54,16.88c-.27.19-.54.35-.83.52-.46.27-.98.23-1.38-.06-.15-.1-.27-.25-.38-.42-.35-.63-.15-1.42.48-1.77.23-.15.46-.27.69-.44.58-.4,1.4-.23,1.77.38.4.58.23,1.4-.35,1.79Zm5.84-11.84c-.25,0-.5-.08-.71-.23-.35-.25-.56-.67-.54-1.08v-.83c-.02-.71.52-1.31,1.23-1.35.71-.02,1.31.52,1.33,1.25.02.33.02.67,0,.98,0,.73-.58,1.29-1.31,1.27Zm-1.88,8.07c-.19.27-.4.52-.6.77-.44.52-1.19.6-1.71.23-.04-.02-.06-.04-.1-.08-.54-.46-.6-1.29-.15-1.83.17-.21.35-.42.5-.65.44-.56,1.23-.69,1.79-.25.58.44.69,1.25.27,1.81h0Zm2.48-4.88l-.31.94c-.25.67-1,1-1.67.75-.1-.04-.19-.08-.29-.15-.48-.33-.67-.96-.46-1.52.1-.25.19-.52.27-.77.21-.69.94-1.06,1.6-.85.69.19,1.06.92.85,1.6h0Zm-4.08-14.34l-4.38.4c-.48.04-.67-.25-.38-.67l1-1.46c-4.67-3.15-10.65-2.94-15.07.13-.02,0-.02.02-.04.04-1.25.88-2.38,1.98-3.29,3.31-4.27,6.11-2.81,14.57,3.25,18.86.42.29.83.56,1.27.81.23.13.48.25.73.38.02,0,.02.02.04.02,1.04.5,2.15.85,3.29,1.06.71.13,1.17.79,1.04,1.5s-.79,1.17-1.5,1.04c-2.31-.42-4.46-1.31-6.38-2.69-.73-.52-1.42-1.1-2.04-1.73l-.02-.02C2.38,25.22.81,22.22.25,18.88c-.06-.33-.1-.67-.15-.98v-.06c-.04-.33-.06-.65-.08-.98v-.04c-.15-3.33.73-6.61,2.54-9.42.02-.02.02-.04.04-.06.1-.17.23-.33.33-.5.06-.1.15-.21.21-.29l.06-.06C5.4,3.5,8.48,1.42,12,.5t.04-.02c.4-.1.81-.19,1.21-.27,4.08-.71,8.21.17,11.63,2.5l1-1.46c.27-.42.63-.35.75.13l1.17,4.25c.17.5-.13.92-.6.96h0Zm-2.13,15.05c-.19.35-.54.56-.92.56-.17,0-.33-.04-.48-.13l-9.5-4.92V6.69c0-.58.46-1.04,1.04-1.04s1.04.48,1.04,1.04v9.17l8.36,4.36c.52.27.71.9.46,1.42h0Z"/>
</svg>