<?xml version="1.0" encoding="UTF-8"?>
<svg id="Layer_1" data-name="Layer 1" xmlns="http://www.w3.org/2000/svg" viewBox="0 0 32 32">
  <g>
    <g>
      <path d="M8.37,25.94c.06,.25,.1,.5,.1,.77s-.04,.52-.1,.77h4.46c-.06-.25-.1-.5-.1-.77s.04-.52,.1-.77h-4.46Z"/>
      <path d="M23.63,27.47c-.06-.25-.1-.5-.1-.77s.04-.52,.1-.77h-4.46c.06,.25,.1,.5,.1,.77s-.04,.52-.1,.77h4.46Z"/>
      <path d="M1.91,26.71c0-.27,.04-.52,.1-.77H.52C.23,25.94,0,26.17,0,26.46v.49c0,.29,.23,.52,.52,.52h1.49c-.06-.25-.1-.5-.1-.77Z"/>
      <path d="M31.47,25.94h-1.49c.06,.25,.1,.5,.1,.77s-.04,.52-.1,.77h1.49c.29,0,.52-.23,.52-.52v-.49c0-.29-.23-.52-.52-.52Z"/>
    </g>
    <g>
      <path d="M19.27,26.71c0,1.81-1.47,3.28-3.28,3.28s-3.28-1.47-3.28-3.28,1.47-3.28,3.28-3.28,3.28,1.47,3.28,3.28Zm-3.28-1.98c-1.09,0-1.98,.89-1.98,1.98s.89,1.98,1.98,1.98,1.98-.89,1.98-1.98-.89-1.98-1.98-1.98Z"/>
      <path d="M8.47,26.71c0,1.81-1.47,3.28-3.28,3.28s-3.28-1.47-3.28-3.28,1.47-3.28,3.28-3.28,3.28,1.47,3.28,3.28Zm-3.28-1.98c-1.09,0-1.98,.89-1.98,1.98s.89,1.98,1.98,1.98,1.98-.89,1.98-1.98-.89-1.98-1.98-1.98Z"/>
      <path d="M30.08,26.71c0,1.81-1.47,3.28-3.28,3.28s-3.28-1.47-3.28-3.28,1.47-3.28,3.28-3.28,3.28,1.47,3.28,3.28Zm-3.28-1.98c-1.09,0-1.98,.89-1.98,1.98s.89,1.98,1.98,1.98,1.98-.89,1.98-1.98-.89-1.98-1.98-1.98Z"/>
    </g>
  </g>
  <g>
    <path d="M16,21.95c-5.49,0-9.96-4.47-9.96-9.96S10.5,2.02,16,2.02s9.96,4.47,9.96,9.96-4.47,9.96-9.96,9.96Zm0-18.27c-4.58,0-8.3,3.73-8.3,8.3s3.73,8.3,8.3,8.3,8.3-3.72,8.3-8.3S20.58,3.68,16,3.68Z"/>
    <g>
      <path d="M8.8,11.84s.04-.07,.06-.11c.12-.26,.4-.4,.67-.34,.27,.06,.47,.31,.47,.59,0,.27-.2,.52-.46,.58-.28,.06-.56-.08-.68-.34-.02-.04-.04-.09-.05-.13,0-.08,0-.17,0-.25Z"/>
      <path d="M15.89,19.18c-.28-.1-.48-.27-.48-.6,0-.31,.21-.55,.52-.6,.29-.04,.57,.14,.65,.43,.08,.28-.06,.59-.34,.71-.04,.02-.09,.04-.13,.05h-.23Z"/>
      <path d="M16.6,9.9c0,.31,0,.62,0,.93,0,.06,.04,.12,.09,.17,.09,.1,.2,.19,.28,.29,.05,.07,.1,.09,.18,.09,.42,0,.84,0,1.27,0,.24,0,.42,.13,.52,.34,.1,.22,.07,.43-.07,.62-.12,.16-.29,.23-.49,.23-.41,0-.82,0-1.22,0-.08,0-.13,.03-.18,.09-.31,.41-.72,.58-1.22,.48-.49-.1-.82-.42-.92-.92-.11-.5,.06-.92,.48-1.22,.08-.06,.1-.11,.1-.2,0-.62,0-1.24,0-1.86,0-.26,.17-.48,.42-.55,.24-.07,.51,0,.65,.22,.07,.11,.11,.25,.12,.38,.02,.3,0,.6,0,.9Z"/>
      <path d="M23.2,12.12s-.04,.07-.06,.11c-.12,.26-.4,.4-.67,.34-.27-.06-.47-.31-.47-.59,0-.27,.2-.52,.46-.58,.28-.06,.56,.08,.68,.34,.02,.04,.04,.09,.05,.13,0,.08,0,.17,0,.25Z"/>
      <path d="M16.11,4.78c.28,.1,.48,.27,.48,.6,0,.31-.21,.55-.52,.6-.29,.04-.57-.14-.65-.43-.08-.28,.06-.59,.34-.71,.04-.02,.09-.04,.13-.05h.23Z"/>
      <g>
        <path d="M9.88,8.89c-.19-.27-.13-.64,.14-.83,.27-.19,.64-.13,.83,.14,.19,.27,.13,.64-.13,.84-.27,.19-.64,.13-.83-.14Z"/>
        <path d="M22.11,15.08c.19,.27,.13,.64-.14,.83-.27,.19-.64,.13-.83-.14-.19-.27-.13-.64,.13-.83,.27-.19,.64-.13,.83,.14Z"/>
      </g>
      <g>
        <path d="M12.91,18.06c-.27,.19-.64,.13-.83-.14-.19-.27-.13-.64,.14-.83,.27-.19,.64-.13,.83,.14,.19,.27,.13,.64-.14,.83Z"/>
        <path d="M19.18,5.87c.27-.19,.64-.13,.83,.14,.19,.27,.13,.64-.14,.83-.27,.19-.64,.13-.83-.14-.19-.27-.13-.64,.14-.83Z"/>
      </g>
      <g>
        <path d="M12.24,6.22c-.03-.33,.21-.62,.54-.65,.33-.03,.62,.21,.65,.54,.03,.33-.2,.62-.54,.65-.33,.03-.62-.21-.65-.54Z"/>
        <path d="M19.7,17.72c.03,.33-.2,.62-.54,.65-.33,.03-.62-.21-.65-.54-.03-.33,.21-.62,.54-.65,.33-.03,.62,.21,.65,.54Z"/>
      </g>
      <g>
        <path d="M21.64,8.15c.33-.03,.62,.21,.65,.54,.03,.33-.21,.62-.54,.65-.33,.03-.62-.2-.65-.54-.03-.33,.21-.62,.54-.65Z"/>
        <path d="M10.14,15.62c-.33,.03-.62-.2-.65-.54-.03-.33,.21-.62,.54-.65,.33-.03,.62,.21,.65,.54,.03,.33-.21,.62-.54,.65Z"/>
      </g>
    </g>
  </g>
</svg>