<?xml version="1.0" encoding="UTF-8"?>
<svg id="Layer_1" data-name="Layer 1" xmlns="http://www.w3.org/2000/svg" viewBox="0 0 32 32">
  <path d="M4.03,8.08c-.3,0-.54,0-.78,0-.15,0-.3,.01-.44-.02-.66-.14-.88-.71-.78-1.96,.05-.64,.4-.99,1.03-1,1.54-.01,3.07-.02,4.61,0,.36,0,.57-.11,.75-.42,.56-.98,1.13-1.95,1.73-2.91C10.81,.69,11.79,.1,13.08,.1c1.98,0,3.96-.01,5.94,0,1.22,0,2.17,.57,2.82,1.59,.62,.97,1.2,1.96,1.76,2.96,.2,.36,.44,.47,.83,.46,1.46-.02,2.92-.01,4.39,0,.84,0,1.17,.34,1.17,1.18,.01,1.66-.04,1.72-1.72,1.8-.07,0-.14,.02-.28,.04v.71c0,6.65-.04,13.29,.02,19.94,.02,2.02-1.49,3.35-3.31,3.33-5.83-.06-11.66-.02-17.49-.02-1.94,0-3.19-1.24-3.19-3.2,0-6.66,0-13.33,0-19.99,0-.24,0-.48,0-.81Zm3,20.99H24.99c0-7,0-13.97,0-20.96-6,0-11.97,0-17.97,0,0,6.99,0,13.94,0,20.96ZM20.4,5.07c-.4-.64-.73-1.22-1.1-1.76-.09-.13-.34-.22-.52-.22-1.85-.02-3.7-.01-5.55,0-.16,0-.39,.08-.47,.2-.38,.56-.72,1.14-1.12,1.78h8.75Z"/>
  <path d="M15.99,19.11c0,.78,.04,1.43-.02,2.07-.03,.29-.21,.68-.43,.79-.22,.1-.66-.02-.86-.2-1.45-1.32-2.87-2.68-4.29-4.03-.47-.45-.48-.83-.01-1.28,1.43-1.37,2.87-2.74,4.33-4.07,.19-.17,.61-.28,.83-.19,.22,.09,.42,.46,.44,.73,.06,.7,.02,1.4,.02,2.12,.74,.14,1.45,.23,2.14,.4,3.24,.81,4.73,3.75,3.51,6.88-.39,1-.97,1.87-1.81,2.55-.13,.1-.44,.19-.51,.12-.14-.14-.27-.4-.25-.59,.08-.7,.28-1.38,.33-2.08,.13-1.56-.49-2.45-1.98-2.9-.43-.13-.89-.19-1.43-.31Z"/>
</svg>