<?xml version="1.0" encoding="UTF-8"?>
<svg id="Layer_1" data-name="Layer 1" xmlns="http://www.w3.org/2000/svg" viewBox="0 0 32 32">
  <path d="M13.81,17.17c-.68,0-1.32,0-1.96,0-.41,0-.81,0-1.22,0-.6,0-1.05-.44-1.04-1.02,0-.56,.44-.99,1.04-.99,.94,0,1.88,0,2.82,0,.1,0,.21,0,.35,0,0-.13,0-.23,0-.34,0-3.34,0-6.69,0-10.03,0-.82,.39-1.2,1.21-1.2,1.97,0,3.94,0,5.91,0,.43,0,.78,.13,1,.52,.39,.68-.1,1.49-.9,1.5-1.6,0-3.2,0-4.79,0-.1,0-.2,0-.33,0,0,.12-.01,.21-.01,.3,0,2.98,0,5.96,0,8.94,0,.28,.09,.33,.34,.32,1.49-.01,2.99,0,4.48,0,.79,0,1.28,.71,.99,1.4-.18,.41-.51,.61-.96,.61-1.49,0-2.99,0-4.48,0-.1,0-.21,0-.34,0,0,.12-.02,.22-.02,.32,0,2.98,0,5.96,0,8.94,0,.25,.07,.32,.32,.32,1.61-.01,3.21,0,4.82,0,.58,0,.96,.29,1.08,.81,.12,.53-.28,1.11-.82,1.18-.1,.01-.21,.01-.31,.01-2,0-3.99,0-5.99,0-.79,0-1.18-.39-1.18-1.17,0-3.34,0-6.69,0-10.03,0-.11,0-.22,0-.37Z"/>
  <path d="M22.77,4.59c0-.54-.01-1.09,0-1.63C22.82,1.29,24.15,.01,25.81,0c1.04,0,2.07,0,3.11,0,1.67,0,3.01,1.34,3.03,3.01,.01,1.05,0,2.09,0,3.14-.01,1.62-1.26,2.94-2.87,3-1.15,.04-2.3,.04-3.45,0-1.57-.06-2.8-1.33-2.85-2.91-.02-.55,0-1.11,0-1.66h0Zm4.59-2.57c-.51,0-1.02,0-1.53,0-.61,0-1.05,.41-1.06,1.01-.02,1.04-.01,2.07,0,3.11,0,.59,.44,1.02,1.02,1.02,1.04,.01,2.09,.01,3.14,0,.58,0,.99-.44,.99-1.01,0-1.04,0-2.07,0-3.11,0-.61-.42-1.01-1.04-1.02-.51,0-1.02,0-1.53,0Z"/>
  <path d="M22.77,16c0-.55-.02-1.11,0-1.66,.05-1.53,1.21-2.81,2.75-2.89,1.25-.07,2.5-.06,3.75,0,1.45,.08,2.65,1.41,2.67,2.86,.02,1.1,.01,2.19,0,3.29-.02,1.57-1.28,2.91-2.85,2.96-1.16,.04-2.31,.04-3.47,0-1.54-.05-2.79-1.35-2.84-2.89-.02-.56,0-1.12,0-1.68Zm4.56,2.57c.51,0,1.02,0,1.53,0,.02,0,.03,0,.05,0,.59-.01,1.01-.42,1.01-1.01,0-1.04,0-2.07,0-3.11,0-.59-.42-1.01-1.01-1.02-1.04-.01-2.07-.01-3.11,0-.59,0-1.02,.43-1.03,1.02-.02,1.04-.02,2.07,0,3.11,0,.6,.45,1.01,1.05,1.02,.5,0,1,0,1.5,0Z"/>
  <path d="M4.65,20.55c-.67,0-1.35,.06-2.02-.01-1.42-.17-2.52-1.39-2.56-2.82-.03-1.14-.04-2.28,0-3.42,.05-1.49,1.23-2.75,2.71-2.84,1.23-.07,2.47-.07,3.7,0,1.49,.08,2.66,1.28,2.73,2.76,.06,1.19,.06,2.38,0,3.57-.08,1.56-1.37,2.75-2.93,2.8-.54,.01-1.09,0-1.63,0,0-.01,0-.03,0-.04Zm0-1.97c.51,0,1.02,0,1.53,0,.6,0,1.04-.42,1.05-1.02,.01-1.04,.01-2.07,0-3.11,0-.57-.43-1.01-1-1.02-1.05-.02-2.11-.02-3.16,0-.59,.01-.99,.46-.99,1.04,0,1.02,0,2.04,0,3.06,0,.61,.43,1.04,1.05,1.04,.51,0,1.02,0,1.53,0Z"/>
  <path d="M27.34,31.99c-.57,0-1.14,.02-1.71,0-1.53-.06-2.81-1.34-2.85-2.86-.03-1.13-.03-2.26,0-3.4,.04-1.56,1.33-2.86,2.9-2.9,1.11-.03,2.23-.03,3.34,0,1.61,.04,2.91,1.38,2.93,2.98,.01,1.06,.01,2.13,0,3.19-.02,1.6-1.28,2.91-2.87,2.98-.58,.02-1.16,0-1.74,0Zm2.59-4.57c0-.52,0-1.04,0-1.56,0-.59-.42-1.01-1.01-1.02-1.03,0-2.06,0-3.08,0-.61,0-1.05,.43-1.05,1.05-.01,1.02-.01,2.04,0,3.06,0,.59,.41,1.03,1,1.04,1.05,.02,2.11,.02,3.16,0,.6-.01,.98-.44,.99-1.04,0-.51,0-1.02,0-1.53Z"/>
</svg>