<?xml version="1.0" encoding="UTF-8"?>
<svg id="Layer_1" data-name="Layer 1" xmlns="http://www.w3.org/2000/svg" viewBox="0 0 32 32">
  <defs>
    <style>
      .cls-1 {
        stroke-width: 0px;
      }
    </style>
  </defs>
  <path class="cls-1" d="m31.15.03c1.06.74,1.14,1.42.22,2.33-.61.6-1.25,1.18-1.85,1.75,2.08,3.6,1.76,7.65-2.79,11.07.34.34.67.67,1,1,.67.69.73,1.41.16,1.95-.56.54-1.22.49-1.89-.18-.87-.86-1.72-1.74-2.64-2.67-1.3,1.3-2.54,2.56-3.8,3.8-.23.23-.51.47-.81.56-.55.17-1.06-.01-1.37-.53-.34-.57-.22-1.12.23-1.57,1.11-1.13,2.24-2.25,3.36-3.37.19-.19.39-.35.52-.47-1.07-1.07-2.1-2.1-3.19-3.19-1.17,1.17-2.43,2.45-3.71,3.71-.23.23-.52.45-.82.53-.56.15-1.05-.07-1.34-.59-.31-.56-.18-1.07.26-1.51,1.13-1.14,2.28-2.28,3.41-3.42.18-.18.36-.38.58-.6-.91-.9-1.78-1.76-2.64-2.63-.65-.65-.72-1.37-.21-1.9.55-.57,1.29-.51,1.96.15.32.32.62.67,1.06,1.15.59-.64,1.12-1.21,1.66-1.78,2.48-2.68,5.95-3.19,9.07-1.34.06.04.13.06.22.11.82-.78,1.65-1.57,2.48-2.35.29,0,.58,0,.87,0Z"/>
  <path class="cls-1" d="m0,30.32c.79-.83,1.58-1.66,2.39-2.51-2.57-4.51-.86-7.95,2.96-10.95-.48-.44-.9-.79-1.27-1.18-.55-.58-.56-1.3-.05-1.79.51-.49,1.25-.49,1.8.06,4.06,4.05,8.12,8.11,12.17,12.18.59.59.6,1.25.1,1.79-.51.54-1.23.53-1.85-.04-.19-.18-.37-.37-.56-.56-.17-.17-.34-.33-.68-.65-.47.53-.91,1.07-1.38,1.57-2.89,2.98-5.87,3.42-9.58,1.35-.53.56-1.07,1.17-1.64,1.74-.93.95-1.63.9-2.4-.14,0-.29,0-.58,0-.87Z"/>
</svg>