<?xml version="1.0" encoding="UTF-8"?>
<svg id="Layer_1" data-name="Layer 1" xmlns="http://www.w3.org/2000/svg" viewBox="0 0 32 32">
  <path d="M8.32,28.05c0-1.98-.16-3.93,.04-5.83,.3-2.82,2.55-4.9,5.36-5.09,1.81-.12,3.64-.1,5.44,.06,2.49,.21,4.78,2.53,4.98,5.02,.15,1.83,.08,3.68,.09,5.53,0,.12-.19,.31-.32,.35-1.12,.36-2.22,.79-3.37,1.01-4.17,.78-8.24,.22-12.21-1.05Z"/>
  <path d="M10.42,12.25c.1,1.56,.66,2.89,1.77,3.99-3.84,1.47-5.34,4.34-5.06,8.34-.86-.1-1.66-.14-2.44-.29-1.44-.29-2.86-.65-4.29-.98-.31-.07-.41-.22-.4-.54,.02-1.48,0-2.97,0-4.45,.01-3.4,2.63-6.04,6.03-6.07,1.3-.01,2.61,0,3.91,0,.15,0,.3,0,.47,0Z"/>
  <path d="M20.31,16.23c1.06-1.1,1.66-2.4,1.72-3.91,.06-.03,.08-.05,.11-.05,1.61,.02,3.22-.06,4.82,.09,2.44,.23,4.66,2.48,4.93,4.93,.12,1.1,.08,2.21,.1,3.32,.01,.69-.02,1.39,.01,2.08,.02,.35-.13,.49-.41,.61-1.57,.68-3.21,1.02-4.9,1.19-.43,.04-.85,.07-1.34,.1,0-.51,0-.97,0-1.44-.04-2.66-1.19-4.71-3.43-6.14-.49-.31-1.03-.52-1.61-.8Z"/>
  <path d="M11.56,12.07c0-2.6,2.08-4.67,4.68-4.67,2.61,0,4.7,2.1,4.68,4.71-.01,2.59-2.11,4.66-4.7,4.65-2.6,0-4.67-2.09-4.66-4.69Z"/>
  <path d="M8,2.55c2.57,0,4.7,2.09,4.67,4.63,0,.17-.09,.38-.21,.49-.98,.88-1.63,1.94-1.9,3.24-.03,.16-.18,.34-.33,.42-1.65,.93-3.72,.73-5.21-.5-1.47-1.21-2.06-3.23-1.47-5.04,.6-1.84,2.23-3.11,4.13-3.23,.11,0,.22-.02,.33-.02Z"/>
  <path d="M24.06,2.54c1.93,.09,3.43,1,4.22,2.84,.79,1.85,.48,3.62-.92,5.08-1.37,1.43-3.07,1.78-4.96,1.18-.28-.09-.42-.25-.46-.54-.27-1.58-1.07-2.83-2.38-3.75-.23-.16-.24-.34-.22-.57,.15-2.13,2.04-4.04,4.17-4.19,.17-.01,.33-.02,.56-.04Z"/>
</svg>