<?xml version="1.0" encoding="UTF-8"?>
<svg id="Layer_1" data-name="Layer 1" xmlns="http://www.w3.org/2000/svg" viewBox="0 0 32 32">
  <g>
    <g>
      <path d="M5.98,15.25c-1.76,0-3.18-1.43-3.18-3.18,0-1.76,1.43-3.18,3.18-3.18s3.18,1.43,3.18,3.18c0,1.76-1.43,3.18-3.18,3.18Z"/>
      <path d="M5.98,16.34c1.8,0,3.41,.81,4.49,2.08-1.16,1.25-1.88,2.92-1.88,4.76,0,.22,.04,.42,.11,.62H1.63c-.86,0-1.55-.69-1.55-1.55,0-3.26,2.64-5.91,5.91-5.91Z"/>
    </g>
    <g>
      <path d="M16.46,14.88c-2.09,0-3.78-1.69-3.78-3.78,0-2.09,1.69-3.78,3.78-3.78s3.78,1.69,3.78,3.78-1.69,3.78-3.78,3.78Z"/>
      <path d="M11.33,18.42c1.28-1.38,3.1-2.24,5.13-2.24h0c2.01,0,3.82,.85,5.09,2.2,1.18,1.25,1.91,2.94,1.91,4.8,0,.22-.04,.42-.11,.62-.25,.71-.93,1.22-1.73,1.22H11.29c-.8,0-1.47-.51-1.73-1.22-.07-.19-.11-.4-.11-.62,0-1.84,.72-3.51,1.88-4.76Z"/>
    </g>
  </g>
  <path d="M26.72,7.63c.12,0,.24,0,.36,0,.01,0,.03,.02,.04,.02,.67,.13,1.12,.59,1.21,1.26,.02,.13,0,.27,0,.4,.05,.02,.08,.04,.12,.05,.37,.14,.72,.32,1.03,.57,.17,.15,.3,.15,.5,.04,.54-.32,1.24-.2,1.69,.25,.45,.45,.55,1.14,.25,1.7-.15,.29-.39,.49-.67,.64-.05,.03-.09,.05-.08,.13,.07,.39,.1,.79,.03,1.17-.05,.25,.02,.37,.24,.5,.65,.4,.84,1.26,.46,1.93-.38,.66-1.22,.9-1.9,.55-.09-.05-.18-.1-.26-.15-.23,.15-.43,.31-.66,.44-.23,.13-.47,.24-.72,.36,0,.07,0,.16,0,.24,0,.68-.52,1.28-1.18,1.4-.7,.12-1.38-.26-1.61-.92-.06-.17-.07-.36-.09-.54-.01-.2,0-.2-.18-.27-.08-.03-.16-.06-.24-.11-.32-.19-.65-.39-.97-.58,.01-.02,0-.02,0-.02-.08,.04-.15,.09-.23,.13-.55,.28-1.09,.25-1.57-.12-.48-.37-.65-.88-.52-1.48,.1-.45,.39-.77,.8-.97,.07-.03,.09-.07,.07-.15-.07-.4-.09-.8-.02-1.2,.04-.22-.01-.32-.21-.43-.68-.4-.89-1.27-.5-1.94,.39-.68,1.24-.92,1.93-.54,.08,.04,.16,.09,.25,.14,.41-.35,.86-.61,1.36-.79,0-.09,0-.18,0-.26,0-.64,.44-1.2,1.05-1.37,.07-.02,.14-.03,.2-.05Zm.18,3.84c-1.06,0-1.91,.85-1.92,1.91,0,1.06,.85,1.92,1.91,1.93,1.06,0,1.91-.85,1.92-1.91,0-1.06-.85-1.92-1.91-1.92Z"/>
</svg>