<?xml version="1.0" encoding="UTF-8"?>
<svg id="Layer_1" data-name="Layer 1" xmlns="http://www.w3.org/2000/svg" viewBox="0 0 32 32">
  <g>
    <path d="M9.58,14.4c-2.85,0-5.16-2.31-5.16-5.16,0-2.85,2.31-5.16,5.16-5.16s5.16,2.31,5.16,5.16c0,2.85-2.31,5.16-5.16,5.16Z"/>
    <path d="M2.57,19.23c1.75-1.88,4.24-3.07,7.01-3.07h0c2.75,0,5.21,1.16,6.96,3.01,1.62,1.71,2.62,4.02,2.62,6.56,0,.3-.06,.58-.15,.84-.35,.97-1.27,1.67-2.36,1.67H2.51c-1.09,0-2.01-.7-2.36-1.67C.06,26.32,0,26.04,0,25.74c0-2.52,.98-4.8,2.57-6.51Z"/>
  </g>
  <path d="M24.28,3.35c.17,0,.35,0,.52,0,.02,0,.04,.02,.06,.03,.97,.18,1.61,.85,1.74,1.81,.03,.19,0,.39,0,.58,.07,.03,.12,.05,.17,.07,.53,.2,1.04,.45,1.48,.82,.25,.21,.43,.22,.72,.05,.78-.45,1.79-.29,2.43,.35,.65,.65,.79,1.64,.36,2.45-.22,.42-.56,.7-.97,.92-.07,.04-.13,.07-.11,.18,.1,.56,.15,1.13,.04,1.69-.07,.36,.03,.53,.34,.72,.94,.57,1.21,1.82,.66,2.77-.55,.94-1.76,1.3-2.73,.79-.13-.07-.26-.15-.38-.21-.32,.22-.63,.45-.95,.64-.33,.19-.68,.34-1.04,.52,0,.1,0,.23,0,.35-.01,.98-.74,1.85-1.69,2.01-1.01,.17-1.99-.38-2.32-1.33-.08-.24-.11-.51-.13-.78-.02-.28,0-.28-.26-.38-.11-.05-.23-.09-.34-.15-.47-.28-.93-.56-1.39-.84,.02-.04,.01-.04,0-.03-.11,.06-.21,.12-.32,.18-.79,.4-1.56,.36-2.26-.18-.7-.54-.94-1.27-.74-2.13,.15-.65,.56-1.1,1.15-1.4,.1-.05,.13-.1,.11-.21-.1-.57-.13-1.15-.03-1.72,.06-.31-.02-.46-.3-.62-.97-.57-1.28-1.82-.72-2.79,.56-.97,1.79-1.32,2.78-.78,.12,.06,.23,.13,.36,.2,.59-.5,1.24-.87,1.97-1.14,0-.13,0-.26,0-.38,.01-.92,.64-1.73,1.52-1.97,.1-.03,.2-.05,.29-.07Zm.26,5.53c-1.53,0-2.76,1.22-2.76,2.75,0,1.53,1.22,2.77,2.75,2.77,1.53,0,2.76-1.22,2.76-2.75,0-1.53-1.22-2.77-2.75-2.77Z"/>
</svg>