<?xml version="1.0" encoding="UTF-8"?>
<svg id="Layer_1" data-name="Layer 1" xmlns="http://www.w3.org/2000/svg" viewBox="0 0 32 32">
  <g>
    <path d="M23.92,14.69c2.41,0,4.36-1.95,4.36-4.36s-1.95-4.36-4.36-4.36-4.36,1.95-4.36,4.36,1.95,4.36,4.36,4.36Z"/>
    <path d="M23.92,16.18c-2.46,0-4.66,1.11-6.15,2.84,1.59,1.71,2.57,4,2.57,6.52,0,.3-.06,.58-.15,.84h9.69c1.17,0,2.12-.95,2.12-2.12,0-4.46-3.62-8.08-8.08-8.08Z"/>
  </g>
  <g>
    <path d="M9.59,14.18c2.85,0,5.17-2.31,5.17-5.17s-2.31-5.17-5.17-5.17-5.17,2.31-5.17,5.17,2.31,5.17,5.17,5.17Z"/>
    <path d="M16.61,19.02c-1.75-1.88-4.24-3.07-7.02-3.07h0c-2.75,0-5.22,1.16-6.97,3.02-1.62,1.72-2.62,4.02-2.62,6.57,0,.3,.06,.58,.15,.84,.35,.97,1.27,1.67,2.36,1.67h14.14c1.09,0,2.01-.7,2.36-1.67,.09-.26,.15-.54,.15-.84,0-2.52-.98-4.81-2.57-6.52Z"/>
  </g>
</svg>