<?xml version="1.0" encoding="UTF-8"?>
<svg id="Layer_1" data-name="Layer 1" xmlns="http://www.w3.org/2000/svg" viewBox="0 0 32 32">
  <path d="M10.69,0c0,1.2-.01,2.39-.02,3.59,0,.12,0,.25,0,.4H4.01v6.7H0C0,8.06,0,5.44,0,2.81c.02-.07,.05-.13,.07-.2C.32,1.54,.93,.75,1.94,.29,2.22,.17,2.52,.1,2.81,0h7.87Z"/>
  <path d="M32,10.69c-1.2,0-2.39-.01-3.59-.02-.12,0-.25,0-.4,0V4.01h-6.7V0C23.92,0,26.52,0,29.13,0c.06,.02,.12,.04,.18,.06,1.02,.19,1.8,.74,2.29,1.66,.19,.36,.28,.77,.41,1.16v7.81Z"/>
  <path d="M0,21.31c1.2,0,2.39,.01,3.59,.02,.12,0,.25,0,.4,0v6.66h6.7v4.01H2.88c-.06-.02-.12-.04-.18-.06-1.27-.26-2.11-1.01-2.54-2.23-.06-.17-.1-.35-.16-.53,0-2.62,0-5.25,0-7.87Z"/>
  <path d="M21.31,32c0-1.2,.01-2.39,.02-3.59,0-.12,0-.25,0-.4h6.66v-6.7h4.01v7.81c-.02,.08-.05,.16-.06,.24-.21,.95-.71,1.71-1.57,2.18-.38,.21-.83,.31-1.24,.46h-7.81Z"/>
  <path d="M24,25.32H8v-.31c0-1.62,0-3.25,0-4.87,0-1.65,1.13-2.8,2.78-2.8,3.48,0,6.96,0,10.43,0,1.65,0,2.78,1.15,2.78,2.8,0,1.62,0,3.25,0,4.87v.31Z"/>
  <path d="M15.99,14.67c-2.57,0-4.67-2.12-4.66-4.68,0-2.57,2.12-4.67,4.68-4.66,2.57,0,4.67,2.12,4.66,4.68-.01,2.57-2.12,4.67-4.68,4.66Z"/>
</svg>