<?xml version="1.0" encoding="UTF-8"?>
<svg id="Layer_1" data-name="Layer 1" xmlns="http://www.w3.org/2000/svg" viewBox="0 0 32 32">
  <path d="M24.79,18.28c-.12,0-.23,0-.35,0,0,0-.01-.02-.02-.02-.52-.18-.73-.46-.73-1.02,0-1.75,0-3.5,0-5.25v-.18h-.19c-1.76,0-3.53,0-5.29,0-.48,0-.81-.24-.95-.7,0-.02-.02-.03-.03-.05,0-.11,0-.21,0-.32,.22-.61,.46-.78,1.11-.78,1.72,0,3.45,0,5.17,0h.17c0-.08,0-.13,0-.19,0-1.76,0-3.52,0-5.29,0-.49,.24-.82,.71-.96,.02,0,.04-.02,.07-.03h.29c.52,.12,.79,.51,.78,1.13-.02,1.72,0,3.44,0,5.16v.18c.08,0,.13,0,.19,0,1.77,0,3.53,0,5.3,0,.48,0,.82,.26,.94,.73,0,.02,.02,.03,.02,.05v.29c-.22,.61-.46,.78-1.11,.78-1.72,0-3.45,0-5.17,0h-.17c0,.31,0,.6,0,.88,0,1.53,0,3.06,0,4.6,0,.48-.24,.81-.7,.95-.02,0-.03,.02-.05,.03Z"/>
  <g>
    <path d="M10.05,13.63c2.99,0,5.42-2.43,5.42-5.42s-2.43-5.42-5.42-5.42-5.42,2.43-5.42,5.42,2.43,5.42,5.42,5.42Z"/>
    <path d="M17.41,18.7c-1.84-1.98-4.45-3.22-7.36-3.22h0c-2.88,0-5.47,1.22-7.31,3.16C1.05,20.44,0,22.86,0,25.53,0,25.84,.06,26.14,.16,26.41c.36,1.02,1.33,1.76,2.47,1.76h14.83c1.15,0,2.11-.73,2.47-1.76,.1-.28,.16-.57,.16-.88,0-2.64-1.03-5.04-2.69-6.83Z"/>
  </g>
</svg>