<?xml version="1.0" encoding="UTF-8"?>
<svg id="Layer_1" data-name="Layer 1" xmlns="http://www.w3.org/2000/svg" viewBox="0 0 32 32">
  <path d="M15.99,.09C7.16,.09,0,7.25,0,16.08s7.16,15.99,15.99,15.99,15.99-7.16,15.99-15.99S24.82,.09,15.99,.09Zm.05,28.58c-6.99,0-12.66-5.67-12.66-12.66S9.05,3.35,16.04,3.35s12.66,5.67,12.66,12.66-5.67,12.66-12.66,12.66Z"/>
  <path d="M7.76,25.69c1.23-3.78,3.09-4.85,7.06-4.07,.85,.17,1.69,.16,2.54-.02,3.79-.78,5.68,.35,6.88,4.08-4.82,4.17-11.66,4.17-16.48,0Z"/>
  <path d="M21.35,13.76c-.02,3.6-2.01,5.85-5.18,5.83-3.18-.02-5.15-2.35-5.13-6.09,.02-3.47,1.63-5.09,5.06-5.08,3.56,0,5.26,1.73,5.24,5.34Z"/>
</svg>