<?xml version="1.0" encoding="UTF-8"?>
<svg id="Layer_1" data-name="Layer 1" xmlns="http://www.w3.org/2000/svg" viewBox="0 0 32 32">
  <path d="M32,1.17c-.06,.25-.23,.44-.41,.62-2.48,2.48-4.96,4.96-7.44,7.44-.48,.48-1.1,.6-1.68,.31-.15-.07-.28-.18-.4-.3-.98-.97-1.95-1.95-2.93-2.93-.14-.14-.23-.31-.28-.49,0-.09,0-.19,0-.28,.02-.04,.03-.08,.05-.12,.19-.55,.86-.74,1.31-.37,.11,.09,.2,.19,.3,.29,.83,.83,1.65,1.65,2.48,2.48,.03,.03,.06,.07,.12,.14,.04-.06,.07-.11,.1-.14,2.44-2.44,4.88-4.88,7.31-7.32,.13-.13,.28-.24,.46-.28,.44-.09,.86,.16,.98,.6,0,.02,.02,.05,.03,.07v.28Z"/>
  <g>
    <path d="M11.87,14.64c3.53,0,6.4-2.87,6.4-6.4S15.41,1.84,11.87,1.84s-6.4,2.87-6.4,6.4,2.87,6.4,6.4,6.4Z"/>
    <path d="M20.56,20.63c-2.17-2.33-5.25-3.8-8.69-3.8h0c-3.4,0-6.47,1.44-8.63,3.74-2.01,2.13-3.24,4.98-3.24,8.14,0,.37,.08,.71,.19,1.04,.43,1.21,1.57,2.07,2.92,2.07H20.63c1.35,0,2.49-.87,2.92-2.07,.12-.33,.19-.67,.19-1.04,0-3.12-1.21-5.95-3.18-8.07Z"/>
  </g>
</svg>