<?xml version="1.0" encoding="UTF-8"?>
<svg id="Layer_1" data-name="Layer 1" xmlns="http://www.w3.org/2000/svg" viewBox="0 0 32 32">
  <path d="M7.49,2.11l.38,.8c-1.38,1.46-2.39,2.79-3.05,3.97-.65,1.18-1.15,2.52-1.5,4.02-.34,1.5-.52,3.23-.52,5.2s.18,3.58,.54,5.07c.36,1.49,.88,2.85,1.56,4.07,.68,1.23,1.67,2.52,2.97,3.89l-.38,.76c-1.56-1.38-2.74-2.55-3.53-3.52-1.3-1.57-2.28-3.22-2.95-4.95-.67-1.73-1-3.53-1-5.41s.31-3.61,.94-5.28c.63-1.67,1.55-3.26,2.77-4.77,.84-1.05,2.1-2.33,3.78-3.85Z"/>
  <path d="M8.7,10.47h6.57v1c-1.07,.04-1.6,.23-1.6,.57,0,.16,.09,.35,.26,.6l2.35,3.12,2.3-2.88c.16-.21,.25-.42,.25-.61,0-.42-.59-.68-1.76-.79v-1h5.75v1c-1.38,.22-2.44,.8-3.17,1.74l-2.68,3.35,4.21,5.46c.28,.36,.59,.61,.92,.76,.33,.15,.81,.23,1.45,.23v1.09h-6.97v-1.09h.49c.51,0,.89-.05,1.13-.16,.16-.08,.23-.17,.23-.29,0-.11-.09-.29-.28-.54l-2.73-3.61-2.19,2.82c-.31,.4-.47,.72-.47,.96s.11,.43,.32,.55c.3,.17,.81,.27,1.52,.28v1.09h-5.92v-1.09c.72-.07,1.27-.22,1.66-.45,.64-.4,1.22-.92,1.73-1.56l2.71-3.43-4-5.18c-.45-.58-1.14-.89-2.09-.92v-1Z"/>
  <path d="M24.51,2.11c1.7,1.54,2.94,2.79,3.72,3.75,1.22,1.5,2.15,3.1,2.8,4.8,.64,1.7,.97,3.48,.97,5.35s-.31,3.58-.93,5.22c-.62,1.64-1.55,3.24-2.79,4.81-.88,1.11-2.14,2.4-3.77,3.84l-.38-.76c1.29-1.36,2.28-2.65,2.96-3.88,.68-1.23,1.2-2.59,1.56-4.07,.36-1.48,.54-3.17,.54-5.06s-.17-3.72-.52-5.21c-.35-1.5-.85-2.84-1.51-4.03-.65-1.19-1.67-2.51-3.03-3.96l.38-.8Z"/>
</svg>