<?xml version="1.0" encoding="UTF-8"?>
<svg id="Layer_1" data-name="Layer 1" xmlns="http://www.w3.org/2000/svg" viewBox="0 0 32 32">
  <path d="M15.01,30v-4c-.65-.15-1.3-.24-1.91-.44-3.63-1.21-5.92-3.68-6.84-7.4-.25-1.02-.25-2.06-.24-3.1,0-.35,0-.7,0-1.05,0-.56,.44-.99,.99-1,.56,0,1,.43,1.01,1,0,.73,0,1.46,0,2.19,.04,3.29,2.32,6.34,5.45,7.38,3.51,1.16,7.36-.2,9.32-3.33,.78-1.24,1.19-2.59,1.22-4.05,.02-.71,0-1.43,0-2.15,0-.61,.43-1.06,1.01-1.05,.57,0,1,.45,.99,1.04-.02,1.17,.09,2.34-.13,3.5-.78,4.1-3.16,6.79-7.14,8.06-.55,.18-1.14,.25-1.72,.38v4.01c.1,0,.2,0,.29,0,1.89,0,3.79,0,5.68,0,.52,0,.95,.38,1.01,.88,.06,.49-.25,.95-.74,1.09-.09,.03-.19,.03-.29,.03-4.64,0-9.28,0-13.92,0-.59,0-1.04-.44-1.04-1,0-.56,.45-1,1.04-1,1.88,0,3.76,0,5.63,0,.1,0,.19,0,.32,0Z"/>
  <path d="M22.02,11.01c0,1.66,0,3.32,0,4.98,0,2.71-1.76,5.02-4.36,5.78-3.31,.97-6.82-1.15-7.5-4.54-.08-.4-.13-.82-.13-1.23-.01-3.33-.01-6.67,0-10,0-3.04,2.24-5.56,5.25-5.95,3.29-.42,6.33,1.96,6.69,5.24,.04,.38,.05,.76,.05,1.14,0,1.53,0,3.06,0,4.59Zm-10-.01c0,1.66,0,3.32,0,4.97,0,.34,.04,.68,.12,1.01,.53,2.14,2.72,3.44,4.86,2.89,1.76-.45,3.01-2.03,3.01-3.85,0-3.35,0-6.7,0-10.05,0-.19-.02-.39-.05-.58-.3-2.23-2.59-3.82-4.77-3.31-1.92,.45-3.17,2.02-3.18,3.99,0,1.64,0,3.28,0,4.93Z"/>
</svg>