<?xml version="1.0" encoding="UTF-8"?>
<svg id="Layer_1" data-name="Layer 1" xmlns="http://www.w3.org/2000/svg" viewBox="0 0 32 32">
  <g>
    <path d="M12.48,9.05c2.46,0,4.92,0,7.38,0,0,0,.02,.02,.03,.02,.9,.14,1.48,.67,1.74,1.54,.13,.44,.07,.89,0,1.33-.24,1.71-.99,3.17-2.25,4.36-.1,.1-.1,.14,0,.23,1.52,1.46,2.29,3.25,2.31,5.36,0,.63,0,1.26,0,1.88H10.67c0-.68,0-1.35,0-2.03,0-.42,.05-.84,.13-1.26,.31-1.58,1.06-2.92,2.24-4.01,.06-.06,.06-.08,0-.14-1.44-1.35-2.22-3-2.36-4.97-.08-1.07,.54-1.98,1.53-2.26,.09-.03,.19-.02,.27-.07Zm3.69,12.89h.43c1.04,0,2.09,0,3.13,0,.07,0,.13,.02,.13-.1,0-.57-.07-1.12-.26-1.65-.34-.98-.94-1.79-1.68-2.5-.45-.43-.95-.8-1.44-1.19-.07-.06-.1-.09,0-.15,.15-.11,.28-.23,.43-.34,.7-.54,1.36-1.12,1.88-1.84,.65-.88,1.04-1.86,1.06-2.96,0-.22-.09-.31-.3-.31-2.25,0-4.5,0-6.75,0-.21,0-.3,.09-.3,.31,0,.55,.11,1.07,.3,1.58,.37,.97,.99,1.76,1.75,2.46,.43,.39,.89,.74,1.35,1.1,.07,.05,.09,.08,0,.14-.08,.05-.16,.12-.24,.19-.68,.53-1.35,1.06-1.89,1.73-.81,.99-1.29,2.1-1.27,3.41,0,.11,.03,.13,.13,.13,1.18,0,2.35,0,3.53,0Z"/>
    <path d="M13.89,20.69c.22-.6,.53-1.13,.92-1.62,.38-.48,.85-.85,1.33-1.22,.04-.03,.07-.03,.11,0,.98,.71,1.76,1.57,2.19,2.72,.01,.04,.03,.07,.04,.12h-4.59Z"/>
  </g>
  <path d="M5.71,3.74c.34-.14,.58-.41,.87-.62C11.82-.81,19.23-1.05,24.75,2.54c.93,.6,1.79,1.29,2.58,2.07,.6,.59,.64,1.39,.11,1.95-.55,.57-1.36,.57-1.97-.03-1.73-1.7-3.77-2.88-6.13-3.44-4.1-.98-7.89-.25-11.26,2.27C2.36,9.64,1.08,17.67,5.13,23.55c4.18,6.07,12.46,7.62,18.54,3.47,.66-.45,1.27-.97,1.85-1.53,.64-.62,1.49-.58,2.03,.08,.35,.43,.37,.91,.16,1.41-.02,.04-.08,.08-.03,.13l-1.02,1.02c-.06-.03-.09,.02-.13,.05-.46,.41-.95,.77-1.46,1.11-5.57,3.77-13.1,3.59-18.48-.45-.29-.22-.54-.5-.89-.65-.6-.6-1.21-1.21-1.81-1.81-.09-.27-.31-.45-.48-.67C1.49,23.18,.38,20.34,.16,17.17-.11,13.22,.91,9.64,3.26,6.44c.23-.31,.52-.58,.69-.93,.59-.59,1.18-1.18,1.77-1.77Z"/>
  <path d="M30.62,12.37c-.52,.52-1.35,.52-1.88-.01-.52-.53-.52-1.35,0-1.88,.52-.52,1.35-.52,1.88,.01,.52,.53,.52,1.35,0,1.88Z"/>
  <path d="M30.39,21.22c.52,.55,.49,1.38-.06,1.9-.53,.49-1.36,.46-1.87-.08-.5-.53-.47-1.38,.06-1.88,.54-.5,1.37-.47,1.87,.06Z"/>
  <path d="M31.51,15.89c.51,.53,.5,1.38-.03,1.87-.55,.52-1.37,.49-1.9-.06-.5-.53-.48-1.36,.06-1.87,.52-.5,1.36-.48,1.87,.06Z"/>
  <path d="M28.73,1.7c-.68-.1-1.23,.38-1.23,1.1,0,.71,0,1.43,0,2.14v.3c-.15-.21-.28-.39-.41-.56-.08,1-.97,1.18-1.87,1.1,.23,.3,.45,.61,.67,.94,.05,.08,.13,.15,.12,.27-.05,0-.1,0-.15,0-.85,0-1.7,0-2.54,0-.66,0-1.12,.46-1.12,1.08,0,.61,.47,1.05,1.12,1.05,1.06,0,2.13,0,3.19,0,1.44-.01,2.7-1.03,3.04-2.42,.02-.09,0-.2,.09-.27V2.54c-.15-.44-.41-.77-.9-.85Z"/>
</svg>