<?xml version="1.0" encoding="UTF-8"?>
<svg id="Layer_1" data-name="Layer 1" xmlns="http://www.w3.org/2000/svg" viewBox="0 0 32 32">
  <path d="m15.93,0c9.12-.02,15.71,7.19,16.05,15.14.2,4.69-1.34,8.76-4.69,12.12-3.21,3.22-7.13,4.83-11.61,4.73C7.07,31.79.74,25.14.06,17.44c-.41-4.66.99-8.75,4.08-12.22C7.24,1.74,11.62-.04,15.93,0Zm-.05,2.5c-7.56-.1-13.07,6.1-13.4,12.59-.44,8.6,6.28,14.09,12.72,14.42,3.89.2,7.3-1.08,10.13-3.77,3.1-2.95,4.42-6.61,4.16-10.85-.38-6.3-5.9-12.57-13.61-12.39Z"/>
  <path d="m17.22,13.26c0,1.35-.01,2.69.01,4.04,0,.22.11.5.27.66,1.22,1.25,2.46,2.47,3.69,3.71.59.59.6,1.42.04,1.93-.43.39-1.27.39-1.68-.02-1.41-1.4-2.81-2.81-4.22-4.21-.33-.33-.47-.73-.47-1.18,0-.88.01-1.76,0-2.64-.03-1.9-.06-3.8-.09-5.7,0-.37-.03-.74,0-1.1.06-.71.72-1.05,1.24-1.03.63.02,1.11.47,1.16,1.14.06.7.04,1.41.04,2.11,0,.77,0,1.54,0,2.31Z"/>
</svg>