<?xml version="1.0" encoding="UTF-8"?>
<svg id="Layer_1" data-name="Layer 1" xmlns="http://www.w3.org/2000/svg" viewBox="0 0 32 32">
  <g>
    <path d="M5.64,3.69c.34-.14,.58-.41,.87-.62C11.75-.86,19.16-1.1,24.68,2.49c.93,.6,1.79,1.29,2.58,2.07,.6,.59,.64,1.39,.11,1.95-.55,.57-1.36,.57-1.97-.03-1.73-1.7-3.77-2.88-6.13-3.44-4.1-.98-7.89-.25-11.26,2.27C2.29,9.59,1,17.63,5.06,23.5c4.18,6.07,12.46,7.62,18.54,3.47,.66-.45,1.27-.97,1.85-1.53,.64-.62,1.49-.58,2.03,.08,.35,.43,.37,.91,.16,1.41-.02,.04-.08,.08-.03,.13-.34,.34-.68,.68-1.02,1.02-.06-.03-.09,.02-.13,.05-.46,.41-.95,.77-1.46,1.11-5.57,3.77-13.1,3.59-18.48-.45-.29-.22-.54-.5-.89-.65-.6-.6-1.21-1.21-1.81-1.81-.09-.27-.31-.45-.48-.67C1.42,23.13,.31,20.29,.09,17.12c-.28-3.95,.75-7.53,3.09-10.73,.23-.31,.52-.58,.69-.93,.59-.59,1.18-1.18,1.77-1.77Z"/>
    <path d="M30.55,12.32c-.52,.52-1.35,.52-1.88-.01-.52-.53-.52-1.35,0-1.88,.52-.52,1.35-.52,1.88,.01,.52,.53,.52,1.35,0,1.88Z"/>
    <path d="M30.32,21.17c.52,.55,.49,1.38-.06,1.9-.53,.49-1.36,.46-1.87-.08-.5-.53-.47-1.38,.06-1.88,.54-.5,1.37-.47,1.87,.06Z"/>
    <path d="M31.44,15.84c.51,.53,.5,1.38-.03,1.87-.55,.52-1.37,.49-1.9-.06-.5-.53-.48-1.36,.06-1.87,.52-.5,1.36-.48,1.87,.06Z"/>
    <path d="M28.66,1.65c-.68-.1-1.23,.38-1.23,1.1,0,.71,0,1.43,0,2.14v.3c-.15-.21-.28-.39-.41-.56-.08,1-.97,1.18-1.87,1.1,.23,.3,.45,.61,.67,.94,.05,.08,.13,.15,.12,.27-.05,0-.1,0-.15,0-.85,0-1.7,0-2.54,0-.66,0-1.12,.46-1.12,1.08,0,.61,.47,1.05,1.12,1.05,1.06,0,2.13,0,3.19,0,1.44-.01,2.7-1.03,3.04-2.42,.02-.09,0-.2,.09-.27V2.49c-.15-.44-.41-.77-.9-.85Z"/>
  </g>
  <path d="M15.64,7.83c.18,0,.36,0,.54,0,.01,0,.02,.03,.03,.03,.57,.07,1.02,.36,1.36,.82,.3,.4,.41,.86,.38,1.36,0,.13,.03,.19,.15,.24,.52,.19,1.02,.44,1.44,.8,.24,.21,.42,.22,.7,.05,.74-.43,1.68-.29,2.32,.29,.63,.58,.82,1.49,.5,2.28-.21,.5-.57,.84-1.04,1.08-.08,.04-.12,.08-.1,.18,.1,.55,.14,1.12,.04,1.67-.07,.35,.04,.51,.33,.68,.76,.45,1.1,1.41,.85,2.27-.25,.85-1.03,1.45-1.91,1.46-.45,0-.86-.14-1.23-.38-.08-.05-.14-.05-.22,.01-.46,.39-.96,.7-1.53,.91-.24,.09-.31,.2-.31,.46,.02,.97-.64,1.77-1.58,2-.06,.01-.14-.01-.19,.05h-.57c-.04-.06-.1-.04-.16-.06-.4-.1-.74-.3-1.02-.6-.4-.44-.57-.96-.53-1.54,0-.14-.04-.2-.17-.25-.52-.19-1.02-.44-1.44-.81-.24-.2-.4-.2-.67-.05-.74,.43-1.69,.31-2.32-.27-.64-.59-.84-1.5-.5-2.31,.21-.49,.57-.83,1.03-1.07,.08-.04,.12-.08,.1-.18-.1-.56-.14-1.13-.04-1.69,.06-.33-.02-.48-.31-.65-.74-.45-1.05-1.15-.93-2,.12-.86,.64-1.42,1.47-1.67,.61-.18,1.19-.05,1.72,.3,.09,.06,.15,.06,.24-.02,.46-.38,.96-.7,1.51-.9,.24-.09,.31-.2,.3-.46-.02-.86,.5-1.6,1.29-1.91,.14-.06,.3-.09,.44-.14Zm.29,5.42c-1.5,0-2.7,1.21-2.7,2.71,0,1.49,1.2,2.7,2.69,2.7,1.5,0,2.71-1.2,2.71-2.7,0-1.5-1.2-2.71-2.7-2.71Z"/>
</svg>