<?xml version="1.0" encoding="UTF-8"?>
<svg id="Layer_1" data-name="Layer 1" xmlns="http://www.w3.org/2000/svg" viewBox="0 0 32 32">
  <path d="M31.99,16.07c.1,9.01-7.69,16.14-16.31,15.97C7.52,31.88-.02,24.87,.01,15.95,.04,7.32,7.48-.17,16.42,.04c7.9,.19,15.67,6.87,15.57,16.02Zm-16,12.86c6.83,.22,12.98-5.64,12.95-12.85-.04-7.16-5.69-12.8-12.77-12.95-7.13-.14-13.1,5.93-13.1,12.91,0,7.02,5.96,13.09,12.92,12.89Z"/>
  <path d="M18.14,12.88c0,1.39,0,2.78,0,4.17,0,.84-.22,1.04-1.06,1.04-.78,0-1.56,0-2.35,0-.54,0-.8-.25-.82-.79-.13-2.9-.27-5.79-.4-8.69-.02-.51,.23-.79,.75-.8,1.16-.02,2.33-.02,3.49,0,.55,0,.77,.27,.75,.84-.05,1.41-.12,2.82-.18,4.23h-.18Z"/>
  <path d="M13.33,22.24c0-1.47,1.23-2.72,2.68-2.71,1.45,0,2.71,1.27,2.7,2.71-.01,1.43-1.23,2.65-2.67,2.68-1.45,.03-2.7-1.21-2.71-2.68Z"/>
</svg>