<?xml version="1.0" encoding="UTF-8"?>
<svg id="Layer_1" data-name="Layer 1" xmlns="http://www.w3.org/2000/svg" viewBox="0 0 32 32">
  <defs>
    <style>
      .cls-1 {
        fill: #fff;
        stroke-width: 0px;
      }
    </style>
  </defs>
  <path class="cls-1" d="m16.01,21.12c-1.41,0-2.57,1.14-2.59,2.55-.02,1.42,1.16,2.61,2.59,2.6,1.41,0,2.56-1.16,2.56-2.58,0-1.42-1.15-2.57-2.56-2.58Z"/>
  <path class="cls-1" d="m14.66,20.15c.89,0,1.78,0,2.67,0,.47,0,.69-.24.7-.7.01-.38.04-.76.06-1.13.12-2.07.24-4.14.35-6.21.03-.64-.21-.87-.83-.88-.53,0-1.05,0-1.58,0-.54,0-1.09,0-1.63,0-.64,0-.88.24-.84.86.13,2.46.28,4.93.42,7.39.02.44.24.66.69.66Z"/>
</svg>