<?xml version="1.0" encoding="UTF-8"?>
<svg id="Layer_1" data-name="Layer 1" xmlns="http://www.w3.org/2000/svg" viewBox="0 0 32 32">
  <path d="M.04,16.02C.05,7.23,7.09,.06,15.97,.02c8.95-.03,16.05,7.18,16.06,15.97,.01,8.85-7.14,16.05-16.05,16.02C7.18,31.99,.06,24.88,.04,16.02Zm23.84-6.32c.6,1.8,.93,3.64,1.02,5.52h5.56c-.18-2.79-1.06-5.32-2.67-7.6-1.24,.83-2.53,1.51-3.92,2.07ZM7.18,15.23c.09-1.89,.43-3.73,1.02-5.53-1.39-.56-2.68-1.24-3.91-2.07-1.61,2.29-2.5,4.81-2.67,7.6H7.18Zm20.61,9.18c1.61-2.29,2.5-4.81,2.67-7.61-.11,0-.19,0-.27,0-.61,0-1.22,0-1.82,0-1.09,0-2.19,0-3.28,0-.15,0-.19,.04-.2,.19-.01,.36-.05,.72-.08,1.08-.08,1.05-.28,2.09-.55,3.11-.1,.39-.22,.78-.33,1.18,1.36,.55,2.64,1.23,3.86,2.05Zm-23.5,0c1.18-.8,2.42-1.45,3.72-1.99,.13-.05,.13-.11,.09-.23-.16-.59-.33-1.18-.47-1.77-.22-.94-.35-1.9-.41-2.87-.02-.25-.04-.5-.06-.73H1.62c.18,2.79,1.06,5.31,2.67,7.59Zm10.95-3.61v-3.99h-6.5c.07,1.71,.36,3.37,.87,4.97,.94-.22,1.85-.47,2.78-.63,.94-.16,1.89-.24,2.85-.35Zm8.1-3.98h-6.5v3.98c.96,.12,1.9,.19,2.83,.35,.93,.16,1.85,.41,2.8,.63,.52-1.6,.8-3.26,.87-4.97Zm0-1.59c-.09-1.72-.38-3.38-.93-5.01-1.83,.58-3.68,.89-5.57,.97v4.04h6.5Zm-8.08-4.04c-1.91-.08-3.76-.39-5.58-.97-.54,1.64-.84,3.3-.93,5h6.5v-4.03Zm1.58,11.21v7.9c2.25-1.96,3.93-4.28,5.08-7.01-1.66-.52-3.34-.81-5.08-.89Zm-1.59,7.89v-7.89c-1.74,.08-3.42,.37-5.08,.89,1.15,2.73,2.83,5.04,5.08,7Zm0-28.41c-2.22,1.92-3.87,4.2-5.03,6.87,1.65,.51,3.31,.8,5.03,.87V1.89Zm1.58,7.74c1.72-.08,3.38-.36,5.02-.88-1.16-2.68-2.82-4.95-5.02-6.86v7.74ZM12.89,1.94c-3.01,.68-5.54,2.17-7.62,4.45,.67,.53,2.88,1.68,3.48,1.82,.99-2.34,2.38-4.43,4.13-6.28Zm13.9,4.45c-2.07-2.28-4.61-3.77-7.67-4.48,1.81,1.87,3.2,3.96,4.19,6.31,.78-.24,3.03-1.42,3.48-1.83Zm-3.42,17.45c-.97,2.32-2.3,4.39-4.06,6.25,2.98-.73,5.45-2.21,7.48-4.43-.45-.41-2.57-1.54-3.42-1.82Zm-14.68-.01c-1.21,.49-2.34,1.09-3.43,1.81,2.05,2.24,4.51,3.72,7.49,4.45-1.75-1.87-3.09-3.93-4.06-6.26Z"/>
</svg>