<?xml version="1.0" encoding="UTF-8"?>
<svg id="Layer_1" data-name="Layer 1" xmlns="http://www.w3.org/2000/svg" viewBox="0 0 32 32">
  <defs>
    <style>
      .cls-1 {
        fill: #ff0000;
      }
    </style>
  </defs>
  <path class="cls-1" d="M32.02,16.06c0,8.84-7.16,16-16,16S.02,24.89,.02,16.06,7.19,.06,16.02,.06s16,7.16,16,16ZM14.56,24.43c.41,.32,.9,.48,1.48,.48s1.05-.16,1.46-.48c.41-.32,.61-.83,.61-1.54s-.2-1.27-.61-1.57c-.41-.3-.89-.45-1.46-.45s-1.07,.15-1.48,.45c-.41,.3-.61,.82-.61,1.57s.2,1.23,.61,1.54Zm3.55-17.22h-4.11l.61,11.61h2.9l.61-11.61Z"/>
</svg>