<?xml version="1.0" encoding="UTF-8"?>
<svg id="Layer_1" data-name="Layer 1" xmlns="http://www.w3.org/2000/svg" viewBox="0 0 32 32">
  <defs>
    <style>
      .cls-1 {
        fill: #45b65c;
      }
    </style>
  </defs>
  <path class="cls-1" d="M16.02,31.96C7.63,32.27,0,24.96,0,16,0,7.14,7.59-.12,16.28,.02c8.22,.13,15.75,7.17,15.72,16.07-.03,8.75-7.53,16.15-15.98,15.86Zm-.02-3.05c6.81,.22,12.98-5.66,12.93-12.87-.05-7.15-5.69-12.79-12.79-12.93-6.92-.14-13.09,5.65-13.08,12.93,0,7.28,6.16,13.08,12.94,12.87Z"/>
  <path class="cls-1" d="M13.4,19.26c1.64-1.68,3.17-3.28,4.73-4.85,1.41-1.42,2.84-2.83,4.26-4.24,.49-.49,.76-.49,1.26-.02,.45,.44,.9,.88,1.33,1.34,.43,.45,.42,.7,0,1.12-3.65,3.64-7.3,7.27-10.96,10.9-.54,.54-.74,.53-1.28-.01-1.85-1.85-3.7-3.7-5.54-5.55-.66-.66-.66-.84,0-1.5,.36-.36,.73-.73,1.09-1.09,.58-.56,.86-.56,1.43,.03,1.05,1.08,2.1,2.16,3.14,3.25,.14,.15,.27,.32,.53,.62Z"/>
</svg>