<?xml version="1.0" encoding="UTF-8"?>
<svg id="Layer_1" data-name="Layer 1" xmlns="http://www.w3.org/2000/svg" viewBox="0 0 32 32">
  <defs>
    <style>
      .cls-1 {
        fill: #cccccb;
        stroke-width: 0px;
      }
    </style>
  </defs>
  <path class="cls-1" d="M18.98,26.04c-7.18,0-13.02-5.84-13.02-13.02S11.8,0,18.98,0s13.02,5.84,13.02,13.02-5.84,13.02-13.02,13.02ZM18.98,1.53c-6.33,0-11.49,5.15-11.49,11.49s5.15,11.49,11.49,11.49,11.49-5.15,11.49-11.49S25.32,1.53,18.98,1.53Z"/>
  <path class="cls-1" d="M25.75,15.6c-1.69-6.57-8.21-10.78-14.88-9.59-4.03.72-7.08,2.9-9.15,6.42C.76,14.07.23,15.85.06,17.73c-.06.66-.09,1.32-.01,1.98,0,.44.06.88.14,1.32.58,3.3,2.15,6.04,4.79,8.11,3.23,2.54,6.92,3.44,10.92,2.51,5.04-1.17,8.3-4.35,9.81-9.3.26-.85.4-1.74.43-2.63,0-.05.02-.09.02-.14.07-1.34-.06-2.67-.4-3.97Z"/>
</svg>