<?xml version="1.0" encoding="UTF-8"?>
<svg id="Layer_1" data-name="Layer 1" xmlns="http://www.w3.org/2000/svg" viewBox="0 0 32 32">
  <defs>
    <style>
      .cls-1 {
        fill: #c7434e;
      }

      .cls-1, .cls-2 {
        stroke-width: 0px;
      }

      .cls-2 {
        fill: #c7424e;
      }
    </style>
  </defs>
  <path class="cls-1" d="M23.8,6.05c-1.15-1.15-2.21-2.2-3.26-3.25-.71-.71-.71-1.24,0-1.95.16-.16.32-.33.49-.49.5-.47,1.13-.47,1.62.01,1.02,1.02,2.04,2.04,3.06,3.06.09.09.19.18.34.32.32-.34.61-.66.91-.97.79-.8,1.59-1.6,2.39-2.39.52-.51,1.15-.51,1.67,0,.21.2.42.41.62.62.5.52.5,1.13,0,1.64-1.1,1.11-2.21,2.21-3.35,3.34.1.11.18.2.27.29,1.01,1.01,2.02,2.02,3.03,3.04.56.56.56,1.16.01,1.72-.2.2-.39.4-.59.59-.51.49-1.14.49-1.64,0-1.01-1.01-2.03-2.02-3.03-3.04-.09-.09-.16-.21-.26-.35-.16.15-.26.23-.35.32-1.01,1.01-2.02,2.02-3.04,3.03-.55.55-1.16.54-1.72,0-.18-.18-.36-.36-.54-.54-.55-.57-.56-1.16,0-1.72,1-1.01,2-2.01,3.01-3.01.09-.09.22-.15.37-.26Z"/>
  <path class="cls-2" d="M26.13,10.32c-.85.85-1.69,1.69-2.54,2.54-1.09,1.09-2.31,1.08-3.42-.01-.36-.36-.72-.71-1.07-1.07-1.1-1.13-1.11-2.31,0-3.42.84-.85,1.69-1.69,2.54-2.53l-4.76-4.76c-1.31-.12-2.66-.07-4.02.17-4.77.85-8.38,3.43-10.83,7.61C.9,10.77.27,12.88.07,15.11c-.07.78-.11,1.56-.01,2.34,0,.53.07,1.05.16,1.56.68,3.91,2.55,7.15,5.67,9.6,3.83,3,8.19,4.07,12.92,2.97,5.97-1.38,9.83-5.15,11.62-11.01.31-1.01.47-2.05.5-3.12,0-.06.02-.11.02-.17.04-.73.02-1.46-.04-2.19l-4.78-4.78Z"/>
</svg>