<?xml version="1.0" encoding="UTF-8"?>
<svg id="Layer_1" data-name="Layer 1" xmlns="http://www.w3.org/2000/svg" viewBox="0 0 32 32">
  <defs>
    <style>
      .cls-1 {
        fill: #c7434e;
      }

      .cls-1, .cls-2 {
        stroke-width: 0px;
      }

      .cls-2 {
        fill: #c7424e;
      }
    </style>
  </defs>
  <g>
    <path class="cls-1" d="M20.33,11.63c.09-.8.17-1.62.26-2.43.01-.11.09-.22.17-.3,1.97-1.97,3.93-3.94,5.9-5.91.25-.25.3-.25.56,0,.78.78,1.56,1.57,2.35,2.35.2.2.21.35,0,.55-1.98,1.97-3.95,3.95-5.94,5.92-.1.1-.27.16-.42.18-.72.09-1.44.16-2.17.24-.47.05-.74-.16-.73-.6Z"/>
    <path class="cls-1" d="M29.53.49c.27.14.53.22.72.39.49.44.96.9,1.41,1.37.45.46.43,1.13-.01,1.58-.31.31-.63.61-.94.92-.17.17-.32.16-.48-.01-.8-.81-1.6-1.61-2.41-2.41-.18-.18-.18-.33,0-.5.33-.31.64-.66.99-.95.19-.16.45-.25.72-.39Z"/>
  </g>
  <path class="cls-2" d="M29.21,8.76c-1.53,1.53-3.07,3.06-4.6,4.59-.19.19-.52.3-.79.34-1.36.17-2.72.31-4.08.46-.88.1-1.39-.31-1.38-1.14.16-1.51.31-3.04.5-4.57.02-.2.17-.42.32-.57,1.61-1.62,3.23-3.23,4.84-4.84C20.81.94,16.87.01,12.87.73c-4.78.85-8.38,3.44-10.84,7.61C.9,10.27.27,12.38.07,14.61c-.07.78-.11,1.56-.01,2.34,0,.53.07,1.05.16,1.56.68,3.91,2.55,7.15,5.67,9.6,3.83,3.01,8.2,4.07,12.93,2.98,5.98-1.38,9.83-5.16,11.62-11.02.31-1.01.47-2.06.51-3.12,0-.06.02-.11.02-.17.09-1.59-.07-3.16-.47-4.7-.3-1.18-.75-2.28-1.3-3.32Z"/>
</svg>