<?xml version="1.0" encoding="UTF-8"?>
<svg id="Layer_1" data-name="Layer 1" xmlns="http://www.w3.org/2000/svg" viewBox="0 0 32 32">
  <defs>
    <style>
      .cls-1 {
        fill: #c7424e;
        stroke-width: 0px;
      }
    </style>
  </defs>
  <path class="cls-1" d="M31.49,11.96C29.42,3.93,21.45-1.22,13.29.23c-4.93.88-8.65,3.55-11.19,7.86C.93,10.09.28,12.26.07,14.56c-.07.8-.12,1.61-.02,2.42,0,.54.07,1.08.17,1.61.71,4.04,2.63,7.38,5.85,9.91,3.95,3.1,8.47,4.2,13.35,3.07,6.17-1.43,10.15-5.32,12-11.38.32-1.04.49-2.12.52-3.22,0-.06.02-.11.02-.17.09-1.64-.08-3.26-.49-4.85Z"/>
</svg>