<?xml version="1.0" encoding="UTF-8"?>
<svg id="Layer_1" data-name="Layer 1" xmlns="http://www.w3.org/2000/svg" viewBox="0 0 32 32">
  <defs>
    <style>
      .cls-1 {
        fill: #000;
        stroke-width: 0px;
      }
    </style>
  </defs>
  <path class="cls-1" d="M5.5,25.09c-.72-1.43-1.12-3.03-1.14-4.79-.64,0-1.25,0-1.86,0-.43,0-.87,0-1.3,0C.49,20.28,0,19.83,0,19.21c0-.62.49-1.06,1.2-1.07,1.08,0,2.16,0,3.18,0,.37-1.09.65-2.16,1.09-3.16.43-.98,1.03-1.89,1.58-2.87-.64,0-1.3.03-1.95-.01-.27-.02-.59-.14-.79-.31-.73-.63-1.42-1.31-2.12-1.98-.54-.52-.6-1.12-.16-1.58.44-.45,1.04-.42,1.58.11.57.56,1.12,1.14,1.72,1.68.19.17.48.29.73.3,2.87.02,5.74.01,8.6.01h.59v21.33c-1.23-.03-2.39-.32-3.5-.77-1.76-.7-3.28-1.75-4.56-3.17-.15-.17-.43-.26-.67-.31-.88-.17-1.56.12-2.12.84-.35.46-.81.84-1.23,1.25-.47.44-1.05.45-1.47.04-.42-.41-.43-1.01.01-1.47.8-.83,1.58-1.68,2.44-2.44.33-.29.85-.35,1.34-.54Z"/>
  <path class="cls-1" d="M16.74,10.32h.56c2.88,0,5.77,0,8.65-.01.25,0,.54-.13.73-.3.59-.54,1.14-1.13,1.71-1.69.53-.52,1.15-.56,1.58-.12.44.44.39,1.01-.15,1.53-.71.7-1.42,1.41-2.17,2.08-.19.17-.49.27-.75.29-.75.04-1.5.01-2.36.01,1.31,1.87,2.39,3.79,2.88,6.02.72,0,1.43,0,2.15,0,.43,0,.87-.01,1.3,0,.66.03,1.14.51,1.12,1.1-.02.58-.48,1.03-1.12,1.05-.88.02-1.77,0-2.65,0-.18,0-.36,0-.59,0-.06,1.74-.43,3.36-1.28,4.98,1.19-.29,1.71.55,2.34,1.19.51.51,1.01,1.02,1.5,1.54.5.53.53,1.12.09,1.55-.43.43-1.04.38-1.55-.12-.57-.56-1.11-1.15-1.71-1.69-.2-.18-.51-.23-.77-.34-.04-.02-.1,0-.15,0-.77-.12-1.31.17-1.88.71-1.92,1.81-4.15,3.05-6.79,3.47-.23.04-.46.04-.72.06V10.32Z"/>
  <path class="cls-1" d="M12.38,3.44c-.4-.44-.77-.85-1.15-1.25-.46-.48-.5-1.1-.09-1.51.42-.42,1.04-.41,1.51.05.54.52,1.05,1.07,1.6,1.58.14.13.39.2.59.2.76.02,1.52.02,2.29,0,.2,0,.45-.07.59-.2.54-.5,1.04-1.03,1.57-1.55.52-.51,1.11-.54,1.55-.11.43.43.38,1.04-.12,1.55-.38.39-.78.77-1.19,1.18,1.98,1.32,3.03,3.12,3.08,5.51h-13.2c.03-2.38,1.08-4.17,2.98-5.45Z"/>
</svg>