<?xml version="1.0" encoding="UTF-8"?>
<svg id="Layer_1" data-name="Layer 1" xmlns="http://www.w3.org/2000/svg" viewBox="0 0 32 32">
  <defs>
    <style>
      .cls-1 {
        fill: #c7434e;
      }

      .cls-1, .cls-2 {
        stroke-width: 0px;
      }

      .cls-2 {
        fill: #c7424e;
      }
    </style>
  </defs>
  <path class="cls-1" d="M24.71,7.25c-.15,0-.26,0-.37,0-1.08,0-2.16,0-3.24,0-.3,0-.6-.02-.84-.27-.35-.37-.35-1.66,0-2.03.23-.24.53-.27.84-.27,1.08,0,2.16,0,3.24,0,.11,0,.22,0,.37,0,0-.14,0-.26,0-.37,0-1.11,0-2.22,0-3.32,0-.67.33-.99.99-.99.19,0,.38,0,.57,0,.65,0,.97.32.97.98,0,1.11,0,2.22,0,3.32q0,.38.39.38c1.07,0,2.14,0,3.21,0,.25,0,.53.04.73.17.57.36.57,1.85,0,2.21-.2.13-.48.17-.73.17-1.04.02-2.08,0-3.13,0-.54,0-.47-.06-.48.46,0,1.06,0,2.12,0,3.18,0,.73-.3,1.04-1.03,1.04-.19,0-.38,0-.57,0-.59,0-.93-.34-.94-.93,0-1.13,0-2.25,0-3.38,0-.11,0-.22,0-.37Z"/>
  <path class="cls-2" d="M30.48,12.58c-.41-1.6-1.08-3.07-1.92-4.4,0,.94,0,1.88,0,2.82,0,1.52-.62,2.14-2.12,2.14-.39,0-.78,0-1.17,0-1.22,0-1.93-.7-1.94-1.93,0-.91,0-1.83,0-2.74-.69,0-1.38,0-2.07,0-.63,0-1.25-.04-1.73-.55-.73-.77-.73-3.43,0-4.19.48-.5,1.1-.55,1.73-.55.7,0,1.4,0,2.1,0-3.07-1.82-6.75-2.62-10.49-1.95-4.77.85-8.38,3.43-10.83,7.61C.9,10.77.27,12.87.07,15.1c-.07.78-.11,1.56-.01,2.34,0,.53.07,1.05.16,1.56.68,3.91,2.55,7.15,5.67,9.59,3.83,3,8.19,4.07,12.92,2.97,5.97-1.38,9.83-5.15,11.62-11.01.31-1.01.47-2.05.5-3.12,0-.06.02-.11.02-.17.09-1.59-.07-3.16-.47-4.7Z"/>
</svg>