<?xml version="1.0" encoding="UTF-8"?>
<svg id="Layer_1" data-name="Layer 1" xmlns="http://www.w3.org/2000/svg" viewBox="0 0 32 32">
<defs>
    <style>
      .cls-1 {
        fill: #fff;
      }
    </style>
  </defs>
  <path class="cls-1" d="M32.08,15.97c0,8.84-7.15,16.02-15.97,16.03C7.28,32,.07,24.8,.08,15.99,.09,7.17,7.28-.03,16.11,0c8.97,.03,15.96,7.28,15.97,15.97Zm-2.97,.03c0-7.19-5.8-13.02-12.97-13.03-7.21-.01-13.05,5.78-13.08,12.99-.04,7.15,5.81,13.05,12.96,13.06,7.27,.01,13.09-5.77,13.1-13.02Z"/>
  <path class="cls-1" d="M15.88,17.99c-.92,.98-1.8,1.96-2.71,2.9-.62,.63-1.18,.72-1.79,.36-.92-.54-1.05-1.59-.24-2.39,.95-.94,1.95-1.82,3.01-2.8-.76-.74-1.37-1.33-1.97-1.92-.36-.35-.71-.7-1.06-1.06-.66-.69-.68-1.52-.09-2.13,.57-.58,1.47-.55,2.12,.1,.95,.94,1.88,1.89,2.84,2.86,.99-.96,1.94-1.89,2.89-2.82,.49-.48,1.05-.71,1.71-.43,1.02,.43,1.22,1.55,.44,2.37-.8,.84-1.63,1.67-2.45,2.5-.13,.13-.25,.27-.4,.42,.98,1.03,1.95,2.02,2.88,3.04,.74,.8,.54,1.8-.41,2.32-.55,.3-1.1,.19-1.71-.38-.82-.77-1.63-1.56-2.45-2.34-.16-.15-.32-.3-.63-.58Z"/>
</svg>