<svg xmlns="http://www.w3.org/2000/svg" viewBox="0 0 394.55 55.51"><defs><style>.cls-1{fill:#4c4f54;}.cls-2{fill:#ff4f1f;}</style></defs><g id="Layer_2" data-name="Layer 2"><g id="Layer_1-2" data-name="Layer 1"><path class="cls-1" d="M389.13,41.93H388V41.5h2.7v.43h-1.11v2.93h-.48Zm3.5,2.93-.94-2.92v2.92h-.49V41.5H392l.87,2.8.87-2.8h.8v3.36h-.48V41.94l-.94,2.92Z"/><path class="cls-1" d="M121.26,40.48a10.17,10.17,0,0,1-4.72,3.62,19.07,19.07,0,0,1-7.05,1.2,13.69,13.69,0,0,1-7.22-1.91A12.64,12.64,0,0,1,97.39,38a18.69,18.69,0,0,1-1.77-8.15V26.9q0-7.51,3.5-11.65T109,11.11a12.64,12.64,0,0,1,8.38,2.66,11.66,11.66,0,0,1,3.89,7.56h-4.39Q115.64,14.7,109,14.7a7.77,7.77,0,0,0-6.69,3.1c-1.51,2.07-2.28,5.06-2.29,9V29.5q0,5.59,2.56,8.91a8.28,8.28,0,0,0,6.92,3.3,15.07,15.07,0,0,0,4.32-.55,6.71,6.71,0,0,0,3.06-1.84V31.86h-7.7V28.27h12.07Z"/><path class="cls-1" d="M136.89,45.3a10.8,10.8,0,0,1-8.18-3.3,12.3,12.3,0,0,1-3.16-8.84v-.77A14.75,14.75,0,0,1,127,25.82a11,11,0,0,1,3.93-4.53,9.87,9.87,0,0,1,5.47-1.63,9.25,9.25,0,0,1,7.5,3.18q2.67,3.16,2.67,9.09v1.76H129.78a8.81,8.81,0,0,0,2.14,5.91,6.72,6.72,0,0,0,5.2,2.25,7.34,7.34,0,0,0,3.79-.92,9.45,9.45,0,0,0,2.72-2.42l2.58,2Q143.1,45.31,136.89,45.3Zm-.53-22.17A5.64,5.64,0,0,0,132.07,25a9.06,9.06,0,0,0-2.15,5.23H142.3V29.9a8.09,8.09,0,0,0-1.73-5A5.32,5.32,0,0,0,136.36,23.13Z"/><path class="cls-1" d="M154.4,20.12l.14,3.1a9,9,0,0,1,7.4-3.56q7.84,0,7.91,8.84V44.84h-4.23V28.48a5.66,5.66,0,0,0-1.22-3.95,4.88,4.88,0,0,0-3.74-1.28,6.11,6.11,0,0,0-3.61,1.09,7.48,7.48,0,0,0-2.42,2.88V44.84H150.4V20.12Z"/><path class="cls-1" d="M185.17,45.3A10.83,10.83,0,0,1,177,42a12.29,12.29,0,0,1-3.15-8.84v-.77a14.75,14.75,0,0,1,1.41-6.57,10.87,10.87,0,0,1,3.93-4.53,9.84,9.84,0,0,1,5.47-1.63,9.28,9.28,0,0,1,7.5,3.18q2.67,3.16,2.67,9.09v1.76H178.06a8.76,8.76,0,0,0,2.14,5.91,6.7,6.7,0,0,0,5.19,2.25,7.38,7.38,0,0,0,3.8-.92,9.59,9.59,0,0,0,2.72-2.42l2.58,2Q191.39,45.31,185.17,45.3Zm-.53-22.17a5.65,5.65,0,0,0-4.3,1.86,9.12,9.12,0,0,0-2.14,5.23h12.38V29.9a8,8,0,0,0-1.74-5A5.29,5.29,0,0,0,184.64,23.13Z"/><path class="cls-1" d="M212.63,38.28a3.09,3.09,0,0,0-1.3-2.66,12.33,12.33,0,0,0-4.5-1.63,21.24,21.24,0,0,1-5.09-1.65A7.25,7.25,0,0,1,199,30.06a5.51,5.51,0,0,1-.9-3.16,6.4,6.4,0,0,1,2.57-5.14,10,10,0,0,1,6.57-2.1A10.33,10.33,0,0,1,214,21.83a6.91,6.91,0,0,1,2.61,5.55h-4.24a3.84,3.84,0,0,0-1.48-3,5.51,5.51,0,0,0-3.71-1.26,5.78,5.78,0,0,0-3.61,1,3.16,3.16,0,0,0-1.31,2.63,2.55,2.55,0,0,0,1.22,2.3,14.61,14.61,0,0,0,4.37,1.49A22.94,22.94,0,0,1,213,32.25a7.54,7.54,0,0,1,2.92,2.37,5.81,5.81,0,0,1,.94,3.37,6.32,6.32,0,0,1-2.65,5.31,11.13,11.13,0,0,1-6.88,2,12.43,12.43,0,0,1-5.25-1,8.49,8.49,0,0,1-3.58-2.94,7.1,7.1,0,0,1-1.29-4.08h4.23a4.35,4.35,0,0,0,1.7,3.37,6.61,6.61,0,0,0,4.19,1.25,6.86,6.86,0,0,0,3.85-1A3,3,0,0,0,212.63,38.28Z"/><path class="cls-1" d="M228.84,38.65l5.76-18.53h4.52l-9.94,28.54q-2.31,6.17-7.33,6.17l-.8-.07-1.58-.3V51l1.14.1a5.61,5.61,0,0,0,3.35-.87,6.31,6.31,0,0,0,2-3.18l.94-2.51-8.83-24.45h4.62Z"/><path class="cls-1" d="M255.45,38.28a3.11,3.11,0,0,0-1.29-2.66A12.48,12.48,0,0,0,249.65,34a21.24,21.24,0,0,1-5.09-1.65,7.25,7.25,0,0,1-2.79-2.28,5.51,5.51,0,0,1-.9-3.16,6.4,6.4,0,0,1,2.57-5.14,10,10,0,0,1,6.57-2.1,10.33,10.33,0,0,1,6.82,2.17,6.92,6.92,0,0,1,2.62,5.55H255.2a3.84,3.84,0,0,0-1.48-3A5.51,5.51,0,0,0,250,23.13a5.78,5.78,0,0,0-3.61,1,3.16,3.16,0,0,0-1.31,2.63,2.55,2.55,0,0,0,1.22,2.3,14.61,14.61,0,0,0,4.37,1.49,22.94,22.94,0,0,1,5.13,1.69,7.54,7.54,0,0,1,2.92,2.37,5.81,5.81,0,0,1,.94,3.37A6.32,6.32,0,0,1,257,43.3a11.13,11.13,0,0,1-6.88,2,12.43,12.43,0,0,1-5.25-1,8.55,8.55,0,0,1-3.58-2.94A7.1,7.1,0,0,1,240,37.23h4.23A4.38,4.38,0,0,0,246,40.6a6.61,6.61,0,0,0,4.19,1.25,6.92,6.92,0,0,0,3.86-1A3,3,0,0,0,255.45,38.28Z"/><path class="cls-1" d="M300.41,34.28a12.22,12.22,0,0,1-3.9,8.15,12.78,12.78,0,0,1-8.72,2.87,11.73,11.73,0,0,1-9.45-4.23q-3.55-4.23-3.55-11.31v-3.2a18.91,18.91,0,0,1,1.66-8.16,12.36,12.36,0,0,1,4.69-5.4,13.06,13.06,0,0,1,7-1.89,12,12,0,0,1,8.5,3,12.41,12.41,0,0,1,3.73,8.19H296c-.38-2.65-1.21-4.58-2.48-5.77a7.53,7.53,0,0,0-5.34-1.79,7.86,7.86,0,0,0-6.59,3.11q-2.38,3.11-2.39,8.85v3.23q0,5.41,2.26,8.62a7.32,7.32,0,0,0,6.33,3.2,8.4,8.4,0,0,0,5.61-1.66c1.31-1.1,2.17-3,2.6-5.77Z"/><path class="cls-1" d="M309,44.84h-4.23V9.74H309Z"/><path class="cls-1" d="M313.16,32.25a14.67,14.67,0,0,1,1.42-6.54,10.54,10.54,0,0,1,9.8-6.05,10.38,10.38,0,0,1,8.16,3.5q3.12,3.49,3.12,9.3v.29a14.75,14.75,0,0,1-1.38,6.48,10.54,10.54,0,0,1-3.95,4.47,10.9,10.9,0,0,1-5.91,1.6,10.38,10.38,0,0,1-8.14-3.5,13.37,13.37,0,0,1-3.12-9.25Zm4.25.5a10.59,10.59,0,0,0,1.9,6.61,6.13,6.13,0,0,0,5.11,2.49,6.05,6.05,0,0,0,5.12-2.53,11.58,11.58,0,0,0,1.9-7.07,10.59,10.59,0,0,0-1.93-6.59,6.13,6.13,0,0,0-5.13-2.53,6.07,6.07,0,0,0-5.05,2.49Q317.41,28.11,317.41,32.75Z"/><path class="cls-1" d="M354.89,42.4c-1.65,1.93-4.06,2.9-7.25,2.9a7.7,7.7,0,0,1-6-2.3c-1.38-1.53-2.07-3.8-2.09-6.8V20.12h4.23v16q0,5.63,4.57,5.62,4.85,0,6.44-3.61v-18H359V44.84h-4Z"/><path class="cls-1" d="M363.11,32.27a14.48,14.48,0,0,1,2.7-9.15,9.18,9.18,0,0,1,13.94-.49V9.74H384v35.1h-3.88l-.21-2.65a8.61,8.61,0,0,1-7.06,3.11,8.43,8.43,0,0,1-7-3.52,14.64,14.64,0,0,1-2.71-9.19Zm4.23.48a10.92,10.92,0,0,0,1.74,6.58,5.58,5.58,0,0,0,4.79,2.38,6.17,6.17,0,0,0,5.88-3.61V26.74a6.22,6.22,0,0,0-5.83-3.49,5.63,5.63,0,0,0-4.84,2.4C367.92,27.25,367.34,29.61,367.34,32.75Z"/><path class="cls-2" d="M73.7,55.51H56.17a9.59,9.59,0,0,1,0-19.18H73.7a9.59,9.59,0,1,1,0,19.18ZM56.17,38.63a7.29,7.29,0,0,0,0,14.58H73.7a7.29,7.29,0,0,0,0-14.58Z"/><path class="cls-2" d="M54.34,47.33H13.05a13,13,0,0,1-4.7-25.22A13.8,13.8,0,0,1,8,18.75,18.74,18.74,0,0,1,26.69,0h0L39.36,0A13.92,13.92,0,0,1,52.64,10h1.7a18.66,18.66,0,1,1,0,37.31ZM9.07,24.3a10.75,10.75,0,0,0,4,20.73H54.34a16.36,16.36,0,0,0,0-32.71H53.1a13.69,13.69,0,0,1,.09,1.58A6.18,6.18,0,0,1,47,20.07H39.31a5,5,0,0,1-3.55-1.48A4.93,4.93,0,0,1,34.3,15a5,5,0,0,1,5-5H50.22a11.61,11.61,0,0,0-10.87-7.7l-12.63,0h0A16.44,16.44,0,0,0,10.25,18.75a11.63,11.63,0,0,0,.31,2.72,13.65,13.65,0,0,1,2.49-.23H27.21a5.89,5.89,0,1,1,0,11.77h-5A14.29,14.29,0,0,1,9.07,24.3Zm2.24-.62a12,12,0,0,0,10.9,7h5a3.59,3.59,0,1,0,0-7.17H13.05A10,10,0,0,0,11.31,23.68Zm28-11.36a2.74,2.74,0,0,0-2.73,2.73,2.71,2.71,0,0,0,2.71,2.72H47a3.88,3.88,0,0,0,3.87-3.87,11.75,11.75,0,0,0-.11-1.58Z"/></g></g></svg>