<svg width="36" height="13" viewBox="0 0 36 13" fill="#fff" xmlns="http://www.w3.org/2000/svg">
<path d="M0 0.11442C0.319315 0.180944 0.633308 0.266095 0.94464 0.361889C1.42095 0.534851 1.90791 0.678543 2.39486 0.816913C2.43212 3.22774 2.39486 5.63857 2.41083 8.04674C2.3922 9.05258 3.17186 9.97859 4.11916 10.2394C5.12767 10.3804 6.14947 10.2899 7.16596 10.3245C7.1633 11.0909 7.1633 11.8599 7.16862 12.6289C6.06965 12.6236 4.96535 12.7114 3.87169 12.581C1.76155 12.2138 -0.0053218 10.2261 0.00532204 8.0627C-0.00266084 5.41239 0.00266096 2.76207 0 0.11442Z"/>
<path d="M16.2321 4.34002C16.3545 1.94516 18.5844 0.103777 20.9021 0C22.4109 0.0878116 23.9383 0.715798 24.8084 2.00104C25.5801 2.94302 25.6972 4.20165 25.7451 5.36981C25.7477 7.77266 25.7451 10.1728 25.7504 12.5757C24.9414 12.4347 24.1671 12.1553 23.3954 11.8838C23.3768 9.52623 23.4141 7.17128 23.3821 4.81633C23.3821 3.61092 22.3896 2.49332 21.1815 2.39486C19.8164 2.2219 18.5099 3.46191 18.5871 4.8323C18.5844 7.17128 18.5844 9.51293 18.5951 11.8546C17.8101 12.142 17.0118 12.3894 16.2188 12.6449C16.2215 9.87748 16.1842 7.10742 16.2321 4.34002Z"/>
<path d="M6.79605 0.548158C7.28034 0.383178 7.77262 0.242147 8.27022 0.122404C8.30215 1.01116 8.19039 1.91323 8.32876 2.79667C8.84498 3.77324 9.80027 4.39324 10.6598 5.03453C11.5858 4.43848 12.4187 3.69607 13.0573 2.79401C13.0573 2.13143 13.0679 1.46885 13.0812 0.808931C13.8848 0.633308 14.6246 0.25013 15.4388 0.122404C15.4362 1.09365 15.4309 2.06224 15.4122 3.03349C14.9359 4.92543 13.2781 6.09093 11.7907 7.17394C11.8226 8.9967 11.804 10.8195 11.7986 12.6449C11.0323 12.3841 10.2686 12.1233 9.5049 11.8626C9.49692 10.3086 9.54216 8.75455 9.4916 7.20055C8.67468 6.35703 7.52249 5.82218 6.82532 4.82698C5.84608 3.73332 5.8248 2.20327 5.90729 0.822236C6.20265 0.734425 6.50068 0.641291 6.79605 0.548158Z"/>
<path d="M28.7807 0.729101C29.9223 -0.0133067 31.3831 0.0239467 32.671 0.25545C34.4991 0.840861 36.0025 2.6104 35.9999 4.57419C35.9946 7.26974 36.0025 9.96795 35.9946 12.6635C35.191 12.3894 34.39 12.1127 33.5917 11.8253C33.597 9.50228 33.5997 7.1766 33.5917 4.85359C33.6689 3.81049 32.9478 2.61838 31.8355 2.53057C31.1117 2.48799 30.2256 2.37623 29.6934 2.98293C28.9909 3.56036 28.8392 4.52097 28.8339 5.38046C28.8286 7.54382 28.8392 9.70717 28.8233 11.8705C28.0622 12.134 27.2959 12.3894 26.5375 12.6555C26.5402 9.95997 26.5322 7.26441 26.5349 4.5662C26.4949 2.99092 27.4848 1.54868 28.7807 0.729101Z"/>
</svg>
