<?xml version="1.0" encoding="UTF-8"?>
<svg id="Layer_1" data-name="Layer 1" xmlns="http://www.w3.org/2000/svg" viewBox="0 0 32 32">
   <defs>
    <style>
      .cls-1 {
        fill: #ff0000;
      }
    </style>
  </defs>
  <path class="cls-1" d="M18.31-.03c.51,.13,1.04,.2,1.53,.38,2.22,.81,3.64,2.38,4.26,4.66,.06,.23,.16,.29,.38,.29,1.25,0,2.5-.01,3.75,0,1,0,1.65,.88,1.33,1.78-.19,.53-.67,.88-1.24,.89-.43,0-.87,0-1.34,0v.42c0,5.59,.02,11.19-.01,16.78-.02,2.92-1.41,5.03-4.07,6.26-.84,.39-1.75,.54-2.67,.53-2.6,0-5.21,0-7.81,0-3.83,0-6.77-2.93-6.78-6.76,0-5.37,0-10.75,0-16.12,0-.35,0-.71,0-1.11-.45,0-.88,0-1.31,0-.84-.01-1.42-.67-1.33-1.5,.07-.67,.64-1.16,1.39-1.17,1.24,0,2.48,0,3.72,0,.25,0,.35-.05,.42-.32C9.2,2.32,11.42,.37,14.14,.02c.06,0,.11-.04,.17-.06,1.33,0,2.67,0,4,0ZM8.31,7.97v.33c0,5.64,0,11.27,0,16.91,0,2.33,1.73,4.08,4.06,4.08,2.62,.01,5.25,0,7.87,0,2.34,0,4.07-1.75,4.07-4.11,0-5.62,0-11.25,0-16.87,0-.11,0-.22,0-.34H8.31Zm13.05-2.69s.01-.07,0-.09c0-.03-.02-.06-.03-.09-.67-1.47-1.8-2.33-3.41-2.44-1.03-.07-2.06-.05-3.09,0-1.61,.07-2.76,.87-3.48,2.3-.05,.1-.08,.2-.13,.33h10.14Z"/>
  <path class="cls-1" d="M12.31,18.63c0-1.33,0-2.66,0-3.99,0-.68,.47-1.21,1.14-1.32,.62-.1,1.24,.27,1.44,.88,.06,.18,.08,.39,.08,.58,0,2.57,0,5.14,0,7.71,0,.88-.56,1.48-1.35,1.47-.78,0-1.32-.61-1.32-1.47,0-1.29,0-2.58,0-3.87Z"/>
  <path class="cls-1" d="M20.31,18.62c0,1.34,0,2.68,0,4.03,0,.66-.48,1.2-1.12,1.3-.62,.1-1.25-.27-1.45-.87-.06-.17-.09-.37-.09-.55,0-2.6,0-5.2,0-7.8,0-.68,.38-1.21,.96-1.38,.56-.16,1.18,.04,1.47,.55,.14,.24,.22,.54,.23,.82,.02,1.3,.01,2.6,0,3.9Z"/>
</svg>