<?xml version="1.0" encoding="UTF-8"?>
<svg id="Layer_1" data-name="Layer 1" xmlns="http://www.w3.org/2000/svg" viewBox="0 0 32 32">
  <defs>
    <style>
      .cls-1 {
        fill: #b42f2f;
      }

      .cls-1, .cls-2 {
        stroke-width: 0px;
      }

      .cls-2 {
        fill: #fff;
      }
    </style>
  </defs>
  <path class="cls-1" d="M16,.12C7.16.12,0,7.23,0,16s7.16,15.88,16,15.88,16-7.11,16-15.88S24.84.12,16,.12ZM13.83,9.23c.16-.98,1.14-1.75,2.12-1.75l.02.02c1.27,0,2.39,1.18,2.18,2.43-.32,1.98-.73,3.94-1.11,5.89-.16.77-.34,1.55-.5,2.32-.07.32-.2.57-.57.57s-.5-.27-.57-.59c-.5-2.5-1.02-4.98-1.52-7.49-.09-.46-.11-.96-.05-1.41ZM15.99,24.52v-.02c-1.21,0-2.21-1-2.21-2.21s1-2.21,2.23-2.18c1.23,0,2.21,1,2.21,2.21s-1,2.21-2.23,2.21Z"/>
  <path class="cls-2" d="M15.97,7.52c1.27,0,2.39,1.18,2.18,2.43-.32,1.98-.73,3.94-1.11,5.89-.16.77-.34,1.55-.5,2.32-.07.32-.2.57-.57.57s-.5-.27-.57-.59c-.5-2.5-1.02-4.98-1.52-7.49-.09-.46-.11-.96-.05-1.41.16-.98,1.14-1.75,2.12-1.75l.02.02Z"/>
  <path class="cls-2" d="M15.99,24.52c-1.21,0-2.21-1-2.21-2.21s1-2.21,2.23-2.18c1.23,0,2.21,1,2.21,2.21s-1,2.21-2.23,2.21v-.02Z"/>
</svg>