<?xml version="1.0" encoding="UTF-8"?>
<svg id="Layer_1" data-name="Layer 1" xmlns="http://www.w3.org/2000/svg" viewBox="0 0 64 64">
  <path d="m32.04,63.99C14.58,63.94-.62,49.6.03,30.72.59,14.48,14.14-.61,33.39,0c16.06.51,31.37,14.19,30.57,33.48-.67,16.28-14.07,30.33-31.92,30.5Zm.1-58.35c-14.81-.14-25.85,11.88-26.47,24.84-.78,16.3,12.26,27.31,24.96,27.85,16.08.7,27.19-12.22,27.74-25.09.67-15.64-12.28-27.82-26.23-27.6Z"/>
  <path d="m34.66,29.32c2.48,0,4.75-.03,7.02.02.98.02,1.97.14,2.92.34,1.15.25,1.74,1.02,1.75,2.24.01,1.28-.54,2.23-1.8,2.35-2.52.23-5.06.26-7.59.36-.71.03-1.42,0-2.3,0,0,2.36.03,4.56-.02,6.77-.02,1.03-.15,2.07-.33,3.09-.22,1.26-1.05,1.84-2.33,1.83-1.28-.01-2.16-.61-2.28-1.87-.2-2.24-.26-4.5-.35-6.76-.04-.94,0-1.88,0-3.05-1.46,0-2.82.04-4.18,0-1.87-.07-3.73-.15-5.59-.34-1.26-.13-1.9-.95-1.91-2.25-.01-1.36.59-2.26,1.96-2.37,2.19-.18,4.39-.25,6.59-.34.98-.04,1.97,0,3.14,0,0-2.36-.03-4.56.02-6.77.02-1.03.15-2.07.33-3.09.22-1.26,1.05-1.84,2.33-1.83,1.28.01,2.16.61,2.28,1.87.2,2.24.26,4.5.35,6.76.04.94,0,1.88,0,3.05Z"/>
</svg>