<?xml version="1.0" encoding="UTF-8"?>
<svg id="Layer_1" data-name="Layer 1" xmlns="http://www.w3.org/2000/svg" viewBox="0 0 64 64">
  <defs>
    <style>
      .cls-1 {
        stroke-width: 0px;
      }
    </style>
  </defs>
  <path class="cls-1" d="m58.67,47.02c-1.73,5.29-4.56,9.94-8.35,13.99-2.8,2.99-6.25,3.73-9.94,1.97-4.44-2.11-8.73-2.14-13.15-.03-3.81,1.82-7.22,1.06-10.04-2.08-7.61-8.46-11.6-18.32-10.54-29.76.79-8.59,6.53-14.95,14.52-15.62,2.27-.19,4.83.26,6.89,1.2,3.5,1.6,6.61,1.39,10.04-.12,5.4-2.37,10.71-1.88,15.61,1.54,1.28.89,2.37,2.04,3.62,3.13-9.75,6.59-9.76,20.13,1.35,25.76Z"/>
  <path class="cls-1" d="m45.27-.05c1.04,7.1-5.65,14.84-12.51,14.46C31.03,8.87,37.9-.52,45.27-.05Z"/>
</svg>