<?xml version="1.0" encoding="UTF-8"?><svg id="Layer_1" xmlns="http://www.w3.org/2000/svg" viewBox="0 0 64 64"><defs><style>.cls-1{fill:#6795b0;}.cls-2{fill:#79b3d4;}</style></defs><path class="cls-2" d="M33.63,63h-3.27c-.07-.02-.13-.05-.2-.06-1.07-.12-2.15-.2-3.21-.37-2.98-.46-5.82-1.38-8.53-2.7-4.71-2.31-8.61-5.6-11.66-9.86-3.3-4.62-5.18-9.76-5.66-15.42-.03-.32-.07-.63-.11-.95,0-1.11,0-2.22,0-3.33,.02-.09,.05-.17,.06-.26,.16-2.52,.6-4.99,1.38-7.38,2.45-7.54,7.09-13.35,13.89-17.41,4.03-2.4,8.41-3.77,13.09-4.15,.32-.03,.63-.07,.95-.11,1.09,0,2.18,0,3.27,0,.09,.02,.17,.05,.26,.06,2.47,.15,4.89,.57,7.24,1.31,7.14,2.26,12.77,6.52,16.88,12.77,2.85,4.34,4.46,9.13,4.88,14.3,.03,.31,.07,.61,.11,.92v3.33c-.02,.07-.05,.15-.06,.22-.15,2.34-.55,4.64-1.22,6.89-1.5,5.02-4.11,9.38-7.8,13.09-2.62,2.63-5.62,4.71-8.99,6.26-3.28,1.51-6.73,2.41-10.33,2.72-.33,.03-.65,.08-.98,.11Zm17.69-31.66c0-.07,0-.14,0-.21-.03-1.06,.03-2.12-.1-3.17-.48-3.67-2.09-6.8-4.68-9.42-3.73-3.77-8.32-5.62-13.57-5.9-2.51-.14-4.97,.19-7.37,.96-3.99,1.28-7.32,3.52-9.82,6.93-1.83,2.5-2.9,5.29-3.1,8.4-.05,.82,0,1.65,0,2.48-.02,.07-.05,.14-.05,.2,.04,.86,.04,1.74,.15,2.59,.27,2.07,.97,4.01,2.01,5.83,1.12,1.95,2.58,3.6,4.33,5,1.64,1.31,3.44,2.32,5.41,3.04,1.94,.72,3.94,1.16,6.01,1.25,.25,.01,.33,.12,.37,.33,.34,1.74,.68,3.48,1.02,5.22,.07,.35,.12,.37,.42,.17,.4-.27,.8-.54,1.2-.82,1.76-1.25,3.44-2.6,5-4.09,.76-.73,1.52-1.48,2.24-2.25,.34-.36,.7-.64,1.12-.89,.91-.54,1.8-1.11,2.66-1.73,1.2-.88,2.24-1.93,3.17-3.09,1.35-1.68,2.34-3.54,2.97-5.6,.37-1.22,.58-2.47,.66-3.74,.03-.49-.02-.98-.03-1.48Z"/><path class="cls-1" d="M12.67,31.4c.52,5.13,3,9.13,7.08,12.17,3,2.23,6.4,3.45,10.11,3.82,.17,.02,.34,.04,.51,.05,.44,.03,.43,.02,.52,.47,.34,1.7,.69,3.4,1.03,5.1,.02,.09,.05,.17,.08,.31,.52-.35,1.02-.67,1.51-1.01,2.81-1.99,5.39-4.24,7.69-6.8,.11-.12,.26-.22,.41-.3,3.86-2.04,6.78-4.96,8.51-9,.66-1.55,1.04-3.18,1.19-4.86,.01,.49,.06,.99,.03,1.48-.08,1.27-.28,2.52-.66,3.74-.63,2.06-1.63,3.92-2.97,5.6-.93,1.16-1.97,2.22-3.17,3.09-.85,.62-1.75,1.19-2.66,1.73-.42,.25-.79,.53-1.12,.89-.72,.77-1.47,1.52-2.24,2.25-1.56,1.49-3.24,2.85-5,4.09-.4,.28-.8,.55-1.2,.82-.31,.2-.36,.18-.42-.17-.34-1.74-.68-3.48-1.02-5.22-.04-.22-.12-.32-.37-.33-2.07-.09-4.07-.54-6.01-1.25-1.97-.72-3.77-1.73-5.41-3.04-1.75-1.4-3.21-3.05-4.33-5-1.04-1.81-1.74-3.75-2.01-5.83-.11-.86-.11-1.73-.15-2.59,0-.07,.03-.14,.05-.2Z"/><path class="cls-1" d="M26.19,30.07c0,1.08-.86,1.93-1.95,1.93-1.08,0-1.93-.86-1.93-1.95,0-1.09,.85-1.93,1.95-1.93,1.09,0,1.93,.85,1.93,1.94Z"/><path class="cls-1" d="M32.01,28.13c1.09,0,1.93,.85,1.92,1.95,0,1.08-.86,1.93-1.95,1.93-1.08,0-1.93-.86-1.92-1.95,0-1.09,.85-1.92,1.95-1.92Z"/><path class="cls-1" d="M39.75,32c-1.09,0-1.94-.85-1.94-1.94,0-1.1,.84-1.94,1.94-1.94s1.94,.84,1.94,1.94c0,1.08-.85,1.94-1.94,1.94Z"/></svg>