<?xml version="1.0" encoding="UTF-8"?><svg id="Layer_1" xmlns="http://www.w3.org/2000/svg" viewBox="0 0 64 64"><defs><style>.cls-1{fill:#39a4dd;}.cls-2{fill:#84d2f6;}</style></defs><path class="cls-2" d="M32.01,10.06c12.25,0,22.21,9.96,22.21,22.21s-9.96,22.21-22.21,22.21-22.21-9.96-22.21-22.21S19.76,10.06,32.01,10.06m0-9.52C14.48,.54,.27,14.74,.27,32.27s14.21,31.73,31.73,31.73,31.73-14.21,31.73-31.73S49.53,.54,32.01,.54h0Z"/><path class="cls-1" d="M32.01,13.23c10.5,0,19.04,8.54,19.04,19.04s-8.54,19.04-19.04,19.04-19.04-8.54-19.04-19.04S21.51,13.23,32.01,13.23m0-6.35c-14.02,0-25.39,11.37-25.39,25.39s11.37,25.39,25.39,25.39,25.39-11.37,25.39-25.39S46.02,6.88,32.01,6.88h0Z"/></svg>