<?xml version="1.0" encoding="UTF-8"?><svg id="Layer_1" xmlns="http://www.w3.org/2000/svg" viewBox="0 0 64 64"><defs><style>.cls-1{fill:#2173b8;}.cls-2{fill:#75a6cf;}.cls-3{fill:#2072b9;}.cls-4{fill:#124980;}.cls-5{fill:#478bc3;}.cls-6{fill:#1d71b7;}.cls-7{fill:#2273b7;}.cls-8{fill:#2272b6;}.cls-9{fill:#0c4d87;}.cls-10{fill:#19588b;}.cls-11{fill:#1e70b7;}.cls-12{fill:#2172b7;}.cls-13{fill:#1e71b8;}.cls-14{fill:#144880;}.cls-15{fill:#104b83;}.cls-16{fill:#134981;}.cls-17{fill:#114a81;}</style></defs><path class="cls-12" d="M48.01,19.79c0,4.46,0,8.93,0,13.39-1.04,.32-2.08,.61-3.1,.97-.9,.32-1.56,.02-2.13-.66-.04-.48-.13-.96-.13-1.44,0-5.07,.01-10.15,.02-15.22,.44,.15,.88,.32,1.33,.46,.28,.09,.63,.06,.85,.21,1.07,.74,2.11,1.52,3.16,2.29Z"/><path class="cls-3" d="M16.13,32.84c-.01-1.86-.06-3.72-.02-5.58,.04-2.01-.57-3.7-2.15-4.98,.39-.3,.76-.62,1.16-.9,1.05-.76,2.11-1.51,3.17-2.26,2.03,1.78,2.96,4.12,3.06,6.74,.11,2.82,.01,5.64,0,8.47-.32-.05-.65-.06-.96-.15-1.43-.43-2.85-.88-4.27-1.33Z"/><path class="cls-12" d="M.34,29.72c-.03-2.19-.22-4.38,.47-6.52,1.37-4.27,5.37-7.2,9.83-7.23,1.69,0,3.31,.21,4.83,1.01-.15,.05-.32,.09-.46,.16-3.75,1.88-7.5,3.75-11.24,5.65-.24,.12-.48,.54-.47,.81,.06,1.36,.21,2.72,.3,4.09,.04,.59-.59,1.56-1.08,1.66-.72,.15-1.45,.25-2.17,.37Z"/><path class="cls-12" d="M24.04,34c0-1.43-.02-2.86-.02-4.3,.55-1.64,1.11-3.28,1.65-4.93,.59-1.81,1.12-3.64,1.73-5.44,.25-.73,.84-.86,1.45-.42,.13,.09,.28,.15,.42,.22,0,4.46,0,8.92,0,13.38-.29,.07-.58,.12-.87,.21-1.45,.43-2.91,.86-4.36,1.29Z"/><path class="cls-12" d="M63.57,35.5c-.7,3.64-2.81,6.17-6.13,7.73-.4-.32-.8-.65-1.2-.96-.93-.72-1.08-1.53-.47-2.54,.21-.35,.36-.73,.54-1.09,.27-.56,.54-1.11,.81-1.67,.37-.66,.74-1.32,1.12-1.98,.42-.66,.86-1.31,1.26-1.97,.5-.83,.97-1.67,1.57-2.71,.3,.58,.48,.93,.65,1.28,.62,1.3,1.23,2.61,1.85,3.92Z"/><path class="cls-12" d="M5.67,33.05c0,2.83-.03,5.66-.01,8.49,0,.58-.15,.87-.73,1.05-1.51,.45-3.01,.98-4.59,1.51,0-2,0-3.91,0-5.82,.99-2.13,1.97-4.26,2.96-6.39,.22-.47,.47-.93,.79-1.58,.58,.99,1.04,1.76,1.49,2.52,.03,.07,.06,.15,.1,.22Z"/><path class="cls-12" d="M58.47,21.29c0-1.04-.03-2.09-.01-3.13,0-.2,.14-.51,.29-.56,1.62-.58,3.25-1.11,4.94-1.68v13.62c-1.79-.33-2.21-.79-2.11-2.43,.07-1.17,.22-2.34,.27-3.51,0-.27-.21-.67-.45-.81-.95-.54-1.95-1.01-2.93-1.5Z"/><path class="cls-12" d="M53.82,44.04c-2.8,.18-5.29-.57-7.4-2.46-.08-.09-.16-.18-.23-.28,0,0-.03,.02-.03,.02,.01-.16,.09-.34,.03-.46-.54-1.19-1.1-2.37-1.66-3.56-.15-.33-.3-.67-.55-1.23,1.69,.88,3.13,1.63,4.58,2.38,.32,.17,.65,.34,.97,.5,1.13,.66,2.33,1.22,3.36,2.01,.5,.38,.77,1.14,1,1.78,.13,.38-.03,.86-.06,1.3Z"/><path class="cls-12" d="M15.95,17.19c.56,.42,1.11,.83,1.67,1.25-1.46,1.12-2.92,2.24-4.38,3.36-1.92-.78-3.78-.79-5.49,.51-1.41,1.07-2.15,2.5-2.12,4.3,0,.41,.01,.82,.02,1.23-.24,.12-.49,.23-.72,.37-.39,.23-.63,.14-.67-.33-.11-1.28-.24-2.56-.31-3.84-.01-.25,.19-.64,.41-.76,3.63-1.87,7.28-3.7,10.91-5.55,.25-.13,.45-.36,.67-.54Z"/><path class="cls-4" d="M15.95,17.19c-.22,.18-.42,.41-.67,.54-3.64,1.85-7.29,3.68-10.91,5.55-.22,.11-.42,.5-.41,.76,.06,1.28,.19,2.56,.31,3.84,.04,.47,.27,.55,.67,.33,.23-.13,.48-.24,.72-.37,0,.29-.02,.58-.02,.87-.18,.12-.36,.24-.64,.44,.33,.14,.49,.21,.66,.27,.01,.24,.03,.49,.04,.73-.22,.02-.45,.03-.72,.05,.24,.42,.46,.81,.68,1.2,.02,.47,.03,.93,.05,1.4-.05,0-.09,0-.13,.03-.45-.77-.91-1.53-1.49-2.52-.33,.65-.57,1.11-.79,1.58-.99,2.13-1.97,4.26-2.96,6.39,0-.55,0-1.1,0-1.65,.92-2.02,1.84-4.03,2.75-6.05,.07-.16,.06-.35,.09-.53-.17-.01-.35-.07-.52-.03-.77,.16-1.54,.34-2.31,.51,0-.27,0-.54,0-.8,.73-.12,1.45-.22,2.17-.37,.49-.1,1.12-1.07,1.08-1.66-.09-1.36-.24-2.72-.3-4.09-.01-.27,.23-.68,.47-.81,3.73-1.91,7.49-3.78,11.24-5.65,.14-.07,.31-.11,.46-.16,.16,.07,.32,.15,.48,.22Z"/><path class="cls-1" d="M36.21,38.79h3.54v5.25c-1.76,0-3.47,0-5.19,0,0-.68,.06-1.36,0-2.04-.13-1.44,.62-2.39,1.65-3.21Z"/><path class="cls-4" d="M58.47,21.29c.98,.49,1.98,.95,2.93,1.5,.23,.13,.46,.54,.45,.81-.04,1.17-.2,2.34-.27,3.51-.09,1.65,.32,2.1,2.11,2.43,0,.22,0,.44,0,.66-.57-.06-1.14-.11-1.92-.19,.7,1.51,1.3,2.83,1.91,4.15-.04,.45-.08,.89-.12,1.34-.62-1.31-1.23-2.61-1.85-3.92-.17-.36-.36-.7-.65-1.28-.6,1.04-1.07,1.88-1.57,2.71-.4,.67-.84,1.32-1.26,1.97,.08-.55,.15-1.1,.23-1.65,.59-1.05,1.18-2.1,1.85-3.28-.72,.19-1.28,.33-1.84,.47,0-.27,0-.54,.01-.8,.32-.07,.64-.11,.95-.2,.54-.17,.68-.46,.18-.84-.37-.28-.76-.53-1.14-.79,0-.28,0-.55,0-.83,.52,.34,1.04,.69,1.57,1.01,.19,.12,.42,.17,.64,.25,.08-.22,.21-.43,.23-.66,.1-1.38,.18-2.77,.28-4.24-.9-.39-1.79-.78-2.69-1.17,0-.32,0-.64,0-.96Z"/><path class="cls-12" d="M24.22,35.81c-.05-.33-.1-.67-.15-1,1.73-.55,3.46-1.1,5.2-1.65,0,1.43,.42,2.7,1.3,3.82-.04,.18-.1,.36-.1,.55-.04,1.19-.15,1.21-1.22,.67-1.65-.84-3.34-1.6-5.02-2.39Z"/><path class="cls-12" d="M24.04,27.23V15.93c.92,.32,1.78,.63,2.63,.93-.05,.37-.26,.83-.12,1.1,.31,.61,.09,1.1-.07,1.64-.11,.36-.21,.73-.33,1.1-.7,2.17-1.41,4.35-2.11,6.52Z"/><path class="cls-13" d="M18.1,43.03c-.65-.25-1.56-.32-1.88-.79-.33-.49-.11-1.36-.11-2.07,0-.52,0-1.03,.01-1.55,1.65-.83,3.29-1.65,5.03-2.52-.62,1.39-1.18,2.63-1.73,3.88-.45,1.01-.88,2.03-1.32,3.05Z"/><path class="cls-12" d="M48,33.98c.47,2.71,2.06,4.42,4.67,4.71,.95,.1,1.96-.3,2.94-.47,.01,.08,.02,.15,.03,.23-.2,.36-.4,.71-.61,1.07-.56,.94-1.11,1.09-2.04,.59-.86-.46-1.74-.89-2.61-1.34-.5-.27-.99-.54-1.49-.82-1.56-.91-3.12-1.81-4.83-2.8,1.42-.42,2.68-.8,3.94-1.17Z"/><path class="cls-1" d="M30.43,43.27c-2.96-1.25-4.92-3.42-5.95-6.45,.28,.1,.57,.18,.83,.3,1.25,.61,2.5,1.25,3.75,1.86,.87,.42,1.2,1.24,1.36,2.07,.14,.71,.02,1.48,0,2.22Z"/><path class="cls-9" d="M48,33.98c-1.26,.37-2.53,.75-3.94,1.17,1.71,.99,3.27,1.9,4.83,2.8-.11,.17-.22,.33-.33,.5-1.45-.75-2.89-1.5-4.58-2.38,.25,.56,.39,.9,.55,1.23,.55,1.19,1.12,2.37,1.66,3.56,.06,.12-.02,.31-.03,.46-1.87-1.57-2.87-3.64-3.34-5.99-.12-.6-.03-1.24-.04-1.85,.57,.68,1.23,.98,2.13,.66,1.02-.36,2.07-.65,3.1-.97,0,.27,0,.54-.01,.8Z"/><path class="cls-17" d="M18.1,43.03c.44-1.02,.88-2.03,1.32-3.05,.55-1.25,1.11-2.49,1.73-3.88-1.74,.87-3.39,1.7-5.03,2.52,0-.22,.01-.45,.02-.67,1.58-.88,3.15-1.76,4.73-2.64,0-.08,0-.16-.01-.24-1.57-.47-3.14-.94-4.72-1.41,0-.27,0-.54,0-.81,1.42,.45,2.85,.9,4.27,1.33,.31,.09,.64,.1,.96,.15,0,1.05,0,2.09,0,3.14-.27,.57-.55,1.13-.81,1.7-.61,1.34-1.21,2.69-1.81,4.04-.21-.06-.43-.12-.64-.17Z"/><path class="cls-13" d="M58.48,22.25c.9,.39,1.79,.78,2.69,1.17-.09,1.47-.17,2.85-.28,4.24-.02,.22-.15,.44-.23,.66-.21-.08-.45-.13-.64-.25-.53-.32-1.05-.67-1.57-1.01,0-1.6,.01-3.2,.02-4.8Z"/><path class="cls-8" d="M33.91,44.03c-.88-.16-1.76-.32-2.65-.48,0-.71,0-1.42,0-2.12,0-.49,.05-.89,.42-1.33,.23-.27,.07-.93,0-1.4-.06-.36-.27-.71-.41-1.06,.72,.34,1.44,.68,2.17,1.02-.02,.44-.22,1.07,0,1.28,.56,.55,.49,1.16,.49,1.81,0,.76,0,1.52,0,2.28Z"/><path class="cls-17" d="M31.26,37.64c.14,.35,.35,.69,.41,1.06,.08,.47,.24,1.13,0,1.4-.37,.44-.42,.84-.42,1.33,0,.71,0,1.42,0,2.12-.28-.09-.56-.19-.83-.28,0-.74,.13-1.5,0-2.22-.16-.83-.49-1.65-1.36-2.07-1.26-.61-2.5-1.25-3.75-1.86-.26-.13-.56-.2-.83-.3-.09-.33-.18-.67-.26-1,1.68,.79,3.37,1.55,5.02,2.39,1.08,.54,1.18,.52,1.22-.67,0-.18,.07-.37,.1-.55,.23,.22,.46,.44,.7,.66Z"/><path class="cls-16" d="M24.04,27.23c.7-2.17,1.41-4.35,2.11-6.52,.12-.36,.21-.73,.33-1.1,.17-.54,.38-1.03,.07-1.64-.14-.28,.07-.73,.12-1.1,.54,.16,1.09,.29,1.62,.48,.83,.3,1.09,.95,.96,1.78-.14-.07-.3-.13-.42-.22-.61-.44-1.21-.31-1.45,.42-.61,1.8-1.14,3.63-1.73,5.44-.53,1.65-1.1,3.29-1.65,4.93,0-.82,.02-1.65,.03-2.47Z"/><path class="cls-4" d="M50.38,38.77c.87,.44,1.75,.88,2.61,1.34,.93,.5,1.48,.36,2.04-.59,.21-.35,.41-.71,.61-1.07,.22,.06,.45,.12,.67,.17-.18,.37-.33,.75-.54,1.09-.61,1.02-.46,1.82,.47,2.54,.41,.31,.8,.64,1.2,.96-.27,.1-.54,.2-.81,.31-.09-.1-.16-.23-.28-.3-.48-.28-.96-.54-1.45-.81-.15,.52-.29,1.05-.44,1.57-.22,.01-.43,.03-.65,.04,.03-.44,.19-.92,.06-1.3-.22-.64-.5-1.4-1-1.78-1.03-.78-2.23-1.35-3.36-2.01,.28-.06,.57-.13,.85-.19Z"/><path class="cls-6" d="M16.13,33.66c1.57,.47,3.14,.94,4.72,1.41,0,.08,0,.16,.01,.24-1.58,.88-3.15,1.76-4.73,2.64,0-1.43,0-2.86,0-4.29Z"/><path class="cls-11" d="M.33,30.52c.77-.17,1.54-.35,2.31-.51,.16-.03,.35,.02,.52,.03-.03,.18-.01,.37-.09,.53-.91,2.02-1.83,4.04-2.75,6.05,0-2.04,0-4.07,0-6.11Z"/><path class="cls-7" d="M18.74,43.2c.6-1.35,1.2-2.69,1.81-4.04,.26-.57,.54-1.13,.81-1.7,0,2.18,0,4.37,0,6.66-.94-.33-1.78-.63-2.63-.92Z"/><path class="cls-14" d="M33.91,44.03c0-.76,0-1.52,0-2.28,0-.64,.06-1.25-.49-1.81-.21-.21,0-.84,0-1.28,.11,0,.21,0,.32,0,.07,.03,.14,.05,.21,.08,.75,.01,1.51,.03,2.26,.04-1.02,.83-1.78,1.77-1.65,3.21,.06,.67,0,1.36,0,2.04-.22,0-.43,0-.65,0Z"/><path class="cls-15" d="M48.01,19.79c-1.05-.77-2.09-1.55-3.16-2.29-.23-.16-.57-.13-.85-.21-.45-.14-.88-.31-1.33-.46-.01-.26-.03-.53-.05-.96,1,.35,1.9,.67,2.79,.98,.07,.03,.14,.07,.21,.1,.8,.63,1.59,1.25,2.39,1.88,0,.32,0,.64,0,.96Z"/><path class="cls-17" d="M13.24,21.8c1.46-1.12,2.92-2.24,4.38-3.36,.22,.23,.45,.45,.67,.68-1.06,.75-2.12,1.5-3.17,2.26-.4,.29-.77,.6-1.16,.9-.24-.16-.48-.32-.72-.48Z"/><path class="cls-16" d="M29.26,33.16c-1.73,.55-3.46,1.1-5.2,1.65,0-.27-.02-.54-.02-.81,1.45-.43,2.9-.86,4.36-1.29,.29-.08,.58-.14,.87-.21,0,.22,0,.44,0,.66Z"/><path class="cls-11" d="M63.7,34.16c-.61-1.32-1.22-2.64-1.91-4.15,.78,.08,1.35,.13,1.92,.19,0,1.32,0,2.64,0,3.96Z"/><path class="cls-8" d="M58.47,30.52c.56-.14,1.12-.29,1.84-.47-.67,1.18-1.26,2.23-1.85,3.28,0-.94,0-1.87,0-2.81Z"/><path class="cls-7" d="M54.47,44c.15-.52,.29-1.05,.44-1.57,.48,.27,.97,.53,1.45,.81,.11,.07,.18,.2,.28,.3-.72,.16-1.44,.31-2.16,.47Z"/><path class="cls-5" d="M48.02,18.83c-.8-.63-1.59-1.25-2.39-1.88,.68,.2,1.37,.38,2.03,.61,.69,.24,.3,.83,.35,1.27Z"/><path class="cls-8" d="M58.47,27.88c.38,.26,.77,.51,1.14,.79,.5,.38,.36,.68-.18,.84-.31,.09-.63,.14-.95,.2,0-.61,0-1.22,0-1.84Z"/><path class="cls-10" d="M56.32,38.62c-.22-.06-.45-.12-.67-.17-.01-.08-.02-.15-.03-.23,.5-.42,1.01-.84,1.51-1.26-.27,.56-.54,1.11-.81,1.67Z"/><path class="cls-2" d="M5.65,31.4c-.22-.39-.44-.78-.68-1.2,.27-.02,.5-.03,.72-.05-.01,.42-.03,.83-.04,1.25Z"/><path class="cls-2" d="M5.65,29.43c-.17-.07-.33-.14-.66-.27,.29-.2,.46-.32,.64-.44,0,.24,.01,.48,.02,.71Z"/><path class="cls-9" d="M46.19,41.3c.08,.09,.16,.18,.23,.28-.08-.09-.16-.18-.23-.28Z"/><path class="cls-2" d="M5.57,32.83s.08-.03,.13-.03c-.01,.08-.02,.17-.03,.25-.03-.07-.06-.15-.1-.22Z"/><path class="cls-5" d="M45.63,16.95c-.07-.03-.14-.07-.21-.1,.07,.03,.14,.07,.21,.1Z"/><path class="cls-8" d="M33.95,38.74c-.07-.03-.14-.05-.21-.08,.07,.03,.14,.05,.21,.08Z"/><path class="cls-10" d="M50.38,38.77c-.28,.06-.57,.13-.85,.19-.32-.17-.65-.34-.97-.5,.11-.17,.22-.33,.33-.5,.5,.27,.99,.54,1.49,.82Z"/></svg>