<?xml version="1.0" encoding="UTF-8"?><svg id="Layer_1" xmlns="http://www.w3.org/2000/svg" viewBox="0 0 64 64"><defs><style>.cls-1{fill:#231f20;}</style></defs><path class="cls-1" d="M63.75,42.92v1.97c-.04,.13-.1,.26-.12,.4-.84,4.67-5.58,7.58-10.09,6.13-3.09-.99-4.9-3.16-5.48-6.36-.05-.28-.14-.66-.34-.77-.77-.46-1.59-.83-2.32-1.19-6.62,6.68-14.01,7.87-22.35,3.56-.13,.12-.31,.28-.48,.45-2.03,1.95-4.05,3.91-6.1,5.84-.33,.31-.4,.58-.29,1.01,.94,3.88-1.22,7.86-4.98,9.2-.55,.2-1.13,.33-1.7,.49h-1.97c-.13-.04-.26-.1-.4-.12-3.14-.68-5.22-2.53-6.2-5.6-.12-.39-.21-.78-.31-1.18,0-.66,0-1.32,0-1.97,.03-.07,.08-.14,.1-.22,.89-4.51,4.49-7.13,9.05-6.59,.25,.03,.61-.1,.8-.28,2.2-2.07,4.36-4.18,6.56-6.25,.35-.33,.43-.56,.17-1.02-3.86-6.83-2.49-15.48,3.26-20.82,.16-.15,.33-.3,.51-.47-.44-.79-.87-1.53-1.27-2.29-.18-.35-.39-.53-.83-.58-3.52-.46-6.27-3-6.87-6.3-.63-3.49,.91-6.84,4.01-8.46,.89-.47,1.93-.66,2.89-.98,.58,0,1.15,0,1.73,0,.13,.04,.27,.1,.4,.12,4.75,.76,7.72,5.69,6.19,10.25-.22,.66-.71,1.33-.64,1.95,.07,.68,.65,1.3,1.01,1.95,.05,.09,.11,.17,.15,.27,.13,.36,.36,.42,.72,.34,4.21-.91,8.25-.39,11.96,1.78,6.09,3.57,8.99,8.96,8.72,16.03-.04,.94-.21,1.87-.33,2.83,.68,.34,1.39,.67,2.07,1.05,.39,.22,.67,.19,1.06-.03,4.31-2.4,9.69-.35,11.29,4.3,.18,.52,.29,1.06,.44,1.59Zm-22.35-10.78c.03-5.07-4.12-9.27-9.16-9.28-5.09,0-9.23,4.09-9.26,9.18-.04,5.06,4.07,9.19,9.19,9.25,4.99,.06,9.21-4.12,9.23-9.15Z"/></svg>