<?xml version="1.0" encoding="UTF-8"?>
<svg id="Layer_1" data-name="Layer 1" xmlns="http://www.w3.org/2000/svg" viewBox="0 0 64 64">
  <defs>
    <style>
      .cls-1 {
        fill: #fff;
      }

      .cls-2 {
        fill: #c2dde4;
      }

      .cls-3 {
        fill: #d9e7f6;
      }

      .cls-4 {
        fill: #b4ceec;
      }

      .cls-5 {
        fill: #90b6e1;
      }

      .cls-6 {
        fill: #5d9d77;
      }

      .cls-7 {
        fill: #e0edf1;
      }

      .cls-8 {
        fill: #a3ccd7;
      }

      .cls-9 {
        fill: #ed1c24;
      }

      .cls-10 {
        fill: #d1e9d3;
      }

      .cls-11 {
        fill: #bbdfbd;
      }

      .cls-12 {
        fill: #4f7bb6;
      }

      .cls-13 {
        fill: #7596c4;
      }

      .cls-14 {
        fill: #e9f4e9;
      }
    </style>
  </defs>
  <g>
    <path class="cls-11" d="M48.73,49.25c-.11,.17-.2,.35-.31,.52-2.06,2.77-5.72,4.2-10.05,4.2-4.03,0-8.62-1.23-12.97-3.72-2.09-1.2-3.96-2.62-5.59-4.17,.11-.6,.25-1.22,.42-1.84-.77-.44-1.5-.89-2.19-1.38-.1,.35-.19,.69-.28,1.03-.74-.89-1.39-1.82-1.96-2.77-2-1.74-3.57-3.68-4.62-5.76,.21,1.8,.77,3.68,1.71,5.57,.37,.75,.8,1.49,1.27,2.21,.21,.32,.43,.65,.67,.97,.7,.97,1.49,1.92,2.35,2.82-.26,1.98-.27,3.81-.02,5.42-.47-.53-.92-1.08-1.34-1.65-.39-.53-.74-1.08-1.07-1.64-.2-.33-.39-.67-.56-1.02-.12-.24-.24-.47-.34-.72-.18-.38-.34-.75-.48-1.14-.09-.22-.18-.44-.25-.67-.13-.38-.25-.75-.35-1.14-.11-.35-.19-.71-.27-1.07l-2.33,.88,.05,.21c.14,.57,.31,1.12,.49,1.67,.02,.06,.04,.13,.06,.19,.18,.56,.4,1.11,.65,1.65,.03,.07,.06,.13,.09,.19,.24,.55,.51,1.09,.8,1.63,.33,.61,.69,1.21,1.09,1.79,2.18,3.23,5.25,5.93,9.07,7.68,3.01,1.38,6.18,2.04,9.29,2.04,8.28,0,16.21-4.63,20.03-12.48-1,.18-2.02,.35-3.06,.48Zm-16.96,9.55c-2.77,0-5.59-.59-8.27-1.81-.57-.26-1.12-.56-1.65-.87-1.72-1.04-2.57-3.6-2.41-7.07,1.44,1.22,3.02,2.34,4.73,3.32,4.58,2.63,9.55,4.04,14.16,4.04,.49,0,.98-.02,1.46-.05,.67-.04,1.3-.13,1.93-.24-3.01,1.73-6.44,2.68-9.95,2.68Z"/>
    <path class="cls-8" d="M51.96,48.44c-.05,.11-.11,.21-.17,.32-1.11,.51-2.31,.92-3.58,1.24,.06-.09,.14-.16,.2-.24,.48-.75,.92-1.53,1.3-2.36,1.71-3.65,2.17-7.56,1.58-11.27-.39,1.05-.91,2.13-1.58,3.22-.68,1.1-1.49,2.19-2.41,3.24-.6,.68-1.24,1.37-1.93,2-.33,.33-.67,.64-1.02,.95-.33,.29-.67,.59-1.02,.86-.24,.2-.47,.39-.72,.58-.46,.36-.94,.72-1.43,1.06-.15,.1-.3,.2-.45,.31-.36,.25-.74,.49-1.11,.74l-1.69-1.84c.34-.21,.67-.42,1-.63,.25-.18,.51-.35,.76-.53,.35-.25,.69-.5,1.03-.75,.39-.28,.76-.58,1.13-.88,.2-.16,.39-.32,.59-.49,.49-.43,.97-.86,1.42-1.3,.66-.64,1.27-1.3,1.83-1.96,.72-.86,1.36-1.73,1.91-2.62,2.07-3.36,2.54-6.41,1.34-8.61-.04-.07-.09-.15-.13-.23-1.3-2.11-4.1-3.15-7.65-3.15-2.14,0-4.53,.38-7.04,1.12l1.12-2.86c2.06-.49,4.03-.74,5.86-.74,1.08,0,2.09,.09,3.05,.26-.81-.65-1.67-1.23-2.59-1.75-.58-.32-1.24-.47-2-.47-1.65,0-3.68,.76-5.83,2.23-1.73,1.18-3.46,2.75-5.08,4.59-1.62,1.86-3.15,3.99-4.51,6.33-1.9,3.26-3.27,6.62-4.04,9.78-.75-.46-1.48-.94-2.18-1.43,.84-3.06,2.2-6.33,4.09-9.58,2.9-4.98,6.56-9.14,10.33-11.72,1.22-.83,2.4-1.46,3.54-1.9-1.36-.3-2.73-.45-4.11-.45-.28,0-.55,.03-.83,.04l.46-2.48c.12,0,.25-.02,.37-.02h0c3.18,0,6.34,.69,9.31,2.06,11.12,5.12,15.99,18.27,10.84,29.33Zm-35.69-6.55c-.44-.67-.83-1.35-1.18-2.04-1.92-3.88-2.05-7.6-.39-10.48,1.67-2.87,4.98-4.62,9.32-4.91,.7-.05,1.42-.04,2.15-.01l2.26-2.26c-1.05-.14-2.09-.22-3.12-.22h0c-.49,0-.98,.02-1.46,.05-5.19,.35-9.19,2.52-11.29,6.13-1.56,2.68-1.89,5.88-1.02,9.25,1.36,1.58,2.94,3.09,4.72,4.5Z"/>
    <path class="cls-1" d="M12.77,44.39c.1,.39,.22,.76,.35,1.14-.67,.25-1.49,.45-2.41,.55-.18-.55-.35-1.1-.49-1.67l-.05-.21,2.33-.88c.08,.36,.17,.72,.27,1.07Zm2.05-.28c-.24-.32-.46-.65-.67-.97,.33,.19,.56,.43,.64,.68,.03,.1,.04,.19,.03,.29Z"/>
    <path class="cls-14" d="M13.85,47.33c-.67,.27-1.5,.47-2.42,.6-.25-.54-.46-1.09-.65-1.65-.21-.61-.39-1.23-.55-1.86,.9-.11,1.78-.11,2.55-.02,.16,.61,.36,1.22,.6,1.8,.14,.39,.31,.76,.48,1.14Z"/>
    <path class="cls-10" d="M14.75,49.06c-.65,.3-1.49,.54-2.44,.68-.29-.53-.56-1.08-.8-1.63-.28-.6-.53-1.23-.74-1.85,.91-.12,1.8-.14,2.59-.08,.24,.63,.52,1.25,.82,1.86,.18,.34,.36,.68,.56,1.02Z"/>
    <path class="cls-11" d="M15.82,50.7c-.6,.34-1.44,.64-2.42,.83-.74-1.09-1.37-2.22-1.89-3.41,.95-.14,1.87-.16,2.68-.07,.47,.93,1.02,1.81,1.63,2.65Z"/>
    <path class="cls-6" d="M39.7,49.57c-.06,0-.13,0-.19,0l.07,.08,.11-.07Zm-21.72-4.73l.21-.84c.07-.29,.16-.58,.24-.88-.26-.17-.51-.35-.76-.53-.03,.12-.07,.23-.1,.35-.23-.31-.46-.61-.67-.92-.76-.59-1.46-1.2-2.11-1.84,.68,1.35,1.57,2.69,2.65,4l.55,.67Z"/>
    <path class="cls-6" d="M48.79,50.01c.18-.27,.34-.55,.5-.83-.36,.05-.73,.09-1.1,.13-.04,.06-.08,.13-.12,.2-1.92,2.6-5.36,4.03-9.7,4.03h0c-4.1,0-8.63-1.3-12.75-3.67-1.94-1.11-3.73-2.44-5.34-3.94,.09-.48,.21-.97,.33-1.46-.27-.15-.52-.3-.78-.45-.18,.67-.33,1.34-.46,1.99l-.04,.23,.17,.16c1.7,1.62,3.61,3.04,5.68,4.23,4.25,2.44,8.93,3.78,13.19,3.78h0c4.62,0,8.32-1.56,10.42-4.41Z"/>
    <path class="cls-6" d="M21.63,56.5c.6,.35,1.16,.64,1.69,.88,2.68,1.23,5.52,1.86,8.45,1.86,3.55,0,7.07-.95,10.17-2.74l2.11-1.21-2.4,.4c-.71,.12-1.31,.19-1.89,.23-4.9,.33-10.42-1.09-15.37-3.93-1.62-.93-3.19-2.03-4.66-3.27l-.68-.57-.04,.88c-.18,3.68,.75,6.34,2.63,7.47Zm2.32-3.75c4.94,2.83,10.43,4.3,15.38,4.07-2.4,1.01-4.97,1.54-7.56,1.54-2.8,0-5.52-.6-8.08-1.77-.5-.23-1.03-.51-1.61-.84-1.42-.86-2.21-2.94-2.22-5.79,1.3,1.04,2.68,1.98,4.09,2.79Z"/>
    <path class="cls-5" d="M28.44,22.18l-2.27,2.27h-.04c-.58-.02-1.13-.04-1.69,0-.14,0-.28,0-.42,.02-.19,.02-.39,.03-.59,.04-.17,.03-.33,.04-.5,.06-.35,.04-.7,.11-1.03,.18-.48,.1-.95,.21-1.39,.35-.43,.12-.84,.27-1.23,.44-.46,.19-.9,.41-1.32,.66-.59-.61-1.14-1.23-1.65-1.86,.76-.48,1.59-.9,2.49-1.24,.67-.25,1.36-.46,2.08-.62,.71-.18,1.45-.3,2.22-.37,.17-.03,.34-.04,.52-.05,.08-.02,.16-.02,.25-.03,.47-.04,.95-.04,1.44-.04h.19c.57,0,1.15,.04,1.72,.09,.4,.03,.81,.07,1.22,.12Zm25.5,15.26c-.79,.22-1.6,.39-2.44,.53-.04-.62-.1-1.23-.19-1.84-.24,.66-.54,1.32-.89,2-.96,.12-1.96,.19-2.98,.22,.06-.1,.12-.18,.18-.28,2.07-3.36,2.54-6.41,1.34-8.61-.04-.07-.09-.15-.13-.23-.92-1.5-2.59-2.45-4.76-2.89-.6-.12-1.25-.2-1.93-.23-.31-.03-.63-.04-.95-.04s-.67,0-1.01,.03c-.28,.02-.57,.04-.86,.07-.37,.04-.74,.08-1.11,.13-.25,.04-.52,.07-.78,.11-.62,.11-1.27,.25-1.92,.41-.45,.11-.91,.23-1.37,.37l1.12-2.86c.43-.11,.86-.19,1.29-.27,.41-.08,.83-.15,1.23-.21,.24-.04,.47-.07,.7-.1,.42-.05,.83-.09,1.23-.11,.19-.02,.39-.03,.58-.04,.28,0,.56-.02,.83-.02,.21,0,.41,0,.61,.02,.73,.02,1.43,.08,2.1,.19,.11,0,.23,.04,.34,.05-.15-.12-.3-.24-.46-.35-.57-.43-1.16-.82-1.79-1.19-.11-.08-.24-.14-.35-.21-.58-.32-1.24-.47-2-.47-1.65,0-3.68,.76-5.83,2.23-2.84,1.93-5.62,4.89-8.03,8.45-.71-.43-1.4-.88-2.07-1.33,2.58-3.83,5.61-7.03,8.71-9.14,.61-.42,1.22-.79,1.81-1.1,.26-.14,.52-.26,.77-.39,.32-.16,.64-.29,.95-.41-.32-.07-.65-.13-.97-.18-.18-.03-.37-.06-.54-.08-.41-.06-.81-.1-1.22-.12-.36-.04-.74-.05-1.1-.05-.1,0-.18,0-.28,0s-.19,0-.28,0c-.18,0-.37,.03-.55,.04l.46-2.48c.12,0,.25-.02,.37-.02h0c.11,0,.22,0,.33,0,.69,0,1.38,.05,2.07,.13,.1,0,.2,.03,.3,.04,.55,.06,1.09,.15,1.65,.26,.04,0,.08,.02,.11,.03,.58,.11,1.14,.25,1.71,.42,.55,.16,1.1,.34,1.65,.55,.51,.18,1.01,.39,1.51,.62,7.54,3.47,12.2,10.63,12.82,18.33Z"/>
    <path class="cls-1" d="M38.01,26.37c-.25,.04-.52,.07-.78,.11-.62,.11-1.27,.25-1.92,.41-.45,.11-.91,.23-1.37,.37l1.12-2.86c.43-.11,.86-.19,1.29-.27,.41-.08,.83-.15,1.23-.21,.32,.6,.47,1.46,.42,2.45Z"/>
    <path class="cls-3" d="M40.18,26.11c-.28,.02-.57,.04-.86,.07-.61,.05-1.24,.14-1.89,.25-.62,.11-1.27,.25-1.92,.41,.18-1.07,.56-2.04,1.04-2.77,.66-.13,1.3-.23,1.93-.31,.42-.05,.83-.09,1.23-.11,.32,.6,.5,1.46,.46,2.46Z"/>
    <path class="cls-4" d="M42.14,26.12c-.31-.03-.63-.04-.95-.04-.6,0-1.23,.03-1.86,.1-.61,.05-1.24,.14-1.89,.25,.19-1.03,.58-1.97,1.06-2.66,.62-.08,1.23-.12,1.81-.15,.28,0,.56-.02,.83-.02,.21,0,.41,0,.61,.02,.3,.64,.45,1.51,.39,2.5Z"/>
    <path class="cls-5" d="M43.73,23.51c-.57-.43-1.16-.82-1.79-1.19,.04-.02,.09-.03,.13-.03,.71-.06,1.3,.41,1.65,1.22Zm.35,2.78s0,.04,0,.05c-.88-.18-1.86-.26-2.89-.26-.6,0-1.23,.03-1.86,.1,.17-.99,.53-1.88,.98-2.56,.28,0,.56-.02,.83-.02,.95,0,1.86,.07,2.71,.21,.24,.67,.33,1.53,.24,2.49Z"/>
    <path class="cls-1" d="M40.95,48.25c-.15,.1-.3,.2-.45,.31-.36,.25-.74,.49-1.11,.74l-1.69-1.84c.34-.21,.67-.42,1-.63,.25-.18,.51-.35,.76-.53,.03,.04,.06,.07,.1,.11,.57,.6,1.05,1.25,1.39,1.86Z"/>
    <path class="cls-7" d="M43.35,46.4c-.24,.2-.47,.39-.72,.58-.6,.47-1.23,.93-1.87,1.37-.34-.25-.7-.54-1.04-.88-.28-.27-.53-.56-.76-.85,.62-.42,1.22-.85,1.79-1.29,.39-.28,.76-.58,1.13-.88,.62,.63,1.13,1.31,1.47,1.96Z"/>
    <path class="cls-2" d="M45.39,44.6c-.33,.33-.67,.64-1.02,.95-.56,.49-1.14,.97-1.74,1.44-.37-.23-.74-.52-1.11-.85-.28-.25-.53-.53-.77-.81,.6-.44,1.17-.9,1.72-1.37,.49-.43,.97-.86,1.42-1.3,.65,.6,1.16,1.3,1.51,1.95Z"/>
    <path class="cls-8" d="M47.32,42.6c-.88,1.02-1.86,2-2.94,2.95-.35-.19-.71-.45-1.06-.74-.32-.26-.6-.55-.85-.85,1.21-1.04,2.3-2.14,3.25-3.26,.02,.02,.04,.04,.06,.05,.65,.56,1.18,1.21,1.54,1.86Z"/>
    <path class="cls-1" d="M28.8,22.3l-2.27,2.27h-.04c-.58-.02-1.13-.04-1.69,0-.14,0-.28,0-.42,.02-.19,.02-.39,.03-.59,.04,.24-.66,.75-1.39,1.48-2.06,.19-.18,.39-.33,.58-.48,.57,0,1.15,.04,1.72,.09,.4,.03,.81,.07,1.22,.12Z"/>
    <path class="cls-3" d="M27.23,22.06c-.08,.64-.39,1.39-.89,2.12-.06,.1-.13,.18-.19,.27-.58-.02-1.13-.04-1.69,0-.14,0-.28,0-.42,.02-.37,.03-.74,.06-1.09,.11-.35,.04-.7,.11-1.03,.18,.04-.67,.35-1.48,.9-2.27,.1-.13,.19-.26,.29-.39,.17-.03,.34-.04,.52-.05,.08-.02,.16-.02,.25-.03,.47-.04,.95-.04,1.44-.04h.02c.63,0,1.26,.03,1.9,.09Z"/>
    <path class="cls-4" d="M25.31,21.97c-.04,.46-.15,.98-.36,1.51-.14,.35-.31,.67-.5,.97-.14,0-.28,0-.42,.02-.37,.03-.74,.06-1.09,.11-.87,.11-1.67,.29-2.42,.53-.16-.68-.06-1.59,.32-2.53,.02-.04,.03-.07,.04-.11,.87-.21,1.79-.35,2.74-.42,.08-.02,.16-.02,.25-.03,.47-.04,.95-.04,1.44-.04Z"/>
    <path class="cls-5" d="M23.62,22.04c0,.24-.02,.48-.06,.74-.11,.66-.32,1.27-.61,1.79-1.35,.18-2.56,.5-3.66,.96-.39-.6-.58-1.47-.49-2.45,1.45-.55,3.06-.91,4.82-1.04Z"/>
    <path class="cls-1" d="M34.4,17.22c-.11,.22-.24,.45-.4,.67-.54,.74-1.3,1.32-2.02,1.62-.1,0-.18,0-.28,0s-.19,0-.28,0c-.18,0-.37,.03-.55,.04l.46-2.48c.12,0,.25-.02,.37-.02h0c.11,0,.22,0,.33,0,.69,0,1.38,.05,2.07,.13,.1,0,.2,.03,.3,.03Z"/>
    <path class="cls-3" d="M36.27,17.52c-.11,.27-.25,.54-.45,.81-.39,.56-.89,1.02-1.42,1.36-.41-.06-.81-.1-1.22-.12-.46-.04-.92-.06-1.38-.06-.1,0-.19,0-.28,0-.24-.6-.05-1.51,.58-2.4,0-.02,.03-.04,.04-.05,.69,0,1.38,.05,2.07,.13,.65,.07,1.3,.17,1.94,.3,.03,0,.08,.02,.11,.03Z"/>
    <path class="cls-4" d="M37.97,17.94c-.11,.27-.25,.55-.44,.83-.86,1.29-2.32,2.14-3.34,1.98,.26-.14,.52-.26,.77-.39,.32-.16,.64-.29,.95-.41-.32-.07-.65-.13-.97-.18-.59-.1-1.17-.17-1.76-.2-.04-.53,.18-1.19,.62-1.86,.12-.18,.25-.36,.4-.52,.65,.07,1.3,.17,1.94,.3,.61,.12,1.22,.26,1.82,.45Z"/>
    <path class="cls-5" d="M39.62,18.49c-.09,.24-.21,.47-.37,.72-.88,1.37-2.42,2.28-3.46,2.04-.46-.11-.74-.43-.83-.88,.32-.16,.64-.29,.95-.41-.32-.07-.65-.13-.97-.18,.05-.45,.24-.95,.57-1.47,.18-.29,.4-.56,.64-.81,1.17,.23,2.33,.56,3.47,1Z"/>
    <path class="cls-8" d="M.9,21.43c-.11,.19-.16,.4-.17,.6v.02c0,.42,.22,.83,.62,1.05l5.91,3.39c.19,.11,.41,.16,.62,.16,.43,0,.84-.22,1.07-.61,.34-.59,.14-1.34-.45-1.67l-5.91-3.39c-.19-.11-.41-.16-.62-.16-.43,0-.84,.22-1.07,.61"/>
    <path class="cls-13" d="M7.88,27.09c-.29,0-.58-.08-.83-.22l-5.91-3.39c-.51-.29-.83-.84-.84-1.43,0-.31,.08-.6,.22-.84H.52c.44-.76,1.51-1.05,2.28-.61l5.91,3.39c.39,.22,.66,.58,.78,1.01,.11,.43,.06,.88-.17,1.26-.3,.51-.85,.83-1.45,.83ZM1.97,21.25c-.28,0-.55,.15-.69,.39h0c-.07,.12-.11,.25-.11,.39,0,.29,.15,.55,.4,.69l5.91,3.39c.37,.21,.88,.08,1.09-.29,.11-.18,.13-.39,.08-.6-.06-.2-.19-.37-.37-.48l-5.91-3.39c-.12-.07-.26-.11-.4-.11Z"/>
    <path class="cls-5" d="M14.57,8.28c-.21,0-.42,.05-.62,.16-.59,.34-.79,1.09-.45,1.67l3.41,5.88c.23,.39,.64,.61,1.07,.61,.21,0,.42-.05,.62-.16,.59-.34,.79-1.09,.45-1.67l-3.41-5.88c-.23-.39-.64-.61-1.07-.61h0"/>
    <path class="cls-12" d="M17.99,17.04c-.6,0-1.15-.32-1.45-.83l-3.41-5.88c-.22-.38-.28-.83-.17-1.26,.12-.43,.39-.79,.78-1.01,.77-.44,1.84-.16,2.28,.61l3.41,5.88c.22,.38,.28,.83,.17,1.26-.12,.43-.39,.79-.78,1.01-.25,.14-.54,.22-.83,.22Zm-3.42-8.33c-.14,0-.28,.04-.4,.11-.18,.11-.32,.28-.37,.48-.05,.2-.03,.41,.08,.59l3.41,5.88c.21,.36,.72,.5,1.09,.29,.18-.11,.32-.28,.37-.48,.05-.2,.03-.41-.08-.6l-3.41-5.88c-.14-.25-.41-.4-.69-.4h0Z"/>
    <path class="cls-13" d="M15.09,29.59c.76-1.32,1.91-2.38,3.34-3.16l-.55-.69c-1.51,.85-2.72,2-3.55,3.42-1.74,3-1.61,6.87,.37,10.89,.17,.34,.35,.67,.54,1,.7,.59,1.43,1.17,2.19,1.73-.78-1.03-1.43-2.08-1.95-3.12-1.85-3.75-1.99-7.32-.4-10.06Z"/>
    <path class="cls-13" d="M16.35,23.79c-1.74,1.05-3.16,2.43-4.15,4.13-1.48,2.55-1.9,5.55-1.26,8.72,.41,.51,.84,1.01,1.3,1.5-1.14-3.58-.9-6.98,.73-9.79,.93-1.61,2.28-2.9,3.94-3.88l-.55-.69Z"/>
    <path class="cls-5" d="M30.56,4.92v6.79c0,.68,.55,1.23,1.23,1.23s1.23-.55,1.23-1.23V4.92c0-.68-.55-1.23-1.23-1.23-.68,0-1.23,.55-1.23,1.23"/>
    <path class="cls-12" d="M31.8,13.37c-.92,0-1.67-.75-1.67-1.66V4.92c0-.92,.75-1.66,1.67-1.66s1.67,.75,1.67,1.66v6.79c0,.92-.75,1.66-1.67,1.66Zm0-9.24c-.44,0-.8,.35-.8,.79v6.79c0,.43,.36,.79,.8,.79s.8-.35,.8-.79V4.92c0-.43-.36-.79-.8-.79Z"/>
    <path class="cls-13" d="M53.46,36.93c.41,3.84-.23,7.74-1.9,11.33-.12,.27-.27,.52-.4,.78,.43-.18,.85-.37,1.26-.57,1.69-3.7,2.33-7.7,1.9-11.65l-.87,.11Zm-29.41-7.26c-.84,1.17-1.64,2.4-2.38,3.68-1.81,3.12-3.22,6.39-4.09,9.53,.25,.18,.51,.36,.77,.54,.85-3.16,2.25-6.47,4.08-9.63,.71-1.22,1.47-2.39,2.26-3.5l-.63-.62Z"/>
    <path class="cls-5" d="M47.95,8.89l-3.41,5.88c-.34,.59-.14,1.34,.45,1.67,.19,.11,.41,.16,.62,.16,.43,0,.84-.22,1.07-.61l3.41-5.88c.34-.59,.14-1.34-.45-1.67-.19-.11-.41-.16-.62-.16-.43,0-.84,.22-1.07,.61"/>
    <path class="cls-12" d="M45.6,17.04c-.29,0-.58-.08-.83-.22-.39-.22-.66-.58-.78-1.01-.11-.43-.06-.88,.17-1.26l3.41-5.88c.44-.76,1.51-1.05,2.28-.61,.39,.22,.66,.58,.78,1.01,.11,.43,.06,.88-.17,1.26l-3.41,5.88c-.3,.51-.85,.83-1.45,.83Zm2.72-7.93l-3.41,5.88c-.11,.18-.13,.39-.08,.6,.06,.2,.19,.37,.37,.48,.37,.21,.88,.07,1.09-.29l3.41-5.88c.11-.18,.13-.39,.08-.6-.06-.2-.19-.37-.37-.48-.37-.21-.88-.07-1.09,.29h0Z"/>
    <path class="cls-13" d="M25.96,31.23c-.75,1.06-1.48,2.18-2.15,3.34-1.88,3.24-3.26,6.58-4.06,9.76,.26,.16,.52,.32,.78,.47,.76-3.19,2.14-6.54,4.03-9.8,.65-1.12,1.34-2.19,2.07-3.21l-.67-.57Z"/>
    <path class="cls-5" d="M61.62,20.81c-.21,0-.42,.05-.62,.16l-5.91,3.39c-.59,.34-.79,1.09-.45,1.67,.23,.39,.64,.61,1.07,.61,.21,0,.42-.05,.62-.16l5.91-3.39c.39-.22,.61-.62,.62-1.04v-.05c0-.2-.06-.4-.17-.59-.23-.39-.64-.61-1.07-.61h0"/>
    <path class="cls-13" d="M48.4,37.58c-.13,.25-.25,.48-.4,.73-.53,.87-1.21,1.75-1.99,2.64-.57,.66-1.2,1.31-1.87,1.95-.46,.45-.94,.88-1.44,1.31-.19,.17-.38,.32-.57,.49-.37,.31-.74,.6-1.13,.9-.33,.27-.67,.53-1.02,.77-.25,.19-.51,.38-.77,.55-.4,.28-.81,.55-1.23,.81l-.48-.74,.21-.13c.32-.2,.64-.4,.95-.62,.25-.16,.48-.32,.72-.49,.37-.25,.74-.52,1.09-.79,.37-.27,.72-.54,1.07-.84,.22-.17,.44-.35,.65-.53,.47-.4,.93-.81,1.36-1.24,.66-.63,1.26-1.28,1.81-1.93,.72-.85,1.35-1.71,1.88-2.57,.03-.04,.04-.08,.07-.12l1.09-.14Zm1.72,10.01c-.35,.74-.77,1.5-1.23,2.23-.46,.13-.93,.25-1.4,.36,.2-.22,.39-.44,.57-.67,.48-.74,.91-1.51,1.27-2.28,1.37-2.96,1.97-6.18,1.73-9.4-.28,.59-.6,1.18-.96,1.76-.71,1.16-1.58,2.3-2.57,3.42-.6,.67-1.26,1.35-1.95,2-.26,.25-.53,.5-.81,.74-.39,.36-.81,.71-1.23,1.04-.17,.14-.34,.28-.52,.41-.53,.42-1.05,.82-1.61,1.21-.09,.07-.18,.13-.26,.19-.51,.36-1.03,.71-1.57,1.05l-.6-.67,.74-.47c.23-.15,.45-.29,.67-.46,.2-.13,.39-.26,.59-.4,.44-.3,.86-.6,1.27-.93,.31-.24,.6-.46,.88-.7,.3-.24,.58-.48,.86-.73,.4-.35,.8-.71,1.17-1.09,.68-.65,1.32-1.32,1.92-2.01,.88-1.01,1.64-2.04,2.28-3.08,.37-.59,.68-1.19,.97-1.79l1.54-.2c.38,3.58-.22,7.18-1.74,10.46Z"/>
    <path class="cls-12" d="M55.71,27.09c-.6,0-1.15-.32-1.45-.83-.22-.39-.28-.83-.17-1.26,.12-.43,.39-.79,.78-1.01l5.91-3.39c.77-.44,1.84-.16,2.28,.61,.14,.24,.22,.52,.22,.8-.01,.66-.33,1.18-.84,1.48l-5.91,3.39c-.25,.15-.54,.22-.83,.22Zm5.91-5.84c-.14,0-.28,.04-.4,.11l-5.91,3.39c-.18,.11-.32,.28-.37,.48-.05,.2-.03,.41,.08,.6,.21,.36,.72,.5,1.09,.29l5.91-3.39c.24-.14,.39-.39,.4-.67,0-.16-.04-.29-.11-.41-.14-.24-.41-.4-.69-.4Zm-10.14,13.16l-.58,1.58c-.27,.73-.61,1.47-1.01,2.2,.36-.04,.71-.08,1.05-.13,.04-.08,.08-.15,.12-.23,0,.07,0,.14,0,.21,.29-.04,.58-.09,.86-.14-.04-.61-.1-1.22-.19-1.83l-.26-1.66Z"/>
    <path class="cls-7" d="M39.22,46.93c-.4,.28-.81,.55-1.23,.81l-.48-.74,.21-.13c.32-.2,.64-.4,.95-.62,.25-.16,.48-.32,.72-.49,.14,.13,.28,.28,.42,.43,.06,.06,.12,.13,.18,.19-.25,.19-.51,.38-.77,.55Zm2.19,1.48c-.09,.07-.18,.13-.26,.19-.51,.36-1.03,.71-1.57,1.05l-.6-.67,.74-.47c.23-.15,.45-.29,.67-.46,.2-.13,.39-.26,.59-.4,.17,.25,.31,.51,.43,.75Z"/>
    <path class="cls-2" d="M41.01,45.61c-.58,.46-1.17,.9-1.79,1.32-.19-.23-.38-.46-.54-.68,.62-.4,1.23-.83,1.8-1.28,.37-.27,.72-.54,1.07-.84,.09,.07,.17,.15,.25,.24,.11,.11,.23,.23,.33,.34-.37,.31-.74,.6-1.13,.9Zm2.53,1.18c-.17,.14-.34,.28-.52,.41-.6,.49-1.23,.95-1.87,1.4-.25-.14-.5-.32-.75-.54,.64-.42,1.26-.87,1.86-1.33,.31-.24,.6-.46,.88-.7,.16,.25,.3,.52,.4,.76Z"/>
    <path class="cls-8" d="M42.71,44.21c-.55,.48-1.11,.95-1.7,1.39-.19-.21-.37-.42-.53-.64,.6-.44,1.17-.9,1.72-1.37,.47-.4,.93-.81,1.36-1.24,.08,.06,.16,.13,.24,.2,.12,.11,.25,.23,.35,.35-.46,.45-.94,.88-1.44,1.31Zm2.87,.79c-.26,.25-.53,.5-.81,.74-.56,.5-1.15,.99-1.75,1.45-.25-.12-.51-.29-.77-.47,.6-.46,1.18-.94,1.74-1.43,.4-.35,.8-.71,1.17-1.09,.17,.26,.31,.53,.41,.79Z"/>
    <path class="cls-13" d="M42.71,44.21c-.18-.2-.36-.41-.51-.62,1.18-1.02,2.25-2.08,3.17-3.18,.14,.1,.28,.21,.41,.32,.08,.07,.16,.14,.24,.21-.96,1.11-2.09,2.21-3.31,3.26Zm4.82-1.21c-.84,.94-1.77,1.86-2.76,2.74-.25-.11-.52-.26-.78-.45,1.14-.99,2.17-2.03,3.09-3.1,.18,.26,.32,.53,.45,.81Z"/>
    <path class="cls-14" d="M10.69,44.47c.13,.53,.28,1.05,.46,1.56-.18,.03-.36,.05-.55,.07-.11,0-.24,.03-.35,.03-.18-.54-.33-1.09-.46-1.65-.02-.05-.04-.11-.04-.17l-.09-.38,.82-.31,.18,.74,.03,.11Zm2.55-.02c.09,.31,.18,.6,.29,.9h0c-.25,.11-.52,.22-.81,.32-.16-.43-.29-.87-.41-1.31-.04-.15-.08-.3-.11-.45l-.25-.84,.88-.33,.11,.5c.09,.41,.19,.81,.32,1.22Z"/>
    <path class="cls-10" d="M11.22,46.23c.18,.56,.4,1.1,.65,1.63-.16,.03-.32,.05-.47,.07-.15,.02-.3,.04-.45,.04-.24-.53-.44-1.08-.63-1.63-.2-.61-.39-1.23-.53-1.87,.11-.03,.23-.04,.34-.05,.18-.02,.36-.04,.53-.05l.03,.11c.15,.6,.32,1.18,.53,1.76Zm3.02,.93c-.24,.12-.51,.23-.81,.32-.21-.43-.39-.87-.55-1.31-.23-.6-.42-1.2-.59-1.81,.32,.02,.64,.05,.94,.1,.18,.61,.39,1.22,.62,1.81,.12,.3,.25,.6,.39,.89Z"/>
    <path class="cls-11" d="M11.96,48.06c.25,.55,.51,1.09,.8,1.6-.18,.04-.38,.07-.57,.1-.12,.02-.24,.04-.36,.04-.28-.52-.54-1.05-.78-1.6-.27-.6-.51-1.23-.73-1.86,.13-.02,.26-.04,.4-.06,.17-.03,.33-.04,.5-.05,.21,.63,.46,1.24,.74,1.84Zm3.19,.8c-.23,.13-.5,.26-.81,.38-.23-.4-.45-.81-.66-1.23-.3-.6-.57-1.22-.8-1.85,.34,.02,.67,.04,.97,.1,.25,.63,.54,1.25,.87,1.86,.13,.25,.27,.5,.42,.74Z"/>
    <path class="cls-6" d="M12.76,49.67c.33,.61,.7,1.2,1.1,1.77-.28,.06-.57,.12-.88,.17-.03,0-.04,0-.07,0-.72-1.08-1.35-2.21-1.86-3.41,.09-.03,.18-.04,.26-.05,.22-.04,.43-.06,.65-.08,.25,.55,.51,1.09,.8,1.6Zm3.44,.79c-.21,.16-.46,.31-.76,.45-.39-.53-.76-1.09-1.09-1.66-.23-.4-.45-.81-.66-1.23,.37,0,.72,.04,1.04,.11,.13,.25,.27,.5,.42,.74,.1,.18,.2,.34,.31,.51,.11,.18,.23,.35,.34,.52,.13,.19,.26,.39,.4,.57Z"/>
    <path class="cls-6" d="M17.59,52.27c-.25-1.57-.25-3.34,.02-5.29l.03-.21-.15-.15c-1.79-1.86-3.2-3.85-4.21-5.9-.72-1.44-1.21-2.88-1.49-4.28-.45-.74-.83-1.49-1.14-2.26,.06,2.21,.67,4.56,1.84,6.92,.29,.58,.6,1.15,.95,1.72,.35,.59,.74,1.17,1.17,1.74,.11,.16,.23,.32,.35,.47,.17,.21,.33,.42,.52,.63h0c.39,.48,.8,.95,1.23,1.4-.07,.61-.12,1.2-.15,1.78-.03,.44-.04,.88-.02,1.3,0,.28,0,.55,.03,.82-.13-.17-.26-.34-.38-.52-.14-.18-.27-.38-.4-.57-.07-.11-.14-.21-.21-.31l-.81,.37c.21,.32,.43,.64,.65,.95,.43,.6,.9,1.19,1.4,1.74l.99,1.09-.23-1.45Z"/>
    <path class="cls-6" d="M51.26,48.87c-3.68,7.27-11.24,11.94-19.5,11.94-3.16,0-6.23-.67-9.12-2-3.61-1.65-6.62-4.21-8.79-7.38-.2-.29-.4-.58-.58-.87l-.78,.36c.14,.23,.27,.46,.41,.68,2.28,3.44,5.5,6.21,9.37,8,3,1.38,6.19,2.08,9.48,2.08,8.8,0,16.99-5.38,20.7-13.29-.36,.07-.85,.4-1.21,.47Z"/>
    <path class="cls-1" d="M36.13,23.01c-.3,.13-.6,.29-.89,.46,.29-.24,.59-.39,.89-.46Z"/>
    <path class="cls-3" d="M36.25,24.6c-.58,.11-1.15,.23-1.69,.35l.22-.56,.17-.42c.67-.16,1.35-.3,2.01-.41,.18-.03,.37-.06,.54-.09,.2,.23,.36,.53,.48,.88-.59,.07-1.16,.16-1.73,.25Zm1.98,1.28c0,.28,0,.58-.05,.88-.27,.04-.54,.08-.81,.13-.62,.11-1.26,.25-1.9,.41-.39,.1-.8,.21-1.19,.32l-.86,.25s.38-.94,.43-1.08l1.03-.25c.25-.07,.49-.13,.74-.19,.65-.15,1.29-.28,1.92-.38,.24-.04,.46-.08,.7-.11Z"/>
    <path class="cls-12" d="M44.46,23.52c-.82-.66-1.71-1.26-2.65-1.79-2.03-1.09-5.04-.43-8.28,1.78-2.89,1.98-5.71,4.98-8.16,8.59,.25,.15,.49,.31,.74,.46,2.38-3.51,5.12-6.41,7.91-8.32,.4-.27,.81-.53,1.2-.74h0c.3-.18,.6-.34,.89-.47,2.1-1.02,3.97-1.22,5.26-.52,0,0,.02,0,.03,.02,.39,.21,.77,.46,1.14,.7-.35-.02-.7-.04-1.07-.04-.28,0-.57,0-.86,0-.19,0-.38,.02-.57,.03l-.39,.96c.09,0,.18-.02,.27-.03h.05c.67-.04,1.31-.06,1.93-.04,.74,0,1.44,.06,2.05,.17,.04,0,.09,0,.13,.02l1.7,.31-1.35-1.08Z"/>
    <path class="cls-4" d="M39.94,24.15c-.59,.04-1.19,.1-1.79,.18-.64,.07-1.28,.17-1.9,.27,.21-.4,.46-.75,.71-1.04,.64-.11,1.28-.2,1.91-.26,.19-.02,.39-.04,.59-.04,.2,.24,.37,.54,.49,.9Z"/>
    <path class="cls-5" d="M38.87,23.29c-.26,.28-.51,.63-.72,1.03,.62-.08,1.24-.14,1.85-.18,.18-.37,.39-.7,.63-.97-.57,.02-1.16,.05-1.76,.11Zm2.62-.12c-.28,0-.57,0-.86,0,.29-.01,.58-.01,.86,0,0,0,0,0,0,0Zm-.49,.94c.32,0,.63,0,.93,0,0,0,0,0,0,0-.3,0-.61,0-.93,0Z"/>
    <path class="cls-12" d="M49.33,29.22l-.12-.21c-.97-1.58-2.74-2.63-5.1-3.1-.61-.12-1.27-.2-1.96-.23-.32-.03-.64-.04-.96-.04s-.67,0-1.01,.03c-.25,.02-.51,.04-.77,.06-.07,0-.15,.02-.22,.03l-.2,.59-.1,.32c.12-.01,.25-.03,.36-.04,.31-.04,.6-.06,.9-.07,.35-.03,.7-.04,1.03-.04,.32,0,.62,0,.92,.03,.67,.04,1.31,.11,1.91,.24,2.08,.42,3.62,1.33,4.45,2.68l.12,.21c1.12,2.07,.66,4.96-1.33,8.17-.11,.18-.23,.35-.34,.52,.36,0,.72,0,1.07-.03l.03-.03c2.14-3.49,2.62-6.7,1.33-9.09Z"/>
    <path class="cls-4" d="M37.87,25.93c-.12,.02-.23,.03-.35,.05-.63,.1-1.27,.23-1.92,.38-.05,.22-.09,.45-.12,.67,0,.09-.03,.18-.03,.27,.64-.17,1.28-.31,1.9-.41,.12-.02,.24-.03,.37-.05l.15-.91Z"/>
    <path class="cls-5" d="M42.15,25.68c-.32-.03-.64-.04-.96-.04,.33,0,.64,.02,.96,.04h0Zm-4.62,.29c-.07,.3-.13,.6-.17,.91,.64-.11,1.28-.2,1.89-.26,.04-.31,.09-.6,.16-.89-.61,.05-1.24,.13-1.88,.25Z"/>
    <path class="cls-3" d="M33.19,19.1c-.38,.36-.79,.65-1.2,.85h-.16c-.18,0-.37,0-.55,.02l-.84,.04,.17-.88,.83-.05h.07c.56-.03,1.12-.02,1.68,.03Zm1.49-2.3c-.08,.27-.19,.56-.35,.85-.14-.03-.29-.04-.43-.05-.67-.07-1.35-.11-2.03-.11h-.95l.16-.85,.51-.02c.08,0,.16,0,.23,0,.23,0,.46,0,.69,0h0c.7,.03,1.39,.08,2.08,.17,.03,0,.06,0,.09,0Z"/>
    <path class="cls-4" d="M34.92,19.31c-.38,.32-.75,.57-1.15,.73-.16-.03-.34-.03-.5-.05-.47-.04-.95-.05-1.43-.04h0c-.25-.2-.38-.51-.39-.88h.07c.57-.03,1.14-.02,1.71,.03,.58,.04,1.14,.11,1.71,.21Z"/>
    <path class="cls-12" d="M53.07,31.44c-2.08-5.68-6.26-10.19-11.76-12.72-.51-.24-1.03-.46-1.55-.64-.54-.21-1.09-.39-1.65-.56-.52-.15-1.03-.28-1.56-.39-.04,0-.1-.02-.14-.03-.22-.05-.43-.09-.64-.13l-.55,.8c.2,.03,.4,.07,.61,.11,.09,.02,.17,.03,.25,.05,.58,.11,1.15,.25,1.72,.41,.56,.16,1.11,.33,1.65,.54,.51,.18,1.01,.39,1.51,.62,5.29,2.43,9.3,6.78,11.31,12.23,.69,1.9,1.11,3.85,1.26,5.81,.29-.07,.58-.15,.86-.24-.17-1.98-.59-3.96-1.3-5.87Zm-29.49-7.37s-.05,0-.07,0c-.11,0-.22,.02-.32,.04-.4,.04-.81,.11-1.19,.18-.53,.09-1.04,.22-1.52,.37-.48,.13-.94,.3-1.37,.49-.5,.21-.98,.45-1.43,.72,.2,.22,.41,.43,.62,.65,.4-.23,.83-.44,1.29-.63,.35-.14,.72-.27,1.1-.39,.39-.12,.81-.23,1.23-.31,.25-.05,.51-.11,.77-.14,.17-.03,.33-.05,.5-.06,.09-.01,.19-.02,.28-.03l.12-.89Z"/>
    <path class="cls-12" d="M36.76,19.68l-.74-.16c-.32-.07-.65-.13-.98-.19-.04,0-.08,0-.11-.02-.24-.04-.47-.06-.71-.09l-.56,.81s.05,0,.07,0c.24,.02,.48,.05,.7,.09-.25,.13-.52,.27-.77,.42-.51,.28-1.02,.6-1.52,.95-3.14,2.14-6.2,5.38-8.82,9.26,.24,.17,.47,.33,.72,.49,2.56-3.79,5.54-6.95,8.59-9.03,.84-.57,1.67-1.05,2.49-1.44,.32-.16,.64-.3,.95-.42l1.37-.53-.68-.15Z"/>
    <path class="cls-4" d="M36.41,17.1c-.06,.26-1.86,.56-2.51,.5-.67-.07-1.35-.11-2.03-.11,.07-.12,.15-.25,.24-.38,.12-.18,.25-.33,.39-.49h0c.7,.03,1.39,.08,2.08,.17,.61,.07,1.22,.18,1.82,.31Z"/>
    <path class="cls-5" d="M36.76,19.68l-.74-.16,.74,.16h0Zm-1.72-.35c-.6-.11-1.21-.18-1.82-.23-.06,.33-.04,.64,.05,.89,.39,.04,.78,.08,1.16,.13,.18,0,.49,.08,.49,.08,0-.22,.04-.62,.11-.88Zm3.07-1.81c-.52-.15-1.03-.28-1.56-.39,.52,.11,1.04,.24,1.56,.4t0,0Zm-.69,.72c.12,.03,.25,.06,.37,.1h0c-.12-.04-.25-.07-.37-.1Zm-.87-1.12c-.65-.14-1.3-.25-1.96-.33-.25,.25-.49,.51-.69,.81,.65,.06,1.29,.15,1.93,.28,.22-.28,.46-.53,.73-.75Z"/>
    <path class="cls-3" d="M26.43,24.03l.74,.05-.81,.81h-.19c-.13-.02-.26-.02-.39-.03-.61-.02-1.14,0-1.63,.02h0s-.09,0-.09,0c-.3,.03-.6,.05-.88,.1,.04-.29,.16-.6,.32-.92,.17-.02,.33-.04,.5-.04,.23-.02,.46-.03,.72-.04,.39,0,.81,0,1.29,0l.43,.03Zm2.94-2.16h0s-.8,.81-.8,.81l-1.09-.17-.34-.03c-.66-.06-1.29-.09-1.9-.08-.16,0-.31,0-.46,0t.02-.02c.37-.33,.75-.63,1.15-.86,.43,0,.87,.04,1.31,.08,.39,.04,.81,.08,1.23,.13l.88,.11Z"/>
    <path class="cls-4" d="M26,24c-.47-.02-.89-.02-1.29,0-.25,0-.49,.02-.72,.04-.28,.02-.55,.04-.82,.08-.14,.34-.32,.67-.5,.95,.45-.07,.91-.12,1.38-.16h.09c.49-.03,1.02-.04,1.63-.03,.2-.21,.39-.45,.56-.69,.04-.05,.07-.1,.1-.15l-.43-.03Z"/>
    <path class="cls-12" d="M23.79,22.46l.12-.89s-.05,0-.08,0c-.07,0-.14,0-.21,.02-.03,0-.04,0-.07,0-.84,.06-1.65,.18-2.42,.34-.8,.17-1.55,.39-2.27,.66-1.02,.37-1.96,.83-2.82,1.38,.18,.23,.37,.46,.55,.68,.67-.43,1.41-.8,2.19-1.1,.6-.25,1.24-.46,1.92-.62,.66-.17,1.35-.29,2.07-.39,.27-.03,.55-.06,.83-.08,.06,0,.13-.01,.19-.02Z"/>
    <path class="cls-4" d="M25.32,21.53c-.5,0-1,0-1.49,.04-.07,0-.14,0-.21,.02,.02,.28,0,.58-.03,.88,.1,0,.19-.02,.3-.03,.45-.04,.9-.04,1.36-.04,.61,0,1.24,.02,1.9,.08,.08-.31,.12-.6,.11-.87-.67-.06-1.32-.09-1.94-.09Z"/>
    <path class="cls-5" d="M20.46,24.66s.01,0,.02,0c0,0-.01,0-.02,0,0,0,0,0,0,0Zm3.54-.63c-.28,.02-.55,.04-.82,.08-.14,.34-.32,.67-.5,.95,.45-.07,.91-.12,1.38-.16h.09c.21-.28,.4-.57,.57-.9-.25,0-.49,.02-.72,.04Zm-2.11,.28c-.1,.02-.2,.04-.31,.07,.1-.02,.2-.05,.31-.07Zm-.66,1.04c-.11,.03-.22,.06-.33,.08,.11-.03,.22-.06,.33-.08Z"/>
    <path class="cls-5" d="M23.6,22.48c-.47,.04-.93,.09-1.38,.16,.45-.07,.91-.13,1.38-.16Zm-2.47-.53c.8-.17,1.63-.29,2.5-.35-.87,.06-1.7,.18-2.49,.35,0,0,0,0,0,0Zm.54,.8c-.26,.05-.52,.1-.77,.16,.25-.06,.51-.11,.77-.16Zm2.17-1.17c-.07,0-.14,0-.21,.02,.02,.28,0,.58-.03,.88,.1,0,.19-.02,.3-.03,.45-.04,.9-.04,1.36-.04,.06-.31,.09-.6,.07-.88-.5,0-1,0-1.49,.04Z"/>
  </g>
  <rect class="cls-9" x="7" y="30.55" width="50" height="4" rx="1.62" ry="1.62"/>
</svg>