<?xml version="1.0" encoding="UTF-8"?>
<svg id="Layer_1" data-name="Layer 1" xmlns="http://www.w3.org/2000/svg" viewBox="0 0 64 64">
  <defs>
    <style>
      .cls-1 {
        fill: #4f72b7;
      }

      .cls-2 {
        fill: #ef3d23;
      }

      .cls-3 {
        fill: #fdd92d;
      }

      .cls-4 {
        fill: #61bd6c;
      }

      .cls-5 {
        fill: #00a66c;
      }

      .cls-6 {
        fill: #f26524;
      }

      .cls-7 {
        fill: #ed1c24;
      }

      .cls-8 {
        fill: #557fc0;
      }
    </style>
  </defs>
  <g>
    <path class="cls-1" d="M41.65,45.79c1.06-1.02,2.18-1.99,3.15-3.09,.74-.85,1.3-1.86,1.93-2.81-.04-.06-.07-.13-.11-.19h-14.78c0-4.92,0-9.84,0-14.76,.21,0,.41-.02,.62-.02,9.45,0,18.9,0,28.35,0,1.29,0,1.92,.55,2.12,1.82,.16,1.04,.33,2.08,.49,3.12v4.93c-.04,.09-.11,.17-.12,.26-.36,4.33-1.62,8.39-3.7,12.19-1.92,3.51-4.39,6.58-7.5,9.12-.15-.16-.3-.34-.46-.49-3.16-3.16-6.32-6.32-9.47-9.48-.19-.19-.34-.4-.52-.6Z"/>
    <path class="cls-6" d="M31.84,15.65c-4.05,.08-7.65,1.36-10.75,3.98-2.34,1.98-4.01,4.43-5.04,7.33-.06,.17-.14,.34-.21,.51-.16-.19-.31-.38-.48-.55-1.86-1.86-3.72-3.72-5.58-5.58-1.67-1.67-3.33-3.35-4.99-5.03,1.15-1.6,2.18-3.3,3.47-4.77C13.32,5.8,19.64,2.29,27.22,1.1c.68-.11,1.35-.23,2.02-.35,.86,0,1.73,0,2.59,0,0,4.97,0,9.94,0,14.91Z"/>
    <path class="cls-4" d="M15.86,37.2c.72,2.05,1.68,3.96,3.09,5.63,3.29,3.9,7.48,5.96,12.59,6.14,.1,0,.2,.01,.31,.02,0,4.97,0,9.94,0,14.91h-2.34c-.9-.14-1.81-.25-2.71-.41-5.6-.96-10.6-3.26-14.97-6.9-2.83-2.36-5.22-5.11-7.05-8.32,3.7-3.69,7.4-7.38,11.1-11.08Z"/>
    <path class="cls-3" d="M15.86,37.2c-3.7,3.69-7.4,7.38-11.1,11.08-2.13-3.49-3.48-7.26-4.13-11.28-.13-.78-.25-1.55-.37-2.33,0-1.56,0-3.12,0-4.69,.12-.78,.24-1.56,.37-2.33,.66-4.05,2.02-7.83,4.17-11.33,1.66,1.68,3.33,3.35,4.99,5.03,1.86,1.86,3.72,3.72,5.58,5.58,.17,.17,.32,.37,.48,.55-.22,1.42-.52,2.83-.64,4.25-.16,1.86,.21,3.68,.65,5.48Z"/>
    <path class="cls-2" d="M31.84,15.65c0-4.97,0-9.94,0-14.91,.82,0,1.64,0,2.47,0,.73,.12,1.46,.25,2.2,.36,5.57,.86,10.53,3.11,14.93,6.6,.13,.1,.26,.21,.38,.31,1.09,.88,1.18,2.09,.19,3.08-1.96,1.97-3.93,3.92-5.89,5.88-.6,.59-1.19,1.2-1.79,1.78-.8,.77-1.67,.86-2.56,.21-2.31-1.69-4.88-2.75-7.71-3.14-.73-.1-1.47-.12-2.21-.18Z"/>
    <path class="cls-5" d="M31.83,63.9c0-4.97,0-9.94,0-14.91,3.59-.08,6.86-1.15,9.81-3.2,.17,.2,.33,.42,.51,.6,3.16,3.16,6.31,6.32,9.47,9.48,.16,.16,.31,.33,.46,.49-4.47,3.81-9.62,6.18-15.41,7.16-.79,.13-1.59,.25-2.38,.38h-2.47Z"/>
    <path class="cls-8" d="M31.83,24.94c0,4.92,0,9.84,0,14.76-1.09-.05-1.84-.75-1.85-1.81-.01-3.71-.01-7.43,0-11.14,0-1.06,.76-1.77,1.85-1.81Z"/>
  </g>
  <rect class="cls-7" x="6.83" y="29.1" width="50" height="4" rx="1.62" ry="1.62"/>
</svg>