<?xml version="1.0" encoding="UTF-8"?>
<svg id="Layer_1" data-name="Layer 1" xmlns="http://www.w3.org/2000/svg" viewBox="0 0 64 64">
  <defs>
    <style>
      .cls-1 {
        fill: #ee7b22;
      }

      .cls-2 {
        fill: #f8991d;
      }

      .cls-3 {
        fill: #ed6e23;
      }

      .cls-4 {
        fill: #ed1c24;
      }
    </style>
  </defs>
  <g>
    <path class="cls-3" d="M6.55,42.15c0-8.8,0-17.6,0-26.4,.2-.31,.4-.61,.61-.92,.08,.07,.15,.16,.25,.21,7.91,4.57,15.83,9.14,23.76,13.68,.29,.16,.85,.09,1.17-.09,4.62-2.62,9.22-5.29,13.83-7.93,3.44-1.97,6.9-3.92,10.35-5.87,.13,.37,.26,.74,.39,1.11,0,8.25-.01,16.49,0,24.74,0,.35,.14,.7,.21,1.04v.44c-.77,.88-1.37,2.04-2.32,2.6-11.03,6.44-22.12,12.8-33.2,19.17-1.49,.86-2.38,.35-2.38-1.37,0-3.6-.03-7.2,.02-10.8,0-.77-.25-1.16-.9-1.52-2.61-1.45-5.17-2.99-7.78-4.44-1.64-.9-3.2-1.84-4-3.64Z"/>
    <path class="cls-1" d="M56.91,15.93c.07,.01,.14,.02,.2,.03v25.75c-.07-.35-.21-.7-.21-1.04,0-8.25,0-16.49,0-24.74Z"/>
    <path class="cls-2" d="M7.16,14.83c.53-.57,.97-1.31,1.62-1.69C15.7,9.1,22.65,5.12,29.59,1.12c1.48-.85,3-.85,4.48,0,6.95,3.99,13.9,7.98,20.82,12.02,.65,.38,1.09,1.11,1.63,1.68-3.45,1.96-6.91,3.9-10.35,5.87-4.61,2.64-9.21,5.31-13.83,7.93-.31,.18-.88,.25-1.17,.09-7.93-4.54-15.85-9.11-23.76-13.68-.09-.05-.16-.14-.25-.21Z"/>
  </g>
  <rect class="cls-4" x="6.83" y="29.73" width="50" height="4" rx="1.62" ry="1.62"/>
</svg>