<?xml version="1.0" encoding="UTF-8"?><svg id="Layer_1" xmlns="http://www.w3.org/2000/svg" viewBox="0 0 64 64"><defs><style>.cls-1{fill:#0d65b0;}.cls-2{fill:none;stroke:#0d65b0;stroke-miterlimit:10;stroke-width:3px;}</style></defs><line class="cls-2" x1="34.28" y1="52.53" x2="34.28" y2="62.6"/><line class="cls-2" x1="26.2" y1="62.07" x2="42.4" y2="62.15"/><path class="cls-2" d="M16.94,35.64c.4,9.17,7.9,16.51,16.93,16.73,9.25,.22,17.22-7.12,17.74-16.52"/><line class="cls-2" x1="16.94" y1="35.44" x2="16.94" y2="35.83"/><line class="cls-2" x1="51.61" y1="35.63" x2="51.61" y2="36.02"/><path class="cls-2" d="M23.52,12.3c.39-5.59,5.06-9.96,10.55-9.99,5.66-.03,10.47,4.57,10.68,10.35"/><path class="cls-2" d="M23.48,35.64c.52,5.5,5.18,9.73,10.64,9.74,5.35,0,9.96-4.05,10.64-9.42"/><path class="cls-2" d="M44.75,12.3v23.91"/><path class="cls-2" d="M23.52,11.9v23.91"/><circle class="cls-1" cx="34.16" cy="13.17" r="3.26"/><circle class="cls-1" cx="34.12" cy="23.85" r="3.26"/><circle class="cls-1" cx="34.16" cy="34.69" r="3.26"/></svg>