<?xml version="1.0" encoding="UTF-8"?><svg id="Layer_1" xmlns="http://www.w3.org/2000/svg" viewBox="0 0 64 64"><defs><style>.cls-1{fill:#ed1c24;}</style></defs><path class="cls-1" d="M32,.53c17.55,0,31.84,14.15,31.84,31.53,0,17.38-14.27,31.54-31.83,31.55C14.46,63.62,.15,49.44,.16,32.05,.18,14.72,14.51,.53,32,.53ZM14.36,12.3c12.55,12.43,25.07,24.84,37.6,37.25,8.5-9.1,9.74-24.83-.54-35.63C41,2.99,24.43,3.22,14.36,12.3ZM48.06,53.14c-12.45-12.33-24.89-24.65-37.32-36.97-7.76,9.86-7.52,24.93,2.55,34.74,10.12,9.86,25.19,9.68,34.77,2.23Z"/></svg>