<?xml version="1.0" encoding="UTF-8"?><svg id="Layer_1" xmlns="http://www.w3.org/2000/svg" viewBox="0 0 64 64"><defs><style>.cls-1{fill:#2072b9;}</style></defs><path class="cls-1" d="M47.05,25.93v2.47c-.11,0-.21,.01-.32,.01-1.46,0-2.92,0-4.39,0-.22,0-.26,.07-.2,.26,.07,.24,.14,.49,.17,.74,.17,1.27,.07,2.53-.25,3.77-.06,.23,0,.26,.2,.25,.81,0,1.62-.03,2.43,0,1.05,.05,1.77,.61,2.19,1.58,.07,.16,.06,.34,.17,.48,0,2.16,0,4.32,0,6.49,0,.18-.03,.21-.21,.21-.77-.01-1.54,0-2.31,0,0-.03,.01-.06,.01-.09,0-1.98,0-3.97,0-5.95,0-.22-.09-.23-.26-.23-1.02,0-2.05,.01-3.07,0-.23,0-.36,.08-.49,.27-2.34,3.42-5.58,5.04-9.7,4.68-3.3-.29-5.86-1.95-7.69-4.73-.1-.16-.2-.22-.39-.22-1.04,.01-2.09,.01-3.13,0-.2,0-.26,.05-.26,.26,.01,.98,0,1.96,0,2.93,0,1.03,0,2.05,.01,3.08h-2.52c0-2.04,0-4.09,0-6.13,0-1.56,1.05-2.62,2.6-2.63,.73,0,1.46,0,2.2,0,.22,0,.25-.04,.2-.26-.36-1.48-.48-2.97-.11-4.47,.07-.27,0-.3-.24-.3-1.46,0-2.93,0-4.39,0-.2,0-.26-.05-.26-.25,.01-.66,.02-1.31,0-1.97,0-.23,.06-.29,.29-.28,1.68,.01,3.36,0,5.04,0,.2,0,.29-.04,.34-.25,.37-1.51,.75-3.01,1.14-4.51,.06-.22,.02-.27-.21-.27-1.3,.01-2.6-.03-3.89,.01-1.58,.05-2.73-1.18-2.7-2.69,.04-2.02,.01-4.05,.01-6.07,.84,0,1.68,0,2.52,0,0,.03-.01,.06-.01,.09,0,1.99,0,3.97,0,5.96,0,.22,.1,.23,.26,.23,1.49,0,2.99,0,4.48,0,.22,0,.34-.05,.43-.27,1.43-3.2,4.85-5.16,8.27-4.69,2.98,.41,5.12,2.01,6.4,4.73,.08,.17,.16,.23,.34,.23,1.51,0,3.03,0,4.54,0,.2,0,.26-.05,.26-.26-.01-.99,0-1.98,0-2.96,0-1.02,0-2.03-.01-3.05,.77,0,1.54,0,2.31,0,.18,0,.21,.04,.21,.21,0,2.18,0,4.36,0,6.54-.05,0-.05,.05-.07,.08-.46,1.36-1.25,1.93-2.68,1.93-1.29,0-2.58,0-3.86,0-.19,0-.25,.02-.19,.24,.39,1.52,.78,3.04,1.15,4.57,.05,.19,.13,.23,.3,.22,.51,0,1.01,0,1.52,0,1.28,0,2.56,0,3.83,.01Z"/><path class="cls-1" d="M63.5,42.21c-.29,.78-.48,1.62-.88,2.33-1.48,2.66-3.85,3.73-6.83,3.73-8.9-.02-17.8-.03-26.7,.03-.79,0-1.73,.36-2.35,.87-4.78,3.94-9.5,7.96-14.24,11.95-.4,.33-.81,.65-1.42,1.14v-14.04c-5.01,.45-9.22-.42-10.59-6.01V11.64c.85-3.04,2.77-5.03,5.85-5.85H57.65c3.08,.82,4.99,2.8,5.85,5.85v30.57ZM14.47,51.84c3.34-2.25,6.36-4.34,9.44-6.32,.66-.42,1.54-.7,2.31-.71,9.83-.05,19.67-.03,29.5-.03,2.97,0,4.31-1.34,4.31-4.29,0-8.95,0-17.9,0-26.84,0-3.04-1.32-4.36-4.37-4.36-15.77,0-31.54,0-47.31,0-3.06,0-4.38,1.31-4.38,4.35,0,8.86,0,17.72,0,26.58,0,3.31,1.24,4.55,4.58,4.55,1.93,0,3.87,0,5.93,0v7.08Z"/></svg>