<?xml version="1.0" encoding="UTF-8"?><svg id="Layer_1" xmlns="http://www.w3.org/2000/svg" viewBox="0 0 64 64"><defs><style>.cls-1{fill:#fff;}.cls-2{fill:#2d98d5;}</style></defs><path class="cls-2" d="M32.02,.54C14.49,.54,.29,14.74,.29,32.27s14.21,31.73,31.73,31.73,31.73-14.21,31.73-31.73S49.54,.54,32.02,.54Z"/><path class="cls-1" d="M36.31,40.68h8.21l1.29-8.34h-9.5v-4.56c0-3.47,1.13-6.54,4.37-6.54h5.21v-7.28c-.92-.12-2.85-.39-6.51-.39-7.64,0-12.11,4.03-12.11,13.22v5.55h-7.85v8.34h7.85v22.93c1.55,.23,3.13,.39,4.75,.39,1.46,0,2.89-.13,4.3-.32v-23Z"/></svg>