<?xml version="1.0" encoding="UTF-8"?><svg id="Layer_1" xmlns="http://www.w3.org/2000/svg" viewBox="0 0 64 64"><defs><style>.cls-1{fill:#010101;}</style></defs><path class="cls-1" d="M55.72,45.15c-.85,.98-2.34,2.53-4.74,2.53-3.35,0-4.46-2.43-5.47-4.99l-5.06-12.42-5.06,12.42c-.82,2.09-1.77,4.99-5.47,4.99s-4.61-2.91-5.5-4.99L15.97,21.77h7.14l6.83,17.22,5.09-12.54c.79-1.99,1.74-4.99,5.43-4.99s4.61,3,5.43,4.99l5.53,13.59c2.81-4.3,4.01-9.48,3.32-14.57-.7-5.09-3.19-9.76-7.08-13.14-3.85-3.38-8.85-5.28-13.97-5.28-5.34-.03-10.52,1.64-14.91,4.74-4.23,3.13-7.46,7.52-9.1,12.58-1.64,5.06-1.64,10.52,0,15.58,1.64,5.06,4.87,9.45,9.19,12.54,4.33,3.13,9.51,4.77,14.82,4.74,2.31,0,4.58-.32,6.79-.95v6.67c-2.24,.51-4.52,.79-6.79,.79-6.67,0-13.21-2.09-18.64-6-5.43-3.92-9.48-9.45-11.53-15.8-2.12-6.35-2.12-13.21-.03-19.59,2.09-6.35,6.13-11.88,11.56-15.8C20.46,2.62,27,.54,33.7,.54c15.29,0,27.74,12.45,27.74,27.77,0,6.07-2.02,12.01-5.72,16.84h0Z"/></svg>