<?xml version="1.0" encoding="UTF-8"?><svg id="Layer_1" xmlns="http://www.w3.org/2000/svg" viewBox="0 0 64 64"><defs><style>.cls-1{fill:#fff;}.cls-2,.cls-3{fill:#2d98d5;}.cls-3{stroke:#fff;stroke-miterlimit:10;stroke-width:.5px;}</style></defs><g><path class="cls-2" d="M28.33,8.2C13.14,8.2,.83,20.51,.83,35.7s12.31,27.5,27.5,27.5,27.5-12.31,27.5-27.5S43.52,8.2,28.33,8.2Z"/><path class="cls-1" d="M32.05,42.99h7.12l1.12-7.23h-8.24v-3.95c0-3,.98-5.67,3.79-5.67h4.51v-6.31c-.79-.11-2.47-.34-5.64-.34-6.62,0-10.5,3.5-10.5,11.46v4.81h-6.8v7.23h6.8v19.87c1.35,.2,2.71,.34,4.11,.34,1.27,0,2.5-.12,3.72-.28v-19.93Z"/></g><path class="cls-3" d="M50.24,.54c.59,0,1.19,0,1.78,0,.12,.03,.24,.08,.37,.1,3.18,.4,5.84,1.81,7.95,4.21,2.45,2.78,3.34,6.06,3.15,9.71-.15,2.82-2.97,4.9-5.69,4.15-1.1-.3-1.95-.94-2.61-1.86-2.74,3.35-6.87,3.06-9.21,1.09-2.51-2.11-3.02-5.77-1.15-8.46,.92-1.33,2.19-2.21,3.76-2.57,2.13-.48,4.02,.06,5.68,1.48,.38-.88,.93-1.2,1.65-.97,.57,.18,.86,.64,.86,1.4,0,1.81-.02,3.63,.02,5.44,.02,1.13,1.06,2.07,2.15,2.05,1.14-.02,2.04-.93,2.07-2.11,.01-.44,0-.89,0-1.33-.09-4.84-3.9-9.19-8.71-9.74-4.15-.48-7.49,1.11-9.68,4.65-2.2,3.56-2.12,7.27,.18,10.78,3.14,4.78,9.45,5.86,14.16,2.55,.75-.52,1.47-.47,1.9,.15,.44,.63,.31,1.37-.46,1.84-1.02,.62-2.06,1.24-3.18,1.66-1.06,.4-2.22,.53-3.33,.78h-1.56c-1.04-.23-2.11-.36-3.12-.69-5.36-1.75-8.92-6.85-8.56-12.66,.35-5.52,4.29-10,9.4-11.25,.71-.17,1.45-.27,2.17-.4Zm-.22,8.67c-2.11,0-3.87,1.73-3.88,3.83,0,2.14,1.76,3.92,3.87,3.9,2.11-.01,3.88-1.76,3.88-3.84,0-2.15-1.72-3.88-3.87-3.89Z"/></svg>