<?xml version="1.0" encoding="UTF-8"?>
<svg id="Layer_1" data-name="Layer 1" xmlns="http://www.w3.org/2000/svg" viewBox="0 0 64 64">
  <defs>
    <style>
      .cls-1 {
        fill: #f0542a;
      }

      .cls-1, .cls-2, .cls-3 {
        stroke-width: 0px;
      }

      .cls-2 {
        fill: #fffcfa;
      }

      .cls-3 {
        fill: #f0532a;
      }
    </style>
  </defs>
  <path class="cls-3" d="m59.73,64H4.36c-.28,0-.57-.06-.81-.21-.1-.06-.22-.08-.32-.12-1.37-.56-2.34-1.51-2.88-2.89-.04-.11-.06-.23-.12-.32C.06,60.21,0,59.92,0,59.63c0-5.93,0-48.98,0-55.19,0-.31.06-.63.21-.89.04-.07.07-.16.09-.24C.85,1.87,1.83.88,3.26.32c.11-.04.28-.11.38-.16C3.83.06,4.04,0,4.26,0h55.47c.27,0,.53.06.78.18.96.46,1.88.97,2.54,1.88.33.45.47.98.72,1.45.15.27.23.57.23.88v55.29c0,.35-.11.68-.3.97-.24.38-.33.84-.59,1.21-.67.95-1.61,1.49-2.6,1.96-.24.12-.51.18-.78.18Zm-22.77-45.99s0-.04,0-.06c-2.4,0-4.8-.02-7.2,0-5.22.05-9.48,4.16-9.55,9.19-.08,5.42,3.84,9.74,9.19,9.88,5,.13,10.01.12,15.02,0,5.04-.11,9.05-4.13,9.25-9.03.21-5.1-3.36-9.44-8.45-9.93-2.73-.26-5.5-.05-8.25-.05Zm4.11,40.93s0,0,0,0c1.32,0,2.64.09,3.95-.02,4.71-.38,8.45-4.31,8.64-8.99.2-4.9-3.16-9.16-7.94-9.87-2.76-.41-5.56-.24-8.33-.11-4.83.22-8.78,4.45-8.83,9.27-.05,5.05,3.65,9.28,8.56,9.7,1.31.11,2.63.02,3.95.02Zm12.6-48.48c0-3.08-2.39-5.52-5.41-5.53-2.95,0-5.42,2.39-5.45,5.31-.03,3.11,2.4,5.59,5.45,5.57,2.95-.02,5.4-2.44,5.4-5.35Z"/>
  <path class="cls-2" d="m36.96,18.01c2.75,0,5.52-.22,8.25.05,5.1.5,8.66,4.84,8.45,9.93-.2,4.91-4.21,8.92-9.25,9.03-5,.11-10.02.12-15.02,0-5.35-.14-9.28-4.46-9.19-9.88.08-5.02,4.34-9.14,9.55-9.19,2.4-.02,4.8,0,7.2,0,0,.02,0,.04,0,.06Zm.06,3.1c-2.37,0-4.74-.01-7.12,0-3.67.03-6.54,2.79-6.55,6.29,0,3.69,2.77,6.49,6.51,6.51,4.72.03,9.43.03,14.15,0,3.66-.02,6.53-2.85,6.51-6.34-.02-3.67-2.82-6.43-6.57-6.46-2.31-.02-4.63,0-6.94,0Z"/>
  <path class="cls-2" d="m41.07,58.94c-1.32,0-2.64.09-3.95-.02-4.91-.42-8.61-4.64-8.56-9.7.05-4.82,3.99-9.05,8.83-9.27,2.77-.13,5.58-.3,8.33.11,4.78.71,8.14,4.97,7.94,9.87-.19,4.69-3.93,8.61-8.64,8.99-1.31.11-2.63.02-3.95.02,0,0,0,0,0,0Zm.16-15.87c-1.05,0-2.11-.02-3.16,0-3.46.06-6.24,2.74-6.37,6.11-.13,3.47,2.48,6.44,6.01,6.64,2.25.13,4.51.12,6.76,0,3.47-.18,6.13-3.07,6.05-6.4-.09-3.59-2.8-6.3-6.39-6.35-.97-.01-1.93,0-2.9,0Z"/>
  <path class="cls-2" d="m53.67,10.46c0,2.91-2.45,5.34-5.4,5.35-3.06.02-5.49-2.46-5.45-5.57.03-2.91,2.49-5.32,5.45-5.31,3.02,0,5.41,2.45,5.41,5.53Zm-7.98-.1c0,1.43,1.13,2.59,2.54,2.6,1.4,0,2.58-1.17,2.58-2.56,0-1.42-1.14-2.58-2.55-2.59-1.42,0-2.57,1.14-2.57,2.56Z"/>
  <path class="cls-1" d="m55.37,57.49s-.03-.08-.01-.12c.05-.21.04-.51.37-.46.18.03.31.22.27.39-.09.41-.42.13-.64.19Z"/>
  <path class="cls-1" d="m37.01,21.11c2.31,0,4.63-.01,6.94,0,3.75.02,6.55,2.78,6.57,6.46.02,3.49-2.86,6.31-6.51,6.34-4.72.03-9.43.03-14.15,0-3.74-.02-6.52-2.82-6.51-6.51,0-3.5,2.87-6.26,6.55-6.29,2.37-.02,4.74,0,7.12,0Z"/>
  <path class="cls-1" d="m41.23,43.07c.97,0,1.93-.01,2.9,0,3.59.06,6.3,2.76,6.39,6.35.08,3.34-2.58,6.23-6.05,6.4-2.25.11-4.51.12-6.76,0-3.52-.2-6.14-3.17-6.01-6.64.13-3.38,2.91-6.05,6.37-6.11,1.05-.02,2.11,0,3.16,0Z"/>
  <path class="cls-1" d="m45.69,10.36c0-1.42,1.15-2.57,2.57-2.56,1.41,0,2.55,1.17,2.55,2.59,0,1.4-1.18,2.57-2.58,2.56-1.41,0-2.54-1.16-2.54-2.6Z"/>
</svg>