<?xml version="1.0" encoding="UTF-8"?>
<svg id="Layer_1" data-name="Layer 1" xmlns="http://www.w3.org/2000/svg" viewBox="0 0 64 64">
  <defs>
    <style>
      .cls-1 {
        fill: #c52627;
      }

      .cls-2 {
        fill: #ea4535;
      }

      .cls-3 {
        fill: #36a852;
      }

      .cls-4 {
        fill: #f9bc15;
      }

      .cls-5 {
        fill: #557ebf;
      }
    </style>
  </defs>
  <path class="cls-2" d="m27.17,38.84s-.03-.01-.05-.02c-.03-.02-.05-.04-.07-.06h0s-.05-.04-.07-.07h0s-.05-.04-.07-.07h0s-.05-.04-.07-.06h0s-.05-.05-.07-.07h0s-.04-.05-.07-.07h0s-.04-.05-.07-.07h0s-.04-.03-.06-.04c-.03,0-.05-.02-.06-.04h0s-.05-.04-.07-.07h0s-.05-.04-.07-.07h0s-.05-.04-.07-.07h0s-.05-.04-.07-.05c-.11-.09-.21-.19-.32-.28-.03-.01-.05-.04-.07-.06h0s-.04-.05-.07-.07h0s-.04-.05-.07-.07h0s-.04-.05-.07-.06c-.11-.09-.21-.19-.32-.28-.03-.01-.05-.04-.08-.05h0s-.04-.05-.07-.07h0s-.04-.05-.07-.07h0s-.04-.05-.07-.06h0s-.09-.03-.12-.08h0s-.05-.04-.07-.06h0s-.05-.04-.07-.07h0s-.04-.04-.07-.06h0s-.05-.05-.08-.06c-.02-.02-.04-.04-.06-.06-.02-.03-.04-.05-.07-.07l-.12-.08s-.05-.04-.07-.06h0s-.04-.05-.07-.07h0s-.04-.05-.07-.07h0s-.04-.05-.07-.07h0s-.09-.03-.12-.08h0s-.05-.04-.07-.06h0s-.05-.04-.07-.07h0s-.05-.04-.07-.06h0s-.05-.05-.07-.06h0s-.04-.05-.07-.06h0s-.04-.05-.07-.07h0s-.04-.05-.07-.06h0c-.02-.05-.09-.03-.12-.08h0s-.05-.04-.07-.06h0s-.04-.04-.07-.07h0s-.05-.04-.07-.07h0s-.05-.04-.07-.06c-.08-.07-.17-.14-.25-.22-.03-.02-.05-.04-.07-.06h0s-.04-.05-.07-.06h0s-.04-.05-.06-.07h0s-.04-.05-.07-.07h0s-.04-.04-.07-.05c-.02,0-.03-.01-.05-.02-.03-.02-.05-.04-.07-.06h0s-.05-.04-.07-.07h0s-.05-.04-.07-.07h0s-.05-.04-.08-.06h0s-.04-.05-.07-.07h0s-.04-.05-.07-.07h0s-.04-.05-.07-.06h0s-.04-.03-.06-.04c-.03,0-.05-.02-.07-.03h0s-.05-.05-.06-.07h0s-.04-.04-.07-.06h0s-.05-.04-.07-.07h0s-.05-.05-.08-.06h0s-.04-.05-.08-.07c-.06-.05-.12-.1-.18-.15-.03-.02-.05-.04-.08-.05h0s-.04-.05-.07-.07h0s-.04-.05-.07-.07h0s-.04-.05-.07-.07h0s-.04-.05-.08-.06c-.02,0-.03,0-.05-.02-.03-.02-.05-.04-.07-.07h0s-.05-.04-.07-.07c-.02-.02-.04-.04-.07-.07-.03-.02-.05-.04-.08-.05h0s-.04-.05-.07-.07h0s-.04-.05-.07-.07h0s-.04-.05-.07-.07h0s-.09-.03-.12-.07h0s-.05-.04-.07-.06h0s-.04-.05-.07-.07h0s-.04-.04-.07-.07h0s-.04-.05-.07-.07h0s-.04-.05-.07-.07h0s-.04-.05-.07-.06h0s-.1-.03-.12-.08c-.02-.02-.04-.04-.07-.06-.03-.02-.05-.04-.07-.07-.02-.02-.04-.04-.06-.06-.03-.01-.05-.04-.08-.05h0s-.04-.05-.07-.07h0s-.04-.05-.07-.07h0s-.04-.05-.07-.07h0s-.09-.03-.12-.07h0s-.05-.04-.07-.06h0s-.05-.04-.07-.07h0s-.05-.04-.07-.07h0s-.04-.04-.07-.06h0s-.04-.05-.08-.06h0s-.04-.05-.07-.07h0s-.03-.05-.07-.07h0s-.09-.03-.12-.08h0s-.05-.04-.07-.06h0s-.04-.04-.07-.07h0s-.04-.04-.07-.07h0s-.05-.04-.07-.06c-.02,0-.03-.01-.05-.02-.03-.01-.06-.03-.07-.06h0s-.05-.04-.07-.07h0s-.05-.04-.07-.07h0s-.05-.04-.07-.06h0s-.05-.05-.07-.06h0s-.04-.05-.07-.07h0s-.04-.05-.07-.07h0s-.04-.05-.07-.07h0s-.09-.03-.12-.08h0s-.05-.04-.07-.06h0s-.05-.04-.07-.07h0s-.05-.04-.07-.06h0s-.05-.05-.08-.07c-.08-.07-.17-.14-.25-.22-.03-.02-.05-.03-.07-.06h0s-.04-.05-.07-.07h0s-.04-.05-.07-.07h0s-.04-.05-.07-.06h0s-.04-.05-.08-.06c-.01,0-.03-.01-.05-.02-.03-.01-.06-.04-.07-.07-.02-.02-.04-.04-.06-.06-.03-.02-.05-.04-.08-.06h0s-.05-.05-.07-.07h0s-.04-.05-.07-.07h0s-.04-.05-.07-.07h0s-.04-.05-.07-.06c-.02,0-.03-.01-.05-.02-.03,0-.06-.03-.08-.06h0s-.05-.04-.07-.07h0s-.05-.04-.07-.07h0s-.05-.04-.06-.07h0s-.05-.04-.07-.06c-.02-.02-.05-.04-.07-.06-.01-.03-.04-.05-.07-.07-.02,0-.04-.01-.06-.01-.03-.01-.05-.03-.07-.04-.04-.03-.07-.06-.09-.1,0-.02,0-.03-.01-.05,0-.02,0-.03,0-.05,0-.04,0-.08,0-.11,0-6.52,0-13.04,0-19.56,0-.22-.01-.44.02-.66,0-.04.02-.08.04-.12.03-.04.06-.05.11-.03h0s.05.04.07.06h0s.05.04.07.07h0s.05.04.07.06h0s.05.05.08.06h0s.04.05.06.07h0s.04.05.07.06h0s.04.05.07.07c.02,0,.03.01.05.02.03,0,.06.03.08.06h0s.05.04.07.07h0s.05.04.06.07h0s.04.04.07.05h0s.05.05.08.07c.08.07.17.14.25.21.03.01.05.04.07.06h0s.04.04.07.07h0s.04.05.07.07h0s.04.04.07.06c.11.09.21.19.32.28.03.02.05.03.08.05h0s.04.05.07.07h0s.04.05.07.06h0s.04.05.07.07h0s.03.03.06.04c.03,0,.05.02.07.03h0s.05.04.07.07h0s.05.04.07.07h0s.05.04.07.07h0s.05.04.07.06c.02.02.04.04.07.06.02.03.04.05.07.07.04.03.07.05.11.08.03,0,.05.04.08.05h0s.05.05.07.07h0s.04.05.07.07h0s.04.05.07.07h0s.1.03.12.08h0s.05.04.07.06h0s.05.04.07.07h0s.05.04.07.07h0s.05.04.07.06h0s.04.05.07.07h0s.04.05.07.07h0s.04.05.07.07h0s.04.05.07.07c.02,0,.03.01.05.02.03,0,.05.03.08.05h0s.05.04.06.07h0s.04.04.07.06h0s.04.05.07.06c.11.09.21.19.32.28.03.02.05.04.07.06h0s.04.05.07.07h0s.04.05.07.06h0s.04.05.07.07h0s.09.03.12.07h0s.05.04.07.06h0s.05.04.07.07h0s.05.04.07.06h0s.05.05.07.07h0s.04.05.07.07h0s.04.05.07.07h0s.04.05.07.07h0s.09.03.12.08h0s.04.04.07.06h0s.05.04.07.07h0s.04.04.07.06h0s.05.05.08.06c.08.07.16.14.25.21.03.01.05.04.08.05h0s.04.05.07.07h0s.04.05.07.07h0s.04.05.07.06h0s.04.03.06.04c.03,0,.05.02.06.04.02.02.04.04.06.06.03.02.05.04.07.07h0s.05.04.07.06h0s.05.05.08.06h0s.04.05.07.07h0s.04.05.07.07h0s.04.05.07.07h0s.04.05.07.07c.02,0,.03,0,.05.02.03.01.05.04.07.06h0s.04.05.07.07h0s.04.05.07.07h0s.04.05.07.06c.06.05.12.1.18.15.03.01.06.04.07.07.02.02.04.04.07.07.03.02.05.04.07.06h0s.04.05.07.06h0s.04.05.07.07h0s.04.05.08.06c.02,0,.03.01.05.02.03.02.05.04.07.06h0s.05.04.07.07h0s.05.04.07.07h0s.05.04.07.06h0s.05.05.08.06h0s.04.05.07.07c.02.02.04.04.06.06.01.02.03.04.06.04.03,0,.05.02.07.04h0s.05.04.07.06h0s.05.04.07.07h0s.04.04.07.07h0s.04.04.07.06c.02,0,.03.01.05.02.03,0,.06.03.08.06h0s.05.04.07.07h0s.05.04.07.07h0s.05.04.07.06h0s.05.04.07.06h0s.04.05.07.07h0s.04.05.07.07h0s.04.05.07.06c.02,0,.03,0,.05.01.03.01.05.04.07.06h0s.05.04.07.07h0s.05.04.07.07h0s.05.04.07.06h0s.05.05.08.06c.08.07.17.14.25.22.03.01.05.04.08.05h0s.05.05.07.07h0s.04.05.07.07h0s.04.05.07.07h0s.04.05.07.06c.02,0,.03.01.05.02.03.02.06.04.07.07h0s.05.04.07.07c.02.02.04.04.07.07.03.02.05.03.08.05h0s.04.05.07.07h0s.04.05.07.07h0s.04.05.07.07h0s.04.05.08.06c.02,0,.03,0,.05.02.03.02.05.04.07.06h0s.05.04.07.07h0s.05.04.07.07h0s.04.04.07.06h0s.05.05.08.06c.02.02.04.04.07.06.01.03.04.06.07.07l.07.06c.02.06.09.04.12.08h0s.04.04.07.06h0s.04.05.07.07h0s.04.05.07.06c.02,0,.03.01.05.02.03.01.05.03.07.06h0s.05.04.07.07h0s.05.04.07.07h0s.05.04.07.06h0s.05.05.08.06h0s.04.05.07.07h0s.04.05.07.07h0s.04.05.07.06c.02,0,.03.01.05.02.03.01.05.03.08.06h0s.05.04.07.07h0s.04.04.07.07h0s.04.05.07.06h0s.05.05.08.07c.02,0,.03,0,.05.01.03.02.06.04.07.07.02.02.04.04.07.06.03.02.05.04.07.06h0s.05.04.07.06h0s.04.05.07.06h0s.04.05.07.07h0s.04.04.07.06h0s.04.03.07.04c.03,0,.05.02.06.04h0s.05.04.07.07h0s.05.04.07.07h0s.05.04.07.07h0s.05.04.08.05h0s.04.06.07.07h0s.04.05.07.07h0s.04.05.07.07c.02,0,.03.01.05.02.03,0,.06.03.08.06h0s.05.04.07.07h0s.05.04.07.07h0s.05.04.07.07h0s.04.04.07.06l.25.22s.05.04.08.05h0s.05.05.07.07h0s.04.05.07.07h0s.04.05.07.07h0s.04.03.06.04c.03,0,.05.02.06.04h0s.05.04.07.07h0s.05.04.07.07h0s.05.04.07.06h0s.05.04.08.06h0s.04.05.07.07h0s.04.05.07.07h0s.04.05.07.07h0s.04.05.07.06c.02,0,.03,0,.05.02.03.01.05.04.07.06h0s.04.04.07.07h0s.04.04.07.07h0s.04.05.07.06h0s.05.05.08.06c.02,0,.03,0,.05.02.03.01.05.04.07.06h0s.05.04.07.07h0s.05.04.07.06h0s.05.05.07.06h0s.04.05.07.07h0s.04.05.07.06h0s.04.05.07.07h0s.04.03.07,0h0s.05-.05.07-.07h0s.04-.05.07-.06h0s.04-.05.07-.07h0s.04-.05.07-.06c.02,0,.03-.01.05-.02.03-.01.05-.04.07-.06h0s.05-.04.07-.07h0s.05-.04.07-.07h0s.05-.04.07-.06c.07-.07.13-.13.2-.2.01-.02.03-.04.06-.04.03,0,.05-.02.07-.04h0s.05-.04.07-.06h0s.05-.04.07-.07h0s.04-.04.07-.06h0s.05-.05.07-.06h0s.1-.03.12-.08h0s.05-.03.07-.06h0s.05-.04.07-.07h0s.05-.04.07-.06h0s.05-.05.07-.06h0s.04-.05.07-.07h0s.04-.05.07-.07h0s.04-.05.07-.06c.02,0,.03-.01.05-.02.03-.01.06-.03.07-.06h0s.05-.04.07-.07h0s.05-.04.07-.07h0s.05-.04.07-.06c.11-.09.21-.19.32-.28.03-.01.05-.03.08-.05h0s.05-.05.07-.07h0s.04-.05.07-.06h0s.04-.05.07-.06c.02,0,.03-.01.05-.02.03,0,.06-.03.07-.06h0s.05-.04.07-.07h0s.05-.04.07-.07h0s.05-.04.07-.06h0s.05-.04.08-.06h0s.04-.05.07-.07h0s.04-.05.07-.07h0s.04-.05.07-.06h0s.04-.05.07-.06c.02,0,.03,0,.05-.01.03-.02.05-.04.07-.06h0s.04-.04.07-.06h0s.05-.04.07-.07h0s.04-.04.07-.06h0s.05-.05.08-.07c.06-.05.12-.1.18-.15.03,0,.06-.03.08-.05h0s.05-.05.07-.07h0s.04-.05.07-.07h0s.04-.05.07-.07h0s.1-.02.12-.07h0s.05-.04.07-.06h0s.05-.04.07-.07h0s.05-.04.07-.07h0s.05-.04.07-.06h0s.05-.05.07-.07h0s.04-.05.07-.07h0s.04-.05.07-.06h0s.04-.03.06-.04c.03,0,.05-.02.07-.03h0s.05-.04.07-.07h0s.05-.04.07-.06h0s.05-.04.07-.07h0s.05-.04.07-.06c.02,0,.03-.01.05-.02.03-.01.06-.03.08-.06h0s.05-.04.07-.07h0s.05-.04.07-.07h0s.05-.04.07-.06h0s.05-.04.07-.06h0s.04-.05.07-.07h0s.04-.05.07-.07h0s.04-.05.07-.07h0s.04-.05.08-.06c.02,0,.03,0,.05-.02.03-.02.05-.04.07-.07h0s.05-.04.07-.07h0s.05-.04.07-.06h0s.05-.05.08-.06c.07-.06.13-.13.2-.19.02-.05.09-.04.12-.08h0s.05-.04.07-.06h0s.05-.04.07-.07h0s.05-.04.07-.06h0s.05-.05.08-.06c.08-.07.16-.14.25-.21.03-.01.05-.04.08-.05h0s.05-.05.07-.07h0s.04-.05.07-.07h0s.04-.05.07-.06c.01,0,.03-.01.05-.02.03,0,.06-.03.08-.06h0s.05-.04.07-.06h0s.05-.04.07-.07h0s.05-.04.07-.07h0s.05-.04.07-.06h0s.04-.05.07-.07h0s.04-.05.07-.07h0s.04-.05.07-.07h0s.04-.05.07-.07h0s.09-.03.12-.07h0s.04-.04.07-.06h0s.04-.04.07-.07h0s.04-.05.07-.06c.02,0,.03-.01.05-.01.03-.01.06-.03.07-.06h0s.05-.04.07-.07h0s.05-.04.07-.07h0s.05-.04.07-.06h0s.05-.05.07-.07h0s.04-.05.07-.07h0s.04-.05.07-.07h0s.04-.05.07-.06c.02,0,.03,0,.05-.02.03-.01.05-.04.07-.06h0s.05-.04.07-.07h0s.05-.04.07-.07h0s.05-.04.07-.06h0s.05-.05.08-.06c.08-.07.17-.14.25-.22.03-.01.05-.04.07-.06h0s.04-.04.07-.07h0s.05-.04.07-.07h0s.04-.04.07-.06h0s.04-.03.07-.04c.03,0,.05-.02.06-.04h0s.05-.04.07-.07h0s.05-.04.07-.07h0s.05-.04.07-.06h0s.05-.04.07-.05h0s.05-.05.07-.07h0s.04-.05.07-.07h0s.04-.05.07-.06c.02,0,.03,0,.05-.01.03-.01.06-.03.07-.06h0s.05-.04.07-.07h0s.05-.04.07-.07h0s.05-.04.07-.06h0s.05-.04.08-.06c.08-.07.17-.14.25-.22.03-.01.05-.03.08-.05h0s.05-.05.07-.07h0s.04-.05.07-.07h0s.04-.05.07-.07h0s.04-.04.07-.06c.02,0,.03-.01.05-.02.03-.01.06-.03.07-.06h0s.05-.04.07-.07h0s.05-.04.07-.06h0s.05-.05.07-.06h0s.04-.05.07-.07h0s.04-.05.07-.07h0s.04-.05.07-.06h0s.04-.05.08-.06c.02,0,.03,0,.05-.02.03-.02.05-.04.07-.06h0s.04-.04.07-.07h0s.04-.04.07-.07h0s.04-.04.07-.06h0s.05-.05.08-.06c.06-.05.12-.1.18-.15.03-.01.05-.04.08-.06h0s.05-.05.07-.07h0s.04-.05.07-.07h0s.04-.04.07-.06h0s.05-.05.07-.06c.02,0,.03-.01.05-.02.03,0,.06-.03.08-.06h0s.05-.04.07-.07h0s.05-.04.07-.07h0s.05-.04.07-.06h0s.05-.05.07-.06h0s.04-.05.07-.07h0s.04-.05.07-.07h0s.04-.05.07-.06c.02,0,.03-.01.05-.02.03,0,.05-.03.07-.06h0s.05-.04.07-.07h0s.05-.04.07-.07h0s.05-.04.07-.06c.11-.09.21-.19.32-.28.03-.01.05-.04.07-.06h0s.04-.05.07-.07h0s.04-.05.07-.07h0s.04-.05.07-.06h0s.04-.03.07-.04c.03,0,.05-.02.06-.04h0s.05-.04.07-.07h0s.05-.04.07-.07h0s.05-.04.07-.07h0s.05-.04.07-.06h0s.05-.05.08-.07c.08-.07.17-.14.25-.21.03-.02.05-.04.07-.06h0s.04-.04.07-.06h0s.05-.04.07-.07h0s.04-.04.07-.06c.02,0,.03-.01.05-.02.03-.01.06-.04.07-.07.04-.04.09-.09.13-.13.03-.01.05-.04.08-.06h0s.05-.05.07-.07h0s.04-.05.07-.07h0s.04-.05.07-.07h0s.1-.03.12-.08h0s.05-.03.07-.06h0s.08,0,.11.04c.06.11.05.24.05.36,0,6.66,0,13.32,0,19.98,0,.04,0,.08-.01.12,0,.04-.03.08-.05.11-.03.03-.06.05-.1.07h0s-.04.05-.07.06c-.02,0-.03.01-.05.02-.03.01-.06.03-.07.06h0s-.05.04-.07.07h0s-.05.04-.07.07h0s-.05.04-.07.06h0s-.05.05-.08.06h0s-.04.05-.07.07h0s-.04.05-.06.07h0s-.04.05-.07.07h0s-.04.03-.06.04c-.03,0-.05.02-.06.04h0s-.05.04-.07.07h0s-.05.04-.07.07h0s-.05.04-.07.06h0s-.05.05-.08.06c-.08.07-.17.14-.25.21-.03.01-.05.04-.08.05h0s-.05.05-.07.07h0s-.04.05-.06.06h0s-.04.05-.07.07h0s-.04.05-.07.06c-.02,0-.03,0-.05.02-.03.01-.05.03-.07.06h0s-.05.04-.07.07h0s-.05.04-.07.07h0s-.05.04-.08.05h0s-.04.05-.07.07h0s-.04.05-.06.07h0s-.04.05-.07.07h0s-.09.03-.12.07h0s-.04.04-.07.06h0s-.05.05-.07.07h0s-.04.04-.07.07h0s-.04.04-.07.06c-.06.05-.12.1-.18.14-.03.02-.05.04-.07.07-.02.02-.04.04-.07.07-.03.01-.05.04-.07.06h0s-.04.05-.07.07h0s-.04.05-.07.07h0s-.04.05-.07.06c-.02,0-.03.01-.05.02-.03.01-.05.04-.07.06h0s-.05.04-.07.06h0s-.05.04-.07.07h0s-.04.04-.07.06h0s-.04.05-.07.06h0s-.04.05-.07.07h0s-.04.05-.07.07h0s-.04.05-.06.07h0s-.09.03-.12.07h0s-.05.04-.07.06h0s-.04.04-.07.06h0s-.04.05-.07.07h0s-.05.05-.08.06c-.02,0-.03,0-.05.02-.03.02-.05.04-.07.07h0s-.05.04-.06.07h0s-.05.04-.07.07h0s-.05.04-.07.06h0s-.05.04-.07.06h0s-.05.05-.07.07h0s-.04.05-.07.07h0s-.04.05-.07.07h0s-.04.05-.07.06c-.02,0-.03.01-.05.02-.03.01-.06.03-.07.06h0s-.05.04-.07.07h0s-.05.04-.07.06h0s-.1.02-.12.08c-.05.06-.1.12-.15.17-.02.06-.09.04-.12.08h0s-.05.04-.07.06h0s-.04.04-.07.07h0s-.04.05-.07.07h0s-.04.05-.07.06c-.02,0-.03.01-.05.02-.03.01-.06.04-.07.07h0s-.05.04-.07.07h0s-.05.04-.07.06h0s-.05.05-.07.07h0s-.04.05-.07.07h0s-.04.05-.07.07h0s-.04.05-.07.07h0s-.04.05-.07.06c-.02,0-.03,0-.05.02-.03.02-.05.04-.07.06h0s-.05.04-.07.07h0s-.05.04-.07.06h0s-.05.04-.07.06h0s-.05.05-.08.07c-.07.06-.13.13-.2.19-.02.06-.09.04-.12.08h0s-.05.04-.07.06h0s-.04.04-.07.06h0s-.05.05-.07.06c-.02,0-.03.01-.05.02-.03,0-.06.03-.08.06h0s-.05.04-.07.07h0s-.05.04-.07.06h0s-.05.04-.07.07h0s-.05.04-.07.06h0s-.04.05-.07.07h0s-.04.05-.07.07h0s-.04.05-.07.06c-.02,0-.03.01-.05.02-.03,0-.06.03-.08.06h0s-.05.04-.07.07h0s-.05.04-.07.07h0s-.04.05-.07.06h0s-.05.05-.08.06c-.08.07-.16.14-.24.22-.03.01-.05.04-.08.05h0s-.04.05-.07.07h0s-.04.05-.07.07h0s-.04.05-.07.07h0s-.04.05-.08.06c-.02,0-.03,0-.05.02-.03.02-.05.04-.07.07h0s-.05.04-.07.07h0s-.05.04-.07.06h0s-.05.04-.07.06c-.05.04-.09.09-.14.13-.02.03-.04.05-.07.07-.04.03-.08.05-.11.08-.03.01-.05.03-.08.06h0s-.05.04-.07.07h0s-.05.04-.06.07h0s-.05.04-.07.05c-.08.07-.17.14-.25.21-.03.01-.05.04-.08.06h0s-.05.05-.07.06h0s-.04.05-.07.07h0s-.04.05-.07.07h0s-.04.05-.07.06c-.02,0-.03.01-.05.02-.03,0-.06.03-.07.06h0s-.05.04-.07.06h0s-.05.04-.07.07h0s-.05.04-.07.06h0s-.05.04-.08.06h0s-.04.05-.07.07h0s-.04.05-.07.07h0s-.04.05-.07.07h0s-.04.05-.07.06c-.02,0-.03,0-.05.02-.03.01-.05.03-.07.06h0s-.04.04-.07.07h0s-.04.04-.07.06h0s-.04.05-.08.06c-.02,0-.03.01-.05.02-.03.02-.06.04-.07.07h0s-.05.04-.07.06h0s-.05.04-.07.07h0s-.05.04-.07.06h0s-.05.05-.07.07h0s-.04.05-.07.07h0s-.04.05-.07.07h0s-.04.05-.07.06c-.02,0-.03.01-.05.02-.03.01-.05.03-.07.06h0s-.05.04-.07.07h0s-.05.04-.07.07h0s-.05.04-.07.06h0s-.05.05-.08.07c-.08.07-.17.14-.25.21-.03.01-.05.04-.08.06h0s-.05.05-.07.07h0s-.04.04-.07.07h0s-.04.04-.07.07h0s-.04.05-.07.06c-.02,0-.03.01-.05.02-.03.01-.06.03-.07.07h0s-.05.04-.07.07h0s-.05.04-.07.07h0s-.05.04-.08.06h0s-.05.05-.07.07h0s-.04.05-.06.07h0s-.04.05-.07.07h0s-.04.05-.07.06c-.02,0-.03.01-.05.02-.03.01-.06.03-.07.06h0s-.05.04-.07.07h0s-.05.04-.07.06h0s-.05.04-.08.06h0s-.05.05-.07.07l-.25.21s-.05.04-.07.06h0s-.04.05-.07.06h0s-.04.05-.07.07h0s-.04.05-.07.06h0s-.04.03-.07.04c-.03,0-.05.02-.06.04h0s-.05.04-.07.07h0s-.05.04-.07.07h0s-.05.04-.07.07h0s-.05.04-.08.06h0s-.04.05-.07.07h0s-.04.05-.07.07h0s-.04.05-.07.07h0s-.04.05-.07.07c-.02,0-.03.01-.05.02-.03,0-.06.03-.07.06h0s-.05.04-.07.06h0s-.05.04-.07.07h0s-.04.04-.07.06h0s-.05.05-.07.06c-.07.07-.13.13-.2.2-.01.03-.03.05-.06.07h0s-.05.05-.07.06h0s-.04.05-.07.06c-.02,0-.03,0-.05.01-.03.01-.06.03-.08.06h0s-.05.04-.08.06h0s-.09.04-.13,0h0s-.05-.04-.07-.06h0s-.04-.05-.07-.06h0s-.05-.05-.08-.06c-.06-.05-.12-.1-.18-.15-.03-.01-.05-.04-.08-.06h0s-.05-.05-.07-.07h0s-.04-.05-.07-.07h0s-.04-.05-.07-.07h0s-.04-.05-.07-.06c-.02,0-.03-.01-.05-.01-.03-.01-.05-.03-.07-.06h0s-.05-.04-.07-.07h0s-.05-.04-.07-.06h0s-.05-.04-.07-.06h0s-.05-.05-.08-.06h0s-.04-.05-.07-.07h0s-.04-.05-.07-.07h0s-.04-.05-.07-.06c-.02,0-.03,0-.05-.01-.03-.02-.05-.04-.07-.06h0s-.05-.04-.06-.07h0s-.04-.04-.07-.06h0s-.05-.05-.07-.07h0s-.1-.02-.12-.08c-.07-.06-.14-.13-.2-.19-.03-.01-.05-.04-.08-.05h0s-.04-.05-.07-.07h0s-.04-.05-.07-.07h0s-.04-.05-.07-.06c-.02,0-.03-.01-.05-.02-.03,0-.06-.03-.07-.06h0s-.05-.04-.07-.06h0s-.05-.04-.07-.07c-.02-.02-.05-.04-.07-.07-.02-.02-.05-.04-.07-.05h0s-.04-.05-.07-.07h0s-.04-.05-.07-.07h0s-.04-.05-.07-.07h0s-.09-.03-.12-.07h0s-.05-.04-.07-.06h0s-.04-.05-.07-.07h0s-.04-.05-.07-.07h0s-.04-.05-.07-.06h0s-.04-.05-.08-.07c-.02-.02-.04-.04-.06-.06-.01-.02-.03-.04-.06-.05-.03,0-.05-.02-.07-.04h0s-.05-.05-.08-.06h0s-.04-.05-.07-.07h0s-.04-.05-.07-.07h0s-.04-.05-.07-.07h0s-.04-.05-.07-.06c-.02,0-.03-.01-.05-.02-.03-.01-.05-.04-.07-.06h0s-.05-.04-.07-.07h0s-.05-.04-.07-.07h0s-.05-.04-.07-.06h0s-.04-.05-.08-.06h0s-.04-.05-.07-.07h0s-.04-.05-.07-.07h0s-.04-.05-.07-.06c-.02,0-.03,0-.05-.02-.03-.02-.05-.04-.07-.06h0s-.04-.04-.07-.07h0s-.04-.05-.07-.07h0s-.04-.05-.08-.06Z"/>
  <path class="cls-3" d="m62.32,56.66s-.01.03-.02.05c-.01.03-.04.05-.05.08h0s-.04.04-.06.06h0s-.05.04-.06.07c0,.02-.01.03-.02.05,0,.03-.03.06-.06.07h0s-.04.05-.07.07h0s-.04.04-.06.07h0s-.04.05-.07.07h0s-.05.04-.06.07h0s-.04.04-.06.06h0s-.05.05-.07.07h0s-.04.05-.07.07h0s-.04.05-.07.07h0s-.04.04-.07.06h0s-.04.05-.07.07h0s-.04.05-.07.07h0s-.04.05-.07.06h0s-.09.08-.14.13c-.01,0-.03.01-.04.02-.03.02-.06.04-.07.07h0s-.05.04-.07.06h0s-.05.05-.08.06h0s-.1.03-.12.08h0s-.05.04-.07.06h0s-.05.05-.08.06c-.01,0-.03.01-.04.01-.03.01-.06.03-.08.06h0s-.05.05-.08.06c-.01,0-.03,0-.05.01-.03.01-.05.04-.08.05h0s-.05.06-.08.07c-.02,0-.03,0-.04.01-.03.02-.05.04-.08.06h0s-.1.03-.13.07h0s-.1.03-.13.07h0s-.1.03-.13.07h0s-.1.03-.13.07h0s-.04.03-.07.03c-.03,0-.05.01-.07.03-.01,0-.03.01-.05.02-.03,0-.06.03-.08.05h0c-.05.06-.15,0-.2.07h0s-.05.02-.07.03c-.04,0-.08,0-.1.04-.03.03-.06.04-.1.06h0c-.05.06-.15,0-.2.07h0s-.1.03-.15.04c-.04,0-.07.03-.11.05-.03,0-.05.01-.08.01-.06,0-.13-.02-.19.03h0s-.08.03-.12.03c-.05,0-.11,0-.15.03h0s-.05.03-.08.04c-.07,0-.14-.02-.2.03h0c-.06.05-.13.03-.19.04-.09,0-.19-.02-.28.03h0c-.2.08-.4.02-.6.04-.26.05-.52.04-.78,0-.16-.01-.32.03-.48-.03h0c-.09-.07-.19-.03-.29-.04-.08,0-.17.02-.25-.02h0c-.06-.07-.14-.02-.21-.07h0c-.06-.07-.14-.03-.21-.04-.04,0-.09,0-.13-.02h0c-.05-.06-.12-.04-.19-.05-.03,0-.05,0-.08-.01-.03-.02-.07-.05-.11-.05-.05,0-.11,0-.15-.04h0s-.1-.02-.14-.06h0c-.05-.06-.15,0-.2-.07h0s-.1-.03-.14-.06c-.02,0-.03-.01-.05-.01-.05-.02-.1-.02-.15-.05h0s-.05-.05-.08-.06h0s-.08-.04-.13-.04c-.02,0-.05-.01-.07-.03h0s-.05-.05-.08-.06c-.02,0-.03,0-.05-.01-.04-.04-.1-.02-.14-.07h0s-.1-.03-.13-.06h0s-.1-.03-.13-.07h0s-.05-.04-.07-.06c-.01,0-.03-.01-.05-.01-.03,0-.06-.03-.08-.06h0s-.05-.05-.08-.06c-.01,0-.03-.01-.05-.02-.03-.01-.05-.04-.08-.05h0s-.05-.05-.08-.06c-.02,0-.03,0-.05-.01-.03-.01-.05-.04-.07-.06h0s-.04-.04-.07-.06h0s-.05-.05-.08-.06c-.01,0-.03,0-.04-.01-.03-.01-.05-.04-.08-.06h0s-.05-.05-.07-.07h0s-.04-.05-.07-.06c-.02,0-.03-.01-.05-.02-.04-.01-.05-.06-.08-.08-.02,0-.05-.02-.07-.04h0s-.05-.04-.07-.07h0s-.05-.04-.07-.07h0s-.05-.04-.07-.06h0s-.05-.04-.07-.07h0s-.04-.04-.06-.07h0s-.05-.04-.07-.07h0s-.04-.04-.07-.06h0s-.05-.05-.06-.07h0s-.04-.04-.06-.07h0s-.05-.04-.07-.07h0s-.05-.04-.06-.07c0-.02-.01-.03-.02-.05-.04-.05-.09-.09-.13-.14h0s-.04-.05-.07-.07h0s-.04-.05-.06-.07h0s-.04-.04-.06-.07c0-.02-.01-.03-.02-.05,0-.03-.03-.05-.06-.07h0s-.04-.04-.07-.07h0s-.04-.04-.06-.08c0-.02-.01-.03-.01-.05-.01-.03-.04-.05-.06-.08h0s-.04-.04-.05-.07c0-.02-.01-.03-.02-.05-.01-.03-.04-.05-.05-.08h0c-.05-.03-.04-.09-.07-.13h0s-.03-.04-.03-.06c0-.03-.02-.05-.03-.07h0s-.04-.04-.05-.07h0s-.03-.09-.07-.13h0s-.05-.04-.06-.08c0-.04-.01-.07-.02-.11,0-.03-.03-.05-.05-.08h-.01s-.02-.04-.03-.06c0-.05,0-.1-.04-.13h0s-.04-.05-.05-.07h-.01s-.03-.06-.03-.1c0-.04,0-.07-.03-.1h0s-.03-.09-.05-.14c0-.02-.01-.04-.02-.05-.01-.03-.04-.05-.05-.08h0c-.06-.05-.01-.14-.06-.2h0s-.03-.09-.04-.15c0-.04,0-.08-.02-.12,0-.02-.01-.04-.02-.05-.04-.06-.01-.15-.07-.2-.02-.04-.02-.09-.02-.13,0-.07.02-.15-.04-.21h0c-.03-.05-.02-.12-.03-.18-.03-.08-.03-.16-.06-.24,0-.04,0-.07,0-.11,0-.1,0-.19-.03-.28-.01-2.03,0-4.06,0-6.1,0-5.91,0-11.81,0-17.72,0-.02,0-.04,0-.06,0-.02,0-.04-.01-.05,0-.02,0-.04-.01-.05,0-.03.01-.07.03-.1.08-.13.2-.23.32-.32.02-.02.05-.03.07-.05.01,0,.02-.02.03-.02.02-.02.04-.03.06-.05,0,0,.02-.02.03-.03.02-.02.04-.04.05-.06,0,0,.02-.02.03-.03.02-.02.04-.04.06-.06.07-.06.13-.13.21-.18.02-.01.04-.03.06-.04,0,0,.02-.01.03-.02.02-.02.04-.03.06-.05,0,0,.02-.02.03-.02.02-.02.03-.03.05-.05.02-.02.05-.05.08-.07.02-.02.05-.05.08-.07.02-.01.04-.02.06-.03.02-.01.04-.02.06-.04,0,0,.02-.01.03-.02.02-.02.03-.03.05-.05,0,0,.02-.02.02-.03.02-.02.03-.04.05-.06,0-.01.02-.02.03-.03.02-.02.04-.04.06-.06.08-.08.16-.16.25-.22.02-.02.04-.03.07-.04.01,0,.02-.01.03-.02.02-.02.04-.03.06-.05,0,0,.02-.02.03-.03.02-.02.04-.04.05-.05,0,0,.02-.02.03-.03.02-.02.03-.04.05-.06,0,0,.02-.02.03-.03.02-.02.04-.04.06-.06.07-.07.14-.13.22-.18.03-.02.07-.05.1-.07.07-.06.14-.13.22-.18.02-.01.04-.03.06-.04.01,0,.02-.01.03-.02.02-.02.04-.03.06-.05,0,0,.02-.02.03-.03.02-.02.04-.04.05-.05,0,0,.02-.02.03-.03.02-.02.04-.04.05-.06,0-.01.02-.02.03-.03.02-.02.04-.04.06-.06.06-.06.12-.12.19-.16.02-.02.04-.03.07-.04.01,0,.02-.01.03-.02.02-.02.04-.03.06-.05,0,0,.02-.02.03-.02.02-.02.03-.03.05-.05,0,0,.02-.02.02-.02.02-.02.03-.03.05-.05,0,0,.02-.02.02-.02.02-.02.03-.03.05-.04.02-.01.04-.03.06-.04.03-.02.05-.05.07-.08.03-.04.07-.07.11-.1.03-.02.06-.04.09-.07.04-.03.07-.07.11-.1.03-.03.05-.05.08-.08.03-.02.05-.05.08-.07.03-.02.06-.03.09-.05.02-.01.04-.03.05-.04.02-.02.03-.03.05-.05,0,0,.02-.02.02-.03.02-.02.03-.04.05-.06,0-.01.02-.02.03-.03.02-.02.04-.04.06-.06.08-.08.16-.16.25-.22.02-.02.04-.03.07-.04.01,0,.02-.01.03-.02.02-.02.04-.03.06-.05,0,0,.02-.02.03-.03.02-.02.03-.03.05-.05,0,0,.02-.02.03-.03.02-.02.03-.03.05-.05.04-.03.08-.06.11-.08.03-.02.05-.05.08-.07.02-.03.05-.05.08-.07.02-.02.04-.03.06-.05,0,0,.02-.02.03-.03.02-.02.04-.04.06-.05.07-.06.13-.13.21-.18.02-.02.04-.03.07-.04.01,0,.02-.02.03-.02.02-.02.04-.03.06-.05,0,0,.02-.02.03-.03.02-.02.04-.04.06-.06,0-.01.02-.02.03-.03.02-.02.04-.04.06-.06.13-.13.25-.26.4-.35.02-.02.04-.04.06-.05,0,0,.02-.02.03-.03.02-.02.04-.04.06-.05.04-.03.08-.06.13-.09.02-.01.04-.03.06-.04,0,0,.02-.01.03-.02.02-.02.04-.03.05-.05,0,0,.02-.02.03-.03.02-.02.03-.04.05-.06,0-.01.02-.02.03-.03.02-.02.04-.04.06-.06.06-.06.12-.12.19-.17.02-.02.04-.03.07-.04.01,0,.02-.01.03-.02.02-.02.04-.03.06-.05,0,0,.02-.02.03-.03.02-.02.04-.04.05-.05,0,0,.02-.02.03-.03.02-.02.04-.04.05-.06,0-.01.02-.02.03-.03.02-.02.04-.04.06-.06.06-.06.12-.12.19-.16.02-.02.04-.03.07-.04.01,0,.02-.01.03-.02.02-.02.04-.03.06-.05,0,0,.02-.02.03-.02.02-.02.03-.03.05-.05,0,0,.02-.02.02-.02.02-.02.03-.03.05-.05,0,0,.02-.02.02-.02.02-.02.03-.03.05-.04.02-.01.04-.02.06-.03.02-.01.04-.02.06-.04,0,0,.02-.01.03-.02.02-.02.03-.03.05-.05,0,0,.02-.02.02-.03.02-.02.03-.04.05-.06,0-.01.02-.02.03-.03.02-.02.04-.04.06-.06.08-.08.16-.17.26-.23.02-.02.05-.03.07-.05.01,0,.02-.02.03-.02.02-.02.04-.03.06-.05,0,0,.02-.02.03-.03.02-.02.04-.04.06-.06,0-.01.02-.02.03-.03.02-.02.04-.04.06-.06.09-.09.18-.18.28-.25.03-.02.07-.05.1-.08.1-.08.18-.18.29-.25.02-.02.05-.03.07-.05.01,0,.02-.02.03-.02.02-.02.04-.04.06-.05,0,0,.02-.02.03-.03.02-.02.04-.04.06-.06.09-.08.17-.17.27-.24.02-.02.04-.03.07-.04.01,0,.02-.01.03-.02.02-.02.04-.03.06-.05,0,0,.02-.02.03-.03.02-.02.04-.04.05-.05,0,0,.02-.02.03-.03.02-.02.04-.04.05-.06,0-.01.02-.02.03-.03.02-.02.04-.04.06-.06.17-.18.38-.33.58-.49.02-.02.05-.03.07-.05.01,0,.02-.02.03-.02.02-.02.04-.03.06-.05,0,0,.02-.02.03-.03.02-.02.04-.04.06-.06,0-.01.02-.02.03-.03.02-.02.04-.04.06-.06.08-.08.16-.17.26-.23.02-.02.05-.03.07-.04.01,0,.02-.01.03-.02.02-.02.04-.03.06-.05,0,0,.02-.02.03-.03.02-.02.03-.03.05-.05,0,0,.02-.02.03-.03.02-.02.03-.03.05-.05.04-.03.08-.06.12-.08.02-.01.04-.03.06-.04,0,0,.02-.01.03-.02.02-.02.03-.03.05-.05,0,0,.02-.02.02-.02.02-.02.03-.03.05-.05.03-.03.05-.05.08-.08.03-.03.05-.06.08-.09.05-.05.1-.1.15-.15.02-.02.04-.04.06-.06,0,0,.02-.02.03-.03.02-.02.04-.03.06-.05.03-.02.05-.05.08-.07.02-.02.03-.03.05-.05,0,0,.02-.02.02-.02.02-.02.03-.03.05-.05,0,0,.02-.02.02-.02.01-.02.03-.03.05-.05,0,0,.02-.02.02-.02.01-.02.03-.03.04-.05,0,0,.02-.02.02-.03.01-.02.02-.04.03-.06,0-.02.02-.04.03-.06.02-.03.04-.05.07-.08.02-.03.05-.05.07-.08.01-.02.03-.04.05-.06,0-.01.01-.02.02-.03.01-.02.03-.04.04-.06.03-.05.07-.1.12-.15.02-.03.05-.06.07-.09.02-.04.05-.08.08-.12.02-.03.04-.06.06-.09,0-.02.02-.04.03-.06.01-.02.03-.04.04-.06,0-.01.01-.02.02-.03.02-.03.03-.06.04-.1.02-.04.04-.09.07-.12.02-.03.04-.06.06-.09,0-.02.02-.04.03-.06.02-.03.03-.06.05-.09.02-.04.05-.08.07-.12.02-.03.03-.06.04-.09,0-.02.01-.04.02-.06.01-.03.03-.06.05-.09,0-.02.02-.04.03-.06.02-.03.03-.06.05-.1,0-.02.02-.05.03-.07.01-.04.02-.08.04-.11.02-.05.04-.1.06-.15.02-.04.03-.07.04-.11.01-.04.02-.07.04-.11.01-.04.03-.07.05-.1,0-.02.02-.05.03-.07.02-.05.03-.1.03-.15,0-.03.01-.05.02-.07.02-.03.04-.07.06-.1.03-.06.04-.12.03-.19,0-.06,0-.11,0-.17,0-.03.01-.06.02-.09.02-.06.02-.13.03-.19.02-.08,0-.2.14-.21.03.03.06.06.07.1.02.14,0,.29,0,.43,0,12.84,0,25.67,0,38.51,0,.14,0,.29-.01.43-.06.16.02.34-.05.5h0c-.07.09-.02.19-.04.28,0,.03,0,.06-.02.08-.01.07-.03.14-.04.21-.01.07.02.15-.03.22h0c-.06.06-.01.14-.06.2h0c-.08.07,0,.19-.06.27,0,.04-.01.08-.02.11-.03.04-.02.1-.05.14,0,.02-.01.04-.01.05-.03.04-.02.1-.06.14h0s-.03.09-.05.14c0,.02,0,.03-.02.05-.03.04-.02.1-.06.14h0c-.07.05,0,.14-.07.19h0s-.04.04-.05.08h0s-.04.08-.04.13c0,.02-.01.05-.03.07h0s-.04.04-.05.08c0,.02-.01.04-.02.05-.01.02-.02.04-.02.07,0,.02-.01.05-.03.07h-.01s-.02.04-.03.06c0,.02-.01.05-.03.07h-.01s-.02.04-.03.06c0,.03-.01.05-.03.07h0s-.04.04-.05.07c0,.01-.01.03-.02.05-.01.02-.03.04-.05.05-.03.02-.04.06-.04.1,0,.03-.01.05-.03.07h0s-.04.04-.06.07h0s-.05.04-.06.07c0,.02,0,.03-.01.05-.01.03-.04.05-.06.08h0s-.05.04-.06.07h0s-.05.04-.06.07Z"/>
  <path class="cls-5" d="m13.93,56.73s-.01.03-.02.05c-.01.03-.04.05-.06.08h0s-.04.04-.06.07h0s-.05.04-.06.07h0s-.05.04-.06.07c-.07.08-.14.17-.21.25-.02.03-.04.05-.07.07-.02.02-.04.04-.06.06-.02.03-.04.05-.07.07-.07.06-.13.13-.2.19-.02.06-.09.04-.12.09h0s-.05.04-.07.06h0s-.05.04-.07.06h0s-.05.05-.08.06c-.04.03-.08.05-.12.08-.03.01-.05.03-.07.06h0s-.05.04-.07.06h0s-.04.05-.07.06h0s-.09.03-.12.08h0s-.04.04-.07.06h0s-.09.03-.12.08h0s-.1.02-.13.07h0s-.05.04-.08.06h0s-.04.05-.08.06h0c-.03.05-.1.04-.14.07-.02,0-.03,0-.05.01-.03.01-.05.04-.08.05h0s-.09.04-.13.07h0s-.1.03-.13.07c-.02,0-.04,0-.05.01-.03,0-.05.03-.08.05-.02,0-.03.01-.05.02-.03.01-.05.03-.08.04-.02,0-.04,0-.06.01-.04.04-.1.03-.14.06h0c-.05.07-.15,0-.19.07h0s-.1.02-.14.06c-.02,0-.04.01-.05.01-.04.03-.1.02-.14.05h0s-.07.04-.12.04c-.06,0-.11.01-.15.05-.03,0-.05.01-.08.01-.06,0-.13-.02-.19.04h0s-.09.03-.13.03c-.08,0-.15,0-.21.06-.04.01-.09,0-.14,0-.1-.01-.18.03-.26.06-.06.01-.13,0-.19.02-.11.04-.23,0-.34.05-.03,0-.07.01-.1,0-.34,0-.68,0-1.02,0-.03,0-.07,0-.1,0-.1-.02-.19-.05-.3-.06-.08,0-.16,0-.25,0-.09-.03-.18-.07-.28-.06-.05,0-.1,0-.14-.02-.04,0-.08-.01-.12-.02-.05-.03-.1-.02-.15-.05-.04,0-.08-.01-.12-.02-.04-.03-.1-.02-.15-.05-.04,0-.08,0-.12-.01-.06-.05-.15,0-.2-.07h0c-.06-.05-.15,0-.2-.07h0s-.1-.02-.14-.06h0s-.1-.03-.14-.06h0s-.1-.03-.13-.07h0s-.1-.03-.14-.06c-.02,0-.04,0-.05,0-.04-.04-.1-.03-.14-.06h0s-.09-.03-.13-.07h0s-.09-.03-.13-.07h0s-.1-.03-.13-.07h0s-.05-.05-.08-.06h0c-.03-.05-.09-.04-.13-.08h0s-.09-.03-.13-.07h0s-.05-.04-.08-.06c-.02,0-.03-.01-.05-.02-.03-.01-.05-.04-.08-.06h0s-.04-.04-.07-.06h0c-.03-.06-.09-.04-.12-.09h0s-.05-.04-.07-.06h0s-.05-.05-.08-.06c-.02,0-.03-.01-.05-.02-.03-.01-.05-.04-.07-.06h0s-.05-.04-.07-.06h0s-.04-.05-.07-.06h0s-.05-.05-.08-.06c-.04-.03-.07-.05-.11-.08-.03-.01-.05-.04-.07-.06h0s-.05-.04-.07-.06h0s-.05-.04-.07-.06h0s-.05-.04-.07-.07h0s-.05-.04-.06-.07h0s-.05-.04-.07-.06h0s-.05-.04-.07-.07h0s-.04-.04-.06-.07h0s-.05-.04-.06-.07h0s-.05-.04-.07-.07c-.05-.06-.1-.12-.14-.18-.01-.03-.03-.05-.06-.07h0s-.04-.04-.06-.07h0s-.05-.04-.06-.07h0c-.05-.02-.03-.1-.08-.12h0s-.04-.05-.06-.08h0s-.04-.04-.06-.07c-.03-.04-.05-.08-.08-.12-.05-.07-.08-.14-.13-.2h0s-.02-.1-.08-.13h0s-.04-.05-.05-.08h0s-.03-.1-.07-.13h0s-.04-.05-.05-.08c0-.02-.01-.04-.02-.05-.02-.03-.04-.05-.05-.08,0-.02,0-.03-.01-.05-.03-.04-.02-.1-.06-.14h0s-.02-.1-.07-.13h0s-.02-.1-.06-.14h0s-.03-.1-.06-.13h0s-.03-.09-.06-.14h0s-.04-.09-.06-.14c0-.02,0-.04,0-.05-.06-.05,0-.15-.07-.2h0c-.06-.05,0-.15-.07-.2,0-.02,0-.04-.01-.06-.02-.05-.02-.1-.05-.15,0-.02-.01-.04-.01-.06-.05-.06,0-.15-.06-.2h0s-.03-.08-.03-.12c0-.07.02-.15-.03-.21h-.01s-.03-.08-.03-.12c0-.07.02-.15-.03-.21h0c-.06-.13-.02-.27-.03-.4,0-.1,0-.21-.02-.31-.01-.09,0-.18,0-.26,0-12.8,0-25.6,0-38.4,0-.04,0-.08,0-.11.01-.03.03-.06.06-.08.06,0,.09.03.11.07.02.04.03.08.05.11.01.02.02.05.03.07.01.02.02.04.03.07.01.02.02.04.03.07.01.05.01.09.02.14,0,.03.01.07.02.1,0,.02.02.04.02.06.01.03.03.06.04.09.01.02.02.04.03.06.02.03.03.06.04.09.01.02.02.04.03.06.01.03.03.06.04.09.01.03.02.06.03.1,0,.03.02.06.04.09.01.02.02.04.03.06.01.02.02.04.03.06.01.02.02.04.03.06.01.02.02.04.03.06.01.02.02.04.03.06,0,.02.01.04.02.07,0,.02.02.04.03.06,0,0,.02.03.02.03.01.02.03.03.04.05.01.02.02.04.03.06.01.03.02.06.03.09,0,.02.02.04.03.05,0,0,.02.03.02.03.01.02.03.03.04.05.01.02.02.04.03.06.01.02.02.04.03.05,0,0,.02.03.02.03.01.02.03.03.04.05.01.02.02.04.03.06.01.03.03.06.04.09.01.02.02.04.03.06.01.02.02.04.03.05,0,0,.02.02.02.02.01.02.03.03.04.05,0,0,.02.03.02.03.01.02.02.04.03.06.01.02.02.04.03.05,0,0,.02.02.02.02.02.02.03.03.04.05.02.02.03.03.04.05.02.02.05.05.07.07.02.02.03.04.04.05.01.02.02.04.04.06,0,0,.01.02.02.03.01.02.03.03.04.05,0,0,.02.02.02.02.02.01.03.03.05.05,0,0,.02.02.02.02.02.01.03.03.05.05,0,0,.02.02.02.02.02.01.03.03.05.05,0,0,.02.02.02.02.02.02.03.03.04.05.01.02.02.04.03.06.01.02.02.04.03.05,0,0,.02.03.02.02.01.01.03.03.04.04,0,0,.02.02.02.02.02.01.04.02.06.03,0,0,.03.02.03.02.02.01.03.03.05.05.01.02.02.04.03.06.01.02.02.04.04.05.01.02.03.03.04.05,0,0,.02.02.02.02.02.01.03.03.04.04,0,0,.02.02.02.02.02.01.03.03.05.04,0,0,.02.02.03.02.02,0,.04.02.06.03.02,0,.04.02.06.03.02.01.04.03.05.04,0,0,.02.02.02.02.02.01.03.03.05.05,0,0,.02.02.02.02.02.01.03.03.05.05,0,0,.02.02.02.02.02.01.03.03.05.04,0,0,.03.02.03.02.02.01.04.03.06.04.03.02.05.04.07.07.02.01.03.03.05.04.02.01.04.03.06.04.02.01.04.03.05.04,0,0,.02.02.02.02.02.02.03.03.05.05,0,0,.02.02.02.02.02.01.03.03.05.05,0,0,.02.02.02.02.02.01.03.03.05.04,0,0,.02.02.03.02.02.01.04.02.06.03.02,0,.04.02.06.03.02.01.04.03.05.04,0,0,.02.02.02.02.02.01.03.03.05.05,0,0,.02.02.02.02.02.01.03.03.05.05,0,0,.02.02.02.02.02.01.03.03.05.05,0,0,.02.02.02.02.02.01.03.03.05.05,0,0,.02.02.02.02.02.01.03.03.05.04,0,0,.02.02.02.02.02.01.03.03.05.04,0,0,.02.02.03.02.02.01.04.02.06.03.02,0,.04.02.06.03.02.01.04.03.05.04,0,0,.02.02.02.02.02.02.03.03.05.05,0,0,.02.02.02.02.02.02.03.03.05.05,0,0,.02.02.03.02.02.02.04.03.06.05.01,0,.02.01.03.02.02.01.05.03.07.04.07.05.13.1.19.16.02.02.04.04.06.06,0,0,.02.02.03.03.02.02.03.04.05.05,0,0,.02.02.02.03.02.02.03.03.05.05,0,0,.02.02.02.02.02.01.03.03.05.05,0,0,.03.02.03.02.02.01.04.02.06.03.02,0,.04.02.06.03.02.01.04.03.05.04,0,0,.02.02.02.02.02.02.03.03.05.05,0,0,.02.02.02.02.02.02.03.03.05.05,0,0,.02.02.02.02.02.02.03.03.05.05,0,0,.02.02.02.02.02.01.03.03.05.04,0,0,.02.01.03.02.02.01.04.02.06.04.03.02.06.04.09.06.02.02.04.03.05.05,0,0,.02.02.03.03.02.02.03.03.05.05,0,0,.02.02.02.03.02.02.03.03.05.05,0,0,.02.02.02.02.02.02.03.03.05.05.01,0,.02.01.03.02.04.03.09.05.13.08.05.04.1.09.15.14.02.02.04.04.06.06,0,0,.02.02.03.03.02.02.03.04.05.05,0,0,.02.02.02.03.02.02.03.03.05.05,0,0,.02.02.02.02.02.01.03.03.05.05,0,0,.03.02.03.02.02.01.04.02.06.03.02,0,.04.02.06.03.02.01.04.03.05.04,0,0,.02.02.02.02.02.01.03.03.05.05,0,0,.02.02.02.02.02.01.03.03.05.05,0,0,.02.02.02.02.02.01.03.03.05.05,0,0,.02.02.02.02.02.01.03.03.05.05,0,0,.02.02.02.02.02.01.03.03.05.04,0,0,.02.01.03.02.02.01.04.02.06.04.03.02.06.04.09.06.02.02.04.03.05.05,0,0,.02.02.03.03.02.02.03.03.05.05,0,0,.02.02.02.02.02.02.03.03.05.05,0,0,.02.01.03.02.02.01.04.02.06.03.02.01.04.02.06.04.02.01.04.03.05.04,0,0,.02.02.03.02.02.02.03.03.05.05.02.02.05.05.07.07.02.02.03.03.05.05,0,0,.02.02.02.02.02.02.03.03.05.05,0,0,.02.02.02.02.02.01.03.03.05.05,0,0,.02.02.02.02.02.01.03.03.05.05,0,0,.02.02.02.02.02.01.03.03.05.04,0,0,.03.02.03.02.02.01.04.02.06.03,0,0,.03.02.03.02,0,0,.03.02.03.02.02.01.04.03.05.04,0,0,.02.02.02.02.02.01.03.03.05.05,0,0,.02.02.02.02.02.01.03.03.05.04,0,0,.02.01.03.02.02.01.04.03.05.04.03.02.05.04.07.07.01.02.03.03.04.05,0,0,.02.02.02.02.02.01.04.02.05.04.02.01.04.02.06.03.02.01.04.03.05.04,0,0,.02.02.02.02.02.02.03.03.05.05,0,0,.02.02.02.02.02.01.03.03.05.05,0,0,.02.02.02.02.02.01.03.03.05.04,0,0,.02.02.03.02.02.01.04.02.06.03.02,0,.04.02.06.03.02.01.04.03.05.04,0,0,.02.02.02.02.02.01.03.03.05.05,0,0,.02.02.02.02.02.01.03.03.05.05,0,0,.02.02.02.02.02.01.03.03.05.05,0,0,.02.02.02.02.02.01.03.03.05.04,0,0,.02.02.02.02.02.01.03.03.05.04,0,0,.02.02.03.02.02.01.04.02.06.03.02,0,.04.02.06.03.02.01.04.03.05.04,0,0,.02.02.02.02.02.01.03.03.05.05,0,0,.02.02.02.02.02.01.03.03.05.05,0,0,.02.02.02.02.02.01.03.03.05.05,0,0,.02.02.02.02.02.01.03.03.05.04,0,0,.03.02.03.02.02.01.04.02.05.04.03.02.05.04.07.07.02.02.05.05.08.07.03.02.06.04.09.06.02.02.04.03.05.05,0,0,.02.02.02.03.02.02.03.03.05.05,0,0,.02.02.02.02.02.02.03.03.05.05,0,0,.02.02.02.02.02.01.03.03.05.04,0,0,.02.02.03.02.02.01.04.02.06.03.02,0,.04.02.06.03.03.02.05.04.08.06.02.01.03.03.05.05,0,0,.02.02.02.02.02.01.03.03.05.05,0,0,.02.02.02.02.02.01.03.03.05.05,0,0,.02.02.02.02.02.01.03.03.05.05,0,0,.02.02.02.02.02.01.03.03.05.04,0,0,.02.02.03.02.02.01.04.02.06.03.02,0,.04.02.06.03.02.01.04.03.05.04,0,0,.02.02.02.02.02.01.03.03.05.05,0,0,.02.02.02.02.02.01.03.03.05.05,0,0,.02.02.02.02.02.01.03.03.05.05,0,0,.02.02.02.02.02.01.03.03.05.04,0,0,.03.02.03.02.02.01.04.02.05.04.03.02.05.04.07.07.01.02.03.03.04.05,0,0,.02.02.02.02.02.02.05.04.08.05.02,0,.04.02.05.03.02.01.03.03.05.04,0,0,.02.02.02.02.02.01.03.03.05.04,0,0,.02.02.02.02.02.01.03.03.05.04,0,0,.02.02.03.02.02.01.04.02.06.03,0,0,.03.02.03.02,0,0,.03.02.03.02.02.01.03.03.05.04,0,0,.02.02.02.02.02.01.03.03.05.05,0,0,.02.02.02.02.02.01.03.03.05.05,0,0,.02.02.02.02.02.01.03.03.05.05,0,0,.02.02.02.02.02.01.03.03.05.05,0,0,.02.02.02.02.02.01.03.03.05.04,0,0,.02.02.02.02.02.01.03.03.05.04,0,0,.03.02.03.02.02.01.04.02.06.03.02,0,.04.02.06.03.02.01.04.03.05.04,0,0,.02.02.02.02.02.02.03.03.05.05,0,0,.02.02.02.02.02.02.03.03.05.05,0,0,.02.01.03.02.02.01.04.03.06.04.03.02.06.04.09.06.03.02.05.05.08.08.03.02.05.05.07.07.02.02.03.03.05.05,0,0,.02.02.02.02.02.02.03.03.05.05,0,0,.02.02.02.02.02.01.03.03.05.05,0,0,.02.02.02.02.02.01.03.03.05.04,0,0,.02.02.03.02.02.01.04.02.06.03.02,0,.04.02.06.03.02.01.04.03.05.04,0,0,.02.02.02.02.02.02.03.03.05.05,0,0,.02.02.02.02.02.02.03.03.05.05,0,0,.02.02.02.02.02.01.03.03.05.04,0,0,.02.01.03.02.02.01.04.03.05.04.03.02.05.04.07.07.01.02.03.03.04.05,0,0,.02.02.02.02.02.01.04.03.05.04,0,0,.02.01.03.02,0,0,.02.01.03.02.02.01.04.03.05.04,0,0,.02.02.02.02.02.02.03.03.05.05,0,0,.02.02.02.02.02.02.03.03.05.05,0,0,.02.02.03.02.02.02.04.03.06.05.03.02.07.04.1.06.07.05.13.1.19.16.02.02.04.04.05.06,0,0,.02.02.03.03.02.02.03.04.05.05,0,0,.02.02.02.03.02.02.03.03.05.05,0,0,.01.02.02.03.01.03.02.06.05.08h0c.09.13.06.26.06.39,0,7.56,0,15.12,0,22.67,0,.11,0,.22-.03.33-.02.18,0,.35,0,.53,0,.04,0,.07,0,.11-.04.1-.02.21-.06.32-.02.1.02.21-.04.31h0c-.06.08-.02.18-.03.27,0,.05,0,.09-.03.13h0s-.02.09-.04.14c0,.04-.01.08-.02.12-.05.06,0,.15-.06.2h0s-.03.1-.03.15c0,.04,0,.08-.03.11h0s-.02.1-.06.13h0c-.06.05,0,.14-.07.2h0s-.02.1-.06.13c0,.02,0,.04-.01.06-.01.03-.02.07-.05.1-.04.03-.05.08-.07.12,0,.02,0,.04-.01.05-.04.04-.02.1-.06.13h0s-.03.1-.07.13h0s-.02.1-.07.13h0s-.04.05-.05.08c0,.02-.01.03-.02.05-.01.03-.04.05-.05.08,0,.02-.01.03-.02.05-.01.03-.04.05-.05.08h0s-.05.04-.05.07h0c-.05.02-.04.09-.07.13h0c-.06.06-.09.13-.13.2h0s-.05.04-.06.08c0,.02-.01.03-.02.05-.01.03-.04.05-.06.08h0s-.04.04-.06.07h0s-.05.04-.06.07Z"/>
  <path class="cls-4" d="m52.64,25.06s-.09.09-.13.13c-.03.02-.05.04-.08.06l-.13.13s-.04.05-.07.07c-.01,0-.03.01-.04.01-.04,0-.06.03-.08.06h0s-.05.04-.07.07h0s-.05.04-.07.07h0s-.05.04-.07.07h0s-.05.04-.07.06c-.08.07-.16.14-.25.21-.03.01-.06.04-.08.06h0s-.05.04-.07.07h0s-.04.04-.07.07h0s-.04.04-.07.07h0s-.05.05-.08.06c-.08.07-.16.14-.25.21-.03.02-.05.04-.08.05-.08.07-.16.14-.25.22-.03,0-.06.03-.08.06h0s-.05.04-.07.07h0s-.05.04-.07.07h0s-.05.04-.07.07h0s-.05.04-.08.06c-.1.09-.21.19-.31.28-.03.01-.05.04-.08.06h0s-.04.05-.07.07h0s-.04.05-.07.06h0s-.05.05-.07.07c-.01,0-.03.01-.04.01-.03.01-.06.03-.08.06-.02.02-.04.04-.06.07-.03.02-.05.04-.07.07h0s-.05.04-.07.06h0s-.05.05-.08.07c-.08.07-.17.14-.25.21-.03.01-.05.03-.08.06h0s-.04.04-.07.07h0s-.04.04-.07.07h0s-.05.04-.07.06c-.11.09-.21.18-.32.27-.05.02-.08,0-.1-.04-.01-2.07,0-4.15,0-6.22,0-4.74,0-9.48,0-14.23,0-.04,0-.09.03-.13h0s.04-.04.07-.05h0s.05-.05.07-.07h0s.04-.05.07-.07c.02-.02.04-.04.06-.06.02-.03.04-.05.07-.07.02,0,.03,0,.05-.01.03-.01.05-.03.08-.06h0s.05-.04.07-.07h0s.05-.04.07-.07h0s.04-.04.07-.07h0s.05-.05.08-.06c.01,0,.03-.01.04-.01.03-.02.06-.04.07-.07h0s.05-.04.07-.07h0s.05-.04.07-.06h0s.05-.05.07-.06h0s.04-.05.07-.07h0s.04-.05.07-.07h0s.04-.05.07-.07h0s.1-.03.12-.08h0s.05-.04.07-.06h0s.05-.04.07-.07h0s.05-.04.07-.06h0s.05-.05.08-.06c.08-.07.16-.14.25-.21.03-.01.05-.04.08-.06h0s.05-.04.07-.07h0s.05-.04.07-.07h0s.04-.04.07-.06h0s.05-.05.08-.06c.08-.07.16-.14.24-.21.03-.01.05-.04.08-.05.02-.02.04-.05.07-.07.02-.03.04-.05.07-.07h0s.04-.05.07-.07c.11-.07.21-.14.32-.21.03-.02.05-.04.07-.06h0s.04-.05.07-.07h0s.09-.03.13-.06h0s.04-.05.07-.07h0s.04-.05.07-.06h0s.1-.04.14-.07c.02,0,.03,0,.05-.01.03-.01.05-.04.08-.05.02,0,.03-.01.05-.02.03-.01.05-.04.08-.05h0s.1-.03.13-.08h0s.05-.04.08-.05c.02,0,.03-.01.05-.02.03-.01.05-.04.08-.05.02,0,.03-.01.05-.02.03-.01.05-.04.08-.05.02,0,.03-.01.05-.02.03-.01.05-.04.08-.05h0s.07-.04.11-.04c.05,0,.11.01.15-.04h0s.05-.04.08-.05c.02,0,.03-.01.05-.02.04-.03.1-.02.15-.05.02,0,.04,0,.05-.02.03-.01.05-.04.08-.04.04,0,.08-.01.11-.02.04-.03.1-.02.14-.06h0s.11-.03.16-.03c.07,0,.13,0,.19-.04.02-.01.05-.02.07-.03.04,0,.08,0,.11-.03h0c.06-.06.15-.01.21-.07h0s.09-.04.14-.04c.11,0,.23.03.33-.06.07-.01.13,0,.2,0,.15-.02.31.04.45-.03h0c.29-.05.58-.06.87,0h0c.13.06.26.02.39.03.07,0,.13,0,.2,0,.07.06.15.06.23.06.08,0,.17-.02.25.03.02,0,.04,0,.05.01.1.07.24-.02.34.06h0s.1.03.14.06h0c.06.06.15.01.2.07h0c.05.07.15.01.2.07.02,0,.04,0,.05.01.09.05.18.09.28.12.02,0,.04,0,.05.01.03.02.06.03.1.03.03,0,.07,0,.1,0,.03.02.05.04.08.06.02,0,.04.02.06.03h0s.1.03.14.06h0s.1.03.14.07c.02,0,.03,0,.05.02.03,0,.05.03.08.05h0s.05.05.08.06c.04,0,.07.01.11.02.03,0,.06.03.08.05h0s.04.05.07.06h0c.03.05.1.03.13.07.02,0,.03,0,.05.01.03,0,.06.03.08.06h0s.1.03.13.07h0s.05.04.06.07h0s.05.04.08.05h0s.04.03.06.04c.03,0,.05.02.07.04h0s.05.04.08.06c.05.04.09.08.14.12.02.06.09.05.12.08h0c.04.06.08.11.15.13.01,0,.03,0,.04,0,.03.02.06.04.07.08,0,.01,0,.02,0,.03.02.03.05.05.08.07.03.04.08.04.12.08h0s.02.1.09.12c.01,0,.02,0,.04.01.03.02.05.04.07.07h0s.05.04.07.06h0s.04.05.07.07h0s.05.05.07.07h0s.04.04.06.07h0s.05.04.07.07h0s.05.04.06.07h0s.05.04.07.07l.08.11s.05.04.07.06c.01.02.02.04.02.06,0,.04.02.06.04.09h0s.03.07.06.09c.02,0,.05.02.06.04h0s.05.04.07.07h0s.03.09.07.13h0s.05.04.07.07h0s.03.04.04.06c0,.05,0,.1.04.13h0s.04.05.06.07h0s.02.1.07.13h0s.02.1.06.13h0s.04.05.06.07h0s.03.1.07.13h0s.04.04.05.08c0,.04.01.07.02.11.03.04.01.11.07.14h0s.03.09.07.13c.01.02.02.05.02.07,0,.04,0,.08.04.1.02,0,.04.03.05.05,0,.02,0,.03.02.05.02.03.03.07.03.11.01.05.03.09.05.14.02.03.03.07.05.1h0c.07.06.02.15.06.21l.02.11c.05.06,0,.15.06.21h0s.03.05.03.07c0,.08-.02.17.04.24.03.05.02.11.05.15h0c.05.07.02.16.03.24.01.1-.03.2.03.29h0c.06.17,0,.35.04.53.05.29.01.58.02.87,0,.13,0,.25,0,.38,0,.03,0,.07-.01.1-.04.11-.03.23-.11.32,0,.08-.01.17-.02.25-.03.04-.02.1-.05.14,0,.02-.02.04-.02.06-.04.07-.02.14-.02.21,0,.04,0,.08-.01.13-.04.04-.06.09-.08.15,0,.02,0,.04-.01.05-.05.06,0,.15-.06.2h0s-.03.1-.05.14c0,.04-.01.07-.02.11-.01.03-.03.05-.04.08l-.08.19s-.03.1-.06.14c0,.02,0,.04-.02.05-.01.03-.04.05-.05.08,0,.02,0,.03-.02.05-.01.03-.04.05-.05.08,0,.02-.01.04-.02.05-.03.04-.02.1-.06.13-.02.04-.05.09-.07.13-.02.03-.04.05-.05.08,0,.02-.01.04-.02.05-.02.03-.04.05-.06.07-.02.04-.05.08-.07.13-.04.03-.02.1-.07.13h0s-.04.05-.05.08c0,.02-.01.03-.02.05-.01.03-.04.05-.05.08-.03.04-.05.08-.08.12-.02.03-.04.05-.06.08-.05.06-.1.12-.14.19-.02.03-.04.05-.06.07h0s-.05.04-.06.08c-.02.02-.04.04-.06.06-.04,0-.06.03-.08.06,0,.02-.01.03-.01.05,0,.03-.03.06-.06.08h0s-.04.05-.06.07h0s-.04.04-.06.07h0s-.05.04-.06.07h0s-.05.04-.07.07c-.02.02-.04.04-.06.06-.03.01-.05.04-.08.06h0s-.04.05-.06.07c-.04.09-.12.14-.19.2-.03.02-.05.04-.07.07-.02.02-.04.04-.07.06-.03.02-.05.04-.07.06h0s-.04.05-.07.07h0s-.04.04-.07.06c-.04.03-.07.05-.11.08-.03,0-.06.03-.08.06h0s-.05.04-.07.07h0s-.05.04-.07.07h0s-.04.04-.07.06c-.11.09-.21.19-.32.28-.03.01-.05.04-.08.06h0s-.04.04-.07.07h0s-.04.04-.07.07h0s-.05.04-.07.06c-.21.18-.43.36-.64.54-.03.01-.06.03-.08.06h0s-.05.04-.07.07h0s-.05.04-.07.07h0s-.04.04-.07.07h0s-.05.05-.08.06c-.11.09-.21.19-.32.28-.03.02-.05.04-.07.06h0s-.04.04-.07.06h0s-.05.05-.07.07c-.11.09-.21.18-.32.27-.03.02-.05.04-.08.06-.11.09-.21.18-.32.27-.02.02-.05.04-.07.06h0s-.05.04-.07.07h0s-.04.04-.07.07h0s-.05.04-.07.06c-.11.09-.22.18-.32.27-.02.02-.05.04-.07.06h0s-.04.04-.07.06h0s-.05.05-.07.07h0s-.04.04-.07.06c-.02,0-.03.01-.05.02-.03.01-.06.03-.08.06h0s-.05.04-.07.07h0s-.05.04-.07.06h0s-.05.04-.07.06h0s-.05.05-.08.06c-.08.07-.17.14-.25.21-.03.01-.05.04-.08.06h0s-.04.04-.07.07h0s-.04.04-.07.07h0s-.04.04-.07.07h0s-.05.05-.08.06l-.25.22s-.05.03-.07.05h0s-.04.05-.06.06h0s-.04.05-.07.07h0s-.04.04-.07.06c-.04.03-.08.05-.12.08-.03.02-.05.04-.07.06h0s-.05.04-.07.07c-.15.13-.31.26-.46.39-.02.02-.05.04-.07.06h0s-.05.04-.07.07h0s-.05.04-.07.07h0s-.05.05-.07.06c-.08.07-.16.14-.25.21-.03,0-.06.04-.08.05h0s-.05.05-.07.07c-.02.02-.04.04-.06.07-.02.03-.04.05-.07.06-.04.03-.08.05-.12.08-.03.02-.05.04-.07.06h0s-.05.04-.07.07h0s-.05.04-.07.07h0s-.05.04-.07.06l-.32.28s-.05.04-.08.06h0s-.04.04-.07.07h0s-.04.04-.07.07h0s-.1.03-.13.07c-.02.02-.04.04-.06.06-.03.02-.05.04-.07.07Z"/>
  <path class="cls-1" d="m6.49,20.81c-.06-.06-.13-.13-.19-.19-.03-.05-.09-.04-.13-.08h0s-.04-.04-.07-.06h0s-.04-.05-.07-.07h0s-.04-.05-.07-.06h0s-.05-.05-.08-.06c-.04-.03-.07-.05-.11-.08-.03-.02-.05-.04-.07-.07h0s-.05-.04-.07-.06h0s-.05-.04-.08-.06h0s-.04-.05-.07-.07h0s-.04-.05-.07-.07h0s-.04-.05-.07-.07c-.01,0-.03,0-.04-.01-.03-.01-.06-.03-.08-.06h0s-.05-.04-.07-.07h0s-.05-.04-.07-.06h0s-.05-.04-.07-.07h0s-.05-.05-.08-.06c-.08-.07-.16-.14-.24-.21-.03-.01-.06-.04-.08-.06h0s-.05-.05-.07-.07h0s-.04-.05-.06-.07h0s-.04-.05-.07-.07h0s-.04-.05-.07-.06c-.01,0-.03-.01-.04-.01-.03-.01-.06-.03-.08-.06h0s-.05-.04-.07-.07h0s-.05-.04-.07-.07h0s-.04-.04-.07-.06h0s-.04-.05-.07-.07h0s-.04-.05-.07-.07h0s-.04-.05-.07-.07h0s-.04-.05-.08-.06c-.02,0-.03,0-.05-.01-.03-.02-.05-.04-.07-.06h0s-.05-.04-.07-.06h0s-.05-.04-.07-.07h0s-.04-.04-.07-.06h0s-.05-.05-.08-.06c-.01,0-.03,0-.04-.01-.03-.01-.06-.04-.07-.07-.02-.02-.04-.04-.06-.06-.03-.01-.05-.04-.08-.06h0s-.05-.05-.07-.06h0s-.04-.05-.07-.07h0s-.04-.05-.06-.07h0s-.04-.05-.07-.06c-.01,0-.03-.01-.04-.01-.03,0-.06-.03-.08-.06h0s-.05-.04-.07-.07h0s-.05-.04-.07-.07h0s-.05-.04-.07-.07h0s-.03-.1-.08-.12h0s-.04-.04-.07-.04c-.03,0-.05-.02-.07-.04h0s-.05-.04-.07-.07h0s-.05-.04-.07-.07c0-.01-.01-.03-.01-.05,0-.03-.03-.06-.06-.08h0s-.04-.05-.07-.06h0s-.04-.05-.06-.07h0s-.04-.04-.05-.07h0s-.05-.04-.08-.06h0s-.05-.05-.06-.08c0-.02-.01-.03-.02-.05-.04-.05-.09-.09-.12-.15h0s-.05-.04-.06-.07h0s-.03-.04-.04-.06c0-.03-.02-.05-.03-.07h0s-.04-.04-.06-.07h0s-.05-.04-.06-.07c0-.02,0-.03-.01-.05-.01-.03-.04-.05-.05-.08,0-.02-.01-.03-.02-.05-.01-.03-.04-.05-.05-.08h0s-.02-.04-.03-.06c0-.04,0-.07-.04-.1-.02,0-.04-.02-.06-.04h0s-.03-.03-.04-.06c0-.05,0-.1-.04-.13h0s-.04-.04-.05-.07h0s-.03-.04-.03-.06c0-.05,0-.1-.04-.13h0s-.04-.05-.05-.08c0-.02-.01-.03-.02-.05-.01-.03-.03-.05-.05-.08,0-.02-.01-.03-.02-.05-.01-.03-.03-.05-.05-.08,0-.04-.01-.07-.02-.11,0-.03-.03-.06-.05-.08,0-.02-.02-.03-.02-.05-.03-.04-.01-.1-.06-.14h0s-.02-.1-.06-.14h0s-.03-.08-.03-.12c-.01-.07.03-.15-.04-.2h0s-.03-.05-.05-.07c0-.02-.01-.04-.02-.06-.01-.02-.02-.04-.02-.07,0-.05,0-.1-.03-.14h-.01c-.07-.06-.08-.16-.11-.24-.01-.04-.02-.09-.02-.13,0-.09,0-.18-.02-.26-.01-.03-.02-.06-.02-.09,0-.09,0-.18-.01-.27-.04-.14,0-.29-.03-.43-.01-.03-.02-.06-.02-.1,0-.24,0-.48,0-.71,0-.03,0-.07.02-.1.04-.17-.01-.35.04-.51.03-.08-.02-.18.04-.25h0c.04-.06.02-.14.03-.21,0-.03,0-.06.02-.08.02-.07.02-.14.04-.21,0-.06,0-.12.03-.16h0c.06-.05,0-.14.06-.2h0s.03-.08.03-.13c0-.02.01-.05.02-.07h.01c.05-.05,0-.14.06-.2h0s.04-.06.04-.1c0-.03.01-.05.02-.07.01-.05.01-.1.03-.15,0-.03.02-.05.04-.07h0s.03-.04.03-.06c0-.03.02-.05.03-.07h0s.02-.09.02-.14c0-.03,0-.05.02-.07.04-.03.05-.08.08-.12h0s.03-.1.06-.14c.03-.04.06-.08.08-.12.02-.03.03-.05.05-.07h0s.04-.06.04-.09c0-.04,0-.07.04-.1h0s.02-.1.06-.13h0s.04-.05.06-.07h0c.04-.07.04-.16.13-.2h0s.04-.04.05-.07c0-.02.01-.04.02-.05.02-.03.03-.05.05-.08h0s.05-.04.08-.06h0c.05-.04.03-.11.09-.13.01,0,.03,0,.04-.01.03-.02.04-.05.04-.09,0-.04,0-.07.04-.1h0s.04-.05.06-.07h0s.05-.04.07-.07h0s.05-.04.06-.07h0s.05-.04.06-.07h0s.05-.04.07-.07h0s.03-.03.04-.06c0-.03.02-.05.04-.06h0s.04-.05.06-.07h0s.05-.03.08-.04c.03,0,.06-.02.08-.05,0-.02.02-.04.03-.06h0s.05-.04.06-.07h0s.03-.03.04-.06c0-.03.02-.05.05-.06.02,0,.03,0,.05-.02.03-.02.05-.04.07-.06h0s.04-.04.06-.06h0s.05-.04.07-.06h0s.04-.03.06-.04c.02-.01.03-.03.05-.04,0-.02.02-.04.04-.05h0s.1-.03.13-.07h0s.04-.04.06-.07h0s.05-.04.08-.06c.02,0,.03-.01.05-.01.04-.02.08-.03.1-.06,0-.02.02-.05.04-.07h0s.1-.02.12-.08c0-.01.01-.03.02-.05.02-.04.06-.04.1-.05.04-.01.07-.03.1-.05.02-.02.04-.03.06-.05h0s.04-.03.07-.03c.03,0,.05-.01.07-.02.02,0,.03-.01.05-.02.03-.01.06-.04.07-.06h0s.1-.02.14-.06h0s.1-.02.13-.08h0s.05-.04.08-.05h0s.06-.04.1-.04c.04,0,.07,0,.1-.03h0s.05-.03.07-.03c.03,0,.05-.01.07-.03h0s.05-.05.08-.06h0s.06-.04.1-.04c.04,0,.07,0,.11-.02.02,0,.03-.01.05-.02.04-.03.1-.02.15-.05.02,0,.03,0,.05-.01.04-.03.1-.02.14-.05h0s.04-.03.07-.04c.05,0,.1,0,.14-.03h0s.04-.03.07-.04c.06-.03.13-.02.19-.05.01,0,.02,0,.04-.01.03,0,.05-.01.07-.02.06-.02.13,0,.19-.02.02,0,.05-.02.07-.02.04,0,.07,0,.11-.03h0c.07-.06.15-.03.23-.04.08,0,.16.02.22-.05.06-.03.12-.02.18-.02.03,0,.06,0,.09,0,.05,0,.1,0,.15,0,.03,0,.07,0,.1,0,.07,0,.14-.03.21-.03.26,0,.52-.02.78.01.14.04.29.01.43.02.05,0,.1,0,.16,0,.07.02.13.04.19.06.08.02.17-.01.24.03h0s.1.04.15.04c.04,0,.08,0,.12.02h0s.1.04.15.04c.03,0,.05.01.07.03.06.05.13.03.19.04.04,0,.08,0,.12.02.02,0,.03.01.05.02.02,0,.05.02.07.03.01,0,.02.01.04.02.06.03.12.05.18.07.02,0,.04,0,.05.01.04.03.1.02.15.05.02,0,.04,0,.05.02.03.02.05.04.08.05.02,0,.03,0,.05.01.04.04.1.03.14.06h0s.1.04.14.07c.02,0,.03,0,.05.02.03.01.05.04.08.05.02,0,.03.01.05.02.03.02.06.03.09.05.03.04.08.05.12.07h0s.03.03.06.04c.01,0,.02.01.03.02.03.01.07.03.1.04.02,0,.05.02.07.03h0s.1.03.13.08h0s.1.02.13.06h0s.05.04.07.06h0s.04.04.07.06h0s.1.03.14.06h0s.04.05.07.07h0s.04.05.07.06c.02,0,.03,0,.05.01.03.01.05.04.08.06h0s.05.04.08.05c.02,0,.04.01.05.02.03.01.05.04.07.06h0s.04.05.07.07h0s.04.05.07.07h0s.04.05.07.06h0s.04.04.06.04c.03,0,.05.02.06.04h0s.05.04.07.07c.02.02.04.04.07.06.03.02.05.04.07.07h0s.05.04.08.05h0s.05.06.07.07h0s.04.05.07.07h0s.04.05.07.07h0s.04.03.06.04c.03,0,.05.02.07.03h0s.05.04.07.07h0s.04.04.07.07h0s.04.04.07.06h0s.04.05.08.06h0s.04.06.07.07h0s.04.05.07.06h0s.04.05.07.07h0s.09.03.12.07h0s.04.04.07.06h0s.04.05.07.07h0s.04.05.07.06h0s.04.05.07.06c.02,0,.03.01.05.02.03.01.05.03.07.06h0s.05.04.07.07h0s.05.04.07.06h0s.04.05.07.06h0s.04.05.07.07h0s.04.05.07.07h0s.04.05.07.06h0s.04.03.06.04c.03,0,.05.02.07.03h0s.05.05.07.07h0s.04.04.07.07h0s.04.04.07.07h0s.04.04.07.06h0s.08.04.07.09c0,5.42,0,10.84,0,16.27,0,1.3,0,2.61,0,3.91,0,.12.04.25-.06.35-.02.02-.05.02-.07,0h0s-.05-.04-.07-.07h0s-.05-.04-.07-.07h0s-.05-.04-.08-.06c-.08-.07-.16-.14-.24-.21-.02-.01-.04-.03-.05-.06-.02-.03-.07-.04-.1-.07h0s-.04-.04-.07-.07h0s-.04-.04-.07-.06h0s-.04-.05-.07-.06h0s-.04-.03-.07-.04c-.03,0-.05-.02-.06-.04h0s-.05-.04-.07-.07c-.02-.02-.04-.04-.06-.06-.03-.02-.05-.04-.08-.06h0s-.04-.05-.07-.07h0s-.04-.05-.07-.07h0s-.04-.05-.07-.07h0s-.04-.05-.07-.07c-.01,0-.03,0-.04-.01-.03-.01-.06-.03-.08-.06h0s-.05-.04-.07-.07h0s-.05-.04-.07-.07h0s-.04-.04-.07-.06h0s-.05-.05-.08-.06c-.02-.02-.04-.04-.06-.06-.01-.03-.04-.06-.07-.08-.04-.03-.07-.05-.11-.08-.03-.01-.06-.04-.08-.06h0s-.05-.05-.07-.07h0s-.04-.05-.07-.07h0s-.04-.05-.07-.06c-.01,0-.03-.01-.04-.01-.03-.01-.06-.03-.08-.06h0s-.05-.04-.07-.07h0s-.05-.04-.07-.07h0s-.05-.04-.07-.07h0s-.04-.04-.07-.06h0s-.04-.05-.07-.07h0s-.04-.05-.07-.07h0s-.04-.05-.07-.07h0s-.04-.03-.06-.04c-.03,0-.05-.02-.07-.03h0s-.05-.04-.07-.07h0s-.05-.04-.07-.07h0s-.04-.04-.07-.06h0s-.1-.02-.12-.08h0s-.05-.03-.07-.06c-.02-.02-.04-.04-.06-.06-.03-.01-.06-.04-.07-.07h0s-.05-.04-.07-.06h0s-.05-.05-.07-.07h0s-.04-.05-.07-.07h0s-.04-.05-.07-.07h0s-.04-.05-.07-.06c-.01,0-.03-.01-.04-.01-.03-.01-.06-.03-.08-.06h0s-.05-.04-.07-.07h0s-.05-.04-.07-.07h0s-.05-.04-.07-.06h0s-.05-.05-.07-.07h0s-.04-.05-.07-.07c-.02-.02-.04-.04-.06-.06-.02-.02-.04-.04-.06-.04-.03,0-.05-.02-.07-.03h0s-.05-.05-.07-.07h0s-.04-.04-.07-.06h0s-.05-.04-.07-.07h0s-.05-.04-.07-.06c-.04-.03-.07-.05-.11-.08-.04-.01-.06-.04-.08-.07-.02-.02-.04-.04-.06-.06-.03-.01-.06-.04-.08-.06h0s-.05-.04-.08-.06h0s-.04-.05-.07-.07h0s-.04-.05-.07-.07h0s-.04-.05-.07-.07h0s-.04-.05-.08-.06c-.02,0-.03,0-.04-.01-.03-.02-.05-.04-.07-.07h0s-.05-.04-.07-.07h0s-.05-.04-.07-.06h0s-.05-.05-.07-.07h0s-.04-.05-.07-.07h0s-.04-.05-.07-.07h0s-.04-.05-.07-.07c-.01,0-.03,0-.04-.01-.03-.01-.06-.03-.09-.06h0s-.05-.05-.07-.07h0s-.04-.04-.07-.06h0s-.04-.05-.07-.07h0s-.05-.05-.08-.06c-.01,0-.03-.01-.04-.01-.03-.02-.06-.04-.07-.07h0s-.05-.04-.07-.07c-.02-.02-.04-.04-.06-.06-.03-.02-.05-.04-.08-.06h0s-.04-.05-.07-.07h0s-.04-.05-.07-.07h0s-.04-.05-.07-.07h0s-.04-.03-.06-.04c-.03,0-.05-.02-.07-.04h0s-.05-.04-.07-.07h0s-.05-.04-.07-.07h0s-.05-.04-.07-.07h0s-.05-.04-.07-.06h0s-.05-.05-.08-.07c-.02-.02-.04-.04-.06-.06-.02-.03-.04-.06-.07-.07h0s-.04-.05-.07-.07c-.01,0-.03,0-.04-.01-.03-.02-.05-.04-.08-.06h0s-.05-.04-.07-.07h0s-.05-.04-.07-.07h0s-.05-.05-.08-.06c-.04-.03-.08-.05-.12-.08-.03-.02-.05-.04-.07-.07h0s-.05-.04-.07-.06h0s-.05-.04-.07-.06h0s-.05-.05-.07-.06h0s-.04-.05-.07-.07h0s-.04-.05-.07-.07h0s-.04-.05-.07-.07c-.01,0-.03,0-.04-.01-.03-.01-.06-.03-.08-.06h0s-.05-.04-.07-.07h0s-.05-.04-.07-.07h0s-.05-.04-.07-.06h0s-.05-.05-.08-.07Z"/>
</svg>