<?xml version="1.0" encoding="UTF-8"?>
<svg id="Layer_1" data-name="Layer 1" xmlns="http://www.w3.org/2000/svg" viewBox="0 0 64 64">
  <defs>
    <style>
      .cls-1 {
        fill: #ea4535;
      }

      .cls-2 {
        fill: #36a852;
      }

      .cls-3 {
        fill: #f9bc15;
      }

      .cls-4 {
        fill: #557ebf;
      }
    </style>
  </defs>
  <path class="cls-1" d="m15.22,30.55l10.41-6.02c2.43-1.43,3.28-4.54,1.85-6.97-1.43-2.43-4.54-3.28-6.97-1.85L2.54,26.06l12.68,4.49Z"/>
  <path class="cls-4" d="m23.04,45.98c1.74,0,3.49-.9,4.44-2.54,1.43-2.43.58-5.55-1.85-6.97L7.67,26.11c-2.43-1.43-5.55-.58-6.97,1.85-1.43,2.43-.58,5.55,1.85,6.97l17.96,10.36c.79.48,1.69.69,2.54.69Z"/>
  <path class="cls-3" d="m40.9,45.98c.85,0,1.74-.21,2.54-.69l17.96-10.36-12.52-4.6-10.57,6.08c-2.43,1.43-3.28,4.54-1.85,6.97.95,1.69,2.69,2.59,4.44,2.59Z"/>
  <path class="cls-2" d="m58.87,35.62c1.74,0,3.49-.9,4.44-2.54,1.43-2.43.58-5.55-1.85-6.97l-17.96-10.36c-2.43-1.43-5.55-.58-6.97,1.85-1.43,2.43-.58,5.55,1.85,6.97l17.96,10.36c.79.48,1.69.69,2.54.69Z"/>
</svg>