<?xml version="1.0" encoding="UTF-8"?>
<svg id="Layer_1" data-name="Layer 1" xmlns="http://www.w3.org/2000/svg" viewBox="0 0 64 64">
  <defs>
    <style>
      .cls-1 {
        fill: #fec10d;
      }

      .cls-1, .cls-2, .cls-3, .cls-4 {
        stroke-width: 0px;
      }

      .cls-2 {
        fill: #4faf54;
      }

      .cls-3 {
        fill: #f2483c;
      }

      .cls-4 {
        fill: #2596f2;
      }
    </style>
  </defs>
  <path class="cls-4" d="M4.71,62.92c-1.73-1.06-2.45-2.69-2.45-4.63-.02-11.47-.01-22.95-.01-34.42,0-6.06,0-12.12.03-18.17.01-1.93.67-3.59,2.47-4.58,4.06,3.91,8.11,7.83,12.17,11.74,4.52,4.36,9.08,8.67,13.57,13.06,2.09,2.04,4.35,3.93,6.19,6.22-.89.86-1.78,1.71-2.68,2.57-9.77,9.4-19.53,18.8-29.29,28.2Z"/>
  <path class="cls-3" d="M4.71,62.92c9.76-9.4,19.53-18.8,29.29-28.2.89-.86,1.78-1.71,2.67-2.57.09-.05.18-.1.27-.15.44.46.87.93,1.33,1.37,3.22,3.15,6.45,6.29,9.68,9.43-4.92,2.72-9.84,5.45-14.77,8.15-7.34,4.02-14.7,8.02-22.05,12.03-2.15,1.17-4.29,1.55-6.42-.05Z"/>
  <path class="cls-2" d="M36.95,31.99c-.09.05-.18.1-.27.15-1.84-2.3-4.1-4.18-6.19-6.23-4.49-4.39-9.05-8.71-13.57-13.06C12.86,8.94,8.81,5.03,4.75,1.11c1.75-1.34,3.67-1.48,5.54-.47,12.51,6.77,24.98,13.6,37.47,20.41.08.04.13.12.2.19-.38.39-.75.8-1.15,1.18-3.28,3.19-6.57,6.38-9.86,9.57Z"/>
  <path class="cls-1" d="M36.95,31.99c3.29-3.19,6.58-6.38,9.86-9.57.39-.38.76-.79,1.15-1.18,3.86,1.9,7.64,3.94,11.3,6.19,3.41,2.1,3.31,7.2-.23,9.33-3.6,2.17-7.38,4.03-11.08,6.03-3.23-3.14-6.45-6.28-9.68-9.43-.46-.44-.89-.91-1.33-1.37Z"/>
</svg>