<?xml version="1.0" encoding="UTF-8"?><svg id="Layer_1" xmlns="http://www.w3.org/2000/svg" viewBox="0 0 64 64"><defs><style>.cls-1{fill:#edeff0;}.cls-2{fill:#44b3e7;}</style></defs><path class="cls-2" d="M47.42,56.05h-9.25l-6.17,7.71-6.17-7.71h-9.25c-6.81,0-12.34-5.53-12.34-12.34V12.86C4.24,6.04,9.76,.52,16.58,.52h30.85c6.81,0,12.34,5.53,12.34,12.34v30.85c0,6.81-5.53,12.34-12.34,12.34Z"/><rect class="cls-1" x="24.29" y="11.31" width="4.63" height="21.59"/><rect class="cls-1" x="35.08" y="11.31" width="4.63" height="21.59"/><rect class="cls-1" x="21.2" y="14.4" width="21.59" height="4.63"/><rect class="cls-1" x="21.2" y="25.2" width="21.59" height="4.63"/><path class="cls-1" d="M32,46.79c-7.33,0-14.29-3.82-18.64-10.21-.72-1.06-.44-2.5,.61-3.21,1.06-.71,2.5-.44,3.21,.61,3.54,5.2,8.94,8.19,14.82,8.19s11.28-2.98,14.81-8.19c.72-1.06,2.16-1.33,3.21-.61,1.06,.72,1.33,2.16,.61,3.21-4.35,6.39-11.31,10.21-18.64,10.21Z"/></svg>