<?xml version="1.0" encoding="UTF-8"?><svg id="Layer_1" xmlns="http://www.w3.org/2000/svg" viewBox="0 0 64 64"><defs><style>.cls-1{fill:#0b74b9;}.cls-2{fill:#f4a522;}.cls-3{fill:#f3a422;}.cls-4{fill:#0e75b9;}</style></defs><path class="cls-4" d="M28.6,.75c3.41,.02,6.82,.15,10.22,.43,2.73,.22,5.46,.47,8.19,.71,1.56,.14,2.8,1.37,3.03,2.92,.44,3.04,.73,6.1,.84,9.18,.08,2.21,.14,4.43,.14,6.64,0,2.98-.13,5.97-.46,8.94-.17,1.55-.43,3.09-.71,4.62-.16,.88-.58,1.65-1.25,2.27-.59,.55-1.32,.73-2.09,.8-2.47,.26-4.93,.55-7.4,.74-1.79,.14-3.59,.18-5.39,.22-1.96,.04-3.92,.03-5.88,.07-.14,0-.3,.11-.41,.22-1.29,1.32-2.49,2.72-3.86,3.94-1.75,1.55-3.64,2.95-5.47,4.42-.26,.21-.53,.41-.8,.61-.48,.35-1.08,.36-1.56,.05-.48-.31-.7-.87-.59-1.44,.47-2.48,.77-4.98,.77-7.51,0-.8-.12-.96-.92-1.06-1.33-.16-2.67-.31-4.01-.42-1.56-.12-3-1.37-3.3-2.91-.72-3.67-1.17-7.38-1.3-11.11-.06-1.62-.1-3.24-.08-4.86,.06-4.47,.51-8.91,1.35-13.31,.25-1.31,1.5-2.91,3.41-3.07,2.61-.22,5.21-.52,7.82-.74,1.39-.12,2.78-.16,4.18-.21,1.85-.06,3.7-.09,5.55-.14Zm-10.24,42.4c.07-.02,.1-.02,.12-.04,1.19-.98,2.44-1.9,3.55-2.96,1.35-1.29,2.6-2.68,3.88-4.05,.35-.37,.74-.55,1.25-.55,1.91,0,3.82,0,5.73-.05,2.45-.07,4.9-.15,7.35-.32,1.97-.14,3.93-.44,5.9-.61,.66-.06,.91-.41,1.05-.96,.02-.1,.05-.19,.07-.29,.21-1.51,.47-3.01,.63-4.52,.3-2.87,.39-5.76,.4-8.64,0-3.02-.05-6.05-.32-9.06-.17-1.92-.4-3.83-.61-5.75-.06-.52-.27-.73-.77-.78-.85-.09-1.69-.17-2.54-.24-2.08-.17-4.16-.37-6.24-.5-2.44-.15-4.88-.28-7.32-.32-2.35-.04-4.71,.01-7.06,.08-1.79,.05-3.58,.13-5.36,.28-2.27,.19-4.52,.45-6.79,.69-.48,.05-.86,.37-.93,.84-.34,2.23-.73,4.45-.97,6.68-.38,3.39-.48,6.8-.3,10.21,.13,2.39,.35,4.77,.6,7.14,.15,1.4,.44,2.79,.68,4.18,.07,.4,.44,.71,.84,.75,.88,.08,1.76,.13,2.63,.24,.81,.1,1.64,.18,2.42,.42,1.34,.41,2.28,1.28,2.35,2.76,.06,1.23-.02,2.47-.07,3.7-.02,.55-.11,1.09-.16,1.66Z"/><path class="cls-3" d="M49.4,51.51c-.65-.3-1.23-.56-1.81-.84-1.53-.75-3.06-1.49-4.43-2.52-.96-.72-1.91-1.44-2.88-2.14-.46-.33-.92-.71-1.44-.87-.48-.15-1.04-.04-1.56-.04-1.57,0-3.15,.02-4.72-.03-2.14-.06-4.29-.18-6.43-.27-.02,0-.03-.02-.08-.04,.42-.45,.83-.9,1.25-1.34,.68-.73,1.36-1.47,2.05-2.19,.09-.09,.25-.17,.38-.17,1.98-.03,3.96,0,5.94-.08,2.93-.11,5.87-.23,8.8-.46,2.23-.17,4.46-.5,6.69-.76,.5-.06,.85-.36,1.13-.75,.48-.68,.66-1.47,.8-2.27,.46-2.58,.69-5.19,.85-7.8,.18-3.04,.23-6.09,.14-9.13-.08-2.6-.26-5.19-.4-7.78-.02-.44-.08-.88-.13-1.36,.93,.16,1.89,.03,2.62,.76,.36,.36,.67,.76,.75,1.28,.31,2.04,.7,4.07,.91,6.12,.23,2.21,.33,4.43,.43,6.65,.12,2.68,0,5.35-.23,8.03-.21,2.64-.57,5.26-1.07,7.86-.25,1.28-1.01,1.93-2.38,2.12-1.71,.23-3.42,.5-5.13,.78-1.17,.19-1.73,.91-1.76,2.2-.03,1.26,.36,2.41,.9,3.52,.24,.49,.52,.95,.82,1.5Z"/><path class="cls-4" d="M13.15,53.99c0,.36,0,.67,0,.97,0,.36-.09,.46-.46,.54-.16,.04-.33,.07-.5,.11,.03,.19,.07,.36,.08,.53,.05,1.06-.48,1.86-1.48,2.26-.61,.24-1.23,.28-1.87,.21-.26-.03-.41,.07-.46,.3-.05,.24,.13,.36,.32,.38,.62,.07,1.24,.11,1.86,.18,.35,.04,.71,.08,1.05,.16,1.29,.31,1.56,1.41,1.15,2.39-.29,.71-.87,1.15-1.56,1.41-1.28,.47-2.56,.44-3.82-.05-.44-.17-.81-.45-1.02-.9-.29-.6-.14-1.24,.39-1.64,.15-.11,.31-.2,.5-.32-.45-.3-.61-.72-.51-1.21,.09-.49,.43-.81,.88-1.05-.08-.06-.15-.11-.21-.16-1.29-.92-1.24-2.8,.12-3.61,.97-.58,2.01-.62,3.06-.27,.33,.11,.62,.12,.95,.05,.5-.11,1.01-.19,1.55-.29Zm-3.72,6.89s0,.02,0,.03c-.27-.02-.53-.03-.8-.04-.06,0-.12,0-.17,.02-.27,.11-.5,.46-.49,.75,0,.31,.15,.54,.53,.62,.44,.09,.9,.13,1.34,.12,.34,0,.68-.1,1-.21,.27-.1,.4-.35,.38-.64-.02-.29-.24-.41-.48-.45-.43-.08-.88-.13-1.31-.19Zm0-3.44c.72,0,1.14-.4,1.14-1.07,0-.67-.39-1.03-1.13-1.03-.73,0-1.14,.36-1.15,1.01,0,.66,.43,1.08,1.13,1.08Z"/><path class="cls-2" d="M53.53,60.84v2.72h-1.92v-9.54c.44,0,.88-.03,1.31,.02,.13,.01,.28,.2,.34,.35,.08,.18,.09,.4,.15,.66,.12-.1,.21-.18,.3-.26,1.36-1.26,3.33-.95,4.11,.66,.19,.38,.31,.82,.38,1.24,.17,1.05,.12,2.09-.38,3.06-.83,1.64-2.63,2.13-4.18,1.13-.02-.01-.05-.01-.11-.03Zm0-2.99c0,.44,0,.89,0,1.33,0,.11,.03,.25,.1,.32,.56,.59,1.91,.73,2.38-.33,.43-.98,.4-2,.03-3-.13-.35-.41-.57-.8-.63-.63-.1-1.15,.12-1.56,.58-.08,.09-.14,.24-.14,.36-.02,.45,0,.91,0,1.36Z"/><path class="cls-1" d="M23.86,60.79v2.77h-1.9v-9.54c.44,0,.88-.03,1.32,.02,.12,.01,.27,.21,.33,.36,.08,.18,.09,.4,.14,.64,.14-.12,.26-.22,.38-.33,.53-.46,1.14-.69,1.84-.69,.82,0,1.47,.33,1.95,1,1.01,1.42,.91,4.07-.18,5.38-.97,1.17-2.8,1.28-3.74,.48-.03-.02-.06-.04-.14-.08Zm0-2.95c0,.45,0,.91,0,1.36,0,.1,.04,.22,.1,.29,.68,.76,2.01,.58,2.41-.35,.4-.96,.39-1.94,.03-2.92-.18-.49-.57-.71-1.09-.71-.49,0-.89,.19-1.24,.54-.15,.15-.23,.3-.22,.52,.02,.42,0,.85,0,1.27Z"/><path class="cls-2" d="M42.24,61.27h-1.88v-.33c0-1.37-.01-2.75,0-4.12,.01-1.38-1.04-1.51-1.85-1.13-.06,.03-.12,.07-.18,.1-.34,.18-.49,.42-.48,.85,.04,1.43,.01,2.87,.01,4.3v.35c-.61,0-1.2,0-1.78,0-.05,0-.12-.09-.16-.16-.02-.04,0-.1,0-.15,0-3.23,0-6.47,0-9.7,0-.09,0-.17,.01-.28h1.92v3.8c.24-.16,.44-.3,.65-.42,1-.58,2.37-.41,3.11,.39,.41,.44,.61,.98,.63,1.57,.03,1.62,.02,3.24,.02,4.87,0,.02-.01,.04-.03,.07Z"/><path class="cls-2" d="M48.11,54.02h1.92v7.26c-.42,0-.83,0-1.24,0-.22,0-.36-.14-.41-.36-.03-.13-.07-.26-.12-.41-.16,.13-.31,.25-.46,.36-.93,.68-2.23,.74-3.09,.13-.73-.52-.99-1.28-1-2.12-.03-1.57,0-3.14,0-4.71,0-.04,.01-.07,.02-.13h1.91c0,.12,0,.24,0,.35,0,1.46-.02,2.93,.02,4.39,.02,.96,.65,1.37,1.58,1.07,.11-.04,.22-.09,.32-.14,.39-.19,.59-.45,.58-.95-.04-1.46-.01-2.93-.01-4.39v-.33Z"/><path class="cls-4" d="M20.36,54.01v7.25c-.43,0-.86,.03-1.28-.02-.14-.02-.28-.21-.37-.36-.07-.1-.07-.24-.11-.41-.13,.11-.25,.21-.37,.3-.86,.66-1.8,.81-2.79,.4-.98-.4-1.35-1.26-1.38-2.24-.04-1.61-.01-3.22-.01-4.84,0-.03,.01-.05,.02-.09h1.89v4.43s0,.1,0,.15c0,1.18,.83,1.67,1.88,1.12,.06-.03,.12-.07,.18-.1,.31-.17,.45-.39,.44-.78-.03-1.49-.01-2.99-.01-4.48,0-.11,0-.21,0-.33h1.91Z"/><path class="cls-3" d="M29.31,60.51c.18-.28,.33-.55,.51-.79,.18-.25,.49-.27,.83-.07,.43,.26,.88,.47,1.39,.41,.2-.02,.42-.07,.59-.17,.44-.25,.45-.8,.03-1.06-.26-.16-.56-.25-.84-.36-.34-.13-.7-.23-1.03-.37-.71-.3-1.16-.81-1.23-1.6-.08-.88,.24-1.57,1-2.03,1.14-.69,2.95-.54,3.97,.3,.14,.12,.17,.21,.06,.37-.5,.73-.41,.9-1.39,.48-.34-.14-.75-.16-1.12-.17-.17,0-.36,.1-.5,.21-.28,.21-.28,.61,0,.82,.23,.16,.5,.28,.76,.38,.4,.16,.83,.27,1.22,.44,1.42,.63,1.65,2.42,.44,3.43-.41,.34-.9,.53-1.43,.61-1,.14-1.95,0-2.83-.52-.14-.08-.27-.19-.43-.3Z"/><path class="cls-1" d="M26.58,28.31c-.92,0-1.53-.83-1.27-1.74,.41-1.43,.84-2.86,1.23-4.3,1.05-3.86,1.92-7.76,2.61-11.7,.11-.64,.36-1.15,1.04-1.33,.94-.25,1.82,.56,1.65,1.52-.55,3.08-.97,6.19-1.81,9.21-.69,2.49-1.46,4.96-2.2,7.43-.18,.59-.65,.91-1.25,.91Z"/><path class="cls-1" d="M16.84,19.65c1.49,.59,2.99,1.19,4.49,1.77,.52,.2,1.06,.38,1.59,.56,.7,.24,1.08,.92,.92,1.61-.16,.68-.86,1.14-1.57,.97-.56-.14-1.1-.37-1.64-.6-1.92-.81-3.83-1.62-5.75-2.45-.48-.21-.86-.55-1.18-.96-.58-.74-.33-1.95,.52-2.42,1.07-.59,2.16-1.15,3.27-1.68,1.24-.59,2.49-1.14,3.75-1.7,.44-.19,.89-.26,1.34,0,.5,.29,.73,.72,.68,1.28-.05,.54-.32,.92-.85,1.14-1.77,.73-3.53,1.49-5.29,2.23-.09,.04-.17,.09-.26,.14,0,.04,0,.08-.01,.12Z"/><path class="cls-1" d="M40.03,19.55c-1.22-.5-2.38-.97-3.54-1.44-.82-.33-1.63-.64-2.46-.95-.67-.25-1.01-.97-.78-1.67,.22-.68,.96-1.1,1.63-.84,.98,.37,1.94,.77,2.89,1.21,1.44,.67,2.87,1.36,4.3,2.07,.81,.4,1.17,1.28,.91,2.14-.17,.55-.53,.96-1.05,1.19-1.89,.84-3.79,1.67-5.7,2.49-.62,.27-1.24,.56-1.88,.78-.63,.22-1.2,0-1.55-.5-.51-.73-.18-1.71,.65-2.02,2.11-.78,4.22-1.57,6.32-2.36,.06-.02,.13-.05,.25-.1Z"/></svg>