<?xml version="1.0" encoding="UTF-8"?><svg id="Layer_1" xmlns="http://www.w3.org/2000/svg" viewBox="0 0 64 64"><defs><style>.cls-1{fill:#f16026;}.cls-2{fill:#f15f26;}.cls-3{fill:#f16027;}</style></defs><path class="cls-3" d="M33.33,63.95h-2.94c-.54,0-2.28-.31-2.62-.36-7.27-1.13-13.55-4.16-18.63-9.55C2.09,46.55-.85,37.6,.68,27.53,3.33,9.97,19.55-1.76,37.01,1c16.25,2.57,28.12,16.8,26.52,34.23-1.34,14.64-12.73,26.15-27.26,28.36-.34,.05-2.28,.35-2.93,.35Zm-1.22-55.15c-.46,.03-4.99,.3-7.44,.72-7.47,1.27-12.89,5.08-14.75,12.81-1.8,7.49-1.79,14.95,.79,22.31,1.41,4.02,3.95,7.02,7.88,8.63,8.38,3.43,16.93,3.57,25.48,.73,4.79-1.59,8.15-4.74,9.73-9.73,2.34-7.42,2.43-14.87,.48-22.33-1.46-5.56-4.77-9.46-10.43-11.32-3.85-1.27-11.27-1.84-11.73-1.81Z"/><path class="cls-1" d="M23.18,49.75c-5.04-1-7.88-4.3-8.91-9.22-1.31-6.2-1.35-12.37,.5-18.51,1.16-3.85,3.58-6.38,7.48-7.41,6.92-1.83,13.81-1.96,20.67,.34,3.35,1.12,5.5,3.39,6.53,6.72,1.97,6.37,2.02,12.84,.55,19.29-1.28,5.61-5.15,8.47-10.67,9.25-2.31,.32-13.14,.14-16.15-.46Zm15.51-7.32c2.11-.36,3.27-1.83,3.74-3.84,.95-4.07,.99-8.18,.2-12.28-.58-3.05-2.24-4.75-5.39-4.99-3.34-.25-6.73-.25-10.07,0-3.34,.25-5.18,1.94-5.74,4.83-.78,4.04-.72,8.08,.05,12.13,.43,2.24,1.72,3.64,3.84,4.14,1.99,.47,10.97,.42,13.37,0Z"/><path class="cls-2" d="M38.2,32.28c0,1.36,.02,2.71,0,4.07-.01,.94-.42,1.58-1.45,1.58-3.08,0-6.16,0-9.24-.04-1.04-.01-1.61-.65-1.6-1.67,.02-2.82,.09-5.64,.16-8.46,.03-1.17,.63-1.76,1.85-1.77,2.5-.03,4.99-.19,7.49-.15,2.23,.03,2.79,.67,2.83,2.85,.02,1.19,0,2.39,0,3.58-.01,0-.02,0-.03,0Z"/></svg>