<?xml version="1.0" encoding="UTF-8"?><svg id="Layer_1" xmlns="http://www.w3.org/2000/svg" xmlns:xlink="http://www.w3.org/1999/xlink" viewBox="0 0 64 64"><defs><style>.cls-1{fill:#fff;}.cls-2{fill:url(#radial-gradient);}.cls-3{fill:url(#radial-gradient-2);}</style><radialGradient id="radial-gradient" cx="-37.49" cy="104.6" fx="-37.49" fy="104.6" r="39.42" gradientTransform="translate(99 273) scale(2 -2)" gradientUnits="userSpaceOnUse"><stop offset="0" stop-color="#fedd57"/><stop offset=".33" stop-color="#f15844"/><stop offset=".35" stop-color="#f15649"/><stop offset=".5" stop-color="#e64872"/><stop offset=".64" stop-color="#d64092"/><stop offset=".76" stop-color="#c44398"/><stop offset=".84" stop-color="#bb469a"/></radialGradient><radialGradient id="radial-gradient-2" cx="-44.16" cy="146.24" fx="-44.16" fy="146.24" r="26.17" gradientTransform="translate(99 194.61) scale(2 -1.33)" gradientUnits="userSpaceOnUse"><stop offset="0" stop-color="#4a69b1"/><stop offset="1" stop-color="#4a69b1" stop-opacity="0"/></radialGradient></defs><path class="cls-2" d="M49.71,63.72l-35.12,.03c-7.73,0-14.05-6.31-14.06-14.03l-.03-35.12C.49,6.88,6.81,.56,14.53,.55l35.12-.03c7.73,0,14.05,6.31,14.06,14.03l.03,35.12c0,7.73-6.31,14.05-14.03,14.06Z"/><path class="cls-3" d="M49.71,63.72l-35.12,.03c-7.73,0-14.05-6.31-14.06-14.03l-.03-35.12C.49,6.88,6.81,.56,14.53,.55l35.12-.03c7.73,0,14.05,6.31,14.06,14.03l.03,35.12c0,7.73-6.31,14.05-14.03,14.06Z"/><path class="cls-1" d="M32.12,44.43c-6.78,0-12.29-5.51-12.29-12.29s5.51-12.29,12.29-12.29,12.29,5.51,12.29,12.29-5.51,12.29-12.29,12.29Zm0-21.07c-4.84,0-8.78,3.94-8.78,8.78s3.94,8.78,8.78,8.78,8.78-3.94,8.78-8.78-3.94-8.78-8.78-8.78Z"/><circle class="cls-1" cx="45.29" cy="18.97" r="2.63"/><path class="cls-1" d="M42.66,54.96H21.59c-6.78,0-12.29-5.51-12.29-12.29V21.6c0-6.78,5.51-12.29,12.29-12.29h21.07c6.78,0,12.29,5.51,12.29,12.29v21.07c0,6.78-5.51,12.29-12.29,12.29ZM21.59,12.82c-4.84,0-8.78,3.94-8.78,8.78v21.07c0,4.84,3.94,8.78,8.78,8.78h21.07c4.84,0,8.78-3.94,8.78-8.78V21.6c0-4.84-3.94-8.78-8.78-8.78H21.59Z"/></svg>