<?xml version="1.0" encoding="UTF-8"?><svg id="Layer_1" xmlns="http://www.w3.org/2000/svg" xmlns:xlink="http://www.w3.org/1999/xlink" viewBox="0 0 64 64"><defs><style>.cls-1{fill:#fff;}.cls-2{opacity:.05;}.cls-2,.cls-3{fill:#010101;isolation:isolate;}.cls-4{fill:url(#radial-gradient);}.cls-3{opacity:.07;}</style><radialGradient id="radial-gradient" cx="-85.47" cy="89.79" fx="-85.47" fy="89.79" r="36.77" gradientTransform="translate(183 -119) scale(2)" gradientUnits="userSpaceOnUse"><stop offset="0" stop-color="#4b89c8"/><stop offset=".08" stop-color="#4c7abd"/><stop offset=".23" stop-color="#5669b1"/><stop offset=".35" stop-color="#6063ac"/><stop offset=".43" stop-color="#6460ab"/><stop offset=".75" stop-color="#d54f9d"/><stop offset=".95" stop-color="#f16359"/></radialGradient></defs><path class="cls-4" d="M62.89,30.49c0,16.64-13.82,30.12-30.89,30.12-2.55,0-5.02-.3-7.39-.87-.72-.17-1.47-.11-2.13,.22l-6.76,3.38c-1.75,.87-3.8-.4-3.8-2.35v-6.22c0-.89-.4-1.72-1.05-2.32C4.85,46.97,1.11,39.16,1.11,30.49,1.11,13.86,14.93,.37,32,.37s30.89,13.48,30.89,30.12Z"/><path class="cls-2" d="M48.98,20.9c-.66,0-1.3,.22-1.85,.63l-8.79,6.51c-.21,.15-.43,.23-.67,.23s-.45-.07-.63-.21l-6.14-4.62c-1.25-.93-2.72-1.42-4.26-1.42-2.43,0-4.67,1.22-5.99,3.27l-1.87,2.92-6.36,10.34c-.61,.95-.65,2.12-.11,3.11,.55,1.01,1.6,1.64,2.72,1.64,.66,0,1.3-.22,1.85-.63l8.79-6.51c.21-.15,.43-.23,.67-.23s.45,.07,.63,.21l6.14,4.62c1.25,.93,2.72,1.42,4.26,1.42,2.43,0,4.67-1.22,5.99-3.27l1.87-2.92,6.36-10.34c.61-.95,.65-2.12,.11-3.11-.55-1.01-1.6-1.64-2.72-1.64h0Z"/><path class="cls-3" d="M48.98,21.68c-.49,0-.97,.17-1.39,.48l-8.8,6.52c-.33,.25-.72,.38-1.13,.38s-.78-.13-1.1-.36l-6.14-4.62c-1.11-.83-2.42-1.26-3.8-1.26-2.17,0-4.16,1.09-5.34,2.91l-1.87,2.92-6.36,10.33c-.46,.72-.49,1.6-.09,2.33,.41,.75,1.22,1.24,2.05,1.24,.49,0,.97-.17,1.39-.48l8.8-6.52c.33-.25,.72-.38,1.13-.38s.78,.13,1.1,.36l6.14,4.62c1.11,.83,2.42,1.26,3.8,1.26,2.17,0,4.16-1.09,5.34-2.91l1.87-2.92,6.36-10.33c.46-.72,.49-1.6,.09-2.33-.41-.75-1.21-1.24-2.05-1.24h0Z"/><path class="cls-1" d="M48.05,22.77l-8.8,6.52c-.94,.71-2.22,.71-3.15,.02l-6.14-4.62c-2.59-1.93-6.27-1.27-8.02,1.45l-1.87,2.92-6.35,10.32c-.93,1.45,.85,3.1,2.22,2.07l8.8-6.52c.94-.71,2.22-.71,3.15-.02l6.14,4.62c2.59,1.93,6.27,1.27,8.02-1.45l1.87-2.92,6.35-10.32c.93-1.45-.85-3.1-2.22-2.07Z"/></svg>