<?xml version="1.0" encoding="UTF-8"?><svg id="Layer_1" xmlns="http://www.w3.org/2000/svg" viewBox="0 0 64 64"><path d="M63.86,8.77c-9.24,9.77-18.49,19.53-28.02,29.6,1.64,1.77,4.12,4.43,7.17,7.71H17.83V21.89c.32-.24,.64-.48,.97-.73,2.02,2.93,4.03,5.87,5.53,8.05C35.46,18.71,45.33,9.41,55.19,.1c2.89,0,5.78,0,8.68,0V8.77Z"/><path d="M6.33,11.74V57.38H52.2c0-5.49-.23-11.19,.13-16.84,.12-1.93,1.74-3.77,2.68-5.64,1.05,1.94,2.86,3.82,3.02,5.84,.42,5.38,.2,10.81,.11,16.23-.07,4.35-2.41,6.73-6.76,6.75-14.81,.06-29.62,.06-44.42,0-4.35-.02-6.74-2.4-6.76-6.75-.06-14.79-.06-29.59,0-44.38,.02-4.34,2.4-6.69,6.75-6.76,5.78-.09,11.57-.26,17.33,.11,1.65,.11,3.18,1.95,4.76,3-1.7,.94-3.35,2.58-5.1,2.68-5.71,.34-11.45,.13-17.6,.13Z"/></svg>