<?xml version="1.0" encoding="UTF-8"?><svg id="Layer_1" xmlns="http://www.w3.org/2000/svg" viewBox="0 0 64 64"><defs><style>.cls-1{fill:#77c043;}</style></defs><path class="cls-1" d="M13.63,63.87h0c-3.19,0-5.77-2.58-5.77-5.77V6.15C7.86,2.96,10.45,.37,13.63,.37h0c3.19,0,5.77,2.58,5.77,5.77V58.1c0,3.19-2.58,5.77-5.77,5.77Z"/><path class="cls-1" d="M39.61,62.99h0c-2.76,1.59-6.29,.65-7.89-2.11l-11.54-20c-1.59-2.76-.65-6.29,2.11-7.89h0c2.76-1.59,6.29-.65,7.89,2.11l11.54,20c1.59,2.76,.65,6.29-2.11,7.89Z"/><path class="cls-1" d="M11.83,49.08h0c-2.25-2.25-2.25-5.91,0-8.16l21.43-21.43c2.25-2.25,5.91-2.25,8.16,0h0c2.25,2.25,2.25,5.91,0,8.16l-21.43,21.43c-2.25,2.25-5.91,2.25-8.16,0Zm40.77-12.63c-3.19,0-5.77,2.58-5.77,5.77s2.58,5.77,5.77,5.77,5.77-2.58,5.77-5.77-2.58-5.77-5.77-5.77Z"/></svg>