<?xml version="1.0" encoding="UTF-8"?>
<svg id="Layer_1" data-name="Layer 1" xmlns="http://www.w3.org/2000/svg" viewBox="0 0 64 64">
  <defs>
    <style>
      .cls-1 {
        fill: #fff;
      }

      .cls-2 {
        fill: #7951a1;
      }
    </style>
  </defs>
  <circle class="cls-1" cx="32" cy="32" r="20"/>
  <g>
    <path class="cls-2" d="m61.11,19.53c-.39-.92-.82-1.8-1.28-2.66L63.33.09l-17.76,3.02c-.41-.2-.83-.4-1.25-.58-3.85-1.69-7.95-2.53-12.31-2.53s-8.45.84-12.27,2.53c-3.82,1.69-7.16,3.97-10.03,6.84-2.87,2.88-5.14,6.26-6.8,10.16-1.67,3.9-2.5,8.05-2.5,12.47s.83,8.57,2.5,12.47c1.66,3.9,3.93,7.28,6.8,10.16,2.87,2.88,6.21,5.16,10.03,6.85,3.82,1.69,7.91,2.53,12.27,2.53s8.47-.84,12.31-2.53c3.84-1.69,7.19-3.97,10.03-6.85,2.84-2.88,5.09-6.26,6.76-10.16,1.66-3.89,2.5-8.05,2.5-12.47s-.83-8.57-2.5-12.47Zm-12.92,19.36c-.92,2.15-2.19,4.04-3.8,5.67-1.61,1.63-3.48,2.91-5.61,3.84-2.13.93-4.4,1.4-6.82,1.4s-4.69-.46-6.82-1.4c-2.13-.93-3.99-2.21-5.57-3.84-1.58-1.63-2.83-3.52-3.75-5.67-.92-2.15-1.38-4.45-1.38-6.89s.46-4.74,1.38-6.89c.92-2.15,2.17-4.04,3.75-5.67,1.58-1.63,3.44-2.9,5.57-3.84,2.13-.93,4.4-1.39,6.82-1.39s4.69.47,6.82,1.39c2.13.93,4,2.21,5.61,3.84,1.61,1.63,2.88,3.52,3.8,5.67.92,2.15,1.38,4.45,1.38,6.89s-.46,4.74-1.38,6.89Z"/>
    <path class="cls-2" d="m25.95,36.6c-1.98,0-3.58-1.61-3.58-3.58s1.61-3.58,3.58-3.58,3.58,1.61,3.58,3.58-1.61,3.58-3.58,3.58Z"/>
    <path class="cls-2" d="m38.73,36.6c-1.97,0-3.58-1.61-3.58-3.58s1.61-3.58,3.58-3.58,3.58,1.61,3.58,3.58-1.61,3.58-3.58,3.58Z"/>
  </g>
</svg>