<?xml version="1.0" encoding="UTF-8"?>
<svg id="Layer_1" data-name="Layer 1" xmlns="http://www.w3.org/2000/svg" viewBox="0 0 60 60">
  <defs>
    <style>
      .cls-1 {
        stroke: #144880;
        stroke-miterlimit: 10;
        stroke-width: .25px;
      }

      .cls-1, .cls-2 {
        fill: #11446e;
      }
    </style>
  </defs>
  <g>
    <path class="cls-2" d="m54.72,32.28h-9.12c-.49,0-.98.02-1.47,0-.26,0-.32.07-.32.32,0,2.45,0,4.89,0,7.34,0,.08,0,.16,0,.24-.18-.14-.33-.03-.45.09-.74.73-1.63,1.28-2.47,1.89-.3.22-.64.46-1.04.34-.44-.13-.79.02-1.13.24-.24.15-.27.05-.26-.16v-16.25c0-.74.86-1.44,1.59-1.3.47.09.92.26,1.37.4.81.26,1.61.58,2.44.75v.17c0,.18,0,.27.04.29.06.08.19.09.35.09.47-.02.93,0,1.4,0,1,.32,1.99.64,2.99.95,1.86.58,3.72,1.16,5.57,1.75.53.17,1.05.37,1.57.57.54.21.56.4.1.78-.28.23-.55.48-.84.7-.26.21-.4.46-.34.8h.03Z"/>
    <path class="cls-2" d="m19.28,34.76c-.05-1.53-.09-2.87-.11-3.95-.07-3.14-.05-4.63.08-6.38.03-.36.06-.66.07-.86.02-.03.04-.07.06-.1h-.01c.31-.03.58-.17.86-.31,1.38-.68,2.75-1.37,4.13-2.06.3-.15.61-.26.93-.33.33-.08.42,0,.49.33.09.42.06.84.07,1.26-.31.35-.56.71-.75,1.1,0,0-.49,1-.55,2.48v.31c0,.3,0,.45.03.49.04.04.17.04.43.04h.1c.45-.01,3.83,0,6.34,0h2.6c.1,0,.2,0,.31.01.02.16-.08.28-.16.4-.14.24-.29.5-.22.77.15.54-.06.96-.35,1.36-.62.86-1.2,1.75-1.94,2.51-.12.12-.2.23,0,.35h-6.67c-.16,0-.32,0-.46.08-.02-.08-.05-.14-.1-.17-.02,0-.08-.06-.23-.03-.21.04-.35.18-.36.2-.15.15-1.21.76-4.57,2.5h-.02Z"/>
    <path class="cls-2" d="m.26,33.64v-4.95c.17-.04.17-.19.21-.32.46-1.42.91-2.84,1.36-4.26.42-1.34.83-2.69,1.26-4.04.2-.62.31-1.26.63-1.84.15-.27.64-.55.91-.52.36.04.88.45.95.74,0,.19.01.39.01.58v12.73c-.05.17-.13.26-.33.3-.91.19-1.78.52-2.67.8-.78.24-1.55.5-2.32.76v.02Z"/>
    <path class="cls-2" d="m53.84,16.01c.72.3,1.36.72,1.97,1.2,1.36,1.06,2.44,2.35,3.2,3.89.45.91.76,1.87.92,2.88-.18.03-.27.16-.33.31-.46,1.05-.91,2.11-1.38,3.16-.19.44-.37.88-.66,1.27-.1.14-.23.3-.42.14-.13-.11-.24-.24-.32-.39-.58-1.17-1.17-2.32-1.85-3.43-.19-.31-.33-.66-.58-.93v-.02s-.04-.07-.05-.1c-.2-.66-.59-1.19-1.04-1.69.02-.14-.03-.28-.1-.39-.42-.79-.83-1.59-1.3-2.36-.4-.66-.44-1.3-.16-2.01.19-.48.62-.69,1-.94.34-.23.62-.63,1.11-.57v-.02Z"/>
    <path class="cls-2" d="m59.99,29.86c0,.23,0,.46,0,.68v12.99c.03.25-.08.25-.28.18-1.04-.38-2.08-.76-3.12-1.13-.56-.2-1.11-.41-1.67-.6-.15-.05-.22-.12-.22-.29,0-1.18,0-2.35.02-3.53.18.03.35,0,.5-.09.85-.42,1.72-.81,2.53-1.3.28-.17.45-.41.39-.77-.03-.22-.09-.45-.07-.68.07-1.06-.15-2.11-.24-3.16-.05-.61.15-1.04.48-1.5.42-.59,1.09-.59,1.67-.81h0Z"/>
    <path class="cls-2" d="m29.42,38.39c1.87.02,3.74.04,5.61.04.21,0,.29.09.31.27.02.14,0,.27,0,.41v4.28c0,.42-.03.45-.45.44-1.72,0-3.45-.04-5.17,0-1.12.03-2.22-.19-3.29-.54.13-.76.07-1.53.06-2.29,0-.46.13-.81.44-1.13.49-.5.51-.84.15-1.44-.15-.24-.35-.45-.5-.69-.09-.14-.27-.32,0-.48.69.55,1.44.94,2.33,1.04-.51.65-.37,1.22.21,1.76.22.2.27.49.27.79v2.22c0,.16.01.31.04.47.04.22.16.23.33.24.2,0,.26-.1.27-.27.02-.37.07-.75.02-1.12-.05-.4-.05-.8-.04-1.19.02-.51.08-1.02.48-1.41.13-.13.22-.32.3-.5.15-.36.36-.66.81-.87h-1.09c-.37,0-.75.07-1.11-.05v.02Z"/>
    <path class="cls-2" d="m28.93,20.59c-.89.1-1.64.49-2.33,1.04-.12-.04-.14-.12-.1-.24.07-.25.22-.45.39-.63.61-.66.62-1.17,0-1.81-.25-.26-.37-.54-.37-.92,0-.81.08-1.62-.06-2.43,1.07-.35,2.17-.57,3.29-.54,1.72.05,3.45,0,5.17,0,.42,0,.45.03.45.44v4.42c0,.53,0,.53-.53.54-1.8.02-3.61.03-5.41.05.27-.11.56-.04.84-.05.42-.01.84,0,1.26,0-.16-.11-.28-.22-.39-.35-.32-.39-.45-.9-.8-1.26-.14-.15-.21-.33-.23-.52-.07-.6-.12-1.19-.03-1.8.06-.39,0-.79-.03-1.18-.01-.17-.09-.22-.26-.23-.41-.03-.36.28-.37.51-.02.74-.02,1.48,0,2.22.01.49-.12.88-.48,1.22-.32.3-.42.69-.25,1.12.06.15.23.23.25.4h0Z"/>
    <path class="cls-2" d="m42.34,17.49s.03.03.04.03.02-.03,0-.07c1.45-1.22,3.1-1.98,4.97-2.3.95-.16,1.91-.12,2.86-.16.06,0,.13.03.19.05-.56.03-.63.13-.52.71.06.3.12.64,0,.91-.35.76-.65,1.57-1.51,1.94-.18.08-.35.17-.52.25-1.35.66-2.59,1.52-3.93,2.22-.76.4-1.55.76-2.31,1.17-.5.27-1.01.53-1.51.8-.07.04-.16.14-.24.05-.07-.07-.02-.17.02-.26.02-.04.02-.09.04-.13.79-1.59,1.38-3.27,2.24-4.83.05-.09.09-.18.07-.29h0s.05-.04.07-.06"/>
    <path class="cls-2" d="m42.23,17.58c.02.11-.02.2-.07.29-.85,1.56-1.45,3.24-2.24,4.83-.02.04-.02.09-.04.13-.03.09-.09.18-.02.26.09.09.17-.01.24-.05.51-.26,1.01-.52,1.51-.8.76-.41,1.54-.77,2.31-1.17,1.33-.7,2.57-1.56,3.93-2.22.17-.09.34-.18.52-.25.86-.37,1.16-1.18,1.51-1.94.12-.27.06-.61,0-.91,0,0-.03-.11-.04-.26v-.19c0-.11.04-.15.06-.17,0,0,.02-.03.06-.06.09-.07.2-.07.24-.07.09,0,.16.03.2.05h.03s.02,0,.03.01c.04.3.12.81.24,1.33.02.1.06.26.19.33.02,0,.05.03.1.04.15.03.29-.09.34-.14,0,0,.25-.21,1.18-.83.02-.02.09-.06.13-.15.02-.04.02-.08.02-.1.17.05.36.12.55.2.23.09.44.19.62.28-.49-.05-.78.34-1.12.57-.37.26-.81.47-1,.94-.28.7-.24,1.35.16,2.01.46.77.87,1.57,1.3,2.36.06.12.11.25.1.39-.34-.31-.69-.62-1.03-.92.02-.14-.03-.26-.12-.35-.43-.42-.69-.96-.97-1.47-.31-.56-1.22-.99-1.98-.59-1.48.79-2.92,1.66-4.45,2.37-1.16.54-2.23,1.27-3.37,1.86-.4.21-.78.47-1.17.7-.1.06-.22.11-.2.25.02.12.16.11.25.15,1.09.43,2.24.69,3.35,1.09.08.03.18.03.27.04v.76c-.84-.18-1.63-.5-2.44-.75-.46-.14-.9-.31-1.37-.4-.74-.14-1.59.56-1.59,1.3v16.25c0,.21.02.31.26.16.34-.21.7-.37,1.13-.24.4.12.74-.12,1.04-.34.83-.61,1.72-1.16,2.47-1.89.12-.12.27-.23.45-.09v.47c-.25.53-.68.88-1.16,1.18-.33.21-.65.45-.96.68-.12.09.02.12.06.17-1.1.39-2.2.78-3.3,1.16v-1.56c0-5.72.03-11.43.02-17.15,0-.11,0-.41.04-.81.06-.58.19-1.07.32-1.47.06-.01.16-.04.23-.11s.09-.16.11-.23c.03-.16.1-.32.18-.47.32-.62.65-1.24.97-1.86.07-.13.14-.27-.03-.39.34-.51.78-1.07,1.33-1.62.21-.21.42-.4.62-.58h0Z"/>
    <path class="cls-2" d="m59.99,29.86c-.58.22-1.25.22-1.67.82-.32.46-.53.89-.48,1.5.09,1.05.31,2.1.24,3.16-.02.23.04.45.07.68.05.36-.11.6-.39.77-.82.49-1.68.87-2.53,1.3-.15.08-.32.11-.5.09v-.13l.02-.02s0-.03-.02-.05v-.33c.32-.21.62-.45.98-.61.46-.21.9-.43,1.36-.64.39-.18.42-.46.39-.8l-.27-3.54c-.02-.19-.04-.39-.08-.57-.07-.32-.24-.39-.53-.23-.34.18-.66.4-.97.64-.26.2-.49.5-.88.46,0-.02,0-.04,0-.06-.05-.34.08-.59.34-.8.29-.23.55-.47.84-.7.45-.37.44-.56-.1-.78-.52-.2-1.04-.4-1.57-.57-1.86-.59-3.72-1.17-5.57-1.75-1-.31-2-.63-2.99-.95h2.2s.1.05.15.07c2.67.83,5.33,1.66,8,2.49.13.04.29.1.39-.01.11-.12,0-.26-.08-.38-.49-.89-1.12-1.71-1.51-2.66-.02-.06-.1-.09-.15-.14v-.13s.05-.05,0-.07c-.06-.6-.15-1.2-.28-1.79.25.27.39.62.58.93.68,1.11,1.27,2.26,1.85,3.43.07.15.19.29.32.39.19.16.32,0,.42-.14.29-.39.47-.83.66-1.27.47-1.05.92-2.11,1.38-3.16.07-.15.16-.28.33-.31.13.49.07,1,.06,1.5-.14.02-.16.15-.21.25-.14.31-.28.61-.42.92-.32.72-.64,1.43-.95,2.15-.07.17-.23.39-.08.54.14.14.39.05.59.02.35-.06.7-.19,1.07-.09v.6-.03Z"/>
    <path class="cls-2" d="m10.48,38.39c1.88.02,3.77.04,5.65.05.18,0,.24.07.24.24,0,.25-.01,4.66,0,4.9,0,.02,0,.11-.05.17s-.15.05-.17.05c-.17,0-2.19,0-5,0-.02-.85-.06-1.7-.04-2.55.01-.49.03-1,.44-1.39.15-.14.25-.35.34-.55.15-.35.36-.64.71-.82-.34-.02-.67,0-1-.02-.37-.02-.75.07-1.11-.05v-.02Z"/>
    <path class="cls-2" d="m5.58,32.67c.02,1,.14,1.98.63,2.88.19.36.44.67.69.99-.02.43.04.86-.06,1.29-.07.3-.22.36-.49.29-.32-.08-.63-.18-.93-.33-1.38-.69-2.77-1.39-4.16-2.08-.26-.13-.52-.28-.82-.3h0s-.04-.05-.06-.07c-.02-.14-.04-.29-.06-.43-.03-.2-.05-.4-.07-.6,1.28-.39,2.55-.8,3.84-1.16.5-.14.97-.36,1.48-.49h0Z"/>
    <path class="cls-2" d="m19.33,35.35c-.02-.18-.03-.36-.04-.55s-.02-.38-.02-.56c.09,0,.18,0,.27-.03.84-.22,1.66-.48,2.48-.76.75-.26,1.54-.39,2.26-.73.13-.06.19,0,.25.08,0,1.24.29,2.39,1.03,3.4.07.1.14.2.22.3l.07.07h0c-.02.41.04.83-.06,1.25-.07.3-.22.36-.49.29-.32-.08-.63-.18-.93-.33-1.38-.69-2.75-1.38-4.13-2.06-.27-.14-.55-.25-.85-.31h.01s-.03,0-.04-.04c0,0-.01-.03-.01-.03h-.02Z"/>
    <path class="cls-2" d="m.26,26.17c0-.49,0-.98,0-1.47v-9.59c.43.15.87.31,1.3.46.48.17.96.34,1.45.51-.2.34-.35.69-.15,1.09.25.5.12.99-.04,1.49-.42,1.3-.82,2.6-1.24,3.9-.36,1.12-.74,2.24-1.12,3.37-.04.11-.05.23-.2.25h.01Z"/>
    <path class="cls-2" d="m19.47,22.94c.4-1.22.93-2.38,1.71-3.42,1.2-1.6,2.7-2.81,4.51-3.64h.07c.15.09.16.24.14.39-.12.66-.04,1.32-.06,1.98,0,.17-.05.3-.15.44-.21.28-.48.53-.59.87-.1.31-.3.5-.57.65-1.13.62-2.29,1.18-3.46,1.71-.41.18-.79.4-1.14.67-.15.12-.18.4-.45.36h-.01Z"/>
    <path class="cls-2" d="m6.83,43.03c-1.6-.68-2.94-1.7-4.07-3.01-1.04-1.19-1.74-2.56-2.22-4.06.11-.02.21.02.27.12.31.46.8.67,1.27.88,1.12.49,2.2,1.05,3.29,1.6.27.14.6.27.72.59.12.32.31.61.53.87.21.24.31.5.3.83-.01.58-.07,1.16.05,1.74.03.15.03.32-.13.43h0Z"/>
    <path class="cls-2" d="m25.76,43.03c-.44-.19-.86-.4-1.26-.63-.55-.33-1.71-1.07-2.81-2.38-1.12-1.32-1.64-2.57-1.92-3.23-.14-.33-.24-.62-.3-.82.11,0,.21.05.27.13.35.48.88.71,1.39.94,1.1.47,2.16,1.03,3.22,1.57.25.13.55.25.66.56.12.33.31.61.53.87.21.24.3.5.3.83-.01.58-.07,1.16.05,1.74.03.15.03.32-.14.43h.01Z"/>
    <path class="cls-2" d="m7.66,37.28c.69.55,1.44.94,2.33,1.04,0,.03-.01.07-.03.1-.43.61-.4.99.12,1.53.26.27.38.58.39.95.03.96-.08,1.93.07,2.89-.63,0-1.34-.08-2.13-.25-.32-.07-.62-.15-.89-.23.13-.74.07-1.48.05-2.22,0-.49.12-.87.46-1.23.47-.49.49-.82.14-1.4-.15-.25-.36-.46-.52-.71-.09-.14-.21-.32,0-.47h.01Z"/>
    <path class="cls-2" d="m54.73,32.33c.39.04.62-.26.88-.46.31-.24.62-.46.97-.64.29-.16.46-.09.53.23.04.19.06.38.08.57l.27,3.54c.03.35,0,.62-.39.8-.45.21-.9.44-1.36.64-.36.16-.66.4-.98.61,0-1.76,0-3.53,0-5.29Z"/>
    <path class="cls-2" d="m19.47,22.94c.27.04.3-.24.45-.36.35-.27.74-.49,1.14-.67,1.17-.53,2.33-1.09,3.46-1.71.27-.15.47-.34.57-.65.11-.34.38-.59.59-.87.05-.07.09-.14.11-.21.04-.11.04-.19.04-.23.01-.66-.17-1.35.03-1.98.01-.05.06-.19,0-.29-.04-.06-.11-.08-.16-.09.12-.06.26-.11.41-.17.12-.04.23-.08.34-.1.14.81.05,1.62.06,2.43,0,.37.13.66.37.92.61.65.61,1.15,0,1.81-.17.18-.32.38-.39.63-.03.12-.02.2.1.24-.26.24-.44.55-.76.73,0-.42.02-.84-.07-1.26-.07-.33-.15-.4-.49-.33-.32.07-.63.18-.93.33-.03.01-1.39.7-4.13,2.06h0c-.62.31-.82.39-.9.41.02-.12.05-.25.08-.37.02-.09.04-.18.07-.27h0Z"/>
    <path class="cls-2" d="m25.76,43.03c.17-.1.17-.27.14-.43-.11-.58-.06-1.16-.05-1.74,0-.33-.09-.59-.3-.83-.23-.26-.42-.54-.53-.87-.11-.31-.41-.44-.66-.56-1.17-.59-2.95-1.46-3.22-1.57-.27-.11-.89-.35-1.51-.91-.07-.06-.12-.12-.16-.15-.02-.09-.05-.18-.07-.27-.03-.12-.05-.23-.07-.34.23.09.54.21.9.36.73.32,3.1,1.4,4.13,2.08,0,0,.19.14.93.33.27.07.43,0,.49-.29.09-.42.03-.84.06-1.26.09.09.19.19.29.29.16.15.31.28.46.41-.26.16-.08.34,0,.48.15.24.35.45.5.69.36.6.34.93-.15,1.44-.32.33-.45.67-.44,1.13.01.76.08,1.53-.06,2.29-.11-.04-.23-.08-.35-.12-.12-.05-.24-.09-.35-.14l.02-.02Z"/>
    <path class="cls-2" d="m7.66,37.28c-.22.15-.1.33,0,.47.16.25.37.46.52.71.36.59.34.91-.14,1.4-.34.36-.47.74-.46,1.23.01.74.08,1.48-.05,2.22-.13-.04-.26-.09-.4-.14-.1-.04-.2-.08-.29-.12.17-.1.17-.27.14-.43-.11-.58-.06-1.16-.05-1.74,0-.33-.09-.59-.3-.83-.23-.26-.41-.54-.53-.87-.13-.33-.45-.45-.72-.59-1.09-.56-2.17-1.11-3.29-1.6-.47-.21-.96-.42-1.27-.88-.06-.09-.15-.13-.27-.12-.05-.18-.1-.36-.1-.55.3.02.56.17.82.3,1.39.69,2.77,1.38,4.16,2.08.3.15.61.25.93.33.27.07.43,0,.49-.29.09-.43.04-.86.06-1.29.1.12.22.24.35.36.14.14.28.26.41.37v-.02Z"/>
    <path class="cls-2" d="m5.56,16.96s0,.04-.03.06h-.04s-.06-.07-.1-.1c.05,0,.16.04.16.03,0-.02-1.12-.4-2.57-.88-.2.34-.35.69-.15,1.09.25.5.12.99-.04,1.49-.42,1.3-.82,2.6-1.24,3.9-.36,1.12-.74,2.24-1.12,3.37-.04.11-.05.23-.2.25v2.53c.17-.04.17-.19.21-.32.46-1.42.91-2.84,1.36-4.26.42-1.34.83-2.69,1.26-4.04.2-.62.31-1.26.63-1.84.15-.27.64-.55.91-.52.36.04.88.45.95.74v-1.52.02Z"/>
    <path class="cls-2" d="m10.54,43.78c-.15-.96-.05-1.93-.07-2.89,0-.37-.12-.68-.39-.95-.53-.54-.55-.92-.12-1.53.02-.03.02-.06.03-.1.06,0,.13.02.19.03.17.03.33.04.48.04h.26c.61,0,1.21,0,1.82.02-.1.03-.24.1-.39.21-.04.03-.11.09-.19.19-.24.29-.19.5-.41.81-.08.11-.14.16-.2.22-.34.35-.43.91-.44,1.39-.02.85.02,1.7.04,2.55h-.61Z"/>
    <path class="cls-2" d="m28.93,20.59c-.02-.17-.19-.25-.25-.4-.17-.44-.06-.82.25-1.12.36-.34.49-.74.48-1.22-.02-.74-.02-1.48,0-2.22,0-.22-.04-.53.37-.51.17.01.25.06.26.23.03.39.09.79.03,1.18-.09.61-.04,1.2.03,1.8.02.19.09.37.23.52.35.37.47.87.8,1.26.11.13.23.24.39.35h-1.26c-.28,0-.57-.06-.84.05-.16.02-.33.05-.49.07h0Z"/>
    <path class="cls-2" d="m29.41,38.37c.36,0,.73.02,1.11.03.45,0,.9,0,1.34,0-.38.06-.56.21-.66.34-.15.2-.11.35-.27.63-.15.26-.28.28-.46.48-.34.38-.39.87-.43,1.36-.05.51.01.99.04,1.19.05.37,0,.74-.02,1.12,0,.16-.06.27-.27.27-.18,0-.3-.02-.33-.24-.03-.16-.04-.32-.04-.47v-2.22c0-.29-.05-.59-.27-.79-.58-.54-.72-1.1-.21-1.76.16.02.32.04.48.05h-.01Z"/>
    <path class="cls-2" d="m35.22,26.79h-.87c.02.16-.08.28-.16.4-.14.24-.29.5-.22.77.15.54-.06.96-.35,1.36-.62.86-1.2,1.75-1.94,2.51-.12.12-.2.23,0,.35h.74c.32-.47.76-.83,1.05-1.32.16-.26.36-.49.54-.74,0-.02.05-.07.11-.1s.11-.03.15-.02c.46-1.59.81-2.77.98-3.21,0,0-.02,0-.03,0Z"/>
    <path class="cls-2" d="m5.58,32.67c-.51.12-.98.34-1.48.49-1.29.36-2.56.77-3.84,1.16v-.68c.77-.25,1.54-.51,2.32-.76.89-.28,1.76-.61,2.67-.8.2-.04.29-.12.33-.3v.9h0Z"/>
    <path class="cls-2" d="m24.52,32.82c-.06-.09-.12-.14-.25-.08-.72.34-1.51.47-2.26.73-.82.28-1.64.54-2.48.76-.09.02-.18.02-.27.03,0-.21,0-.41-.01-.62.96-.3,1.72-.56,2.26-.75.74-.26,1.51-.47,2.25-.71.15-.05.31-.08.46-.11.17-.03.29.02.33.2,0,.18-.02.36-.02.54h0Z"/>
    <path class="cls-2" d="m59.99,29.26c-.37-.1-.72.04-1.07.09-.2.03-.44.12-.59-.02-.15-.15,0-.37.08-.54.31-.72.63-1.44.95-2.15.14-.31.28-.62.42-.92.05-.1.07-.23.21-.25v3.79Z"/>
    <path class="cls-2" d="m52.66,15.53c.1.17-.08.19-.15.25-.05.04-.42.3-1.14.86-.06.05-.18.13-.32.12-.03,0-.1-.01-.16-.05-.14-.09-.18-.27-.19-.33-.06-.25-.22-.73-.47-1.39.41.04.87.11,1.36.22.39.09.75.2,1.06.32h0Z"/>
    <path class="cls-2" d="m32.41,32.19c.32-.47.76-.83,1.05-1.32.16-.26.36-.49.54-.74.07-.1.15-.13.26-.12-.17.67-.41,1.32-.63,1.97-.05.16-.16.23-.34.23-.3,0-.59,0-.89,0h.01Z"/>
    <path class="cls-2" d="m41.75,42.67s-.18-.08-.06-.17c.31-.24.63-.47.96-.68.48-.3.91-.65,1.16-1.18,0,.38,0,.75,0,1.13,0,.18-.08.24-.22.29-.62.2-1.23.41-1.85.62h0Z"/>
    <path class="cls-2" d="m40.28,19.78c.17.12.1.26.03.39-.32.62-.65,1.24-.97,1.86-.08.15-.15.31-.18.47-.04.21-.15.32-.34.37.27-1.13.77-2.16,1.46-3.09Z"/>
    <path class="cls-2" d="m42.39,17.45c.04.11-.05.05-.09.07.02-.02.05-.04.08-.06h0Z"/>
    <path class="cls-2" d="m.39,35.35s.02.02.03.03c.14.19.14.41.13.58-.04,0-.16-.57-.15-.62h-.01Z"/>
    <path class="cls-2" d="m25.84,36.59l-.07-.07.07.07Z"/>
    <path class="cls-2" d="m54.73,37.96s.02.03.02.05l-.02.02v-.07Z"/>
    <path class="cls-2" d="m19.37,23.46s-.03.07-.04.1c0,0,.09-.06.08-.09,0,0,0-.01-.04-.02h0Z"/>
    <path class="cls-2" d="m54.38,24.08s-.04-.07-.05-.1c.02.03.04.07.05.1Z"/>
    <path class="cls-2" d="m52.25,21.36c-.61-.41-1.25-.7-1.98-.83-1.53-.27-2.94,0-4.19.93-1.01.76-1.74,1.74-2.07,2.98-.09.32-.11.64-.13.97-.09-.01-.18,0-.27-.04-1.1-.4-2.25-.66-3.35-1.09-.09-.04-.23-.03-.25-.15-.03-.14.1-.19.2-.25.39-.24.76-.5,1.17-.7,1.14-.59,2.21-1.32,3.37-1.86,1.53-.71,2.96-1.58,4.45-2.37.76-.4,1.67.03,1.98.59.29.52.54,1.05.97,1.47.09.09.14.21.12.35h-.02Z"/>
    <path class="cls-2" d="m47.87,26.72c2.01,0,4.02,0,6.03-.01h.27c.32,0,.48-.16.48-.49,0-.49,0-.09.02-.13.05.04.13.08.15.14.39.95,1.02,1.77,1.51,2.66.06.12.18.25.08.38-.1.11-.25.05-.39.01-2.67-.83-5.33-1.66-8-2.49-.05-.02-.1-.05-.15-.07Z"/>
    <path class="cls-2" d="m54.66,25.96v-.07s.05.05,0,.07Z"/>
  </g>
  <path class="cls-1" d="m5.55,16.96h0s-.02.03-.03.04h0s-.02-.03-.04-.04h0s-.02-.02-.03-.02c.04,0,.08.02.11.04h-.05v-.02h0"/>
  <path class="cls-1" d="m5.44,16.93s.03,0,.05.01c.02,0,.04.01.05.02"/>
  <path class="cls-1" d="m5.55,16.97h0v.03h-.04s0,0-.01-.01h-.02"/>
  <path class="cls-1" d="m5.47,16.96h0v.02h0v.02h0v-.02"/>
  <path class="cls-1" d="m5.49,16.96s.01.02.02.03v-.03h0v.03-.02h-.01"/>
  <path class="cls-1" d="m5.55,17.01h0v-.02"/>
  <path class="cls-1" d="m5.53,16.95h.03v.02"/>
</svg>