<?xml version="1.0" encoding="UTF-8"?><svg id="Layer_1" xmlns="http://www.w3.org/2000/svg" viewBox="0 0 64 64"><defs><style>.cls-1{fill:#fff;}.cls-2{fill:#39b54a;}</style></defs><path class="cls-2" d="M11.87,63.62H52.12c6.28,0,11.38-5.09,11.38-11.38V12c0-6.28-5.09-11.38-11.38-11.38H11.87C5.59,.62,.5,5.71,.5,12V52.25c0,6.28,5.09,11.38,11.38,11.38Z"/><path class="cls-1" d="M54.95,29.35c0-10.26-10.29-18.61-22.94-18.61S9.07,19.09,9.07,29.35c0,9.2,8.16,16.91,19.18,18.37,.75,.16,1.76,.49,2.02,1.13,.23,.58,.15,1.49,.07,2.07,0,0-.27,1.62-.33,1.96-.1,.58-.46,2.27,1.99,1.24,2.45-1.03,13.21-7.78,18.02-13.32h0c3.33-3.64,4.92-7.34,4.92-11.45Zm-31.92,6.11h-4.56c-.66,0-1.2-.54-1.2-1.2v-9.12c0-.66,.54-1.2,1.2-1.2s1.2,.54,1.2,1.2v7.91h3.35c.66,0,1.2,.54,1.2,1.2s-.54,1.21-1.2,1.21Zm4.71-1.2c0,.66-.54,1.2-1.2,1.2s-1.2-.54-1.2-1.2v-9.12c0-.66,.54-1.2,1.2-1.2s1.2,.54,1.2,1.2v9.12Zm10.97,0c0,.52-.33,.98-.82,1.14-.12,.04-.25,.06-.38,.06-.38,0-.74-.18-.96-.48l-4.67-6.36v5.64c0,.66-.54,1.2-1.2,1.2s-1.2-.54-1.2-1.2v-9.12c0-.52,.33-.98,.82-1.14,.12-.04,.25-.06,.38-.06,.37,0,.74,.18,.96,.48l4.67,6.36v-5.64c0-.66,.54-1.2,1.2-1.2s1.2,.54,1.2,1.2v9.12Zm7.37-5.76c.66,0,1.2,.54,1.2,1.2s-.54,1.2-1.2,1.2h-3.35v2.15h3.35c.66,0,1.2,.54,1.2,1.2s-.54,1.2-1.2,1.2h-4.56c-.66,0-1.2-.54-1.2-1.2v-4.56h0v-4.56h0c0-.67,.54-1.21,1.2-1.21h4.56c.66,0,1.2,.54,1.2,1.2s-.54,1.2-1.2,1.2h-3.35v2.15h3.35Z"/></svg>