<?xml version="1.0" encoding="UTF-8"?>
<svg id="Group_1282" data-name="Group 1282" xmlns="http://www.w3.org/2000/svg" viewBox="0 0 64 64">
  <defs>
    <style>
      .cls-1 {
        fill: #0a66c2;
        stroke-width: 0px;
      }
    </style>
  </defs>
  <path id="Path_2520" data-name="Path 2520" class="cls-1" d="M54.53,54.53h-9.48v-14.85c0-3.54-.06-8.1-4.93-8.1s-5.69,3.86-5.69,7.84v15.11h-9.48v-30.54h9.1v4.17h.13c1.86-3.17,5.31-5.07,8.98-4.93,9.61,0,11.38,6.32,11.38,14.55v16.75ZM14.24,19.82c-3.04,0-5.5-2.46-5.5-5.5s2.46-5.5,5.5-5.5c3.04,0,5.5,2.46,5.5,5.5s-2.46,5.5-5.5,5.5h0M18.98,54.53h-9.49v-30.54h9.49v30.54ZM59.26,0H4.72C2.15-.02.03,2.04,0,4.62v54.76c.03,2.58,2.14,4.65,4.72,4.62h54.54c2.58.03,4.71-2.03,4.74-4.62V4.61C63.96,2.03,61.84-.03,59.26,0"/>
</svg>