<?xml version="1.0" encoding="UTF-8"?>
<svg id="Layer_1" data-name="Layer 1" xmlns="http://www.w3.org/2000/svg" viewBox="0 0 64 64">
  <path d="m41.87,49.16c-.39,0-.78,0-1.17,0-.18,0-.3.06-.39.2-.26.37-.52.74-.79,1.1-.16.23-.13.47-.05.71.23.65.46,1.31.7,1.96.15.41.14.47-.22.73-.38.29-.78.56-1.17.85-.18.13-.33.11-.5-.02-.56-.46-1.13-.9-1.68-1.37-.28-.24-.53-.28-.87-.13-.3.14-.62.23-.94.32-.24.07-.38.2-.45.45-.19.7-.39,1.39-.59,2.08-.12.43-.22.49-.66.49-.43,0-.86,0-1.3,0-.3,0-.41-.08-.5-.36-.2-.7-.42-1.4-.59-2.1-.09-.36-.24-.57-.62-.65-.3-.06-.59-.18-.88-.3-.23-.1-.41-.08-.6.08-.55.45-1.1.89-1.67,1.32-.45.34-.35.37-.84.01-.35-.25-.68-.53-1.02-.79-.21-.16-.25-.34-.17-.58.24-.69.46-1.4.72-2.08.11-.3.11-.53-.11-.77-.13-.15-.23-.34-.34-.51-.26-.46-.65-.66-1.18-.62-.61.05-1.23.05-1.85.09-.24.01-.4-.09-.47-.31-.17-.53-.34-1.06-.5-1.6-.06-.19.04-.31.19-.41.55-.38,1.1-.78,1.65-1.16.61-.42.73-.71.57-1.42-.13-.58-.39-1.06-.94-1.37-.42-.24-.81-.55-1.2-.83-.29-.21-.32-.29-.21-.63.13-.43.27-.86.41-1.29.12-.35.2-.4.56-.39.71.02,1.42.03,2.12.07.3.01.49-.09.64-.35.18-.31.4-.6.62-.88.17-.22.22-.43.12-.69-.24-.65-.46-1.31-.69-1.96-.16-.45-.14-.53.24-.83.32-.25.65-.5.98-.74.35-.26.38-.25.73.03.5.4,1.02.79,1.5,1.22.33.29.64.34,1.04.14.28-.14.6-.21.9-.3.2-.05.32-.16.37-.36.15-.53.3-1.06.46-1.59.07-.25.14-.5.22-.75.06-.21.19-.3.41-.3.51,0,1.02,0,1.53,0,.29,0,.39.08.47.37.19.68.4,1.36.57,2.04.09.38.27.63.68.71.29.06.57.17.84.29.25.11.44.06.64-.1.54-.44,1.08-.87,1.63-1.3.38-.3.41-.31.81-.02.35.26.7.53,1.05.8.27.21.3.31.18.64-.26.74-.52,1.48-.79,2.22-.07.19-.04.34.08.49.18.22.36.46.54.69.29.37.66.59,1.13.58.56-.01,1.12-.06,1.67-.09.44-.02.49,0,.63.42.15.46.29.93.43,1.4.08.25.03.36-.2.52-.66.46-1.32.92-1.98,1.4-.08.06-.15.19-.15.29-.02.45,0,.89-.01,1.34,0,.23.13.36.3.48.6.42,1.21.84,1.81,1.26.29.2.31.24.21.58-.13.43-.26.87-.4,1.3-.12.37-.2.42-.58.41-.36,0-.72,0-1.08,0v-.07Zm-3.56-4.59c0-.22.02-.44,0-.66-.02-.25-.07-.49-.12-.73-.54-2.53-2.68-4.33-4.7-4.6-1.74-.23-3.29.19-4.59,1.36-2.45,2.21-2.74,5.86-.74,8.49,1.74,2.29,4.84,2.78,7.03,1.55,2.09-1.17,3.09-3.04,3.13-5.41Z"/>
  <path d="m51.56,64H13.27c.22-.03.44-.05.66-.08-.21-.05-.42-.06-.63-.1-2.17-.42-3.61-1.65-4.41-3.53-.37-.86-.39-1.77-.39-2.68,0-3.24,0-6.48,0-9.72,0-5.59,0-11.18,0-16.77,0-.51.04-1.04.14-1.54.47-2.32,2.61-4.25,5.36-4.47.16-.01.32-.04.49-.06,0-.09.01-.18.01-.26,0-2.54,0-5.08,0-7.62,0-1.84.24-3.66.84-5.42,1.05-3.06,2.9-5.64,5.54-7.72,1.71-1.35,3.63-2.37,5.75-3.05,1.2-.39,2.42-.7,3.7-.76.3-.01.61-.06.91-.09,0,0,0-.02,0-.03C30.89.05,30.52.03,30.14,0c1.64,0,3.28,0,4.92,0-.36.03-.73.07-1.09.1.1.04.2.05.3.05,1.45.05,2.85.35,4.21.8,3.71,1.21,6.69,3.32,8.94,6.3,2.16,2.87,3.17,6.1,3.2,9.58.02,2.65.01,5.3,0,7.95,0,.2.05.26.27.29.48.06.97.11,1.43.24,1.99.58,3.33,1.79,4,3.63.31.85.32,1.74.32,2.62,0,8.59,0,17.18,0,25.77,0,.33,0,.67,0,1-.05,1.36-.46,2.61-1.44,3.65-1.01,1.07-2.24,1.79-3.82,1.88-.04,0-.07.02-.13.05.12.03.22.06.31.08Zm-.94-5.59v-27.79H14.51c0,.11,0,.19,0,.28,0,8.92,0,17.83,0,26.75,0,.2.02.4,0,.6,0,.17.07.2.23.19.25-.02.5-.02.76-.02,3.03,0,6.06,0,9.08,0,7.88,0,15.77,0,23.65,0,.79,0,1.58,0,2.39,0Zm-18.05-33.36h0c3.91,0,7.82,0,11.74,0,.29,0,.31-.11.31-.32,0-2.63,0-5.27,0-7.9,0-.98-.07-1.95-.35-2.89-1.07-3.59-3.45-6.12-7.16-7.57-1.62-.64-3.33-.82-5.08-.77-1.05.03-2.08.18-3.08.47-5.18,1.52-8.47,5.97-8.41,10.69.03,2.68,0,5.37,0,8.05,0,.21.07.25.28.25,3.92,0,7.84,0,11.76,0Z"/>
</svg>