<?xml version="1.0" encoding="UTF-8"?>
<svg id="Layer_1" data-name="Layer 1" xmlns="http://www.w3.org/2000/svg" viewBox="0 0 64 64">
  <path d="m50.98,64H12.69c.22-.03.44-.05.66-.08-.21-.05-.42-.06-.63-.1-2.17-.42-3.61-1.65-4.41-3.53-.37-.86-.39-1.77-.39-2.68,0-3.24,0-6.48,0-9.72,0-5.59,0-11.18,0-16.77,0-.51.04-1.04.14-1.54.47-2.32,2.61-4.25,5.36-4.47.16-.01.32-.04.49-.06,0-.09.01-.18.01-.26,0-2.54,0-5.08,0-7.62,0-1.84.24-3.66.84-5.42,1.05-3.06,2.9-5.64,5.54-7.72,1.71-1.35,3.63-2.37,5.75-3.05,1.2-.39,2.42-.7,3.7-.76.3-.01.61-.06.91-.09,0,0,0-.02,0-.03C30.31.05,29.94.03,29.57,0c1.64,0,3.28,0,4.92,0-.36.03-.73.07-1.09.1.1.04.2.05.3.05,1.45.05,2.85.35,4.21.8,3.71,1.21,6.69,3.32,8.94,6.3,2.16,2.87,3.17,6.1,3.2,9.58.02,2.65.01,5.3,0,7.95,0,.2.05.26.27.29.48.06.97.11,1.43.24,1.99.58,3.33,1.79,4,3.63.31.85.32,1.74.32,2.62,0,8.59,0,17.18,0,25.77,0,.33,0,.67,0,1-.05,1.36-.46,2.61-1.44,3.65-1.01,1.07-2.24,1.79-3.82,1.88-.04,0-.07.02-.13.05.12.03.22.06.31.08Zm-.94-5.59v-27.79H13.93c0,.11,0,.19,0,.28,0,8.92,0,17.83,0,26.75,0,.2.02.4,0,.6,0,.17.07.2.23.19.25-.02.5-.02.76-.02,3.03,0,6.06,0,9.08,0,7.88,0,15.77,0,23.65,0,.79,0,1.58,0,2.39,0ZM31.99,25.05h0c3.91,0,7.82,0,11.74,0,.29,0,.31-.11.31-.32,0-2.63,0-5.27,0-7.9,0-.98-.07-1.95-.35-2.89-1.07-3.59-3.45-6.12-7.16-7.57-1.62-.64-3.33-.82-5.08-.77-1.05.03-2.08.18-3.08.47-5.18,1.52-8.47,5.97-8.41,10.69.03,2.68,0,5.37,0,8.05,0,.21.07.25.28.25,3.92,0,7.84,0,11.76,0Z"/>
  <path d="m32.53,56.52c-2.3-.08-4.04-.22-5.77-.53-1.8-.32-3.56-.77-5.27-1.42-.11-.04-.22-.21-.23-.33-.22-2.91.9-5.27,2.98-7.22.91-.86,1.98-1.5,3.13-1.98.58-.24,1.21-.25,1.78.05,1.83.95,3.67.93,5.51.09.81-.37,1.55-.33,2.34.04,1.96.93,3.51,2.3,4.61,4.17.9,1.52,1.21,3.19,1.11,4.94,0,.08-.12.2-.21.24-1.82.65-3.68,1.19-5.6,1.45-1.64.22-3.28.37-4.39.49Z"/>
  <path d="m26.25,38.16c.12-3.53,3.01-5.83,6.01-5.63,3.36.22,5.58,2.89,5.4,6-.2,3.37-2.79,5.56-5.99,5.41-3.45-.16-5.44-3.02-5.43-5.77Z"/>
</svg>