<?xml version="1.0" encoding="UTF-8"?><svg id="Layer_1" xmlns="http://www.w3.org/2000/svg" viewBox="0 0 64 64"><path d="M1,50.05V13.95c1.56-4.1,3.19-5.21,7.65-5.21,15.52,0,31.04,0,46.56,0,4.58,0,6.13,1.04,7.78,5.21V50.05c-1.63,4.17-3.18,5.21-7.77,5.21-15.54,0-31.08,0-46.62,0-4.45,0-6.04-1.08-7.62-5.21Zm8.47-.1H54.53c-4.47-5.97-8.84-11.78-13.3-17.74-2.65,2.61-5.26,5.01-9.23,5.01-3.97,0-6.55-2.45-9.24-4.99-4.45,5.93-8.81,11.75-13.28,17.71ZM53.85,14.03H10.29c.15,.21,.21,.33,.3,.41,6.08,5.46,12.15,10.94,18.24,16.38,2.06,1.84,4.41,1.74,6.55-.18,3.45-3.1,6.9-6.19,10.35-9.29,2.65-2.38,5.3-4.77,8.11-7.31ZM18.91,28.82c-4.22-3.79-8.36-7.51-12.64-11.36v28.19c4.3-5.73,8.42-11.21,12.64-16.84Zm38.78,16.8V17.48c-4.31,3.88-8.46,7.61-12.6,11.35,4.22,5.62,8.34,11.1,12.6,16.79Z"/></svg>