<?xml version="1.0" encoding="UTF-8"?><svg id="Layer_1" xmlns="http://www.w3.org/2000/svg" viewBox="0 0 64 64"><defs><style>.cls-1{fill:#3572b9;}.cls-2{fill:#5d5d60;}.cls-3{fill:#2c69b3;}.cls-4{fill:#3270b7;}.cls-5{fill:#417fc1;}.cls-6{fill:#3876bb;}.cls-7{fill:#5c5c60;}.cls-8{fill:#2d68b2;}</style></defs><path class="cls-5" d="M26.19,30.91c-.74,.74-1.46,1.5-2.21,2.23-1.72,1.67-3.64,3.07-5.81,4.1-1.42,.68-2.91,1.16-4.48,1.38-.48,.06-.96,.18-1.43,.17-1.55-.04-3.04-.35-4.47-.95-1.51-.64-2.82-1.57-3.92-2.78-1.49-1.64-2.46-3.56-3-5.71-.36-1.45-.45-2.92-.29-4.4,.15-1.38,.38-2.76,.65-4.12,.49-2.46,1.32-4.81,2.37-7.09,.94-2.03,2.1-3.92,3.52-5.64,1.62-1.96,3.49-3.64,5.77-4.84,1.31-.69,2.68-1.21,4.13-1.53,.69-.15,1.38-.2,2.07-.16,.98,.06,1.94,.24,2.89,.51,1.43,.41,2.75,1.03,3.98,1.85,.58,.39,1.15,.82,1.68,1.27,.64,.55,1.27,1.12,1.86,1.72,.51,.52,.97,1.09,1.44,1.66,.42,.51,.82,1.03,1.23,1.55,.03,.04,.1,.05,.15,.07,.06,.13,.1,.26,.18,.37,.2,.29,.42,.57,.63,.85,.49,.65,.97,1.3,1.46,1.95,.04,.07,.06,.15,.11,.21,.72,1,1.45,2.01,2.18,3,.05,.07,.15,.09,.22,.14,.08,.16,.14,.33,.24,.46,.7,.95,1.39,1.9,2.11,2.83,.52,.68,1.08,1.32,1.62,1.98,.5,.61,.99,1.22,1.5,1.82,.57,.66,1.15,1.32,1.76,1.94,.86,.86,1.76,1.69,2.64,2.53,.82,.78,1.72,1.45,2.68,2.02,.93,.56,1.92,.82,3.01,.61,.98-.19,1.84-.59,2.46-1.42,.79-1.06,1.06-2.29,1.07-3.56,0-.93-.08-1.87-.24-2.79-.29-1.63-.85-3.19-1.56-4.69-.99-2.12-2.18-4.11-3.7-5.91-.77-.91-1.58-1.76-2.57-2.43-1.05-.72-2.21-.99-3.44-.67-1,.26-1.78,.92-2.54,1.58-.27,.23-.53,.49-.79,.74-.48,.47-.96,.95-1.43,1.43-.16,.16-.3,.35-.45,.53-.39,.45-.77,.91-1.16,1.36-.03-.12-.08-.24-.08-.36,0-2.92,0-5.84,0-8.76,0-.6-.04-1.19-.06-1.79,1.24-.89,2.58-1.59,4.05-2.01,.75-.22,1.53-.36,2.31-.48,.54-.09,1.1-.16,1.65-.11,.74,.06,1.47,.18,2.19,.36,1.14,.29,2.22,.77,3.26,1.32,1.09,.58,2.1,1.27,3.03,2.08,.58,.5,1.16,1,1.68,1.56,.6,.63,1.17,1.29,1.68,1.99,.62,.85,1.2,1.74,1.73,2.65,.79,1.35,1.46,2.76,2.02,4.22,.62,1.6,1.13,3.22,1.5,4.89,.22,.98,.37,1.99,.49,2.99,.12,.97,.22,1.95,.24,2.93,.03,1.04-.16,2.06-.42,3.06-.4,1.51-1.03,2.93-1.95,4.2-.53,.73-1.09,1.43-1.79,2.02-.88,.75-1.82,1.39-2.87,1.88-1.1,.51-2.26,.83-3.46,.96-.41,.05-.82,.14-1.22,.11-1.48-.08-2.92-.38-4.32-.87-1.9-.66-3.62-1.65-5.22-2.86-1.36-1.03-2.63-2.16-3.77-3.43-1.25-1.39-2.46-2.82-3.63-4.27-1.03-1.27-1.98-2.59-2.97-3.89-.03-.04-.08-.07-.11-.1-.06-.12-.1-.26-.18-.37-1.16-1.59-2.32-3.17-3.49-4.75-.36-.49-.76-.97-1.14-1.45-1.01-1.24-1.99-2.49-3.02-3.71-1.08-1.27-2.27-2.41-3.73-3.25-.82-.48-1.7-.61-2.62-.43-1.23,.24-2.16,.98-3.01,1.83-.57,.57-1.13,1.18-1.62,1.82-.67,.88-1.33,1.77-1.89,2.73-.62,1.05-1.17,2.16-1.66,3.28-.4,.91-.73,1.87-1.01,2.83-.22,.75-.34,1.53-.44,2.3-.09,.64-.14,1.28-.11,1.92,.03,.59,.15,1.18,.3,1.76,.34,1.3,1.05,2.3,2.34,2.82,.7,.28,1.42,.38,2.14,.28,.76-.11,1.45-.47,2.1-.88,1.35-.85,2.54-1.9,3.66-3.02,.95-.95,1.86-1.95,2.79-2.92,.25,.4,.49,.81,.75,1.2,1.26,1.86,2.52,3.71,3.79,5.56Z"/><path class="cls-7" d="M6.52,47.69c.88,0,1.75,0,2.61,0,.1,0,.23,.1,.31,.19,1.49,1.86,2.98,3.73,4.47,5.59,.09,.11,.18,.22,.29,.35,.46-.57,.9-1.12,1.34-1.68,1.15-1.44,2.29-2.87,3.44-4.3,.06-.07,.15-.15,.23-.15,.88-.01,1.76,0,2.66,0v14.36h-3.06v-9.29s-.05-.02-.08-.03c-1.51,1.88-3.01,3.75-4.54,5.66-1.53-1.91-3.05-3.8-4.6-5.73v9.39h-3.07v-14.36Z"/><path class="cls-7" d="M30.72,55.61c-.05-.68-.7-1.23-1.41-1.28-.98-.08-1.76,.28-2.42,.97-.03,.03-.06,.06-.09,.08-.01,.01-.04,.02-.05,.02-.53-.54-1.07-1.08-1.62-1.64,.59-.72,1.35-1.25,2.23-1.59,1.13-.44,2.3-.49,3.44-.09,1.55,.54,2.6,1.59,2.66,3.3,.07,2.22,.02,4.43,.02,6.67h-2.73v-1.27c-.18,.18-.31,.3-.43,.42-1.11,1.06-2.43,1.33-3.85,.85-1.99-.67-2.51-3.15-1.06-4.75,.62-.69,1.44-.99,2.33-1.14,.94-.16,1.88-.33,2.83-.5,.06-.01,.11-.03,.17-.05Zm-.01,1.97c-.33,.06-.65,.1-.96,.17-.57,.12-1.16,.21-1.72,.39-.51,.17-.72,.6-.63,1.05,.11,.52,.4,.75,.97,.8,1.6,.13,2.54-1.19,2.33-2.41Z"/><path class="cls-7" d="M35.13,60.4c.55-.58,1.09-1.15,1.62-1.72,.27,.19,.51,.39,.77,.56,.61,.39,1.29,.58,2.01,.56,.25,0,.52-.08,.76-.18,.47-.2,.51-.71,.07-.96-.38-.21-.79-.35-1.2-.5-.82-.29-1.65-.55-2.38-1.05-.61-.42-1.08-.97-1.19-1.69-.17-1.04,.15-1.97,.98-2.66,.63-.53,1.37-.79,2.19-.89,1.36-.16,2.64,.05,3.81,.78,.31,.19,.59,.43,.92,.68-.57,.61-1.12,1.19-1.67,1.78-.72-.61-1.54-.87-2.46-.79-.09,0-.18,0-.27,.03-.25,.07-.49,.19-.53,.48-.04,.3,.18,.45,.41,.54,.57,.23,1.15,.44,1.73,.65,.69,.25,1.37,.52,1.94,.98,.61,.49,.99,1.1,.97,1.93-.03,1.49-.64,2.47-2.06,2.95-2.24,.77-4.29,.38-6.1-1.16-.11-.1-.21-.22-.32-.33Z"/><path class="cls-7" d="M49.53,52.01h2.27c.71,0,.7,0,.93,.68,.65,1.92,1.31,3.83,1.97,5.75,.04,.11,.09,.22,.16,.4,.79-2.32,1.56-4.57,2.34-6.82h2.99c-.2,.54-.39,1.06-.59,1.58-1.03,2.74-2.07,5.48-3.1,8.22-.07,.19-.15,.26-.37,.26-.86-.01-1.73-.01-2.59,0-.17,0-.27-.04-.33-.22-1.2-3.19-2.4-6.37-3.6-9.55-.03-.08-.05-.17-.09-.29Z"/><path class="cls-6" d="M26.19,30.91c-1.26-1.85-2.53-3.7-3.79-5.56-.26-.39-.5-.8-.75-1.2,.24-.28,.49-.56,.73-.85,.73-.87,1.46-1.75,2.19-2.63,.03,.06,.05,.13,.09,.19,.33,.49,.65,.97,.98,1.46,1.15,1.7,2.3,3.39,3.45,5.09-.06,.11-.11,.23-.19,.33-.77,.93-1.54,1.85-2.31,2.77-.12,.14-.27,.27-.4,.4Z"/><path class="cls-1" d="M37.08,16.73c-.07-.05-.17-.07-.22-.14-.73-1-1.46-2-2.18-3-.05-.06-.07-.14-.11-.21,.04-.09,.12-.18,.12-.27,0-1.8,0-3.61,0-5.41,0-.11-.04-.21-.07-.32,.85-.82,1.69-1.65,2.56-2.46,.3-.28,.66-.5,.99-.74,.02,.6,.06,1.19,.06,1.79,0,2.92,0,5.84,0,8.76,0,.12,.05,.24,.08,.36-.01,.04,0,.09-.03,.11-.4,.51-.8,1.02-1.2,1.53Z"/><path class="cls-7" d="M48.24,62.06h-2.74v-10.02h2.74v10.02Z"/><path class="cls-4" d="M29.09,27.41c-1.15-1.7-2.3-3.39-3.45-5.09-.33-.48-.66-.97-.98-1.46-.04-.06-.06-.12-.09-.19,.52-.67,1.04-1.34,1.56-2.01,.11,.1,.24,.18,.32,.3,.44,.63,.86,1.27,1.29,1.91,.94,1.4,1.89,2.8,2.84,4.19,.05,.08,.14,.13,.22,.19-.57,.72-1.14,1.44-1.7,2.15Z"/><path class="cls-8" d="M30.8,25.26c-.07-.06-.16-.12-.22-.19-.95-1.4-1.89-2.8-2.84-4.19-.43-.64-.86-1.28-1.29-1.91-.08-.12-.21-.2-.32-.3,.25-.35,.51-.7,.76-1.06,.19-.27,.37-.55,.55-.82,.38,.48,.77,.95,1.14,1.45,1.17,1.58,2.33,3.17,3.49,4.75,.08,.11,.12,.25,.18,.37-.49,.63-.97,1.27-1.46,1.9Z"/><path class="cls-3" d="M34.62,7.38c.02,.11,.07,.21,.07,.32,0,1.8,0,3.61,0,5.41,0,.09-.08,.18-.12,.27-.49-.65-.98-1.3-1.46-1.95-.21-.28-.43-.56-.63-.85-.08-.11-.12-.25-.18-.37,.77-.94,1.54-1.88,2.32-2.82Z"/><path class="cls-2" d="M46.89,47.56c.86,0,1.57,.7,1.57,1.53,0,.76-.59,1.57-1.64,1.56-.92,0-1.56-.71-1.57-1.54-.01-.78,.61-1.55,1.64-1.56Z"/></svg>