<?xml version="1.0" encoding="UTF-8"?>
<svg id="Layer_1" data-name="Layer 1" xmlns="http://www.w3.org/2000/svg" viewBox="0 0 64 64">
  <defs>
    <style>
      .cls-1 {
        fill: #1e72b6;
      }
    </style>
  </defs>
  <path class="cls-1" d="m0,40.11C0,37.57,0,35.03,0,32.49c.05-.15.11-.31.15-.46.35-1.41,1.09-2.57,2.31-3.37.43-.28.55-.58.56-1.06.05-2.71.32-5.4.99-8.04C6.09,11.38,10.99,5.67,18.95,2.69c4.13-1.55,8.43-2.06,12.81-2.08,4.61-.02,9.14.49,13.48,2.15,6.37,2.44,10.95,6.74,13.53,13.1,1.54,3.79,2.12,7.77,2.2,11.83,0,.41.11.67.48.91,1.6,1.07,2.46,2.59,2.51,4.5.06,2.14.04,4.29.01,6.43-.05,3.05-2.31,5.41-5.14,5.61-1.24.09-2.5.1-3.74.05-.69-.03-.99.19-1.25.84-3.02,7.38-8.06,12.84-15.45,15.98-3.05,1.3-6.24,1.75-9.53,1.01-4.25-.95-7.88-3.08-11.08-5.97-3.51-3.16-6.11-6.96-7.78-11.38-.13-.34-.3-.48-.68-.47-1.14.03-2.29.02-3.44,0-1.92-.03-3.52-.73-4.72-2.26C.5,42.12.22,41.13,0,40.11Zm23.02-21.36c-.06.48-.11.77-.12,1.06-.08,1.85-.51,3.63-1.31,5.3-1.86,3.88-4.72,6.61-9.05,7.53-.35.07-.46.22-.48.58-.14,2.68.12,5.31.63,7.94.36,1.89,1.3,3.26,2.87,4.31,3.19,2.14,6.79,2.83,10.52,3.11.16.01.39-.13.5-.26,2.19-2.48,6.67-2.73,9.17-.5,1.54,1.37,1.53,3.43-.03,4.79-1.52,1.31-3.33,1.67-5.26,1.43-1.64-.2-3.09-.82-4.08-2.24-.08-.12-.31-.19-.48-.2-3.21-.26-6.36-.78-9.33-2.09-.02,0-.05.04-.12.09,2.97,4.09,6.67,7.22,11.44,9.02,2.89,1.09,5.75,1.01,8.58-.15,6.3-2.58,10.73-7.1,13.48-13.28,1.66-3.72,2.17-7.66,1.99-11.71-.13-2.74-.28-2.98-2.74-4.27-2.74-1.45-5.68-2.22-8.72-2.7-.46-.07-.92-.11-1.5-.18.78,1.06,1.4,2.05,1.64,3.24-.68-.33-1.29-.7-1.94-.95-1.58-.58-3.17-1.13-4.78-1.63-4.32-1.35-7.88-3.72-10.38-7.55-.12-.19-.27-.35-.51-.68Zm-14.44,8.83c.46-2.92,1.19-5.71,2.41-8.35,2.27-4.94,5.81-8.6,10.93-10.57,5.38-2.06,10.93-2.22,16.53-1.08,4.75.97,8.74,3.26,11.78,7.09,2.37,2.99,3.78,6.44,4.63,10.13.21.92.39,1.86.57,2.77h2.15c-.11-3.2-.53-6.3-1.54-9.3-2.25-6.65-6.86-10.84-13.49-12.84-5.62-1.7-11.36-1.79-17.13-.92-3.11.47-6.08,1.41-8.81,2.99-4.96,2.86-7.84,7.25-9.24,12.71-.62,2.41-.89,4.86-.96,7.37h2.17Z"/>
  <path class="cls-1" d="m23.69,38.4c-1.82,0-3.32-1.49-3.3-3.29.02-1.79,1.49-3.25,3.27-3.25,1.81,0,3.32,1.5,3.3,3.29-.02,1.79-1.48,3.24-3.27,3.25Z"/>
  <path class="cls-1" d="m40.22,38.4c-1.8-.05-3.25-1.55-3.2-3.32.05-1.83,1.55-3.26,3.37-3.22,1.78.04,3.25,1.57,3.2,3.32-.05,1.83-1.55,3.26-3.37,3.21Z"/>
</svg>