<?xml version="1.0" encoding="UTF-8"?>
<svg id="Layer_1" data-name="Layer 1" xmlns="http://www.w3.org/2000/svg" viewBox="0 0 64 64">
  <defs>
    <style>
      .cls-1 {
        fill: #fff9cc;
      }

      .cls-2 {
        fill: #090909;
      }

      .cls-3 {
        fill: #3e3e3c;
      }

      .cls-4 {
        fill: #fff9ce;
      }

      .cls-5 {
        fill: #fcb434;
      }

      .cls-6 {
        fill: #fdf9ca;
      }

      .cls-7 {
        fill: #595649;
      }

      .cls-8 {
        fill: #acd5d9;
      }

      .cls-9 {
        fill: #3f3f3e;
      }

      .cls-10 {
        fill: #0a0a0a;
      }

      .cls-11 {
        fill: #fbae2f;
      }

      .cls-12 {
        fill: #fcb323;
      }

      .cls-13 {
        fill: #795923;
      }

      .cls-14 {
        fill: #335b5e;
      }

      .cls-15 {
        fill: #7b5a23;
      }

      .cls-16 {
        fill: #fbaf38;
      }

      .cls-17 {
        fill: #335a5f;
      }

      .cls-18 {
        fill: #fbac38;
      }

      .cls-19 {
        fill: #060609;
      }

      .cls-20 {
        fill: #fffacd;
      }

      .cls-21 {
        fill: #355861;
      }

      .cls-22 {
        fill: #1e72b6;
      }

      .cls-23 {
        fill: #fcb037;
      }

      .cls-24 {
        fill: #171717;
      }

      .cls-25 {
        fill: #fdf0bc;
      }

      .cls-26 {
        fill: #fcb134;
      }

      .cls-27 {
        fill: #23484a;
      }

      .cls-28 {
        fill: #fbaf33;
      }

      .cls-29 {
        fill: #7a7668;
      }

      .cls-30 {
        fill: #1a1a1a;
      }

      .cls-31 {
        fill: #375662;
      }

      .cls-32 {
        fill: #fdf9c7;
      }

      .cls-33 {
        fill: #9e9e9e;
      }

      .cls-34 {
        fill: #fdf9c9;
      }

      .cls-35 {
        fill: #fcb435;
      }

      .cls-36 {
        fill: #010101;
      }

      .cls-37 {
        fill: #faf3b6;
      }

      .cls-38 {
        fill: #060606;
      }

      .cls-39 {
        fill: #1f2020;
      }
    </style>
  </defs>
  <path class="cls-36" d="m26.61,43.53c1.14-.82,1.01-2.2,1.44-3.33.5-1.31.56-2.77,1.73-3.82,1.88-1.68,4.79-1,5.66,1.41.52,1.44.99,2.9,1.48,4.35.2.59.21,1.34,1.09,1.39,1.39.25,2.78.15,4.17.05.18-.08.37-.14.56-.18.59-.06,1.17-.05,1.75.04.67.14,1.27.45,1.79.9.21.2.39.43.52.7,1,3.05.25,4.76-2.51,5.74-1.42.42-2.25,1.73-3.54,2.38-.36.18-.05.73.09,1.14.55,1.56,1.01,3.14,1.46,4.73.48,1.69.06,3.18-1.39,4.17-1.32.9-2.61.63-3.99-.28-1.63-1.08-3.07-3.19-4.88-3.03-1.66.15-3.24,1.83-4.74,2.99-1.38,1.06-2.73,1.25-4.1.22-1.43-1.06-1.78-2.51-1.21-4.19.43-1.29.74-2.63,1.29-3.86.63-1.4,0-2.28-1.09-2.81-.82-.4-1.21-1.39-2.22-1.43-1.83-.66-3.02-2.18-3.01-3.85,0-1.69,1.09-2.98,3.01-3.58.21-.03.42-.04.63-.04,1.99.31,3.99.49,6,.19Z"/>
  <path class="cls-25" d="m19.97,43.77c-1.67.26-2.34,1.53-2.54,2.95-.19,1.36.6,2.5,1.66,3.33.31.24.71.38.91.76-.85.96-.71,2.35-1.45,3.35-1.33-.39-2.29-1.37-3.4-2.13-2.05-1.4-2.98-1.42-4.99,0-.7.5-1.36,1.05-2.07,1.53-.47.31-.96.61-1.52.24-.6-.4-.63-1.01-.46-1.64.23-.89.55-1.75.84-2.62.73-2.15.43-2.99-1.35-4.43-.96-.77-2.39-1.15-2.47-2.73.31-.89,1.08-.83,1.8-.88,1.08-.08,2.17.12,3.24-.18,1.26-.56,1.99-1.54,2.34-2.86.21-.76.47-1.51.76-2.25.26-.69.53-1.44,1.42-1.47.96-.03,1.12.81,1.36,1.48.69,2,1.08,4.19,3.39,5.12,1.2.28,2.42.05,3.62.17.6.06,1.42-.15,1.51.86-.13.24-.27.48-.4.72-.59.68-1.58.09-2.19.68Z"/>
  <path class="cls-36" d="m3.35,42.77c.97.76,1.97,1.49,2.9,2.3,1.25,1.09,2.34,2.21,1.28,4.11-.53.96-.68,2.13-1.08,3.18-.21.55-.15.93.29,1.27.54.42.73-.16,1.04-.38.57-.43,1.13-.87,1.69-1.32,2.53-2.01,3.66-2,6.3.06.93.72,2.13,1.1,2.78,2.17-.44,2.03-.96,2.24-2.54,1.02-3.44-2.66-3.49-2.72-6.84.05-1.26,1.04-2.45,1.61-3.86.64-1.5-1.03-1.86-2.43-1.23-4.25,1.44-4.16,1.43-4.27-1.92-6.51-1.28-.86-2.09-1.93-2-3.29.11-1.53,1.27-2.46,2.84-2.73,1.48-.09,2.96-.02,4.44-.1.26-.08.53-.15.76-.31.97-1.37.9-3.11,1.68-4.58.7-1.32,1.7-1.85,3.07-1.69,1.26.15,2.22.79,2.6,2.13.32,1.13.7,2.25,1.11,3.35.19.51.29,1.2,1.09,1.19,1.59.38,3.24-.14,4.83.29,1.31.57.37,1.44.3,2.2-.14.15-.31.19-.51.1-1.69-.15-3.38-.04-5.07-.06-.09,0-.19,0-.28.01-2.37-.8-2.57-3.04-3.36-4.93-.24-.58.1-1.62-.9-1.7-1.17-.09-.96,1.13-1.22,1.73-.77,1.8-.67,4.08-3.02,4.89-.09,0-.18,0-.26-.01-1.57.01-3.14-.07-4.71.04-.59.27-.48.67-.19,1.1Z"/>
  <path class="cls-36" d="m47.19,38.67c.51-1.32,1.13-2.6,1.49-3.95.44-1.61,1.51-2.29,3.01-2.29,1.51,0,2.55.71,2.98,2.33.32,1.19.97,2.28,1.07,3.55.03.38.32.63.72.68.2-.07.4-.07.6,0,1.52.25,3.11-.28,4.6.41,1.66-.06,2.15,1.23,2.42,2.42.27,1.16-.4,2.18-1.34,2.92-.98.77-1.93,1.62-3.01,2.23-.88.5-.8.97-.5,1.74.41,1.04.64,2.14,1.05,3.18.66,1.7,0,2.99-1.29,3.95-1.27.95-2.54.67-3.72-.4-.88-.8-1.88-1.46-2.85-2.14-.54-.38-1.09-.35-1.65.1-.79.63-1.67,1.13-2.46,1.75-.52.4-1.04.99-1.68.73-.82-.33-.99-1.16-.87-2.01.87-1.25,2.23-1.9,3.38-2.81.41-.27.83-.54,1.28-.75.15-.07.31-.12.48-.16.51-.09,1.02-.09,1.53,0,1.02.28,1.82.93,2.66,1.52.32.27.64.54,1.01.74.61.29,1.28.64,1-.57-.18-.77-.47-1.52-.74-2.27-.71-1.99-.14-3.6,1.46-4.89,1-.8,2.1-1.47,3.09-2.3.13-.08.34-.02.41-.12.14-.2.06.05-.15-.08-.15-.08-.28-.17-.42-.26-1.44-.36-2.88-.26-4.32-.01-2.05-.04-2.83-1.52-3.53-3.1-.39-.98-.46-2.08-1.15-2.92-1.24.83-1.09,2.3-1.56,3.47-.49,1.21-1.14,2.1-2.49,2.32-1.9.13-3.79.03-5.69.08-.21,0-.4-.05-.59-.14-.43-1.02-.81-2.03.68-2.53,1.47.18,2.92-.18,4.38-.09.26-.06.52-.13.71-.34Z"/>
  <path class="cls-11" d="m54.98,51.99c-.85-.53-1.71-1.05-2.56-1.58-.63-.4-1.25-.51-1.82.1h.01c-.84-.03-.93.03-1.12.74-1.27.82-2.23,2.08-3.71,2.61-.85-.85-.64-2.21-1.47-3.08.29-.74,1.11-.83,1.62-1.33,1.43-1.4.9-2.93.54-4.49.13-.36-.06-.4-.34-.34l-1.46-.84c-.61-.43-1.23-.43-1.84,0l-.17.05-.17-.03c-.16-.11-.4-.12-.4-.39-.1-.35-.2-.7-.3-1.05.26-.72.87-.72,1.47-.72,1.13-.01,2.26,0,3.4,0,.48.01.94-.07,1.36-.33.97-.35,1.47-1.08,1.75-2.06.34-1.2.84-2.35,1.14-3.56.24-.97.59-.92,1.18-.34.11,1.19.35,2.34,1.11,3.32.8,1.31,1.34,2.9,3.29,2.9.08.03.16.05.23.08,1.24.02,2.49.04,3.73-.09.41-.13.6.2.85.4l-.04.07c.09.08.12.17.1.25-.02.09-.05.13-.07.13-.6,1.04-1.65,1.54-2.59,2.17-2.19,1.47-2.64,2.73-1.83,5.21.24.73.48,1.47.74,2.19.15.43.68.93.18,1.3-.52.39-1.15.2-1.61-.32-.12-.13-.28-.22-.43-.33.3-.87-.01-1.01-.75-.63Z"/>
  <path class="cls-36" d="m32.87.63c1.98.63,3.88,1.32,5.36,2.97,2.42,2.7,2.6,5.78,1.4,8.86-1.06,2.72-3.83,4.96-7.3,5.27-4.84.43-9.49-4.18-9.06-9.1.33-3.77,2.52-6.53,6.04-7.52.56-.16,1.1-.47,1.7-.48.62-.18,1.23-.18,1.85,0Z"/>
  <path class="cls-36" d="m16.24,31.63c-1.18.03-1.4-.62-1.47-1.69-.24-3.94.89-7.2,4.35-9.39,1.36-.86,2.89-1.34,4.51-1.48,5.43-.21,10.85-.21,16.28,0,5.1.54,8.53,4.08,8.77,8.52-.16.05-.19.15-.1.28.03.04.09.06.17.06.8,2.15.42,3.13-1.45,3.7-.23-.13-.49-.21-.63-.46-.12-.24-.17-.49-.2-.76-.07-.85.06-1.7-.17-2.54-.05-.16-.08-.33-.1-.5-.02-.17,0-.33.02-.5.04-.16.1-.31.18-.45.36-.53-.07-.57-.42-.67-.17-.04-.33-.1-.48-.18-1.57-1.98-3.49-3.39-6.1-3.64-5.07-.13-10.14-.13-15.21,0-1.56.17-2.95.73-4.18,1.71-.32.26-.63.53-.91.83-.33.33-.53.73-.69,1.16-.06.13-.13.26-.21.38-.04.06-.08.11-.12.17-.07.11-.14.23-.21.35-.05.12-.1.24-.15.37-.04.14-.1.26-.17.39-.13.2-.04.4,0,.61,0,.15,0,.3-.03.45-.14.69-.04,1.39-.14,2.08-.03.16-.08.32-.15.47-.21.41-.65.51-1,.73Z"/>
  <path class="cls-36" d="m25.92,31.67c-.02,1.16-.21,2.53-1.57,2.47-1.26-.06-1.08-1.48-1.11-2.48-.01-.09-.02-.17-.03-.26-.06-.94,0-1.88-.02-2.83,0-.25-.01-.5-.03-.75-.04-.33-.1-.67,0-1.01.29-.49.73-.73,1.27-.84.6.04.99.42,1.36.84.24.31.39.66.47,1.05.09,1.1.16,2.19-.05,3.28-.08.19-.18.36-.3.52Z"/>
  <path class="cls-36" d="m40.3,31.68c-.09.99.14,2.45-1.17,2.45-1.3,0-1.08-1.47-1.17-2.45-.16-.2-.44-.3-.49-.59,0-.09,0-.18-.02-.27,0-.09.02-.18.03-.27.14-.99.03-1.98.09-2.97.03-.39.12-.76.38-1.07.25-.2.53-.23.83-.12.61.45.7,1.15.88,1.81.02.83.02,1.65,0,2.19,0-.04.02-.36.02-.69,0-.55.01-1.09-.02-1.64-.14-.49-.26-.98.09-1.44.36-.29.55-.04.73.23.18.39.21.8.22,1.22-.03,1.02.1,2.06-.12,3.07-.08.19-.19.37-.31.54Z"/>
  <path class="cls-33" d="m39.9,19.07c-5.43,0-10.85,0-16.28,0,.2-.29.5-.31.81-.31,4.89,0,9.77,0,14.66,0,.31,0,.61.02.81.31Z"/>
  <path class="cls-8" d="m37.69,31.26c.2.07.36.17.28.42-4.02,0-8.03,0-12.05,0,0-.12,0-.25,0-.37.16-.16.35-.28.57-.37.22-.07.44-.11.67-.12,2.81-.05,5.62-.02,8.43-.02.73,0,1.48-.05,2.1.47Z"/>
  <path class="cls-8" d="m16.24,31.63l.75-.73c1.87-.2,3.75-.13,5.63-.04.21.04.41.13.59.25.19.15.24.34.15.57,0,0-.11-.02-.11-.02-2.34,0-4.67-.02-7.01-.03Z"/>
  <path class="cls-8" d="m40.3,31.68c-.06-.11-.07-.22-.02-.34.14-.15.31-.28.49-.37.2-.08.4-.12.61-.14,1.45-.05,2.9-.04,4.35-.02.44.02.82.19,1.17.45.13.13.26.25.39.38-2.33.02-4.66.03-6.98.05Z"/>
  <path class="cls-32" d="m22.58,41.57c.1.05.2.05.31.01.02.31-.03.6-.33.78-1.03-.75-2.2-.22-3.3-.38-.74-.11-1.57.28-2.23-.35l-.04-.07c1.86-.21,3.73-.21,5.59,0Z"/>
  <path class="cls-3" d="m26.61,43.53c-2.08.67-4.22.16-6.33.28.45-1,1.24-.39,1.9-.4,1.48.04,2.95.08,4.43.12Z"/>
  <path class="cls-5" d="m47.3,41.97c-1.83.22-3.72-.37-5.52.38-.12-.24-.25-.48-.37-.72.09,0,.19-.02.27-.05,1.67-.29,3.35-.07,5.02-.12.34-.01.57.14.59.51Z"/>
  <path class="cls-10" d="m46.88,39.1c-1.6.5-3.19.5-4.79,0,.37-.04.74-.08,1.1-.12,1.23-.11,2.47-.34,3.69.12Z"/>
  <path class="cls-10" d="m3.37,38.98c1.47.04,2.95.08,4.42.12-1.59.5-3.19.5-4.78,0,.12-.04.24-.08.36-.12Z"/>
  <path class="cls-10" d="m22.59,39.39c-1.61-.14-3.25.38-4.83-.29,1.61.05,3.26-.43,4.83.29Z"/>
  <path class="cls-10" d="m56.84,39.1c1.47-.04,2.95-.08,4.42-.12.14.14.27.28.41.41-1.61-.14-3.26.38-4.83-.29Z"/>
  <path class="cls-9" d="m42.09,43.4c.13.13.27.26.4.39-1.49-.07-3.01.36-4.47-.27,1.36-.04,2.71-.08,4.07-.12Z"/>
  <path class="cls-4" d="m22.18,43.4c-.61.26-1.38-.29-1.9.4,0,0-.16.02-.16.02l-.16-.05c.42-1.22,1.46-.46,2.19-.68.01.1.02.21.03.31Z"/>
  <path class="cls-30" d="m48.74,27.94c-.23.41-.53.42-.82.1-.08-.09-.08-.35-.01-.45.23-.33.5-.07.76.01.05.11.08.22.07.34Z"/>
  <path class="cls-25" d="m31.4,57.42c-1.66.19-2.56,1.66-3.93,2.35-.42.21-.81.51-1.17.81-.47.39-.87.92-1.55.38-.6-.47-.46-1.18-.31-1.7.41-1.48.98-2.91,1.49-4.36.47-.74.65-1.47,0-2.21-.94-2.25-3.23-3.01-4.93-4.41-1.23-1.01-1.34-1.17-.28-2.2,2.2-.06,4.41-.04,6.61.03,1.22-.54,1.92-1.45,2.26-2.75.39-1.48.92-2.93,1.47-4.36.19-.48.27-1.21,1.17-1.08.66.1.87.42,1.04,1.03.36,1.31.98,2.55,1.29,3.86.38,1.6,1.32,2.63,2.75,3.3,2.22.08,4.47-.43,6.67.29.93,1.1-.24,1.52-.76,1.96-.95.81-1.98,1.56-3.01,2.24-.86.57-1.39,1.26-1.87,2.09-.21.73-.2,1.46,0,2.19.71,1.55,1.21,3.16,1.59,4.83.14.59.13,1.1-.27,1.34-.44.27-.96.13-1.48-.26-1.6-1.2-3.09-2.57-4.95-3.38-.61-.43-1.23-.43-1.84,0Z"/>
  <path class="cls-20" d="m27.33,46.11c-2.21.48-4.41.53-6.61-.03,0,0-.04-.08-.04-.08,2.11-.21,4.21-.2,6.32,0,.11.04.23.08.34.12Z"/>
  <path class="cls-20" d="m43.98,46.4c-2.22-.15-4.47.39-6.67-.29.11-.04.22-.08.33-.12,1.98-.2,3.96-.2,5.94,0,.13.14.26.27.39.41Z"/>
  <path class="cls-7" d="m26.99,45.99c-2.11,0-4.21,0-6.32,0,2.11-.52,4.21-.51,6.32,0Z"/>
  <path class="cls-7" d="m43.58,45.99h-5.94c1.98-.51,3.96-.51,5.94,0Z"/>
  <path class="cls-1" d="m25.93,52.69c1.04.74,1.04,1.47,0,2.21,0-.74,0-1.47,0-2.21Z"/>
  <path class="cls-5" d="m42.83,43.77c.61-1.08,1.23-1.08,1.84,0-.61,0-1.23,0-1.84,0Z"/>
  <path class="cls-6" d="m31.4,57.42c.61-1.08,1.23-1.08,1.84,0-.61,0-1.23,0-1.84,0Z"/>
  <path class="cls-16" d="m46.13,44.62c.16-.32.33-.67.76-.63.11.01.28.23.29.36.04.49-.34.55-.71.61-.11-.11-.23-.23-.34-.34Z"/>
  <path class="cls-1" d="m38.34,54.89c-.47-.73-.47-1.46,0-2.19,0,.73,0,1.46,0,2.19Z"/>
  <path class="cls-32" d="m3.35,42.77c-.33-.33-1.17-.51-.39-1.2,1.86-.21,3.73-.21,5.59,0l-.04.07c-1.16.71-2.43.2-3.65.35-.61.07-1.39-.2-1.52.79Z"/>
  <path class="cls-29" d="m22.58,41.57c-1.86,0-3.73,0-5.59,0,1.86-.53,3.73-.53,5.59,0Z"/>
  <path class="cls-29" d="m8.56,41.58c-1.86,0-3.73,0-5.59,0,1.86-.53,3.73-.53,5.59,0Z"/>
  <path class="cls-28" d="m53.19,38.65c-.33.03-.83.53-.79.43.5-1.33-1.18-2.44-.32-3.74.53,1.05.97,2.14,1.11,3.32Z"/>
  <path class="cls-15" d="m47.3,41.97c-1.82-.78-3.75-.09-5.61-.39,2.08-.7,4.22-.18,6.33-.28-.24.22-.48.45-.72.67Z"/>
  <path class="cls-13" d="m61.3,41.94c-.27-.09-.53-.17-.8-.26-1.35.18-2.7.19-4.05.04l-.04-.1s.07-.08.07-.08c1.64-.27,3.31-.95,4.82.39Z"/>
  <path class="cls-18" d="m50.59,50.51c.54-1.24,1.15-1.15,1.82-.1-.61.03-1.21.07-1.82.1Z"/>
  <path class="cls-26" d="m54.98,51.99c.12-1.13.98-.65,1.26-.37.4.4-.68.47-.5,1-.43,0-.58-.33-.75-.63Z"/>
  <path class="cls-23" d="m49.48,51.25c-.26-1.2.29-1.18,1.12-.75-.37.25-.75.5-1.12.75Z"/>
  <path class="cls-19" d="m58.19,50.72c-.15-.26-.29-.43-.36-.63-.08-.24.11-.31.3-.31.26,0,.47.14.42.42-.02.15-.19.27-.37.51Z"/>
  <path class="cls-12" d="m61.28,42.4c0-.13-.02-.26-.02-.39.09.03.19.07.28.1l-.26.29Z"/>
  <path class="cls-35" d="m56.45,41.73c1.35-.01,2.7-.03,4.05-.04-1.35.35-2.7.68-4.05.04Z"/>
  <path class="cls-25" d="m26.19,7.31c.55-2.17,2.22-3.19,4.11-3.98.61.21,1.22.2,1.82,0,3.44.2,5.2,2.05,5.88,5.5.4,2.02-1.76,5.11-3.99,5.89-1.1.37-2.24.33-3.38.4-2.08-.38-4.09-2.23-4.45-4.08.07-1.24.07-2.48,0-3.72Z"/>
  <path class="cls-37" d="m26.19,7.31c.64,1.24.64,2.48,0,3.72-.52-1.24-.52-2.48,0-3.72Z"/>
  <path class="cls-34" d="m30.64,15.11c1.05-.81,2.25-.24,3.38-.4-1.07.6-2.14,1.18-3.38.4Z"/>
  <path class="cls-34" d="m32.12,3.33c-.61.45-1.22.46-1.82,0,.61,0,1.22,0,1.82,0Z"/>
  <path class="cls-22" d="m46.9,31.26h-1.15c-1.58-.24-3.16-.24-4.75,0-.14,0-.28,0-.42,0-.31-.95-.07-1.92-.15-2.88,0-.18.05-.36.13-.53.38-.51.32-1.19.66-1.71.38-.25.64,0,.92.21.12.11.23.23.23.41.13-.16-.05-.25-.1-.38-.23-.21-.43-.48-.79-.43-.15.03-.29.09-.4.2-.21.29-.23.79-.78.7-.09-.2-.19-.36-.45-.29-.06-.06-.12-.11-.19-.17-.25-.43-.47-.94-.2-1.37,1.17-1.82.12-1.86-1.28-1.65-.11-.04-.21-.1-.27-.19-.1-.16-.11-.14-.03.06.21.5.2,1.01.09,1.52-.04.16-.1.32-.17.47-.34.6-.89.87-1.53,1.02-.07-.08-.16-.14-.26-.18.07.24.2.44.42.56.44-.44.83-1.13,1.54-.35.03.08.06.16.08.25-.03.36-.06.72-.09,1.08-.37,1.09.13,2.25-.29,3.34h.02c-3.38.35-6.76.05-10.14.15-1.55-.15-.67-1.48-1.06-2.19-.16-.31.33-.88-.39-.97-.04-.14-.06-.28-.06-.43-.11-.27,0-.75-.57-.61-.36-.25-.71-.49-1.07-.74-.49-.12-.91.12-1.33.29-.12.11-.45-.07-.41.29.1-.05.2-.07.32-.06.14.03.25.1.34.21.09.24.18.48.26.72-.79,1.03.3,2.53-.86,3.48-1.83-.24-3.74.58-5.5-.44,0-.9-.15-1.81.1-2.71.04-.11.04-.22,0-.33.45-.32,1.12-.02,1.51-.53.55-1.13-.03-2.49.73-3.57,1.15-1.03,2.35-1.97,4.03-1.82,5.44-.27,10.88-.26,16.31,0,2.71.05,4.45,1.62,5.82,3.75.1.14.15.28.15.45-.06.59-.03,1.17.36,1.66.07.15.14.3.19.46.16.73-.08,1.47.11,2.2.09.13.18.26.27.4.02.22.05.44.07.66Z"/>
  <path class="cls-22" d="m39.92,21.69c-5.44,0-10.88,0-16.31,0,.2-.43.6-.35.95-.35,4.81,0,9.61,0,14.42,0,.35,0,.75-.08.95.35Z"/>
  <path class="cls-22" d="m19.58,23.51c0,.96.01,1.93.02,2.89,0,.56.02,1.12-.74,1.21-.69.33-.92,0-.92-.65.63-.8.43-1.87.91-2.72.25-.24.49-.49.74-.73Z"/>
  <path class="cls-22" d="m17.36,30.52c1.79.91,3.71.17,5.55.41.09.07.11.14.08.22-.03.07-.06.11-.09.11-1.97-.11-3.99.47-5.92-.34.01-.11.04-.21.07-.31.06-.18.17-.2.31-.07Z"/>
  <path class="cls-22" d="m18.84,24.24c-.22.88.64,2.05-.72,2.63-.12.11-.24.12-.38.05-.09-.12-.14-.25-.16-.4.01-.15.05-.28.11-.42l.08.03c.11-.14.24-.27.33-.43-.03-.63.07-1.19.74-1.47Z"/>
  <path class="cls-22" d="m46.14,27.61c-1.17-.42-.84-1.12-.36-1.86.06,0,.13.02.19.02.13.02.26.06.38.12.12.06.21.15.29.26.04.13.02.25-.07.36-.04.12-.08.24-.13.36-.08.12-.12.25-.13.39,0,.15-.06.26-.18.35Z"/>
  <path class="cls-39" d="m46.58,26.52c-.04-.11-.07-.23-.07-.35-.09-.1-.2-.18-.32-.24-.05-.05-.09-.1-.14-.15-.06-.13-.04-.25.06-.36.46,0,1.06-.16,1.23.4.17.55-.36.63-.77.69Z"/>
  <path class="cls-21" d="m46.83,30.6c-.1-.02-.19-.04-.29-.05-.49-.77-.08-1.62-.2-2.43-.02-.22.06-.41.22-.55.66.96.21,2.01.27,3.03Z"/>
  <path class="cls-22" d="m17.75,26.87c.13,0,.25,0,.38,0,0,.48.26.73.73.74-.5.68-1.01.15-1.51,0-.37-.13-.35-.26,0-.39.09-.08.17-.18.23-.29.06-.03.11-.05.17-.07Z"/>
  <path class="cls-14" d="m17.36,30.52c-.1.02-.21.05-.31.07.06-.88-.35-1.82.28-2.64.01.86.02,1.71.03,2.57Z"/>
  <path class="cls-38" d="m17.69,23.93c-.1-.05-.45-.11-.49-.26-.11-.4.27-.23.46-.28.25-.06.52-.05.56.27.03.25-.22.24-.53.27Z"/>
  <path class="cls-22" d="m46.56,27.57c-.03.13-.07.27-.1.4-.1.16-.21.16-.31,0,0-.12,0-.24,0-.37,0-.12,0-.25,0-.37.11-.1.21-.11.31.01.04.11.08.22.11.33Z"/>
  <path class="cls-22" d="m46.45,27.25c-.1,0-.2,0-.31-.01.1-.12.2-.24.31-.36,0,.12,0,.25,0,.37Z"/>
  <path class="cls-22" d="m17.72,26.47c0,.13.02.27.03.4,0,0,0,0,0,0-.09.11-.19.12-.3.03-.05-.11-.05-.23-.01-.35.07-.13.17-.15.29-.07Z"/>
  <path class="cls-22" d="m18.1,25.71c-.11.14-.22.28-.33.43.11-.14.22-.28.33-.43Z"/>
  <path class="cls-27" d="m17.72,26.47c-.1.02-.19.05-.29.07.09-.14.18-.29.27-.43.05.12.05.24.02.36Z"/>
  <path class="cls-22" d="m17.44,26.89c.1,0,.2-.02.3-.03-.13.12-.27.24-.4.37.02-.12.06-.23.1-.34Z"/>
  <path class="cls-17" d="m46.11,25.42c0,.13-.01.25-.02.38-.12.07-.22.06-.3-.06,0,0,0,.01,0,.01,0-.11-.02-.21-.04-.32h.37Z"/>
  <path class="cls-22" d="m22.91,31.25c0-.11,0-.22,0-.32.35-1.08-.75-2.46.68-3.32v.71c-.41.96.21,2.05-.36,3-.11-.01-.21-.03-.32-.06Z"/>
  <path class="cls-22" d="m26.23,27.61c0,.12,0,.25,0,.37.25.24.16.59.27.87.14.83.26,1.65-.27,2.4-.1.02-.21.04-.31.05,0-1.23,0-2.46,0-3.69.1-.18.2-.17.31,0Z"/>
  <path class="cls-31" d="m23.23,31.31c.24-.98-.28-2.06.38-3-.05,1.12.35,2.28-.25,3.37-.04-.12-.09-.25-.13-.37Z"/>
  <path class="cls-22" d="m22.91,26.14c.5-.2,1.01-.68,1.5.04-.36.24-.72.48-1.08.71-.14,0-.28-.01-.41-.02-.23-.24-.21-.49,0-.73Z"/>
  <path class="cls-22" d="m26.23,27.61h-.15s-.15,0-.15,0c-.15-.23-.3-.46-.45-.7.11-.33-.12-1.08.45-.88.62.22.2,1.03.31,1.57Z"/>
  <path class="cls-22" d="m26.97,30.93c3.58,0,7.15.02,10.73.03-.03.1-.03.2,0,.3-3.69,0-7.38,0-11.08,0-.11-.35.04-.44.35-.33Z"/>
  <path class="cls-22" d="m38.76,26.47c-.23.02-.46.05-.7.07l-.07-.09c.08-.52-.13-.97-.33-1.42h0c.28-.22.08-.72.51-.85,1.02.18,1.27.89,1.2,1.8-.11.28-.31.44-.61.48Z"/>
  <path class="cls-2" d="m38.76,26.47c.13-.13.26-.26.38-.39.38-.15.52.22.75.37,0,0-.04.13-.04.13,0,.47.01.94.02,1.41-.12.17-.25.18-.37,0-.49-.39-.68-.92-.75-1.51Z"/>
  <path class="cls-22" d="m40.98,27.98c-.13,0-.26,0-.4,0-.13.18-.22.15-.29-.04,0-.36,0-.72.01-1.09.23-.36.45-.73.68-1.09.28.74.28,1.47,0,2.21Z"/>
  <path class="cls-17" d="m40.29,27.94c.1.03.2.04.3.04,0,1.09,0,2.18,0,3.27-.1.03-.2.05-.3.08,0-1.13,0-2.26,0-3.39Z"/>
  <path class="cls-38" d="m39.5,27.98c.12,0,.25,0,.37,0,0,.96,0,1.92,0,2.88-.12,0-.25,0-.37,0v-2.88Z"/>
  <path class="cls-22" d="m37.68,30.96c.11-1.11-.34-2.27.29-3.34-.05,1.12.42,2.28-.29,3.34Z"/>
  <path class="cls-22" d="m26.97,30.93c-.12.11-.24.22-.35.33-.13,0-.25,0-.38,0,0-.84,0-1.69,0-2.53.12-.18.24-.17.37,0,1.38.53-.1,1.53.37,2.21Z"/>
  <path class="cls-22" d="m41.01,31.26c1.58-.53,3.16-.53,4.75,0-1.58,0-3.16,0-4.75,0Z"/>
  <path class="cls-22" d="m39.9,26.44c-.25-.12-.5-.25-.75-.37.08-.87-.39-1.41-1.11-1.78-.25-.37-.25-.74,0-1.1.7.15,1.08-.99,1.81-.5.66.44,1.21,1.22.47,1.8-.83.65-.38,1.29-.42,1.95Z"/>
  <path class="cls-22" d="m36.86,22.36h-10.96c0-.06,0-.12,0-.18h10.92c.01.06.03.12.04.18Z"/>
  <path class="cls-22" d="m32.16,28.1c-.52-.69-.47-1.4-.14-2.31.73.83.48,1.57.14,2.31Z"/>
  <path class="cls-22" d="m37.66,25.03c.54.37.56.87.33,1.42-.96-.52-1.05.13-1.14.82,0,.03-.1.07-.15.06-.05,0-.1-.06-.15-.09-.28-.32-.56-.64-.37-1.11.62-.19,1.03-.68,1.47-1.1Z"/>
  <path class="cls-22" d="m28.81,25.77c1.04.96,1.04,1.53,0,2.21-.28-.74-.28-1.47,0-2.21Z"/>
  <path class="cls-22" d="m27.94,28.26c-.75-.68-.67-1.22-.24-1.9.62.57.35,1.14.24,1.9Z"/>
  <path class="cls-22" d="m30.78,25.59c.14,1.09-.34,1.8-.18,2.52-.34-.72-.49-1.44.18-2.52Z"/>
  <path class="cls-22" d="m46.14,27.98c.1,0,.21,0,.31,0,.03.86.06,1.72.08,2.58-1.16-.7-.04-1.75-.4-2.58Z"/>
  <path class="cls-22" d="m36.19,26.13c.12.37.25.74.37,1.11-1.25-.26-.5-1.21-.83-1.94.59.22.41.57.47.83Z"/>
  <path class="cls-22" d="m34.41,27.58c-.58-.69.11-1.02.07-1.48.35.51.27.95-.07,1.48Z"/>
  <path class="cls-22" d="m42.46,26.14c.52.42.39.95.28,1.52-.56-.21-.58-.7-.65-1.15.02-.22.24-.26.37-.37Z"/>
  <path class="cls-22" d="m44.02,27.65c-.06-.55-.12-1.1-.22-1.99.68.81.49,1.39.22,1.99Z"/>
  <path class="cls-22" d="m22.91,26.14c0,.24,0,.49,0,.73-.26.06-.51.6-.63.35-.26-.52-.1-1.03.63-1.09Z"/>
  <path class="cls-22" d="m40.98,27.98c0-.74,0-1.47,0-2.21.12,0,.24,0,.37,0,.11.08.15.16.11.24-.04.08-.07.12-.11.12-.09.62.25,1.33-.37,1.84Z"/>
  <path class="cls-22" d="m41.35,26.14c0-.12,0-.25,0-.37.55-.41.93-.34,1.11.37-.12.12-.25.24-.37.37-.25-.12-.49-.25-.73-.37Z"/>
  <path class="cls-22" d="m28.81,25.77c0,.74,0,1.47,0,2.21-.56-.74-.56-1.47,0-2.21Z"/>
  <path class="cls-22" d="m20.97,27.94c-.35-.8-.3-1.26-.17-1.81.47.47.2.95.17,1.81Z"/>
  <path class="cls-22" d="m38.03,23.19c0,.37,0,.74,0,1.1,0,.3-.07.58-.37.74.16-.61-.37-1.35.37-1.84Z"/>
  <path class="cls-22" d="m26.6,28.72c-.12,0-.25,0-.37,0,0-.25,0-.49,0-.74.22-.13.43-.26.65-.39.2.45-.17.75-.28,1.12Z"/>
  <path class="cls-22" d="m45.79,25.74c.1.01.2.03.3.06,0,0,.06-.04.06-.04.07.07.09.15.08.23-.01.08-.03.12-.05.12-.13-.12-.26-.25-.4-.37Z"/>
  <path class="cls-24" d="m46.19,26.11c-.04-.11-.05-.23-.03-.35.12.14.23.27.35.41-.11-.02-.21-.04-.32-.06Z"/>
</svg>