<?xml version="1.0" encoding="UTF-8"?>
<svg id="Layer_1" data-name="Layer 1" xmlns="http://www.w3.org/2000/svg" xmlns:xlink="http://www.w3.org/1999/xlink" viewBox="0 0 64 64">
  <defs>
    <style>
      .cls-1 {
        fill: #455eab;
      }

      .cls-2 {
        filter: url(#drop-shadow-1);
      }
    </style>
    <filter id="drop-shadow-1" filterUnits="userSpaceOnUse">
      <feOffset dx="0" dy="0"/>
      <feGaussianBlur result="blur" stdDeviation="0"/>
      <feFlood flood-color="#010101" flood-opacity="0"/>
      <feComposite in2="blur" operator="in"/>
      <feComposite in="SourceGraphic"/>
    </filter>
  </defs>
  <g class="cls-2">
    <path class="cls-1" d="m64,32.06c0,17.67-14.33,32-32,32S0,49.73,0,32.06,14.33.06,32,.06s32,14.33,32,32Zm-42.63,16.09c3.17-2.34,6.37-4.64,9.49-7.04.85-.65,1.4-.73,2.3-.04,3.25,2.5,6.58,4.9,9.89,7.34.27.2.57.37,1.07.7-1.47-4.58-2.83-8.9-4.27-13.21-.29-.87-.1-1.32.61-1.82,3.4-2.44,6.78-4.92,10.16-7.39.24-.18.45-.39.87-.76-.67,0-1.07,0-1.47,0-4.11,0-8.21-.02-12.32.02-.79,0-1.15-.23-1.38-1.01-.66-2.28-1.42-4.53-2.15-6.79-.67-2.08-1.35-4.15-2.13-6.53-.25.7-.38,1.08-.51,1.45-1.27,3.94-2.57,7.87-3.79,11.82-.26.83-.63,1.07-1.47,1.06-4.11-.04-8.21-.02-12.32-.02-.39,0-.77,0-1.47,0,.55.44.82.67,1.11.88,3.35,2.45,6.68,4.9,10.05,7.32.68.49.85.91.57,1.73-1.1,3.22-2.11,6.46-3.15,9.7-.36,1.11-.7,2.23-1.14,3.61.64-.45,1.04-.72,1.43-1.01Z"/>
  </g>
</svg>