<?xml version="1.0" encoding="UTF-8"?>
<svg id="Layer_1" data-name="Layer 1" xmlns="http://www.w3.org/2000/svg" viewBox="0 0 64 64">
  <defs>
    <style>
      .cls-1 {
        fill: #6795b0;
      }

      .cls-2 {
        fill: #79b3d4;
      }
    </style>
  </defs>
  <path class="cls-2" d="m33.66,63.5h-3.32c-.07-.02-.13-.05-.2-.06-1.09-.12-2.18-.21-3.26-.37-3.03-.46-5.91-1.4-8.66-2.75-4.79-2.35-8.75-5.69-11.85-10.02-3.35-4.69-5.27-9.92-5.75-15.67-.03-.32-.08-.64-.11-.97,0-1.13,0-2.26,0-3.38.02-.09.05-.17.06-.26.16-2.56.61-5.07,1.4-7.5,2.49-7.66,7.2-13.57,14.11-17.69C20.17,2.38,24.62,1,29.37.61c.32-.03.64-.08.97-.11,1.11,0,2.21,0,3.32,0,.09.02.17.05.26.06,2.51.15,4.97.57,7.36,1.33,7.25,2.29,12.98,6.62,17.15,12.98,2.89,4.41,4.53,9.27,4.96,14.54.03.31.07.62.11.93v3.38c-.02.08-.06.15-.06.23-.15,2.38-.55,4.72-1.24,7-1.52,5.1-4.17,9.53-7.92,13.3-2.66,2.67-5.71,4.79-9.13,6.36-3.34,1.54-6.83,2.45-10.49,2.76-.33.03-.66.08-.99.12Zm17.98-32.17c0-.07,0-.14,0-.21-.03-1.07.03-2.16-.11-3.22-.49-3.73-2.13-6.91-4.76-9.57-3.79-3.83-8.46-5.71-13.79-6-2.55-.14-5.05.19-7.49.97-4.06,1.3-7.44,3.58-9.98,7.04-1.86,2.54-2.95,5.38-3.15,8.53-.05.84,0,1.68,0,2.52-.02.07-.05.14-.05.21.04.88.04,1.76.15,2.63.28,2.11.98,4.08,2.04,5.92,1.14,1.98,2.62,3.66,4.4,5.08,1.66,1.33,3.5,2.35,5.5,3.09,1.97.73,4.01,1.18,6.11,1.27.26.01.33.12.37.34.34,1.77.69,3.54,1.04,5.31.07.36.12.38.43.17.41-.27.82-.55,1.22-.83,1.79-1.27,3.49-2.64,5.08-4.16.78-.74,1.54-1.5,2.27-2.29.34-.36.71-.65,1.14-.91.92-.55,1.83-1.13,2.7-1.76,1.22-.89,2.28-1.96,3.22-3.14,1.37-1.71,2.38-3.6,3.02-5.69.38-1.24.59-2.51.67-3.8.03-.5-.02-1-.03-1.5Z"/>
  <path class="cls-1" d="m12.36,31.39c.53,5.21,3.05,9.28,7.2,12.36,3.05,2.27,6.5,3.51,10.28,3.89.17.02.35.04.52.05.45.03.44.03.53.47.35,1.73.7,3.45,1.05,5.18.02.09.05.17.08.31.53-.35,1.04-.68,1.53-1.03,2.86-2.02,5.47-4.31,7.82-6.91.11-.12.27-.22.42-.3,3.92-2.07,6.89-5.04,8.65-9.15.67-1.58,1.06-3.23,1.21-4.93.01.5.06,1,.03,1.5-.08,1.29-.29,2.56-.67,3.8-.64,2.09-1.65,3.98-3.02,5.69-.95,1.18-2,2.25-3.22,3.14-.87.63-1.78,1.21-2.7,1.76-.43.25-.8.54-1.14.91-.73.79-1.5,1.54-2.27,2.29-1.59,1.52-3.29,2.9-5.08,4.16-.4.28-.81.56-1.22.83-.31.2-.36.18-.43-.17-.35-1.77-.7-3.54-1.04-5.31-.04-.22-.12-.33-.37-.34-2.1-.09-4.14-.55-6.11-1.27-2-.74-3.83-1.76-5.5-3.09-1.78-1.42-3.26-3.1-4.4-5.08-1.06-1.84-1.76-3.81-2.04-5.92-.11-.87-.11-1.75-.15-2.63,0-.07.03-.14.05-.21Z"/>
  <path class="cls-1" d="m26.09,30.04c0,1.1-.87,1.96-1.98,1.96-1.1,0-1.96-.87-1.96-1.98,0-1.11.86-1.96,1.98-1.96,1.11,0,1.96.86,1.96,1.98Z"/>
  <path class="cls-1" d="m32.01,28.06c1.11,0,1.96.86,1.96,1.98,0,1.1-.88,1.96-1.98,1.96-1.1,0-1.96-.87-1.95-1.98,0-1.11.86-1.96,1.98-1.95Z"/>
  <path class="cls-1" d="m39.87,32c-1.11,0-1.97-.86-1.97-1.97,0-1.11.86-1.97,1.97-1.97s1.97.85,1.97,1.97c0,1.1-.87,1.97-1.97,1.97Z"/>
</svg>