<?xml version="1.0" encoding="UTF-8"?>
<svg id="Layer_1" data-name="Layer 1" xmlns="http://www.w3.org/2000/svg" viewBox="0 0 64 64">
  <defs>
    <style>
      .cls-1 {
        fill: #1e72b6;
      }
    </style>
  </defs>
  <path class="cls-1" d="m63.99,26.68c-.22,0-.46.02-.68.02H.69c-.22,0-.46,0-.68-.02v-14.62c.04-.1.1-.18.1-.28C1.07,4.87,6.59.07,13.57.05h13.1v7.68c0,.4.04.84.18,1.22.42,1.24,1.66,1.94,2.98,1.72,1.22-.2,2.16-1.3,2.16-2.62V.09h5.34v13.24c0,1.92,1.76,3.18,3.5,2.58,1.12-.38,1.8-1.36,1.8-2.72V.09h5.34v18.59c0,1.82,1.64,3.06,3.38,2.6,1.22-.32,1.96-1.4,1.96-2.86V.37c.16,0,.24,0,.32.04.12.02.24.04.36.08,4.86,1.42,8.04,4.54,9.48,9.4.22.76.34,1.54.5,2.3v14.5h.04Z"/>
  <path class="cls-1" d="m31,64.03c-1.06-.4-2.22-.66-3.16-1.22-2.48-1.48-3.78-3.78-3.82-6.68-.06-3.34,0-6.66,0-10v-.76h-.78c-2.44-.08-4.92.12-7.3-.26-7.48-1.24-12.48-5.58-15.04-12.74-.02-.08-.02-.16-.04-.28h62.28c-.08.26-.14.52-.24.76-2.68,7.58-9.66,12.5-17.77,12.54h-5.14v10.38c0,4.24-2.62,7.4-6.78,8.18-.08,0-.14.06-.22.1h-2v-.02Z"/>
</svg>