<?xml version="1.0" encoding="UTF-8"?>
<svg id="Layer_1" data-name="Layer 1" xmlns="http://www.w3.org/2000/svg" viewBox="0 0 64 64">
  <defs>
    <style>
      .cls-1 {
        fill: #1e72b6;
      }
    </style>
  </defs>
  <path class="cls-1" d="m11.12.5c2.72.85,4.67,2.43,5.2,5.38.06.32.19.69.1.96-.58,1.72.56,2.45,1.71,3.29,6.06,4.42,12.09,8.89,18.14,13.31.31.23.85.4,1.2.29,1.55-.47,3.07-1.04,4.76-1.63,0-2.17.03-4.49-.03-6.81,0-.31-.37-.7-.67-.91-2.44-1.72-3.32-4.28-2.36-6.96.86-2.39,3.39-4.06,5.76-3.82,2.86.29,4.94,2.28,5.31,5.26.27,2.2-.52,4.08-2.41,5.29-.85.54-1.07,1.11-1.04,2.03.06,2,.02,4,.02,6.11,6.16,1.27,10.53,4.69,12.66,10.62,1.55,4.33,1.2,8.6-.91,12.71-3.91,7.63-14.51,11.87-23.91,5.35-1.91,1.89-3.84,3.77-5.73,5.69-.2.2-.34.56-.33.84.09,3.49-.53,4.51-3.73,6h-1.96c-2-.61-3.52-1.74-3.93-3.91-.68-3.55,1.99-6.29,5.67-5.93.53.05,1.24-.19,1.64-.55,1.84-1.65,3.6-3.38,5.37-5.07-4.81-7.73-4.26-14.81,1.69-21.57-1.85-1.3-3.71-2.61-5.56-3.91-4.5-3.16-8.99-6.35-13.52-9.47-.44-.3-1.23-.44-1.71-.26-3.6,1.32-7.33-.29-8.56-3.79-1.26-3.58.66-7.17,4.43-8.31.17-.05.32-.16.48-.24.75,0,1.49,0,2.24,0Zm41.75,37.75c0-4.78-3.73-8.57-8.44-8.59-4.65-.02-8.6,3.92-8.56,8.53.04,4.65,3.85,8.49,8.43,8.5,4.77.01,8.57-3.74,8.57-8.44Z"/>
</svg>