<?xml version="1.0" encoding="UTF-8"?>
<svg id="Layer_1" data-name="Layer 1" xmlns="http://www.w3.org/2000/svg" viewBox="0 0 64 64">
  <defs>
    <style>
      .cls-1 {
        fill: #814332;
      }

      .cls-2 {
        fill: #fec358;
      }

      .cls-3 {
        fill: #bc8b6e;
      }

      .cls-4 {
        fill: #bb2245;
      }

      .cls-5 {
        fill: #fff;
      }

      .cls-6 {
        fill: #fdbf56;
      }

      .cls-7 {
        fill: #966f58;
      }

      .cls-8 {
        fill: #48261b;
      }

      .cls-9 {
        fill: #3a3a39;
      }

      .cls-10 {
        fill: #794030;
      }

      .cls-11 {
        fill: #5a506a;
      }

      .cls-12 {
        fill: #10454d;
      }

      .cls-13 {
        fill: #48352a;
      }

      .cls-14 {
        fill: #301217;
      }

      .cls-15 {
        fill: #3b131a;
      }

      .cls-16 {
        fill: #a0654d;
      }

      .cls-17 {
        fill: #1f1b25;
      }

      .cls-18 {
        fill: #092b2f;
      }

      .cls-19 {
        fill: #484055;
      }

      .cls-20 {
        fill: #e9926f;
      }

      .cls-21 {
        fill: #f0efef;
      }

      .cls-22 {
        fill: #d88767;
      }

      .cls-23 {
        fill: #51485f;
      }

      .cls-24 {
        fill: #35303e;
      }

      .cls-25 {
        fill: #da8868;
      }

      .cls-26 {
        fill: #695d7a;
      }

      .cls-27 {
        fill: #3a3443;
      }

      .cls-28 {
        fill: #ee365f;
      }

      .cls-29 {
        fill: #b3b5bd;
      }

      .cls-30 {
        fill: #5ec9dc;
      }

      .cls-31 {
        fill: #0b363b;
      }

      .cls-32 {
        fill: #8d4b38;
      }

      .cls-33 {
        fill: #bb755a;
      }

      .cls-34 {
        fill: #fedc5c;
      }

      .cls-35 {
        fill: #3d131a;
      }

      .cls-36 {
        fill: #fdbc55;
      }

      .cls-37 {
        fill: #f1b28c;
      }

      .cls-38 {
        fill: #151418;
      }

      .cls-39 {
        fill: #7b4e3c;
      }

      .cls-40 {
        fill: #3f271f;
      }

      .cls-41 {
        fill: #0b373c;
      }

      .cls-42 {
        fill: #3b3444;
      }

      .cls-43 {
        fill: #dcdfe9;
      }

      .cls-44 {
        fill: #9d634c;
      }

      .cls-45 {
        fill: #ffd65a;
      }

      .cls-46 {
        fill: #85712e;
      }

      .cls-47 {
        fill: #2ac0d4;
      }

      .cls-48 {
        fill: #ebae88;
      }

      .cls-49 {
        fill: #38c2d8;
      }

      .cls-50 {
        fill: #ea926f;
      }

      .cls-51 {
        fill: #359ca9;
      }

      .cls-52 {
        fill: #5c1022;
      }

      .cls-53 {
        fill: #e3a84c;
      }

      .cls-54 {
        fill: #c0785c;
      }

      .cls-55 {
        fill: #1a8d9b;
      }

      .cls-56 {
        fill: #c97e60;
      }

      .cls-57 {
        fill: #21b5c7;
      }

      .cls-58 {
        fill: #010101;
      }

      .cls-59 {
        fill: #3c3545;
      }

      .cls-60 {
        fill: #e62a55;
      }

      .cls-61 {
        fill: #d5254e;
      }

      .cls-62 {
        fill: #5e5e5e;
      }

      .cls-63 {
        fill: #a86951;
      }

      .cls-64 {
        fill: #ef9673;
      }

      .cls-65 {
        fill: #2e1e17;
      }
    </style>
  </defs>
  <path class="cls-58" d="m64,29.83v1.42c-.08.08-.13.17-.14.28,0,.11.06.21.14.28v.57c-.46,1.11-1.13,2.04-2.25,2.58-.74.36-.77,1.13-1.06,1.75-.4.86-.83,1.68-1.99.93-1.03-.82-.3-1.78-.2-2.68.06-.51.18-1,.37-1.47.3-.92.32-1.85.04-2.78-.47-.64-1.23-1.01-1.63-1.72-.15-.29-.23-.61-.4-.9-.87-1.52-1.48-1.75-3.15-1.21-.4.13-.82.18-1.23.29-.99.29-2.02.15-3.03.2-.47.05-1.03.09-1.19.59-.49,1.56-1.6,2.59-2.82,3.54-.1.08-.11.25-.14.39-.05.52-.03,1.04.08,1.56.32,3.42,1.96,5.78,5.41,6.65.19.04.37.1.56.14.57.07,1.14.08,1.7-.1.12-.05.25-.08.38-.12.39-.11.77-.23,1.16-.34.63-.19,1.13-.65,1.76-.86.58-.2,1.1-.2,1.5.35.44,1.24-.41,1.81-1.25,2.39-.29.2-.8.27-.72.76.06.36.46.44.77.55,4.25,1.52,6.72,4.42,7.02,9.02-.02.71.08,1.43-.08,2.14-.23.52-.63.81-1.19.89-4.17.08-8.34.01-12.51.04-.56,0-1.14-.11-1.67.19-.32.25-.35.61-.37.98-.04.72.06,1.45-.13,2.17-.24.64-.7,1.02-1.37,1.16-9.61.11-19.22.06-28.82.03-.68-.06-1.17-.37-1.38-1.05-.14-.7-.05-1.4-.09-2.1-.07-.46.06-.99-.46-1.29-3.7-.2-7.39-.02-11.08-.08-1.09-.02-2.18.07-3.26-.07-.44-.11-.78-.36-.95-.8-.12-.71-.04-1.43-.06-2.14-.38-4.24,2.46-7.43,6.45-8.97.39-.15.96-.15,1.06-.61.13-.61-.55-.68-.91-.92-.91-.6-1.67-1.74-3-.46-.53.51-1.2-.2-1.59-.77-1.29-1.85-2.1-3.88-2.29-6.14v-.57c.1-.1.15-.22.15-.36,0-.09,0-.18,0-.27-.02-.09-.06-.17-.14-.23v-2.56c.07-.07.12-.15.14-.25,0-.1,0-.2,0-.3,0-.1,0-.2,0-.3,0-.1,0-.2,0-.3,0-.1,0-.2,0-.3-.02-.1-.07-.18-.14-.25v-.57c.26-2.9.87-5.66,2.75-8.01,2.65-3.32,6.1-4.43,10.19-3.85.42.06.83.2,1.24.28,2.4.43,2.51.35,2.86-2.01.54-3.57,4.26-7.51,7.79-8.25.77-.16,1.39.09,1.9.66.2,1.09-.61,1.51-1.36,1.88-.98.49-1.98.94-2.84,1.6-2.15,1.64-3.17,3.84-2.96,6.54.05.68-.04,1.32-.24,1.95-.2.66-.21,1.3.07,1.94.66,1.54,1.31,1.65,2.33.35,1.3-1.67,3.08-2.47,5.1-2.8.61-.1,1.22-.19,1.82-.31,1.06-.09,2.13-.02,3.19-.06,1.49-.12,2.63-.87,3.67-1.89,1.33-1.3,2.13-1.13,2.81.55.42,1.03,1.08,1.86,1.87,2.61.66.62,1.17,1.34,1.52,2.18.59,1.17.83,1.23,1.67.4,1.02-1,1.45-2.17.99-3.59-.15-.45-.3-.89-.35-1.36-.04-.41-.02-.83-.04-1.24-.3-3.07-1.73-5.09-4.82-6.11-1.74-.57-3.22-1.93-5.14-2.21-.14-.03-.27-.07-.4-.12-.91-.19-1.81-.2-2.71.1-1.13.34-2.23.58-2.73-.93-.06-.97.6-1.27,1.38-1.41.64-.11,1.29-.08,1.93-.22.79-.21,1.55.11,2.32.14,1.06,0,2.08.18,3.04.6,2.04.88,4.05,1.86,5.95,2.98,2.47,1.45,3.44,3.95,3.61,6.72.07,1.08.31,1.48,1.42,1.04,4.46-1.75,8.45-.36,12.24,1.99,1.26.78,2.08,1.99,2.36,3.43.32,1.67.8,3.33.75,5.04-.03.99.53,1.81.64,2.74.01.21-.02.44.16.61Z"/>
  <path class="cls-62" d="m0,32.68c.08.1.16.2.24.3-.09.11-.17.1-.24-.01,0-.09,0-.19,0-.28Z"/>
  <path class="cls-48" d="m31.85,20.21c1.38-.45,2.88-.61,4.03-1.64.25-.22.81-.24.92-.04.73,1.34,2.45,1.93,2.75,3.59.22.71.44,1.43.16,2.18-.3.42-.66.29-1.02.1-.82-.65-1.67-.64-2.54-.09-.46.25-.97.34-1.46.5-.35.11-.83.21-.75.69.1.53.62.54,1.04.45,1.34-.29,2.7-.26,4.05-.41.24-.03.46-.09.65.12.97,5.7-.89,11.63-5.83,14.09-.08.03-.17.06-.26.08-.11.06-.22.06-.33,0-.57-.03-1.08.47-1.68.2-.47-.33-.95-.33-1.42,0-2.29-.54-4.26-1.6-5.86-3.36-1.21-1.33-1.97-2.83-2.34-4.56.06-2.66-.34-5.34.23-7.99.88-.73,1.19-1.89,2.14-2.62,1.1-.85,2.4-.8,3.57-1.28,1.32-.02,2.64-.09,3.96,0Z"/>
  <path class="cls-32" d="m26.72,6.84c.56-.21,1.12-.42,1.69-.63.6,1.37,1.65.67,2.58.56.96-.17,1.92-.18,2.87,0l-.02.04c1.49.88,3.2,1.25,4.71,2.17,1.99,1.21,2.89,2.94,3.2,5.05.23,1.53.33,3.08.76,4.58.2.7.06,1.41-.22,2.08-.14.33-.28.73-.79.63-.54-1.01-1.31-1.82-2.12-2.6-.65-.62-1.12-1.36-1.4-2.23-.5-1.51-1.01-1.63-2.13-.44-1.03,1.1-2.21,1.87-3.71,2.07-1.23-.16-2.46-.17-3.68,0-.75.65-1.72.26-2.58.54-1.88.6-3.45,1.52-4.39,3.26-.5.92-.95.72-1.47.17-.94-.99-1.69-2.1-.98-3.53.49-.98-.09-1.94.06-2.88.43-2.68,1.5-4.95,4.03-6.4,1.25-.71,2.92-.88,3.61-2.45Z"/>
  <path class="cls-48" d="m50.9,40.39c-2.51-.2-5-2.46-5.38-4.93-.1-.64-.64-1.21-.34-1.92-.25-.56.07-1.19-.21-1.75.04-.29-.22-.64.27-.82,1.44-.53,2.27-1.56,2.58-3.08.14-.68.76-.86,1.41-.85,1.14,0,2.32.48,3.4-.28.37-.05.74-.08,1.1-.16.62-.13,1.13-1.09,1.78-.51.87.77,1.99,1.45,1.98,2.86,1.04,4.08.24,8.89-2.87,11.08-.42-.06-.69.48-1.14.28-.85.03-1.71.04-2.56.08Z"/>
  <path class="cls-48" d="m14.22,40.02c-.42-.06-.69.48-1.14.28-.85.05-1.71.03-2.56.08-2.23-.2-3.66-1.56-4.86-3.29-.2-.29-.36-.62-.23-.91,1.05-2.22.76-4.91,2.39-6.92.33-.4-.08-.57-.15-.85-.39-1.11.1-1.63,1.18-1.75.55.38,1.07.5,1.63-.05.32-.32.74-.54,1.14-.78,2-1.17,3.45-.61,4.12,1.66.5,1.7,1.67,3.22,1.35,5.13.67,3.09-.62,5.42-2.87,7.38Z"/>
  <path class="cls-45" d="m8.84,26.68c-.64.42-1.23.86-1.18,1.75-1.14-.78-1.72-.07-2.13.87-1.1,2.48-1.54,5.16-2.23,7.84-.77-1.21-1.34-2.44-1.26-3.9-.11-1.51,0-3.02,0-4.53.07-4.42,2.44-9.26,6.79-10.39.36-.09.73-.11,1.1-.16.18-.13.38-.12.59-.08.19.08.36.19.49.35.82,1.36,2.33,1.84,3.49,2.76.62.5,1.53.8,1.45,1.85-.06.68.05,1.43-1.03.62-.91-.69-1.98-.75-3.04-.08-.9.56-1.84,1.04-2.69,1.68-.56.42-.82.81-.35,1.43Z"/>
  <path class="cls-5" d="m36.16,41.23c2.8-1.26,5.14-3.02,6.47-5.89.11-.24.2-.47.45-.35.18.09.38.33.41.53.48,3,2.37,4.86,4.94,6.16.33.17.5.3.5.7,0,.45-.24.44-.59.56-1.81.63-3.62,1.32-4.96,2.8-.3.33-.63.43-.99.17-1.94-1.35-4.16-2.12-6.32-2.99-.11-.57-.23-1.14.08-1.7Z"/>
  <path class="cls-45" d="m52.9,17.65h.3c1.16.37,2.33.7,3.28,1.54.72.64,1.27,1.41,1.47,2.35.27,1.32.17,2.71.62,4.01.07.21-.07.46-.26.62-.76-.61-1.45-1.24-1.74-2.27-.19-.68-.81-1.42-1.51-.56-1.21,1.48-2.73,1.81-4.49,1.67-.35-.03-.71.14-1.06.22-.52-.28-1.12-.47-1.37-1.09-.44-.89-.79-1.81-1.54-2.56-.67-.67.27-2.75,1.18-3.16.93-.42,1.94-.45,2.88-.78.75.16,1.51.16,2.26,0Z"/>
  <path class="cls-26" d="m23.85,50.59c.18.96.99,1.3,1.71,1.73.32.74.2,1.5.08,2.26.66,1.07,1.87,1.49,2.76,2.3-.15.77-.76.37-1.12.37-2.85.03-5.71.03-8.56.01-.77-.46-.11-1.28-.47-1.84.26-3.34,1.48-6.18,4.33-8.14.28-.19.61-.46,1.03-.34.38,1.2-.06,2.45.25,3.65Z"/>
  <path class="cls-5" d="m27.84,42.89c-2.3.82-4.58,1.69-6.63,3.07-.21.14-.48.14-.73-.13-1.32-1.36-2.98-2.16-4.76-2.75-.38-.13-.95-.24-.93-.89.01-.6.58-.48.88-.7.63-.45,1.39-.76,1.93-1.3.68-.68.91-.28,1.13.3.4,1.03.93.88,1.54.21.79-.86,1.37-1.85,1.61-2.98.19-.89.51-.5.78-.15,1.35,1.75,3.13,2.89,5.18,3.65.28.56.28,1.11,0,1.67Z"/>
  <path class="cls-20" d="m33.84,39.74c.02-.53.51-.65.83-.88,2.69-1.95,4.18-4.53,4.63-7.85.25-1.84.16-3.65.22-5.47-.16-.36-.16-.71,0-1.07.01-.78.02-1.56.03-2.34.65,1.07.99,2.42,2.53,2.63.32,1.63.08,3.27.14,4.91-.51.66-.08,1.49-.4,2.19-.2,3.43-4.66,7.96-7.98,7.88Z"/>
  <path class="cls-1" d="m41.5,21.32c.68-.58.92-1.5.72-2.17-.61-2.04-.52-4.17-1.07-6.2-.62-2.29-2.08-3.89-4.39-4.54-1.12-.32-2.05-.88-2.91-1.6,1.73.26,3.36.68,4.73,1.93.47.43,1.31.42,1.94.69,2.56,1.13,3.59,3.27,3.82,5.91-.16.46-.16.92,0,1.38.86,1.94.97,3.77-.83,5.31-.39.33-.7.84-1.29.65-.66-.2-.64-.83-.71-1.37Z"/>
  <path class="cls-26" d="m35.26,57.14c.41-.84,1.32-1.11,1.98-1.68.39-.34.85-.55.9-1.14.31-.65-.04-1.37.22-2.02.66-.51,1.33-1,1.8-1.71.3-.53-.24-1.49.38-1.63.8-.17,1.06.8,1.36,1.4.87,1.7,1.29,3.55,1.42,5.45.04.53.13,1.17-.56,1.46-2.5-.07-5,.17-7.49-.13Z"/>
  <path class="cls-11" d="m42.94,57.11c.04-2.9-.6-5.6-2.31-8.12-.46.52,0,1.2-.48,1.59,0-.66,0-1.33,0-1.99.28-.52-.1-1.14.25-1.65,3.41,1.66,4.64,4.69,5.14,8.18.17.67.2,1.35-.02,2.02h0c-.86.2-1.72.24-2.57-.03Z"/>
  <path class="cls-23" d="m36.37,53.71c-.41.31-.81.64-1.24.91-.44.28-.75,1.11-1.38.67-.52-.36.04-.97.14-1.43.52-2.47,1.19-4.9,1.71-7.37.25-1.2.66-1.75,1.87-1.01.2.12.42.21.63.31.27,1.42.21,2.84.04,4.26-.56.47-1.12.93-1.69,1.4.12.76.23,1.52-.08,2.26Z"/>
  <path class="cls-28" d="m5.73,48.62c.59.96,1.5,1.62,2.27,2.42.45.47.87.94,1.13,1.55-2.27.22-4.54.24-6.8-.02-.03-2.19.49-4.17,2.14-5.74.37-.35.71-.59,1.22-.49.24.75.18,1.51.05,2.28Z"/>
  <path class="cls-36" d="m58.3,26.17c-.34-1.49-.5-3.01-.73-4.52-.23-1.52-1.34-2.55-2.76-3.17-.56-.24-1.15-.43-1.62-.83.64-.25,1.25.05,1.75.29,1.35.65,2.61,1.49,4.04,1.99.45.16.62.65.88,1.05,1,1.6.67,3.47,1.07,5.18.2.85-.57,1.62-1.35,2.2-.72-.56-.6-1.62-1.28-2.19Z"/>
  <path class="cls-23" d="m25.86,45.74c1.94-.89,1.87-.88,2.32,1.21.53,2.45,1.18,4.87,1.82,7.29.11.43.13.82.13,1.37-1.07-.46-1.91-1.05-2.58-1.89-.28-.65.1-1.37-.23-2.01-.23-.72-.97-.93-1.42-1.43-.29-1.51-.2-3.03-.04-4.54Z"/>
  <path class="cls-20" d="m54.61,40.02c0-.48.39-.72.66-1.04,1.43-1.67,2.15-3.61,2.18-5.8.02-1.41.01-2.83.02-4.24.58.48,1.16.97,1.73,1.45.15,1.05.15,2.1,0,3.14-.56.9-.1,2.06-.82,2.96-.32.39.43.62.52,1.01-.4.58-.81,1.15-1.21,1.73-.59-.59-1.09-.08-1.64.1-.53.16-.78.87-1.45.7Z"/>
  <path class="cls-36" d="m15.95,23.04c-.84-1.33-2.24-1.97-3.5-2.77-.72-.45-1.44-.9-1.64-1.82.77-.55,1.54-.1,2.31-.01.89.41,1.83.32,2.76.28.82-.03,1.05.27,1.24,1.11.32,1.42-.35,2.3-1.17,3.2Z"/>
  <path class="cls-45" d="m33.6,46.34c-.26,2.48-1.18,4.82-1.65,7.3-.81-2.28-1.33-4.65-1.75-7.04,1.06-.98,2.23-.64,3.4-.27Z"/>
  <path class="cls-47" d="m58.91,46.6c1.33.99,2.13,2.28,2.25,3.96q.29,1.97-1.7,2.04c-.15.03-.31.06-.46.09-.15-.05-.28-.14-.38-.26-.48-1.25-.76-2.52-.4-3.86.39-.6-.42-1.63.7-1.98Z"/>
  <path class="cls-30" d="m46.13,48.61l3.39,3.97c-.85.21-1.69.23-2.54-.02-.47-1.48-1.1-2.88-2.01-4.16-.83-1.17-.44-1.85,1.11-2.06.25.75.18,1.51.05,2.26Z"/>
  <path class="cls-22" d="m44.35,24.11c.06-.58.45-1.13.92-1.02.68.16.81.92.82,1.59.31.54-.03,1.17.23,1.73-.3.86-.3,1.82-1.11,2.48-.31.26-.54.24-.84.11-.24-1.63-.2-3.26-.03-4.89Z"/>
  <path class="cls-30" d="m58.31,48.61c.19,1.31.38,2.63.57,3.94-1.43.3-2.85.25-4.28.04.97-1.5,2.33-2.64,3.48-3.98.08-.09.15-.09.23,0Z"/>
  <path class="cls-20" d="m17.68,24.44c-.07-.49.09-.97.53-1.11.58-.18.86.38,1.15.78.55,1.35.2,2.74.23,4.12.01.5-.37.71-.82.79-.77-.46-1.06-1.18-1.08-2.04.17-.85-.09-1.69,0-2.54Z"/>
  <path class="cls-22" d="m33.03,42.04l1.06-.24c.31.67.23,1.35.03,2.04-1.41.13-2.83.11-4.24,0-.23-.68-.27-1.37.02-2.04.26.08.52.16.78.24.78-.18,1.57-.18,2.35,0Z"/>
  <path class="cls-50" d="m14.22,40.02c.17-.89.98-1.34,1.43-2.04,1.04-1.65,1.54-3.4,1.44-5.33.64,1.26.43,2.69.76,4.02.14.57-.58,1.11-1.06,1.57-.77.72-1.42,1.61-2.56,1.79Z"/>
  <path class="cls-61" d="m15.88,48.01c-.64.59-1.29,1.18-2.15,1.97-.02-1.87.8-3.27,1.01-4.8.08-.56.77-.2,1.18.03.21.94.28,1.87-.04,2.8Z"/>
  <path class="cls-61" d="m7.72,44.92c.44-.05.95-.05,1.03.47.23,1.49.92,2.89.93,4.64-.87-.73-1.73-1.25-2.05-2.27-.09-.95-.25-1.9.09-2.83Z"/>
  <path class="cls-57" d="m54.34,49.46c-.42-1.47.8-2.68.69-4.13-.02-.21.76-.65,1.25-.12.34.84.18,1.69.09,2.55-.63.62-1.03,1.53-2.04,1.69l.02.02Z"/>
  <path class="cls-28" d="m14.2,52.58c1.16-1.32,2.32-2.64,3.48-3.96.63.13.35.53.25.87-.4,1.03-.8,2.05-1.2,3.08-.84.26-1.69.23-2.54.02Z"/>
  <path class="cls-57" d="m48.03,45.18c.53-.54.99-.3,1.14.27.36,1.32.6,2.67.88,4.01l.02-.02c-1.09.12-1.45-.8-2.04-1.4-.16-.95-.15-1.91,0-2.86Z"/>
  <path class="cls-6" d="m19.94,37.14c-.7-.72-.18-1.75-.53-2.62-.37-.91-.26-2-.37-3.01-.02-.21-.38-.53.18-.52.25,0,.66-.13.67.28.04,1.96,1.55,3.89.06,5.87Z"/>
  <path class="cls-43" d="m12.75,45.49c-.28,1.04-.57,2.08-.85,3.12-.09.08-.18.09-.27,0-.56-.97-.74-2.04-.85-3.13.66-.22,1.32-.23,1.97,0Z"/>
  <path class="cls-43" d="m53.15,45.49c-.28,1.04-.57,2.08-.85,3.12-.09.08-.18.09-.27,0-.56-.97-.74-2.04-.85-3.13.66-.22,1.32-.23,1.97,0Z"/>
  <path class="cls-59" d="m18.49,57.13c2.86,0,5.73.01,8.59,0,.44,0,.95.19,1.32-.24.76.46.43.54-.18.54-1.93,0-3.86,0-5.79,0-1.32,0-2.63-.02-3.95-.03-.07-.06-.09-.12-.07-.17.03-.05.05-.08.08-.08Z"/>
  <path class="cls-42" d="m42.94,57.11c.86,0,1.72.02,2.57.03-.16.09-.32.25-.48.25-3.22.02-6.44.02-9.65.02-.04,0-.11-.03-.12-.05-.02-.07,0-.15,0-.22,2.56,0,5.12-.02,7.68-.02Z"/>
  <path class="cls-60" d="m17.94,49.49c-.03-.31.05-.64-.25-.87-.04-.09-.05-.18-.02-.27.36-.73-.15-1.57.31-2.28q1.49,1.25-.03,3.42Z"/>
  <path class="cls-37" d="m22.17,24.11c0,2.26.01,4.52,0,6.78,0,.41.12.86-.24,1.21-.46-.5-.35-1.1-.28-1.69.3-2-.11-4.02.22-6.01.1-.1.2-.19.29-.29Z"/>
  <path class="cls-34" d="m2.04,28.7c.38,1.51.38,3.02,0,4.53-.69-1.51-.29-3.02,0-4.53Z"/>
  <path class="cls-4" d="m2.32,52.57c2.27,0,4.54.01,6.8.02.24.29-.04.27-.18.27-2.07,0-4.14,0-6.22,0-.2,0-.36-.07-.41-.29Z"/>
  <path class="cls-22" d="m50.67,43.18c.14-.4-.02-1.11.81-.79.47.16.94.16,1.42,0,.89-.22.12.68.53.79-.92.25-1.84.25-2.76,0Z"/>
  <path class="cls-64" d="m18.76,29.01c.78-.58.57-1.43.58-2.21.01-.9.01-1.8.01-2.7.09.02.17.05.25.08.28,1.61.21,3.22.05,4.83-.3.36-.6.37-.89,0Z"/>
  <path class="cls-22" d="m12.51,42.39c.78-.14.54.4.53.79-.82.25-1.65.25-2.47,0-.01-.39-.25-.93.53-.79.47.16.94.16,1.42,0Z"/>
  <path class="cls-3" d="m21.88,24.39c-.09,2,.3,4.02-.22,6.01.06-2-.36-4.03.22-6.01Z"/>
  <path class="cls-33" d="m42.08,29.84c0-1.7,0-3.39,0-5.09.5,1.8.44,3.59.03,5.4-.09-.06-.13-.12-.11-.2.02-.08.05-.11.07-.11Z"/>
  <path class="cls-25" d="m61.44,29.3c1.18,1.03.46,2.08.02,3.12-.49-1.04-.41-2.08-.02-3.12Z"/>
  <path class="cls-44" d="m44.35,24.11c0,1.63.02,3.26.03,4.89-.03.03-.07.07-.1.1-.26-1.67-.4-3.33.08-4.99Z"/>
  <path class="cls-37" d="m10.51,40.39c.84-.54,1.7-.43,2.56-.08-.84.47-1.69.51-2.56.08Z"/>
  <path class="cls-63" d="m19.65,29.01c-.02-1.61-.03-3.22-.05-4.83.53,1.6.43,3.21.05,4.83Z"/>
  <path class="cls-51" d="m54.59,52.58c1.43-.01,2.86-.02,4.28-.04,0,0,0,.08,0,.08.09.05.12.09.09.14-.03.04-.06.06-.1.06-1.42,0-2.84.02-4.26.03-.04,0-.11-.06-.11-.08.01-.07.05-.13.09-.19Z"/>
  <path class="cls-24" d="m25.86,45.74c.01,1.51.03,3.03.04,4.54-.52-1.51-.45-3.03-.04-4.54Z"/>
  <path class="cls-56" d="m29.91,43.76c1.39,0,2.78,0,4.17,0,.11.06.14.12.11.18-.03.06-.07.09-.1.09-1.39,0-2.79,0-4.18,0-.1-.06-.14-.12-.1-.18.04-.06.07-.09.11-.09Z"/>
  <path class="cls-37" d="m31.85,20.21c-1.32.38-2.64.38-3.96,0,.18-.03.35-.05.53-.08.95-.3,1.94.08,2.89-.21.18.1.36.19.54.29Z"/>
  <path class="cls-34" d="m33.6,46.34c-1.13.09-2.3-.27-3.4.27l-.3-.53c1.3-.28,2.61-.28,3.91,0,.04.18-.07.24-.22.27Z"/>
  <path class="cls-24" d="m38.14,50.05c-.01-1.42-.03-2.84-.04-4.26.54,1.41.42,2.84.04,4.26Z"/>
  <path class="cls-49" d="m59.17,52.56c.16-.08.34-.26.49-.23,1.52.27,1.6-.67,1.51-1.76.54.61.19,1.33.23,2-.74.25-1.49.26-2.23,0Z"/>
  <path class="cls-46" d="m33.81,46.07c-1.3,0-2.61,0-3.91,0,1.3-.52,2.61-.52,3.91,0Z"/>
  <path class="cls-10" d="m28.45,18.13c1.23-.4,2.45-.39,3.68,0-1.23,0-2.45,0-3.68,0Z"/>
  <path class="cls-37" d="m52.62,26.76c-1.06,1.02-2.24.49-3.4.28,1.12-.21,2.3.21,3.4-.28Z"/>
  <path class="cls-11" d="m23.85,50.59c-.52-1.19-.09-2.44-.25-3.65.64,1.18.17,2.43.25,3.65Z"/>
  <path class="cls-64" d="m17.68,24.44c.38.85.38,1.69,0,2.54-.14-.85-.54-1.69,0-2.54Z"/>
  <path class="cls-34" d="m48.12,24.14c.5.31,1.13.46,1.37,1.09-.84.11-1.59.13-1.37-1.09Z"/>
  <path class="cls-20" d="m61.44,29.3c0,1.04.01,2.08.02,3.12-.03.16-.11.26-.29.23-.26-1.04-.17-2.08-.05-3.12.06-.15.13-.27.33-.24Z"/>
  <path class="cls-40" d="m61.11,29.54c.02,1.04.03,2.08.05,3.12-.54-1.03-.38-2.07-.05-3.12Z"/>
  <path class="cls-15" d="m15.88,48.01c.01-.93.03-1.87.04-2.8.47.94.48,1.87-.04,2.8Z"/>
  <path class="cls-40" d="m59.21,33.54c0-1.05,0-2.1,0-3.14.39,1.05.39,2.1,0,3.14Z"/>
  <path class="cls-8" d="m33.86,6.77c-.96,0-1.92,0-2.87,0,.96-.4,1.92-.4,2.87,0Z"/>
  <path class="cls-37" d="m30.15,40.02c.47-.83.95-.84,1.42,0-.47,0-.95,0-1.42,0Z"/>
  <path class="cls-4" d="m14.2,52.58c.85,0,1.69-.01,2.54-.02-.83.59-1.73.26-2.62.2,0,0-.03-.07-.02-.09.02-.04.06-.07.1-.1Z"/>
  <path class="cls-51" d="m46.98,52.57c.85,0,1.69.01,2.54.02-.85.45-1.69.5-2.54-.02Z"/>
  <path class="cls-7" d="m31.31,19.92c-.93.49-1.93.16-2.89.21.93-.53,1.93-.17,2.89-.21Z"/>
  <path class="cls-44" d="m50.67,43.18c.92,0,1.84,0,2.76,0-.92.48-1.84.48-2.76,0Z"/>
  <path class="cls-14" d="m7.72,44.92c-.03.94-.06,1.89-.09,2.83-.33-.95-.47-1.9.09-2.83Z"/>
  <path class="cls-31" d="m48.03,45.18c0,.95,0,1.91,0,2.86-.38-.95-.38-1.91,0-2.86Z"/>
  <path class="cls-37" d="m50.9,40.39c.84-.54,1.7-.43,2.56-.08-.08.03-.16.06-.24.08-.66.28-1.38-.06-2.04.21-.19.06-.25-.06-.28-.21Z"/>
  <path class="cls-49" d="m58.31,48.61h-.12s-.12,0-.12,0c-.04-.08-.05-.17-.02-.26.47-.61-.44-1.59.55-2.07.1.1.2.21.3.31-.7.52.06,1.48-.61,2.01Z"/>
  <path class="cls-18" d="m56.37,47.75c-.03-.85-.06-1.7-.09-2.55.57.83.42,1.68.09,2.55Z"/>
  <path class="cls-52" d="m5.73,48.62l-.05-2.28c.5.75.36,1.51.05,2.28Z"/>
  <path class="cls-2" d="m13.12,18.44c-.77,0-1.54,0-2.31.01-.1-.09-.19-.18-.28-.27.58-.24,1.16-.21,1.75-.03.29.08.68-.14.85.29Z"/>
  <path class="cls-41" d="m46.13,48.61l-.05-2.26c.51.74.36,1.5.05,2.26Z"/>
  <path class="cls-12" d="m58.61,46.28c-.71.55.09,1.5-.55,2.07,0-.59-.03-1.17-.02-1.76.01-.38.14-.66.57-.31Z"/>
  <path class="cls-44" d="m10.57,43.18c.82,0,1.65,0,2.47,0-.82.5-1.65.5-2.47,0Z"/>
  <path class="cls-55" d="m59.17,52.56c.74,0,1.49,0,2.23,0-.79.6-1.68.21-2.52.26,0-.07,0-.13,0-.2.09-.02.19-.04.28-.06Z"/>
  <path class="cls-16" d="m33.03,42.04c-.78,0-1.57,0-2.35,0,.78-.4,1.57-.39,2.35,0Z"/>
  <path class="cls-34" d="m52.9,17.65c-.75.38-1.51.38-2.26,0,.75,0,1.51,0,2.26,0Z"/>
  <path class="cls-53" d="m12.27,18.15c-.58,0-1.16.02-1.75.03-.2-.01-.4-.02-.6-.03.78-.42,1.56-.42,2.34,0Z"/>
  <path class="cls-29" d="m53.15,45.49c-.66,0-1.31,0-1.97,0,.66-.54,1.32-.4,1.97,0Z"/>
  <path class="cls-65" d="m34.09,44.03c.03-.09.03-.18,0-.27,0-.66,0-1.31,0-1.97.5.75.5,1.49,0,2.24Z"/>
  <path class="cls-38" d="m36.37,53.71c.03-.75.05-1.51.08-2.26.33.77.44,1.52-.08,2.26Z"/>
  <path class="cls-65" d="m29.91,43.76c-.04.09-.04.18,0,.27-.5-.75-.5-1.49,0-2.24,0,.66,0,1.31,0,1.97Z"/>
  <path class="cls-17" d="m25.64,54.58c-.03-.75-.05-1.51-.08-2.26.53.74.41,1.49.08,2.26Z"/>
  <path class="cls-35" d="m17.97,46.07c-.21.75.23,1.58-.31,2.28.11-.76-.37-1.6.31-2.28Z"/>
  <path class="cls-29" d="m12.75,45.49c-.66,0-1.31,0-1.97,0,.66-.54,1.32-.4,1.97,0Z"/>
  <path class="cls-17" d="m38.36,52.3c-.03.68.28,1.39-.22,2.02.05-.68-.25-1.39.22-2.02Z"/>
  <path class="cls-27" d="m45.51,57.14c0-.67.01-1.34.02-2.02.39.68.44,1.35-.02,2.02Z"/>
  <path class="cls-19" d="m18.49,57.13c0,.09,0,.17-.01.26-.55-.6-.18-1.3-.23-1.96.45.52.16,1.14.24,1.7Z"/>
  <path class="cls-7" d="m51.18,40.6c.64-.47,1.36-.16,2.04-.21-.64.48-1.35.19-2.04.21Z"/>
  <path class="cls-64" d="m42.08,29.84c.01.1.02.21.04.31-.16.56.25,1.21-.29,1.7.09-.67-.26-1.4.26-2.01Z"/>
  <path class="cls-38" d="m27.32,51.71c.51.62.19,1.34.23,2.01-.47-.62-.16-1.34-.23-2.01Z"/>
  <path class="cls-9" d="m27.84,42.89c0-.56,0-1.11,0-1.67.49.56.49,1.11,0,1.67Z"/>
  <path class="cls-9" d="m36.16,41.23c-.03.57-.06,1.13-.08,1.7-.33-.58-.46-1.16.08-1.7Z"/>
  <path class="cls-23" d="m40.4,46.94c-.09.55.2,1.16-.25,1.65.04-.56-.3-1.17.25-1.65Z"/>
  <path class="cls-20" d="m46.32,26.41c-.44-.53-.16-1.15-.23-1.73.55.51.19,1.15.23,1.73Z"/>
  <path class="cls-13" d="m44.97,31.79c.51.53.17,1.16.21,1.75-.45-.54-.16-1.17-.21-1.75Z"/>
  <path class="cls-54" d="m12.51,42.39c-.47.36-.94.36-1.42,0,.47,0,.94,0,1.42,0Z"/>
  <path class="cls-32" d="m44.33,16.73c-.36-.46-.36-.92,0-1.38,0,.46,0,.92,0,1.38Z"/>
  <path class="cls-54" d="m52.9,42.39c-.47.36-.94.36-1.42,0,.47,0,.94,0,1.42,0Z"/>
  <path class="cls-55" d="m54.32,49.45c-.04.07-.07.15-.11.22-.19-.21.05-.16.13-.2,0,0-.02-.02-.02-.02Z"/>
  <path class="cls-21" d="m52.02,48.61c.09,0,.18,0,.27,0-.02.07-.03.15-.05.22l-.22-.21Z"/>
  <path class="cls-21" d="m11.63,48.61c.09,0,.18,0,.27,0-.02.07-.03.15-.05.22l-.22-.21Z"/>
  <path class="cls-39" d="m33.26,39.82c.11,0,.22,0,.33,0-.11.23-.22.23-.33,0Z"/>
  <path class="cls-55" d="m50.05,49.46c.07.04.15.07.22.11-.21.19-.16-.05-.2-.13,0,0-.02.02-.02.02Z"/>
  <path class="cls-58" d="m33.84,33.77c1.02-.27,1.66-1.04,2.21-1.83.5-.72,1.07-.32,1.61-.29.06,0,.71.52.27,1-1.12,1.23-2.1,2.62-3.86,3.06-2.96.75-5.49.08-7.51-2.24-.42-.49-1.17-1.15-.36-1.75.62-.46,1.3-.3,1.81.6.54.93,1.56,1.43,2.69,1.53,1.04-.02,2.09-.07,3.13-.08Z"/>
  <path class="cls-58" d="m39.52,24.46c.34.36.34.71,0,1.07-.55.44-1.02.66-1.87.45-.85-.2-1.86.27-2.8.43-.74.12-1.36-.12-1.54-.87-.19-.78.61-.87,1.06-1.07.54-.23,1.16-.26,1.75-.38.85-.35,1.7-.35,2.56,0,.28.12.56.24.84.37Z"/>
  <path class="cls-58" d="m27.87,24.1c.57.16,1.16.29,1.72.5.48.18,1.06.41.78,1.08-.2.47-.62.87-1.23.74-1.29-.28-2.55-.6-3.9-.31-.55.12-.95-.37-1.05-.93-.15-.87.58-.89,1.12-1.08.85-.35,1.7-.35,2.56,0Z"/>
  <path class="cls-37" d="m33.84,33.77c-1.04.31-2.08.63-3.13.08,1.03-.55,2.08-.43,3.13-.08Z"/>
  <path class="cls-37" d="m38.68,24.1h-2.56c.85-.85,1.7-.85,2.56,0Z"/>
  <path class="cls-37" d="m27.87,24.1h-2.56c.85-.85,1.7-.85,2.56,0Z"/>
</svg>