<?xml version="1.0" encoding="UTF-8"?>
<svg id="Layer_1" data-name="Layer 1" xmlns="http://www.w3.org/2000/svg" viewBox="0 0 64 64">
  <defs>
    <style>
      .cls-1 {
        fill: #1e72b6;
      }
    </style>
  </defs>
  <path class="cls-1" d="m32.15,64c-1.43-.8-2.83-1.25-3.76-2.17-8.78-8.66-17.49-17.39-26.19-26.14-2.43-2.45-2.43-5.34,0-7.78C10.86,19.2,19.54,10.52,28.25,1.86c2.5-2.49,5.38-2.47,7.9.04,8.59,8.54,17.15,17.1,25.69,25.69,2.51,2.53,2.51,5.9,0,8.42-8.54,8.59-17.09,17.16-25.72,25.66-1.01.99-2.51,1.5-3.97,2.33ZM6.15,31.69c8.74,8.75,17.45,17.46,26.08,26.1,8.63-8.63,17.35-17.34,25.83-25.82-8.66-8.68-17.39-17.43-26.06-26.11C23.44,14.41,14.76,23.08,6.15,31.69Z"/>
</svg>