<?xml version="1.0" encoding="UTF-8"?>
<svg id="Layer_1" data-name="Layer 1" xmlns="http://www.w3.org/2000/svg" viewBox="0 0 64 64">
  <defs>
    <style>
      .cls-1 {
        fill: #69addf;
      }

      .cls-2 {
        fill: #2b378c;
      }

      .cls-3 {
        fill: #97caed;
      }

      .cls-4 {
        fill: #4655a5;
      }

      .cls-5 {
        fill: #2d3c96;
      }

      .cls-6 {
        fill: #2b368b;
      }

      .cls-7 {
        fill: #519cd5;
      }

      .cls-8 {
        fill: #2d479e;
      }

      .cls-9 {
        fill: #2b3587;
      }

      .cls-10 {
        fill: #637abc;
      }

      .cls-11 {
        fill: #3d4fa2;
      }

      .cls-12 {
        fill: #2b368a;
      }

      .cls-13 {
        fill: #8fc4ea;
      }

      .cls-14 {
        fill: #283a91;
      }

      .cls-15 {
        fill: #57a0d7;
      }

      .cls-16 {
        fill: #95c8ec;
      }

      .cls-17 {
        fill: #8fb7e1;
      }

      .cls-18 {
        fill: #749fd4;
      }

      .cls-19 {
        fill: #404ea1;
      }
    </style>
  </defs>
  <path class="cls-16" d="m52.39,50.09c-3.62-1.88-7.21-3.82-10.97-5.46-4.1-1.78-8.25-3.38-12.61-4.4-1.22-.29-2.51-.33-3.76-.48-.23-.26-.26-.56-.21-.88.19-7.14.06-14.28.06-21.43-.02-.21.04-.41.15-.59,9.62-1.49,18.15-5.77,26.58-10.34.24-.13.5-.21.76-.32.58.59.46,1.34.46,2.05.01,13.27.01,26.54,0,39.8,0,.71.1,1.46-.46,2.05Z"/>
  <path class="cls-4" d="m4.78,20.81c.04-1.88.81-3.27,2.63-3.97,5.21-.09,10.42-.03,15.64-.04.49,0,1.01-.07,1.44.27.44.58.37,1.26.37,1.92.01,6.16,0,12.32,0,18.48,0,.67.02,1.34-.32,1.95-.96.82-2.12.38-3.19.51-3.86,0-7.72,0-11.59,0-.83,0-1.66-.02-2.4-.46-1.67-.79-2.6-2.09-2.65-3.97,0-.1-.01-.2-.02-.31-.11-4.8-.25-9.59.09-14.39Z"/>
  <path class="cls-15" d="m59.34,51.78c-1.1,2.48-3.26,3.48-5.06,2.31-.45-.29-.93-.61-.9-1.27-.52-.83-.18-1.82-.5-2.69-.17-.48-.15-.98-.15-1.48,0-13.73,0-27.46,0-41.19,0-.39-.01-.78.09-1.15.25-.93.37-1.87.3-2.83,2.32-2.5,5.06-1.96,6.23,1,.41.55.2,1.18.2,1.77.03,5.72-.02,11.44.03,17.16.46,3.24.45,6.49,0,9.73-.07,5.63,0,11.25-.04,16.88,0,.59.21,1.21-.2,1.76Z"/>
  <path class="cls-14" d="m14.45,60.79c-1.35-4.02-2.73-8.03-4.04-12.06-.96-2.96-1.81-5.95-2.72-8.93,3.72-.39,7.45-.07,11.17-.17.66-.02,1.32-.01,1.98,0,.71.29.6.94.67,1.51.04.77-.12,1.54.13,2.3.11.3.22.59.25.92.06.55-.36,1.11.03,1.65.16.11.29.24.19.46.03,2.94,1.05,5.62,2.39,8.13,1.73,3.23,1.21,4.89-2.32,6.19-1.98.73-4.06.95-6.12,1.26-.59-.36-1.19-.7-1.61-1.27Z"/>
  <path class="cls-14" d="m4.71,35.51c-1.9-1.23-3.42-2.77-4.37-4.88-.2-.44.06-.57.11-.84-.06-.99-.06-1.98,0-2.98-.02-2.26,2-4.96,4.26-5.72.38,1.74.17,3.49.16,5.24-.02,3.01.21,6.03-.13,9.04l-.02.14Z"/>
  <path class="cls-14" d="m60.05,23.52c1.93.36,3.51,1.14,3.95,3.29-.19.88-.19,1.76,0,2.64-.61,1.93-1.71,3.29-3.91,3.36-.5.08-.52-.27-.52-.61,0-2.63-.01-5.27,0-7.9,0-.36.15-.63.48-.79Z"/>
  <path class="cls-16" d="m22.11,46.48c-.12-.13-.25-.25-.37-.38-.31-.53-.2-1.07-.07-1.62-.11-.23-.22-.47-.33-.7-.2-.62-.08-1.26-.09-1.89.29-.67-.06-1.46.38-2.11.88-.31,1.78-.07,2.67-.14.2-.02.35.05.45.22.2.77.39,1.53.59,2.3-.2.54-.21,1.08,0,1.62-.5,1.6-1.78,2.26-3.24,2.7Z"/>
  <path class="cls-1" d="m53.07,5.78c0,14.9,0,29.8,0,44.7.12.3-.03.36-.29.32-.03-.21-.06-.43-.09-.64-.22-.42-.13-.87-.13-1.31,0-13.81,0-27.62,0-41.44,0-.44-.09-.89.14-1.31.03-.22.06-.43.08-.65.26-.04.41.02.29.32Z"/>
  <path class="cls-3" d="m52.7,6.11c0,14.68,0,29.37,0,44.05-.1-.02-.21-.04-.31-.07,0-14.63,0-29.27,0-43.9.11-.03.21-.05.32-.08Z"/>
  <path class="cls-17" d="m25.05,16.84c0,.1,0,.19,0,.29.33,1.19.14,2.41.15,3.62.03,5.58.02,11.17,0,16.75,0,.54.14,1.11-.15,1.63,0,.21,0,.41,0,.62-.1.03-.2.07-.29.11,0,0-.07-.12-.07-.12-.09-.2-.13-.4-.12-.62,0-7.24,0-14.48,0-21.72-.02-.22.03-.42.16-.6.11,0,.22.01.33.05Z"/>
  <path class="cls-11" d="m24.73,16.8c-.02.11-.03.22-.05.33-.1.17-.19.16-.29,0-5.08,0-10.16,0-15.24-.01-.58,0-1.22.21-1.74-.28.1-.04.19-.07.29-.1,5.67-.15,11.35-.24,17.02.05,0,0,0,0,0,0Z"/>
  <path class="cls-5" d="m4.73,35.37c0-4.76-.01-9.52-.02-14.28,0-.1.03-.19.07-.28.38.35.28.82.28,1.25,0,4.04,0,8.07,0,12.11,0,.42.17.9-.32,1.2Z"/>
  <path class="cls-19" d="m21.06,39.81c-4.46,0-8.91,0-13.37,0-.11-.11-.22-.22-.34-.33,4.68,0,9.36,0,14.04-.01.07.07.1.15.08.22-.02.08-.04.12-.06.12-.12.08-.24.08-.35,0Z"/>
  <path class="cls-8" d="m59.72,33.18c-.1-.05-.2-.06-.31-.05,0-3.22,0-6.45,0-9.67.11.01.22,0,.32-.05.11.04.22.07.33.11-.49,3.1-.61,6.2.04,9.3-.12.12-.24.24-.36.37Z"/>
  <path class="cls-2" d="m.45,26.8c.44.99.44,1.98,0,2.98-.6-.99-.6-1.98,0-2.98Z"/>
  <path class="cls-7" d="m52.79,50.8c.09-.11.19-.21.29-.32.62.72.2,1.57.31,2.35-.93-.46-.64-1.28-.59-2.03Z"/>
  <path class="cls-6" d="m14.45,60.79c.71.21,1.35.5,1.61,1.27-1.02.19-1.51-.29-1.61-1.27Z"/>
  <path class="cls-7" d="m53.07,5.78c-.1-.11-.19-.21-.29-.32-.26-.72.15-1.33.32-1.98.41.77.46,1.54-.04,2.3Z"/>
  <path class="cls-2" d="m64,29.45c-.44-.88-.44-1.76,0-2.64,0,.88,0,1.76,0,2.64Z"/>
  <path class="cls-13" d="m25.35,43.77c-.44-.54-.43-1.08,0-1.62,0,.54,0,1.08,0,1.62Z"/>
  <path class="cls-3" d="m25.06,39.12c0-7.33,0-14.66,0-21.99.47.38.32.91.33,1.39,0,6.41,0,12.81,0,19.22,0,.48.14,1.01-.33,1.39Z"/>
  <path class="cls-19" d="m24.39,17.13c.1,0,.19,0,.29,0,0,7.44.01,14.87.02,22.31-.09.15-.19.15-.3.01,0-7.44,0-14.88,0-22.32Z"/>
  <path class="cls-10" d="m24.39,39.45c.1,0,.2,0,.3-.01.02.1.02.2,0,.3-.98.03-1.96.05-2.94.08-.07.1-.16.14-.28.12-.04-.04-.09-.07-.13-.11.02-.12.04-.24.06-.36,1,0,2,0,2.99-.01Z"/>
  <path class="cls-2" d="m21.44,41.8c-.04.66-.07,1.32-.11,1.98-.54-.72-.17-1.55-.28-2.32.11-.12.24-.14.38-.06.08.13.09.27,0,.4Z"/>
  <path class="cls-12" d="m21.67,44.48c.02.54.05,1.08.07,1.62-.67-.51-.38-1.06-.07-1.62Z"/>
  <path class="cls-9" d="m21.34,41.46c-.09,0-.19,0-.28,0,0-.55,0-1.1,0-1.65.09,0,.18,0,.27.02,0,0,.08-.04.08-.04.16.57.3,1.13-.08,1.67Z"/>
  <path class="cls-18" d="m21.34,41.46c.03-.56.05-1.11.08-1.67.11,0,.22.01.33.03-.13.66.22,1.39-.3,1.98-.04-.11-.07-.23-.11-.34Z"/>
</svg>