<?xml version="1.0" encoding="UTF-8"?>
<svg id="Layer_1" data-name="Layer 1" xmlns="http://www.w3.org/2000/svg" viewBox="0 0 32 32">
  <path d="M32,19.18c-.11,.42-.17,.86-.33,1.26-.81,2.03-2.31,3.25-4.49,3.46-2.11,.2-3.79-.66-4.99-2.41-.05-.07-.09-.14-.2-.31-.07,.11-.1,.22-.17,.29-2.26,2.22-4.95,3.02-7.99,2.14-3.08-.89-5-3.01-5.65-6.14-.75-3.63,1.2-8.46,6.51-9.27,2.89-.44,5.41,.35,7.4,2.55,1.13,1.25,1.72,2.78,1.85,4.44,.09,1.17,.04,2.35,.08,3.53,.03,1.03,.51,1.82,1.42,2.3,.9,.47,1.81,.43,2.67-.11,.76-.48,1.2-1.19,1.22-2.1,.03-1.93,.05-3.86-.36-5.78-1.11-5.16-5.08-9.08-10.27-10.02-3.55-.65-6.9-.11-9.98,1.81-2.85,1.78-4.63,4.38-5.5,7.6-.72,2.69-.78,5.37,.19,8.01,1.39,3.77,4.01,6.39,7.7,7.88,3.96,1.6,7.85,1.38,11.58-.77,.34-.2,.66-.43,.99-.65,.65-.43,1.45-.29,1.88,.32,.43,.62,.28,1.41-.36,1.87-3.07,2.19-6.48,3.22-10.24,2.84-5.93-.59-10.41-3.49-13.27-8.75C.29,20.6-.16,17.8,.05,14.9c.24-3.36,1.41-6.36,3.54-8.97C6.1,2.86,9.33,.95,13.25,.25,13.83,.14,14.42,.08,15,0c.67,0,1.33,0,2,0,.53,.07,1.07,.12,1.6,.21,3.04,.51,5.72,1.78,8.02,3.84,2.76,2.47,4.48,5.54,5.13,9.19,.1,.58,.17,1.17,.25,1.75v4.19Zm-10.67-3.18c0-2.95-2.36-5.32-5.31-5.33-2.96-.01-5.34,2.36-5.34,5.32,0,2.95,2.36,5.32,5.31,5.33,2.96,.01,5.34-2.37,5.34-5.32Z"/>
</svg>