<?xml version="1.0" encoding="UTF-8"?>
<svg id="Layer_1" data-name="Layer 1" xmlns="http://www.w3.org/2000/svg" viewBox="0 0 64 64">
  <defs>
    <style>
      .cls-1 {
        fill: #1e72b6;
      }
    </style>
  </defs>
  <path class="cls-1" d="m30.27,47.64c0,4.47.01,8.94,0,13.41,0,2.91-.83,3.51-3.4,2.41-8.35-3.55-16.67-7.15-25.02-10.67C.53,52.23,0,51.47.01,50.05c.03-9.24,0-18.48.01-27.72,0-2.6.83-3.11,3.23-2.09,8.14,3.45,16.25,6.97,24.43,10.34,2.01.83,2.7,1.97,2.62,4.11-.16,4.31-.05,8.63-.05,12.95h.01Z"/>
  <path class="cls-1" d="m31.83,28.22c-.67-.23-1.33-.39-1.94-.66-8.52-3.73-17.04-7.44-25.52-11.25-.97-.43-1.65-1.5-2.46-2.27.8-.71,1.48-1.67,2.41-2.09C12.77,8.09,21.29,4.37,29.76.53c1.43-.65,2.61-.67,4.06-.02,8.55,3.84,17.15,7.56,25.7,11.4.84.38,1.97,1.29,1.99,1.99.02.71-1.02,1.76-1.83,2.13-8.53,3.88-17.11,7.66-25.68,11.45-.68.3-1.41.48-2.17.73Zm26.14-14.13c-.8-.52-1.03-.73-1.3-.84-7.82-3.44-15.63-6.93-23.5-10.24-.94-.4-2.4-.17-3.4.26-7.16,3.08-14.26,6.28-21.37,9.45-.77.34-1.49.8-2.52,1.36.75.49,1.1.78,1.49.95,7.76,3.41,15.5,6.83,23.3,10.15.77.33,1.94.2,2.74-.14,5.29-2.26,10.53-4.62,15.77-6.96,2.8-1.25,5.59-2.53,8.78-3.97Z"/>
  <path class="cls-1" d="m63.98,36c0,4.54-.05,9.09.03,13.63.03,1.56-.44,2.48-1.95,3.12-8.35,3.54-16.65,7.18-24.98,10.76-2.28.98-3.3.32-3.31-2.16-.04-9.24-.08-18.48.05-27.72.01-.91.96-2.25,1.82-2.63,8.27-3.71,16.61-7.27,24.95-10.84,2.46-1.05,3.36-.44,3.37,2.21.02,4.54,0,9.09,0,13.63h.02Zm-2.45-13.47c-1.04.4-1.73.63-2.4.92-6.94,2.97-13.86,6.01-20.83,8.9-1.69.7-2.18,1.64-2.16,3.4.1,7.57.04,15.14.05,22.71,0,.73.07,1.46.11,2.36.74-.16,1.28-.18,1.73-.38,7.36-3.16,14.69-6.37,22.06-9.49,1.33-.56,1.49-1.45,1.49-2.68-.04-7.04-.04-14.08-.05-21.12,0-1.42,0-2.84,0-4.63Z"/>
</svg>