<?xml version="1.0" encoding="UTF-8"?>
<svg id="Layer_1" data-name="Layer 1" xmlns="http://www.w3.org/2000/svg" viewBox="0 0 64 64">
  <defs>
    <style>
      .cls-1 {
        fill: #cb5951;
      }

      .cls-2 {
        fill: #f37062;
      }

      .cls-3 {
        fill: #1f658f;
      }

      .cls-4 {
        fill: #41586e;
      }

      .cls-5 {
        fill: #f9bc5e;
      }

      .cls-6 {
        fill: #64bce6;
      }

      .cls-7 {
        fill: #ffd595;
      }

      .cls-8 {
        fill: #455b70;
      }

      .cls-9 {
        fill: #c55850;
      }

      .cls-10 {
        fill: #193651;
      }

      .cls-11 {
        fill: #385167;
      }

      .cls-12 {
        fill: #ef6050;
      }

      .cls-13 {
        fill: #2791c8;
      }

      .cls-14 {
        fill: #445b70;
      }

      .cls-15 {
        fill: #4a5454;
      }

      .cls-16 {
        fill: #fdbf5d;
      }

      .cls-17 {
        fill: #375065;
      }

      .cls-18 {
        fill: #f9bb5d;
      }

      .cls-19 {
        fill: #6c6755;
      }

      .cls-20 {
        fill: #f16050;
      }

      .cls-21 {
        fill: #2aa1db;
      }

      .cls-22 {
        fill: #ee6f62;
      }

      .cls-23 {
        fill: #2ca0da;
      }

      .cls-24 {
        fill: #395168;
      }
    </style>
  </defs>
  <path class="cls-10" d="m.17,21.7c0-.2,0-.39,0-.59-.06-.16-.02-.34-.03-.5.02-.29-.13-.55-.09-.84,0-.17,0-.33,0-.5,0-.19,0-.38,0-.57,0-.13,0-.26.04-.4.05-.2.07-.4.07-.6,0-.18.06-.35.09-.52.04-.27.12-.53.18-.79.02-.2.07-.39.13-.57.06-.24.18-.45.29-.66.2-.52.4-1.04.6-1.56.04-.25.08-.5.22-.71.21-.43.46-.85.68-1.27,1.49-2.46,3.46-4.43,5.92-5.91.45-.21.85-.51,1.31-.7.74-.3,1.47-.63,2.24-.88.22-.05.44-.12.66-.16.6-.17,1.21-.32,1.83-.39.21-.06.42-.09.64-.09.32-.05.65-.12.98-.1.19,0,.39,0,.58,0,.25,0,.5,0,.75,0,.19,0,.38,0,.57,0,.18.02.36.08.55.09.16,0,.32,0,.47.01.41.08.83.11,1.23.19.15.02.3.07.45.1.38.1.76.18,1.14.3.13.05.26.09.4.14.17.06.34.12.51.17.17.06.34.12.5.19.12.06.25.1.37.14.32.16.64.32.96.47.13.07.27.14.41.21.29.14.56.33.85.48.11.07.21.15.32.21.17.12.34.24.51.35.1.07.2.15.29.22.09.08.2.13.3.21.05.04.1.08.15.11.26.16.45.4.71.56.12.09.23.2.34.31.22.22.44.44.66.66.11.11.21.22.33.33.25.23.44.51.65.77.07.11.14.22.23.31.18.21.34.44.51.66.09.14.19.29.29.43.19.27.36.55.5.84.09.15.19.29.27.45.1.25.28.46.35.72-.66.78-1.41,1.46-2.13,2.17-.12.12-.27.17-.45.1-.21-.14-.23-.4-.35-.59-.08-.16-.13-.33-.22-.49-.14-.24-.27-.5-.4-.75-.08-.15-.18-.29-.28-.43-.16-.25-.34-.49-.5-.74-.08-.13-.19-.23-.28-.36-.16-.27-.43-.45-.6-.71-.1-.17-.24-.3-.38-.43-.19-.18-.36-.38-.56-.55-.14-.11-.29-.2-.41-.32-.2-.21-.46-.35-.66-.55-.13-.11-.28-.2-.42-.29-.27-.17-.53-.37-.82-.5-.16-.08-.3-.18-.45-.27-.29-.17-.6-.27-.91-.41-.12-.06-.24-.12-.37-.16-.3-.12-.6-.24-.91-.33-.18-.07-.36-.12-.54-.16-.33-.09-.67-.17-1.01-.22-.25-.06-.49-.11-.74-.14-.37.01-.73-.06-1.1-.1-.1-.01-.21-.02-.31-.04-.25-.09-.5-.05-.76-.06-.17,0-.35,0-.52.06-.17.04-.35.09-.52.12-.21.03-.41.02-.62.03-.57.1-1.14.24-1.71.37-.26.07-.51.16-.76.25-1.03.31-1.96.8-2.87,1.37-1.59,1.01-2.9,2.3-3.94,3.87-.62.95-1.14,1.95-1.49,3.03-.07.21-.14.41-.2.62-.16.56-.3,1.11-.38,1.69-.03.25-.11.49-.1.75,0,.3-.07.6-.06.9-.05.34-.06.69,0,1.03.01.05.01.1.02.15.05.39.01.79.11,1.18.04.25.06.5.13.74.04.32.14.62.21.93.04.21.12.41.19.61.1.31.19.61.33.9.05.13.09.26.14.38.14.3.29.6.44.89.08.18.18.35.29.51.15.3.34.57.53.84.18.36.61.57.63,1.03-.67.79-1.4,1.52-2.19,2.19-.35-.03-.47-.33-.66-.55-.11-.14-.21-.28-.31-.42-.2-.25-.37-.53-.56-.79-.07-.11-.14-.22-.21-.32-.15-.29-.34-.55-.48-.85-.09-.13-.08-.29-.13-.43-.14-.32-.27-.64-.41-.96-.17-.08-.2-.25-.27-.39-.16-.31-.26-.65-.38-.97-.05-.14-.09-.27-.13-.41-.09-.38-.19-.76-.29-1.14-.03-.15-.07-.3-.1-.44-.04-.42-.12-.83-.19-1.24-.03-.17.02-.33.09-.48Z"/>
  <path class="cls-10" d="m9.76,35.4c-.29-.14-.58-.27-.87-.41-.17-.03-.33-.1-.47-.2-.29-.15-.57-.31-.84-.5-.11-.08-.23-.14-.31-.26-.02-.04-.03-.09-.03-.13,0-.26.2-.4.36-.56.58-.59,1.18-1.16,1.74-1.77.15-.07.26.04.37.1.13.08.25.17.39.24.29.16.59.28.87.46.13.08.28.12.42.19.3.15.62.27.94.38.13.05.26.09.4.13.38.14.79.21,1.18.32.15.02.29.08.43.1.41.05.81.12,1.21.19.13,0,.26,0,.39,0,.19,0,.38,0,.57,0,.25,0,.49,0,.74,0,.16,0,.32,0,.49,0,.08,0,.16,0,.24,0,.56-.09,1.13-.15,1.69-.27.32-.06.63-.15.93-.25.71-.17,1.37-.47,2.03-.78.23-.08.43-.27.7-.16.2.38-.11.57-.31.77-1.17,1.19-2.36,2.37-3.55,3.55-.24.24-.46.51-.74.7-.17.12-.39.31-.54-.05.17-.19-.09-.15-.13-.24-.1-.01-.19-.02-.29-.04-.2-.05-.39-.05-.59,0-.2.01-.39.02-.59.03-.04.02-.08.03-.13.03-.22,0-.42-.17-.65-.06-.36.08-.72-.04-1.07-.06-.15.08-.3.07-.45.03-.4-.04-.8-.13-1.19-.22-.14-.04-.28-.08-.43-.11-.35-.09-.7-.18-1.04-.31-.15-.06-.31-.11-.47-.16-.35-.11-.7-.26-1.04-.4-.15-.07-.28-.16-.37-.3Z"/>
  <path class="cls-10" d="m5.48,32.54c-.1-.1-.2-.2-.3-.3,0-.03,0-.05,0-.08-.1-.13-.04-.25.05-.35.66-.66,1.26-1.37,2-1.95.37.04.62.24.71.61-.75.73-1.44,1.51-2.25,2.19-.11.02-.18-.02-.21-.12Z"/>
  <path class="cls-10" d="m4.49,31.46c-.1-.1-.2-.19-.29-.29-.02-.01-.03-.03-.03-.05,0-.02.01-.03.02-.03.68-.77,1.4-1.49,2.17-2.16.35.05.54.26.59.6-.62.59-1.21,1.21-1.83,1.81-.14.13-.25.37-.52.23-.04-.04-.07-.07-.11-.11Z"/>
  <path class="cls-10" d="m4.6,31.57c.57-.29.9-.86,1.39-1.25.32-.26.51-.67.94-.8.27-.01.32.15.3.38-.53.66-1.17,1.19-1.75,1.8-.13.14-.31.24-.31.47-.21-.18-.43-.34-.57-.6Z"/>
  <path class="cls-8" d="m16.51,36.93l-.39.03c-.1-.01-.2-.02-.29-.03.23-.13.46-.12.69,0Z"/>
  <path class="cls-24" d="m17.19,36.93c.19-.12.39-.13.59,0-.2,0-.39,0-.59,0Z"/>
  <path class="cls-10" d="m48.58,49.16c-.19.27-.04.6-.2.88-.06.29-.13.59-.19.88.11.36-.09.67-.18,1-.09.27-.2.54-.3.81-.4,1.02-.87,1.99-1.47,2.9-.05.08-.1.15-.16.23-.38.66-.93,1.21-1.34,1.85-.49.6-1.06,1.13-1.63,1.66-.31.09-.49.36-.74.53-.27.21-.52.42-.79.62-.09.06-.19.1-.28.15-.05.03-.11.07-.16.1-.12.09-.26.16-.38.24-.81.56-1.71.95-2.6,1.34-.24.1-.48.17-.73.26-.2.06-.4.13-.6.2-.16.04-.33.08-.48.14-.31.09-.62.18-.95.22-.2.06-.41.09-.61.11-.5.11-1,.2-1.52.18-.08,0-.16,0-.24,0-.13,0-.26-.01-.37-.07-.25-.29,0-.48.16-.66.82-.84,1.65-1.66,2.48-2.49.18-.18.37-.37.52-.58.28-.24.66-.26.98-.42.37-.13.73-.29,1.08-.48,2.14-1.05,3.9-2.54,5.24-4.5,1.04-1.51,1.73-3.15,2.09-4.95.05-.2.1-.39.09-.6.11-.52.06-1.07.22-1.59.1-.33.09-.66,0-1-.06-.28-.14-.56-.14-.85,0-.18,0-.36-.05-.53-.05-.37-.12-.74-.2-1.11-.03-.14-.06-.29-.1-.43-.07-.37-.24-.72-.32-1.09-.03-.13-.08-.26-.15-.38-.14-.35-.29-.7-.47-1.04-.05-.1-.09-.2-.14-.3-.12-.3-.33-.56-.48-.85-.08-.15-.18-.29-.28-.43-.17-.26-.33-.52-.55-.75-.11-.13-.19-.29-.32-.41-.21-.2-.39-.43-.56-.66-.1-.11-.21-.22-.32-.33-.24-.23-.52-.4-.74-.64-.09-.09-.2-.16-.31-.24-.24-.19-.49-.38-.74-.56-.11-.08-.21-.15-.32-.22-.31-.2-.62-.4-.95-.56-.12-.06-.23-.12-.35-.18-.3-.15-.59-.31-.91-.41-.15-.07-.3-.13-.41-.26-.1-.17-.04-.32.08-.44.74-.75,1.45-1.53,2.26-2.22.02-.02.06-.02.09-.03.1-.01.18.03.26.07.13.07.28.12.41.21.28.2.59.36.88.55.09.05.19.1.29.15.27.14.55.29.84.38.19.08.36.19.56.25.32.13.64.26.99.33.16.05.31.11.48.14.33.07.66.18,1,.21.2.03.39.09.59.09.1,0,.2.02.3.04.2.07.41.05.62.05.25,0,.49,0,.74,0,.28,0,.55,0,.83,0,.27,0,.53-.03.79-.08.21-.01.41-.02.61-.07.64-.14,1.27-.32,1.91-.47.28-.07.55-.16.81-.28,2.54-1.02,4.64-2.6,6.2-4.86.35-.4.49-.95.91-1.31.22-.08.37-.26.53-.42,1.12-1.12,2.24-2.25,3.37-3.36.18-.18.34-.47.68-.29.11.19.04.39,0,.58-.02.22-.04.44-.17.63-.77.68-1.47,1.43-2.19,2.15-3.36,3.36-6.72,6.72-10.08,10.08-.21.21-.41.42-.59.65-.2.17-.47.16-.7.23-.2.02-.41.06-.61.11-.4,0-.79.13-1.19.08-.22-.07-.44-.09-.67,0-.2.04-.41.04-.61,0-.23-.07-.46-.09-.7-.02-.11.03-.22.03-.36.06.45.73.9,1.43,1.27,2.18.07.14.14.29.2.43.09.29.25.54.34.82.07.22.15.44.25.65.1.27.15.55.25.83.04.15.08.29-.02.43l.29,1.17c.13.15.18.33.2.52,0,.4.14.79.11,1.19,0,.19.06.36.08.55.01.11.02.22.01.33,0,.31,0,.61,0,.92.02.26-.06.5-.09.75-.01.45.03.91-.23,1.33Z"/>
  <path class="cls-10" d="m61.57,28.64c-.05.27-.29.44-.38.68-.84,1.3-1.89,2.41-2.96,3.51-.1.14-.21.26-.39.29-.47.41-1.03.71-1.47,1.17-.25.13-.41.44-.76.35-.2-.36.1-.54.29-.74.82-.84,1.65-1.66,2.48-2.49.83-.83,1.65-1.66,2.49-2.48.19-.18.36-.45.7-.28Z"/>
  <path class="cls-10" d="m63.7,22.48c-.2.1-.38.25-.54.41-1.16,1.16-2.32,2.33-3.48,3.48-.13.13-.24.32-.47.31-.1-.42.18-.74.33-1.08.46-1.03.76-2.1.93-3.21.03-.2.1-.4.08-.61,0-.3.07-.58.14-.86.1-.39.09-.78,0-1.18-.07-.42-.16-.84-.15-1.28-.04-.15-.07-.3-.08-.46,0-.38-.16-.73-.2-1.1-.03-.16-.09-.32-.14-.48-.1-.33-.22-.66-.33-1-.05-.15-.12-.29-.18-.44-.11-.34-.3-.64-.45-.96-.06-.14-.13-.28-.22-.4-.16-.28-.34-.55-.5-.84-.08-.15-.18-.29-.28-.43-.18-.23-.35-.47-.55-.68-.09-.15-.19-.28-.32-.39-.21-.22-.43-.43-.65-.65-.08-.08-.15-.16-.23-.23-.23-.24-.46-.46-.73-.65-.11-.1-.22-.21-.35-.29-.29-.17-.53-.41-.83-.56-.11-.07-.22-.15-.33-.21-.29-.2-.6-.35-.91-.5-.12-.06-.23-.12-.35-.18-.32-.16-.66-.28-1-.41-.13-.05-.25-.11-.38-.14-.37-.08-.72-.25-1.1-.3-.15-.03-.29-.07-.43-.1-.39-.08-.78-.17-1.19-.18-.2,0-.4-.04-.59-.1-.05-.01-.1-.03-.14-.04-.16-.07-.34-.05-.51-.05-.28.01-.56-.03-.83.06-.1.02-.21.04-.32.04-.56.03-1.11.13-1.66.2-.23,0-.44.09-.66.14-.75.15-1.46.41-2.16.7-.38.13-.74.3-1.09.49-1.37.78-2.65,1.69-3.69,2.9-.04.05-.1.08-.16.11-.24.09-.39.28-.56.46-1.85,1.85-3.69,3.7-5.54,5.54-.18.18-.35.47-.69.28-.1-.11-.14-.25-.18-.39-.03-.16-.1-.32-.04-.49.35-.24.65-.54.95-.84,3.7-3.71,7.41-7.41,11.11-11.11.21-.21.42-.4.59-.65.26-.08.54-.08.78-.23l.68-.1c.55-.13,1.1-.18,1.66-.2.18-.12.39-.06.58-.1.17-.06.34-.02.5-.03.25,0,.51,0,.76,0,.2.01.4-.03.59.03h.1c.4.23.87,0,1.27.19l.48.03c.39.09.78.18,1.18.27.13.03.26.07.39.1.33.1.65.19.98.29.16.07.33.14.49.2.36.14.71.28,1.07.42.06.14.2.06.29.1.41,0,.68.31,1.02.46.1.05.2.1.29.15.28.2.6.35.88.56.11.08.22.14.32.23.28.22.57.42.85.65.09.09.19.16.3.23.25.2.46.45.69.67.1.11.21.22.32.32.22.22.44.44.66.65.11.11.22.22.31.35.18.26.39.48.57.73.13.13.14.32.24.46.15.23.26.49.48.68.04.1.09.19.13.29.21.28.29.64.55.89.05.22.16.42.31.6-.02.33.27.55.32.86.19.1.24.28.31.46.13.3.24.61.34.93.05.19.09.37.14.56.08.34.17.67.25,1.01.03.13.01.26-.07.37.07.42.13.85.2,1.27,0,.17-.1.35.07.49.01.1.02.19.03.29.06.17.02.34.03.51-.05.38.1.74.09,1.11-.09.52.02,1.08-.27,1.57-.03,0-.05.02-.08.03Z"/>
  <path class="cls-10" d="m63.05,25.52c-.14.36-.28.71-.43,1.07-2.05,2.12-4.16,4.17-6.23,6.26-.75.75-1.5,1.5-2.24,2.24-.16.16-.33.32-.37.56-.31.29-.73.34-1.1.5-.19.05-.37.15-.57.06-.16-.14-.1-.29-.01-.44.06-.1.14-.18.22-.26,3.38-3.38,6.76-6.77,10.15-10.14.18-.18.36-.47.69-.25.07.16.04.29-.12.39Z"/>
  <path class="cls-10" d="m53.75,35.58c-.08-.05-.11-.12-.04-.2.08-.1.18-.19.27-.28,2.73-2.73,5.45-5.45,8.18-8.18.13-.13.24-.32.46-.33-.07.51-.47.87-.57,1.37-.22.19-.21.53-.48.69-.27.01-.44.18-.62.35-1.67,1.67-3.33,3.33-5,5-.17.17-.34.35-.35.62-.12.24-.42.22-.59.39-.36.33-.73.62-1.26.58Z"/>
  <path class="cls-12" d="m7.23,29.9c-.1-.13-.13-.31-.3-.38-.15-.24-.35-.42-.57-.59-.13-.39-.53-.6-.68-.98,0-.2.08-.38.18-.54,1.15-1.9,2.67-3.42,4.6-4.51.16-.09.31-.18.46-.28.37-.16.75-.32,1.11-.51.64-.23,1.29-.43,1.95-.59.26-.04.51-.11.78-.14.4-.1.81-.11,1.22-.1.24,0,.47.03.7-.04.13-.03.26-.03.39,0,.17.05.35.06.52.05.18,0,.35,0,.53,0,.1,0,.2.02.29.07.16.31-.13.43-.28.58-1.66,1.68-3.34,3.34-5,5.01-1.41,1.42-2.85,2.81-4.23,4.26-.32.11-.44-.19-.65-.3-.14-.11-.31-.2-.33-.41-.19-.24-.43-.45-.7-.59Z"/>
  <path class="cls-10" d="m40.55,4.81c.19-.04.39-.08.58-.12.16.18.05.33-.06.47-.09.12-.2.21-.3.32-3.4,3.4-6.8,6.8-10.21,10.2-.19.19-.35.45-.67.43-.05,0-.09-.03-.13-.05-.13-.11-.17-.27-.23-.42-.03-.13-.11-.26-.01-.39.25.04.37-.15.52-.29.67-.64,1.28-1.35,2-1.94.35-1.04.87-1.97,1.67-2.74,1.03-1.39,2.26-2.57,3.62-3.62,1.02-.71,2.13-1.26,3.22-1.85Z"/>
  <path class="cls-20" d="m21.49,22.21c.07.02.13.04.2.06.29.13.59.26.88.4.1-.02.12.04.11.12-3.28,3.25-6.53,6.53-9.81,9.79-.17.17-.31.38-.57.44-.35-.07-.67-.21-.98-.39-.14-.22.05-.34.17-.45,3.28-3.29,6.56-6.57,9.84-9.85.05-.05.11-.08.15-.12Z"/>
  <path class="cls-20" d="m20.03,21.72l.2.06c.33.1.65.19.98.29v.03c.03.24-.16.35-.29.48-3.19,3.2-6.39,6.4-9.59,9.59-.11.11-.22.25-.39.28l-.88-.49c-.14-.33.16-.46.32-.63,3.02-3.03,6.05-6.06,9.08-9.08.18-.18.35-.38.57-.53Z"/>
  <path class="cls-20" d="m13.87,33.51c-.39-.15-.82-.14-1.18-.36-.07-.2.09-.3.19-.41,3.26-3.26,6.52-6.53,9.78-9.78.05-.05.1-.08.16-.11.04-.02.09-.02.14-.02.33.11.61.31.89.51.02.04.03.09.02.13-.06.16-.19.26-.31.37-3.13,3.14-6.27,6.27-9.4,9.41-.09.09-.19.17-.29.26Z"/>
  <path class="cls-20" d="m18.46,21.43s.06-.01.1,0c.34.17.75.06,1.08.27.07.22-.11.32-.23.44-3.11,3.12-6.23,6.23-9.34,9.35-.11.11-.23.24-.4.27-.1-.05-.2-.1-.3-.16-.23.02-.36-.13-.5-.28-.02-.04-.02-.08,0-.12,0-.24.21-.36.35-.5,2.95-2.96,5.91-5.91,8.87-8.87.13-.13.24-.26.36-.39Z"/>
  <path class="cls-20" d="m15.53,33.8c-.42-.07-.85-.13-1.27-.2-.12-.33.17-.46.34-.62,2.87-2.88,5.74-5.75,8.62-8.63.26-.26.53-.53.78-.8.1-.05.18,0,.26.04.25.18.5.37.72.59.05.06.07.12.04.19-3.04,2.99-6.03,6.03-9.06,9.04-.14.14-.27.28-.43.4Z"/>
  <path class="cls-10" d="m17.59,38.13c.23-.33.45-.66.68-.99.01.14.07.21.22.14.17-.07.29-.2.41-.33,1.35-1.35,2.7-2.7,4.06-4.06.18-.18.37-.36.38-.65.05-.38.44-.35.65-.55,1.5-1.05,2.84-2.26,3.89-3.78.27-.28.43-.63.63-.95.1-.16.18-.34.37-.41.27,0,.44-.19.61-.36,1.22-1.22,2.43-2.44,3.66-3.65.16-.16.3-.42.61-.25.15.19.18.4.12.63-.07.19-.23.31-.37.45-5.32,5.33-10.65,10.65-15.98,15.98-.1.1-.2.22-.32.3-.15.1-.3.16-.39-.07.11-.56.35-1.04.76-1.44Z"/>
  <path class="cls-20" d="m17.29,33.8c-.26,0-.52,0-.78,0-.15-.07-.32,0-.48-.05-.1-.22.09-.33.2-.44,2.86-2.87,5.72-5.73,8.58-8.59.1-.1.21-.21.36-.24.05,0,.09,0,.14.01.26.2.54.39.64.73-.02.18-.14.29-.25.4-2.65,2.65-5.3,5.31-7.96,7.96-.06.06-.12.11-.19.15-.08.05-.18.03-.26.08Z"/>
  <path class="cls-20" d="m19.73,33.51c-.57.18-1.17.21-1.76.29-.13-.31.15-.43.3-.59,1.89-1.9,3.79-3.79,5.68-5.69.57-.57,1.15-1.15,1.72-1.72.14-.14.26-.29.46-.35.05,0,.09,0,.14,0,.29.17.44.46.62.72,0,.05,0,.09,0,.14-.05.11-.13.18-.21.26-2.21,2.21-4.42,4.42-6.63,6.63-.1.1-.22.19-.33.29Z"/>
  <path class="cls-20" d="m22.67,32.46c-.65.34-1.3.67-2.04.78-.2.04-.17-.1-.14-.2.05-.16.18-.27.3-.38,1.94-1.94,3.88-3.88,5.83-5.82.13-.13.24-.27.43-.3.05,0,.09.01.14.03.24.26.49.52.51.9-.08.2-.25.33-.4.48-1.25,1.25-2.5,2.5-3.74,3.75-.27.28-.56.54-.87.77Z"/>
  <path class="cls-12" d="m10.93,32.46c.13-.15.25-.3.38-.44,3.17-3.17,6.34-6.35,9.52-9.52.13-.13.24-.26.36-.4.1.03.2.07.3.1-.02.24-.23.35-.37.49-3.14,3.14-6.28,6.29-9.42,9.43-.14.14-.35.25-.37.5-.12-.07-.3-.04-.4-.17Z"/>
  <path class="cls-12" d="m22.86,22.87c-.13.15-.25.3-.38.44-3.13,3.14-6.27,6.27-9.4,9.41-.14.14-.26.29-.38.44-.14,0-.27-.03-.38-.13.11-.12.21-.25.33-.36,3.18-3.18,6.35-6.36,9.53-9.53.15-.14.26-.35.5-.36.11-.06.18-.05.19.09Z"/>
  <path class="cls-12" d="m9.67,31.75c.12-.13.23-.27.36-.39,3.08-3.08,6.15-6.15,9.23-9.23.14-.14.26-.29.38-.44.06,0,.13,0,.19,0,.07.01.13.02.2.04-.02.22-.2.33-.34.46-3.09,3.1-6.19,6.19-9.28,9.29-.14.15-.35.26-.35.5-.18,0-.26-.15-.39-.22Z"/>
  <path class="cls-12" d="m24.03,23.58c-.02.22-.2.32-.34.46-3.02,3.03-6.05,6.05-9.07,9.07-.14.14-.35.25-.37.49-.13-.03-.26-.07-.39-.1,0-.17.13-.26.23-.36,3.17-3.17,6.35-6.35,9.52-9.52.07-.07.15-.12.23-.17.1-.02.16.02.18.13Z"/>
  <path class="cls-12" d="m25.23,24.52c-.1.08-.21.15-.3.24-2.91,2.91-5.82,5.81-8.73,8.72-.07.07-.12.15-.18.22-.02.05-.05.07-.1.09-.13,0-.26,0-.39,0,0-.21.18-.3.3-.43,2.91-2.91,5.81-5.82,8.72-8.72.13-.13.24-.31.47-.32.15-.02.21.05.21.19Z"/>
  <path class="cls-12" d="m26.19,25.51c-.12.1-.25.2-.37.31-2.51,2.5-5.01,5.01-7.52,7.52-.13.13-.32.24-.33.46-.07,0-.13,0-.2,0-.09-.06-.21.01-.29-.08.12-.13.23-.27.35-.4,2.56-2.56,5.12-5.12,7.67-7.68.14-.14.25-.29.38-.44.04-.02.08-.03.12-.01.11.08.22.15.18.31Z"/>
  <path class="cls-12" d="m27.09,26.58c-.12.1-.26.2-.37.31-1.97,1.97-3.94,3.93-5.9,5.91-.1.1-.42.17-.2.44-.26.2-.59.19-.89.27,0-.15.1-.23.19-.32,2.25-2.25,4.5-4.5,6.75-6.75.06-.06.13-.1.19-.14.2,0,.22.13.21.29Z"/>
  <path class="cls-12" d="m22.67,32.46c.08-.1.15-.21.24-.3,1.48-1.48,2.96-2.97,4.45-4.45.09-.09.2-.16.3-.25.2,0,.21.15.22.29-.07.19-.23.31-.37.44-1.06,1.07-2.13,2.13-3.19,3.19-.11.11-.28.18-.29.37-.18.23-.55.19-.69.47-.26-.02-.43.2-.68.22Z"/>
  <path class="cls-10" d="m8.89,31.27c.16.11.32.22.48.32-.01.2-.18.3-.3.42-.49.5-.98.98-1.47,1.48-.12.12-.28.23-.28.43-.27-.03-.37-.3-.59-.39-.06-.13.02-.22.1-.3.63-.65,1.26-1.3,1.93-1.91.04-.03.09-.04.13-.05Z"/>
  <path class="cls-1" d="m15.92,33.8s.07-.06.1-.09c.16.03.34-.05.49.09-.2,0-.39,0-.59,0Z"/>
  <path class="cls-9" d="m17.49,33.72c.1,0,.21-.02.29.08-.16,0-.33,0-.49,0,.07-.03.13-.06.2-.08Z"/>
  <path class="cls-10" d="m6.15,33.05l-.49-.39c.62-.74,1.34-1.37,2.01-2.05.06-.06.17-.08.26-.11.12.11.24.21.36.32.04.15-.06.25-.15.34-.59.6-1.19,1.2-1.79,1.79-.06.06-.13.1-.21.11Z"/>
  <path class="cls-10" d="m29.82,16.03c.21.04.33-.09.46-.22,3.54-3.54,7.08-7.08,10.62-10.62.14-.14.28-.28.24-.5.12-.18.37-.12.5-.27.32-.09.64-.18.97-.28.03.21-.1.33-.23.46-3.97,3.97-7.94,7.93-11.9,11.9-.13.13-.25.26-.46.23-.22-.19-.36-.4-.2-.69Z"/>
  <path class="cls-21" d="m39.38,31.37c-.06-.03-.13-.07-.19-.1-.25-.08-.43-.26-.65-.39-.18-.12-.33-.28-.48-.42-.16-.16-.31-.34-.51-.47-.17-.11-.3-.25-.42-.42-.18-.23-.32-.48-.55-.66-.16-.16-.3-.33-.42-.52-.07-.14-.16-.28-.16-.45.29-.9.93-1.59,1.5-2.31.74-.94,1.67-1.66,2.64-2.35.87-.58,1.81-1.01,2.79-1.37.34-.12.69-.19,1.03-.31,1.15-.26,2.3-.44,3.48-.42.11,0,.22.02.32.04.17.06.35.07.53.06.28,0,.56,0,.81.15.21.26-.05.38-.18.51-.68.7-1.38,1.39-2.07,2.08-2.31,2.31-4.63,4.63-6.94,6.94-.16.16-.29.36-.53.42Z"/>
  <path class="cls-21" d="m41.8,32.65c-.33-.03-.6-.21-.86-.39-.07-.2.09-.3.2-.41,3.26-3.26,6.51-6.53,9.78-9.78.06-.06.12-.11.2-.14.07-.03.14-.03.21-.03.32.1.66.15.9.43.03.21-.12.33-.24.45-3.21,3.22-6.42,6.43-9.64,9.64-.14.14-.28.34-.54.22Z"/>
  <path class="cls-21" d="m43.38,33.25c-.39,0-.71-.21-1.07-.33-.14-.24.07-.36.2-.49,3.22-3.23,6.45-6.46,9.68-9.68.1-.1.21-.21.36-.25.05,0,.09-.01.14,0,.32.1.61.24.88.44.02.04.03.09.03.14-.07.17-.21.28-.34.41-3.14,3.14-6.27,6.27-9.41,9.41-.14.14-.25.3-.46.35Z"/>
  <path class="cls-21" d="m40.65,32.14c-.3-.17-.62-.32-.88-.56-.14-.33.16-.46.32-.63,2.73-2.74,5.46-5.47,8.2-8.2.41-.41.79-.86,1.27-1.21.07-.03.14-.04.22-.04.36.06.74.08,1.05.32.04.2-.11.29-.22.4-3.27,3.28-6.56,6.56-9.83,9.84-.03.03-.08.06-.12.08Z"/>
  <path class="cls-21" d="m44.85,33.61c-.38.06-.71-.16-1.08-.19-.13-.33.17-.46.34-.62,2.91-2.92,5.83-5.84,8.75-8.76.29-.29.57-.58.85-.87.1-.05.18-.01.26.03.27.16.55.3.77.54.02.04.02.09,0,.14-.09.18-.24.3-.38.44-2.95,2.95-5.9,5.9-8.84,8.84-.19.19-.37.42-.67.45Z"/>
  <path class="cls-21" d="m45.73,33.73c-.1,0-.19-.02-.29-.03-.14-.29.13-.41.27-.55,1.11-1.12,2.23-2.23,3.34-3.35,1.79-1.79,3.59-3.59,5.38-5.38.15-.15.28-.31.47-.42.07-.03.14-.03.21-.01.28.17.48.42.72.63.02.04.02.09,0,.14-.09.18-.24.3-.38.44-2.72,2.73-5.45,5.45-8.17,8.17-.16.16-.29.36-.54.4-.15,0-.3,0-.45,0-.18-.02-.37.04-.55-.04Z"/>
  <path class="cls-21" d="m48.76,33.71c-.26.1-.52.15-.79.09-.22-.11-.58.12-.66-.12-.09-.25.25-.42.42-.6,2.58-2.59,5.17-5.17,7.75-7.76.15-.15.28-.32.47-.42.05-.02.09-.02.14,0,.31.2.54.46.63.82-.03.23-.21.36-.36.51-2.37,2.37-4.74,4.74-7.11,7.12-.15.15-.3.3-.5.38Z"/>
  <path class="cls-10" d="m63.5,23.75c-.01.41-.17.78-.26,1.17-.03.07,0,.17-.1.2-.22-.04-.36.1-.5.24-3.44,3.44-6.87,6.87-10.31,10.31-.14.14-.28.28-.24.5,0,.13-.09.17-.19.22-.39.06-.75.41-1.18.14,0-.21.17-.3.3-.43,4.02-4.02,8.04-8.04,12.06-12.06.12-.12.22-.29.43-.3Z"/>
  <path class="cls-21" d="m51.3,33.15c-.63.23-1.29.38-1.96.49-.06-.3.2-.42.36-.58,2.14-2.15,4.29-4.29,6.43-6.44.24-.24.47-.49.71-.73.1-.03.18.02.25.08.18.31.52.53.57.92-1.93,1.89-3.83,3.82-5.74,5.72-.2.2-.4.38-.63.53Z"/>
  <path class="cls-16" d="m36.84,59.33c-.33.13-.65.26-.98.39-.29.25-.65.27-1,.32-.05,0-.09-.03-.11-.07-.05-.3.19-.43.36-.59,2.03-2.03,4.06-4.06,6.09-6.09.24-.24.47-.49.71-.73.11-.03.18.02.26.09.18.29.51.5.49.9-.09.2-.26.33-.41.48-1.51,1.51-3.02,3.02-4.53,4.54-.27.28-.55.54-.87.77Z"/>
  <path class="cls-21" d="m58.34,27.97c-1.05,1.57-2.39,2.83-4.01,3.8-.71.43-1.43.85-2.24,1.08-.07-.18.06-.28.16-.37,1.77-1.77,3.53-3.55,5.31-5.31.06-.06.13-.1.21-.12.34.21.5.54.57.92Z"/>
  <path class="cls-21" d="m52.58,22.58c-.12.1-.25.2-.37.32-3.19,3.19-6.38,6.38-9.57,9.57-.13.13-.32.24-.33.46-.17-.09-.34-.18-.51-.27.18,0,.29-.13.4-.25,3.27-3.27,6.53-6.53,9.8-9.8.07-.07.12-.15.18-.23.04-.03.08-.04.12-.03.12.05.28.04.27.23Z"/>
  <path class="cls-21" d="m40.65,32.14c0-.17.13-.26.23-.36,3.24-3.24,6.47-6.47,9.71-9.71.07-.07.15-.12.23-.18.03-.03.07-.05.11-.05.09.02.16.07.17.17-.16.17-.31.34-.47.5-3.11,3.11-6.21,6.21-9.32,9.32-.14.14-.26.29-.38.44-.1-.04-.19-.08-.29-.13Z"/>
  <path class="cls-21" d="m53.74,23.18c-.02.24-.22.35-.37.49-3.08,3.08-6.16,6.16-9.23,9.24-.14.14-.35.25-.37.49-.13-.05-.27-.11-.4-.16.09-.11.18-.23.28-.33,3.19-3.19,6.38-6.39,9.58-9.58.1-.1.22-.18.34-.28.1-.02.16.02.18.12Z"/>
  <path class="cls-16" d="m42.82,53.84c.14.16.17.4.37.51-1.35,1.98-3.09,3.48-5.27,4.48-.19.04-.12-.09-.09-.16.07-.17.22-.28.34-.41,1.37-1.37,2.73-2.74,4.1-4.1.15-.15.26-.39.55-.33Z"/>
  <path class="cls-21" d="m49.54,21.62c-.12.13-.24.27-.36.39-3.02,3.02-6.04,6.04-9.06,9.06-.14.14-.35.26-.35.5-.11-.11-.3-.06-.39-.21.13-.14.25-.3.39-.43,3.01-3.01,6.01-6.02,9.02-9.02.13-.13.24-.26.36-.39.04-.07.11-.09.19-.09.1.02.18.07.2.18Z"/>
  <path class="cls-21" d="m54.92,24.04c-.13.15-.25.3-.38.44-2.91,2.91-5.82,5.82-8.73,8.74-.14.14-.35.25-.37.5-.21.06-.39-.04-.58-.1.17-.15.35-.29.51-.45,2.98-2.98,5.96-5.96,8.94-8.93.14-.14.29-.25.44-.38.13,0,.2.05.18.19Z"/>
  <path class="cls-21" d="m55.99,24.94c-.13.14-.26.29-.4.43-2.63,2.63-5.26,5.27-7.9,7.9-.12.12-.24.25-.36.39.22.14.46-.02.63.14-.29,0-.58,0-.87,0-.08-.07-.21,0-.29-.08.07-.09.14-.18.21-.26,2.86-2.86,5.71-5.71,8.57-8.57.06-.06.12-.11.18-.16.13.01.2.08.22.21Z"/>
  <path class="cls-21" d="m56.87,25.89c0,.24-.21.36-.35.5-2.26,2.27-4.53,4.53-6.79,6.8-.14.14-.25.29-.38.44-.18.16-.39.06-.58.07.12-.13.23-.27.36-.4,2.39-2.39,4.78-4.78,7.17-7.18.14-.14.26-.29.38-.44.04-.02.07-.03.11-.01.07.05.12.11.08.21Z"/>
  <path class="cls-21" d="m57.63,26.88c.04.06.08.12.13.18-.11.13-.22.28-.35.4-1.66,1.66-3.32,3.32-4.98,4.99-.12.12-.23.27-.34.4-.22.2-.5.25-.78.3.1-.12.2-.26.31-.37,1.86-1.87,3.73-3.73,5.59-5.59.12-.12.22-.29.43-.3Z"/>
  <path class="cls-18" d="m42.82,53.84c-.46.33-.82.77-1.22,1.17-1.16,1.15-2.32,2.31-3.46,3.47-.09.09-.32.14-.21.36-.32.24-.7.38-1.08.5.06-.08.1-.16.17-.23,1.79-1.79,3.58-3.58,5.37-5.37.07-.07.15-.12.23-.18.12.06.18.16.21.29Z"/>
  <path class="cls-10" d="m34.78,60.02c.34-.18.72-.2,1.08-.29,0,.2-.17.3-.3.42-.88.88-1.76,1.76-2.64,2.64-.15.15-.33.27-.29.52-.05.07-.13.06-.21.06-.2,0-.4,0-.6,0-.21-.25.05-.36.17-.49.55-.57,1.12-1.13,1.69-1.7.38-.38.76-.75,1.1-1.17Z"/>
  <path class="cls-10" d="m38.6,30.8c.2.15.47.22.6.47-.83.71-1.54,1.52-2.33,2.27-.1.1-.13.22-.13.35-.02.01-.04.03-.06.04-.28-.02-.56-.06-.75-.31-.02-.15.07-.25.16-.34.83-.83,1.65-1.69,2.51-2.49Z"/>
  <path class="cls-11" d="m45.62,46.62l.03-.49c.13.32.13.65,0,.97l-.03.02c-.14-.17-.07-.33,0-.49Z"/>
  <path class="cls-13" d="m46.8,33.72c.1,0,.22-.02.29.08-.26,0-.51,0-.77,0-.03-.01-.05-.03-.04-.05,0-.02.01-.03.02-.03.17,0,.33,0,.5,0Z"/>
  <path class="cls-24" d="m46.9,36.93c-.23,0-.46,0-.68,0,.23-.13.46-.12.68,0Z"/>
  <path class="cls-3" d="m46.31,33.73s.01.05.02.08c-.2,0-.41.07-.6-.08.19,0,.39,0,.58,0Z"/>
  <path class="cls-14" d="m48.17,36.93h-.59c.2-.11.39-.13.59,0Z"/>
  <path class="cls-10" d="m30.21,17.6c.27.03.4-.18.56-.34,1.89-1.89,3.78-3.78,5.68-5.67.14-.14.25-.35.5-.35.04.15-.06.24-.14.34-.58.7-1.07,1.46-1.52,2.25-.09.14-.15.29-.29.39-.25.1-.43.28-.61.47-1.14,1.15-2.29,2.29-3.44,3.43-.18.18-.36.46-.69.24-.09-.23-.17-.47-.1-.72.02-.02.04-.03.06-.05Z"/>
  <path class="cls-10" d="m16.01,51.51c-.03-.17-.06-.35-.17-.49-.07-.39-.15-.78-.22-1.17-.17-.2.03-.5-.17-.69.05-.37-.09-.71-.12-1.07,0-.16,0-.33,0-.49,0-.13,0-.26,0-.39-.05-.39-.05-.78,0-1.17,0-.13,0-.26,0-.39.04-.52.08-1.04.12-1.56.18-.17.04-.39.1-.59.13-.25.14-.52.2-.78.26-.17.47-.4.68-.62,5.74-5.74,11.47-11.47,17.21-17.21.17-.17.32-.37.55-.47.11,0,.16.07.21.16.05.1.08.21.12.32.04.15.15.29.09.46-.66.62-1.29,1.28-1.93,1.91-.15.15-.28.32-.5.37-.24.01-.31.2-.4.37-.14.25-.21.55-.46.73-.2.09-.34.24-.49.39-1.86,1.86-3.72,3.72-5.58,5.58-.14.14-.27.28-.37.45-.75.6-1.53,1.14-2.22,1.82-1.2,1.19-2.19,2.53-2.89,4.07-.15.38-.34.74-.43,1.14-.23.64-.43,1.28-.54,1.94-.04.2-.09.41-.09.62-.1.46-.06.93-.12,1.39-.1.37-.1.74,0,1.11.06.29.04.59.04.89,0,.16.06.3.08.46.05.42.15.84.25,1.25.04.14.06.29.1.42.07.37.22.73.33,1.09.05.18.14.34.2.51.11.32.28.6.43.9.07.14.13.28.21.41.24.42.5.82.77,1.22.13.23.3.41.47.61.09.15.2.28.32.39.21.25.4.53.65.75.11.11.21.22.33.32.24.23.52.4.75.64.1.08.22.15.32.24.19.19.42.33.64.47.14.1.28.2.43.29.32.18.62.39.95.54.09.05.19.09.28.14.13.07.26.13.39.2.13.07.26.13.4.17.08.03.15.06.23.1.11.05.24.09.36.13.16.06.32.11.49.16.1.04.21.07.31.1.13.04.26.07.39.1.16.04.32.07.48.11.29.06.58.09.86.15.21.05.43.1.65.09.07,0,.15,0,.22,0,.2,0,.4.03.56.17.12.24-.09.36-.21.49-.5.51-1,1.02-1.52,1.52-.27.26-.49.56-.7.87v.03c-.34-.09-.69-.2-1.06-.22-.13-.17-.36-.05-.5-.18-.36-.08-.69-.28-1.07-.31-.09-.15-.29-.07-.4-.18-.32-.14-.65-.27-.97-.41-.09-.14-.28-.08-.4-.18-.32-.17-.65-.34-.97-.52-.1-.06-.2-.13-.29-.19-.26-.16-.52-.32-.77-.49-.07-.18-.27-.19-.4-.3-.28-.16-.46-.47-.77-.58-.1-.1-.2-.2-.3-.3-.26-.23-.52-.46-.78-.68-.06-.06-.13-.13-.19-.19-.24-.26-.48-.52-.71-.78-.03-.16-.16-.22-.27-.3-.2-.26-.4-.51-.6-.77-.09-.13-.19-.27-.28-.4-.17-.26-.34-.51-.51-.77-.07-.1-.13-.2-.2-.29-.17-.33-.33-.65-.5-.98-.06-.1-.13-.19-.19-.29-.24-.26-.35-.59-.49-.91-.04-.15-.14-.29-.1-.46-.1-.33-.19-.65-.29-.98Z"/>
  <path class="cls-10" d="m34.78,60.02c-.02.26-.2.43-.37.61-.77.77-1.54,1.54-2.31,2.31-.12.13-.23.27-.34.4.03.02.04.04.02.06-.01.01-.03.02-.04.02h-.04s-.04,0-.04,0c-.19-.1-.41.01-.6-.08-.1,0-.2,0-.3,0v-.03c-.18-.25-.01-.45.14-.6.86-.88,1.69-1.78,2.62-2.59.21-.1.43-.14.65-.17.21-.06.41-.1.6.04v.03Z"/>
  <path class="cls-10" d="m29.01,63.12c0-.3.18-.5.38-.7.69-.7,1.38-1.4,2.07-2.1.03-.05.07-.08.12-.1.26-.07.53-.05.79-.03.05,0,.1.03.14.05.17.16.11.34-.01.47-.82.84-1.61,1.71-2.51,2.47-.02.02-.06.02-.09.03-.16.01-.33.02-.49.03-.11-.1-.25-.12-.4-.13Z"/>
  <path class="cls-10" d="m29.9,63.22c.78-.79,1.56-1.59,2.35-2.38.15-.15.33-.28.29-.53.11-.14.28-.15.43-.2.19-.03.39-.07.54.11-.79.8-1.57,1.59-2.36,2.39-.2.2-.39.39-.37.7-.3,0-.61.11-.88-.1Z"/>
  <path class="cls-10" d="m6.15,33.05c.53-.66,1.18-1.2,1.75-1.81.13-.14.26-.28.39-.43.25.05.31.38.59.38,0,.03,0,.05,0,.08-.54.66-1.19,1.21-1.78,1.83-.13.14-.25.29-.38.43-.06-.04-.12-.07-.18-.11-.06-.12-.15-.2-.29-.2-.04-.06-.08-.12-.11-.18Z"/>
  <path class="cls-22" d="m16.01,21.4c.21-.17.46-.08.69-.08-.22.16-.46.06-.69.08Z"/>
  <path class="cls-2" d="m17.1,21.33c.17,0,.35-.09.5.08-.17-.01-.35.06-.5-.08Z"/>
  <path class="cls-20" d="m16.3,19.86c-.22-.04-.46.03-.67-.1-.35-.02-.64-.24-.97-.31-.11-.12-.25-.17-.4-.2-.26-.19-.51-.39-.77-.58-.1-.1-.21-.19-.31-.29-.19-.23-.38-.46-.57-.69-.1-.17-.2-.33-.3-.5-.14-.29-.27-.58-.41-.87.06-.15-.03-.27-.1-.39-.14-.45-.05-.91-.1-1.37,0-.16,0-.33,0-.49.13-.76.42-1.47.8-2.14.43-.62.94-1.15,1.57-1.57.67-.37,1.37-.65,2.14-.7.18.03.34.03.49-.1.46.06.91.13,1.37.19.13.03.26.06.39.09.29.11.58.22.87.32.12.18.29.26.49.3.16.27.47.37.69.57.1.1.19.2.29.31.14.33.38.59.59.87.02.15.08.29.2.39.09.3.15.6.31.88-.05.24,0,.46.1.67.05.4.06.79,0,1.19-.11.21-.09.45-.12.67-.7,2.14-2.13,3.46-4.38,3.83-.4.06-.79.05-1.19,0Z"/>
  <path class="cls-10" d="m16.14,41.34c.06-.19.12-.39.18-.58.25-.36.27-.84.58-1.18.08.11.16.08.24,0,.11-.1.21-.21.31-.31,5.31-5.31,10.62-10.62,15.93-15.93.14-.14.29-.26.44-.38.05-.02.09-.02.13.02.11.2.15.41.16.63,0,.05,0,.1-.02.14-.07.21-.23.35-.38.5-5.57,5.57-11.14,11.14-16.72,16.71-.22.22-.42.58-.85.38Z"/>
  <path class="cls-10" d="m33.73,21.99c-.01.1-.02.2-.03.3-.22.01-.33.2-.46.33-1.27,1.27-2.54,2.54-3.82,3.81-.13.13-.24.41-.5.15-.12-.19,0-.35.08-.49.21-.38.28-.83.55-1.17.25-.12.46-.3.65-.49.91-.92,1.83-1.84,2.75-2.75.18-.17.33-.42.64-.35h.03c.15.2.12.44.1.67Z"/>
  <path class="cls-20" d="m27.83,27.76c.04.07.09.13.13.2-1.03,1.56-2.38,2.78-3.93,3.81-.23-.03-.12-.12-.04-.21.24-.24.48-.48.72-.72,1.04-1.03,2.08-2.05,3.11-3.08Z"/>
  <path class="cls-10" d="m16.14,41.34c.29,0,.48-.16.67-.35,5.66-5.66,11.32-11.32,16.98-16.99.08-.08.14-.18.21-.26.32.15.31.4.2.68-.12.13-.22.28-.35.4-5.84,5.84-11.67,11.68-17.51,17.51-.17.17-.3.4-.59.37.09-.36.19-.71.28-1.07.14-.06.09-.2.12-.3Z"/>
  <path class="cls-10" d="m32.16,27.56c.66-.65,1.32-1.3,1.98-1.95.12-.12.22-.29.43-.3.22.12.25.37.38.56.09.2.19.4.29.59.11.24.23.47.38.68.12.28.35.5.43.8.07.13.13.26.2.4-.04.09-.07.18-.14.25-1.49,1.51-3.01,3-4.5,4.51-.26.08-.51.19-.79.08-.26-.29-.02-.48.15-.65.66-.68,1.33-1.34,1.99-2,.16-.16.33-.31.39-.54-.09-.49-.49-.79-.68-1.22-.07-.14-.13-.28-.22-.41-.12-.26-.37-.47-.29-.8Z"/>
  <path class="cls-10" d="m31.66,33.02c.07-.11.11-.24.2-.33,1.46-1.45,2.92-2.9,4.38-4.34.13.17.26.33.39.5.14.29-.12.41-.26.55-1.22,1.24-2.46,2.45-3.67,3.7-.09.05-.19.06-.3.07-.24,0-.48.04-.7-.08-.02-.02-.03-.04-.05-.06Z"/>
  <path class="cls-10" d="m37.22,29.52c.13.13.26.27.39.4.04.26-.17.37-.31.51-.72.74-1.45,1.47-2.19,2.19-.23.23-.44.47-.62.74-.16.08-.32,0-.49,0-.15-.02-.29-.04-.4-.14-.03-.04-.06-.08-.07-.12-.05-.24.11-.39.26-.54.95-.95,1.89-1.9,2.85-2.84.16-.15.32-.35.58-.18Z"/>
  <path class="cls-10" d="m37.22,29.52c-.2-.03-.33.09-.46.22-.97.98-1.95,1.95-2.92,2.93-.13.13-.26.25-.22.46-.18.2-.41.14-.63.11-.11-.04-.21-.09-.25-.21,0-.21.18-.3.3-.43,1.09-1.1,2.19-2.19,3.28-3.28.13-.13.32-.24.33-.46.28.15.38.46.58.67Z"/>
  <path class="cls-10" d="m38.6,30.8c0,.22-.2.33-.33.46-.77.78-1.54,1.56-2.31,2.35-.04.07-.11.08-.18.08-.18-.04-.37-.05-.51-.19-.03-.04-.05-.08-.07-.12-.04-.22.09-.37.23-.51.75-.76,1.51-1.52,2.27-2.27.11-.11.21-.26.41-.2.16.14.32.27.48.41Z"/>
  <path class="cls-10" d="m38.12,30.39c-.96.84-1.81,1.79-2.72,2.67-.1.1-.13.22-.12.35-.29.22-.55.1-.79-.1-.03-.25.15-.38.3-.52.94-.96,1.89-1.91,2.83-2.87.23.09.35.3.5.47Z"/>
  <path class="cls-6" d="m47.78,21.33c.07-.01.13-.02.2-.03.1.03.23,0,.3.11-.17,0-.35.05-.5-.08Z"/>
  <path class="cls-16" d="m24.41,57.86c-.28-.09-.51-.24-.68-.48-.13-.24.06-.37.19-.5,2.94-2.95,5.89-5.89,8.84-8.84.11-.11.22-.19.36-.24.03,0,.07-.02.1-.03.34.21.74.04,1.08.19,0,0-.01.04-.01.04.05.22-.12.32-.24.44-2.97,3.1-6.02,6.13-9.07,9.16-.15.15-.28.4-.56.26Z"/>
  <path class="cls-16" d="m25.79,58.72c-.36-.13-.67-.35-.98-.56-.06-.24.14-.35.27-.48,3.09-3.09,6.18-6.18,9.27-9.28.13-.13.26-.24.43-.31.1,0,.2,0,.29,0,.26.1.52.2.79.3.03.04.03.09.01.13-.63.74-1.37,1.39-2.04,2.09-2.51,2.64-5.11,5.2-7.68,7.77-.11.11-.21.25-.36.33Z"/>
  <path class="cls-18" d="m35.86,48.48s0-.05,0-.08c.03-.01.06-.02.1-.04.15.05.3.08.4.21-.04.15-.14.24-.31.23-.13-.07-.24-.15-.19-.32Z"/>
  <path class="cls-16" d="m26.87,59.21c-.17.02-.28-.06-.39-.17-.2-.32.08-.48.25-.65,1.11-1.12,2.23-2.23,3.35-3.36,2.09-2.1,4.21-4.17,6.27-6.3.06-.06.13-.1.2-.14.2.08.44.1.6.27-.03.17-.17.27-.28.39-3.28,3.28-6.56,6.55-9.83,9.84-.05.05-.1.08-.16.12Z"/>
  <path class="cls-18" d="m37.42,48.95c.1.07.2.14.3.21-.04.19-.19.3-.31.42-3.11,3.11-6.22,6.22-9.33,9.33-.15.15-.27.33-.5.36-.12,0-.23-.04-.33-.12-.06-.24.14-.35.27-.48,3.13-3.14,6.27-6.28,9.41-9.41.11-.11.23-.24.4-.27.03-.01.07-.02.1-.03Z"/>
  <path class="cls-16" d="m36.54,48.59c-.1.23-.27.4-.44.58-3.09,3.09-6.18,6.18-9.27,9.27-.17.17-.39.31-.35.6-.15-.02-.29-.08-.39-.19-.07-.22.11-.32.23-.44,3.13-3.13,6.26-6.26,9.39-9.39.1-.1.2-.22.36-.24.1-.07.2-.13.3-.2.03,0,.06,0,.09-.01.03.01.06.02.09.03Z"/>
  <path class="cls-16" d="m37.32,48.98c-.12.13-.23.27-.36.4-3.1,3.11-6.21,6.21-9.32,9.32-.14.14-.26.29-.39.43-.02.1-.1.15-.19.17-.07-.03-.13-.06-.2-.09,0-.17.13-.26.23-.36,3.27-3.27,6.54-6.54,9.81-9.81.07-.07.15-.12.23-.18.06.04.12.08.18.12Z"/>
  <path class="cls-16" d="m28.24,59.7c-.13.06-.2-.04-.3-.09-.15-.17-.09-.33.02-.49.08-.12.19-.22.3-.32,3.07-3.07,6.13-6.13,9.2-9.19.14-.14.25-.3.46-.35.22.05.41.16.59.3-2.58,2.61-5.19,5.19-7.78,7.79-.71.71-1.44,1.41-2.13,2.14-.1.11-.2.21-.36.22Z"/>
  <path class="cls-18" d="m38.69,49.63c.06.05.13.09.19.14.13.31-.16.43-.31.59-1.59,1.6-3.19,3.2-4.78,4.79-1.41,1.41-2.82,2.83-4.24,4.24-.16.16-.29.36-.54.38-.13-.02-.21-.1-.24-.23,0-.24.19-.37.34-.51,3.02-3.03,6.05-6.05,9.07-9.07.12-.12.23-.28.42-.32.03,0,.06,0,.09,0Z"/>
  <path class="cls-16" d="m37.92,49.25c-.13.15-.25.3-.38.44-3.08,3.09-6.17,6.17-9.26,9.25-.19.19-.39.36-.33.66-.19,0-.34-.07-.49-.17-.06-.11.01-.17.1-.21.14-.13.3-.25.43-.39,3.1-3.1,6.2-6.2,9.3-9.3.14-.14.29-.26.44-.38.03,0,.06,0,.09-.01.03.04.07.07.1.11Z"/>
  <path class="cls-16" d="m38.6,49.64c-.13.15-.25.3-.38.44-3,3-6,6.01-9.01,9.01-.14.14-.26.29-.39.43-.04.11-.09.22-.2.28-.15.05-.27,0-.39-.1,3.25-3.27,6.51-6.53,9.77-9.79.14-.14.26-.35.5-.35.03.03.06.06.09.09Z"/>
  <path class="cls-18" d="m34.79,59.99c-.2.03-.4.07-.59.1-.13-.31.15-.43.31-.59,2.26-2.27,4.53-4.54,6.8-6.81.12-.12.23-.28.42-.32.03,0,.06.01.09.02.04.06.07.11.11.17,0,.24-.21.36-.35.51-2.15,2.15-4.3,4.31-6.45,6.46-.13.13-.32.23-.33.46Z"/>
  <path class="cls-16" d="m29.02,59.71c.12-.11.25-.2.36-.32,3.06-3.05,6.11-6.11,9.17-9.17.13-.13.32-.24.34-.46.06.03.13.05.19.08.2.2.4.4.67.49,0,.03.01.06.02.08.06.22-.11.33-.23.44-2.37,2.37-4.72,4.76-7.12,7.1-.65.64-1.33,1.24-1.95,1.91-.14.15-.29.18-.47.21-.3-.02-.6-.04-.89-.16-.04-.06-.15-.1-.09-.21Z"/>
  <path class="cls-16" d="m36.53,43.77c-.5.74-1.13,1.36-1.86,1.87-.52.43-1.1.69-1.79.65-.18-.21.01-.33.12-.44,1.24-1.26,2.49-2.5,3.74-3.75.1-.1.2-.22.37-.18-.1.64-.31,1.25-.58,1.83Z"/>
  <path class="cls-18" d="m37.12,41.93c-1.46,1.41-2.91,2.82-4.28,4.31,0,.14-.1.16-.2.18-.1.01-.2,0-.29-.06-.16-.23.02-.37.15-.5,1.41-1.43,2.83-2.85,4.26-4.26.1-.1.21-.27.41-.15.01.1.03.19-.03.28l-.02.19Z"/>
  <path class="cls-16" d="m31.55,60.29s-.06.02-.09.03c-.2-.04-.39-.09-.59-.13-.11-.14-.03-.27,0-.4.08-.19.22-.32.36-.46,2.78-2.78,5.56-5.56,8.35-8.34.14-.14.26-.3.47-.33.03,0,.06,0,.09,0,.23.22.46.44.7.66.02.03.03.05.03.08,0,.03,0,.05,0,.05-.08.16-.22.28-.35.4-2.68,2.68-5.36,5.36-8.04,8.04-.14.14-.26.29-.45.36-.16.03-.33-.03-.48.05Z"/>
  <path class="cls-16" d="m41.05,51.58s.06.01.09.03c.16.29.51.43.59.77-.13.15-.25.3-.38.44-2.27,2.27-4.54,4.54-6.81,6.82-.13.13-.32.24-.33.46-.23.04-.46.09-.68.13-.2,0-.39,0-.59,0-.11.06-.23.03-.35.03-.15-.31.14-.42.29-.57,1.89-1.91,3.79-3.8,5.69-5.7.68-.68,1.36-1.36,2.04-2.04.14-.14.25-.3.45-.36Z"/>
  <path class="cls-16" d="m37.13,40.55c0,.3,0,.59,0,.89-1.39,1.38-2.79,2.75-4.17,4.13-.22.22-.52.39-.61.73-.05.08-.12.11-.21.13-.38.01-.76.1-1.12-.1-.26-.34.05-.51.23-.68,1.76-1.77,3.53-3.54,5.3-5.3.13-.13.24-.32.48-.27,0,0,.04-.01.04-.01.03.16.05.33.08.49Z"/>
  <path class="cls-16" d="m36.45,38.6s.06.01.09.02c.13.29.26.58.38.88,0,.07,0,.13,0,.2-.05.2-.2.33-.34.46-1.38,1.38-2.74,2.77-4.14,4.13-.64.62-1.34,1.18-1.88,1.9-.42-.04-.81-.14-1.09-.48-.03-.23.13-.35.27-.49,2.12-2.12,4.24-4.25,6.36-6.37.1-.1.2-.22.35-.25Z"/>
  <path class="cls-18" d="m33.12,47.8c-.12.13-.23.27-.36.4-2.89,2.89-5.78,5.78-8.67,8.68-.14.14-.34.26-.35.5-.1-.07-.2-.13-.29-.2-.14-.29.11-.42.26-.57.96-.97,1.93-1.94,2.9-2.9,1.58-1.58,3.15-3.16,4.73-4.73.32-.32.54-.74.94-.99.14-.08.25-.22.41-.27.12,0,.24,0,.35.05.03,0,.06,0,.09.02Z"/>
  <path class="cls-18" d="m34.78,48.1c-.12.13-.23.27-.36.39-3.08,3.08-6.15,6.15-9.23,9.23-.14.14-.26.29-.38.44-.14-.09-.32-.13-.4-.3.21,0,.31-.16.44-.28,2.24-2.24,4.51-4.45,6.71-6.74.91-.95,1.87-1.84,2.73-2.84.19-.08.32.09.49.1Z"/>
  <path class="cls-16" d="m35.57,37.45c.06.03.13.06.19.09.17.24.32.5.56.68,0,.03,0,.06,0,.09-.05.24-.25.37-.41.53-1.9,1.96-3.89,3.82-5.83,5.73-.29.28-.53.62-.83.89-.04.02-.09.03-.14.02-.33-.11-.54-.35-.73-.62-.02-.04-.02-.09-.02-.14.04-.17.16-.28.27-.4,2.25-2.26,4.52-4.51,6.76-6.77.05-.05.1-.08.16-.12Z"/>
  <path class="cls-16" d="m34.49,36.67s.07,0,.1,0c.21.21.54.29.69.57.06.13-.03.22-.1.3-.1.12-.22.24-.34.35-2.23,2.2-4.35,4.5-6.58,6.7-.1.04-.18,0-.26-.06-.23-.24-.44-.49-.51-.82,0-.05,0-.09.03-.14.09-.16.23-.27.35-.4,2.04-2.04,4.08-4.08,6.13-6.12.15-.15.28-.32.5-.37Z"/>
  <path class="cls-18" d="m28.23,44.59c0-.12.06-.22.14-.3.1-.1.21-.21.31-.31,2.13-2.16,4.26-4.32,6.38-6.48.08-.08.14-.18.21-.26.06.04.13.08.19.11.03.04.07.07.1.11-.02.22-.2.33-.33.46-2.14,2.15-4.29,4.29-6.43,6.44-.14.14-.25.29-.38.44-.14,0-.2-.06-.19-.2Z"/>
  <path class="cls-18" d="m40.06,50.65c-1.17,1.18-2.33,2.35-3.5,3.52-1.74,1.75-3.49,3.49-5.23,5.24-.13.13-.24.27-.35.4-.1.12-.17.27-.29.37-.24.06-.46,0-.68-.1.29-.1.43-.38.64-.58,2.98-2.82,5.84-5.76,8.75-8.65.14-.14.26-.29.39-.44.09.08.19.15.28.23Z"/>
  <path class="cls-18" d="m30.58,46.12c.19-.64.73-.99,1.18-1.38.7-.61,1.33-1.29,1.99-1.93,1.06-1.03,2.11-2.08,3.16-3.12.08.12.15.24.1.4-.83.82-1.67,1.64-2.5,2.46-1.08,1.08-2.16,2.16-3.24,3.24-.12.12-.29.22-.3.43-.04.07-.11.08-.18.07-.09-.03-.17-.07-.21-.17Z"/>
  <path class="cls-18" d="m29.21,45.46c.77-1.08,1.78-1.93,2.74-2.83.3-.28.59-.56.88-.84,1.17-1.15,2.34-2.31,3.5-3.47.08.08.12.17.13.28-.13.15-.25.3-.38.44-2.07,2.07-4.14,4.14-6.21,6.22-.13.13-.23.27-.35.4-.03.03-.07.04-.12.03-.09-.05-.2-.08-.18-.22Z"/>
  <path class="cls-18" d="m34.21,36.55s.06,0,.09-.01c.06.04.13.09.19.13-1,1.01-2,2.03-3.01,3.04-1.18,1.18-2.36,2.36-3.54,3.54-.12.12-.27.23-.4.34-.09,0-.13-.06-.15-.13-.06-.26.12-.42.28-.59.44-.45.89-.9,1.34-1.34,1.56-1.49,2.99-3.11,4.52-4.62.19-.19.35-.44.69-.37Z"/>
  <path class="cls-23" d="m50.03,19.05c-.32.17-.65.34-.97.51-.44.14-.88.31-1.36.29-.29.1-.6-.03-.89.08-.35-.06-.71-.12-1.06-.18-.14-.13-.32-.16-.5-.18-.32-.17-.65-.34-.97-.52-.07-.11-.15-.23-.3-.26-.36-.03-.49-.36-.73-.55-.11-.14-.2-.29-.32-.42-.19-.25-.35-.53-.49-.81-.09-.17-.14-.35-.21-.53-.12-.34-.24-.68-.23-1.05,0-.06,0-.11.01-.16.15-.35.02-.73.1-1.09,0-.19.01-.38.02-.57-.04-.34.07-.63.3-.88.6-1.23,1.51-2.13,2.72-2.75.3-.07.61-.13.89-.28.49.1.97-.2,1.46-.02.16,0,.33,0,.49,0,.39.1.78.2,1.17.29.1.04.19.08.29.13.29.19.59.37.88.56.1.07.2.14.29.21.19.27.42.48.68.68.01.22.21.32.3.49.13.23.25.45.38.68.04.16.09.32.13.48.13.38.19.77.19,1.17.03.16.06.33.1.49-.1.55-.21,1.1-.31,1.65-.16.33-.32.66-.49.98-.43.61-.93,1.15-1.56,1.56Z"/>
  <path class="cls-10" d="m30.07,23.55l.03-.48c.07-.26.13-.52.2-.79.94-.8,1.76-1.73,2.65-2.58.18-.17.33-.42.65-.35h.03c.05.19.05.38,0,.58-.01.16-.02.32-.03.49-.96,1.03-1.98,2-2.98,3-.14.14-.31.31-.54.12Z"/>
  <path class="cls-10" d="m30.07,23.55c.25.05.39-.12.54-.27.85-.85,1.7-1.71,2.56-2.55.12-.12.22-.29.43-.3.01.03.02.06.03.1.05.23.04.46,0,.69-.01.03-.02.07-.04.1-.22.09-.38.24-.54.4-.97.97-1.94,1.94-2.91,2.91-.15.15-.27.33-.52.3.12-.42.24-.85.36-1.27l.09-.1Z"/>
  <path class="cls-10" d="m30.37,21.32c0-.16,0-.33,0-.49.04-.2-.04-.42.13-.59.94-1.01,1.94-1.96,2.92-2.94.12-.12.26-.25.47-.19.11.21-.1.38-.06.59-.04.23-.09.46-.13.68-.88.95-1.82,1.85-2.74,2.76-.14.14-.31.31-.55.17h-.03Z"/>
  <path class="cls-10" d="m30.4,21.31c.26-.02.43-.2.6-.37.75-.75,1.51-1.51,2.26-2.26.12-.12.22-.29.42-.3-.03.33-.06.66-.09.98-.27.1-.45.31-.64.5-.72.72-1.44,1.44-2.16,2.16-.14.14-.26.29-.49.26.03-.33.06-.66.1-.98Z"/>
  <path class="cls-10" d="m30.37,19.36c0-.16,0-.33,0-.49.05-.17,0-.33-.07-.49.25.04.38-.15.52-.3,1.2-1.2,2.41-2.41,3.61-3.61.15-.15.27-.33.52-.3-.05.2-.22.35-.18.57-.29.31-.29.74-.5,1.09-1.05,1.12-2.17,2.19-3.26,3.28-.16.16-.33.39-.62.23h-.03Z"/>
  <path class="cls-10" d="m30.4,19.35c.26-.02.43-.2.6-.37.95-.95,1.9-1.9,2.85-2.85.12-.12.22-.29.42-.3-.09.33-.17.65-.26.98-.04.1-.09.2-.13.3-.21.09-.38.24-.54.4-.81.81-1.62,1.62-2.43,2.43-.12.12-.22.29-.42.3-.01-.07-.02-.13-.03-.2-.09-.19.03-.41-.08-.6,0-.03,0-.06.01-.09Z"/>
  <path class="cls-16" d="m32.34,48.09c-.39.21-.56.62-.86.92-2.57,2.55-5.13,5.12-7.69,7.68-.14.14-.35.26-.35.5-.23-.26-.58-.39-.78-.68-.14-.29.11-.42.25-.56.86-.88,1.74-1.75,2.61-2.62,1.72-1.72,3.44-3.44,5.17-5.16.16-.16.29-.35.52-.43.1-.01.2.03.3.02.29,0,.58,0,.87,0,.17.14-.02.23-.05.33Z"/>
  <path class="cls-16" d="m22.37,56.21c-.3-.19-.48-.5-.69-.78-.07-.22.11-.32.23-.44,2.29-2.29,4.58-4.6,6.89-6.88.14-.11.31-.16.48-.21.41-.02.8-.2,1.22-.09.15.06.13.17.06.28-.08.13-.18.23-.29.33-2.49,2.49-4.98,4.99-7.48,7.48-.12.12-.23.28-.42.32Z"/>
  <path class="cls-16" d="m20.89,54.43c.09-.34.27-.62.5-.89,1.15-1.14,2.29-2.29,3.44-3.43.12-.12.2-.25.26-.41.28-.3.66-.44,1-.63.48-.24.95-.48,1.45-.66.18-.06.36-.16.56-.08.15.22-.05.33-.16.44-2.02,2.03-4.04,4.05-6.07,6.07-.13.13-.26.32-.49.18-.23-.14-.36-.37-.49-.59Z"/>
  <path class="cls-18" d="m36.05,48.77c-.13.14-.25.3-.39.43-3.07,3.07-6.14,6.14-9.2,9.21-.14.14-.26.29-.38.44-.1-.04-.19-.09-.29-.13,0-.21.18-.3.3-.43.69-.69,1.38-1.38,2.07-2.07,2.43-2.46,4.86-4.93,7.3-7.39.12-.13.27-.24.4-.35.07.1.13.2.2.29Z"/>
  <path class="cls-10" d="m26.48,34.23c-.55.28-1.11.56-1.66.85,0-.21.18-.3.3-.43,1.9-1.9,3.79-3.8,5.69-5.69.13-.13.24-.32.47-.31.05.35-.22.56-.36.82-.09.17-.22.32-.29.5-.06.27-.24.45-.42.64-.92.92-1.83,1.84-2.76,2.75-.21.21-.39.43-.51.71-.12.15-.27.2-.45.16Z"/>
  <path class="cls-18" d="m22.37,56.21c.13-.15.25-.3.38-.44,2.48-2.48,4.97-4.97,7.45-7.45.14-.14.25-.29.38-.44-.02-.14.09-.16.18-.19.07-.01.15-.01.22,0,.08.02.14.05.18.11-.53.55-1.06,1.1-1.6,1.64-2.18,2.19-4.37,4.37-6.55,6.55-.14.15-.35.26-.35.5-.1-.1-.2-.2-.29-.29Z"/>
  <path class="cls-18" d="m21.38,55.03c.16,0,.26-.11.37-.21,2.07-2.07,4.15-4.15,6.22-6.22.07-.07.11-.16.16-.24.17-.29.41-.3.69-.17-.39.41-.78.82-1.18,1.22-1.87,1.87-3.74,3.74-5.61,5.61-.12.13-.23.27-.35.4-.14-.1-.29-.2-.3-.4Z"/>
  <path class="cls-18" d="m29.02,59.71c.03.07.06.14.09.21-.16-.05-.35.01-.48-.13,0-.14.07-.23.2-.28.04.09.1.16.2.2Z"/>
  <path class="cls-18" d="m27.55,59.23c-.03.07-.07.14-.1.21-.14,0-.27-.03-.38-.13.06-.06.13-.12.19-.17.11,0,.22-.02.29.1Z"/>
  <path class="cls-17" d="m18.45,46.13c.01.06.02.13.03.19.14.16.07.33,0,.49l-.03.39c-.13-.36-.13-.72,0-1.08Z"/>
  <path class="cls-16" d="m30.68,60.19c.01-.19.14-.29.29-.37-.03.12-.07.25-.1.37-.07,0-.13,0-.2,0Z"/>
  <path class="cls-19" d="m31.55,60.29c.14-.17.34-.05.5-.1.12-.06.24-.1.37-.03.05.04.05.08.01.13-.3,0-.59,0-.89,0Z"/>
  <path class="cls-15" d="m32.43,60.29s0-.05,0-.07c.02-.04.06-.05.1-.03.13,0,.26.02.39.03-.11.12-.26.07-.39.09-.03,0-.07-.01-.1-.02Z"/>
  <path class="cls-10" d="m30.09,33.25c-.16-.01-.33-.02-.49-.03-.18-.24.01-.4.15-.54.9-.92,1.82-1.83,2.73-2.74.15-.06.31-.05.47-.06.19,0,.39,0,.55.12-.07.22-.22.39-.38.55-.7.69-1.39,1.39-2.09,2.09-.14.14-.29.26-.26.49-.23.06-.48-.06-.68.13Z"/>
  <path class="cls-18" d="m32.54,60.19s-.06.02-.1.03c-.13,0-.26-.02-.39-.03.1-.11.19-.22.29-.33,2.72-2.72,5.44-5.44,8.16-8.16.11-.11.25-.21.37-.31.06.06.12.12.18.18-.13.15-.24.3-.38.44-2.59,2.59-5.18,5.19-7.78,7.78-.13.13-.24.26-.36.39Z"/>
  <path class="cls-16" d="m32.34,48.09c.03-.09.07-.19.1-.28.03-.05.06-.06.1-.02.03,0,.06.01.09.02-.07.12-.16.22-.29.28Z"/>
  <path class="cls-16" d="m33.02,36.18c.07-.01.13-.02.2-.03.31.18.71.13.99.4-.23.09-.41.25-.58.43-1.97,2.01-3.94,4.01-5.92,6.01-.14.14-.29.27-.25.5-.04-.03-.07-.06-.11-.1-.13-.36-.26-.72-.39-1.07,0-.1.02-.19.03-.29.78-.64,1.45-1.4,2.16-2.1,1.12-1.1,2.23-2.22,3.34-3.34.16-.16.31-.33.54-.41Z"/>
  <path class="cls-16" d="m30.68,36.16c.13,0,.26,0,.39.01.04.22-.13.32-.25.44-1.1,1.11-2.21,2.21-3.32,3.31-.14.14-.26.36-.52.23.02-.13.05-.26.07-.39.59-1.83,1.79-3.04,3.63-3.61Z"/>
  <path class="cls-10" d="m30.49,29.9c.14.12.31.12.48.1.17-.08.34-.03.52-.04.12.28.11.32-.22.65-.97.98-1.94,1.95-2.92,2.92-.29.1-.59.2-.88.3-.19.06-.39.13-.58.19.01-.28.2-.46.39-.65.98-.98,1.96-1.96,2.95-2.94.15-.15.31-.29.28-.53Z"/>
  <path class="cls-10" d="m28.34,33.54c0-.23.18-.34.31-.47.83-.84,1.67-1.68,2.51-2.51.16-.16.31-.33.4-.55.02-.04.06-.07.1-.08.26,0,.52,0,.78,0,.04.02.05.03.04.05-.01.02-.02.03-.03.03,0,.21-.16.31-.28.43-.76.77-1.53,1.53-2.29,2.29-.14.14-.29.26-.26.49-.03.03-.07.07-.1.1-.39.07-.78.15-1.17.22Z"/>
  <path class="cls-5" d="m24.62,50.05c.22,0,.29-.25.49-.29.1.15,0,.23-.1.33-1.13,1.13-2.26,2.26-3.4,3.39-.06.06-.11.19-.23.06.28-.6.72-1.09,1.16-1.57.64-.7,1.33-1.34,2.07-1.93Z"/>
  <path class="cls-16" d="m26.98,40.17c.1,0,.18-.05.25-.12,1.28-1.29,2.55-2.58,3.83-3.87.11-.09.25-.12.39-.13.06,0,.13,0,.19,0,.33-.06.66-.06.99,0v.02c.04.2-.11.3-.22.41-1.68,1.69-3.37,3.38-5.06,5.06-.09.09-.19.18-.32.21-.12.02-.13-.06-.13-.15.02-.35-.05-.7.04-1.05-.03-.03-.05-.06-.08-.1.03-.1.07-.19.1-.29Z"/>
  <path class="cls-18" d="m26.98,41.73c1.91-1.86,3.81-3.73,5.65-5.66.13.04.26.07.39.11-1.46,1.47-2.91,2.93-4.37,4.4-.42.43-.85.86-1.28,1.28-.1.1-.18.3-.39.17-.04-.03-.07-.07-.11-.1,0-.03,0-.06,0-.09.02-.04.02-.1.09-.1Z"/>
  <path class="cls-7" d="m26.98,41.73s-.06.07-.09.1c.01-.43-.12-.86.07-1.28,0,.39.01.79.02,1.18Z"/>
  <path class="cls-14" d="m31.66,29.93s-.07.05-.1.08c-.2,0-.4,0-.6,0,.04-.04.07-.07.11-.11.16,0,.33,0,.49,0,.03.01.07.02.1.04Z"/>
  <path class="cls-4" d="m32.44,30.01s0-.05,0-.08c.17,0,.36-.09.5.07-.17,0-.33,0-.5,0Z"/>
</svg>