<?xml version="1.0" encoding="UTF-8"?>
<svg id="Layer_1" data-name="Layer 1" xmlns="http://www.w3.org/2000/svg" viewBox="0 0 64 64">
  <defs>
    <style>
      .cls-1 {
        fill: #edb978;
      }

      .cls-2 {
        fill: #f8debd;
      }

      .cls-3 {
        fill: #e6b474;
      }

      .cls-4 {
        fill: #719ed4;
      }

      .cls-5 {
        fill: #da787c;
      }

      .cls-6 {
        fill: #7184a6;
      }

      .cls-7 {
        fill: #fecf94;
      }

      .cls-8 {
        fill: #7e91b0;
      }

      .cls-9 {
        fill: #fcf1e5;
      }

      .cls-10 {
        fill: #e4ebf2;
      }

      .cls-11 {
        fill: #7c8eae;
      }

      .cls-12 {
        fill: #ffe9cc;
      }

      .cls-13 {
        fill: #8696b5;
      }

      .cls-14 {
        fill: #fec781;
      }

      .cls-15 {
        fill: #90aacc;
      }

      .cls-16 {
        fill: #e1b47d;
      }

      .cls-17 {
        fill: #f8e3c8;
      }

      .cls-18 {
        fill: #edbd84;
      }

      .cls-19 {
        fill: #fff2e1;
      }

      .cls-20 {
        fill: #f1dbbd;
      }

      .cls-21 {
        fill: #f0bb79;
      }

      .cls-22 {
        fill: #b4a394;
      }

      .cls-23 {
        fill: #8394b3;
      }

      .cls-24 {
        fill: #eeba78;
      }

      .cls-25 {
        fill: #ffe3c4;
      }

      .cls-26 {
        fill: #fac47e;
      }

      .cls-27 {
        fill: #fae9d4;
      }
    </style>
  </defs>
  <path class="cls-14" d="m20.39,44.76c.09-1.19.76-1.98,1.82-2.35,1.1-.39,2.22-.33,3.12.56.61.61,1.17,1.28,1.76,1.92.22.12.39.29.5.51v.02c.27-.02.19-.23.19-.38,0-3.92,0-7.85,0-11.77,0-.07-.03-.12-.05-.18,0-.03-.01-.07-.02-.11-.1-2-.02-4-.05-6,0-.94,0-1.88,0-2.81-.07-.96.37-1.64,1.19-2.08.77-.41,1.53-.45,2.27.1.07.14.1.29.1.44,0,.27,0,.55,0,.82-.01,5.69.03,11.38-.02,17.06-.03.08-.01-.01,0,.06.03.27-.53.41-.21.7.26.24.39-.26.65-.24.5-.06.51-.42.51-.81,0-2.37-.01-4.73,0-7.1,0-.22.07-.42.13-.62.05-.26.16-.5.32-.7.21-.2.38-.47.7-.53.16.06.31.09.43-.06.08-.05.17-.11.25-.16.36-.04.72-.19,1.03.13.04,0,.08.02.13.03.24.44.29.96.66,1.34.08,2.74,0,5.47.04,8.2.29.38.47.38.75,0,.04-1.53,0-3.06.01-4.59,0-.43.01-.85.12-1.26.08-.37.21-.71.58-.89.36-.36.74-.67,1.29-.65.26-.09.53-.09.79,0,.04,0,.08.01.12.03.21.42.5.78.77,1.16.1,1.89.02,3.78.04,5.67,0,.35-.02.69.39.85.12.06.2.16.29.25.14.15.31.24.51.16.21-.09.28-.28.24-.48-.18-.95-.07-1.92-.13-2.87,0-.09-.06-.16-.11-.23-.08-.09-.18-.17-.26-.27-.08-.15-.04-.31,0-.46.04-.19.09-.37.29-.47.23-.69.88-.84,1.43-1.13.08-.08.17-.12.28-.11.2.07.42-.02.61.08.13.05.26.11.38.16.05.43.34.74.53,1.09.06,3.64.03,7.28.02,10.92,0,.07-.02.14-.05.2-.56.77-.7,1.63-.54,2.56-.02.06-.05.11-.1.15-.29.16-.54.34-.54.71,0,.26-.19.4-.34.58-.41.51-.83,1.02-.85,1.72-.22.34-.49.63-.84.83-.57-.06-.94.31-1.32.63-.36.3.05.57.08.86.05,2.49.01,4.98.02,7.47,0,.21,0,.43-.17.59-3.22,0-6.43,0-9.65.03-.41,0-.49-.16-.49-.53.01-1.85,0-3.71.02-5.56,0-.39-.1-.61-.48-.77-.63-.26-1.17-.68-1.7-1.11-.18-.08-.31-.21-.39-.39-.43-.55-.87-1.1-1.3-1.66-.14-.11-.29-.23-.36-.4,0-.04-.01-.08-.03-.11-.14-.11-.29-.23-.36-.4,0-.04-.01-.08-.03-.11-.14-.11-.28-.23-.36-.4-1.37-1.82-2.75-3.63-4.1-5.45-.29-.39-.55-.81-.53-1.33-.08-.34-.08-.68,0-1.02Z"/>
  <path class="cls-6" d="m32.7,31.82c-.09.2-.17.41-.26.61-.35-.04-.29-.33-.29-.54,0-1.38-.06-2.75.02-4.13.04-.18.17-.28.33-.34.54-.2.71-.59.63-1.13.04-.17.14-.29.33-.3.64.13.93-.06.99-.69.03-.34.1-.63.35-.91.37-.4.09-.68-.3-.87-.07-.07-.09-.16-.09-.25.04-.21.05-.41,0-.62,0-.09.02-.18.08-.25.59-.36.63-.49.19-1.01-.18-.22-.19-.46-.22-.71-.07-.69-.32-.87-1.01-.75-.18-.02-.28-.13-.33-.29,0-.89-.05-.97-.95-1.21-.19-.05-.38-.09-.53-.21-.49-.38-.85-.27-1.11.28-.44.07-.88.06-1.33.12-2,.27-3.59,2.06-3.65,4.06-.05,1.61.54,2.89,1.81,3.88.18.14.39.27.4.54,0,1.7,0,3.41,0,5.11-.02.15-.13.16-.25.15-.26-.23-.03-.56-.17-.82-.1-.58-.56-.8-1.01-1.02-.51-.25-1.03-.46-1.48-.84-.56-.48-1.17-.35-1.76,0-.81.49-1.16.42-1.66-.37-.52-.81-1.05-1.62-1.52-2.47-.37-.67-.26-1.19.43-1.55.69-.36,1.04-.81.97-1.58.07-.51.07-1.02,0-1.53-.02-.04-.02-.08-.01-.12.09-.22.09-.44,0-.66-.16-.38-.51-.54-.83-.73-.81-.47-.94-1-.45-1.77.47-.75.92-1.51,1.37-2.27.34-.59.86-.77,1.5-.5.23.1.45.23.69.32.37.14.71.16,1.07-.1.6-.43,1.21-.83,1.93-1.05.46-.14.59-.56.77-.94.12-.34-.04-.7.1-1.04.13-.57.61-.6,1.04-.61,1.02-.03,2.05,0,3.07.01.24.6.83,1.05.72,1.82-.04.28.32.28.53.35.06.03.11.06.16.09.17.14.34.29.51.43.43.69,1.25,1.12,1.81.96.13,0,.23.07.31.17.32.55.43.59.98.28.4-.22.98-.17,1.13-.77.38.05.7.18.78.61-.3.88.45,1.37.75,2.03.09.2.4.02.59.09.09.04.12.13.17.21,0,.04.01.08.03.11.1.06.18.13.13.26v.64c.07.18-.04.28-.16.38h0c-.1.21-.26.31-.5.29-.17.12-.35.23-.52.35-.12.22-.19.46-.36.66-.01.21-.03.43-.04.64-.34.38-.48.77,0,1.15.01.38.02.77.03,1.15.07.93.12.97,1.02.77.41.17.58.47.49.91-.56.23-.83.7-.99,1.23-.16.54-.6.98-.52,1.6-.05.08-.1.17-.16.25-.42.06-.89.06-1,.62-.22.03-.37-.08-.52-.22-.16-.23.06-.58-.3-.76-.49-.24-.8-.14-1.1.46-.04.04-.09.09-.13.13-.13.17-.31.24-.51.26-.5.29-.97.64-1.53.8-.31.33-.61.66-.65,1.15Z"/>
  <path class="cls-4" d="m1.93,41.19c-2.18-1.91-2.27-5.35-.39-7.35.82-.87,1.85-1.39,3.1-1.55.97-.13,1.96-.05,2.76.29,1.34.59,2.43,1.64,2.83,3.15.61,2.28-.04,4.72-2.28,6.02-1.74,1.01-3.49.99-5.23.01-.13-.07-.26-.15-.39-.22-.17-.08-.28-.22-.4-.36Z"/>
  <path class="cls-4" d="m60.92.88c1.41.75,2.4,1.83,2.74,3.44.62,2.95-1.01,5.68-4.06,6.29-1.37.27-2.74,0-3.92-.87-.18-.07-.29-.21-.4-.36-2.17-1.9-2.28-5.33-.4-7.34.82-.88,1.84-1.45,3.12-1.56.89-.08,1.7.05,2.53.26.18-.11.29,0,.38.13Z"/>
  <path class="cls-5" d="m6.42,4.51c-.05-2.4,1.75-4.15,4.06-4.08,2.66.08,4.08,1.79,4.1,4.08.02,2.48-2.14,4.18-4.32,4.1-1.9-.07-4-1.98-3.83-4.1Z"/>
  <path class="cls-5" d="m51.95,35.13c-.41-.76-.45-1.58-.37-2.42.53-.23.47-.61.26-1.02.04-.13.07-.25.11-.38.07-.25.22-.46.39-.65h0c.32-.64.93-.9,1.54-1.15.12-.04.25-.07.37-.11.35.3.64.18.9-.13.08-.01.17-.02.25-.04.17.04.34.11.51.04.09,0,.17,0,.26,0,.24.33.55.37.9.22.18,0,.35.04.5.15.92.28,1.43.96,1.79,1.8,0,.12.01.24.02.37-.14.35-.11.67.22.9.28.54.01,1.05-.07,1.57-.04.24-.11.48-.17.72-.32.88-.86,1.54-1.78,1.83-1.26.69-2.54.67-3.84.1-.89-.31-1.5-.91-1.8-1.8Z"/>
  <path class="cls-3" d="m41.55,54.38c.21-.3.47-.56.77-.77.61-1.02,1.26-2.02,1.8-3.07.02-.63.2-1.24.27-1.86.03-.25.06-.5.24-.71h0c.12-.2.06-.42.06-.63,0-3.42,0-6.83,0-10.25,0-.25.04-.52-.12-.74-.09-.18-.16-.36-.07-.57.79.28,1.13.91,1.29,1.67.11,1.32.02,2.65.05,3.97,0,1.11,0,2.22,0,3.33,0,1.22,0,2.44,0,3.66-.02.24.04.48-.05.71-.05.7-.23,1.37-.38,2.05.12.33.02.58-.26.77-.22.5-.45,1.01-.67,1.51-.09.13-.09.31-.26.39-.26.3-.51.6-.77.9-.09.25-.23.46-.51.51-.52.43-1.03.85-1.55,1.28-.12.66-.05,1.32-.05,1.97-.01,1.62,0,3.24,0,4.86,0,.21.07.43-.08.62-.34,0-.67-.01-1.01-.02-.12-.22-.06-.46-.06-.69-.02-2.55.03-5.1-.03-7.65-.08-.55.43-.64.71-.91.18-.17.4-.29.65-.36Z"/>
  <path class="cls-15" d="m50.8,9.49c.3-.18.59-.36.89-.54.11-.11.21-.26.38-.09.17.22.34.43.51.65.22.1.15.35.27.5.26.37.27.64-.23.83-.25.09-.44.31-.66.47-.16.11-.28.29-.5.25-.3.21-.6.43-.91.64-.16.11-.28.29-.5.25-.3.21-.6.43-.91.64-.16.11-.28.29-.5.25-.3.21-.6.43-.91.64-.16.11-.28.29-.5.25-.3.21-.6.43-.91.64-.16.11-.28.29-.5.25-.77.51-1.54,1.03-2.32,1.54-.16.11-.28.29-.5.25-.04.01-.09.01-.12.04q-.99.78-1.66-.2c-.23-.1-.18-.35-.28-.51-.15-.19-.27-.35.06-.51.3-.15.56-.35.84-.54.1-.22.31-.29.52-.35.3-.18.59-.36.89-.54.1-.22.31-.29.52-.35.3-.18.59-.36.89-.54.1-.22.31-.29.52-.35.3-.18.59-.36.89-.54.1-.22.31-.29.52-.35.3-.18.59-.36.89-.54.1-.22.31-.29.52-.35.3-.18.59-.36.89-.54.1-.22.31-.29.52-.35.3-.18.59-.36.89-.54.1-.22.31-.29.52-.35Z"/>
  <path class="cls-15" d="m46.94,26.95c.43.29.86.57,1.3.86.24-.02.4.09.5.3.43.29.86.57,1.3.86.23-.02.39.09.5.29-.09.17-.17.33-.26.5-.1.23-.14.5-.39.65-.08.1-.17.19-.22.3-.18.39-.4.34-.66.09-.16-.11-.4-.07-.52-.27-.43-.3-.85-.59-1.28-.89-.16-.11-.4-.07-.52-.27-.43-.3-.85-.59-1.28-.89-.21-.07-.42-.13-.52-.35-.42-.27-.85-.53-1.27-.8-.21-.07-.42-.13-.52-.35-.31-.12-.58-.28-.79-.55-.06-.39.18-.64.43-.88q.59-.85,1.52-.29c.24-.03.36.14.5.29.43.29.86.58,1.29.87.38.04.68.22.88.55Z"/>
  <path class="cls-15" d="m11.68,31.94c1.7-.98,3.4-1.96,5.11-2.95.05-.03.11-.06.17-.09,1.54-.89,1.07-.79,1.99.63.21.33.13.54-.18.72-1.59.92-3.18,1.84-4.77,2.77-.51.3-1.02.59-1.54.88-.15.09-.35.29-.49.05-.32-.55-.84-1.02-.8-1.75.11-.21.35-.14.51-.26Z"/>
  <path class="cls-15" d="m23.27,12.01c-.31.44-.65.94-1.03,1.42-.09.11-.26-.02-.39-.11-2.03-1.41-4.05-2.82-6.09-4.22-.2-.14-.2-.24-.04-.39.01-.01.02-.04.03-.05.3-.44.51-1.09.91-1.25.46-.19.87.45,1.29.73,1.7,1.15,3.37,2.32,5.05,3.49.11.08.29.09.26.38Z"/>
  <path class="cls-3" d="m36.94,34.75c-.28,2.09-.05,4.19-.13,6.29-.36.09-.71.13-1.06-.02-.06-2.7,0-5.4-.03-8.11,0-.23.06-.47-.07-.69-.13-.31-.36-.61,0-.91,1.04.61,1.19,1.6,1.18,2.67.24.23-.05.53.11.76Z"/>
  <path class="cls-3" d="m41.42,37.17c-.04.13-.08.27-.12.4.09.12.17.25.17.4-.04,1.02.18,2.06-.13,3.07-.91.27-1.13.12-1.13-.75,0-1.79,0-3.58,0-5.37,0-.23.06-.47-.09-.68-.14-.24-.27-.49-.09-.77v-.04c.23-.03.39.08.5.29.44.47.7,1.02.79,1.65.12.59-.04,1.19.11,1.78Z"/>
  <path class="cls-6" d="m38.61,29.12c-.11-.16-.38-.27-.18-.52.45-.53.52-1.24.87-1.84.24-.4.44-.48.81-.47.08.28-.09.49-.21.7-.43.71-.87,1.42-1.3,2.13Z"/>
  <path class="cls-25" d="m27.72,33.08c.18.17.11.4.11.61,0,3.8,0,7.59,0,11.39,0,.15.04.32-.03.44-.08.13-.17,0-.23-.09.22-.21.13-.48.13-.72,0-3.87.01-7.74.02-11.62Z"/>
  <path class="cls-6" d="m39.87,18.85c-.42.12-.81.32-.97-.4-.05-.24-.28-.61-.54-.87-.26-.26-.27-.66.13-.91.36.32.49.79.78,1.16.26.08.26.34.36.53,0,.04.01.08.03.11.15.09.32.16.21.39Z"/>
  <path class="cls-6" d="m32.86,15c-.77,0-.85-.06-.77-.82.03-.27-.01-.52-.2-.61-.42-.19-.32-.53-.33-.85.45.09.95.12,1.03.74.14.27-.05.61.19.86.06.22.15.44.08.68Z"/>
  <path class="cls-6" d="m37.71,16.05c.06.46-.09.76-.6.74-.24,0-.37.14-.54.27-.47.36-.98.11-1.04-.5.07-.09.16-.1.26-.05.39.13.68-.12.98-.27.3-.16.6-.27.94-.19Z"/>
  <path class="cls-6" d="m35.53,29.48c.06-.25-.16-.61.2-.72.47-.14.92,0,1.3.29.36.28-.17.46-.1.72-.47-.08-.86-.57-1.41-.29Z"/>
  <path class="cls-1" d="m40.28,55.41c0,2.86,0,5.72,0,8.57-.04,0-.08,0-.13,0,0-2.77,0-5.54,0-8.32-.08-.15-.08-.26.13-.26Z"/>
  <path class="cls-6" d="m35.28,16.4c-.31.37-.67.37-.95.01-.09-.12-.03-.37-.3-.33-.52.06-.59-.26-.55-.67.35-.02.58.28.9.34.41.06.75.22.9.65Z"/>
  <path class="cls-22" d="m27.7,32.32c0-1.79,0-3.58,0-5.36.02-.02.04-.04.06-.06.02.02.04.04.06.06,0,1.83,0,3.66,0,5.49,0,.18.05.39-.13.53-.04-.04-.09-.09-.13-.13-.01-.19-.02-.38.13-.53Z"/>
  <path class="cls-6" d="m39.64,25.38c-.24.5-.71.32-.96.17-.33-.19-.28-.61-.05-.94.34.26.68.51,1.02.77Z"/>
  <path class="cls-6" d="m37.45,29.99c0-.85.06-.88,1-.62-.22.39-.51.67-1,.62Z"/>
  <path class="cls-6" d="m38.59,23.47c-.29.01-.48-.09-.49-.42-.02-.37.07-.66.49-.74.12.38.12.77,0,1.15Z"/>
  <path class="cls-2" d="m45.8,41.43c0-1.33,0-2.66,0-3.98.24.39.1.83.11,1.24.02.91,0,1.83,0,2.74-.03.06-.07.06-.11,0Z"/>
  <path class="cls-5" d="m51.84,31.68c.28.16.42.4.35.73-.08.34-.36.29-.6.29-.07-.38.09-.7.26-1.02Z"/>
  <path class="cls-14" d="m35.66,31.31c-.14.25.06.5,0,.75.07.09.07.17,0,.26-.75-.12-.4-.73-.51-1.14.19-.05.36.02.51.13Z"/>
  <path class="cls-14" d="m40.03,33.49c.04.21.08.41.12.62.07.09.07.17,0,.26-.54-.13-.64-.54-.64-1.01.2-.06.36.03.52.13Z"/>
  <path class="cls-27" d="m45.81,48.48c0-1.24,0-2.48,0-3.72.03-.06.07-.06.11,0,0,1.24,0,2.48,0,3.72-.03.06-.07.06-.11,0Z"/>
  <path class="cls-17" d="m45.91,44.76s-.07,0-.11,0c0-1.11,0-2.22,0-3.33.04,0,.07,0,.11,0,0,1.11,0,2.22,0,3.33Z"/>
  <path class="cls-5" d="m55.15,29.26c0,.25-.06.46-.35.49-.27.02-.51-.02-.54-.36.29-.11.58-.2.9-.13Z"/>
  <path class="cls-5" d="m59.62,32.7c-.6-.15-.67-.42-.22-.9.18.28.29.57.22.9Z"/>
  <path class="cls-5" d="m57.08,29.48c-.48.45-.75.38-.9-.22.34-.06.63.05.9.22Z"/>
  <path class="cls-14" d="m44.51,35.78c.04.13.08.26.13.39.09.13.09.26,0,.39-.57-.1-.53-.47-.38-.88.11-.02.21-.01.26.1Z"/>
  <path class="cls-13" d="m21.32,22.19c.16.51.16,1.02,0,1.53,0-.51,0-1.02,0-1.53Z"/>
  <path class="cls-6" d="m27.7,32.32c0,.19.07.39-.13.53-.15-.09-.28-.19-.22-.4.02-.06.05-.1.11-.13h.24Z"/>
  <path class="cls-5" d="m55.92,29.26c-.19.31-.36.26-.51-.04.19-.24.35-.06.51.04Z"/>
  <path class="cls-12" d="m35.02,31.16c-.33-.19-.69-.09-1.03-.13.37-.12.74-.33,1.03.13Z"/>
  <path class="cls-23" d="m27.44,13.32c-.03.35.11.71-.1,1.04,0-.35-.12-.71.1-1.04Z"/>
  <path class="cls-14" d="m33.35,31.31s.09-.09.13-.14c.08,0,.17,0,.25.01-.01.15-.06.28-.22.32-.14.03-.15-.09-.17-.19Z"/>
  <path class="cls-11" d="m27.45,32.32s-.07.08-.11.13c0-.3,0-.59,0-.89.2.23.07.51.11.77Z"/>
  <path class="cls-8" d="m32.73,14.11c-.01.08-.03.17-.04.25-.21-.28-.07-.6-.1-.91.22.18.07.44.15.65Z"/>
  <path class="cls-7" d="m39.39,33.34c-.26,0-.53,0-.79,0,.26-.19.53-.19.79,0Z"/>
  <path class="cls-9" d="m45.81,48.48s.07,0,.11,0c-.02.22.08.45-.11.64,0-.21,0-.42,0-.64Z"/>
  <path class="cls-19" d="m43.87,35.51h-.64c-.02-.1,0-.17.13-.11.18.02.37-.05.51.11Z"/>
  <path class="cls-10" d="m27.71,26.96c-1.79-.87-2.87-3.34-2.06-5.6.78-2.15,2.91-3.22,4.88-2.91.67-.27,1.19.04,1.69.43.45.75,1.06,1.35,1.78,1.83.1.07.17.17.19.29-.07.33-.12.65.29.82.16.2.19.41.04.63,0,.08-.01.16-.02.25.03.18.03.36,0,.53,0,.08.01.16.02.25.15.22.12.43-.04.64-.38.17-.31.49-.28.81-.03.13-.1.23-.2.31-.42.25-.75.59-1.1.92-.22.21-.41.38-.67.07-.19-.73.02-1.49-.13-2.23-.06-.19-.13-.38-.16-.58-.01-.09,0-.19,0-.28.14-.39-.02-.55-.41-.54-.24-.02-.37-.19-.49-.37-1.7-.76-3.01.32-3.25,1.47-.02.12.01.2.03.3-.12.75-.02,1.5-.06,2.25-.01.23.07.46-.06.67v.05Z"/>
  <path class="cls-26" d="m31.04,40.78c0-5.81,0-11.63,0-17.44.09-.04.16-.01.21.07.13.24.12.49.12.75,0,5.41,0,10.82,0,16.23,0,.17,0,.34-.04.51-.02.08-.06.16-.11.22-.4.07-.25-.16-.18-.34Z"/>
  <path class="cls-14" d="m41.3,41.04c0-1.15,0-2.31,0-3.46.1,0,.2.03.25.13.12.07.18.17.19.31.04,1.01-.09,2.03.12,3.03.06.26-.13.45-.36.54-.25.09-.45,0-.53-.29,0-.22.22-.16.32-.26Z"/>
  <path class="cls-21" d="m44.63,36.55c0-.13,0-.26,0-.39.19.17.12.39.12.6,0,3.53,0,7.07,0,10.6,0,.2.07.43-.12.6,0-3.8,0-7.61,0-11.41Z"/>
  <path class="cls-14" d="m44.12,50.53c-.32,1.18-.97,2.18-1.8,3.07-.21-.81.43-1.27.79-1.83.13-.2.31-.28.3-.6-.02-.37.25-.67.71-.65Z"/>
  <path class="cls-24" d="m31.17,41.17s0-.09,0-.13c.77-.17.86-.69.84-1.38-.04-1.9-.02-3.8-.01-5.69,0-.32-.04-.64.12-.94.05-.08.12-.1.2-.06,0,2.44,0,4.89,0,7.33q0,.88-.9.88c-.09.08-.17.07-.26,0Z"/>
  <path class="cls-3" d="m35.66,32.32c0-.09,0-.17,0-.26.21.19.12.44.12.66,0,2.77,0,5.54,0,8.31-.04.05-.08.04-.13,0,0-2.91,0-5.81,0-8.72Z"/>
  <path class="cls-1" d="m41.3,41.04c-.05.11-.15.13-.26.13-.09.08-.17.08-.26,0-.48.07-.66-.1-.65-.62.03-2.06.01-4.12.01-6.17,0-.09,0-.17,0-.26.21.19.12.44.12.66,0,1.75,0,3.5,0,5.24,0,1.15-.15,1,1.02,1.02Z"/>
  <path class="cls-14" d="m44.63,47.97c-.08.87-.14,1.75-.51,2.57-.5-.74.16-1.46.05-2.21-.03-.18.22-.35.46-.36Z"/>
  <path class="cls-14" d="m40.28,55.41c-.1.05-.13.15-.13.26-.32-.04-.28-.28-.23-.48.09-.4,1.22-.94,1.64-.8-.35.44-.88.65-1.28,1.03Z"/>
  <path class="cls-16" d="m32.32,32.96s-.08,0-.13,0c-.16-.14-.19-.33-.19-.52,0-1.76-.07-3.52.04-5.28.02-.08.06-.15.11-.21.07-.05.14-.05.21,0,.14.21.13.42-.02.63,0,1.51-.01,3.01-.02,4.52,0,.12-.02.26.12.33-.04.18-.08.35-.12.53Z"/>
  <path class="cls-14" d="m40.79,41.17c.09,0,.17,0,.26,0,.03.25.14.42.41.35.19-.05.38-.22.34-.41-.23-1.07,0-2.16-.16-3.22,0-.06-.05-.12-.08-.17.27.03.25.23.26.43.03.93-.08,1.86.12,2.78.07.33-.02.66-.41.75-.39.09-.66-.06-.73-.49Z"/>
  <path class="cls-3" d="m32.06,23.1c0,.08,0,.16-.01.25-.54.36-.59-.26-.86-.44-.09-.09-.05-.24-.14-.34,0-.12,0-.24,0-.36.19.04.28.27.5.24.29.12.45.35.52.65Z"/>
  <path class="cls-20" d="m27.7,26.9c0-.78,0-1.55,0-2.33,0-.2-.06-.42.12-.6,0,.99,0,1.98,0,2.97-.04-.02-.08-.03-.12-.05Z"/>
  <path class="cls-14" d="m31.17,41.17c.09,0,.17,0,.26,0-.02.24-.13.41-.4.35-.17-.04-.3-.17-.34-.34-.06-.27.11-.38.35-.4,0,.14-.02.29.13.38Z"/>
  <path class="cls-1" d="m35.66,41.04s.08,0,.13,0c.34,0,.68,0,1.02,0-.38.21-.77.21-1.15,0Z"/>
  <path class="cls-26" d="m31.04,22.57c.1.06.12.15.13.26.13.17.15.34,0,.51h-.13c0-.26,0-.51,0-.77Z"/>
  <path class="cls-6" d="m32.2,19c-.49-.38-1.06-.52-1.67-.55.06-.59.59-.88,1.02-.5.26.23.54.31.84.37.83.19,1.05.5.83,1.31-.47,0-.71-.37-1.02-.64Z"/>
  <path class="cls-6" d="m34.36,24.11c.17-.18.14-.42.17-.64.25,0,.56-.04.6.31.03.3.16.67-.25.83-.35.13-.25.42-.23.65.04.48-.23.77-.58.97-.2.12-.51.19-.59-.21-.06-.42.23-.65.5-.88.05-.08.1-.16.15-.24.03-.27.02-.56.23-.78Z"/>
  <path class="cls-6" d="m34.13,21.02c-.05-.08-.1-.16-.15-.24-.27-.24-.55-.46-.5-.88.12-.26.34-.35.57-.22.27.16.55.36.58.72.03.4-.05.77.42,1.08.39.26.03.91-.53.97-.03-.22,0-.46-.17-.64-.21-.22-.2-.51-.23-.78Z"/>
  <path class="cls-10" d="m33.47,19.89c.17.29.33.59.5.88-.51.05-.74-.45-.98-.7-.29-.29-.81-.52-.79-1.07.43.06.66.45,1.02.64.09.09.17.17.26.26Z"/>
  <path class="cls-10" d="m33.97,25.14c-.17.29-.33.59-.5.88-.09.09-.17.17-.26.26-.18.36-.45.61-.87.64h-.02c-.17-.22-.19-.43.02-.63.52-.11.71-.63,1.11-.89.17-.11.29-.28.52-.26Z"/>
  <path class="cls-6" d="m32.34,26.92c.29-.21.58-.43.87-.64.27.76-.05,1.22-.87,1.3,0-.22,0-.43,0-.65Z"/>
  <path class="cls-3" d="m31.17,23.34c0-.17,0-.34,0-.51.16,0,.35,0,.38.22.03.34.28.29.5.29.05.17.1.34.15.5.09,1.03.1,2.06,0,3.09,0,2.01,0,4.02,0,6.03,0,2.36,0,4.71,0,7.07,0,1.14.15,1-1.02,1.01,0-5.9,0-11.8,0-17.7Z"/>
  <path class="cls-18" d="m32.2,26.93c0-1.03,0-2.06,0-3.09.28.8.03,1.63.14,2.45,0,.21-.01.42-.02.63-.04,0-.09.01-.13.02Z"/>
  <path class="cls-10" d="m34.13,21.02c.16.24.28.48.23.78-.7-.08-.37-.46-.23-.78Z"/>
  <path class="cls-10" d="m32.06,23.1c-.25-.15-.33-.45-.52-.65.67.03.7.07.52.65Z"/>
  <path class="cls-10" d="m34.36,24.11c.05.3-.07.54-.23.78-.07-.3-.43-.69.23-.78Z"/>
</svg>