<?xml version="1.0" encoding="UTF-8"?>
<svg id="Layer_1" data-name="Layer 1" xmlns="http://www.w3.org/2000/svg" viewBox="0 0 64 64">
  <defs>
    <style>
      .cls-1 {
        fill: #ae742a;
      }

      .cls-2 {
        fill: #855823;
      }

      .cls-3 {
        fill: #fff;
      }

      .cls-4 {
        fill: #4d98d3;
      }

      .cls-5 {
        fill: #781d1a;
      }

      .cls-6 {
        fill: #f6f6f6;
      }

      .cls-7 {
        fill: #6d4a1d;
      }

      .cls-8 {
        fill: #222;
      }

      .cls-9 {
        fill: #409eb3;
      }

      .cls-10 {
        fill: #4a4a4a;
      }

      .cls-11 {
        fill: #8f5b24;
      }

      .cls-12 {
        fill: #76241e;
      }

      .cls-13 {
        fill: #1c1c1c;
      }

      .cls-14 {
        fill: #7f5622;
      }

      .cls-15 {
        fill: #ea473c;
      }

      .cls-16 {
        fill: #2b2c2b;
      }

      .cls-17 {
        fill: #2f1212;
      }

      .cls-18 {
        fill: #4ab5cd;
      }

      .cls-19 {
        fill: #295471;
      }

      .cls-20 {
        fill: #3e7ead;
      }

      .cls-21 {
        fill: #7ac6d9;
      }

      .cls-22 {
        fill: #245762;
      }

      .cls-23 {
        fill: #2a2a2a;
      }

      .cls-24 {
        fill: #3f9cb2;
      }

      .cls-25 {
        fill: #254a66;
      }

      .cls-26 {
        fill: #4c95cd;
      }

      .cls-27 {
        fill: #825722;
      }

      .cls-28 {
        fill: #e1332c;
      }

      .cls-29 {
        fill: #f49821;
      }

      .cls-30 {
        fill: #4f4f4f;
      }

      .cls-31 {
        fill: #db332b;
      }

      .cls-32 {
        fill: #dd332a;
      }

      .cls-33 {
        fill: #23435c;
      }

      .cls-34 {
        fill: #fbac2f;
      }

      .cls-35 {
        fill: #f04b3e;
      }

      .cls-36 {
        fill: #533514;
      }

      .cls-37 {
        fill: #faa92e;
      }

      .cls-38 {
        fill: #191919;
      }

      .cls-39 {
        fill: #3f7fae;
      }

      .cls-40 {
        fill: #48a9cd;
      }

      .cls-41 {
        fill: #1a1a1a;
      }

      .cls-42 {
        fill: #ad6c29;
      }

      .cls-43 {
        fill: #45a7be;
      }

      .cls-44 {
        fill: #4dbbd5;
      }

      .cls-45 {
        fill: #1d0f0f;
      }

      .cls-46 {
        fill: #4c3415;
      }

      .cls-47 {
        fill: #f79a22;
      }

      .cls-48 {
        fill: #f29720;
      }

      .cls-49 {
        fill: #010101;
      }

      .cls-50 {
        fill: #e3e3e3;
      }
    </style>
  </defs>
  <path class="cls-49" d="m39.75,22.86c.04.47-.24.72-.61.92-1.01.3-2.08-.11-3.1.23-1.16,1.3-1.26,2.42.31,3.55,1.12.8,1.23,1.71.02,2.77-1.7,1.49-3.25,3.16-4.82,4.8-.51.54-.87.56-1.31-.02-.15-.2-.35-.36-.53-.54q-1.63-1.63-3.66-.44c-.46.97.05,2.03-.28,3.02-.21.2-.41.41-.62.61-2.74.61-5.51.17-8.26.24-.52-.05-.59-.44-.65-.85-.32-.98.17-2.04-.28-3.01-1.59-1.07-2.89-.91-4.03.76-.54.8-1.26.85-2.04,0-1.5-1.64-3.13-3.16-4.7-4.74-1.02-1.02-1.01-1.5.01-2.43.06-.06.21-.02.28-.08,1.3-1.06,1.42-1.39.62-2.88-.17-.32.11-.87-.46-.97-1.03.16-2.05.17-3.08,0-.56-.24-.6-.69-.6-1.23.02-2.35.02-4.71,0-7.06,0-.54.05-.99.6-1.23,1.09-.33,2.24.18,3.32-.28,1.22-1.7.7-3.02-.89-4.12-.87-.6-.66-1.16.03-1.82,1.54-1.47,3.07-2.95,4.5-4.53,1-1.1,2.01-1,2.76,0,1.16,1.57,2.34,1.42,3.72.47.34-1.12-.07-2.28.23-3.4.03-.4.65-.16.66-.59h8.52c-.1.38.19.61.35.89.33,1.09-.18,2.25.28,3.33,1.45.87,2.56.75,3.58-.82.45-.7,1.44-1.1,2.38-.06,1.56,1.73,3.27,3.32,4.92,4.97.85.86.13,1.58-.41,1.99-1.43,1.07-1.6,2.23-.7,3.67,1.08.46,2.23-.05,3.32.28.2.21.41.41.61.62.45,2.66.48,5.32,0,7.99Z"/>
  <path class="cls-49" d="m24.21,64c-.14-.2-.38-.38-.41-.6-.23-1.63-.63-2.63-2.09-.73-.15.19-.36.11-.53-.02-1.27-.96-2.45-1.99-3.4-3.29-.43-.59-.04-.91.11-1.32.17-.44.84-.58.8-1.26-.8-.28-2,.32-2.35-.99.18-1.53.18-3.06,0-4.59.23-.87.94-.56,1.49-.58.41-.01.71-.16.85-.49.15-.35-.19-.57-.41-.73-1.19-.83-.76-1.51.1-2.26.69-.6,1.32-1.26,1.93-1.94.74-.81,1.45-1.03,2.24-.07.17.21.37.59.69.47.36-.14.38-.54.36-.91-.03-.66-.11-1.37.87-1.42,1.44-.2,2.89-.2,4.33,0,.97.05.9.75.87,1.42-.03.88.38,1.04.97.5,1.22-1.12,2.12-.55,3.02.41.41.44.86.86,1.28,1.29.77.79,1.28,1.58.11,2.46-.26.19-.48.37-.26.84.21.47.5.43.83.4,1.32-.14,1.62.7,1.67,1.74.04.76-.02,1.52.01,2.27.05,1.28-.37,2.12-1.81,2.07-.33-.01-.64.04-.78.33-.17.36.22.52.42.68,1.03.85.77,1.58-.1,2.35-.57.5-1.12,1.03-1.61,1.6-.85.98-1.6,1.63-2.71.22-.59-.74-.95-.11-1,.5-.05.62.08,1.27-.63,1.62h-4.87Z"/>
  <path class="cls-49" d="m44.85,27.26c0-.65.53-.69.96-.86,1.83.33,3.69-.13,5.51.24.44-.05.64.15.59.59.37.68-.15,1.49.32,2.15.67.29,1.2.31,1.76-.37.76-.93,1.61-1.18,2.54-.03.79.97,1.69,1.87,2.66,2.66,1.07.88,1.18,1.59.03,2.47-.8.61-1.06,1.34-.02,2.03.6.27,1.27-.08,1.86.24.58-.13.77.48.76.7-.03,2.1.69,4.27-.51,6.28-.74.49-1.63-.1-2.37.35-.58.63-.39,1.15.22,1.64,1.09.87,1.07,1.67-.04,2.59-1.08.9-2.06,1.93-3,2.99-.66.74-1.13.8-1.74,0-.55-.73-1.21-1.24-2.14-.5-.48.66.05,1.47-.33,2.15-.21.21-.42.42-.62.62-1.93.16-3.86.16-5.79,0-.41-.19-.64-.5-.66-.96-.28-.57.13-1.23-.26-1.78-.9-.75-1.58-.28-2.15.45-.59.76-1.05.85-1.75.05-1.07-1.22-2.23-2.36-3.43-3.45-.77-.7-.69-1.19.03-1.84.56-.5,1.41-1.01.56-1.95-.66-.39-1.41.03-2.08-.26-.41-.19-.64-.5-.66-.96-.16-1.83-.16-3.66,0-5.48,0-.65.54-.69.96-.86.61.13,1.22.26,1.81-.09.54-.95.19-1.67-.61-2.26-.81-.61-.73-1.15,0-1.82,1.01-.91,2.02-1.85,2.88-2.9.95-1.16,1.81-1.09,2.67-.05.61.73,1.15.8,1.78.1.33-.59-.03-1.27.24-1.87Z"/>
  <path class="cls-8" d="m16.9,35.43c1.05-.54,2.18-.2,3.26-.24,1.66-.06,3.33,0,5,0-.11.11-.23.22-.34.34-2.53.16-5.07.16-7.6,0-.1-.03-.21-.07-.31-.1Z"/>
  <path class="cls-38" d="m39.75,22.86c0-2.66,0-5.32,0-7.99.11.11.23.23.34.34.11,2.53.27,5.07-.09,7.59-.08.01-.17.03-.25.05Z"/>
  <path class="cls-8" d="m51.33,26.64c-1.84-.11-3.7.32-5.51-.24,1.84.06,3.7-.38,5.51.24Z"/>
  <path class="cls-10" d="m16.34,51.2c.42,1.53.42,3.06,0,4.59,0-1.53,0-3.06,0-4.59Z"/>
  <path class="cls-30" d="m28.81,43.27c-1.44,0-2.89,0-4.33,0,1.44-.46,2.89-.46,4.33,0Z"/>
  <path class="cls-16" d="m51.92,52.56c.1-.72-.33-1.52.33-2.15-.23.7.3,1.51-.33,2.15Z"/>
  <path class="cls-23" d="m52.25,29.38c-.66-.63-.23-1.43-.32-2.15.6.64.1,1.45.32,2.15Z"/>
  <path class="cls-13" d="m61.07,36.38c-.62-.06-1.29.23-1.86-.24.63.04,1.3-.35,1.86.24Z"/>
  <path class="cls-41" d="m37.89,36.06c-.58.56-1.19.43-1.81.09.6-.03,1.21-.06,1.81-.09Z"/>
  <path class="cls-18" d="m13.56,7.36c1.06-.62,2.18-1.07,3.35-1.44.76-.24,1.28-.75,1.26-1.64.1-.11.2-.23.3-.34,1.34-1,2.94-1.21,4.52-1.49.24.02.44.14.63.28h0c.32.68-.06,1.45.24,2.14-.03.72.56.94,1.04,1.1.98.32,1.99.6,2.87,1.15.85.52,1.18-.17,1.62-.6,1.53-1.48,1.52-1.49,3.02,0,.79.78,1.59,1.55,2.37,2.31-.04.15-.05.25-.09.3-.69.83-2.16,1.53-1.85,2.56.48,1.53.75,3.27,2.03,4.49.93.35,1.97-.2,2.88.34.26,1.66.23,3.31.02,4.97-.79.63-1.77,0-2.6.39-.63-.01-.84.44-1.03.92-.16.41-.25.87-.48,1.23-1.32,2.08-.93,3.74,1.4,4.99-1.27,1.22-2.39,2.31-3.53,3.39-.27.26-.62.79-.96.23-1.48-2.37-3.34-1.43-5.18-.66-.53.23-1.01.59-1.52.88-.31.8.09,1.66-.24,2.45h0c-1.95.61-3.5-.39-5.1-1.24-.15-.19-.26-.4-.35-.62-.31-.65-.73-1.1-1.51-1.23-.93-.16-1.69-.76-2.49-1.24-3.18-2.78-4.78-6.31-4.98-10.5,0-1.08,0-2.16,0-3.24.16-3.88,1.88-7.06,4.38-9.9Z"/>
  <path class="cls-26" d="m9.6,20.7c.1,3.51,1.55,6.45,3.76,9.08.32.38.79.64.81,1.22-1.12-.14-1.92.41-2.56,1.25-.5.66-.93.74-1.54.06-.98-1.09-2.06-2.09-3.14-3.16.62-1.1,2.41-1.72,1.98-3.11-.45-1.44-.78-3.07-2.04-4.17-.22-.1-.45-.19-.7-.23q-2.04-.08-2.04-2.15c0-.95.04-1.9-.04-2.84-.07-.17-.04-.33.08-.47.45-.01.91-.07,1.36-.03,1.32.12,2.3-.14,2.35-1.74.01-.33.13-.73.34-.96,1.38-1.47.79-2.62-.55-3.63-.81-.61-.7-1.06.01-1.69.99-.86,1.72-2.24,2.84-2.67,1.34-.51,1.74,1.65,3.03,1.9.02,1.09-.92,1.62-1.4,2.4-1.38,2.25-2.5,4.58-2.56,7.28-.25,1.22-.25,2.44,0,3.66Z"/>
  <path class="cls-26" d="m18.43,33.78c1.67.72,3.31,1.51,5.18,1.54-.01.1-.03.2-.07.29-1.69.55-3.39.36-5.09.1-.29-.64-.26-1.29-.02-1.94Z"/>
  <path class="cls-22" d="m37.87,16.17c.54,1.9.54,3.8,0,5.7-.09-.16-.13-.32-.11-.5,0-1.57,0-3.13,0-4.7-.01-.18.03-.35.12-.5Z"/>
  <path class="cls-25" d="m4.16,16.17c-.02.1-.01.19,0,.29.25,1.63-.01,3.27.14,4.9,0,.19-.04.36-.16.51-.54-1.9-.55-3.8.01-5.7Z"/>
  <path class="cls-4" d="m23.62,2.72c-.21,0-.42,0-.63,0-1.51-.29-3.08.66-4.56-.23-.12-.18-.1-.34.08-.48,1.69.01,3.38-.23,5.06.14.02.19.04.37.06.56Z"/>
  <path class="cls-19" d="m23.56,2.16c-1.7,0-3.41,0-5.11,0-.1.11-.19.12-.28-.01,1.8-.54,3.59-.56,5.39,0Z"/>
  <path class="cls-33" d="m23.56,35.88c-1.8.56-3.6.55-5.4,0,.16-.09.34-.13.52-.12,1.63.07,3.26-.14,4.88.11Z"/>
  <path class="cls-4" d="m23.56,35.88h-5.12c-.1-.06-.13-.12-.1-.18.03-.06.06-.09.09-.09,1.7,0,3.41,0,5.11,0,.04.09.05.18.02.27Z"/>
  <path class="cls-43" d="m37.87,16.17c.02.09.01.19-.02.28-.09.13-.18.14-.26,0-.91-.13-1.86.27-2.73-.26,1,0,2,0,3.01,0Z"/>
  <path class="cls-20" d="m4.15,21.87c0-.09,0-.19.01-.28.8-.2,1.59-.21,2.39.01.1.09.21.18.31.26-.9,0-1.81,0-2.71,0Z"/>
  <path class="cls-24" d="m37.85,21.59c.02.09.03.18.02.28-.9,0-1.8,0-2.71,0,.76-.53,1.63-.14,2.44-.27.08-.13.16-.14.25,0Z"/>
  <path class="cls-24" d="m23.62,35.33c.08-.82-.28-1.68.24-2.45-.06.82.33,1.68-.24,2.45Z"/>
  <path class="cls-39" d="m18.44,35.61c0,.09,0,.17,0,.26,0,0-.14.02-.14.02,0,0-.14,0-.14,0,0-.8,0-1.61,0-2.41.09.1.18.2.27.3,0,.61,0,1.22,0,1.83Z"/>
  <path class="cls-20" d="m18.17,2.15c.09,0,.18,0,.28.01-.01.09-.01.18-.01.26.49.61.39,1.22-.02,1.82-.08,0-.16.01-.24.02,0-.71,0-1.41,0-2.12Z"/>
  <path class="cls-9" d="m23.86,4.87c-.5-.67-.18-1.43-.24-2.15.57.66.18,1.43.24,2.15Z"/>
  <path class="cls-15" d="m34.86,54.51c-1.97.41-2.78,2.21-1.73,3.95.47.78-.32.91-.59,1.29-.24.35-.47.62-1.04.18-1.39-1.07-3.49-.1-3.69,1.62-.79.18-1.37-.35-2.03-.61-.33-.65-1-.89-1.56-1.26-.81-.84-1.79-1.58-1.62-2.96.6-.32.91.2,1.28.47.9.66,1.85,1.15,3,1.11.56.14,1.1.2,1.52-.31,2.95-2.23,3.67-4.71,2.07-7.05-.62-.91-1.62-1.34-2.44-1.99-.75-.63-1.5-.53-2.24,0-1.1.35-1.94,1.26-3.15,1.36-.31-1.39.79-2.01,1.56-2.8.56-.45,1.35-.66,1.59-1.47.66-.24,1.25-.85,2.03-.31.36,1.51,2.12,2.49,3.49,1.76.94-.51,1.27.08,1.77.55.15.14.26.29.05.49-1.64,1.53.12,2.56.58,3.77.08.2.37.32.57.48,1.04.28,1.08.91.6,1.72Z"/>
  <path class="cls-31" d="m22.7,56.66c.07,1.23,1.26,1.89,1.52,3.03-.84-.03-1.69-.65-2.51.21-.4.42-.69-.19-.95-.43-.26-.25-.59-.42-.34-.99.88-1.94.04-3.55-1.95-3.93-.32-.59-.27-1.18-.04-1.78,1.99-.38,2.98-2.43,1.86-4.04-.44-.63.05-.81.32-1.05.32-.28.66-1.13,1.15-.5.78,1,1.59.43,2.42.35-.24,1.07-1.48,1.62-1.49,2.81.36.89-.41,1.46-.61,2.2-.32.71-.36,1.42.02,2.13.29.64.77,1.22.59,2Z"/>
  <path class="cls-32" d="m27.81,45.74c-.72-.21-1.27.74-2.03.31-.01-.29-.02-.59-.04-.88.7-.3,1.4-.3,2.1,0-.01.19-.03.38-.04.57Z"/>
  <path class="cls-32" d="m25.78,60.94c.85-.37,1.35.41,2.03.61.04.09.05.19.01.28-.68.28-1.37.29-2.05,0v-.89Z"/>
  <path class="cls-35" d="m34.86,54.51c0-.64.12-1.33-.6-1.72.29,0,.58-.01.86-.02.29.58.3,1.17,0,1.75l-.13.02-.13-.04Z"/>
  <path class="cls-45" d="m27.85,45.17c-.7,0-1.4,0-2.1,0,.7-.55,1.4-.55,2.1,0Z"/>
  <path class="cls-17" d="m18.43,52.76c.01.59.02,1.19.04,1.78-.62-.52-.3-1.19-.28-1.8,0-.02.08-.06.12-.06.05,0,.09.05.13.08Z"/>
  <path class="cls-5" d="m25.77,61.83c.68,0,1.37,0,2.05,0-.68.55-1.37.54-2.05,0Z"/>
  <path class="cls-12" d="m35.12,54.52c0-.58,0-1.17,0-1.75.52.59.52,1.17,0,1.75Z"/>
  <path class="cls-37" d="m50.12,30.33c.8,1.14,2.22,1.14,3.31,1.74.19.1.78-.24,1-.52.81-1.02,1.41-.59,2.07.15.37.41.82.74,1.18,1.06-.44.85-1.71,1.22-1.44,1.98.43,1.18.58,2.6,1.76,3.43.08.01.16.02.24.04.97-.04,1.6.2,1.59,1.39,0,1.06-.22,1.76-1.44,1.71-.15.05-.3.12-.43.22-1.57,1.11-2.02,3.29-.93,4.7.3.39.43.63.02,1-.45.4-.89.83-1.28,1.29-.42.48-.79.42-1.08-.06-.63-1.04-1.53-.84-2.32-.4-.67.37-1.6.29-2.03,1.1-.27.49,0,1.05-.2,1.55-1.14.37-2.03-.31-3-.68-.2-.14-.28-.35-.38-.56-.49-1.04-1.74-.88-2.47-1.54-4.54-4.25-4.7-11.66-.33-15.82.32-.58.9-.69,1.46-.89.58-.21,1.3-.32,1.34-1.17.1-.12.2-.23.3-.35.99-.5,1.89-1.33,3.14-.76,0,.47.1.95-.09,1.41Z"/>
  <path class="cls-48" d="m43.97,32.1c0,.86-.74,1.29-1.14,1.9-2.33,3.59-2.14,8.83.49,12.24.39.51.86,1,.98,1.67-.83-.22-1.63-.41-2.19.54-.29.49-.64.5-1.09.06-.64-.63-1.36-1.17-2.09-1.78,2.05-1.47,2.08-2.26.45-4.77-.08-.12-.18-.24-.27-.36-1.12-.37-2.05-.73-1.85-2.32.19-1.53,1.6-.71,2.15-1.41.14-.47.16-1.03.43-1.39,1.14-1.49.8-2.63-.76-3.53.28-.29.49-.5.69-.73.86-.98,1.68-1.94,2.95-.44.25.29.77.47,1.25.3Z"/>
  <path class="cls-47" d="m39.41,37.88c-.03.32-.14.61-.51.62-.75.01-1.36.05-1.33,1.1.03.86.12,1.46,1.18,1.43.27,0,.33.32.36.58-.1-.02-.19-.05-.28-.09-.51-.32-1.2.18-1.66-.37-.03-.95-.05-1.9.02-2.85.59-.51,1.36.02,1.97-.35.09-.02.17-.05.26-.07Z"/>
  <path class="cls-11" d="m37.33,38.26v2.98c.08.07.11.13.08.19-.03.06-.07.09-.1.09-.69-1.04-.16-2.18-.28-3.27.1-.14.2-.14.31,0Z"/>
  <path class="cls-36" d="m46.76,28.5c1.1-.59,2.22-.4,3.35-.09-.06.06-.11.13-.17.19-.91.26-1.82.4-2.76.17-.16-.07-.3-.16-.43-.27Z"/>
  <path class="cls-42" d="m50.15,51.01c-.99.63-2.07.19-3.1.26-.11-.16-.09-.29.07-.41.86-.42,1.74-.15,2.61-.06.16.03.3.1.43.21Z"/>
  <path class="cls-14" d="m59.82,38.14c.49,1.04.42,2.1.06,3.15-.06-.05-.12-.1-.18-.15-.08-.86.02-1.72-.05-2.59,0-.17.05-.31.17-.42Z"/>
  <path class="cls-46" d="m37.33,38.26c-.1,0-.2,0-.31,0,.63-.66,1.42-.21,2.13-.31-.53.55-1.23.13-1.83.31Z"/>
  <path class="cls-1" d="m57.97,41.53c.01-.08.02-.16.02-.24.57-.28,1.16-.22,1.75-.05,0,0,.14.05.14.05-.58.53-1.27.21-1.91.24Z"/>
  <path class="cls-46" d="m58.01,38.17c.6-.41,1.2-.35,1.82-.03,0,0-.03.15-.03.15-.6.16-1.2.12-1.81.01l.02-.12Z"/>
  <path class="cls-7" d="m50.03,50.69c.17-.5-.19-1.1.31-1.54-.03.62.24,1.28-.2,1.86,0,0-.15-.02-.15-.02-.08-.11-.08-.21.03-.31Z"/>
  <path class="cls-7" d="m50.12,30.33c-.03-.51-.06-1.02-.09-1.53-.08-.06-.1-.13-.07-.18.03-.06.06-.08.09-.08,0,0,.07-.12.07-.13.39.64.43,1.28,0,1.92Z"/>
  <path class="cls-2" d="m47.05,50.99c0,.09,0,.19,0,.28-.63-.52-.2-1.2-.28-1.81.1.11.21.22.31.32.29.41.29.81-.03,1.21Z"/>
  <path class="cls-27" d="m46.76,28.5c.1-.01.2-.01.3,0,.4.51.32,1.01-.07,1.49-.08.01-.15.03-.23.04,0-.51,0-1.02,0-1.53Z"/>
  <path class="cls-42" d="m37.31,41.52c0-.09,0-.19,0-.28.5.12,1.07-.16,1.51.28-.51,0-1.01,0-1.52,0Z"/>
  <path class="cls-3" d="m30.04,19.79c-.12.19-.24.37-.36.56-1.07,1.8-1.83,3.8-3.53,5.19-1.2.98-2.47,1.72-4.06,1.78-.73-.17-1.47-.18-2.2.03-3.2.21-7.41-3.99-7.2-7.2.21-.74.21-1.49,0-2.24.25-4.16,4.46-7.62,8.64-7.17,3.48.37,6.01,2.02,7.38,5.28.29.68.87,1.11,1.27,1.68.02.19.04.37.06.56.15.51.15,1.02,0,1.53Z"/>
  <path class="cls-49" d="m29.98,17.7c-1.07.12-1.28-.71-1.57-1.45-1.35-3.49-4.18-5.16-7.63-5.2-3.5-.04-7.3,2.28-7.78,6.91.15.71.15,1.42,0,2.13.08,3.29,3.66,6.87,6.95,6.95.71-.15,1.42-.15,2.14,0,3.05-.53,5.03-2.36,6.23-5.13.29-.67.63-1.28,1.36-1.56,1.1.44,1.04,1.13.65,2.12-1.45,3.69-4.24,5.74-7.96,6.72-.9.35-1.81.19-2.72.09-1.8-.65-3.64-1.17-5.17-2.46-2.75-2.32-4.19-6.02-3.57-9.31.91-4.82,3.92-7.58,8.73-8.42.91-.38,1.82-.38,2.74,0,1.36.42,2.71.8,3.96,1.55,2.06,1.24,3.25,3.12,4.13,5.25.27.66.36,1.4-.48,1.82Z"/>
  <path class="cls-26" d="m18.41,4.25c0-.61.02-1.21.02-1.82,1.51.17,3.07-.36,4.55.3-1.56.4-3.16.68-4.57,1.51Z"/>
  <path class="cls-44" d="m22.38,9.08c-.91,0-1.82,0-2.74,0,.91-.91,1.82-.91,2.74,0Z"/>
  <path class="cls-44" d="m37.85,21.59h-.13s-.13,0-.13,0c0-1.72,0-3.44,0-5.16.09,0,.17,0,.26,0,0,1.71,0,3.43,0,5.14Z"/>
  <path class="cls-40" d="m9.6,20.7c-.48-1.22-.48-2.44,0-3.66,0,1.22,0,2.44,0,3.66Z"/>
  <path class="cls-44" d="m19.65,29.27c.91-.03,1.81-.06,2.72-.09-.89.59-1.8.45-2.72.09Z"/>
  <path class="cls-21" d="m30.04,19.79c0-.51,0-1.02,0-1.53.38.51.38,1.02,0,1.53Z"/>
  <path class="cls-4" d="m6.55,21.6c-.8,0-1.59,0-2.39-.01,0-1.71,0-3.42,0-5.13.52.98.25,2.04.23,3.05-.03,1.23.14,2.06,1.65,1.83.15-.02.33.17.5.26Z"/>
  <path class="cls-49" d="m21.72,52.45c.33-.7.65-1.41.98-2.11.84-.85,1.89-1.32,3.03-1.61.81-.37,1.62-.37,2.43,0,1.35.68,2.55,1.46,3.13,2.99.75,1.98.12,4.45-1.6,5.72-.4.29-.82.55-1.23.82-.41.54-.95.45-1.51.3-1.85.31-3.02-.87-4.26-1.91-.29-.6-.59-1.2-.88-1.8-.34-.79-.2-1.6-.09-2.41Z"/>
  <path class="cls-35" d="m28.16,48.73h-2.43c.81-.86,1.62-.86,2.43,0Z"/>
  <path class="cls-35" d="m26.96,58.57c.5-.09,1.05.01,1.51-.3-.34.89-.92.63-1.51.3Z"/>
  <path class="cls-28" d="m21.72,52.45c.03.8.06,1.61.09,2.41-.57-.78-.45-1.59-.09-2.41Z"/>
  <path class="cls-49" d="m49.77,34.62c1.35-.94,2.3,0,3.11.82,1.9,1.92,2.45,4.96.85,7.66-1.26,2.14-4.37,3.55-6.57,2.96-2.88-.77-4.96-3.35-5-6.12-.04-2.33.9-4.11,2.87-5.35.78-.49,1.48-.61,2.05.28.43,1.26-.74,1.63-1.33,2.28-1.1,1.21-1.41,2.86-.73,4.35.63,1.38,1.96,2.17,3.56,2.1,1.57-.07,2.68-.84,3.28-2.28.64-1.54.24-3.08-.95-4.3-.64-.65-1.93-1.05-1.13-2.4Z"/>
  <path class="cls-3" d="m49.77,34.62c-.01.65,0,1.14.76,1.58,1.69.96,2.32,2.59,1.96,4.5-.29,1.5-1.15,2.57-2.66,3.1-2.56.89-5.33-.69-5.58-3.57-.15-1.79.59-3.02,1.9-3.97.54-.39.79-.8.92-1.38.84-.68,1.81.01,2.69-.26Z"/>
  <path class="cls-29" d="m47,29.99c.02-.5.04-.99.07-1.49.99.01,1.99.02,2.98.03.02.09.02.18-.02.27-1.01.4-2.02.79-3.03,1.19Z"/>
  <path class="cls-29" d="m47.05,50.99c0-.4.02-.8.03-1.21.99.3,1.97.6,2.96.9-.01.1-.02.2-.03.31-.98,0-1.97,0-2.95,0Z"/>
  <path class="cls-34" d="m57.98,38.29c.6,0,1.21,0,1.81-.01-.02.99-.04,1.97-.05,2.96-.58.02-1.16.03-1.75.05.3-.64,1.4.05,1.55-1.07.18-1.35-.5-1.73-1.56-1.93Z"/>
  <path class="cls-49" d="m26.28,17.1c-.32.41-.42.58-.56.71-1.66,1.52-3.07,3.31-4.9,4.66-.66.48-1.02.41-1.52-.11-.76-.81-1.55-1.59-2.35-2.36-.53-.51-.44-.92.06-1.39.45-.43.85-.49,1.28-.01.1.11.21.21.32.32q1.65,1.59,3.35-.07c.72-.71,1.45-1.41,2.15-2.13.39-.4.83-.32,1.25-.16.32.12.6.36.93.56Z"/>
  <path class="cls-6" d="m13,20.09v-2.13c.39.71.39,1.42,0,2.13Z"/>
  <path class="cls-50" d="m22.08,27.04h-2.14c.71-.38,1.42-.39,2.14,0Z"/>
  <path class="cls-3" d="m26.59,50.61c1.81-.03,3.08,1.21,3.09,3.02.01,1.48-1.57,3.07-3.04,3.06-1.21,0-2.95-1.71-3.03-2.97-.09-1.43,1.5-3.09,2.98-3.12Z"/>
</svg>