<?xml version="1.0" encoding="UTF-8"?>
<svg xmlns="http://www.w3.org/2000/svg" xmlns:xlink="http://www.w3.org/1999/xlink" width="150px" height="150px" viewBox="0 0 140 140" version="1.1">
<g id="surface1">
<path style=" stroke:none;fill-rule:nonzero;fill:rgb(0%,0%,0%);fill-opacity:1;" d="M 59.074219 122.5 C 56.726562 122.574219 54.476562 121.675781 52.800781 120.023438 C 51.125 118.375 50.25 116.101562 50.324219 113.75 C 50.324219 113.101562 50.601562 112.476562 51.101562 112.074219 C 51.648438 111.601562 64.976562 100.625 76.574219 100.625 C 88.074219 100.625 103.449219 111.5 104.101562 111.976562 L 101.550781 115.523438 C 101.398438 115.425781 86.675781 105 76.574219 105 C 68.125 105 57.851562 112.375 54.800781 114.726562 C 54.925781 115.726562 55.449219 116.648438 56.25 117.273438 C 57.050781 117.898438 58.050781 118.199219 59.074219 118.125 C 63.324219 117.800781 67.398438 116.425781 70.976562 114.125 L 73.398438 117.773438 C 69.101562 120.550781 64.175781 122.175781 59.074219 122.5 Z M 59.074219 122.5 "/>
<path style=" stroke:none;fill-rule:nonzero;fill:rgb(0%,0%,0%);fill-opacity:1;" d="M 48.398438 137.800781 C 47.949219 137.800781 47.523438 137.675781 47.148438 137.398438 L 18.875 117.726562 C 18.476562 117.449219 18.199219 117.074219 18.050781 116.625 C 17.101562 114.449219 17.300781 111.925781 18.601562 109.925781 C 20.050781 108.175781 22.226562 107.175781 24.476562 107.175781 C 24.875 107.175781 25.273438 107.273438 25.601562 107.5 L 46.300781 120 L 53.925781 116.175781 L 55.898438 120.074219 L 47.199219 124.449219 C 46.523438 124.773438 45.726562 124.75 45.101562 124.375 L 23.976562 111.625 C 23.273438 111.699219 22.625 112 22.148438 112.5 C 21.851562 113.148438 21.800781 113.898438 22.023438 114.601562 L 48.949219 133.351562 C 54.226562 132.648438 81.449219 129.074219 87.523438 129.074219 C 87.75 129.074219 88 129.125 88.226562 129.199219 L 94.75 131.398438 L 93.351562 135.550781 L 87.175781 133.476562 C 80.125 133.625 49 137.773438 48.675781 137.824219 C 48.601562 137.800781 48.5 137.800781 48.398438 137.800781 Z M 48.398438 137.800781 "/>
<path style=" stroke:none;fill-rule:nonzero;fill:rgb(0%,0%,0%);fill-opacity:1;" d="M 120.324219 140 L 91.875 140 C 91.148438 140 90.449219 139.625 90.050781 139.023438 C 89.648438 138.398438 89.574219 137.625 89.875 136.949219 L 103 106.324219 C 103.351562 105.523438 104.125 105 105 105 L 120.300781 105 C 120.875 105 121.425781 105.226562 121.851562 105.648438 C 122.273438 106.074219 122.5 106.625 122.5 107.199219 L 122.5 137.824219 C 122.5 138.398438 122.273438 138.949219 121.851562 139.375 C 121.425781 139.800781 120.898438 140 120.324219 140 Z M 95.199219 135.625 L 118.125 135.625 L 118.125 109.375 L 106.449219 109.375 Z M 95.199219 135.625 "/>
<path style=" stroke:none;fill-rule:nonzero;fill:rgb(0%,0%,0%);fill-opacity:1;" d="M 109.375 137.800781 L 105 137.800781 C 105.425781 127.300781 106.898438 116.851562 109.449219 106.648438 L 113.699219 107.726562 C 113.648438 107.898438 109.375 125.125 109.375 137.800781 Z M 109.375 137.800781 "/>
<path style=" stroke:none;fill-rule:nonzero;fill:rgb(0%,0%,0%);fill-opacity:1;" d="M 30.625 87.5 L 26.25 87.5 L 26.25 61.25 C 26.199219 59.5 26.875 57.800781 28.125 56.550781 C 29.375 55.300781 31.074219 54.625 32.824219 54.675781 C 34.574219 54.625 36.273438 55.300781 37.523438 56.550781 C 38.773438 57.800781 39.449219 59.5 39.398438 61.25 L 35 61.25 C 35.050781 60.648438 34.851562 60.050781 34.425781 59.648438 C 34 59.226562 33.398438 59.023438 32.824219 59.074219 C 32.226562 59.023438 31.625 59.226562 31.199219 59.675781 C 30.773438 60.101562 30.574219 60.699219 30.625 61.300781 Z M 30.625 87.5 "/>
<path style=" stroke:none;fill-rule:nonzero;fill:rgb(0%,0%,0%);fill-opacity:1;" d="M 19.699219 67.800781 L 37.199219 67.800781 L 37.199219 72.175781 L 19.699219 72.175781 Z M 19.699219 67.800781 "/>
<path style=" stroke:none;fill-rule:nonzero;fill:rgb(0%,0%,0%);fill-opacity:1;" d="M 35 109.375 C 34.425781 109.375 33.875 109.148438 33.449219 108.726562 L 25.351562 100.625 L 6.550781 100.625 C 4.800781 100.625 3.148438 99.925781 1.898438 98.699219 C 0.648438 97.476562 0 95.800781 0 94.050781 L 0 50.300781 C 0 48.550781 0.699219 46.898438 1.925781 45.648438 C 3.148438 44.398438 4.824219 43.726562 6.574219 43.726562 L 50.324219 43.726562 C 52.074219 43.726562 53.726562 44.425781 54.976562 45.648438 C 56.226562 46.875 56.898438 48.550781 56.898438 50.300781 L 56.898438 94.050781 C 56.898438 95.800781 56.199219 97.449219 54.976562 98.699219 C 53.75 99.949219 52.074219 100.625 50.324219 100.625 L 37.199219 100.625 L 37.199219 107.175781 C 37.199219 107.75 36.976562 108.300781 36.550781 108.726562 C 36.125 109.148438 35.574219 109.375 35 109.375 Z M 6.574219 48.125 C 5.375 48.125 4.375 49.101562 4.375 50.324219 L 4.375 94.074219 C 4.375 94.648438 4.601562 95.199219 5.023438 95.625 C 5.449219 96.050781 6 96.273438 6.574219 96.273438 L 26.25 96.273438 C 26.824219 96.273438 27.375 96.5 27.800781 96.925781 L 32.824219 101.949219 L 32.824219 98.476562 C 32.824219 97.273438 33.800781 96.273438 35.023438 96.273438 L 50.351562 96.273438 C 50.925781 96.273438 51.476562 96.050781 51.898438 95.625 C 52.324219 95.199219 52.550781 94.648438 52.550781 94.074219 L 52.550781 50.324219 C 52.550781 49.75 52.324219 49.199219 51.898438 48.773438 C 51.476562 48.351562 50.925781 48.125 50.351562 48.125 Z M 6.574219 48.125 "/>
<path style=" stroke:none;fill-rule:nonzero;fill:rgb(0%,0%,0%);fill-opacity:1;" d="M 111.574219 100.625 C 110.375 100.625 109.375 99.648438 109.375 98.425781 L 109.375 91.875 L 89.675781 91.875 C 87.925781 91.875 86.273438 91.175781 85.023438 89.949219 C 83.773438 88.726562 83.101562 87.050781 83.101562 85.300781 L 83.101562 54.699219 L 87.5 54.699219 L 87.5 85.324219 C 87.5 85.898438 87.726562 86.449219 88.148438 86.875 C 88.574219 87.300781 89.125 87.523438 89.699219 87.523438 L 111.574219 87.523438 C 112.148438 87.523438 112.699219 87.75 113.125 88.175781 C 113.550781 88.601562 113.773438 89.148438 113.773438 89.726562 L 113.773438 93.199219 L 118.800781 88.175781 C 119.199219 87.773438 119.773438 87.523438 120.351562 87.523438 L 133.476562 87.523438 C 134.050781 87.523438 134.601562 87.300781 135.023438 86.875 C 135.449219 86.449219 135.675781 85.898438 135.675781 85.324219 L 135.675781 41.574219 C 135.675781 41 135.449219 40.449219 135.023438 40.023438 C 134.601562 39.601562 134.050781 39.375 133.476562 39.375 L 94.074219 39.375 L 94.074219 35 L 133.449219 35 C 135.199219 35 136.851562 35.699219 138.101562 36.925781 C 139.351562 38.148438 140.023438 39.824219 140.023438 41.574219 L 140.023438 85.324219 C 140.023438 87.074219 139.324219 88.726562 138.101562 89.976562 C 136.875 91.226562 135.199219 91.898438 133.449219 91.898438 L 121.226562 91.898438 L 113.125 100 C 112.699219 100.398438 112.148438 100.625 111.574219 100.625 Z M 111.574219 100.625 "/>
<path style=" stroke:none;fill-rule:nonzero;fill:rgb(0%,0%,0%);fill-opacity:1;" d="M 124.699219 83.125 L 98.449219 83.125 C 96.699219 83.125 95.050781 82.425781 93.800781 81.199219 C 92.550781 79.976562 91.875 78.300781 91.875 76.550781 L 91.875 59.050781 L 96.25 59.050781 L 96.25 76.550781 C 96.25 77.125 96.476562 77.675781 96.898438 78.101562 C 97.324219 78.523438 97.875 78.75 98.449219 78.75 L 124.699219 78.75 C 125.273438 78.75 125.824219 78.523438 126.25 78.101562 C 126.675781 77.675781 126.898438 77.125 126.898438 76.550781 L 126.898438 50.300781 C 126.898438 49.726562 126.675781 49.175781 126.25 48.75 C 125.824219 48.324219 125.273438 48.101562 124.699219 48.101562 L 98.449219 48.101562 L 98.449219 43.75 L 124.699219 43.75 C 126.449219 43.75 128.101562 44.449219 129.351562 45.675781 C 130.601562 46.898438 131.273438 48.574219 131.273438 50.324219 L 131.273438 76.574219 C 131.273438 78.324219 130.574219 79.976562 129.351562 81.226562 C 128.125 82.476562 126.425781 83.125 124.699219 83.125 Z M 124.699219 83.125 "/>
<path style=" stroke:none;fill-rule:nonzero;fill:rgb(0%,0%,0%);fill-opacity:1;" d="M 111.574219 72.175781 C 109.25 72.175781 107.023438 71.25 105.375 69.625 C 103.726562 67.976562 102.824219 65.75 102.824219 63.425781 C 102.824219 61.101562 103.75 58.875 105.375 57.226562 C 107.023438 55.574219 109.25 54.675781 111.574219 54.675781 C 113.898438 54.675781 116.125 55.601562 117.773438 57.226562 C 119.425781 58.875 120.324219 61.101562 120.324219 63.425781 C 120.324219 65.75 119.398438 67.976562 117.773438 69.625 C 116.101562 71.273438 113.875 72.175781 111.574219 72.175781 Z M 111.574219 59.050781 C 110.425781 59.050781 109.300781 59.5 108.476562 60.324219 C 107.648438 61.148438 107.199219 62.25 107.199219 63.425781 C 107.199219 64.574219 107.648438 65.699219 108.476562 66.523438 C 109.300781 67.351562 110.398438 67.800781 111.574219 67.800781 C 112.726562 67.800781 113.851562 67.351562 114.675781 66.523438 C 115.5 65.699219 115.949219 64.601562 115.949219 63.425781 C 115.949219 62.273438 115.5 61.148438 114.675781 60.324219 C 113.851562 59.5 112.726562 59.050781 111.574219 59.050781 Z M 111.574219 59.050781 "/>
<path style=" stroke:none;fill-rule:nonzero;fill:rgb(0%,0%,0%);fill-opacity:1;" d="M 120.324219 50.300781 L 124.699219 50.300781 L 124.699219 54.675781 L 120.324219 54.675781 Z M 120.324219 50.300781 "/>
<path style=" stroke:none;fill-rule:nonzero;fill:rgb(0%,0%,0%);fill-opacity:1;" d="M 63.449219 35 L 50.324219 35 C 49.125 35 48.125 34.023438 48.125 32.800781 L 48.125 19.675781 C 48.125 18.476562 49.101562 17.476562 50.324219 17.476562 L 63.449219 17.476562 C 64.023438 17.476562 64.574219 17.699219 65 18.125 C 65.425781 18.550781 65.648438 19.101562 65.648438 19.675781 L 65.648438 32.800781 C 65.648438 33.375 65.425781 33.925781 65 34.351562 C 64.574219 34.773438 64.023438 35 63.449219 35 Z M 52.5 30.625 L 61.25 30.625 L 61.25 21.875 L 52.5 21.875 Z M 52.5 30.625 "/>
<path style=" stroke:none;fill-rule:nonzero;fill:rgb(0%,0%,0%);fill-opacity:1;" d="M 78.75 41.550781 C 78.449219 41.550781 78.148438 41.5 77.898438 41.375 L 62.601562 34.824219 C 61.800781 34.476562 61.273438 33.699219 61.273438 32.824219 L 61.273438 19.675781 C 61.273438 18.800781 61.800781 18 62.601562 17.675781 L 77.898438 11.125 C 78.574219 10.824219 79.351562 10.898438 79.976562 11.300781 C 80.601562 11.699219 80.949219 12.398438 80.949219 13.125 L 80.949219 39.375 C 80.949219 39.949219 80.726562 40.5 80.300781 40.925781 C 79.875 41.351562 79.324219 41.550781 78.75 41.550781 Z M 65.625 31.375 L 76.574219 36.050781 L 76.574219 16.449219 L 65.625 21.125 Z M 65.625 31.375 "/>
<path style=" stroke:none;fill-rule:nonzero;fill:rgb(0%,0%,0%);fill-opacity:1;" d="M 85.324219 41.550781 L 78.75 41.550781 L 78.75 37.175781 L 83.125 37.175781 L 83.125 15.300781 L 78.75 15.300781 L 78.75 10.925781 L 85.300781 10.925781 C 85.875 10.925781 86.425781 11.148438 86.851562 11.574219 C 87.25 11.976562 87.5 12.550781 87.5 13.125 L 87.5 39.375 C 87.5 39.949219 87.273438 40.5 86.851562 40.925781 C 86.425781 41.351562 85.898438 41.550781 85.324219 41.550781 Z M 85.324219 41.550781 "/>
<path style=" stroke:none;fill-rule:nonzero;fill:rgb(0%,0%,0%);fill-opacity:1;" d="M 55.773438 41.550781 C 54.324219 41.550781 52.925781 40.976562 51.898438 39.949219 C 50.875 38.925781 50.300781 37.523438 50.300781 36.074219 L 50.300781 32.800781 L 54.675781 32.800781 L 54.675781 36.074219 C 54.675781 36.675781 55.175781 37.175781 55.773438 37.175781 C 56.375 37.175781 56.875 36.675781 56.875 36.074219 L 56.875 32.800781 L 61.25 32.800781 L 61.25 36.074219 C 61.25 37.523438 60.675781 38.925781 59.648438 39.949219 C 58.625 40.976562 57.226562 41.550781 55.773438 41.550781 Z M 55.773438 41.550781 "/>
<path style=" stroke:none;fill-rule:nonzero;fill:rgb(0%,0%,0%);fill-opacity:1;" d="M 67.824219 63.425781 C 67.25 63.425781 66.699219 63.199219 66.273438 62.773438 L 60.351562 56.851562 L 54.699219 56.851562 L 54.699219 52.5 L 61.25 52.5 C 61.824219 52.5 62.375 52.726562 62.800781 53.148438 L 67.824219 58.175781 L 72.851562 53.148438 C 73.25 52.75 73.824219 52.5 74.398438 52.5 L 89.699219 52.5 C 90.273438 52.5 90.824219 52.273438 91.25 51.851562 C 91.675781 51.425781 91.898438 50.875 91.898438 50.300781 L 91.898438 6.550781 C 91.898438 5.976562 91.675781 5.425781 91.25 5 C 90.824219 4.574219 90.273438 4.351562 89.699219 4.351562 L 45.949219 4.351562 C 44.75 4.351562 43.75 5.324219 43.75 6.550781 L 43.75 45.925781 L 39.375 45.925781 L 39.375 6.550781 C 39.375 4.800781 40.074219 3.148438 41.300781 1.898438 C 42.523438 0.648438 44.199219 0 45.925781 0 L 89.675781 0 C 91.425781 0 93.074219 0.699219 94.324219 1.925781 C 95.574219 3.148438 96.25 4.824219 96.25 6.574219 L 96.25 50.324219 C 96.25 52.074219 95.550781 53.726562 94.324219 54.976562 C 93.101562 56.226562 91.425781 56.898438 89.675781 56.898438 L 75.273438 56.898438 L 69.351562 62.824219 C 68.949219 63.199219 68.398438 63.425781 67.824219 63.425781 Z M 67.824219 63.425781 "/>
</g>
</svg>
