<?xml version="1.0" encoding="UTF-8"?>
<svg id="Layer_1" data-name="Layer 1" xmlns="http://www.w3.org/2000/svg" viewBox="0 0 64 64">
  <defs>
    <style>
      .cls-1 {
        fill: #010101;
        stroke-width: 0px;
      }
    </style>
  </defs>
  <path class="cls-1" d="m50.33,18.85c-.88-1.25-2.1-2.18-3.53-2.7-.92-.34-1.89-.51-2.87-.5-1.71.01-3.52.55-5.24,1.55l-15.27,8.94c-2.38,1.39-4.14,1.2-5.21.8-.78-.28-1.45-.79-1.93-1.47-.48-.68-.74-1.48-.74-2.31,0-.83.24-1.63.72-2.32.47-.68,1.14-1.2,1.92-1.49,1.06-.41,2.82-.62,5.21.74l1.72.98c-.1.35-.17.7-.22,1.06l-.09.67,13.02-7.52.03-.02c.35-.25.59-.61.68-1.03.09-.42.02-.85-.2-1.22-.22-.37-.56-.64-.97-.77-.41-.13-.85-.09-1.23.09h-.01s-4.22,2.45-4.22,2.45l-4.29-2.46h-.02c-.39-.19-.83-.22-1.24-.09-.41.13-.75.41-.96.78-.21.37-.27.81-.17,1.23.1.42.35.78.71,1.02l2.62,1.48-.36.21h0c-.51.33-.98.71-1.39,1.15l-1.72-.99c-2.77-1.58-5.66-1.92-8.13-.95-1.03.4-1.98,1.03-2.74,1.83-.76.8-1.35,1.77-1.7,2.82-.59,1.84-.45,3.81.4,5.55.85,1.74,2.31,3.06,4.13,3.73.92.34,1.89.51,2.87.5,1.71-.01,3.52-.55,5.24-1.55l.03-.02,15.23-8.92c2.37-1.39,4.14-1.2,5.21-.8.78.28,1.45.78,1.93,1.46.48.68.74,1.48.74,2.31,0,.44-.07.87-.2,1.29-.19.57-.52,1.1-.93,1.54-.42.43-.94.78-1.5.99-1.06.41-2.82.62-5.22-.74l-1.72-.98c.11-.38.19-.76.23-1.15l.08-.67-10.15,5.94v3.93l6.76-3.95h.01c.51-.33.97-.72,1.39-1.16l1.72.99c2.78,1.57,5.67,1.91,8.13.95,1.43-.54,2.64-1.49,3.5-2.74.86-1.26,1.31-2.73,1.3-4.25h0c0-1.52-.47-2.99-1.35-4.24h0Z"/>
  <path class="cls-1" d="m0,48.9l3.13-1.8c.61,1.23,1.66,1.85,3.13,1.85,1.38,0,2.23-.61,2.23-1.52s-1.18-1.18-3.22-1.61c-2.79-.62-4.59-1.75-4.59-4.12,0-2.56,2.61-4.31,5.49-4.31,2.46,0,4.17.66,5.68,2.56l-2.98,1.71c-.57-.99-1.42-1.47-2.65-1.47s-1.99.57-1.99,1.33c0,.95,1.42,1.14,3.32,1.61,2.61.66,4.6,1.56,4.6,4.17s-2.65,4.55-5.97,4.55c-2.75,0-4.83-.76-6.16-2.94Zm14.02,2.56v-12.02l3.51-2.05v14.07h-3.51Zm5.97,0v-7.39c0-3.79,2.79-6.68,6.68-6.68s6.68,3.08,6.68,6.68v7.39h-3.55v-7.15c0-2.18-1.33-3.46-3.13-3.46-1.94,0-3.13,1.38-3.13,3.46v7.15h-3.56Zm15.25-6.87c0-4.22,3.03-7.2,7.29-7.2,2.65,0,5.02,1.38,6.16,3.51l-3.03,1.8c-.3-.58-.75-1.07-1.31-1.4-.56-.34-1.21-.51-1.86-.49-2.09,0-3.65,1.56-3.65,3.79s1.47,3.84,3.65,3.84c1.42,0,2.65-.71,3.22-1.9l3.03,1.75c-.62,1.09-1.53,1.99-2.62,2.62-1.09.62-2.33.94-3.59.93-4.21,0-7.29-3.03-7.29-7.24Zm15.4,6.87v-17.91l3.51-2.04v6.92c.96-.66,2.1-1.02,3.27-1.04,3.89,0,6.58,2.65,6.58,6.58v7.49h-3.55v-7.16c0-2.18-1.33-3.46-3.13-3.46-1.94,0-3.13,1.38-3.13,3.46v7.15h-3.56Z"/>
</svg>