<?xml version="1.0" encoding="UTF-8"?><svg id="Layer_1" xmlns="http://www.w3.org/2000/svg" viewBox="0 0 64 64"><defs><style>.cls-1{fill:#fff;}.cls-2{fill:#39a4dd;}</style></defs><path class="cls-2" d="M32,2.12C15.43,2.12,2,15.55,2,32.12s13.43,30,30,30,30-13.43,30-30S48.57,2.12,32,2.12Z"/><path class="cls-2" d="M46.25,29.12c-9.53,0-17.25,7.72-17.25,17.25s7.72,17.25,17.25,17.25,17.25-7.72,17.25-17.25-7.72-17.25-17.25-17.25ZM17.75,.62C8.22,.62,.5,8.34,.5,17.87s7.72,17.25,17.25,17.25,17.25-7.72,17.25-17.25S27.28,.62,17.75,.62Z"/><path class="cls-1" d="M32.9,50.12c-9.9,0-14.4-4.95-14.4-8.7,0-1.95,1.35-3.3,3.3-3.3,4.2,0,3.15,6.15,11.1,6.15,4.05,0,6.3-2.25,6.3-4.5,0-1.35-.6-2.85-3.3-3.6l-8.85-2.25c-7.05-1.8-8.4-5.7-8.4-9.45,0-7.65,7.05-10.35,13.65-10.35,6.15,0,13.2,3.3,13.2,7.8,0,1.95-1.5,3.15-3.45,3.15-3.6,0-3-5.1-10.2-5.1-3.6,0-5.7,1.65-5.7,4.05s2.85,3.15,5.4,3.75l6.6,1.5c7.2,1.65,8.85,5.85,8.85,9.9-.15,6.3-4.65,10.95-14.1,10.95Z"/></svg>