<?xml version="1.0" encoding="UTF-8"?><svg id="Layer_1" xmlns="http://www.w3.org/2000/svg" viewBox="0 0 64 64"><defs><style>.cls-1{fill:#57bc72;}.cls-2{fill:#fdc113;}.cls-3{fill:#56c0ee;}.cls-4{fill:#e82264;}</style></defs><path class="cls-1" d="M47.29,7.17c0-3.56-2.88-6.44-6.44-6.44s-6.44,2.88-6.44,6.44V24.88c0,3.56,2.88,6.44,6.44,6.44s6.44-2.88,6.44-6.44V7.17Z"/><path class="cls-1" d="M63.39,24.88c0,3.56-2.88,6.44-6.44,6.44h-6.44v-6.44c0-3.56,2.88-6.44,6.44-6.44s6.44,2.88,6.44,6.44Z"/><path class="cls-3" d="M7.05,16.83c-3.56,0-6.44,2.88-6.44,6.44s2.88,6.44,6.44,6.44H24.76c3.56,0,6.44-2.88,6.44-6.44s-2.88-6.44-6.44-6.44H7.05Z"/><path class="cls-3" d="M24.76,.73c3.56,0,6.44,2.88,6.44,6.44v6.44h-6.44c-3.56,0-6.44-2.88-6.44-6.44S21.2,.73,24.76,.73Z"/><path class="cls-4" d="M16.71,57.08c0,3.55,2.88,6.43,6.44,6.43s6.44-2.88,6.44-6.43v-17.68c0-3.55-2.88-6.43-6.44-6.43s-6.44,2.88-6.44,6.43v17.68Z"/><path class="cls-4" d="M.61,39.4c0-3.55,2.88-6.43,6.44-6.43h6.44v6.43c0,3.55-2.88,6.43-6.44,6.43s-6.44-2.88-6.44-6.43Z"/><path class="cls-2" d="M56.95,47.41c3.56,0,6.44-2.88,6.44-6.44s-2.88-6.44-6.44-6.44h-17.71c-3.56,0-6.44,2.88-6.44,6.44s2.88,6.44,6.44,6.44h17.71Z"/><path class="cls-2" d="M39.24,63.51c-3.56,0-6.44-2.88-6.44-6.44v-6.44h6.44c3.56,0,6.44,2.88,6.44,6.44s-2.88,6.44-6.44,6.44Z"/></svg>