<?xml version="1.0" encoding="UTF-8"?><svg id="Layer_1" xmlns="http://www.w3.org/2000/svg" viewBox="0 0 64 64"><defs><style>.cls-1{fill:#fff;}</style></defs><path d="M42.8,35.57c0,.55,0,1.02,0,1.49,0,6.51,0,13.02,0,19.52,0,3.01-1.87,5.45-4.72,6.15-.47,.12-.97,.17-1.46,.17-8.04,.01-16.08,.01-24.11,0-3.27,0-5.97-2.53-6.13-5.8-.08-1.62-.03-3.25-.03-4.88,0-13.31,0-26.61,0-39.92,0-2.34,.93-4.19,2.9-5.48,.97-.64,2.06-.93,3.22-.94,3.04,0,6.08,0,9.12,0,.08,0,.17,.01,.29,.02-.05,.1-.08,.17-.13,.24-1.44,2.1-2.5,4.38-3.22,6.82-.08,.27-.2,.36-.49,.35-2.12-.01-4.24,0-6.36,0-.13,0-.25,0-.4,0V50.49h26.6c0-.11,.01-.23,.01-.34,0-4.02,0-8.05,0-12.07,0-.27,.07-.36,.36-.42,.55-.12,1.1-.29,1.6-.54,.87-.42,1.7-.91,2.55-1.37,.11-.06,.23-.1,.41-.17Zm-14.56,21.81c.04-1.68-1.3-3.11-2.95-3.15-1.71-.04-3.13,1.3-3.17,2.99-.04,1.75,1.28,3.15,3,3.2,1.69,.05,3.08-1.31,3.12-3.04Z"/><path d="M57.66,15.45c-.07,3.79-1.57,6.94-4.28,9.54-2.68,2.57-5.92,4.03-9.55,4.65-.59,.1-1.19,.17-1.78,.21-.39,.02-.71,.19-1.04,.37-3.65,2.01-7.42,3.71-11.42,4.89-.86,.25-1.76,.36-2.64,.52-.19,.03-.41,0-.6-.03-.43-.09-.59-.36-.39-.75,.17-.32,.38-.62,.63-.88,.53-.55,1.09-1.06,1.63-1.59,.93-.92,1.79-1.91,2.35-3.11,.19-.41,.3-.87,.44-1.3,.1-.29,0-.45-.27-.61-2.57-1.51-4.68-3.49-5.99-6.19-2.41-4.97-1.77-9.65,1.63-13.93,2.38-2.99,5.57-4.78,9.24-5.68,4.67-1.15,9.21-.73,13.53,1.39,3.42,1.68,6.03,4.18,7.54,7.74,.65,1.53,.96,3.12,.96,4.79Zm-21.21-6v11.38c.35,0,.68,0,1.01,0q.42,0,.42-.42c0-2.44,0-4.88,0-7.32,0-.12,.02-.25,.03-.37,.03,0,.06,0,.09,0,.03,.1,.06,.2,.08,.3,.5,2.33,1,4.67,1.5,7,.17,.82,.17,.81,.99,.82,.27,0,.37-.08,.42-.34,.52-2.49,1.06-4.98,1.59-7.47,.02-.11,.08-.21,.11-.32,.03,0,.07,.02,.1,.02,0,.11,0,.23,0,.34,0,1.83,0,3.66,0,5.49,0,.66,0,1.33,0,1.99,0,.21,.07,.28,.28,.27,.29-.01,.58-.02,.87,0,.24,.01,.31-.06,.31-.3,0-3.6,0-7.19,0-10.79,0-.25-.09-.31-.32-.3-.53,.01-1.07,.02-1.6,0-.25,0-.35,.07-.4,.32-.48,2.3-.97,4.6-1.46,6.9-.02,.1-.07,.2-.1,.3-.03,0-.06,0-.09,0-.03-.09-.06-.17-.08-.26-.21-.98-.42-1.97-.63-2.95-.28-1.33-.56-2.66-.85-3.99-.03-.11-.13-.3-.2-.3-.69-.02-1.38-.01-2.09-.01Zm-1.94,3.11c.1-1.13-.74-2.53-1.8-2.94-1.13-.43-2.29-.45-3.4,.06-1.11,.51-1.81,1.35-1.86,2.63-.05,1.22,.65,1.97,1.64,2.5,.51,.27,1.06,.45,1.58,.7,.63,.31,1.27,.61,1.85,1,.6,.4,.84,1.01,.66,1.74-.19,.72-.63,1.22-1.38,1.36-.36,.07-.75,.1-1.11,.07-1.13-.1-1.83-.88-1.87-2.02,0-.13-.02-.27-.02-.39h-1.62c-.21,1.39,.53,2.78,1.82,3.31,1.38,.57,2.78,.55,4.15-.05,1.92-.85,2.51-3.67,.58-5.03-.63-.44-1.35-.78-2.04-1.12-.6-.3-1.25-.51-1.84-.83-.59-.31-.8-.87-.72-1.52,.08-.67,.47-1.1,1.11-1.27,.34-.09,.72-.11,1.08-.08,.83,.08,1.44,.68,1.57,1.5,.02,.12,.02,.25,.04,.39h1.6Zm11.24,4.71c-.25,1.34,.49,2.78,1.79,3.32,1.4,.58,2.82,.56,4.21-.07,1.87-.86,2.46-3.64,.54-5-.62-.44-1.33-.77-2.01-1.11-.65-.33-1.35-.55-1.97-.92-.81-.5-.88-1.76-.16-2.37,.66-.56,1.44-.6,2.21-.31,.71,.26,1.04,.85,1.09,1.6,0,.05,.02,.1,.03,.16h1.64c-.1-1.21-.51-2.27-1.61-2.8-1.41-.69-2.86-.62-4.21,.26-1.53,.99-1.98,3.52,.2,4.7,.56,.3,1.16,.55,1.75,.79,.74,.3,1.47,.6,2.04,1.18,.82,.82,.63,2.23-.42,2.75-.85,.43-1.74,.42-2.58-.07-.5-.29-.8-.74-.88-1.31-.03-.25-.04-.51-.06-.78h-1.6Z"/><path class="cls-1" d="M28.24,57.39c-.04,1.72-1.44,3.08-3.12,3.04-1.72-.05-3.04-1.45-3-3.2,.04-1.69,1.46-3.03,3.17-2.99,1.64,.04,2.98,1.47,2.95,3.15Z"/><path class="cls-1" d="M36.46,9.44c.7,0,1.39,0,2.09,.01,.07,0,.17,.19,.2,.3,.29,1.33,.57,2.66,.85,3.99,.21,.98,.42,1.97,.63,2.95,.02,.09,.05,.17,.08,.26,.03,0,.06,0,.09,0,.03-.1,.08-.2,.1-.3,.49-2.3,.98-4.6,1.46-6.9,.05-.25,.15-.33,.4-.32,.53,.02,1.07,.01,1.6,0,.23,0,.32,.05,.32,.3,0,3.6,0,7.19,0,10.79,0,.24-.08,.32-.31,.3-.29-.02-.58-.01-.87,0-.21,.01-.28-.06-.28-.27,0-.66,0-1.33,0-1.99,0-1.83,0-3.66,0-5.49,0-.11,0-.23,0-.34-.03,0-.07-.02-.1-.02-.04,.1-.09,.21-.11,.32-.54,2.49-1.07,4.98-1.59,7.47-.06,.26-.15,.34-.42,.34-.82-.02-.82,0-.99-.82-.5-2.33-1-4.67-1.5-7-.02-.1-.06-.2-.08-.3-.03,0-.06,0-.09,0-.01,.12-.03,.25-.03,.37,0,2.44,0,4.88,0,7.32q0,.42-.42,.42c-.33,0-.66,0-1.01,0V9.44Z"/><path class="cls-1" d="M34.52,12.55h-1.6c-.01-.14-.02-.26-.04-.39-.13-.82-.73-1.42-1.57-1.5-.35-.03-.73,0-1.08,.08-.64,.16-1.03,.6-1.11,1.27-.08,.66,.13,1.21,.72,1.52,.59,.32,1.24,.53,1.84,.83,.7,.35,1.41,.68,2.04,1.12,1.94,1.36,1.34,4.19-.58,5.03-1.37,.6-2.77,.63-4.15,.05-1.29-.54-2.03-1.93-1.82-3.31h1.62c0,.12,.02,.26,.02,.39,.03,1.14,.73,1.92,1.87,2.02,.37,.03,.75,0,1.11-.07,.74-.15,1.19-.64,1.38-1.36,.19-.73-.06-1.34-.66-1.74-.58-.39-1.22-.69-1.85-1-.52-.26-1.07-.43-1.58-.7-.99-.53-1.7-1.28-1.64-2.5,.05-1.27,.75-2.12,1.86-2.63,1.11-.51,2.27-.49,3.4-.06,1.06,.41,1.9,1.81,1.8,2.94Z"/><path class="cls-1" d="M45.76,17.26h1.6c.02,.27,.02,.52,.06,.78,.08,.58,.37,1.03,.88,1.31,.85,.48,1.73,.5,2.58,.07,1.04-.52,1.24-1.93,.42-2.75-.57-.57-1.31-.87-2.04-1.18-.59-.24-1.19-.49-1.75-.79-2.17-1.18-1.72-3.7-.2-4.7,1.35-.88,2.8-.95,4.21-.26,1.1,.54,1.51,1.59,1.61,2.8h-1.64c-.01-.06-.02-.11-.03-.16-.05-.75-.38-1.33-1.09-1.6-.77-.28-1.55-.25-2.21,.31-.72,.61-.65,1.87,.16,2.37,.61,.38,1.32,.6,1.97,.92,.68,.34,1.39,.67,2.01,1.11,1.92,1.36,1.33,4.14-.54,5-1.38,.64-2.81,.66-4.21,.07-1.3-.54-2.04-1.98-1.79-3.32Z"/></svg>