<?xml version="1.0" encoding="UTF-8"?>
<svg id="Layer_1" data-name="Layer 1" xmlns="http://www.w3.org/2000/svg" viewBox="0 0 64 64">
  <defs>
    <style>
      .cls-1 {
        fill: #231f20;
      }
    </style>
  </defs>
  <path d="m5.12,41.86c-.31.4-.56.84-.93,1.18-.68.63-1.61.6-2.24,0-.64-.61-.75-1.56-.12-2.23,1.38-1.46,2.8-2.87,4.25-4.26.58-.56,1.46-.55,2.1.05,1.44,1.36,2.84,2.75,4.2,4.18.62.65.52,1.64-.09,2.24-.61.6-1.57.65-2.24.03-.36-.33-.61-.78-.91-1.18l-.21.22s-.12.07-.12.11c-.01,2.69-.08,5.37,0,8.06.06,2.08,1.85,3.67,4.01,3.73,1.45.04,2.89,0,4.34.02,1.13.01,1.84.63,1.86,1.58.02.99-.71,1.67-1.85,1.68-1.48.02-2.95.02-4.43,0-4.03-.06-7.23-3.27-7.28-7.3-.02-2.33,0-4.67,0-7,0-.29,0-.57,0-.86-.12-.08-.23-.15-.35-.23Z"/>
  <path d="m55.13,20.47c.02-.14.05-.27.05-.41,0-2.45.03-4.9,0-7.35-.03-2.36-1.74-4.07-4.1-4.12-1.42-.03-2.83,0-4.25-.01-1.18-.01-1.91-.65-1.9-1.64.01-.99.73-1.62,1.9-1.63,1.48-.01,2.95-.02,4.43,0,3.97.07,7.18,3.28,7.22,7.26.03,2.63,0,5.25,0,8.14.47-.45.79-.75,1.11-1.06.8-.75,1.76-.79,2.44-.1.69.7.66,1.64-.12,2.44-1.26,1.29-2.53,2.56-3.82,3.82-.8.78-1.71.78-2.51,0-1.29-1.26-2.57-2.53-3.83-3.82-.76-.78-.79-1.77-.13-2.45.68-.7,1.68-.65,2.51.16.27.27.5.58.75.87.08-.04.16-.08.24-.12Z"/>
  <path d="m25.01,55.65c-.01.92-.71,1.6-1.63,1.6-.91,0-1.62-.7-1.63-1.61,0-.96.72-1.67,1.68-1.64.92.02,1.59.73,1.58,1.66Z"/>
  <path d="m42.22,6.91c.01.93-.66,1.63-1.58,1.66-.96.03-1.69-.68-1.68-1.64,0-.92.7-1.61,1.62-1.62.92,0,1.63.69,1.64,1.6Z"/>
  <g>
    <path class="cls-1" d="m7.34,13.91h-1.49v2.27c0,.32-.08.57-.23.74s-.35.25-.58.25-.44-.08-.59-.25-.22-.41-.22-.73v-6.18c0-.36.08-.61.25-.77s.42-.23.78-.23h2.08c.62,0,1.09.05,1.42.14.33.09.61.24.85.45.24.21.42.47.54.78s.19.65.19,1.03c0,.82-.25,1.43-.75,1.86s-1.25.63-2.25.63Zm-.39-3.67h-1.09v2.45h1.09c.38,0,.7-.04.96-.12.26-.08.45-.21.59-.39s.2-.42.2-.72c0-.35-.1-.64-.31-.86-.23-.24-.71-.36-1.44-.36Z"/>
    <path class="cls-1" d="m13.87,13.61h-.57v2.57c0,.34-.07.59-.22.75s-.34.24-.58.24c-.26,0-.46-.08-.6-.25s-.21-.41-.21-.74v-6.17c0-.35.08-.6.24-.76s.41-.24.76-.24h2.64c.36,0,.68.02.93.05s.49.09.7.19c.25.11.47.26.67.45s.34.43.44.69c.1.26.15.54.15.83,0,.6-.17,1.07-.51,1.43-.34.36-.85.61-1.53.76.29.15.56.38.83.68s.5.62.7.95c.21.34.37.64.48.91.11.27.17.46.17.56s-.03.21-.1.31c-.07.1-.16.19-.28.25s-.25.09-.4.09c-.18,0-.33-.04-.46-.13s-.23-.19-.32-.33c-.09-.13-.21-.32-.36-.58l-.65-1.08c-.23-.4-.44-.7-.63-.91-.18-.21-.37-.35-.56-.43s-.43-.11-.72-.11Zm.93-3.37h-1.5v2.2h1.45c.39,0,.72-.03.98-.1s.47-.18.61-.34c.14-.16.21-.39.21-.67,0-.22-.06-.42-.17-.59s-.27-.3-.47-.38c-.19-.08-.56-.12-1.12-.12Z"/>
    <path class="cls-1" d="m23.27,8.89c.83,0,1.54.17,2.14.51.59.34,1.05.82,1.35,1.44s.46,1.35.46,2.19c0,.62-.08,1.18-.25,1.69s-.42.95-.75,1.32-.75.66-1.24.85-1.05.3-1.68.3-1.19-.1-1.68-.3-.91-.49-1.24-.86-.58-.81-.75-1.33c-.17-.52-.25-1.08-.25-1.68s.09-1.18.27-1.69c.18-.51.43-.95.77-1.31s.74-.64,1.22-.83,1.03-.29,1.64-.29Zm2.31,4.12c0-.59-.09-1.1-.28-1.52s-.46-.76-.81-.98c-.35-.22-.76-.33-1.21-.33-.32,0-.62.06-.9.18-.28.12-.51.3-.71.53-.2.23-.36.53-.47.89-.12.36-.17.77-.17,1.22s.06.87.17,1.24c.11.37.28.67.49.92.21.24.45.42.72.54.27.12.57.18.89.18.42,0,.8-.1,1.15-.31.35-.21.62-.53.83-.96.21-.43.31-.97.31-1.6Z"/>
    <path class="cls-1" d="m29.62,9.02h2.12c.55,0,1.02.05,1.42.15.39.1.75.29,1.07.57.83.71,1.25,1.8,1.25,3.26,0,.48-.04.92-.13,1.32s-.21.76-.39,1.07-.4.6-.67.86c-.21.19-.45.35-.71.46s-.53.2-.82.25c-.29.05-.62.07-.99.07h-2.12c-.3,0-.52-.04-.67-.13s-.25-.22-.29-.38c-.05-.16-.07-.37-.07-.63v-5.88c0-.35.08-.6.24-.76s.41-.24.76-.24Zm.63,1.28v5.44h1.23c.27,0,.48,0,.63-.02s.31-.05.48-.11.31-.14.43-.25c.54-.46.81-1.25.81-2.37,0-.79-.12-1.38-.36-1.78-.24-.39-.53-.64-.88-.75-.35-.11-.77-.16-1.27-.16h-1.07Z"/>
  </g>
  <g>
    <path class="cls-1" d="m34.51,47.64h2.12c.55,0,1.02.05,1.42.15.39.1.75.29,1.07.57.83.71,1.25,1.8,1.25,3.26,0,.48-.04.92-.13,1.32-.08.4-.21.76-.39,1.07-.17.32-.4.6-.67.86-.21.19-.45.35-.71.46-.26.12-.53.2-.82.25-.29.05-.62.07-.99.07h-2.12c-.3,0-.52-.04-.67-.13-.15-.09-.25-.21-.29-.38-.05-.16-.07-.37-.07-.63v-5.88c0-.35.08-.6.24-.76.16-.16.41-.24.76-.24Zm.63,1.28v5.44h1.23c.27,0,.48,0,.63-.02.15-.01.31-.05.48-.11.16-.06.31-.14.43-.25.54-.46.81-1.25.81-2.37,0-.79-.12-1.38-.36-1.78-.24-.39-.53-.64-.88-.75-.35-.11-.77-.16-1.27-.16h-1.07Z"/>
    <path class="cls-1" d="m47.07,48.89h-3.66v1.97h3.37c.25,0,.43.06.56.17.12.11.18.26.18.44s-.06.33-.18.45-.31.17-.56.17h-3.37v2.28h3.78c.26,0,.45.06.58.18.13.12.19.28.19.47s-.06.34-.19.46c-.13.12-.32.18-.58.18h-4.41c-.35,0-.61-.08-.76-.24-.16-.16-.23-.41-.23-.76v-6.02c0-.23.03-.42.1-.57s.18-.25.33-.32c.15-.07.34-.1.57-.1h4.29c.26,0,.45.06.58.17.13.11.19.27.19.45s-.06.34-.19.46c-.12.11-.32.17-.58.17Z"/>
    <path class="cls-1" d="m50.44,48.57l1.81,5.37,1.82-5.41c.09-.28.17-.48.21-.59.05-.11.13-.21.24-.3.11-.09.26-.13.45-.13.14,0,.27.03.39.1.12.07.21.16.28.28.07.11.1.23.1.35,0,.08-.01.17-.03.26s-.05.18-.08.27c-.03.09-.07.18-.1.28l-1.94,5.24c-.07.2-.14.39-.21.57s-.15.34-.24.48-.21.25-.36.34c-.15.09-.34.13-.55.13s-.4-.04-.55-.13c-.15-.09-.27-.2-.37-.34-.09-.14-.17-.3-.24-.48-.07-.18-.14-.37-.21-.57l-1.91-5.19c-.03-.1-.07-.19-.1-.28-.03-.09-.06-.19-.09-.3-.02-.11-.04-.2-.04-.27,0-.19.07-.36.22-.51s.34-.23.56-.23c.28,0,.47.08.59.25.11.17.23.44.35.81Z"/>
  </g>
  <path class="cls-1" d="m28.92,23.16H10.39C4.66,23.16,0,18.5,0,12.77S4.66,2.37,10.39,2.37h18.53c5.73,0,10.39,4.66,10.39,10.39s-4.66,10.39-10.39,10.39ZM10.39,3.97C5.54,3.97,1.6,7.92,1.6,12.77s3.95,8.8,8.8,8.8h18.53c4.85,0,8.8-3.95,8.8-8.8s-3.95-8.8-8.8-8.8H10.39Z"/>
  <path class="cls-1" d="m53.61,61.63h-18.53c-5.73,0-10.39-4.66-10.39-10.39s4.66-10.39,10.39-10.39h18.53c5.73,0,10.39,4.66,10.39,10.39s-4.66,10.39-10.39,10.39Zm-18.53-19.19c-4.85,0-8.79,3.95-8.79,8.8s3.95,8.8,8.79,8.8h18.53c4.85,0,8.8-3.95,8.8-8.8s-3.95-8.8-8.8-8.8h-18.53Z"/>
</svg>