<?xml version="1.0" encoding="UTF-8"?><svg id="Layer_1" xmlns="http://www.w3.org/2000/svg" xmlns:xlink="http://www.w3.org/1999/xlink" viewBox="0 0 64 64"><defs><style>.cls-1{fill:#fff;}.cls-2{opacity:.05;}.cls-2,.cls-3,.cls-4{fill:#010101;isolation:isolate;}.cls-5{fill:#555eaa;}.cls-3{opacity:.07;}.cls-4{opacity:.09;}.cls-6{fill:url(#linear-gradient);}.cls-7{fill:#7a80be;}</style><linearGradient id="linear-gradient" x1="-300.7" y1="127.78" x2="-285.97" y2="113.05" gradientTransform="translate(603 273) scale(2 -2)" gradientUnits="userSpaceOnUse"><stop offset="0" stop-color="#5c63ad"/><stop offset="1" stop-color="#41499f"/></linearGradient></defs><path class="cls-5" d="M63.41,28.98v12.57c0,5.21-4.22,9.42-9.42,9.42s-9.42-4.22-9.42-9.42v-15.71h15.71c1.74,0,3.14,1.41,3.14,3.14Zm-9.42-9.42c3.47,0,6.28-2.81,6.28-6.28s-2.81-6.28-6.28-6.28-6.28,2.81-6.28,6.28,2.81,6.28,6.28,6.28Z"/><path class="cls-7" d="M49.28,28.98v17.28c0,9.02-7.6,16.27-16.75,15.67-8.35-.54-14.66-7.85-14.66-16.21V25.84h28.27c1.74,0,3.14,1.41,3.14,3.14Zm-15.71-7.85c5.21,0,9.42-4.22,9.42-9.42s-4.22-9.42-9.42-9.42-9.42,4.22-9.42,9.42,4.22,9.42,9.42,9.42Z"/><circle class="cls-7" cx="33.57" cy="11.7" r="9.42"/><path class="cls-2" d="M35.14,46.76V25.84H17.86v19.88c0,2.41,.54,4.72,1.48,6.82h10.01c3.19,0,5.78-2.59,5.78-5.78Z"/><path class="cls-3" d="M17.86,25.84v19.88c0,1.82,.32,3.59,.87,5.25h10.46c2.71,0,4.9-2.19,4.9-4.9V25.84H17.86Z"/><path class="cls-4" d="M33.05,25.84h-15.18v19.88c0,1.26,.16,2.49,.43,3.68h10.73c2.22,0,4.02-1.8,4.02-4.02V25.84h0Z"/><path class="cls-6" d="M28.86,47.83H3.73c-1.74,0-3.14-1.41-3.14-3.14V19.56c0-1.74,1.41-3.14,3.14-3.14H28.86c1.74,0,3.14,1.41,3.14,3.14v25.13c0,1.74-1.41,3.14-3.14,3.14Z"/><path class="cls-1" d="M22.68,24.27H9.9v2.7h4.79v13.01h3.21v-13.01h4.79v-2.7Z"/></svg>