<?xml version="1.0" encoding="UTF-8"?><svg id="Layer_1" xmlns="http://www.w3.org/2000/svg" viewBox="0 0 64 64"><defs><style>.cls-1{fill:#fff;}.cls-2{fill:#44b3e7;}.cls-3{fill:#b0bec5;}.cls-4{fill:#d0d9dc;}</style></defs><path class="cls-2" d="M32,.5C14.6,.5,.5,14.6,.5,32s14.1,31.5,31.5,31.5,31.5-14.1,31.5-31.5S49.4,.5,32,.5Z"/><path class="cls-1" d="M47.67,17.83l-5.9,30.12s-.25,1.38-1.96,1.38c-.91,0-1.37-.43-1.37-.43l-12.78-10.6-6.25-3.15-8.02-2.13s-1.43-.41-1.43-1.59c0-.98,1.47-1.45,1.47-1.45l33.57-13.34s1.03-.37,1.77-.37c.46,0,.98,.2,.98,.79,0,.39-.08,.79-.08,.79Z"/><path class="cls-3" d="M30.43,42.25l-5.4,5.31s-.23,.18-.55,.19c-.11,0-.23-.01-.34-.07l1.52-9.39,4.77,3.96Z"/><path class="cls-4" d="M41.29,22.86c-.27-.35-.76-.41-1.1-.15l-20.78,12.44s3.32,9.28,3.82,10.89c.51,1.61,.91,1.65,.91,1.65l1.52-9.39,15.49-14.33c.35-.26,.41-.76,.15-1.1Z"/></svg>