<?xml version="1.0" encoding="UTF-8"?>
<svg id="Layer_1" data-name="Layer 1" xmlns="http://www.w3.org/2000/svg" viewBox="0 0 64 64">
  <path d="m32.04,64.34C14.57,64.29-.62,49.95.03,31.08.59,14.83,14.13-.26,33.39.36c16.06.51,31.37,14.19,30.57,33.48-.67,16.28-14.07,30.33-31.92,30.5Zm.1-58.35c-14.81-.14-25.85,11.88-26.47,24.84-.78,16.3,12.26,27.31,24.96,27.85,16.08.7,27.19-12.22,27.74-25.09.67-15.64-12.28-27.82-26.23-27.6Z"/>
  <path d="m47.64,32.38c0,3.88-.13,7.76.04,11.63.14,3.21-2.06,6.42-6.35,6.37-6.06-.07-12.11,0-18.17-.03-.97,0-1.98,0-2.91-.27-2.33-.65-3.92-2.83-3.93-5.25-.02-8.38-.02-16.76,0-25.14,0-2.98,2.54-5.38,5.74-5.4,6.6-.04,13.21-.04,19.81,0,3.37.02,5.74,2.45,5.76,5.81.02,4.09,0,8.19,0,12.28Zm-2.95-.05c0-3.63.01-7.26,0-10.89-.01-2.21-1.67-3.89-3.88-3.89-5.92-.02-11.84-.02-17.77,0-2.27.01-3.87,1.66-3.92,3.94-.01.63-.04,1.25-.04,1.88,0,6.58-.03,13.16.02,19.74,0,.77.29,1.62.68,2.29.9,1.52,2.44,1.73,4.07,1.72,5.54-.04,11.08-.09,16.62-.05,2.51.02,4.23-1.52,4.23-4,0-3.58,0-7.15,0-10.73Z"/>
  <path d="m27,25.84v-3.03h14.47v3.03h-14.47Z"/>
  <path d="m26.99,33.86v-3.04h14.48v3.04h-14.48Z"/>
  <path d="m41.52,38.68v3.04h-14.51v-3.04h14.51Z"/>
  <path d="m25.32,22.8v3.02h-3.01v-3.02h3.01Z"/>
  <path d="m25.32,30.81v3.04h-3.02v-3.04h3.02Z"/>
  <path d="m22.38,41.71v-3.01h2.92v3.01h-2.92Z"/>
</svg>