<?xml version="1.0" encoding="UTF-8"?><svg id="Layer_1" xmlns="http://www.w3.org/2000/svg" viewBox="0 0 64 64"><defs><style>.cls-1{fill:#eb2c2d;}.cls-2{fill:none;stroke:#e92b2e;stroke-miterlimit:10;stroke-width:8px;}</style></defs><circle class="cls-2" cx="32.06" cy="32.32" r="27.51"/><path class="cls-1" d="M17.39,24.08c-.02-3.77,2.96-6.73,6.73-6.69,3.61,.04,6.57,2.99,6.61,6.59,.04,3.65-3.14,6.81-6.78,6.75-3.6-.06-6.53-3.04-6.56-6.65Z"/><path class="cls-1" d="M24.11,46.61c-3.77,.04-6.75-2.93-6.72-6.7,.03-3.61,2.97-6.58,6.57-6.63,3.64-.06,6.82,3.12,6.77,6.76-.05,3.6-3.01,6.55-6.62,6.58Z"/><path class="cls-1" d="M46.61,24.13c-.05,3.6-3.01,6.57-6.61,6.6-3.65,.03-6.81-3.15-6.73-6.8,.07-3.6,3.05-6.52,6.66-6.54,3.76-.02,6.73,2.97,6.68,6.74Z"/><path class="cls-1" d="M46.61,40.04c-.04,3.76-3.07,6.67-6.85,6.57-3.59-.1-6.53-3.14-6.49-6.71,.04-3.57,3.05-6.58,6.63-6.62,3.69-.04,6.75,3.04,6.71,6.77Z"/></svg>