<?xml version="1.0" encoding="UTF-8"?><svg id="Layer_1" xmlns="http://www.w3.org/2000/svg" viewBox="0 0 64 64"><defs><style>.cls-1,.cls-2{fill:#39a4dd;}.cls-2{stroke:#fff;stroke-miterlimit:10;}</style></defs><path class="cls-1" d="M38.02,19.9V5.34c.63-1.65,1.29-2.1,3.09-2.1,6.26,0,12.52,0,18.78,0,1.85,0,2.47,.42,3.14,2.1v14.56c-.66,1.68-1.28,2.1-3.13,2.1-6.27,0-12.53,0-18.8,0-1.8,0-2.44-.44-3.07-2.1Zm3.42-.04h18.17c-1.8-2.41-3.56-4.75-5.36-7.15-1.07,1.05-2.12,2.02-3.72,2.02-1.6,0-2.64-.99-3.73-2.01-1.79,2.39-3.55,4.74-5.36,7.14ZM59.32,5.37h-17.56c.06,.08,.08,.13,.12,.17,2.45,2.2,4.9,4.41,7.36,6.61,.83,.74,1.78,.7,2.64-.07,1.39-1.25,2.78-2.5,4.17-3.75,1.07-.96,2.14-1.92,3.27-2.95Zm-14.09,5.96c-1.7-1.53-3.37-3.03-5.1-4.58v11.37c1.73-2.31,3.39-4.52,5.1-6.79Zm15.64,6.77V6.76c-1.74,1.57-3.41,3.07-5.08,4.57,1.7,2.27,3.36,4.48,5.08,6.77Z"/><path class="cls-2" d="M59.32,20.59c-2.2,.98-4.58,1.63-7.08,1.94,2.54-1.51,4.5-3.92,5.42-6.76-2.38,1.39-5.02,2.42-7.82,2.96-2.24-2.37-5.43-3.85-8.97-3.85-6.8,0-12.31,5.46-12.31,12.2,0,.95,.11,1.88,.32,2.78-10.23-.51-19.3-5.38-25.37-12.76-1.07,1.8-1.67,3.91-1.67,6.14,0,4.23,2.17,7.96,5.47,10.16-2.02-.06-3.92-.62-5.58-1.52v.14c0,5.92,4.24,10.85,9.87,11.97-1.03,.28-2.11,.44-3.23,.44-.79,0-1.57-.09-2.32-.22,1.57,4.84,6.11,8.37,11.5,8.48-4.21,3.27-9.52,5.22-15.29,5.22-1,0-1.97-.06-2.93-.17,5.45,3.45,11.92,5.47,18.87,5.47,22.64,0,35.03-18.59,35.03-34.72,0-.53-.02-1.05-.04-1.57,2.42-1.71,4.5-3.86,6.14-6.32Z"/></svg>