<?xml version="1.0" encoding="UTF-8"?><svg id="Layer_1" xmlns="http://www.w3.org/2000/svg" viewBox="0 0 64 64"><defs><style>.cls-1{fill:#39a4dd;}</style></defs><path class="cls-1" d="M63.77,12.39c-2.34,1.04-4.86,1.73-7.52,2.06,2.7-1.6,4.78-4.16,5.76-7.19-2.53,1.48-5.33,2.57-8.31,3.15-2.38-2.52-5.78-4.09-9.54-4.09-7.23,0-13.08,5.81-13.08,12.97,0,1.01,.12,2,.34,2.96-10.87-.55-20.51-5.71-26.97-13.56-1.13,1.92-1.77,4.16-1.77,6.53,0,4.5,2.3,8.46,5.82,10.8-2.14-.07-4.16-.66-5.93-1.62v.15c0,6.29,4.51,11.53,10.49,12.72-1.09,.3-2.25,.47-3.44,.47-.84,0-1.67-.1-2.47-.24,1.66,5.14,6.5,8.9,12.22,9.01-4.48,3.47-10.12,5.55-16.25,5.55-1.06,0-2.1-.06-3.12-.18,5.79,3.67,12.67,5.82,20.06,5.82,24.06,0,37.23-19.76,37.23-36.9,0-.56-.02-1.12-.04-1.67,2.57-1.81,4.78-4.1,6.53-6.72"/></svg>