<?xml version="1.0" encoding="UTF-8"?><svg id="Layer_1" xmlns="http://www.w3.org/2000/svg" viewBox="0 0 64 64"><defs><style>.cls-1{fill:#fff;}</style></defs><path d="M31.97,63C15.72,56.6,1.96,32.34,13.52,11.37,17.96,3.33,25.29,.41,34.12,1.1c9.65,.76,16.57,6.3,19.18,14.92,4.48,14.76-1.67,34.13-13.98,43.58-1.88,1.45-4.24,2.28-6.38,3.4h-.98Zm19.12-29.48c-9.39-.03-16.16,6.18-15.9,14.58,8.25-.45,14.37-6.06,15.9-14.58Zm-38.39,.27c2.12,9.86,7.92,14.85,16.25,14.27-.72-8.05-7.57-14.2-16.25-14.27Z"/><path class="cls-1" d="M51.09,33.52c-1.53,8.52-7.64,14.13-15.9,14.58-.27-8.4,6.5-14.61,15.9-14.58Z"/><path class="cls-1" d="M12.69,33.8c8.67,.07,15.53,6.22,16.25,14.27-8.33,.58-14.13-4.41-16.25-14.27Z"/></svg>