<?xml version="1.0" encoding="UTF-8"?>
<svg id="Layer_1" data-name="Layer 1" xmlns="http://www.w3.org/2000/svg" viewBox="0 0 64 64">
  <defs>
    <style>
      .cls-1 {
        fill: #10456e;
      }
    </style>
  </defs>
  <path class="cls-1" d="M11.13,4.46c.93,0,1.87,0,2.8,0,.67,0,1.07,.31,1.28,.94,1.44,4.33,2.88,8.66,4.32,13,.23,.71,.09,1.1-.54,1.53-1.81,1.22-3.63,2.42-5.45,3.63-.95,.63-1.07,.98-.64,2.04,2.98,7.29,7.65,13.33,13.66,18.36,3.56,2.98,7.47,5.38,11.78,7.12,1.13,.46,1.43,.36,2.12-.67,1.17-1.75,2.33-3.5,3.51-5.25,.56-.83,.88-.94,1.8-.63,4.26,1.42,8.51,2.84,12.77,4.25,.54,.18,.97,.48,.96,1.07-.03,2.24,.1,4.51-.19,6.72-.5,3.8-3.91,7.01-7.74,7.31-2.1,.17-4.25,.05-6.36-.14-5.78-.54-11.34-2.03-16.54-4.64C13.48,51.46,4.14,39.29,.81,22.57,.23,19.68,.02,16.75,0,13.81-.04,8.67,3.8,4.66,8.93,4.47c.73-.03,1.47,0,2.21,0h0Z"/>
  <path d="M64,29.51c0,1.32-.91,2.33-2.09,2.42-1.29,.1-2.28-.77-2.51-2.11-.31-1.86-.46-3.77-1.04-5.54-3.39-10.45-10.49-16.9-21.23-19.3-.93-.21-1.88-.28-2.83-.38-1.43-.16-2.38-1.23-2.24-2.56,.13-1.3,1.26-2.16,2.67-2.03,5.95,.55,11.38,2.53,16.16,6.11,7.38,5.52,11.72,12.85,12.96,22,.07,.49,.1,.99,.14,1.39Z"/>
  <path d="M54.82,29.47c0,1.34-.89,2.35-2.05,2.46-1.23,.12-2.33-.67-2.49-1.89-.41-3.22-1.47-6.18-3.41-8.79-3.12-4.2-7.26-6.74-12.47-7.45-1.73-.24-2.71-1.52-2.25-3,.34-1.1,1.4-1.75,2.61-1.61,10.23,1.21,18.58,9.41,19.96,19.6,.04,.27,.07,.55,.09,.68Z"/>
  <path d="M34.37,18.41c1.48,.2,2.85,.68,4.12,1.37,3.66,2,6,5.04,6.97,9.11,.35,1.45-.35,2.68-1.7,2.99-1.28,.3-2.42-.54-2.78-1.95-.95-3.73-3.31-6.04-7.05-6.96-1.11-.27-1.84-1.11-1.88-2.16-.04-1.04,.58-1.94,1.58-2.27,.24-.08,.5-.1,.73-.14Z"/>
</svg>