<?xml version="1.0" encoding="UTF-8"?>
<svg id="Layer_1" data-name="Layer 1" xmlns="http://www.w3.org/2000/svg" viewBox="0 0 64 64">
  <defs>
    <style>
      .cls-1 {
        fill: #10456e;
      }
    </style>
  </defs>
  <path class="cls-1" d="m11.13,4.51c.93,0,1.87,0,2.8,0,.67,0,1.07.31,1.28.94,1.44,4.33,2.88,8.66,4.32,13,.23.71.09,1.1-.54,1.53-1.81,1.22-3.63,2.42-5.45,3.63-.95.63-1.07.98-.64,2.04,2.98,7.29,7.65,13.33,13.66,18.36,3.56,2.98,7.47,5.38,11.78,7.12,1.13.46,1.43.36,2.12-.67,1.17-1.75,2.33-3.5,3.51-5.25.56-.83.88-.94,1.8-.63,4.26,1.42,8.51,2.84,12.77,4.25.54.18.97.48.96,1.07-.03,2.24.1,4.51-.19,6.72-.5,3.8-3.91,7.01-7.74,7.31-2.1.17-4.25.05-6.36-.14-5.78-.54-11.34-2.03-16.54-4.64C13.48,51.51,4.14,39.35.81,22.63.23,19.74.02,16.81,0,13.86-.04,8.72,3.8,4.71,8.93,4.52c.73-.03,1.47,0,2.21,0h0Z"/>
  <path class="cls-1" d="m31.48,0c.63,0,1.26,0,1.88,0,.45,0,.72.21.86.63.97,2.91,1.94,5.82,2.9,8.74.16.48.06.74-.36,1.02-1.22.82-2.44,1.63-3.66,2.44-.64.42-.72.66-.43,1.37,2,4.9,5.14,8.96,9.18,12.34,2.39,2,5.02,3.62,7.92,4.79.76.31.96.24,1.43-.45.79-1.18,1.57-2.36,2.36-3.53.37-.56.59-.63,1.21-.42,2.86.95,5.72,1.91,8.58,2.86.36.12.65.32.64.72-.02,1.51.07,3.03-.12,4.52-.33,2.56-2.63,4.71-5.2,4.91-1.41.11-2.86.04-4.27-.1-3.89-.36-7.62-1.36-11.11-3.12-10.22-5.13-16.5-13.3-18.74-24.54-.39-1.94-.53-3.91-.54-5.89-.02-3.45,2.55-6.15,6-6.28.49-.02.99,0,1.48,0h0Z"/>
</svg>