<?xml version="1.0" encoding="UTF-8"?><svg id="Layer_1" xmlns="http://www.w3.org/2000/svg" viewBox="0 0 64 64"><path d="M20.53,59.93c4.74-1.28,7.41-4.87,9.42-8.91,3.06-6.17,5.86-12.47,8.68-18.75,4.23-9.43,8.38-18.89,12.57-28.34,4,0,8,0,12,.01,.27,0,.53,.17,.8,.26-.16,.25-.35,.49-.47,.76-4.37,9.86-8.7,19.75-13.13,29.59-2.65,5.88-5.31,11.77-8.22,17.52-1.96,3.86-4.62,7.19-9.38,7.87h-12.27Z"/><path d="M12.53,3.93c3.03,6.69,6.05,13.38,9.08,20.08,.91,2.02,1.84,4.03,2.69,6.07,.18,.44,.28,1.07,.1,1.48-1.9,4.39-3.85,8.75-5.8,13.11-.05,.11-.18,.18-.38,.36-1.29-2.92-2.56-5.77-3.83-8.63C9.76,25.92,5.12,15.44,.47,4.96c-.12-.27-.31-.51-.47-.76,.27-.09,.53-.25,.8-.26,3.91-.02,7.82-.01,11.73-.01Z"/></svg>