<?xml version="1.0" encoding="UTF-8"?><svg id="Layer_1" xmlns="http://www.w3.org/2000/svg" viewBox="0 0 64 64"><defs><style>.cls-1{fill:#fff;}.cls-1,.cls-2,.cls-3{fill-rule:evenodd;}.cls-2{fill:#53b955;}.cls-3{fill:#d0d9dc;}</style></defs><path class="cls-1" d="M1.78,62.42l4.27-15.59c-2.63-4.56-4.02-9.74-4.02-15.04C2.04,15.2,15.54,1.71,32.13,1.71c8.05,0,15.6,3.14,21.29,8.82,5.68,5.69,8.81,13.24,8.81,21.28,0,16.59-13.51,30.08-30.09,30.08,0,0,0,0,0,0h-.01c-5.04,0-9.99-1.26-14.38-3.66L1.78,62.42Z"/><path class="cls-1" d="M1.78,63.21c-.21,0-.41-.08-.56-.23-.2-.2-.28-.49-.2-.77l4.18-15.27c-2.59-4.61-3.96-9.84-3.96-15.15C1.25,14.77,15.1,.92,32.13,.92c8.26,0,16.02,3.22,21.85,9.06,5.83,5.84,9.04,13.59,9.04,21.84,0,17.02-13.86,30.88-30.89,30.88-5.05,0-10.06-1.25-14.49-3.61L1.98,63.18c-.07,.02-.13,.03-.2,.03Z"/><path class="cls-3" d="M32.13,1.71c8.05,0,15.6,3.14,21.29,8.82,5.68,5.69,8.81,13.24,8.81,21.28,0,16.59-13.51,30.08-30.09,30.08h-.01c-5.04,0-9.99-1.26-14.38-3.66L1.78,62.42l4.27-15.59c-2.63-4.56-4.02-9.74-4.02-15.04C2.04,15.2,15.54,1.71,32.13,1.71m0,60.19h0m0,0h0M32.13,.12h0C14.67,.12,.45,14.33,.45,31.79c0,5.34,1.35,10.6,3.9,15.25L.25,62c-.15,.55,0,1.13,.4,1.53,.3,.3,.71,.47,1.13,.47,.13,0,.27-.02,.4-.05l15.35-4.03c4.48,2.33,9.51,3.56,14.58,3.56,17.47,0,31.68-14.21,31.69-31.67,0-8.46-3.29-16.42-9.27-22.4C48.55,3.42,40.6,.13,32.13,.12h0Z"/><path class="cls-2" d="M49.82,14.12c-4.72-4.73-11-7.33-17.68-7.33-13.8,0-25.02,11.22-25.02,25,0,4.72,1.32,9.32,3.82,13.31l.6,.95-2.53,9.23,9.47-2.48,.91,.54c3.84,2.28,8.24,3.48,12.73,3.49h0c13.79,0,25.01-11.22,25.01-25.01,0-6.68-2.6-12.96-7.32-17.69Z"/><path class="cls-1" d="M24.6,19.21c-.56-1.25-1.16-1.28-1.69-1.3-.44-.02-.94-.02-1.44-.02s-1.32,.19-2.01,.94c-.69,.75-2.63,2.57-2.63,6.27s2.69,7.28,3.07,7.78,5.2,8.34,12.84,11.35c6.35,2.5,7.64,2.01,9.02,1.88,1.38-.13,4.45-1.82,5.08-3.57,.63-1.76,.63-3.26,.44-3.57-.19-.31-.69-.5-1.44-.88s-4.45-2.2-5.14-2.45c-.69-.25-1.19-.38-1.69,.38-.5,.75-1.94,2.45-2.38,2.95-.44,.5-.88,.57-1.63,.19-.75-.38-3.17-1.17-6.05-3.73-2.23-1.99-3.74-4.45-4.18-5.21-.44-.75-.05-1.16,.33-1.53,.34-.34,.75-.88,1.13-1.32,.38-.44,.5-.75,.75-1.25,.25-.5,.13-.94-.06-1.32-.19-.38-1.65-4.1-2.32-5.58Z"/></svg>