<?xml version="1.0" encoding="UTF-8"?>
<svg id="Layer_1" data-name="Layer 1" xmlns="http://www.w3.org/2000/svg" viewBox="0 0 64 64">
  <defs>
    <style>
      .cls-1 {
        stroke-width: 0px;
      }
    </style>
  </defs>
  <path class="cls-1" d="m42.59,21.96c-1.1-.97-1.82-2.32-2.02-3.88-1.58,1.71-3.16,3.42-4.74,5.12-.13.14-.19.34-.3.56-.31-.39-.45-.58-.6-.77-5.12-6.84-10.24-13.67-15.34-20.52-.27-.36-.54-.48-.97-.48-5.93.01-11.86,0-17.79.01-.18,0-.36.03-.63.06,8.26,11.04,16.45,22,24.66,32.97C16.6,43.97,8.36,52.88,0,61.91c1.71,0,3.21-.03,4.71.01.65.02,1.08-.18,1.51-.66,5.85-6.35,11.71-12.68,17.57-19.01,1.18-1.28,2.37-2.55,3.58-3.85.21.28.4.52.58.76,5.55,7.41,11.09,14.83,16.63,22.25.28.38.57.5,1.03.5,5.88-.01,11.77,0,17.66-.01.21,0,.41-.02.73-.04-8.73-11.67-17.39-23.25-26.07-34.86,1.56-1.68,3.11-3.36,4.67-5.04Zm1.36,20.01c3.76,5.02,7.52,10.04,11.27,15.07.15.2.29.41.51.72-2.87,0-5.59.01-8.31-.02-.25,0-.58-.26-.75-.49-4.81-6.41-9.61-12.83-14.41-19.25-7.81-10.45-15.63-20.9-23.44-31.34-.1-.14-.2-.28-.35-.5.25-.02.43-.05.61-.05,2.48,0,4.97,0,7.45-.01.44,0,.71.14.97.49,8.81,11.8,17.63,23.59,26.44,35.38Z"/>
  <g>
    <g>
      <path class="cls-1" d="m52.69,22.37c-1.8-.06-3.6-.09-5.4-.19-3.03-.17-5.31-2.48-5.46-5.5-.19-3.54-.18-7.09,0-10.63.16-3.04,2.43-5.34,5.49-5.52,3.58-.21,7.16-.21,10.74,0,3.06.18,5.31,2.54,5.45,5.59.16,3.5.16,6.99,0,10.49-.14,3.02-2.38,5.36-5.4,5.56-1.43.1-2.87.1-4.31.15-.36.01-.73,0-1.1,0,0,.01,0,.03,0,.04Zm10.09-10.98c-.06-1.78-.1-3.56-.18-5.34-.1-2.51-2.12-4.52-4.64-4.65-3.54-.18-7.09-.18-10.63,0-2.51.13-4.49,2.12-4.63,4.62-.19,3.56-.19,7.11,0,10.67.14,2.53,2.12,4.5,4.66,4.63,3.53.18,7.06.18,10.6,0,2.52-.13,4.51-2.09,4.64-4.61.09-1.78.12-3.55.18-5.33Z"/>
      <path class="cls-1" d="m52.68,22.75c-.56-.02-1.11-.03-1.67-.05-1.25-.03-2.5-.07-3.74-.14-3.2-.18-5.65-2.64-5.82-5.86-.18-3.53-.18-7.12,0-10.67.17-3.22,2.62-5.69,5.84-5.88,3.61-.21,7.23-.21,10.78,0,3.21.19,5.65,2.7,5.81,5.95.16,3.51.16,7.05,0,10.53-.15,3.21-2.57,5.7-5.75,5.92-1.03.07-2.07.09-3.08.12l-1.24.03c-.25,0-.5,0-.74,0h0s-.38.04-.38.04Zm-.36-.39h.38s-.38,0-.38,0Zm.36-21.61c-1.78,0-3.56.05-5.34.16-2.87.17-4.98,2.29-5.13,5.17-.18,3.53-.18,7.09,0,10.59.15,2.83,2.3,4.99,5.11,5.15,1.24.07,2.48.1,3.72.14.43.01.86.02,1.29.04h0s.37-.03.37-.03h.36c.24,0,.49,0,.73,0l1.24-.03c1-.02,2.04-.05,3.05-.11,2.84-.2,4.92-2.34,5.05-5.21.16-3.45.17-6.97,0-10.46-.13-2.86-2.28-5.06-5.1-5.23-1.77-.11-3.56-.16-5.35-.16Zm-.02,21.09c-1.77,0-3.55-.05-5.31-.14-2.71-.14-4.87-2.28-5.01-4.99-.19-3.55-.19-7.15,0-10.71.14-2.7,2.29-4.84,4.98-4.98,3.56-.18,7.15-.18,10.67,0,2.73.14,4.88,2.3,4.99,5.01.05,1.21.09,2.41.12,3.62l.05,1.75-.05,1.66c-.04,1.22-.07,2.45-.13,3.67-.13,2.69-2.28,4.82-4.99,4.96-1.77.09-3.54.14-5.32.14Zm.02-20.2c-1.77,0-3.55.05-5.32.14-2.31.12-4.15,1.96-4.27,4.27-.19,3.53-.19,7.11,0,10.63.12,2.32,1.97,4.16,4.3,4.28,3.51.18,7.06.18,10.56,0,2.33-.12,4.17-1.95,4.28-4.25.06-1.22.1-2.44.13-3.65l.05-1.65-.05-1.71c-.04-1.21-.07-2.41-.12-3.61-.1-2.33-1.94-4.17-4.28-4.29-1.75-.09-3.51-.14-5.27-.14Z"/>
    </g>
    <g>
      <path class="cls-1" d="m60.18,4.1c-.02.09-.06.23-.11.37-1.58,4.93-3.17,9.87-4.75,14.8-.11.34-.26.64-.67.64-.41,0-.55-.3-.68-.63-.81-2.2-1.64-4.38-2.44-6.59-.13-.35-.32-.53-.67-.66-2.2-.8-4.39-1.63-6.58-2.44-.33-.12-.62-.27-.61-.69.01-.42.31-.55.65-.65,4.93-1.59,9.87-3.18,14.8-4.76.64-.21,1.06.02,1.05.61Zm-5.64,13.1h.13c1.3-4.03,2.6-8.08,3.93-12.23-4.16,1.34-8.2,2.64-12.32,3.97.15.09.2.13.26.15,1.61.6,3.22,1.21,4.84,1.79.15.05.42-.02.55-.14.39-.34.74-.73,1.11-1.09.36-.35.74-.39,1.01-.11.26.27.23.62-.1.97-.37.38-.77.75-1.12,1.14-.1.11-.2.34-.15.46.61,1.7,1.25,3.38,1.87,5.07Z"/>
      <path class="cls-1" d="m54.65,20.04c-.52,0-.69-.45-.79-.71-.28-.76-.57-1.53-.85-2.29-.53-1.43-1.07-2.86-1.59-4.29-.11-.31-.27-.47-.59-.58-1.32-.48-2.64-.98-3.96-1.47-.87-.33-1.75-.65-2.62-.98-.26-.1-.71-.26-.69-.81.02-.54.45-.68.73-.77,3.32-1.07,6.64-2.14,9.97-3.21l4.84-1.56c.39-.12.71-.1.93.06.13.1.29.29.28.67v.03s-.03.08-.03.08c-.02.09-.05.19-.09.3l-1.36,4.23c-1.13,3.52-2.26,7.05-3.39,10.57-.08.23-.23.72-.79.72h0Zm4.91-16.5c-.11,0-.24.02-.39.07l-4.84,1.56c-3.32,1.07-6.64,2.14-9.97,3.21-.37.12-.55.23-.56.54-.01.31.16.43.53.57.88.32,1.75.65,2.62.98,1.32.49,2.64.98,3.96,1.47.39.14.6.35.74.73.52,1.43,1.05,2.86,1.58,4.29.28.76.57,1.53.85,2.29.14.37.26.55.55.55h0c.31,0,.44-.2.55-.55,1.13-3.52,2.26-7.05,3.4-10.57l1.36-4.23c.03-.1.06-.21.08-.29l.02-.06c0-.15-.03-.34-.18-.45-.08-.06-.19-.09-.32-.09Zm-4.8,13.8l-.31-.02-.39-1.04c-.5-1.35-1.02-2.74-1.52-4.12-.07-.19.07-.46.18-.59.22-.24.46-.48.69-.71.15-.15.3-.29.44-.44.2-.21.38-.51.1-.8-.09-.09-.2-.14-.31-.15h0c-.16,0-.34.09-.51.26-.13.12-.25.25-.37.38-.24.24-.48.49-.74.72-.15.13-.47.23-.67.16-1.34-.48-2.69-.98-3.99-1.47l-.85-.32s-.09-.04-.15-.08c-.03-.02-.08-.05-.13-.08l-.24-.14,12.82-4.13-4.03,12.56Zm-1.12-8.1s0,0,0,0c.18,0,.35.08.49.22.32.32.28.75-.1,1.15-.15.15-.29.3-.44.45-.23.22-.46.46-.68.7-.09.1-.15.28-.13.34.49,1.37,1.01,2.77,1.52,4.11l.3.81,3.8-11.84-11.83,3.81.85.32c1.31.49,2.66,1,3.99,1.47.1.03.32-.02.42-.11.25-.22.49-.46.73-.7.13-.13.25-.26.38-.38.22-.22.46-.33.69-.33Z"/>
    </g>
  </g>
</svg>