<?xml version="1.0" encoding="UTF-8"?>
<svg id="Layer_1" data-name="Layer 1" xmlns="http://www.w3.org/2000/svg" viewBox="0 0 64 64">
  <defs>
    <style>
      .cls-1 {
        stroke-width: 0px;
      }
    </style>
  </defs>
  <path class="cls-1" d="m27.38,38.42c-1.21,1.31-2.4,2.58-3.58,3.85-5.86,6.33-11.73,12.66-17.57,19.01-.43.47-.87.68-1.51.66-1.5-.05-3-.01-4.71-.01,8.36-9.03,16.6-17.94,24.87-26.87C16.66,24.08,8.47,13.13.21,2.08c.27-.03.45-.06.63-.06,5.93,0,11.86,0,17.79-.01.43,0,.7.12.97.48,5.1,6.85,10.22,13.68,15.34,20.52.14.19.29.38.6.77.12-.22.17-.42.3-.56,6.38-6.9,12.76-13.79,19.13-20.69.34-.36.67-.54,1.18-.52,1.37.04,2.75.01,4.12.01.21,0,.41.02.76.04-7.75,8.37-15.4,16.64-23.09,24.95,8.69,11.62,17.34,23.19,26.07,34.87-.32.02-.52.04-.73.04-5.89,0-11.77,0-17.66.01-.46,0-.75-.13-1.03-.5-5.53-7.42-11.08-14.84-16.63-22.25-.18-.24-.37-.48-.58-.76Zm28.35,19.36c-.22-.31-.36-.52-.51-.72-3.76-5.02-7.51-10.05-11.27-15.07-8.82-11.79-17.64-23.58-26.44-35.38-.26-.35-.53-.49-.97-.49-2.48.02-4.97,0-7.45.01-.18,0-.36.03-.61.05.15.22.25.36.35.5,7.81,10.45,15.63,20.9,23.44,31.34,4.8,6.42,9.6,12.84,14.41,19.25.17.23.49.48.75.49,2.72.04,5.45.02,8.31.02Z"/>
</svg>