<?xml version="1.0" encoding="UTF-8"?>
<svg id="Layer_1" data-name="Layer 1" xmlns="http://www.w3.org/2000/svg" viewBox="0 0 32 32">
  <defs>
    <style>
      .cls-1 {
        fill: #000;
        stroke-width: 0px;
      }
    </style>
  </defs>
  <path class="cls-1" d="M29.58,25.25c-3.01,4.14-7.37,6.75-12.58,6.75C7.91,32,.59,25.12.59,15.87S7.74,0,16.75,0C20.46,0,23.88,1.02,26.68,3.42c2.85,2.39,4.73,5.57,4.73,9.44,0,3.33-.94,6.27-3.25,8.66-1.64,1.67-4.92,3.58-7.34,3.58-1.02,0-2.04-.97-1.72-2.55l-.08-.08c-1.75,1.67-3.33,2.47-5,2.47-4.33,0-6.88-3.33-6.88-7.5,0-4.97,3.39-9.68,8.63-9.68,2.15,0,3.95.73,5.16,2.47l.46-2.15h3.98l-2.15,12.53c-.16.78.32,1.02.81.86.7-.22,1.91-1.37,2.77-2.61.56-.81,1.37-2.93,1.43-4.84.22-6.88-4.73-11.03-11.59-11.03-7.53,0-12.85,5.41-12.85,12.85,0,7.91,5.94,13.12,13.55,13.12,3.23,0,6.02-1.64,8.34-3.74h3.9l.03.03ZM16.24,11.59c-2.53.22-4.44,2.55-4.6,5.16-.16,2.69,1.18,4.19,2.9,4.44,3.07.46,4.84-2.69,5.06-4.97.22-2.45-.78-4.84-3.33-4.65l-.03.03Z"/>
</svg>