<?xml version="1.0" encoding="UTF-8"?>
<svg id="Layer_1" data-name="Layer 1" xmlns="http://www.w3.org/2000/svg" viewBox="0 0 32 32">
  <defs>
    <style>
      .cls-1 {
        stroke-width: 0px;
      }
    </style>
  </defs>
  <path class="cls-1" d="M15.97,1.51h12.97c2.05,0,3.44,1.9,2.8,3.82-.39,1.18-1.49,1.98-2.76,1.99H3C1.32,7.31.02,6.05.01,4.43,0,2.78,1.27,1.52,2.96,1.51h13.01Z"/>
  <path class="cls-1" d="M15.97,30.49H2.96c-2.25,0-3.65-2.29-2.61-4.26.54-1.02,1.42-1.54,2.57-1.54,8.69,0,17.38,0,26.07,0,1.62,0,2.9,1.28,2.91,2.88,0,1.62-1.27,2.91-2.91,2.92h-13.02Z"/>
  <path class="cls-1" d="M16.06,13.09h12.97c2.09,0,3.47,1.96,2.79,3.89-.42,1.16-1.5,1.91-2.81,1.91H3.12c-1.72,0-3-1.26-2.99-2.91,0-1.64,1.28-2.88,2.98-2.89h12.97-.02Z"/>
</svg>