<?xml version="1.0" encoding="UTF-8"?>
<svg id="Layer_1" data-name="Layer 1" xmlns="http://www.w3.org/2000/svg" viewBox="0 0 32 32">
  <defs>
    <style>
      .cls-1 {
        stroke-width: 0px;
      }
    </style>
  </defs>
  <path class="cls-1" d="M16.02,24.51H4.13c-1.56,0-2.42-.64-2.74-1.86-.36-1.42.5-2.76,2.08-2.98,1.16-.16,1.52-.76,1.5-1.82,0-2.54-.1-5.1.06-7.62C5.39,4.69,9.73.43,15.24.03c5.44-.38,10.48,3.32,11.44,8.74.42,2.38.22,4.9.3,7.34v1.94c0,.9.38,1.42,1.32,1.6,1.58.28,2.44,1.26,2.34,2.56-.1,1.38-1.14,2.28-2.76,2.3-3.96.02-7.92,0-11.88,0h.02Z"/>
  <path class="cls-1" d="M11.39,27.35h9.1c.28,2.36-1.74,4.52-4.32,4.64-2.64.12-4.8-1.94-4.78-4.64Z"/>
</svg>