<?xml version="1.0" encoding="UTF-8"?>
<svg id="Layer_1" data-name="Layer 1" xmlns="http://www.w3.org/2000/svg" viewBox="0 0 32 32">
  <defs>
    <style>
      .cls-1 {
        fill: #000;
        stroke-width: 0px;
      }
    </style>
  </defs>
  <path class="cls-1" d="M15.99,22.82c-1.2,1.21-2.36,2.37-3.52,3.54-1.72,1.73-3.44,3.47-5.19,5.18-.23.23-.6.4-.92.44-.51.06-.95-.42-1.03-.94-.02-.15,0-.31,0-.46V3.5C5.34,1.32,6.66,0,8.84,0h14.4C25.3,0,26.67,1.36,26.67,3.39v27.25c0,.29-.06.63-.21.88-.37.61-1.12.63-1.7.06-1.62-1.61-3.24-3.24-4.86-4.86-1.28-1.28-2.56-2.56-3.89-3.91h-.02ZM7.46,28.3c.17-.16.28-.23.37-.33,2.41-2.41,4.8-4.8,7.2-7.2.7-.7,1.22-.7,1.93,0,2.41,2.41,4.8,4.81,7.2,7.2.09.09.2.17.35.31V3.52c0-1.04-.34-1.38-1.39-1.38h-14.25c-1.07,0-1.42.33-1.42,1.4v24.75h0Z"/>
</svg>