<?xml version="1.0" encoding="UTF-8"?>
<svg id="Layer_1" data-name="Layer 1" xmlns="http://www.w3.org/2000/svg" viewBox="0 0 32 32">
  <defs>
    <style>
      .cls-1 {
        fill: #000;
        stroke-width: 0px;
      }
    </style>
  </defs>
  <path class="cls-1" d="M16.01,1.98c.99-1.1,2.22-1.66,3.73-1.55,1.72.13,3.19,1.29,3.67,2.89.08.24.19.35.43.38,3.65.51,6.33,3.4,6.46,6.89,0,.16.05.38.16.48,2.52,2.52,1.8,6.75-1.05,8.82-.29.21-.35.4-.21.72.8,2.36-.11,4.99-2.17,6.3-.46.29-1.05.43-1.55.67-.13.05-.29.19-.32.29-.51,1.96-1.77,3.24-3.83,3.7-2.09.46-3.83-.21-5.17-1.82-.03-.03-.05-.08-.13-.13-.08.08-.13.13-.21.21-1.34,1.58-3.08,2.2-5.15,1.77-2.04-.46-3.3-1.72-3.83-3.67-.03-.13-.19-.29-.29-.32-2.57-.56-4.21-3.06-3.99-5.63.03-.48.16-.99.32-1.45.08-.27,0-.38-.19-.54C.79,18.54-.1,16.69,0,14.41c.08-1.23.62-2.25,1.42-3.19.13-.16.24-.4.24-.59.11-3.65,3.06-6.49,6.51-6.94.13,0,.32-.16.35-.27.88-3.16,5.15-4.07,7.37-1.53,0,0,.05.05.11.08ZM16.87,16.42c.19-.11.29-.19.43-.24.64-.35,1.34-.54,2.09-.51.46,0,.8.35.8.75,0,.43-.27.75-.72.83h-.27c-1.31.08-2.33,1.1-2.36,2.33v7.4c0,1.5,1.23,2.81,2.76,3.03,1.66.27,3.22-.59,3.75-2.06.05-.13.05-.24.11-.38-.19-.05-.35-.11-.48-.16-1.64-.56-2.79-2.09-2.76-3.7,0-.48.32-.83.78-.86.51,0,.86.27.88.78.08,1.02.54,1.8,1.53,2.2,1.02.43,1.96.21,2.84-.4,1.29-.91,1.9-2.87,1.37-4.32-.03-.08-.16-.21-.21-.21-.46.08-.91.19-1.34.29,0,.27.03.48.05.72,0,.51-.32.86-.78.88-.46,0-.83-.32-.88-.8-.13-1.47-.96-2.25-2.52-2.41-.54-.05-.88-.38-.86-.83,0-.46.4-.78.96-.75,1.21.03,2.22.48,3.03,1.34.16.19.32.24.56.24,2.04-.19,3.51-1.15,4.29-2.95.78-1.74.54-3.35-.88-4.77-1.1-1.1-2.84-1.37-4.15-.59-.16.08-.29.29-.32.46-.11.88-.48,1.66-1.13,2.31-.38.38-.88.43-1.26.11-.35-.32-.38-.78-.03-1.15.99-1.15.99-2.12,0-3.27-.35-.4-.32-.88.05-1.18.38-.29.86-.27,1.21.13.29.32.54.7.83,1.05,1.34-.64,2.76-.67,4.21-.19-.43-2.39-2.87-4.32-5.49-4.4-1.55-.05-2.63.86-2.76,2.33-.05.56-.38.88-.91.86-.48-.03-.78-.38-.78-.94.05-1.64,1.15-3.06,2.76-3.62.13-.05.29-.11.43-.13-.19-1.02-1.45-1.82-2.65-1.69-1.31.16-2.22,1.15-2.22,2.47v11.93l.05.08ZM6.82,25.99s.05-.13.05-.19c.59-1.72,1.82-2.71,3.73-2.89.24,0,.27-.13.32-.29.16-.67.51-1.26.99-1.74.43-.43.91-.51,1.29-.16.38.32.32.78,0,1.23-.24.29-.46.62-.59.96-.29.83,0,1.58.59,2.22.38.4.35.88,0,1.21-.35.29-.88.29-1.23-.13s-.64-.91-.88-1.37c-.11-.21-.21-.29-.46-.27-1.37.16-2.36,1.42-2.14,2.76.27,1.69,1.77,2.92,3.48,2.81,1.85-.11,3.22-1.47,3.22-3.24v-12.81c0-.11,0-.21-.03-.35-.13.11-.24.16-.32.24-.88.62-1.88.94-2.98.94-.48,0-.83-.32-.86-.75,0-.43.27-.75.72-.83h.32c1.74-.11,3.14-1.45,3.16-3.11v-5.76c0-1.55-1.58-2.65-3.16-2.28-.86.21-1.61.94-1.69,1.64.13.05.29.11.43.13,1.64.56,2.73,2.04,2.76,3.67,0,.59-.43.96-.99.88-.4-.05-.64-.38-.7-.86-.13-1.45-1.21-2.36-2.71-2.33-2.63.05-4.96,1.88-5.55,4.34-.05.19-.08.4-.11.64h.32c1.53-.24,2.89.08,4.1.99.16.13.29.11.48.05.54-.16,1.07-.29,1.61-.38.59-.05.96.27.99.75,0,.46-.32.78-.88.83-1.53.16-2.33.94-2.47,2.39-.05.51-.4.83-.88.8-.48-.03-.78-.38-.78-.88,0-.7.19-1.34.56-1.93.08-.13.16-.27.29-.43-.29-.16-.54-.32-.8-.43-1.23-.51-3.06-.24-3.78,1.07-.99,1.8-.35,4.34,1.5,5.66.88.64,1.88.96,3,.99.59,0,.94.38.91.86,0,.46-.4.78-.96.75-.59-.05-1.18-.13-1.77-.27-.27-.05-.4-.05-.48.24-.35,1.34-.11,2.57.78,3.67.43.51.96.88,1.69,1.07l-.11-.13Z"/>
</svg>