<?xml version="1.0" encoding="UTF-8"?>
<svg id="Layer_1" data-name="Layer 1" xmlns="http://www.w3.org/2000/svg" viewBox="0 0 32 32">
  <defs>
    <style>
      .cls-1 {
        stroke-width: 0px;
      }
    </style>
  </defs>
  <path class="cls-1" d="M24.1,13.38v11.12c0,.42,0,.83-.15,1.23-.23.65-.74.92-1.4.92-.6,0-1.12-.48-1.25-1.11-.11-.58-.11-1.2-.26-1.77-.51-1.78-1.8-2.78-3.51-3.31-.95-.29-1.92-.43-2.92-.43H5.57C2.29,20.04.02,17.76,0,14.47v-2.55c.03-2.74,2.2-5.06,4.92-5.21,3.29-.2,6.58-.08,9.87-.06,1.57,0,3.08-.29,4.4-1.18,1.17-.78,1.88-1.88,2-3.31.03-.29.06-.6.11-.89.11-.71.63-1.17,1.31-1.2.66-.02,1.26.42,1.41,1.09.06.29.06.6.08.89v11.33Z"/>
  <path class="cls-1" d="M9.63,31.92c-1.08-.06-2.18-.74-2.8-2.05-1.09-2.31-2.11-4.64-3.15-6.98-.12-.28-.23-.55.28-.49,2.01.26,4.04.06,6.06.09.69,0,1.08.23,1.35.89.55,1.34,1.21,2.63,1.78,3.97.94,2.26-.68,4.61-3.52,4.58v-.02Z"/>
  <path class="cls-1" d="M32,19.9c-.02,1.05-.94,1.74-1.83,1.35-.98-.42-1.95-.91-2.89-1.45-.68-.38-.86-1.09-.55-1.72.35-.71,1.03-1.01,1.78-.74,1.03.38,1.98.95,2.94,1.51.4.23.55.66.55,1.03v.02Z"/>
  <path class="cls-1" d="M32,6.72c0,.57-.23.98-.72,1.23-.88.45-1.75.91-2.64,1.32-.78.37-1.54.11-1.88-.6-.34-.71-.11-1.46.65-1.86.91-.48,1.83-.95,2.78-1.35.91-.37,1.8.31,1.81,1.26Z"/>
  <path class="cls-1" d="M29.35,11.96c.42,0,.83-.02,1.23,0,.85.05,1.38.57,1.41,1.31.03.78-.42,1.37-1.26,1.43-.95.08-1.92.08-2.89,0-.75-.05-1.29-.71-1.26-1.38.02-.71.61-1.31,1.38-1.35.46-.03.92,0,1.37,0h.02Z"/>
</svg>