<?xml version="1.0" encoding="UTF-8"?>
<svg id="Layer_1" data-name="Layer 1" xmlns="http://www.w3.org/2000/svg" viewBox="0 0 32 32">
  <defs>
    <style>
      .cls-1 {
        fill: #000;
        stroke-width: 0px;
      }
    </style>
  </defs>
  <path class="cls-1" d="M15.22,8.77v2.54c1.56-.51,2.85-.17,3.76,1.26,1.56-.81,2.88-.51,3.91.75.69-.13,1.31-.34,1.95-.34,1.41,0,2.61,1.16,2.64,2.57.03,3.2.1,6.41-.02,9.6-.13,3.53-3.29,6.64-6.82,6.78-2.66.1-5.33.12-7.98-.01-2.79-.14-4.8-1.68-6.06-4.14-1.18-2.28-2.33-4.57-3.46-6.88-.93-1.89,0-3.83,2.03-4.17,1.09-.19,1.98.24,2.67,1.1.55.68,1.08,1.37,1.7,2.17v-11.21c-.91,0-1.81.03-2.7,0-1.77-.08-3.1-.92-3.86-2.53-.77-1.64-.56-3.22.56-4.63C4.36.56,5.49.02,6.86,0,12.97,0,19.08,0,25.19,0c2.43,0,4.32,1.96,4.32,4.37s-1.86,4.36-4.3,4.4c-3.04.04-6.09.01-9.14.01h-.87.01ZM11.12,14.43v4.53c0,1.06.04,2.13-.02,3.17-.02.31-.27.78-.52.88-.24.09-.65-.2-.96-.37-.14-.08-.23-.27-.34-.41-.92-1.17-1.82-2.35-2.76-3.51-.43-.53-1.11-.62-1.64-.28-.5.32-.67.92-.43,1.56.04.1.09.21.13.31,1.13,2.26,2.24,4.52,3.4,6.75,1.16,2.21,3,3.35,5.52,3.35h6.15c3.73,0,6.29-2.56,6.3-6.29v-8.31c-.07-.81-.62-1.35-1.35-1.31-.69.03-1.18.59-1.2,1.38-.01.55,0,1.08,0,1.62s-.18.97-.78.97-.8-.42-.79-.96v-2.3c0-.92-.52-1.52-1.27-1.51-.73.01-1.21.59-1.22,1.49v2.3c0,.55-.19.93-.78.99-.51.04-.8-.33-.81-1.01v-1.42c0-.7.01-1.4,0-2.09-.02-.72-.5-1.22-1.16-1.27-.69-.06-1.25.41-1.35,1.15-.03.24-.02.49-.02.75,0,1.06,0,2.11-.01,3.18,0,.46-.28.72-.72.73-.47.01-.77-.23-.8-.72-.01-.2,0-.4,0-.61V6.75c-.04-.73-.56-1.27-1.21-1.29-.69-.02-1.24.51-1.29,1.29-.01.2,0,.4,0,.61v7.1l-.07-.03ZM15.26,7.17c3.45,0,6.88.04,10.29-.03,1.09-.02,1.84-.78,2.23-1.81.38-1,.17-1.91-.48-2.73-.6-.76-1.42-1.06-2.38-1.06H7.14c-.22,0-.46.02-.67.06-1.32.2-2.35,1.37-2.39,2.72-.04,1.31.93,2.66,2.25,2.82,1.03.13,2.1.02,3.15.02.49-2.43,1.32-3.32,3.02-3.27,1.6.04,2.44,1.02,2.77,3.29Z"/>
</svg>