<?xml version="1.0" encoding="UTF-8"?>
<svg id="Layer_1" data-name="Layer 1" xmlns="http://www.w3.org/2000/svg" viewBox="0 0 32 32">
  <defs>
    <style>
      .cls-1 {
        fill: #000;
        stroke-width: 0px;
      }
    </style>
  </defs>
  <path class="cls-1" d="M15.96,31.09H3.94c-1.68,0-2.94-.74-3.61-2.27-.24-.55-.32-1.21-.32-1.82C0,21.1,0,15.21,0,9.29v-.39c.06-1.97,1.53-3.55,3.51-3.66,1.13-.07,2.27,0,3.41-.05.3,0,.62-.08.89-.22,2.11-1.13,4.19-2.28,6.3-3.41,1.26-.68,2.52-.68,3.78,0,2.13,1.15,4.25,2.32,6.38,3.47.2.1.44.16.66.17,1.03.02,2.04,0,3.06,0,2.42.02,4,1.59,4,4v17.91c0,2.42-1.58,3.99-4,3.99h-12.04ZM1.51,12.84v14.08c0,1.76.89,2.65,2.64,2.65h23.69c1.73,0,2.62-.9,2.62-2.62v-14.11H1.5h.01ZM6.84,6.79c-.12-.03-.16-.06-.21-.06-.94,0-1.88-.02-2.82,0-1.31.02-2.26.97-2.3,2.28-.01.56.02,1.12-.01,1.68-.03.47.12.61.6.6,9.26-.01,18.53,0,27.79-.01.17,0,.35-.01.53-.02,0-.9.06-1.76-.01-2.6-.08-.94-.84-1.79-1.77-1.87-1.14-.1-2.29-.02-3.49-.02v.61c0,.56.01,1.12-.01,1.68-.02.41-.36.71-.74.73-.38,0-.7-.29-.75-.7-.02-.21-.01-.43-.01-.65v-1.68h-15.26v2.09c0,.58-.29.92-.74.93-.46.01-.78-.36-.78-.93v-2.05h-.01ZM21.1,5.18s.03-.07.06-.1c-.05-.02-.08-.05-.13-.07-1.31-.71-2.63-1.44-3.95-2.14-.77-.41-1.56-.36-2.32.06-1.21.67-2.43,1.33-3.64,1.99-.1.06-.18.14-.37.27h10.35Z"/>
  <path class="cls-1" d="M7.77,21.97c.62-.02,1.36-.03,1.99.47.46.37.8.83.84,1.41.06.78.08,1.59,0,2.36-.12.99-.98,1.76-1.99,1.83-.63.05-1.29.05-1.92,0-1.21-.08-2.1-1.04-2.12-2.26-.01-.51,0-1.03,0-1.53.02-1.31.98-2.26,2.29-2.29h.92-.01ZM9.12,24.99c0-1.43-.07-1.5-1.45-1.5-1.56,0-1.58.03-1.58,1.57,0,1.41.07,1.47,1.47,1.47,1.51,0,1.56-.05,1.56-1.54Z"/>
  <path class="cls-1" d="M24.4,21.97c2.17-.2,3.2,1.03,3.02,3-.02.24,0,.5,0,.74-.02,1.33-.92,2.28-2.24,2.35-.54.02-1.08.02-1.64,0-1.27-.07-2.18-.99-2.24-2.26-.02-.51-.02-1.03,0-1.53.05-1.34,1-2.27,2.35-2.29h.74ZM22.85,25.01c0,1.45.07,1.52,1.47,1.52,1.51,0,1.56-.03,1.56-1.54s-.06-1.5-1.51-1.5-1.52.05-1.52,1.52Z"/>
  <path class="cls-1" d="M24.35,20.42h-.74c-1.29-.03-2.24-.94-2.29-2.25-.02-.53-.02-1.06,0-1.58.06-1.31,1.01-2.24,2.34-2.25h1.53c1.26.03,2.2.98,2.24,2.25.01.5,0,.99,0,1.49-.01,1.38-.94,2.33-2.33,2.35h-.75ZM24.38,18.92c1.45,0,1.51-.06,1.51-1.5v-.05c0-1.44-.06-1.51-1.51-1.51s-1.52.06-1.52,1.53.05,1.52,1.52,1.52Z"/>
  <path class="cls-1" d="M7.58,20.55c-.63-.14-1.3-.2-1.88-.45-.75-.32-1.09-1.03-1.14-1.84-.02-.58-.02-1.15,0-1.73.05-1.21.99-2.14,2.2-2.18.53-.01,1.06-.01,1.58,0,1.31.02,2.27.94,2.32,2.27.02.51.02,1.03,0,1.53-.05,1.33-.99,2.25-2.32,2.28h-.74s-.02.08-.02.13h0ZM9.12,17.41c0-1.49-.06-1.56-1.51-1.56s-1.53.06-1.53,1.53.05,1.52,1.53,1.52,1.5-.06,1.5-1.5h.01Z"/>
  <path class="cls-1" d="M12.88,24.94c.06-.47.06-.96.18-1.41.28-.94,1.08-1.53,2.05-1.57.58-.02,1.15-.02,1.73,0,1.16.05,2.1.94,2.15,2.11.03.61.03,1.22,0,1.83-.06,1.14-.93,2.05-2.09,2.13-.58.05-1.15.03-1.73.01-1.33-.06-2.24-.99-2.27-2.32v-.8h-.05.01ZM15.95,26.53c1.51,0,1.56-.06,1.56-1.54v-.05c0-1.36-.08-1.44-1.46-1.44-1.54,0-1.58.03-1.58,1.57,0,1.39.08,1.47,1.49,1.47h0Z"/>
  <path class="cls-1" d="M17.9,14.69c.73.32,1.08,1,1.13,1.8.03.61.03,1.22,0,1.83-.06,1.16-.98,2.06-2.14,2.12-.59.02-1.19.02-1.77,0-1.16-.05-2.09-.96-2.14-2.12-.03-.55-.02-1.12,0-1.68.03-1.31.99-2.25,2.3-2.27.24,0,1.57-.13,2.65.33h-.02ZM15.98,18.92c1.46,0,1.52-.06,1.52-1.53s-.07-1.52-1.54-1.52-1.5.08-1.5,1.51.06,1.54,1.52,1.54Z"/>
</svg>