<?xml version="1.0" encoding="UTF-8"?>
<svg id="Layer_1" data-name="Layer 1" xmlns="http://www.w3.org/2000/svg" viewBox="0 0 32 32">
  <defs>
    <style>
      .cls-1 {
        stroke-width: 0px;
      }
    </style>
  </defs>
  <path class="cls-1" d="M27.02,7.65h-1.75c-.68,0-1.29-.38-1.57-.98l-1.02-2.1c-.4-.83-1.24-1.35-2.17-1.35h-9.01c-.92,0-1.76.52-2.17,1.35l-1.02,2.1c-.29.6-.9.98-1.57.98h-1.75c-2.77,0-5.01,2.24-5.01,5.01v11.25c0,2.77,2.24,5.01,5.01,5.01h21.98c2.77,0,5.01-2.24,5.01-5.01v-11.25c0-2.77-2.24-5.01-5.01-5.01h.03ZM15.85,23.62c-2.94,0-5.33-2.38-5.33-5.33s2.38-5.33,5.33-5.33,5.33,2.38,5.33,5.33-2.38,5.33-5.33,5.33ZM23.64,14.78c-.66,0-1.2-.54-1.2-1.2s.54-1.2,1.2-1.2,1.2.54,1.2,1.2-.54,1.2-1.2,1.2Z"/>
</svg>