<?xml version="1.0" encoding="UTF-8"?>
<svg id="Layer_1" data-name="Layer 1" xmlns="http://www.w3.org/2000/svg" viewBox="0 0 32 32">
  <defs>
    <style>
      .cls-1 {
        stroke-width: 0px;
      }
    </style>
  </defs>
  <path class="cls-1" d="M6.73,11.95H2.05C.92,11.95,0,12.86,0,13.99v15.96c0,1.13.92,2.05,2.05,2.05h4.68c1.13,0,2.05-.92,2.05-2.05v-15.96c0-1.13-.92-2.05-2.05-2.05Z"/>
  <path class="cls-1" d="M29.95,6.41h-4.68c-1.13,0-2.05.92-2.05,2.05v21.48c0,1.13.92,2.05,2.05,2.05h4.68c1.13,0,2.05-.92,2.05-2.05V8.46c0-1.13-.92-2.05-2.05-2.05Z"/>
  <path class="cls-1" d="M18.35,0h-4.68c-1.13,0-2.05.92-2.05,2.05v27.89c0,1.13.92,2.05,2.05,2.05h4.68c1.13,0,2.05-.92,2.05-2.05V2.05c0-1.13-.92-2.05-2.05-2.05Z"/>
</svg>