<?xml version="1.0" encoding="UTF-8"?>
<svg id="Layer_1" data-name="Layer 1" xmlns="http://www.w3.org/2000/svg" viewBox="0 0 32 32">
  <defs>
    <style>
      .cls-1 {
        fill: #000;
        stroke-width: 0px;
      }
    </style>
  </defs>
  <path class="cls-1" d="M11.38,20.41c.95-.97,1.8-1.85,2.65-2.72,4.16-4.16,8.34-8.32,12.5-12.48,1.07-1.05,2.46-1.36,3.62-.8,2.02.92,2.48,3.45.88,5.06-2.31,2.34-4.65,4.67-6.98,6.98-3.33,3.33-6.67,6.67-10,10-1.8,1.8-3.5,1.8-5.3,0-2.58-2.58-5.18-5.16-7.76-7.74-1.12-1.12-1.29-2.68-.51-3.89,1.09-1.73,3.36-1.97,4.84-.51,1.73,1.7,3.43,3.43,5.13,5.16.27.27.54.56.88.95h.05Z"/>
</svg>