<?xml version="1.0" encoding="UTF-8"?>
<svg id="Layer_1" data-name="Layer 1" xmlns="http://www.w3.org/2000/svg" viewBox="0 0 32 32">
  <defs>
    <style>
      .cls-1 {
        fill: #000;
        stroke-width: 0px;
      }
    </style>
  </defs>
  <path class="cls-1" d="M16.01,31.99C7.18,31.99.02,24.83.01,16,.01,7.12,7.18-.02,16.11,0,24.85,0,32.02,7.23,32,16.02c-.02,8.83-7.18,15.98-16,15.98h0ZM15.97,30.02c7.76,0,14.06-6.27,14.08-14.01.02-7.7-6.29-14.05-13.96-14.06C8.29,1.95,1.98,8.23,1.98,15.99s6.3,14.02,13.99,14.02h0Z"/>
  <path class="cls-1" d="M15.04,11.45c0-1.49-.02-2.98,0-4.47.01-.62.4-.98.95-.98s.91.36.97.97c.02.2.01.4.01.6,0,2.33.02,4.67-.01,7,0,.62.16,1,.7,1.35,1.55.99,3.07,2.04,4.59,3.08.71.48.89,1.02.54,1.55-.33.49-.91.54-1.59.09-1.85-1.23-3.69-2.47-5.55-3.69-.47-.3-.64-.68-.64-1.22.02-1.42,0-2.84,0-4.27h.03Z"/>
</svg>