<?xml version="1.0" encoding="UTF-8"?>
<svg id="Layer_1" data-name="Layer 1" xmlns="http://www.w3.org/2000/svg" viewBox="0 0 32 32">
  <defs>
    <style>
      .cls-1 {
        fill: #000;
        stroke-width: 0px;
      }
    </style>
  </defs>
  <path class="cls-1" d="M.04,15.98C-.21,7.41,7.33-.11,16.19,0c8.34.1,15.89,7.26,15.77,16.27-.12,8.47-7.41,15.89-16.3,15.73C7.29,31.85-.21,24.63.04,15.98ZM15.99,3.06c-7.05-.01-12.81,5.74-12.94,12.7-.14,6.98,5.56,13.16,12.88,13.18,7.13.01,12.95-5.73,12.96-12.8,0-7.29-5.69-13.06-12.89-13.07Z"/>
  <path class="cls-1" d="M14.2,12.29c0-1.69,0-3.39,0-5.08,0-.83.14-.96.96-.96.55,0,1.1,0,1.65,0,.8,0,.96.15.96.97,0,2.72.01,5.45,0,8.17,0,.53.13.88.59,1.18,1.18.79,2.32,1.63,3.46,2.47.72.52.76.73.27,1.46-.32.47-.65.94-.97,1.42-.31.47-.7.56-1.16.23-1.78-1.29-3.56-2.57-5.31-3.9-.24-.18-.41-.61-.41-.93-.04-1.67-.02-3.34-.02-5.01Z"/>
</svg>