<?xml version="1.0" encoding="UTF-8"?>
<svg id="Layer_1" data-name="Layer 1" xmlns="http://www.w3.org/2000/svg" viewBox="0 0 32 32">
  <defs>
    <style>
      .cls-1 {
        stroke-width: 0px;
      }
    </style>
  </defs>
  <path class="cls-1" d="M16.05,16.93c-1.2,1.22-2.31,2.34-3.41,3.44-3.76,3.77-7.52,7.52-11.28,11.28-.36.36-.69.43-1.02.23-.3-.19-.42-.49-.3-.82.06-.17.19-.33.33-.46,4.76-4.76,9.52-9.53,14.27-14.29.1-.1.19-.2.32-.33-.11-.13-.21-.24-.33-.36C9.95,10.92,5.25,6.24.56,1.54c-.1-.1-.21-.2-.32-.32C-.01.91,0,.49.29.22c.27-.26.66-.27.96-.01.13.1.23.23.34.34,4.7,4.7,9.4,9.4,14.12,14.1.09.09.17.17.3.27.11-.1.23-.2.33-.3,4.7-4.7,9.4-9.4,14.1-14.1.11-.11.23-.24.36-.34.29-.23.67-.21.93.03.27.26.3.66.07.96-.1.14-.24.26-.36.39-4.69,4.69-9.37,9.37-14.06,14.05-.1.1-.24.19-.39.29.17.19.26.29.36.4,4.72,4.72,9.43,9.43,14.13,14.13.13.13.26.24.37.39.21.29.17.69-.07.93s-.65.29-.93.07c-.11-.09-.2-.19-.3-.29-4.73-4.73-9.46-9.46-14.19-14.2-.1-.1-.17-.24-.3-.43v.04Z"/>
</svg>