<?xml version="1.0" encoding="UTF-8"?>
<svg id="Layer_1" data-name="Layer 1" xmlns="http://www.w3.org/2000/svg" viewBox="0 0 32 32">
  <defs>
    <style>
      .cls-1 {
        fill: #000;
        stroke-width: 0px;
      }
    </style>
  </defs>
  <path class="cls-1" d="M26.25,26.72c-.53-.21-1.36-.49-2.12-.9-.71-.38-1.26-.42-1.89.14-.38.34-.87.61-1.35.77-.61.21-.85.57-.86,1.19-.01.62-.1,1.22-.18,1.84-.15,1.29-1.07,2.18-2.36,2.21-1.19.04-2.37.03-3.56,0-1.29-.04-2.22-.92-2.37-2.21-.09-.71-.18-1.41-.21-2.12-.03-.45-.24-.64-.62-.82-.62-.29-1.24-.61-1.78-1.02-.45-.34-.83-.4-1.33-.14-.58.32-1.2.57-1.81.82-1.2.49-2.4.1-3.08-1.01-.61-.98-1.19-1.99-1.74-3.02-.62-1.14-.33-2.36.71-3.17.61-.45,1.25-.87,1.83-1.35.18-.15.3-.45.32-.69.04-.85.04-1.7,0-2.55,0-.24-.15-.53-.33-.68-.57-.47-1.19-.86-1.78-1.3-1.11-.83-1.38-2.07-.71-3.27.54-.97,1.09-1.94,1.67-2.89.71-1.17,1.93-1.55,3.19-1.01.66.28,1.29.62,1.96.86.25.09.62.04.87-.08.72-.35,1.41-.76,2.08-1.2.23-.15.45-.45.51-.72.14-.69.16-1.41.25-2.12C11.71.94,12.63.06,13.96.02c1.16-.03,2.32-.03,3.48,0,1.33.03,2.26.91,2.41,2.23.09.82-.05,1.79.34,2.44.37.59,1.35.77,1.94,1.29.73.64,1.39.59,2.15.13.42-.25.9-.43,1.35-.62,1.14-.45,2.35-.1,2.99.93.66,1.05,1.28,2.11,1.84,3.19.56,1.05.27,2.26-.67,3.01-.61.48-1.29.9-1.88,1.4-.19.16-.33.49-.34.74-.04.8-.04,1.6,0,2.41.01.28.15.63.35.81.56.48,1.19.86,1.77,1.31,1.07.82,1.34,2.05.69,3.22-.54,1-1.12,1.98-1.7,2.95-.47.8-1.19,1.19-2.45,1.24h.01ZM8.45,23.52c.2.1.42.19.61.3,1.06.61,2.13,1.2,3.17,1.86.28.18.57.52.63.83.16.93.23,1.88.32,2.83.06.69.39,1.02,1.1,1.01.95-.03,1.89-.03,2.84,0,.71.01,1.05-.32,1.1-1.01.08-.92.13-1.84.3-2.75.06-.34.39-.72.71-.92.98-.64,2.05-1.17,3.04-1.81.43-.28.8-.34,1.25-.13.83.39,1.68.76,2.53,1.15.57.27,1,.16,1.31-.4.49-.87.97-1.73,1.49-2.59.35-.59.21-1.01-.33-1.39-.76-.53-1.54-1.04-2.23-1.64-.27-.24-.45-.69-.47-1.07-.06-1.17,0-2.36-.03-3.54-.01-.51.08-.86.51-1.15.74-.51,1.46-1.05,2.2-1.58.68-.49.73-.74.3-1.49-.45-.81-.92-1.6-1.39-2.4-.42-.72-.68-.8-1.45-.45-.82.37-1.64.73-2.46,1.11-.43.2-.78.14-1.19-.13-1.02-.64-2.1-1.19-3.11-1.83-.29-.19-.61-.56-.67-.88-.18-.93-.23-1.88-.32-2.83-.06-.66-.39-.98-1.06-.97-.95.01-1.89,0-2.84,0-.82,0-1.05.21-1.14,1.04-.1.9-.2,1.79-.27,2.69-.04.52-.3.77-.76,1-1.02.53-2.03,1.11-2.99,1.74-.45.29-.83.37-1.31.14-.81-.39-1.64-.73-2.46-1.12-.59-.29-1.04-.18-1.36.42-.47.85-.95,1.69-1.45,2.53-.38.62-.23,1.05.34,1.44.74.51,1.45,1.06,2.2,1.57.42.29.53.66.51,1.15-.05,1.15-.05,2.31,0,3.46.03.53-.09.91-.53,1.21-.74.51-1.45,1.06-2.2,1.57-.54.38-.69.8-.33,1.39.52.85,1.01,1.72,1.49,2.59.32.57.74.67,1.31.4.82-.38,1.64-.74,2.46-1.11.19-.09.39-.15.63-.24v.03Z"/>
  <path class="cls-1" d="M15.66,22.43c-3.55,0-6.4-2.89-6.39-6.44,0-3.57,2.9-6.43,6.49-6.4,3.54.03,6.38,2.92,6.35,6.48-.01,3.54-2.9,6.39-6.46,6.38h.01ZM20.46,16.02c0-2.61-2.11-4.75-4.73-4.76-2.61-.01-4.75,2.1-4.77,4.71-.03,2.64,2.12,4.8,4.77,4.8s4.73-2.13,4.75-4.75h-.01Z"/>
</svg>