<?xml version="1.0" encoding="UTF-8"?>
<svg id="Layer_1" data-name="Layer 1" xmlns="http://www.w3.org/2000/svg" viewBox="0 0 32 32">
  <defs>
    <style>
      .cls-1 {
        stroke-width: 0px;
      }
    </style>
  </defs>
  <path class="cls-1" d="M6.81,3.05c.19.07.36.12.51.21.66.37,1.3.76,1.95,1.17.15.09.27.07.42,0,.88-.37,1.77-.73,2.65-1.11.09-.04.21-.15.22-.24.19-.7.36-1.41.54-2.11.15-.6.34-.76.96-.84,1.3-.15,2.61-.15,3.91,0,.57.06.78.24.91.78.18.7.36,1.41.52,2.13.04.16.12.24.28.3.88.34,1.77.72,2.64,1.09.16.07.27.07.42-.01.64-.39,1.3-.78,1.95-1.17.36-.22.69-.19,1.02.06,1.11.85,2.1,1.84,2.95,2.95.3.39.31.64.06,1.06-.37.64-.76,1.29-1.15,1.92-.09.15-.09.25,0,.42.37.87.75,1.75,1.09,2.64.06.16.13.24.3.28.69.16,1.38.34,2.07.51.61.15.76.34.84.99.15,1.29.15,2.56,0,3.85-.07.61-.24.81-.84.96-.7.18-1.41.34-2.11.54-.09.03-.21.13-.24.24-.28.93-.64,1.83-1.12,2.68-.09.15-.06.25.01.39.39.64.76,1.27,1.15,1.92.25.43.24.67-.04,1.06-.85,1.11-1.84,2.1-2.95,2.95-.33.25-.66.28-1.02.06-.64-.39-1.3-.78-1.95-1.17-.15-.09-.25-.09-.42-.03-.88.39-1.77.75-2.67,1.11-.13.06-.22.12-.25.27-.16.7-.34,1.39-.52,2.1-.15.61-.34.78-.97.85-1.29.15-2.56.15-3.85,0-.61-.07-.82-.22-.97-.82-.18-.7-.34-1.41-.54-2.11-.03-.09-.13-.21-.22-.24-.9-.37-1.8-.75-2.68-1.12-.15-.06-.25-.07-.39.01-.64.39-1.3.78-1.95,1.17-.37.22-.7.21-1.05-.06-1.11-.85-2.1-1.84-2.95-2.95-.27-.34-.28-.67-.06-1.05.39-.64.78-1.3,1.17-1.95.09-.13.07-.24,0-.39-.37-.88-.75-1.77-1.11-2.67-.06-.16-.13-.22-.28-.27-.69-.16-1.38-.34-2.07-.52-.63-.15-.78-.34-.85-.97-.15-1.29-.15-2.59,0-3.88.07-.6.24-.79.82-.94.7-.18,1.41-.36,2.13-.52.15-.03.21-.12.27-.25.36-.9.72-1.78,1.11-2.67.07-.16.07-.27-.02-.42-.39-.64-.76-1.27-1.15-1.92-.25-.42-.24-.67.06-1.06.84-1.09,1.81-2.08,2.92-2.91.16-.12.37-.19.55-.3v.02ZM23.73,16.06c0-4.27-3.42-7.73-7.69-7.75-4.26,0-7.73,3.43-7.75,7.67,0,4.29,3.42,7.75,7.7,7.76,4.26,0,7.72-3.43,7.73-7.67h0Z"/>
</svg>