<?xml version="1.0" encoding="UTF-8"?>
<svg id="Layer_1" data-name="Layer 1" xmlns="http://www.w3.org/2000/svg" viewBox="0 0 32 32">
  <defs>
    <style>
      .cls-1 {
        stroke-width: 0px;
      }
    </style>
  </defs>
  <path class="cls-1" d="M7.36,30.17v-4.78c0-.26-.05-.33-.33-.33h-3.92c-1.35,0-2.43-.7-2.89-1.89-.13-.35-.22-.75-.22-1.14V5.55c0-1.67,1.3-2.98,2.97-3.02h25.92c1.39,0,2.53.75,2.95,2.03.11.35.16.73.16,1.12v16.22c0,1.87-1.28,3.17-3.17,3.17h-14.3c-.16,0-.35.07-.49.16-2.16,1.59-4.32,3.19-6.48,4.8-.05.05-.13.09-.24.16l.04-.02ZM16.02,7.57H5.86c-.44.04-.73.38-.73.82s.31.75.73.79h20.3c.48-.04.79-.42.75-.88-.04-.46-.38-.75-.92-.75h-9.98v.02ZM16.04,12.98H5.84c-.37.04-.66.31-.71.66-.05.4.13.77.49.9.16.05.33.07.49.07h20.06c.42-.04.73-.38.73-.81,0-.49-.35-.82-.9-.82h-9.98ZM16.02,18.39H5.84c-.38.04-.7.33-.73.71-.04.42.16.77.57.88.15.04.31.05.48.05h20.05c.4-.05.7-.38.71-.79,0-.51-.35-.84-.92-.84h-9.98v-.02Z"/>
</svg>