<?xml version="1.0" encoding="UTF-8"?>
<svg id="Layer_1" data-name="Layer 1" xmlns="http://www.w3.org/2000/svg" viewBox="0 0 32 32">
  <defs>
    <style>
      .cls-1 {
        fill: #000;
        stroke-width: 0px;
      }
    </style>
  </defs>
  <path class="cls-1" d="M6.14,25.47c-1.68-1.11-3.09-2.4-4.18-4.02C-1.34,16.53-.41,10.39,4.26,6.45,8.33,2.99,13.1,1.81,18.36,2.4c3.92.44,7.37,1.96,10.18,4.8,2.19,2.22,3.46,4.87,3.46,8.02,0,3.51-1.52,6.37-4.1,8.66-3.51,3.12-7.71,4.36-12.32,4.31-.67,0-1.34-.13-2.04-.15-.34,0-.67.05-.98.15-1.88.67-3.79,1.31-5.67,2.04-.72.26-1.34.23-1.86-.36-.49-.57-.44-1.19-.1-1.83.41-.83.8-1.68,1.24-2.58l-.03.03Z"/>
</svg>