<?xml version="1.0" encoding="UTF-8"?>
<svg id="Layer_1" data-name="Layer 1" xmlns="http://www.w3.org/2000/svg" viewBox="0 0 32 32">
  <defs>
    <style>
      .cls-1 {
        fill: #000;
        stroke-width: 0px;
      }
    </style>
  </defs>
  <path class="cls-1" d="M7.03,25.2H2.04C.82,25.2,0,24.4,0,23.19V3.5C0,2.23.81,1.46,2.11,1.46h27.69c1.43,0,2.2.77,2.2,2.2v19.72c-.09,1.06-.86,1.79-1.91,1.82-.65.02-1.31,0-1.96,0-3.95,0-7.92,0-11.87.01-.26,0-.57.11-.77.27-2.19,1.79-4.36,3.62-6.54,5.42-.18.16-.38.32-.61.38-.66.21-1.26-.29-1.27-1.08-.01-1.46,0-2.92,0-4.38v-.63h-.02ZM2.02,3.49v19.72h5.82c.83,0,1.19.36,1.19,1.19v3.24c0,.15.01.29.02.51.17-.14.29-.23.41-.32,1.69-1.4,3.38-2.79,5.05-4.21.36-.3.73-.44,1.21-.44,4.57.01,9.13,0,13.71,0,.18,0,.35-.01.53-.02V3.48H2.02Z"/>
  <path class="cls-1" d="M16.01,16.38c-1.69,0-3.06-1.34-3.07-3.03-.01-1.7,1.37-3.1,3.06-3.1s3.05,1.39,3.05,3.06-1.35,3.05-3.04,3.06ZM17.04,13.35c0-.57-.45-1.06-1.01-1.08-.57-.02-1.08.47-1.07,1.06,0,.57.46,1.05,1.04,1.05s1.05-.46,1.05-1.04h0Z"/>
  <path class="cls-1" d="M11.76,13.34c0,1.69-1.37,3.04-3.05,3.04s-3.05-1.37-3.06-3.05c0-1.68,1.42-3.1,3.1-3.07,1.68.02,3.03,1.4,3.02,3.09ZM8.66,14.38c.57.03,1.07-.41,1.12-.97.05-.59-.43-1.1-1-1.14-.54-.02-1.06.45-1.1,1-.03.55.43,1.07.99,1.1Z"/>
  <path class="cls-1" d="M23.24,16.38c-1.69,0-3.04-1.37-3.03-3.06,0-1.69,1.36-3.05,3.04-3.06,1.68,0,3.1,1.42,3.07,3.1-.02,1.68-1.4,3.03-3.09,3.03ZM23.25,14.38c.56,0,1.06-.47,1.07-1.02.01-.56-.51-1.09-1.07-1.08-.56,0-1.04.5-1.04,1.06s.47,1.05,1.04,1.05Z"/>
</svg>