<?xml version="1.0" encoding="UTF-8"?>
<svg id="Layer_1" data-name="Layer 1" xmlns="http://www.w3.org/2000/svg" viewBox="0 0 32 32">
  <defs>
    <style>
      .cls-1 {
        fill: #000;
        stroke-width: 0px;
      }
    </style>
  </defs>
  <path class="cls-1" d="M.02,20.14C.02,17.35-.02,14.56.03,11.77c.03-1.92,1.66-3.5,3.59-3.5,5.52-.02,11.04-.02,16.57,0,1.93,0,3.6,1.65,3.61,3.58.03,5.56.03,11.12,0,16.69-.01,2-1.76,3.53-3.76,3.52-5.42-.03-10.84-.01-16.26-.02-2.1,0-3.71-1.48-3.74-3.57-.05-2.77-.01-5.54-.01-8.31h0ZM3.32,20.11c0,2.55,0,5.1,0,7.65,0,.89.08.97.96.97,5.04,0,10.08,0,15.12,0,.99,0,1.08-.09,1.08-1.06,0-5.02,0-10.04,0-15.06,0-.96-.07-1.03-1.02-1.03-5.1,0-10.2,0-15.3,0-.78,0-.83.05-.83.81,0,2.57,0,5.14,0,7.71Z"/>
  <path class="cls-1" d="M32,11.97c0,2.71,0,5.42,0,8.13,0,2.12-1.6,3.73-3.72,3.74-.32,0-.64,0-.96,0-.96,0-1.66-.6-1.74-1.47-.08-.86.53-1.63,1.43-1.8.12-.02.24-.02.36-.02q1.3-.03,1.3-1.36c0-4.88,0-9.76,0-14.64,0-1.1-.1-1.19-1.21-1.19-4.88,0-9.76,0-14.64,0q-1.29,0-1.31,1.28c-.01.9-.43,1.5-1.21,1.73-.86.26-1.89-.23-2.02-1.11-.2-1.38-.22-2.77.82-3.92.74-.82,1.65-1.28,2.75-1.28,5.5,0,11-.01,16.5,0,1.98,0,3.63,1.68,3.64,3.66,0,2.75,0,5.5,0,8.25Z"/>
</svg>