<?xml version="1.0" encoding="UTF-8"?>
<svg id="Layer_1" data-name="Layer 1" xmlns="http://www.w3.org/2000/svg" viewBox="0 0 32 32">
  <defs>
    <style>
      .cls-1 {
        fill: #000;
        stroke-width: 0px;
      }
    </style>
  </defs>
  <path class="cls-1" d="M11.71,32H3.91c-1.79,0-2.85-1.06-2.85-2.85v-15.73c0-1.75,1.06-2.82,2.82-2.82h15.73c1.79,0,2.85,1.06,2.85,2.85v15.73c0,1.75-1.06,2.82-2.82,2.82h-7.93ZM11.74,29.77h7.83c.62,0,.69-.07.69-.69v-15.59c0-.62-.07-.69-.69-.69H3.95c-.65,0-.69.03-.69.72v15.52c0,.69,0,.72.76.72h7.73Z"/>
  <path class="cls-1" d="M24.55,21.32v-2.13h3.54c.58,0,.65-.07.65-.65V2.92c0-.69,0-.72-.76-.72h-15.52c-.69,0-.76.07-.76.72v5.6h-2.09V2.71c0-1.61,1.1-2.71,2.71-2.71h15.86c1.65,0,2.75,1.1,2.75,2.75v15.86c0,1.65-1.1,2.75-2.75,2.75h-3.64v-.03Z"/>
</svg>