<?xml version="1.0" encoding="UTF-8"?>
<svg id="Layer_1" data-name="Layer 1" xmlns="http://www.w3.org/2000/svg" viewBox="0 0 32 32">
  <defs>
    <style>
      .cls-1 {
        fill: #000;
        stroke-width: 0px;
      }
    </style>
  </defs>
  <path class="cls-1" d="M31.39,29.21H1.07c-.58,0-1.07-.47-1.07-1.07V4.29c0-.58.47-1.07,1.07-1.07h30.32c.47.23.61.62.61,1.14v23.71c0,.51-.14.89-.61,1.14ZM1.56,27.57h28.86V10.93H1.56v16.64ZM1.54,9.3h28.86v-4.46H1.54v4.46Z"/>
  <path class="cls-1" d="M10.71,21.56h1.36c.24,1.39-1.06,2.9-2.63,3.01-.7.06-1.41.04-2.11,0-1.46-.09-2.7-1.34-2.74-2.8-.04-1.67-.04-3.34,0-5.01.03-1.15.61-2.05,1.66-2.49,1.4-.6,2.88-.61,4.28.01,1.06.47,1.59,1.39,1.63,2.63h-1.39c-.67-1.37-2.23-1.95-3.7-1.36-.63.25-.98.74-.99,1.42-.01,1.51-.02,3.03,0,4.55.01.85.57,1.45,1.43,1.52.56.04,1.15.04,1.71,0,.87-.07,1.3-.64,1.48-1.49h0Z"/>
  <path class="cls-1" d="M27.45,16.22c-.45,0-.81.01-1.15,0-.14,0-.31-.04-.41-.13-.22-.18-.41-.55-.63-.57-.65-.07-1.34-.1-1.95.06-.67.18-.64,1.61.01,2.06,1.02.7,2.05,1.35,3.06,2.05,1.53,1.08,1.5,3.8-.12,4.59-1.22.6-2.56.56-3.81-.02-.72-.33-1.07-1-1.08-1.93.61.11,1.29-.38,1.72.49.08.15.41.22.64.26.28.04.57.02.85.01.5,0,1.06.1,1.27-.55.23-.72,0-1.35-.61-1.77-.96-.65-1.9-1.35-2.9-1.93-1.38-.79-1.42-4.09.32-4.68,1.15-.39,2.33-.42,3.46.01.86.33,1.21,1.07,1.34,2.05h-.01Z"/>
  <path class="cls-1" d="M13.69,22.31c.46,0,.84-.01,1.2,0,.13,0,.3.09.38.19.44.54,2.12.81,2.68.41.52-.38.44-1.62-.15-2.02-1.02-.7-2.02-1.41-3.07-2.04-1.42-.86-1.45-3.93.17-4.61,1.24-.52,2.54-.54,3.76.02.75.34,1.1,1.03,1.13,1.92-.66,0-1.36.33-1.77-.51-.07-.12-.34-.18-.53-.2-.31-.03-.62-.02-.93,0-.5.01-1.06-.12-1.26.54-.23.73-.02,1.34.62,1.77.96.65,1.91,1.34,2.9,1.93,1.4.84,1.38,4.05-.29,4.65-1.17.42-2.37.44-3.53,0-.83-.32-1.18-1.05-1.3-2.02v-.02Z"/>
  <path class="cls-1" d="M28.92,6.36v1.43h-1.43v-1.43h1.43Z"/>
  <path class="cls-1" d="M22.82,6.37v1.42h-1.43v-1.42h1.43Z"/>
  <path class="cls-1" d="M25.86,6.36v1.43h-1.42v-1.43h1.42Z"/>
</svg>