<?xml version="1.0" encoding="UTF-8"?>
<svg id="Layer_1" data-name="Layer 1" xmlns="http://www.w3.org/2000/svg" viewBox="0 0 32 32">
  <defs>
    <style>
      .cls-1 {
        fill: #000;
        stroke-width: 0px;
      }
    </style>
  </defs>
  <path class="cls-1" d="M3.92,7.99h-1.5c-.99,0-1.67-.65-1.7-1.56-.03-.96.62-1.64,1.64-1.7h26.84c.23,0,.48,0,.71.03.88.14,1.42.85,1.36,1.73-.06.85-.71,1.47-1.59,1.53h-1.64c-.11,1.13-.23,2.18-.31,3.26-.43,4.82-.85,9.64-1.3,14.46-.06.77-.11,1.53-.26,2.3-.4,2.18-2.21,3.8-4.42,3.97h-10.91c-2.86,0-4.85-1.87-5.1-4.73-.51-5.78-1.02-11.54-1.56-17.32-.06-.62-.14-1.28-.23-1.96h-.03ZM7.3,8.05v.26c.28,3.09.57,6.18.85,9.27.28,3.17.57,6.32.85,9.5.11,1.13.71,1.64,1.84,1.64h10.26c1.16,0,1.73-.54,1.87-1.64.06-.57.11-1.13.17-1.7.43-4.85.88-9.69,1.3-14.57.09-.94.14-1.84.23-2.78H7.3v.03Z"/>
  <path class="cls-1" d="M15.97,3.26h-4.31c-1.05,0-1.79-.65-1.79-1.62s.71-1.64,1.76-1.64h8.67c1.05,0,1.76.68,1.76,1.64s-.71,1.62-1.79,1.62h-4.31Z"/>
</svg>