<?xml version="1.0" encoding="UTF-8"?>
<svg id="Layer_1" data-name="Layer 1" xmlns="http://www.w3.org/2000/svg" viewBox="0 0 32 32">
  <defs>
    <style>
      .cls-1 {
        stroke-width: 0px;
      }
    </style>
  </defs>
  <path class="cls-1" d="M18.06,10.64v3.2c0,.42.16.63.56.73.99.26,1.98.5,2.94.82,3.02.97,4.79,3.04,5.2,6.21.34,2.65-1.15,5.45-3.68,6.88-1.26.72-2.64.97-4.07.89-.63-.04-.96.07-.97.83-.01,1.03-.99,1.82-2.01,1.81-1.08,0-2.02-.8-2.04-1.86,0-.69-.3-.8-.89-.77-2.71.13-4.93-.85-6.55-3.07-1.13-1.55-1.48-3.33-1.29-5.2.1-1.05.95-1.78,1.96-1.81,1.06-.04,1.85.56,2.09,1.63.07.33.09.69.1,1.03.03,2.05,1.19,3.25,3.21,3.3,1.55.03,1.3.1,1.32-1.28v-5.69c0-.5-.14-.76-.65-.89-.87-.22-1.73-.47-2.61-.69-3.41-.86-5.88-4.29-5.45-7.63.46-3.7,3.44-6.39,7.08-6.45h.34c.71,0,1.15-.35,1.32-1.05.23-.97,1.15-1.65,2.16-1.58,1.02.07,1.85.85,1.88,1.88.01.63.26.79.83.76,2.49-.14,4.6.66,6.24,2.58,1.38,1.62,1.86,3.54,1.65,5.63-.13,1.2-1,1.91-2.18,1.86-1.02-.04-1.85-.87-1.95-1.99-.03-.26,0-.5-.01-.76-.03-1.86-.95-2.9-2.8-3.17-1.69-.24-1.73-.22-1.73,1.43v2.42h-.01ZM18.06,21.94v1.73c0,1.15.57,1.67,1.72,1.56,1.46-.13,2.65-1.22,2.8-2.55.16-1.61-.62-2.85-2.11-3.33-.62-.2-1.25-.34-1.86-.53-.39-.11-.56-.01-.54.42.01.9,0,1.81,0,2.71h0ZM13.96,10.04v-1.81c0-1.68-.03-1.69-1.71-1.51-1.56.19-2.68,1.23-2.81,2.61-.14,1.62.65,2.81,2.22,3.31.54.17,1.12.3,1.66.47.43.13.65.06.62-.46-.03-.87,0-1.75,0-2.64h.01Z"/>
</svg>