<?xml version="1.0" encoding="UTF-8"?>
<svg id="Layer_1" data-name="Layer 1" xmlns="http://www.w3.org/2000/svg" viewBox="0 0 32 32">
  <defs>
    <style>
      .cls-1 {
        fill: #000;
        stroke-width: 0px;
      }
    </style>
  </defs>
  <path class="cls-1" d="M16.03,1.47h10.93c3.12,0,5.06,1.97,5.06,5.06v3.63c0,1.15-.77,2-1.78,2s-1.78-.85-1.78-2v-3.85c0-.87-.38-1.28-1.26-1.28H4.88c-.87,0-1.26.38-1.26,1.26v3.96c0,1.04-.74,1.83-1.72,1.89-.87.03-1.8-.68-1.83-1.64-.05-1.69-.11-3.42.08-5.11C.43,3.03,2.4,1.47,4.8,1.44h11.21l.03.03Z"/>
  <path class="cls-1" d="M14.29,24.95v-15.77c0-1.07.41-1.69,1.23-1.97,1.01-.33,2.08.3,2.27,1.34.05.27.05.55.05.79v15.61c.41-.33.74-.57,1.04-.85,1.5-1.26,3.01-2.51,4.51-3.74.63-.52,1.31-.63,2.02-.22.68.38,1.04,1.01.87,1.78-.08.41-.33.87-.66,1.15-2.73,2.32-5.52,4.65-8.28,6.94-.9.74-1.69.74-2.6,0-2.76-2.3-5.55-4.62-8.31-6.91-.79-.68-.93-1.72-.3-2.51s1.72-.9,2.57-.22c1.67,1.37,3.33,2.76,5,4.15.14.11.3.25.57.46v-.03Z"/>
</svg>