<?xml version="1.0" encoding="UTF-8"?>
<svg id="Layer_1" data-name="Layer 1" xmlns="http://www.w3.org/2000/svg" viewBox="0 0 32 32">
  <defs>
    <style>
      .cls-1 {
        fill: #000;
        stroke-width: 0px;
      }
    </style>
  </defs>
  <path class="cls-1" d="M15.95,31.44H7.09c-3.57,0-6.27-2.21-6.98-5.7C.02,25.32,0,24.89,0,24.47v-13.99C0,6.52,3.01,3.51,6.97,3.47h2.96c.55,0,.9.24,1.04.66.19.61-.21,1.16-.91,1.21-.58.03-1.18,0-1.77.01-.79.02-1.59-.02-2.37.12-2.32.42-4,2.4-4.01,4.75-.03,4.83-.03,9.65,0,14.47.02,2.7,2.22,4.86,4.92,4.88,6.12.02,12.24.02,18.36,0,2.68,0,4.89-2.15,4.91-4.83.05-4.85.05-9.7,0-14.56-.02-2.57-2.09-4.67-4.67-4.79-1.05-.06-2.08-.01-3.13-.02-.21,0-.42,0-.62-.06-.42-.1-.64-.4-.69-.81-.03-.42.21-.79.59-.93.09-.03.2-.07.3-.07,1.47.03,2.96-.08,4.4.14,3.26.48,5.67,3.3,5.69,6.61.03,4.83.03,9.65,0,14.47-.03,3.76-3.07,6.73-6.85,6.75-3.06.02-6.12,0-9.18,0v-.02Z"/>
  <path class="cls-1" d="M17.05,21.05c.88-.97,1.76-1.93,2.64-2.9.58-.64,1.16-1.28,1.76-1.92.55-.59,1.07-.67,1.52-.26.43.41.37.95-.14,1.51-1.8,1.95-3.61,3.92-5.4,5.88-.22.23-.42.49-.63.73-.51.57-1.06.58-1.58.01-1.73-1.88-3.46-3.78-5.18-5.67-.35-.38-.7-.76-1.04-1.14-.37-.44-.34-.99.05-1.34.4-.36.94-.34,1.34.1,1.43,1.56,2.86,3.13,4.28,4.69.09.1.17.22.26.34.05-.02.08-.05.13-.07V2.3c0-.17,0-.35.01-.52.06-.48.45-.83.94-.81.47,0,.85.34.91.8.02.17.01.35.01.52v18.73s.07.02.1.04h.01Z"/>
</svg>