<?xml version="1.0" encoding="UTF-8"?>
<svg id="Layer_1" data-name="Layer 1" xmlns="http://www.w3.org/2000/svg" viewBox="0 0 32 32">
  <defs>
    <style>
      .cls-1 {
        fill: #000;
        stroke-width: 0px;
      }
    </style>
  </defs>
  <path class="cls-1" d="M27.5,6c-1.58,0-3.17,0-4.75-.03-.23,0-.61-.38-.64-.61-.05-1.61-.03-3.22-.03-4.8,1.81,1.81,3.6,3.6,5.41,5.41v.03Z"/>
  <path class="cls-1" d="M28.06,7.33h-5.26c-1.2,0-2.02-.82-2.04-2.02V.03c-.26,0-.43-.03-.64-.03H6.51c-1.63,0-2.4.74-2.4,2.4v27.2c0,1.63.74,2.4,2.4,2.4h19.18c1.63,0,2.4-.74,2.4-2.4V7.99c0-.2,0-.41-.03-.66ZM10.8,16.78c.33-.43.92-.49,1.38-.13.89.74,1.79,1.48,2.68,2.22.08.08.15.13.31.26v-8.45c0-.56.23-.92.66-1.05.54-.18,1.1.15,1.23.72.03.13,0,.28,0,.43v8.38c.23-.18.41-.31.56-.46.82-.66,1.61-1.35,2.4-2.02.33-.28.72-.33,1.1-.13.36.2.56.54.46.94-.05.23-.18.49-.36.61-1.48,1.25-2.96,2.48-4.44,3.73-.49.41-.92.41-1.38,0-1.48-1.23-2.96-2.48-4.44-3.7-.43-.36-.49-.92-.15-1.35ZM24.62,23.09c-.15,1.28-1.2,2.09-2.5,2.09h-6v-.03h-5.85c-1.66,0-2.71-1.05-2.71-2.71v-1.94c0-.61.41-1.07.97-1.07s.94.46.94,1.07v2.07c0,.49.2.69.66.69h11.98c.46,0,.66-.2.66-.69v-2.12c0-.56.41-.97.92-1,.49,0,.97.36.97.89,0,.92.05,1.84-.05,2.73Z"/>
</svg>