<?xml version="1.0" encoding="UTF-8"?>
<svg id="Layer_1" data-name="Layer 1" xmlns="http://www.w3.org/2000/svg" viewBox="0 0 32 32">
  <defs>
    <style>
      .cls-1 {
        fill: #000;
        stroke-width: 0px;
      }
    </style>
  </defs>
  <path class="cls-1" d="M0,15.99c.05-.1.12-.2.15-.31.3-.95.94-1.34,1.98-1.21.73.1,1.3.75,1.32,1.62.03,1.46.01,2.92.02,4.37.01,1.64-.04,3.28.09,4.91.16,1.94,1.69,3.24,3.64,3.25,4.47,0,8.95,0,13.42,0,1.38,0,2.76,0,4.13,0,2.34,0,3.8-1.48,3.8-3.83,0-2.84,0-5.67,0-8.51,0-1.17.74-1.88,1.82-1.81.68.04,1.24.48,1.46,1.14.04.13.11.25.16.38v9.47c-.07.35-.13.69-.21,1.04-.71,3.35-3.34,5.51-6.78,5.52-6.07.01-12.13,0-18.2-.01-2.79,0-5.37-1.91-6.3-4.53-.43-1.22-.37-2.47-.39-3.72,0-.39-.08-.78-.12-1.17,0-2.2,0-4.4,0-6.59Z"/>
  <path class="cls-1" d="M14.06,12.79c0-1.19-.01-2.39,0-3.58.03-2.44.07-4.87.11-7.31.02-1.14.68-1.83,1.7-1.82,1,0,1.69.74,1.7,1.84,0,2.28.01,4.56,0,6.83,0,1.32-.06,2.63-.1,3.95,0,.27,0,.54,0,.81.05.03.1.06.16.09.35-.33.71-.65,1.06-.99,1.34-1.32,2.66-2.65,4-3.97.49-.48,1.07-.66,1.75-.43.69.23,1.12.73,1.11,1.4,0,.49-.19,1.11-.52,1.45-2.52,2.59-5.08,5.14-7.65,7.69-.75.75-1.7.77-2.46.03-2.66-2.62-5.31-5.26-7.94-7.91-.7-.71-.66-1.78,0-2.43.67-.65,1.67-.66,2.42.06,1.36,1.3,2.68,2.63,4.02,3.94.15.15.31.28.47.42.06-.03.12-.05.18-.08Z"/>
</svg>