<?xml version="1.0" encoding="UTF-8"?>
<svg id="Layer_1" data-name="Layer 1" xmlns="http://www.w3.org/2000/svg" viewBox="0 0 32 32">
  <defs>
    <style>
      .cls-1 {
        fill: #000;
        stroke-width: 0px;
      }
    </style>
  </defs>
  <path class="cls-1" d="M3.45,5.85v21.98h20.29v-11.25c0-.92.38-1.53,1.1-1.81,1.1-.41,2.3.36,2.33,1.53.03.92,0,1.84,0,2.73v10.27c0,1.28-.69,1.99-1.97,1.99H1.92c-1.28,0-1.92-.66-1.92-1.92V4.29c0-1.15.61-1.84,1.76-1.84h18.38c.84,0,1.48.46,1.69,1.2.23.74-.03,1.58-.72,1.94-.36.18-.79.26-1.2.28H3.48l-.03-.03Z"/>
  <path class="cls-1" d="M12.86,20.78c-.54,0-.84-.46-.66-1,.36-.95.79-1.89,1.1-2.86.33-1.02.95-1.76,1.69-2.5,4.4-4.42,8.79-8.87,13.16-13.32.54-.54.87-.54,1.41,0,.69.69,1.38,1.38,2.07,2.07.51.51.51.79,0,1.3-4.7,4.78-9.43,9.53-14.13,14.31-.15.15-.33.28-.54.36-1.28.51-2.56,1.02-3.83,1.53-.1.05-.2.05-.28.08l.03.03Z"/>
</svg>