<?xml version="1.0" encoding="UTF-8"?>
<svg id="Layer_1" data-name="Layer 1" xmlns="http://www.w3.org/2000/svg" viewBox="0 0 32 32">
  <defs>
    <style>
      .cls-1 {
        fill: #000;
        stroke-width: 0px;
      }
    </style>
  </defs>
  <path class="cls-1" d="M24.1,1.34l-15.34,15.3s-.23.31-.31.47l-2.46,7.38c-.16.43,0,.94.31,1.25.23.23.55.35.86.35.12,0,.27,0,.39-.08l7.38-2.46s.35-.16.47-.31l15.3-15.3c.78-.78,1.25-1.83,1.25-2.97s-.43-2.19-1.25-2.97l-.74-.74c-1.6-1.6-4.33-1.6-5.93,0l.08.08ZM29.01,6.25l-15.1,15.1-4.76,1.6,1.6-4.76L25.85,3.05c.66-.66,1.8-.66,2.46,0l.74.74c.31.31.51.78.51,1.25s-.2.9-.51,1.25l-.04-.04Z"/>
  <path class="cls-1" d="M4.94,32.05h22.13c2.73,0,4.92-2.19,4.92-4.92v-13.54c0-.66-.55-1.25-1.25-1.25s-1.25.55-1.25,1.25v13.54c0,1.37-1.09,2.46-2.46,2.46H4.94c-1.37,0-2.46-1.09-2.46-2.46V5.01c0-1.37,1.09-2.46,2.46-2.46h13.54c.66,0,1.25-.55,1.25-1.25S19.18.05,18.48.05H4.94C2.2.09.02,2.27.02,5.01v22.13c0,2.73,2.19,4.92,4.92,4.92Z"/>
</svg>