<?xml version="1.0" encoding="UTF-8"?>
<svg id="Layer_1" data-name="Layer 1" xmlns="http://www.w3.org/2000/svg" viewBox="0 0 32 32">
  <defs>
    <style>
      .cls-1 {
        fill: #000;
        stroke-width: 0px;
      }
    </style>
  </defs>
  <path class="cls-1" d="M15.99,30.46H4.49C1.74,30.46-.32,28.15.04,25.44c.07-.57.3-1.17.57-1.7,3.83-6.67,7.68-13.34,11.55-20.01,1.33-2.29,4.31-2.89,6.46-1.35.57.41.99.94,1.33,1.56,2.8,4.86,5.62,9.74,8.43,14.6.99,1.72,1.99,3.42,2.96,5.13,1.08,1.9.8,4.08-.73,5.55-.89.85-1.95,1.24-3.16,1.24h-11.46ZM15.97,9.1c-1.01,0-1.97.78-2.13,1.76-.07.46-.05.96.05,1.42.5,2.52,1.03,5.02,1.54,7.54.07.32.18.57.57.6.37,0,.5-.25.57-.57.16-.78.37-1.56.5-2.34.39-1.97.78-3.94,1.12-5.94.21-1.26-.94-2.45-2.2-2.45l-.02-.02ZM15.99,26.22c1.21,0,2.22-.99,2.25-2.22,0-1.21-.99-2.22-2.22-2.22s-2.22.99-2.25,2.2c0,1.21,1.01,2.22,2.22,2.22v.02Z"/>
</svg>