<?xml version="1.0" encoding="UTF-8"?>
<svg id="Layer_1" data-name="Layer 1" xmlns="http://www.w3.org/2000/svg" viewBox="0 0 32 32">
  <defs>
    <style>
      .cls-1 {
        fill: #000;
        stroke-width: 0px;
      }
    </style>
  </defs>
  <path class="cls-1" d="M15.5,1.34c.1.04.19.09.29.12,1.67.44,2.68,1.7,2.71,3.42.02.96.01,1.92,0,2.88,0,.7-.34,1.07-.91,1.06-.54-.01-.86-.38-.87-1.04-.01-.92,0-1.83,0-2.75-.01-1.22-.69-1.9-1.91-1.9-3.73,0-7.46,0-11.19,0-1.17,0-1.86.68-1.86,1.87,0,7.35,0,14.71,0,22.06,0,1.15.67,1.83,1.83,1.84,3.75.01,7.5.01,11.25,0,1.23,0,1.87-.68,1.88-1.92,0-.87,0-1.75,0-2.62.01-.69.36-1.08.92-1.06.53.01.86.39.86,1.05,0,1.06.04,2.14-.04,3.19-.15,1.83-1.6,3.11-3.42,3.11-3.88,0-7.76,0-11.64,0-1.94,0-3.39-1.45-3.39-3.4C0,19.77,0,12.29,0,4.81c0-1.52.94-2.8,2.38-3.29.15-.05.3-.12.45-.19,4.22,0,8.44,0,12.66,0Z"/>
  <path class="cls-1" d="M32,16.31c-1.11,1.14-2.23,2.28-3.34,3.42-.78.79-1.56,1.57-2.35,2.35-.58.58-1.07.66-1.49.27-.41-.39-.33-.94.23-1.49,1.26-1.26,2.53-2.52,3.93-3.93-.39,0-.6,0-.82,0-6.37,0-12.74,0-19.11,0-.19,0-.39.02-.57,0-.51-.09-.8-.39-.78-.92.02-.5.31-.78.8-.83.19-.02.38,0,.57,0,6.41,0,12.82,0,19.23,0h.8c-.19-.24-.31-.41-.44-.56-1.28-1.48-2.56-2.96-3.84-4.44-.31-.36-.44-.81-.12-1.15.22-.23.66-.33,1-.32.21,0,.44.3.62.51,1.89,2.16,3.78,4.32,5.67,6.48v.64Z"/>
</svg>