<?xml version="1.0" encoding="UTF-8"?>
<svg id="Layer_1" data-name="Layer 1" xmlns="http://www.w3.org/2000/svg" viewBox="0 0 32 32">
  <defs>
    <style>
      .cls-1 {
        fill: #000;
        stroke-width: 0px;
      }
    </style>
  </defs>
  <path class="cls-1" d="M0,16.1c0-.12,0-.24,0-.36.75-1.07,1.41-2.22,2.26-3.2,4.16-4.83,9.44-6.97,15.8-6.35,3.4.33,6.43,1.63,9.13,3.72,2.02,1.56,3.58,3.5,4.81,5.72v.48c-.14.28-.26.58-.42.84-2.83,4.59-6.83,7.54-12.17,8.6-.75.15-1.52.26-2.27.39h-2.16c-.19-.05-.37-.11-.56-.15-1.23-.24-2.49-.36-3.67-.72-4.82-1.49-8.36-4.54-10.75-8.96ZM15.94,8.47c-.66.06-1.41.07-2.13.19-4.5.75-8.04,3.02-10.68,6.74-.28.39-.28.67,0,1.06,3.52,4.91,8.25,7.38,14.32,6.87,4.91-.41,8.73-2.81,11.54-6.84.27-.38.23-.65-.02-1.01-3.14-4.52-7.47-6.8-13.03-7Z"/>
  <path class="cls-1" d="M16.03,22.68c-3.94-.04-6.8-3.03-6.76-7.06.04-3.52,3.23-6.49,6.91-6.44,3.69.05,6.65,3.11,6.58,6.8-.07,3.83-3,6.74-6.73,6.7ZM11.72,16.03c0,2.28,2.01,4.24,4.33,4.24,2.33,0,4.31-1.97,4.33-4.31.02-2.32-2.03-4.35-4.37-4.34-2.34.01-4.3,2.02-4.29,4.41Z"/>
</svg>