<?xml version="1.0" encoding="UTF-8"?>
<svg id="Layer_1" data-name="Layer 1" xmlns="http://www.w3.org/2000/svg" viewBox="0 0 32 32">
  <defs>
    <style>
      .cls-1 {
        fill: #010101;
        stroke-width: 0px;
      }
    </style>
  </defs>
  <path class="cls-1" d="M16.05.03h8.38c3.8,0,6.85,2.59,7.48,6.3.06.42.09.84.09,1.27v14.45c0,2.05-.72,3.8-2.17,5.22-.87.87-1.75,1.78-2.65,2.65-1.39,1.39-3.11,2.05-5.04,2.08H7.54C3.32,32,0,28.68,0,24.46V7.54C0,3.32,3.32,0,7.57,0h8.47v.03ZM20.93,29.53v-3.56c.03-2.87,2.2-5.04,5.07-5.07h3.56V7.69c0-3.02-2.17-5.16-5.19-5.16H7.75c-3.05,0-5.19,2.17-5.19,5.19v16.62c0,3.05,2.17,5.19,5.19,5.19h13.21-.03ZM23.46,29.32c.15-.06.3-.09.42-.12.66-.27,1.24-.66,1.72-1.18.63-.66,1.3-1.3,1.93-1.93.57-.57,1.15-1.12,1.48-1.84.12-.24.21-.51.33-.81h-3.26c-.18,0-.39,0-.57.03-1.06.15-2.02,1.09-2.08,2.14-.06,1.21,0,2.44,0,3.74l.03-.03Z"/>
  <path class="cls-1" d="M16.02,14.78h7.45c.66.06,1.18.6,1.18,1.24s-.51,1.18-1.18,1.24h-14.66c-.6,0-1.06-.21-1.3-.78-.3-.69.15-1.54.9-1.69.18-.03.36-.03.54-.03h7.09l-.03.03Z"/>
  <path class="cls-1" d="M16.02,9.89h-7.36c-.66,0-1.15-.42-1.27-1.03-.09-.54.21-1.15.75-1.36.18-.06.36-.09.54-.09h14.6c.75,0,1.33.54,1.33,1.24s-.57,1.24-1.36,1.24h-7.27.03Z"/>
  <path class="cls-1" d="M12.34,22.14h3.56c.81,0,1.36.48,1.39,1.24,0,.72-.57,1.27-1.36,1.27h-7.12c-.81,0-1.39-.54-1.39-1.27s.57-1.24,1.39-1.24h3.56-.03Z"/>
</svg>