<?xml version="1.0" encoding="UTF-8"?>
<svg id="Layer_1" data-name="Layer 1" xmlns="http://www.w3.org/2000/svg" viewBox="0 0 32 32">
  <defs>
    <style>
      .cls-1 {
        fill: #000000;
        stroke-width: 0px;
      }
    </style>
  </defs>
  <path class="cls-1" d="M16.05,0c3.97,0,7.94,0,11.91,0,2.09,0,3.69,1.63,3.55,3.67-.04.61-.33,1.22-.59,1.79-.17.38-.48.7-.74,1.04-.44.57-1.11.68-1.65.3-.55-.39-.64-1.09-.22-1.69.21-.3.44-.58.64-.89.56-.84.07-1.82-.93-1.89-.41-.03-.82,0-1.23,0-7.45,0-14.91,0-22.36,0-.12,0-.24,0-.37,0-.49.02-.89.22-1.1.68-.2.44-.14.86.14,1.25.64.87,1.27,1.75,1.91,2.62,2.74,3.76,5.48,7.52,8.23,11.28.28.39.41.79.41,1.27-.01,2.66,0,5.32,0,7.99,0,.83.22,1.13,1,1.42.64.23,1.29.46,1.93.69,1.14.4,1.82-.08,1.82-1.27,0-2.21,0-4.41,0-6.62,0-.89.71-1.46,1.5-1.23.54.15.84.61.84,1.31,0,1.54,0,3.07,0,4.61,0,.9.04,1.8-.06,2.69-.24,2.08-2.28,3.45-4.3,2.89-1.02-.28-2.04-.63-3.01-1.06-1.4-.62-2.07-1.78-2.08-3.31-.01-2.52,0-5.05-.02-7.57,0-.29-.11-.63-.28-.87C7.75,14.6,4.5,10.14,1.25,5.68.43,4.56.23,3.34.82,2.07,1.47.68,2.6,0,4.14,0c3.97,0,7.94,0,11.91,0Z"/>
  <path class="cls-1" d="M25.84,12.49c.86-.87,1.61-1.64,2.37-2.4.34-.34.74-.46,1.21-.3.45.15.7.47.79.92.08.42-.09.77-.39,1.07-.65.65-1.29,1.29-1.94,1.94-.11.11-.21.22-.35.37.79.77,1.57,1.51,2.32,2.29.67.69.38,1.75-.52,1.98-.46.12-.84-.05-1.16-.37-.65-.64-1.29-1.29-1.94-1.94-.11-.11-.22-.21-.37-.35-.76.77-1.51,1.53-2.26,2.28-.35.36-.78.47-1.26.3-.42-.15-.67-.47-.75-.9-.08-.44.11-.8.41-1.1.73-.73,1.47-1.46,2.23-2.22-.75-.75-1.48-1.47-2.21-2.2-.32-.32-.52-.68-.43-1.14.08-.43.34-.74.76-.9.46-.17.88-.05,1.22.28.65.64,1.3,1.28,1.94,1.93.12.12.19.28.32.46Z"/>
</svg>