<?xml version="1.0" encoding="UTF-8"?>
<svg id="Layer_1" data-name="Layer 1" xmlns="http://www.w3.org/2000/svg" viewBox="0 0 32 32">
  <defs>
    <style>
      .cls-1 {
        fill: #000;
        stroke-width: 0px;
      }
    </style>
  </defs>
  <path class="cls-1" d="M28.6,18.09v12.38c0,1.11-.39,1.5-1.48,1.5H9.3c-3.42,0-5.9-2.48-5.9-5.9V1.42C3.4.38,3.8-.03,4.82-.03h17.92c3.35,0,5.85,2.49,5.85,5.86v12.27h.01ZM26.25,29.68c.01-.2.03-.35.03-.5V5.78c0-2.11-1.45-3.54-3.55-3.54H5.73v23.82c0,2.2,1.42,3.61,3.63,3.61h16.89Z"/>
  <path class="cls-1" d="M16.01,17.1h-5.63c-.47,0-.83-.16-1.07-.58-.23-.39-.21-.79.03-1.17.27-.43.67-.54,1.15-.54h11.23c.68.01,1.18.51,1.18,1.14s-.5,1.13-1.18,1.14h-5.7Z"/>
  <path class="cls-1" d="M16.03,7.95h5.59c.99,0,1.54.87,1.1,1.69-.25.47-.7.62-1.21.62h-11.02c-.8,0-1.33-.46-1.35-1.14-.01-.7.52-1.17,1.35-1.17h5.54Z"/>
  <path class="cls-1" d="M16.01,23.97h-5.63c-.99,0-1.54-.94-1.05-1.74.27-.44.7-.56,1.19-.56h11.12c.72.03,1.23.5,1.23,1.15s-.5,1.14-1.22,1.15h-5.65Z"/>
</svg>