<?xml version="1.0" encoding="UTF-8"?>
<svg id="Layer_1" data-name="Layer 1" xmlns="http://www.w3.org/2000/svg" viewBox="0 0 32 32">
  <defs>
    <style>
      .cls-1 {
        fill: #010101;
        stroke-width: 0px;
      }
    </style>
  </defs>
  <g id="Capa_6" data-name="Capa 6">
    <path class="cls-1" d="M32,16.06c0,8.78-7.22,15.94-16.03,15.94-8.8-.03-15.97-7.2-15.97-16S7.17,0,16,0s16,7.2,15.97,16.06h.03ZM9.16,8.01s-.2-.09-.26-.12c-1.17-.41-2.28-.97-3.31-1.61-.23-.15-.32-.12-.5.09-2.22,2.54-3.42,5.53-3.63,8.89,0,.23.09.29.29.29h5.82c.06-2.6.56-5.09,1.58-7.49v-.06ZM24.39,15.5l.09.03h5.82c.2,0,.2-.12.2-.26-.18-3.42-1.4-6.41-3.66-8.98-.15-.15-.23-.15-.41-.06-1.05.67-2.19,1.2-3.36,1.64-.09.03-.15.06-.26.12,1.02,2.4,1.49,4.88,1.55,7.46l.03.06ZM22.87,23.96s.03.06.06.06c1.26.47,2.46,1.05,3.63,1.73.06.03.23,0,.29-.06,2.14-2.4,3.33-5.18,3.66-8.34.03-.29-.09-.35-.35-.35h-5.32q-.44,0-.47.44c-.09,1.52-.35,3.04-.79,4.5-.2.67-.47,1.35-.7,2.02ZM9.13,23.99s-.03-.18-.06-.23c-.85-2.05-1.29-4.15-1.43-6.35,0-.29-.09-.41-.41-.41H2.37c-.26,0-.64-.06-.79.09-.12.12,0,.5,0,.76.38,2.98,1.58,5.59,3.57,7.81.15.15.23.12.41.03.99-.5,1.99-.99,2.98-1.49.2-.09.41-.18.61-.23l-.03.03ZM9.01,15.5s.18.03.2.03h5.82c.23,0,.23-.12.23-.29v-5.85c0-.23-.09-.32-.32-.32-1.4-.03-2.78-.23-4.12-.59-.23-.06-.32,0-.44.2-.56,1.35-.97,2.75-1.14,4.21-.12.85-.18,1.7-.26,2.57l.03.03ZM22.9,15.53v-.09c-.03-2.37-.5-4.62-1.4-6.82-.09-.2-.2-.18-.35-.15-1.35.35-2.72.56-4.12.59-.26,0-.32.09-.32.35v5.76c0,.26.09.32.35.32h5.85v.03ZM12.2,16.99h-2.78c-.23,0-.32.06-.32.32.12,2.08.56,4.07,1.35,6,.09.2.2.23.38.18,1.35-.35,2.72-.56,4.12-.59.23,0,.32-.09.32-.32v-5.27c0-.23-.09-.32-.32-.32-.91,0-1.84,0-2.75,0ZM19.83,16.99h-2.81c-.18,0-.29.03-.29.23v5.41c0,.18.06.23.23.26,1.43.03,2.84.26,4.24.61.18.06.26,0,.35-.18.79-1.93,1.23-3.95,1.37-6.03,0-.23-.06-.32-.29-.32h-2.81ZM25.62,5.09c-2.11-1.81-4.45-2.95-7.2-3.45.09.12.12.15.15.18,1.43,1.37,2.6,2.93,3.54,4.65.09.2.23.18.35.12.73-.32,1.46-.64,2.19-.97.32-.15.61-.32.97-.53ZM6.38,26.91c2.11,1.81,4.45,2.95,7.17,3.42-.03-.09-.06-.12-.06-.15-1.43-1.37-2.63-2.93-3.57-4.71-.09-.18-.2-.18-.35-.09-.76.32-1.52.67-2.28,1.02-.29.15-.56.32-.91.5ZM13.54,1.76s-.06-.06-.09-.09c-2.66.47-5,1.61-7.08,3.42.12.09.2.15.29.18.94.44,1.87.88,2.81,1.32.2.12.32.06.44-.18.73-1.37,1.64-2.66,2.72-3.8.29-.29.59-.59.91-.88v.03ZM25.59,26.91s-.2-.15-.29-.18c-.94-.44-1.87-.88-2.78-1.32-.23-.12-.35-.06-.5.18-.91,1.7-2.05,3.19-3.42,4.5-.06.06-.09.12-.15.18,2.69-.41,5.06-1.55,7.14-3.36ZM15.24,2.16c-1.7,1.4-2.98,3.01-4.04,4.91,1.37.35,2.69.53,4.04.56V2.16ZM15.24,29.81v-5.47c-1.37.06-2.69.2-4.04.56,1.05,1.9,2.34,3.51,4.04,4.91ZM20.77,7.11c-1.05-1.9-2.34-3.54-4.04-4.91v5.47c1.37-.06,2.66-.2,4.04-.56ZM16.76,24.34v5.47c1.67-1.4,2.98-3.01,4.04-4.91-1.35-.35-2.66-.53-4.04-.56Z"/>
  </g>
</svg>