<?xml version="1.0" encoding="UTF-8"?>
<svg id="Layer_1" data-name="Layer 1" xmlns="http://www.w3.org/2000/svg" viewBox="0 0 32 32">
  <defs>
    <style>
      .cls-1 {
        fill: #000;
        stroke-width: 0px;
      }
    </style>
  </defs>
  <path class="cls-1" d="M24.63,17.28c4.05,0,7.34,3.26,7.37,7.31,0,4.08-3.26,7.37-7.34,7.37s-7.34-3.26-7.37-7.31c0-4.08,3.26-7.37,7.34-7.37ZM24.6,19.55c-2.78,0-5.05,2.3-5.05,5.08s2.3,5.08,5.08,5.08,5.08-2.3,5.08-5.11-2.3-5.05-5.08-5.05h-.03Z"/>
  <path class="cls-1" d="M7.34,17.28c4.05,0,7.34,3.29,7.34,7.34s-3.29,7.37-7.34,7.37c-4.05-.03-7.34-3.29-7.34-7.34s3.29-7.37,7.34-7.37ZM12.42,24.63c0-2.78-2.27-5.08-5.05-5.08s-5.08,2.27-5.08,5.05,2.27,5.11,5.08,5.11,5.08-2.27,5.08-5.08h-.03Z"/>
  <path class="cls-1" d="M14.72,7.34c0,4.05-3.26,7.34-7.34,7.34-4.05.03-7.37-3.26-7.37-7.34S3.29,0,7.34,0s7.37,3.26,7.37,7.34ZM12.42,7.37c0-2.78-2.24-5.08-5.05-5.11-2.78,0-5.11,2.27-5.11,5.05s2.27,5.08,5.05,5.08,5.08-2.27,5.08-5.05l.03.03Z"/>
  <path class="cls-1" d="M24.63,14.72c-4.05,0-7.37-3.29-7.34-7.37,0-4.05,3.29-7.34,7.34-7.34s7.37,3.29,7.34,7.37c0,4.05-3.29,7.34-7.34,7.34ZM24.63,12.42c2.78,0,5.08-2.3,5.05-5.08,0-2.78-2.27-5.08-5.08-5.08s-5.08,2.3-5.08,5.08,2.3,5.05,5.08,5.05l.03.03Z"/>
</svg>