<?xml version="1.0" encoding="UTF-8"?>
<svg id="Layer_1" data-name="Layer 1" xmlns="http://www.w3.org/2000/svg" viewBox="0 0 32 32">
  <defs>
    <style>
      .cls-1 {
        fill: #010101;
        stroke-width: 0px;
      }
    </style>
  </defs>
  <path class="cls-1" d="M10.93,14.59H3.53c-1.94,0-3.53-1.58-3.53-3.53V3.93C0,1.99,1.58.41,3.53.41h7.41c1.94,0,3.53,1.58,3.53,3.53v7.13c0,1.94-1.58,3.53-3.53,3.53ZM3.53,2.38c-.86,0-1.56.7-1.56,1.56v7.13c0,.86.7,1.56,1.56,1.56h7.41c.86,0,1.56-.7,1.56-1.56V3.93c0-.86-.7-1.56-1.56-1.56H3.53Z"/>
  <path class="cls-1" d="M28.47,14.59h-7.41c-1.94,0-3.53-1.58-3.53-3.53V3.93c0-1.94,1.58-3.53,3.53-3.53h7.41c1.94,0,3.53,1.58,3.53,3.53v7.13c0,1.94-1.58,3.53-3.53,3.53ZM21.07,2.38c-.86,0-1.56.7-1.56,1.56v7.13c0,.86.7,1.56,1.56,1.56h7.41c.86,0,1.56-.7,1.56-1.56V3.93c0-.86-.7-1.56-1.56-1.56h-7.41Z"/>
  <path class="cls-1" d="M10.93,31.59H3.53c-1.94,0-3.53-1.58-3.53-3.53v-7.13c0-1.94,1.58-3.52,3.53-3.52h7.41c1.94,0,3.53,1.58,3.53,3.52v7.13c0,1.94-1.58,3.53-3.53,3.53ZM3.53,19.37c-.86,0-1.56.7-1.56,1.56v7.13c0,.86.7,1.56,1.56,1.56h7.41c.86,0,1.56-.7,1.56-1.56v-7.13c0-.86-.7-1.56-1.56-1.56H3.53Z"/>
  <path class="cls-1" d="M28.47,31.59h-7.41c-1.94,0-3.53-1.58-3.53-3.53v-7.13c0-1.94,1.58-3.52,3.53-3.52h7.41c1.94,0,3.53,1.58,3.53,3.52v7.13c0,1.94-1.58,3.53-3.53,3.53ZM21.07,19.37c-.86,0-1.56.7-1.56,1.56v7.13c0,.86.7,1.56,1.56,1.56h7.41c.86,0,1.56-.7,1.56-1.56v-7.13c0-.86-.7-1.56-1.56-1.56h-7.41Z"/>
</svg>