<?xml version="1.0" encoding="UTF-8"?>
<svg id="Layer_1" data-name="Layer 1" xmlns="http://www.w3.org/2000/svg" viewBox="0 0 32 32">
  <defs>
    <style>
      .cls-1 {
        stroke-width: 0px;
      }
    </style>
  </defs>
  <path class="cls-1" d="M0,22.01v-5.87c0-.93.3-1.7.93-2.37,3.56-3.82,7.12-7.64,10.64-11.5C13.68-.07,16.12-.3,18.02.45c1.32.52,2.18,1.58,3.11,2.57,2.91,3.13,5.83,6.26,8.74,9.41.47.52.97,1.04,1.45,1.58.45.52.69,1.12.69,1.83v12.08c0,2.2-1.73,3.95-3.93,3.99-1.6.02-3.17,0-4.77,0-.6,0-.76-.26-.76-.78,0-2.44.02-4.88,0-7.31-.04-3.04-2.16-5.63-5.11-6.3-3.91-.91-7.88,2.14-7.94,6.15-.04,2.46-.02,4.92,0,7.38,0,.65-.19.91-.86.88-1.49-.04-3,0-4.49,0-2.37-.02-4.08-1.73-4.1-4.1v-5.8l-.04-.02Z"/>
  <path class="cls-1" d="M11.89,27.25c.06-1.21-.13-2.68.13-4.14.35-1.86,2.07-3.28,3.99-3.28s3.6,1.4,3.95,3.24c.09.47.13.95.13,1.45v6.41q0,.97-.95.97h-6.34q-.91,0-.91-.95v-3.71.02Z"/>
</svg>