<?xml version="1.0" encoding="UTF-8"?>
<svg id="Layer_1" data-name="Layer 1" xmlns="http://www.w3.org/2000/svg" viewBox="0 0 32 32">
  <defs>
    <style>
      .cls-1 {
        stroke-width: 0px;
      }
    </style>
  </defs>
  <path class="cls-1" d="M18.74,0h12.05c.66,0,1.2.54,1.2,1.2v15.27c0,.66-.54,1.2-1.2,1.2h-12.05c-.66,0-1.2-.54-1.2-1.2V1.22c0-.66.54-1.2,1.2-1.2h0Z"/>
  <path class="cls-1" d="M30.8,21.31h-12.06c-.66,0-1.2.54-1.2,1.2v8.28c0,.66.54,1.2,1.2,1.2h12.06c.66,0,1.2-.54,1.2-1.2v-8.28c0-.66-.54-1.2-1.2-1.2Z"/>
  <path class="cls-1" d="M1.2,10.69h12.05c.66,0,1.2.54,1.2,1.2v18.9c0,.66-.54,1.2-1.2,1.2H1.2c-.66,0-1.2-.54-1.2-1.2V11.89c0-.66.54-1.2,1.2-1.2Z"/>
  <path class="cls-1" d="M1.2,0h12.05c.66,0,1.2.54,1.2,1.2v4.64c0,.66-.54,1.2-1.2,1.2H1.2c-.66,0-1.2-.54-1.2-1.2V1.21C0,.55.54,0,1.2,0Z"/>
</svg>