<?xml version="1.0" encoding="UTF-8"?>
<svg id="Layer_1" data-name="Layer 1" xmlns="http://www.w3.org/2000/svg" viewBox="0 0 32 32">
  <defs>
    <style>
      .cls-1 {
        stroke-width: 0px;
      }
    </style>
  </defs>
  <path class="cls-1" d="M25.9,9.97c-.29-.23-.63-.12-.95-.12-1.41-.03-2.81.01-4.22-.08-1.01-.07-1.57-.71-1.58-1.59-.02-.91.54-1.64,1.57-1.69,2.48-.14,4.98-.29,7.43.12,2.27.37,3.8,2.35,3.83,4.66.02,2.07.01,4.14,0,6.21,0,1.09-.62,1.79-1.6,1.83-.91.05-1.69-.68-1.73-1.74-.06-1.41-.01-2.81-.03-4.22,0-.3.08-.6-.12-.92-.33.09-.53.37-.76.59-2.35,2.25-4.66,4.55-7.06,6.73-1.64,1.49-4.17,1.5-5.98.2-.78-.56-1.56-1.14-2.35-1.69-.96-.67-1.6-.62-2.44.17-2.12,2.02-4.23,4.03-6.34,6.06-.22.21-.43.44-.66.63-.86.71-1.77.71-2.44.02-.67-.7-.62-1.61.15-2.43.47-.5.98-.97,1.49-1.44,1.83-1.75,3.68-3.49,5.52-5.24,1.99-1.9,4.54-2.05,6.76-.4.74.54,1.48,1.07,2.21,1.59.7.5,1.44.51,2.05-.07,2.42-2.29,4.81-4.63,7.2-6.96.03-.03.02-.1.03-.17v-.03Z"/>
</svg>