<?xml version="1.0" encoding="UTF-8"?>
<svg id="Layer_1" data-name="Layer 1" xmlns="http://www.w3.org/2000/svg" viewBox="0 0 32 32">
  <defs>
    <style>
      .cls-1 {
        fill: #000;
        stroke-width: 0px;
      }
    </style>
  </defs>
  <path class="cls-1" d="M31.02,0H.98C.51,0,.13.38.13.85v10.77c0,.47.38.85.85.85h30.04c.47,0,.85-.38.85-.85V.85c0-.47-.38-.85-.85-.85Z"/>
  <path class="cls-1" d="M31.2,16.35H.8c-.37,0-.67.3-.67.67v6.48c0,.37.3.67.67.67h30.39c.37,0,.67-.3.67-.67v-6.48c0-.37-.3-.67-.67-.67Z"/>
  <path class="cls-1" d="M31.39,28.08H.61c-.27,0-.48.21-.48.48v2.96c0,.27.22.48.48.48h30.77c.27,0,.48-.21.48-.48v-2.96c0-.27-.21-.48-.48-.48Z"/>
</svg>