<?xml version="1.0" encoding="UTF-8"?>
<svg id="Layer_1" data-name="Layer 1" xmlns="http://www.w3.org/2000/svg" viewBox="0 0 32 32">
  <defs>
    <style>
      .cls-1 {
        fill: #000;
        stroke-width: 0px;
      }
    </style>
  </defs>
  <path class="cls-1" d="M24.82,13.55c.33.08.61.1.86.18,1.29.4,2.12,1.54,2.12,2.93v12.25c0,1.87-1.29,3.13-3.13,3.13H7.73c-1.84,0-3.13-1.29-3.13-3.13v-12.17c0-1.69,1.09-2.9,2.75-3.11.25-.03.23-.18.23-.33,0-1.54-.03-3.11,0-4.65.08-3.23,1.49-5.76,4.29-7.42,5.02-3,11.59-.08,12.75,5.68.13.63.18,1.26.2,1.92.03,1.46,0,2.95,0,4.42v.35-.05ZM16.16,13.6h5.48c.28,0,.35-.08.35-.35v-4.6c0-.4-.03-.81-.1-1.19-.63-3.06-3.48-4.97-6.41-4.6-2.95.38-5.07,2.93-5.07,5.76v4.62c0,.28.08.35.35.35h5.43-.03ZM16.18,28.29h1.39c.45,0,.71-.3.63-.73-.15-1.19-.3-2.37-.48-3.56-.03-.23,0-.38.23-.5,1.31-.81,1.89-2.4,1.44-3.84-.48-1.46-1.89-2.45-3.38-2.32-1.49.1-2.7,1.11-3.06,2.52-.35,1.46.25,2.9,1.54,3.69.15.1.2.18.18.35-.18,1.21-.33,2.42-.48,3.64-.08.5.15.78.68.78h1.31v-.03Z"/>
</svg>