<?xml version="1.0" encoding="UTF-8"?>
<svg id="Layer_1" data-name="Layer 1" xmlns="http://www.w3.org/2000/svg" viewBox="0 0 32 32">
  <defs>
    <style>
      .cls-1 {
        fill: #000;
        stroke-width: 0px;
      }
    </style>
  </defs>
  <path class="cls-1" d="M6.54,9.83c-.01-3.13,1.1-5.73,3.52-7.72C11.82.67,13.86.01,16.13,0c4.61,0,9.51,3.9,9.36,9.73.72.17,1.48.23,2.15.52,1.68.72,2.66,2.06,2.69,3.89.06,4.53.05,9.06,0,13.58-.02,2.22-1.8,4.02-4.01,4.25-.27.02-.53.04-.8.04H6.46c-2.43,0-4.2-1.34-4.7-3.58-.1-.4-.1-.85-.1-1.26,0-4.16.05-8.31-.02-12.47-.05-2.96,2.29-4.96,4.63-4.83.09,0,.17-.02.29-.04h-.01ZM15.99,29.56h9.58c1.48,0,2.29-.83,2.29-2.32v-12.56c0-1.57-.77-2.36-2.34-2.36H6.47c-1.57,0-2.34.79-2.34,2.36v12.45c0,1.66.77,2.43,2.45,2.43h9.42-.01ZM22.97,9.85c0-2.88-1.13-5.06-3.58-6.49-2.33-1.36-5.39-1.15-7.61.55-1.93,1.48-2.8,3.48-2.74,5.94h13.93Z"/>
  <path class="cls-1" d="M14.78,22.27c0-.25-.02-.5,0-.75.04-.39-.09-.69-.36-.99-.71-.79-.6-1.99.18-2.74.79-.75,2-.75,2.8,0,.79.74.9,1.95.18,2.74-.29.32-.38.64-.37,1.04.02.59.01,1.17,0,1.75-.01.77-.54,1.31-1.25,1.3-.69,0-1.18-.54-1.2-1.29v-1.07h.01Z"/>
</svg>