<?xml version="1.0" encoding="UTF-8"?>
<svg id="Layer_1" data-name="Layer 1" xmlns="http://www.w3.org/2000/svg" viewBox="0 0 32 32">
  <defs>
    <style>
      .cls-1 {
        fill: #000;
        stroke-width: 0px;
      }
    </style>
  </defs>
  <path class="cls-1" d="M24.77,13.7c-.25-.08-.53-.1-.86-.18v-.3c0-1.46.03-2.95,0-4.42-.03-.66-.08-1.29-.2-1.92C22.55,1.12,15.99-1.81,10.96,1.2c-2.8,1.67-4.22,4.19-4.29,7.42-.03,1.54,0,3.11,0,4.65,0,.15.03.3-.23.33-1.67.2-2.75,1.41-2.75,3.11v12.17c0,1.84,1.29,3.13,3.13,3.13h16.94c1.84,0,3.13-1.26,3.13-3.13v-12.25c0-1.39-.83-2.52-2.12-2.93ZM19.49,28.29h-8.41c.01-.85.15-1.66.41-2.41.33-.94.82-1.68,1.44-2.28,1.27,1.72,3.45,1.73,4.74,0,1.09.9,2,3.26,1.82,4.69ZM12.55,20.12c0-1.58,1.2-2.79,2.66-2.82,1.71-.04,2.84,1.38,2.83,2.84,0,1.56-1.24,2.82-2.76,2.82s-2.73-1.27-2.73-2.83h0ZM21.09,13.22c0,.28-.08.35-.35.35h-10.88c-.28,0-.35-.08-.35-.35v-4.62c0-2.83,2.12-5.38,5.07-5.76,2.93-.38,5.78,1.54,6.41,4.6.08.38.1.78.1,1.19v4.6Z"/>
</svg>