<?xml version="1.0" encoding="UTF-8"?>
<svg id="Layer_1" data-name="Layer 1" xmlns="http://www.w3.org/2000/svg" viewBox="0 0 32 32">
  <defs>
    <style>
      .cls-1 {
        fill: #000;
        stroke-width: 0px;
      }
    </style>
  </defs>
  <path class="cls-1" d="M22.69,5.58v.74c0,3.83.08,7.67-.03,11.48-.08,2.56,1.64,3.75,3.62,3.65,1.8-.11,3.17.95,3.75,2.64.77,2.3-.93,4.94-3.33,4.97-4.55.05-9.1,0-13.64,0-.05,0-.11-.03-.24-.05,1.27-2.14,1.72-4.36.98-6.74-.53-1.67-1.51-2.99-2.94-4.02-2.35-1.69-6.48-2.33-10,.98,0-.19-.03-.34-.03-.5v-9.2c0-2.41,1.56-3.99,3.97-3.99h17.35c.16,0,.32,0,.56.05h-.03Z"/>
  <path class="cls-1" d="M31.2,21.47c-1.32-1.59-2.94-2.19-4.84-2.12h-.37c-.98,0-1.22-.24-1.22-1.19v-5.79c0-3.31.05-6.64,0-9.94-.05-2.09,1.24-2.7,3.01-2.33,2.04.42,3.46,2.17,3.46,4.23v16.71c0,.11,0,.19-.03.42h-.03Z"/>
  <path class="cls-1" d="M10.47,20.65c-1.56-1.64-3.99-2.17-6.06-1.35-2.19.87-3.6,2.88-3.68,5.26v.03c.11.53.16,1.08.32,1.61.66,2.17,2.12,3.83,3.81,5.26.9.77,2.35.69,3.25-.08,1.43-1.22,2.64-2.64,3.41-4.39.98-2.19.56-4.65-1.06-6.35ZM6.4,25.62c-.56,0-1-.48-1-1.03s.5-1.05,1.05-1.06c0,0,0,0,.01,0,.28,0,.53.12.71.31.18.19.29.45.29.72,0,.61-.48,1.06-1.06,1.06Z"/>
</svg>