<?xml version="1.0" encoding="UTF-8"?>
<svg id="Layer_1" data-name="Layer 1" xmlns="http://www.w3.org/2000/svg" viewBox="0 0 32 32">
  <defs>
    <style>
      .cls-1 {
        fill: #000;
        stroke-width: 0px;
      }
    </style>
  </defs>
  <g id="Capa_1" data-name="Capa 1">
    <g>
      <path class="cls-1" d="M15.99.01C7.17.01,0,7.18,0,16.01s7.17,16,16,16,16-7.17,16-16S24.78.01,15.99.01ZM15.99,28.9c-7.13,0-12.89-5.76-12.89-12.89S8.86,3.12,15.99,3.12s12.89,5.76,12.89,12.89-5.76,12.89-12.89,12.89Z"/>
      <path class="cls-1" d="M21.63,14.44h-11.36c-.87,0-1.53.7-1.53,1.53s.7,1.53,1.53,1.53h11.36c.87,0,1.53-.7,1.53-1.53s-.7-1.53-1.53-1.53Z"/>
    </g>
  </g>
</svg>