<?xml version="1.0" encoding="UTF-8"?>
<svg id="Layer_1" data-name="Layer 1" xmlns="http://www.w3.org/2000/svg" viewBox="0 0 32 32">
  <defs>
    <style>
      .cls-1 {
        fill: #000;
        stroke-width: 0px;
      }
    </style>
  </defs>
  <path class="cls-1" d="M15.62,11.34c-1.41,0-2.55,1.14-2.54,2.54,0,1.41,1.15,2.52,2.57,2.51,1.41,0,2.52-1.12,2.52-2.52,0-1.41-1.12-2.53-2.54-2.53Z"/>
  <path class="cls-1" d="M32,4.25c0-2.47-1.74-4.21-4.19-4.21-7.87,0-15.74,0-23.62,0C1.73.05,0,1.76,0,4.23c0,5.87,0,11.74,0,17.61,0,2.47,1.72,4.2,4.18,4.2,1.91,0,3.82,0,5.83,0,0,1.71-.02,3.34.02,4.95,0,.32.19.8.43.92.24.12.73-.03.99-.22,2.36-1.74,4.69-3.52,7.05-5.26.29-.22.71-.37,1.08-.37,2.73-.03,5.47-.02,8.21-.02,2.49,0,4.22-1.73,4.22-4.24,0-5.85,0-11.7,0-17.54ZM23.09,16.23c-.36,1.1-.93,2.09-1.73,2.94-.15.15-.29.18-.48.07-.37-.22-.73-.44-1.11-.64-.1-.05-.27-.03-.38.02-.52.28-1.04.57-1.54.88-.1.06-.2.2-.21.31-.03.4-.02.81,0,1.21.01.32-.14.48-.45.51-.52.06-1.04.12-1.57.18-.53-.06-1.05-.12-1.57-.19-.32-.04-.47-.2-.45-.54.02-.39.02-.79,0-1.18,0-.1-.09-.24-.18-.3-.52-.32-1.06-.63-1.6-.92-.09-.05-.26-.05-.35,0-.36.19-.7.4-1.04.61-.23.14-.41.11-.59-.09-.75-.83-1.31-1.77-1.66-2.82-.09-.27-.02-.44.23-.58.35-.19.67-.41,1.01-.6.17-.09.22-.2.21-.4-.02-.57-.02-1.14,0-1.71,0-.2-.04-.31-.21-.4-.35-.2-.69-.43-1.04-.62-.23-.12-.3-.29-.22-.53.36-1.08.92-2.04,1.69-2.88.17-.19.35-.16.54-.05.35.2.71.39,1.05.6.16.1.26.08.42-.02.48-.3.98-.59,1.48-.85.18-.1.28-.18.27-.4-.02-.39,0-.79,0-1.18-.01-.31.14-.45.42-.5,1.07-.2,2.14-.2,3.21,0,.27.05.41.19.4.48-.01.4,0,.81,0,1.21,0,.18.05.27.22.36.53.27,1.03.59,1.55.87.1.05.28.06.38,0,.36-.19.7-.4,1.05-.61.22-.13.39-.11.57.08.77.84,1.33,1.8,1.69,2.88.08.24.01.4-.22.52-.37.2-.72.41-1.06.65-.09.06-.17.22-.17.34-.02.59-.02,1.19,0,1.78,0,.12.08.27.18.34.35.24.72.46,1.09.66.21.11.26.27.19.48Z"/>
</svg>