<?xml version="1.0" encoding="UTF-8"?>
<svg id="Layer_1" data-name="Layer 1" xmlns="http://www.w3.org/2000/svg" viewBox="0 0 32 32">
  <defs>
    <style>
      .cls-1 {
        fill: #000;
        stroke-width: 0px;
      }
    </style>
  </defs>
  <path class="cls-1" d="M12.64,26.19c-.07-1.04-.07-2.09-.22-3.12-.11-.78-.58-1.43-1.19-1.93-.69-.55-1.44-.76-2.31-.45-.61.22-1.23.43-1.84.68-2.74,1.13-4.94-.2-6.13-2.09C-.04,17.71-.12,15.98.11,14.21.84,8.69,3.66,4.56,8.52,1.88,14.95-1.66,23.25-.06,28.06,5.51c2.73,3.17,4.06,6.86,3.93,11.02-.24,7.4-5.51,13.63-12.76,15.14-1,.2-2.04.3-3.07.32-2.01.07-3.54-1.42-3.58-3.44-.03-.78,0-1.58,0-2.36h.05ZM15,25.93s-.08,0-.14.01v2.47c0,.88.45,1.34,1.31,1.27,1.07-.09,2.16-.16,3.2-.43,7.32-1.82,11.75-9.3,9.9-16.62-1.78-7-8.67-11.41-15.77-10.11C7.07,3.7,2.38,9.3,2.31,15.86c0,1.12.35,2.09,1.16,2.88.68.66,1.49.9,2.4.61.26-.08.51-.2.77-.28.97-.28,1.92-.72,2.9-.8,2.17-.18,4.38,1.54,4.98,3.86.31,1.23.32,2.54.47,3.81Z"/>
  <path class="cls-1" d="M11.44,5.73c1.9,0,3.44,1.53,3.43,3.43,0,1.89-1.55,3.43-3.44,3.42-1.88,0-3.4-1.54-3.42-3.4,0-1.9,1.53-3.44,3.42-3.44h.01ZM12.57,9.13c0-.62-.53-1.13-1.16-1.12-.59,0-1.11.53-1.12,1.12,0,.62.51,1.15,1.15,1.15s1.13-.51,1.13-1.15Z"/>
  <path class="cls-1" d="M21.73,13.72c-1.89,0-3.43-1.54-3.43-3.43s1.55-3.43,3.44-3.42c1.88,0,3.39,1.53,3.4,3.4,0,1.9-1.53,3.44-3.42,3.44ZM22.86,10.29c0-.61-.54-1.15-1.15-1.13-.62,0-1.13.54-1.12,1.16.01.61.51,1.09,1.12,1.11.62,0,1.15-.51,1.15-1.13Z"/>
  <path class="cls-1" d="M26.28,20.58c0,1.9-1.54,3.43-3.44,3.42-1.86,0-3.4-1.54-3.4-3.4s1.53-3.44,3.42-3.44,3.43,1.53,3.43,3.43ZM24,20.58c0-.62-.51-1.13-1.13-1.13s-1.11.49-1.12,1.11c-.01.62.5,1.16,1.11,1.17.61,0,1.15-.51,1.15-1.13h0Z"/>
</svg>