<?xml version="1.0" encoding="UTF-8"?>
<svg id="Layer_1" data-name="Layer 1" xmlns="http://www.w3.org/2000/svg" viewBox="0 0 32 32">
  <defs>
    <style>
      .cls-1 {
        stroke-width: 0px;
      }
    </style>
  </defs>
  <path class="cls-1" d="M18.65,28.31c0,.89-.03,1.8,0,2.69.03.63-.2.86-.8.91-3.41.28-6.69-.23-9.66-1.97C3.97,27.48,1.19,23.9.31,19.04-.83,12.72,1.19,7.47,6.16,3.47,10,.36,14.49-.61,19.29.42c4.55.98,8.08,3.56,10.49,7.6,2.52,4.21,2.78,8.65,1.34,13.24-.69,2.22-2.85,2.74-4.57,1.16-1.38-1.27-2.97-1.67-4.72-1.11-1.74.56-2.88,1.8-3.14,3.61-.16,1.11-.03,2.25-.03,3.38h-.05l.03.02ZM11.83,12.75c0-1.13-.77-1.92-1.89-1.94-1.03-.03-1.92.86-1.92,1.94,0,1.02.88,1.86,1.91,1.86s1.89-.8,1.89-1.86h.02ZM25.15,12.69c0-1.03-.86-1.88-1.89-1.88-1.09,0-1.91.83-1.91,1.94,0,1.05.84,1.88,1.89,1.88,1.11,0,1.91-.81,1.91-1.92v-.02ZM11.83,20.7c0-1.09-.73-1.88-1.84-1.89-1.13-.03-1.95.77-1.97,1.86,0,1.05.89,1.95,1.94,1.94,1.03,0,1.86-.86,1.88-1.91ZM18.48,8.78c0-1.09-.83-1.97-1.89-1.95-1.05,0-1.91.84-1.92,1.88-.02,1.08.83,1.92,1.92,1.92s1.88-.75,1.88-1.84h.02Z"/>
</svg>