<?xml version="1.0" encoding="UTF-8"?>
<svg id="Layer_1" data-name="Layer 1" xmlns="http://www.w3.org/2000/svg" viewBox="0 0 32 32">
  <defs>
    <style>
      .cls-1 {
        fill: #000;
        stroke-width: 0px;
      }
    </style>
  </defs>
  <path class="cls-1" d="M22.84,32c-2.03-.06-3.91-.63-5.7-1.46-4.98-2.33-9.07-5.73-12.38-10.11-1.55-2.09-2.86-4.33-3.79-6.77C.41,12.16,0,10.67.02,9.03c.03-1.19.42-2.21,1.31-3.04.78-.72,1.49-1.49,2.24-2.24s1.55-1.07,2.54-.69c.33.12.66.36.92.6,1.34,1.31,2.68,2.63,3.97,4,.92.95.89,2.12,0,3.1-.75.84-1.58,1.61-2.36,2.42-.39.39-.39.51-.18,1.01.84,1.82,2.06,3.34,3.4,4.77,1.46,1.55,3.07,2.95,4.92,4.03.36.21.75.39,1.1.6.33.18.57.12.84-.15.84-.84,1.67-1.7,2.54-2.51.89-.81,2.09-.84,2.95,0,1.25,1.16,2.42,2.39,3.64,3.58.3.3.6.6.84.92.57.84.54,1.85-.12,2.6-.95,1.04-1.97,2.06-3.01,3.04-.78.72-1.76.92-2.74.92h.03Z"/>
  <path class="cls-1" d="M17.92.08c6.98,1.46,12.38,6.92,14.02,13.57.18.69-.3,1.37-.98,1.49h-.06c-.63.12-1.22-.3-1.4-.92-.72-2.92-2.18-5.46-4.36-7.58-2.18-2.12-4.77-3.49-7.73-4.15-.63-.15-1.04-.72-.95-1.37v-.06c.12-.72.78-1.16,1.46-1.04v.06Z"/>
  <path class="cls-1" d="M16.1,7.6c.12-.75.81-1.25,1.52-1.04,3.37.87,6.56,3.64,7.7,7.49.21.72-.24,1.43-.98,1.58-.6.12-1.19-.24-1.4-.84-.95-2.95-2.95-4.89-5.97-5.79-.6-.18-.95-.75-.87-1.37v-.03Z"/>
</svg>