<?xml version="1.0" encoding="UTF-8"?>
<svg id="Layer_1" data-name="Layer 1" xmlns="http://www.w3.org/2000/svg" viewBox="0 0 32 32">
  <defs>
    <style>
      .cls-1 {
        fill: #000;
        fill-rule: evenodd;
        stroke-width: 0px;
      }
    </style>
  </defs>
  <path class="cls-1" d="M4.33,27.57c0-1.05.59-2.08,1.57-3.22L.29,20.8c-.35-.16-.35-.37-.14-.63l1.19-1.01c.21-.14.44-.19.7-.12l6.93,1.17,5.77-6.25L1.27,4.84c-.33-.19-.37-.42-.02-.68l1.94-1.56,17.57,4.93,5.2-5.55c1.73-1.5,3.43-2.19,4.72-1.85.72.17.96.38,1.19,1.07.44,1.31-.24,3.08-1.8,4.9l-5.55,5.2,4.93,17.57-1.56,1.94c-.26.35-.49.31-.68-.02l-9.12-13.47-6.25,5.77,1.17,6.93c.07.24,0,.47-.12.7l-1.01,1.19c-.24.21-.47.21-.63-.14l-3.55-5.62c-1.15.98-2.17,1.57-3.24,1.57-.1,0-.12-.03-.12-.12l-.02-.03Z"/>
</svg>