<?xml version="1.0" encoding="UTF-8"?>
<svg id="Layer_1" data-name="Layer 1" xmlns="http://www.w3.org/2000/svg" viewBox="0 0 32 32">
  <defs>
    <style>
      .cls-1 {
        fill: #000;
        stroke-width: 0px;
      }
    </style>
  </defs>
  <path class="cls-1" d="M0,15.96C0,7.16,7.19,0,16.02,0c8.87,0,15.99,7.18,15.98,16.1-.01,8.84-7.18,15.93-16.1,15.92C7.12,32.01,0,24.82,0,15.96ZM15.96,29.69c7.58,0,13.74-6.11,13.74-13.63,0-7.51-6.12-13.73-13.54-13.73-7.71,0-13.87,6.09-13.86,13.7,0,7.52,6.15,13.66,13.65,13.66Z"/>
  <path class="cls-1" d="M17.23,14.82c2.32,0,4.54,0,6.76,0,.87,0,.95.09.96.97.01,1.63.04,1.48-1.45,1.48-1.86,0-3.72,0-5.58,0-.21,0-.43.02-.69.03,0,.93,0,1.81,0,2.68,0,1.42-.01,2.84,0,4.26,0,.53-.2.76-.74.75-1.92-.02-1.69.17-1.69-1.65,0-1.8,0-3.6,0-5.4,0-.22,0-.43,0-.72-.28,0-.49,0-.71,0-2.08,0-4.16-.01-6.24,0-.57,0-.79-.19-.78-.76.03-1.88-.19-1.67,1.67-1.67,1.78,0,3.56,0,5.34,0,.22,0,.43,0,.72,0,0-.28,0-.49,0-.71,0-2.08.02-4.16,0-6.24,0-.58.21-.78.77-.78,1.86.01,1.67-.12,1.67,1.63,0,1.8,0,3.6,0,5.4v.72Z"/>
</svg>