<?xml version="1.0" encoding="UTF-8"?>
<svg id="Layer_1" data-name="Layer 1" xmlns="http://www.w3.org/2000/svg" viewBox="0 0 32 32">
  <defs>
    <style>
      .cls-1 {
        fill: #111;
        stroke-width: 0px;
      }
    </style>
  </defs>
  <path class="cls-1" d="M15.99.04c8.92.05,16.04,7.18,16.01,16.01-.05,8.85-7.23,15.96-16.08,15.91C7.06,31.91-.07,24.66,0,15.76.07,7.08,7.28-.01,16.01.04h-.02ZM17.1,17.11h5.66c.87,0,1.38-.41,1.35-1.09,0-.65-.53-1.09-1.38-1.09h-4.81c-.24,0-.51-.02-.8-.05v-5.73c0-.73-.41-1.16-1.04-1.16s-1.09.44-1.11,1.19v5.73h-5.78c-.77,0-1.19.39-1.19,1.02s.44,1.09,1.19,1.11c1.16.02,2.32,0,3.46,0h2.25v5.8c0,.89.68,1.4,1.45,1.11.58-.22.73-.68.73-1.23v-5.64l.02.02Z"/>
</svg>