<?xml version="1.0" encoding="UTF-8"?>
<svg id="Layer_1" data-name="Layer 1" xmlns="http://www.w3.org/2000/svg" viewBox="0 0 32 32">
  <defs>
    <style>
      .cls-1 {
        fill: #000;
        stroke-width: 0px;
      }
    </style>
  </defs>
  <path class="cls-1" d="M27.35,19.75c0-3.95,0-7.9,0-11.85,0-.31-.08-.42-.39-.4-1.23.07-2.45.12-3.68.19-1.59.09-3.18.17-4.75-.11-1.02-.18-2.07-1.15-1.32-2.51.26-.47.56-.93.91-1.34.91-1.11.47-2.26-.29-2.95-.75-.67-1.6-.98-2.61-.63-1.1.38-1.66,1.17-1.75,2.29-.05.69.19,1.29.65,1.82.27.31.53.66.66,1.04.25.75-.15,1.48-.93,1.88-.6.3-1.25.38-1.9.38-2.28,0-4.56,0-6.84,0-.46,0-.46,0-.46.47,0,3.07,0,6.14,0,9.21,0,.28.04.56.11.83.08.31.28.39.57.27.21-.09.44-.21.59-.37.98-1.1,2.23-1.44,3.61-1.15,1.41.29,2.26,1.27,2.67,2.61.55,1.8-.24,3.87-1.76,4.76-1.3.77-3.03.59-4.27-.42-.25-.21-.52-.4-.79-.57-.22-.14-.43-.09-.49.19-.1.47-.23.95-.24,1.42-.02,2.3,0,4.6-.01,6.9,0,.29.15.3.36.3,1.68,0,3.36,0,5.04,0,4.92,0,9.84,0,14.76,0,.73,0,1.47-.01,2.2,0,.29,0,.35-.1.35-.37,0-3.96,0-7.92,0-11.88Z"/>
</svg>