<?xml version="1.0" encoding="UTF-8"?>
<svg id="Layer_1" data-name="Layer 1" xmlns="http://www.w3.org/2000/svg" viewBox="0 0 32 32">
  <defs>
    <style>
      .cls-1 {
        fill: #000;
        stroke-width: 0px;
      }
    </style>
  </defs>
  <path class="cls-1" d="M15.98,0c8.85-.01,16.03,7.16,16.02,16.01,0,8.84-7.15,15.97-15.98,15.98C7.17,32-.01,24.83,0,15.98,0,7.14,7.15,0,15.98,0ZM15.97,29.71c7.59,0,13.73-6.1,13.74-13.69.01-7.59-6.1-13.72-13.7-13.73S2.28,8.4,2.27,15.98c-.01,7.59,6.1,13.72,13.7,13.73Z"/>
  <path class="cls-1" d="M16.35,18.05v2.06c0,.77-.47,1.28-1.14,1.28s-1.14-.52-1.14-1.28c0-.97,0-1.95-.01-2.92,0-1.01.46-1.44,1.47-1.39,1.61.09,2.84-.59,3.43-1.99.52-1.24.37-2.44-.5-3.48-.84-1.01-1.96-1.38-3.24-1.08-1.29.3-2.08,1.15-2.42,2.42-.18.68-.54,1.06-1.09,1.11-.47.04-.96-.25-1.12-.72-.08-.24-.1-.53-.06-.77.55-2.65,2.8-4.45,5.54-4.44,2.53.01,4.79,1.9,5.33,4.47.64,3.06-1.31,5.99-4.39,6.61-.19.03-.39.08-.64.12h-.02Z"/>
  <path class="cls-1" d="M14.24,24.06c0-.59.46-1.02,1.05-1.01.55.01,1,.47,1,1.02s-.48,1.05-1.03,1.04c-.56,0-1.02-.48-1.02-1.05Z"/>
</svg>