<?xml version="1.0" encoding="UTF-8"?>
<svg id="Layer_1" data-name="Layer 1" xmlns="http://www.w3.org/2000/svg" viewBox="0 0 32 32">
  <defs>
    <style>
      .cls-1 {
        fill: #000;
        stroke-width: 0px;
      }
    </style>
  </defs>
  <path class="cls-1" d="M15.4,8.24v2.21c0,.53-.16.99-.64,1.2s-.93.11-1.36-.24c-1.87-1.52-3.76-3.01-5.62-4.5-.77-.64-.77-1.39,0-2.03,1.89-1.52,3.78-3.04,5.68-4.53.4-.32.8-.48,1.28-.21.45.24.67.64.67,1.15v2.16c1.15.13,2.27.16,3.33.37,5.6,1.23,9.35,4.61,10.93,10.1,2.24,7.92-2.43,15.8-10.45,17.7-7.33,1.73-14.47-2.45-16.76-9.49-.32-.93-.48-1.95-.64-2.93-.16-1.09.29-1.57,1.41-1.57h1.97c.93,0,1.31.35,1.41,1.28.35,2.82,1.71,5.04,4.05,6.66,5.62,3.89,13.38.64,14.63-6.08.99-5.3-2.59-10.26-7.97-11.06-.59-.08-1.17-.11-1.89-.19h-.03Z"/>
</svg>