<?xml version="1.0" encoding="UTF-8"?>
<svg id="Layer_1" data-name="Layer 1" xmlns="http://www.w3.org/2000/svg" viewBox="0 0 32 32">
  <defs>
    <style>
      .cls-1 {
        stroke-width: 0px;
      }
    </style>
  </defs>
  <path class="cls-1" d="M2.74,23.4h-1.54c-.75,0-1.2-.47-1.2-1.22v-7.39c0-.75.43-1.2,1.2-1.22h1.56v-4.74c0-1.01.45-1.46,1.46-1.46h10.63V.37h2.29v6.99h10.69c.96,0,1.42.47,1.42,1.41v4.8h1.37c.97,0,1.39.41,1.39,1.39v7.12c0,.92-.41,1.33-1.33,1.33h-1.42v6.84c0,.86-.49,1.37-1.35,1.37H4.12c-.86,0-1.35-.51-1.35-1.37v-6.84l-.04-.02ZM21.13,12.88c-1.84,0-3.36,1.52-3.36,3.36s1.54,3.36,3.41,3.34c1.82,0,3.3-1.5,3.3-3.34s-1.52-3.37-3.34-3.37l-.02.02ZM10.78,12.95c-1.84,0-3.3,1.48-3.3,3.32s1.48,3.32,3.32,3.3c1.82,0,3.32-1.5,3.3-3.32,0-1.82-1.5-3.3-3.32-3.3ZM21,26.19v-2.23h-10.03v2.23h10.03Z"/>
</svg>