<?xml version="1.0" encoding="UTF-8"?>
<svg id="Layer_1" data-name="Layer 1" xmlns="http://www.w3.org/2000/svg" viewBox="0 0 32 32">
  <defs>
    <style>
      .cls-1 {
        fill: #010101;
        stroke-width: 0px;
      }
    </style>
  </defs>
  <path class="cls-1" d="M1.86,20.39h27.08v6.69H1.86v-6.69Z"/>
  <path class="cls-1" d="M0,19.12v-2.91h30.8v2.91H0Z"/>
  <path class="cls-1" d="M23.72,14.93c.28.14.5.22.72.33v.06H6.38s.03-.08.06-.08c2.44-1.08,4.88-2.16,7.35-3.22,1.05-.44,2.19-.42,3.25,0,1.3.53,2.58,1.11,3.86,1.69.25.11.39.08.58-.11,1.28-1.3,2.58-2.58,3.86-3.86.17-.17.17-.28.06-.47-.69-1.28-.36-2.77.83-3.75,1.03-.83,2.61-.8,3.66.11.69.58,1.39,1.17,1.8,2,.58,1.11.33,2.55-.58,3.44-.94.92-2.41,1.08-3.55.44-.11-.06-.33-.08-.39,0-1.17,1.14-2.3,2.28-3.5,3.47l.06-.06ZM27.58,7.82s.06.22.08.25c.39.42.78.83,1.22,1.19.08.08.36,0,.5-.08.19-.14.19-.36.03-.53-.36-.39-.75-.78-1.14-1.14-.08-.08-.31-.08-.42-.03-.14.06-.19.22-.28.33Z"/>
</svg>