<?xml version="1.0" encoding="UTF-8"?>
<svg id="Layer_1" data-name="Layer 1" xmlns="http://www.w3.org/2000/svg" viewBox="0 0 32 32">
  <defs>
    <style>
      .cls-1 {
        fill: #000;
        stroke-width: 0px;
      }
    </style>
  </defs>
  <path class="cls-1" d="M21.63,24.61c-6.81,4.61-14.67,2.55-18.73-2.61C-1.27,16.67-.92,9.09,3.81,4.15,8.48-.74,16.08-1.37,21.6,2.61c5.05,3.63,7.96,11.59,3.02,19.03,2.14,2.14,4.31,4.31,6.48,6.45.63.63,1.07,1.32.82,2.25-.47,1.7-2.39,2.2-3.68.93-2-1.98-3.98-3.98-5.99-5.99-.22-.22-.41-.44-.63-.69ZM13.61,4.29c-5.16,0-9.34,4.15-9.34,9.31s4.12,9.31,9.28,9.34c5.14,0,9.34-4.15,9.34-9.31s-4.17-9.34-9.31-9.34h.03Z"/>
</svg>