<?xml version="1.0" encoding="UTF-8"?>
<svg id="Layer_1" data-name="Layer 1" xmlns="http://www.w3.org/2000/svg" viewBox="0 0 32 32">
  <defs>
    <style>
      .cls-1 {
        fill: #000;
        stroke-width: 0px;
      }
    </style>
  </defs>
  <path class="cls-1" d="M31.49,27.15v.58c-.42.59-.79,1.23-1.26,1.76-.5.56-1.12,1.01-1.66,1.54-1.29,1.27-2.35,1.34-3.69.1-.85-.79-1.57-1.71-2.36-2.56-1.11-1.19-2.25-2.35-3.36-3.55-.15-.17-.34-.53-.27-.63.28-.39-.02-.56-.21-.78-.23-.26-.49-.5-.71-.77-.23-.3-.46-.31-.8-.17-2.01.85-4.09,1.22-6.29.96-2.87-.33-5.31-1.51-7.27-3.62C.99,17.21.12,13.85.67,10.09,1.36,5.34,4.97,1.44,9.66.41c.79-.17,1.59-.25,2.39-.38.16,0,.31,0,.47,0,.59.09,1.18.17,1.76.26,6.09.96,10.89,6.96,9.5,13.91-.23,1.16-.77,2.26-1.15,3.39-.06.18-.07.49.04.6.41.42.83.96,1.36,1.12.29.09.62.06.87.32,1.18,1.26,2.38,2.5,3.54,3.77,1.09,1.19,2.45,2.16,3.05,3.75ZM21.17,11.92c0-4.79-4.06-8.87-8.82-8.92-4.37-.04-9.05,3.35-9.03,8.91.02,5.09,3.81,8.9,8.97,8.96,4.85.06,8.88-4.06,8.88-8.96ZM24.26,23.18c-.46.43-.89.8-1.26,1.21-.08.09-.05.41.04.51,1.14,1.24,2.3,2.46,3.47,3.68.07.08.18.13.29.2.46-.49.9-.97,1.37-1.47-1.28-1.35-2.58-2.73-3.91-4.14ZM21.76,21.49c-.37-.4-.72-.77-1.06-1.14-.66.46-.67.49-.19.99.09.1.19.19.28.29.47.51.5.5.98-.14Z"/>
  <path class="cls-1" d="M4.42,11.95c.07-1.63.56-3.07,1.66-4.26.48-.52.64-.51,1.12,0,.32.34.63.69.95,1.02.31.31.34.6.05.96-1.2,1.46-1.24,2.87-.11,4.45.24.33.24.58-.07.85-.39.35-.77.71-1.14,1.07-.35.35-.65.33-.97-.06-.99-1.18-1.41-2.56-1.48-4.03Z"/>
</svg>