<?xml version="1.0" encoding="UTF-8"?>
<svg id="Layer_1" data-name="Layer 1" xmlns="http://www.w3.org/2000/svg" viewBox="0 0 32 32">
  <defs>
    <style>
      .cls-1 {
        fill: #000;
        stroke-width: 0px;
      }
    </style>
  </defs>
  <path class="cls-1" d="M20.06,21.77c-6.02,4.73-13.74,2.76-17.4-2.09C-1.04,14.77-.53,7.84,3.9,3.59,8.4-.73,15.35-1,20.14,2.99c4.8,3.99,6.1,11.39,1.66,17.02.14.14.27.3.42.44,2.99,2.98,5.97,5.97,8.97,8.95.1.1.2.19.29.3.45.51.43,1.26-.04,1.71-.47.46-1.21.47-1.7-.02-1.48-1.46-2.96-2.94-4.43-4.41-1.64-1.63-3.27-3.26-4.91-4.89-.11-.11-.23-.21-.33-.32h0ZM12.31,22.02c5.4,0,9.76-4.3,9.78-9.66.02-5.38-4.37-9.77-9.75-9.76C6.98,2.6,2.64,6.93,2.62,12.28c-.02,5.4,4.28,9.74,9.68,9.74h0Z"/>
</svg>