<?xml version="1.0" encoding="UTF-8"?>
<svg id="Layer_1" data-name="Layer 1" xmlns="http://www.w3.org/2000/svg" viewBox="0 0 32 32">
  <defs>
    <style>
      .cls-1 {
        stroke-width: 0px;
      }
    </style>
  </defs>
  <path class="cls-1" d="M5.42,29.2c.26-1.52.54-3.2.83-4.87.2-1.15.38-2.31.6-3.45.07-.38-.03-.62-.31-.89-1.96-1.89-3.91-3.79-5.86-5.69-.72-.7-.86-1.49-.47-2.32.24-.52.64-.85,1.21-.93,2.78-.43,5.57-.87,8.36-1.26.47-.07.7-.25.9-.66,1.1-2.28,2.23-4.54,3.33-6.81.42-.86.87-1.61,1.98-1.62,1.1,0,1.58.72,2,1.59,1.11,2.32,2.27,4.61,3.39,6.93.18.37.41.51.82.57,2.81.4,5.61.83,8.42,1.27.67.11,1.09.55,1.28,1.19.22.72.11,1.39-.45,1.94-1.19,1.16-2.38,2.31-3.57,3.47-.82.8-1.66,1.59-2.45,2.42-.17.18-.28.52-.25.76.43,2.71.9,5.41,1.37,8.11.14.81-.04,1.47-.71,1.97-.66.5-1.34.52-2.08.14-2.4-1.26-4.82-2.5-7.22-3.77-.38-.2-.67-.21-1.05,0-2.44,1.29-4.89,2.55-7.34,3.82-1.32.68-2.77-.24-2.72-1.88Z"/>
</svg>