<?xml version="1.0" encoding="UTF-8"?>
<svg id="Layer_1" data-name="Layer 1" xmlns="http://www.w3.org/2000/svg" viewBox="0 0 32 32">
  <defs>
    <style>
      .cls-1 {
        stroke-width: 0px;
      }
    </style>
  </defs>
  <path class="cls-1" d="M5.42,29.21c.26-1.51.54-3.21.83-4.9.19-1.09.36-2.18.57-3.26.09-.48,0-.82-.38-1.17-1.93-1.83-3.83-3.69-5.73-5.55-.74-.72-.9-1.47-.53-2.3.24-.55.64-.89,1.24-.98,2.78-.43,5.57-.86,8.36-1.26.43-.06.68-.21.87-.6,1.16-2.39,2.35-4.76,3.5-7.15.38-.79.91-1.32,1.84-1.32.92,0,1.46.51,1.85,1.31,1.13,2.35,2.31,4.68,3.45,7.03.23.47.49.67,1.04.74,2.71.37,5.4.82,8.1,1.22.73.11,1.22.47,1.44,1.16.24.72.17,1.39-.39,1.95-1.2,1.18-2.4,2.35-3.61,3.52-.82.8-1.66,1.59-2.45,2.42-.17.17-.28.52-.24.76.44,2.7.9,5.4,1.37,8.1.14.81-.05,1.47-.72,1.97-.67.5-1.34.51-2.08.13-2.42-1.27-4.86-2.52-7.28-3.8-.34-.18-.6-.18-.94,0-2.46,1.29-4.93,2.57-7.39,3.84-1.3.67-2.74-.22-2.72-1.86ZM8.57,27.67c.34-.17.54-.27.75-.37,2.06-1.09,4.13-2.18,6.18-3.29.36-.19.64-.23,1-.01.64.38,1.3.71,1.96,1.06,1.63.86,3.25,1.73,4.93,2.61,0-.2.02-.32,0-.44-.39-2.37-.79-4.73-1.19-7.1-.09-.51-.02-.89.4-1.29,1.67-1.57,3.3-3.2,4.94-4.8.16-.16.31-.33.51-.54-.45-.07-.8-.13-1.15-.18-2.18-.31-4.36-.63-6.54-.93-.43-.06-.69-.23-.89-.66-.99-2.09-2.03-4.16-3.05-6.24-.11-.22-.23-.42-.4-.73-1.18,2.39-2.31,4.65-3.4,6.93-.21.43-.45.67-.92.71-.42.03-.84.1-1.26.16-2.11.3-4.22.61-6.42.93.21.23.36.4.52.56,1.67,1.64,3.33,3.28,5.02,4.9.32.31.4.6.33,1.01-.21,1.13-.4,2.26-.58,3.39-.23,1.4-.46,2.8-.71,4.33Z"/>
</svg>