<?xml version="1.0" encoding="UTF-8"?>
<svg id="Layer_1" data-name="Layer 1" xmlns="http://www.w3.org/2000/svg" viewBox="0 0 32 32">
  <defs>
    <style>
      .cls-1 {
        stroke-width: 0px;
      }
    </style>
  </defs>
  <path class="cls-1" d="M16.05,31.94H6.86C2.9,31.94.02,29.06,0,25.13,0,23.22.02,21.3,0,19.39,0,18.8.17,18.59.79,18.59c4.39.02,8.8.02,13.19,0,.56,0,.82.17.76.75-.03.24-.02.5.02.76.09.66.56,1.08,1.2,1.13.63.03,1.13-.37,1.28-1.02.02-.09.03-.18.03-.27.07-.88.55-1.33,1.43-1.33h12.29q1.01,0,1.01.98v5.73c-.02,3.7-2.93,6.62-6.63,6.63-3.11.02-6.22,0-9.33,0h.02Z"/>
  <path class="cls-1" d="M15.93,16.06H.95Q0,16.06,0,15.1v-3.17c.03-3.51,2.96-6.54,6.45-6.52,1.19,0,1.71-.32,2.18-1.43C9.74,1.41,11.86.14,14.65.11c1.37-.02,2.77-.18,4.13.14,2.39.58,4.05,2.01,4.86,4.34.21.64.52.79,1.14.78,2.77-.09,4.89,1.04,6.36,3.4.53.88.82,1.84.84,2.88.02,1.17-.03,2.35.02,3.52.03.69-.18.91-.88.9-5.06-.03-10.12,0-15.2,0l.02-.02ZM16.01,5.34h4.41c.43,0,.56-.11.32-.52-.63-1.04-1.49-1.72-2.71-1.92-1.1-.18-2.2-.06-3.29-.06-1.45-.02-2.61.62-3.38,1.87-.09.15-.26.3-.17.49.11.2.34.11.5.11h4.34l-.02.03Z"/>
</svg>