<?xml version="1.0" encoding="UTF-8"?>
<svg id="Layer_1" data-name="Layer 1" xmlns="http://www.w3.org/2000/svg" viewBox="0 0 32 32">
  <defs>
    <style>
      .cls-1 {
        fill: #010101;
        stroke-width: 0px;
      }
    </style>
  </defs>
  <g id="Capa_1" data-name="Capa 1">
    <path class="cls-1" d="M8.23,2.95c0,.22,0,.48.07.73l1.29,5.8c.04.22.07.51.07.81,0,.92-.26,1.98-.59,2.61l-2.31,4c-.26.48-.4.96-.4,1.43,0,1.32,1.07,2.24,2.57,2.24h6.87v10.29c0,.62.51,1.14,1.14,1.14s1.14-.51,1.14-1.14v-10.29h6.87c1.51,0,2.57-.92,2.57-2.24,0-.48-.15-.96-.4-1.43l-2.31-4.04c-.33-.62-.59-1.69-.59-2.61,0-.29,0-.59.07-.81l1.29-5.8c.04-.26.07-.48.07-.73C25.65,1.26,24.36.01,22.67.01h-11.46c-1.69,0-2.98,1.25-2.98,2.9v.04ZM22.63,2.33c.51,0,.77.33.66.85l-1.29,5.8c-.07.4-.15.81-.15,1.29,0,1.32.33,2.76.88,3.75l2.31,4.04s.07.18.11.26H8.67s.04-.15.11-.26l2.31-4.04c.55-.96.88-2.39.88-3.75,0-.48-.04-.92-.15-1.29l-1.29-5.8c-.11-.51.15-.85.66-.85h11.43Z"/>
  </g>
</svg>