<?xml version="1.0" encoding="UTF-8"?>
<svg id="Layer_1" data-name="Layer 1" xmlns="http://www.w3.org/2000/svg" viewBox="0 0 32 32">
  <defs>
    <style>
      .cls-1 {
        fill: #212121;
        stroke-width: 0px;
      }
    </style>
  </defs>
  <path class="cls-1" d="M19.28,19.14h5.11v-2.28H7.63v2.28h5.14c.29,0,.5.22.5.5v9.51c0,.29-.22.5-.5.5H.5c-.29,0-.5-.22-.5-.5v-9.48c0-.29.22-.5.5-.5h5.16v-3.74c0-.29.22-.5.5-.5h8.83v-2.06h-5.11c-.29,0-.5-.22-.5-.5V2.84c0-.29.22-.5.5-.5h12.24c.29,0,.5.22.5.5v9.48c0,.29-.22.5-.5.5h-5.11v2.06h8.81c.29,0,.5.22.5.5v3.74h5.16c.29,0,.5.22.5.5v9.51c0,.29-.22.5-.5.5h-12.24c-.29,0-.5-.22-.5-.5v-9.51c0-.29.22-.5.5-.5h.02Z"/>
</svg>