<?xml version="1.0" encoding="UTF-8"?>
<svg id="Layer_1" data-name="Layer 1" xmlns="http://www.w3.org/2000/svg" viewBox="0 0 32 32">
  <defs>
    <style>
      .cls-1 {
        fill: #000;
        stroke-width: 0px;
      }
    </style>
  </defs>
  <path class="cls-1" d="M16.42,16.41v.34c0,3.28,0,6.55,0,9.83,0,2.02-1.7,3.73-3.72,3.73-3,0-6,0-8.99,0-2,0-3.7-1.71-3.71-3.71,0-7.63,0-15.26,0-22.89C0,1.71,1.71,0,3.71,0c7.64,0,15.27,0,22.91,0,1.98,0,3.69,1.71,3.69,3.7,0,3.01,0,6.01,0,9.02,0,1.98-1.71,3.7-3.69,3.7-3.29,0-6.58,0-9.88,0h-.32ZM13.88,13.87V2.52c-.09,0-.17,0-.24,0-3.22,0-6.45,0-9.67,0-.95,0-1.45.51-1.45,1.45,0,3.21,0,6.41,0,9.62,0,.09,0,.18,0,.28h11.36ZM16.43,13.89c.06,0,.1,0,.13,0,3.29,0,6.58,0,9.88,0,.85,0,1.36-.54,1.36-1.41,0-2.84,0-5.67,0-8.51,0-.95-.5-1.45-1.45-1.45-3.22,0-6.43,0-9.65,0h-.26v11.37ZM2.53,16.42c0,.08,0,.13,0,.18,0,3.27,0,6.53,0,9.8,0,.12,0,.24.03.35.13.66.64,1.04,1.41,1.04,2.82,0,5.64,0,8.46,0,.98,0,1.48-.49,1.48-1.47,0-3.21,0-6.42,0-9.62v-.27H2.53Z"/>
  <path class="cls-1" d="M26.05,27.88c-.05.08-.1.16-.16.23-1.17,1.17-2.34,2.35-3.52,3.52-.43.43-1.07.5-1.58.18-.48-.31-.72-.91-.52-1.45.08-.23.24-.44.41-.62,1.13-1.15,2.27-2.28,3.41-3.41.07-.06.15-.11.24-.17-.1-.11-.16-.18-.23-.24-1.17-1.17-2.35-2.34-3.52-3.52-.36-.36-.47-.79-.32-1.28.14-.46.46-.76.93-.86.47-.1.88.04,1.22.38.72.72,1.44,1.44,2.16,2.16.5.5,1,1,1.51,1.52.08-.08.15-.14.22-.21,1.16-1.16,2.32-2.32,3.48-3.48.73-.72,1.9-.44,2.15.52.13.5-.01.92-.38,1.29-.99.98-1.98,1.98-2.97,2.96-.23.23-.47.46-.72.7.08.09.14.15.21.22,1.17,1.17,2.35,2.34,3.52,3.52.7.71.39,1.89-.56,2.13-.49.12-.91-.01-1.27-.37-.68-.68-1.36-1.36-2.04-2.04-.49-.49-.98-.97-1.46-1.47-.06-.06-.09-.15-.13-.22-.04,0-.07.01-.11.02Z"/>
</svg>