<?xml version="1.0" encoding="UTF-8"?>
<svg id="Layer_1" data-name="Layer 1" xmlns="http://www.w3.org/2000/svg" viewBox="0 0 32 32">
  <defs>
    <style>
      .cls-1 {
        fill: #000;
        stroke-width: 0px;
      }
    </style>
  </defs>
  <path class="cls-1" d="M15.99,30.38H5.06C1.94,30.38,0,28.41,0,25.32v-3.63C0,20.54.77,19.69,1.78,19.69s1.78.85,1.78,2v3.85c0,.87.38,1.28,1.26,1.28h22.33c.87,0,1.26-.38,1.26-1.26v-3.96c0-1.04.74-1.83,1.72-1.89.87-.03,1.8.68,1.83,1.64.05,1.69.11,3.42-.08,5.11-.27,2.35-2.24,3.91-4.65,3.94h-11.21l-.03-.03Z"/>
  <path class="cls-1" d="M17.76,6.93v15.77c0,1.07-.41,1.69-1.23,1.97-1.01.33-2.08-.3-2.27-1.34-.05-.27-.05-.55-.05-.79V6.93c-.41.33-.74.57-1.04.85-1.5,1.26-3.01,2.51-4.51,3.74-.63.52-1.31.63-2.02.22-.68-.38-1.04-1.01-.87-1.78.08-.41.33-.87.66-1.15,2.73-2.32,5.52-4.65,8.28-6.94.9-.74,1.69-.74,2.6,0,2.76,2.3,5.55,4.62,8.31,6.91.79.68.93,1.72.3,2.51-.63.79-1.72.9-2.57.22-1.67-1.37-3.33-2.76-5-4.15-.14-.11-.3-.25-.57-.46v.03Z"/>
</svg>