<?xml version="1.0" encoding="UTF-8"?>
<svg id="Layer_1" data-name="Layer 1" xmlns="http://www.w3.org/2000/svg" viewBox="0 0 32 32">
  <defs>
    <style>
      .cls-1 {
        stroke-width: 0px;
      }
    </style>
  </defs>
  <path class="cls-1" d="M15.98,16.04c-4.44,0-8.15-3.64-8.06-8.06C8.02,3.22,11.83.04,16.02,0c3.81-.02,8.02,3.01,8.06,8.02.04,4.49-3.64,8.04-8.1,8.02ZM16.13,13.25c2.77-.04,5.21-2.28,5.14-5.33-.08-2.96-2.5-5.21-5.35-5.12-2.92.09-5.25,2.45-5.18,5.23.08,3.03,2.46,5.33,5.38,5.23v-.02Z"/>
  <path class="cls-1" d="M28.04,30.05c0,.13.02.28.02.42,0,.82-.47,1.44-1.21,1.52-.76.09-1.37-.36-1.55-1.18-.15-.64-.09-1.33-.23-1.99-.87-4.4-4.66-7.45-9.25-7.39-4.42.06-8.23,3.28-8.95,7.6-.09.57-.08,1.16-.17,1.73-.11.8-.76,1.29-1.5,1.21-.76-.06-1.25-.66-1.25-1.48.06-5.97,4.49-10.98,10.45-11.77,6.69-.89,12.84,3.87,13.61,10.56.04.25.02.51.04.76v.02Z"/>
</svg>