<?xml version="1.0" encoding="UTF-8"?>
<svg id="Layer_1" data-name="Layer 1" xmlns="http://www.w3.org/2000/svg" viewBox="0 0 32 32">
  <defs>
    <style>
      .cls-1 {
        fill: #000;
        stroke-width: 0px;
      }
    </style>
  </defs>
  <path class="cls-1" d="M3.09,30.58c.14-.85.24-1.72.42-2.56,1.18-5.33,5.44-9.26,10.8-9.98,6.74-.91,13,3.63,14.29,10.37.12.65.21,1.31.32,1.96v1.75c-8.61,0-17.22,0-25.83,0,0-.51,0-1.03,0-1.54ZM4.77,30.46h22.47c-.26-5.27-4.14-10.55-10.65-10.88-6.33-.32-11.34,4.32-11.82,10.88Z"/>
  <path class="cls-1" d="M17.08.12c.5.14,1.02.25,1.51.42,3.58,1.18,5.89,4.78,5.47,8.52-.42,3.78-3.41,6.75-7.17,7.14-4.35.45-8.29-2.63-8.85-6.92C7.47,4.91,10.41.94,14.75.22c.09-.02.18-.07.28-.1.69,0,1.37,0,2.06,0ZM22.48,8.2c.01-3.52-2.87-6.43-6.38-6.45-3.55-.02-6.49,2.85-6.51,6.37-.02,3.57,2.88,6.5,6.44,6.51,3.54,0,6.45-2.89,6.46-6.43Z"/>
</svg>