<?xml version="1.0" encoding="UTF-8"?>
<svg id="Layer_1" data-name="Layer 1" xmlns="http://www.w3.org/2000/svg" viewBox="0 0 32 32">
  <defs>
    <style>
      .cls-1 {
        fill: #000;
        stroke-width: 0px;
      }
    </style>
  </defs>
  <path class="cls-1" d="M15.31,4.79c6.63.1,11.8,2.09,16.12,6.2.87.83.72,2.09-.31,2.63-.58.31-1.31.17-1.9-.39-1.99-1.88-4.28-3.32-6.87-4.17-7.25-2.35-13.75-.93-19.47,4.1-.57.5-1.15.79-1.88.5-1.07-.43-1.34-1.79-.5-2.59,3.16-3.05,6.88-5.05,11.22-5.83,1.41-.25,2.85-.36,3.59-.45Z"/>
  <path class="cls-1" d="M15.99,12.76c3.6.07,6.75,1.27,9.48,3.59.52.44.67,1,.54,1.63-.13.6-.55.99-1.14,1.16-.61.18-1.11-.05-1.56-.44-1.56-1.34-3.35-2.18-5.38-2.52-3.26-.54-6.2.2-8.83,2.19-.2.15-.38.32-.58.47-.72.55-1.62.45-2.19-.22-.55-.65-.51-1.57.14-2.16,2-1.81,4.32-2.97,6.98-3.42.84-.14,1.69-.19,2.54-.28Z"/>
  <path class="cls-1" d="M16.01,20.83c1.72,0,3.19,1.49,3.18,3.21-.01,1.73-1.49,3.18-3.22,3.17-1.7-.01-3.15-1.48-3.15-3.19,0-1.73,1.47-3.2,3.2-3.19Z"/>
</svg>